<?xml version="1.0" encoding="UTF-8" standalone="no"?>
<!DOCTYPE svg PUBLIC "-//W3C//DTD SVG 1.1//EN"
 "http://www.w3.org/Graphics/SVG/1.1/DTD/svg11.dtd">
<!-- Generated by graphviz version 2.38.0 (20140413.2041)
 -->
<!-- Title: %3 Pages: 1 -->
<svg width="2033pt" height="375pt"
 viewBox="0.00 0.00 2033.00 375.11" xmlns="http://www.w3.org/2000/svg" xmlns:xlink="http://www.w3.org/1999/xlink">
<g id="graph0" class="graph" transform="scale(1 1) rotate(0) translate(4 371.108)">
<title>%3</title>
<polygon fill="white" stroke="none" points="-4,4 -4,-371.108 2029,-371.108 2029,4 -4,4"/>
<!-- 1280_35 -->
<g id="node1" class="node"><title>1280_35</title>
<polygon fill="#66cdaa" stroke="black" points="64,-27.7635 0,-27.7635 0,-4.76346 64,-4.76346 64,-27.7635"/>
<text text-anchor="middle" x="32" y="-12.5635" font-family="Times,serif" font-size="14.00">1280_35</text>
</g>
<!-- 1280_9x1280_18 -->
<g id="node2" class="node"><title>1280_9x1280_18</title>
<polygon fill="none" stroke="black" points="535,-75.5269 531.5,-72.0269 535,-68.5269 538.5,-72.0269 535,-75.5269"/>
</g>
<!-- 1280_9x1280_18&#45;&gt;1280_35 -->
<g id="edge1" class="edge"><title>1280_9x1280_18&#45;&gt;1280_35</title>
<path fill="none" stroke="black" d="M532.377,-71.0814C504.63,-71.6027 262.307,-74.8124 73,-32.5269 71.0542,-32.0923 69.0763,-31.5863 67.0935,-31.0282"/>
<polygon fill="black" stroke="black" points="67.8532,-27.5968 57.2625,-27.8918 65.7256,-34.2657 67.8532,-27.5968"/>
</g>
<!-- 1280_29 -->
<g id="node5" class="node"><title>1280_29</title>
<ellipse fill="#66cdaa" stroke="black" cx="127" cy="-16.2635" rx="45.011" ry="16.0303"/>
<text text-anchor="middle" x="127" y="-12.5635" font-family="Times,serif" font-size="14.00">1280_29</text>
</g>
<!-- 1280_9x1280_18&#45;&gt;1280_29 -->
<g id="edge3" class="edge"><title>1280_9x1280_18&#45;&gt;1280_29</title>
<path fill="none" stroke="black" d="M532.443,-70.9129C508.808,-69.8261 326.039,-60.7069 181,-32.5269 177.342,-31.8162 173.572,-30.9771 169.804,-30.0639"/>
<polygon fill="black" stroke="black" points="170.474,-26.6222 159.917,-27.5106 168.724,-33.3999 170.474,-26.6222"/>
</g>
<!-- 1280_28 -->
<g id="node6" class="node"><title>1280_28</title>
<polygon fill="#66cdaa" stroke="black" points="254,-27.7635 190,-27.7635 190,-4.76346 254,-4.76346 254,-27.7635"/>
<text text-anchor="middle" x="222" y="-12.5635" font-family="Times,serif" font-size="14.00">1280_28</text>
</g>
<!-- 1280_9x1280_18&#45;&gt;1280_28 -->
<g id="edge4" class="edge"><title>1280_9x1280_18&#45;&gt;1280_28</title>
<path fill="none" stroke="black" d="M532.538,-70.8816C512.386,-69.6507 372.56,-60.3269 263,-32.5269 261.123,-32.0506 259.213,-31.5177 257.295,-30.9442"/>
<polygon fill="black" stroke="black" points="258.352,-27.6074 247.759,-27.813 256.168,-34.2581 258.352,-27.6074"/>
</g>
<!-- 1280_27 -->
<g id="node8" class="node"><title>1280_27</title>
<polygon fill="#66cdaa" stroke="black" points="336,-27.7635 272,-27.7635 272,-4.76346 336,-4.76346 336,-27.7635"/>
<text text-anchor="middle" x="304" y="-12.5635" font-family="Times,serif" font-size="14.00">1280_27</text>
</g>
<!-- 1280_9x1280_18&#45;&gt;1280_27 -->
<g id="edge6" class="edge"><title>1280_9x1280_18&#45;&gt;1280_27</title>
<path fill="none" stroke="black" d="M532.709,-70.7019C516.763,-68.4108 420.729,-54.1519 345,-32.5269 343.539,-32.1098 342.057,-31.6647 340.564,-31.1986"/>
<polygon fill="black" stroke="black" points="341.3,-27.7537 330.706,-27.8896 339.073,-34.3898 341.3,-27.7537"/>
</g>
<!-- 1280_26 -->
<g id="node9" class="node"><title>1280_26</title>
<polygon fill="#66cdaa" stroke="black" points="418,-27.7635 354,-27.7635 354,-4.76346 418,-4.76346 418,-27.7635"/>
<text text-anchor="middle" x="386" y="-12.5635" font-family="Times,serif" font-size="14.00">1280_26</text>
</g>
<!-- 1280_9x1280_18&#45;&gt;1280_26 -->
<g id="edge7" class="edge"><title>1280_9x1280_18&#45;&gt;1280_26</title>
<path fill="none" stroke="black" d="M532.937,-70.3036C521.995,-66.4644 469.643,-48.0642 427,-32.5269 425.965,-32.1499 424.916,-31.7666 423.858,-31.379"/>
<polygon fill="black" stroke="black" points="424.805,-27.9982 414.212,-27.825 422.385,-34.5665 424.805,-27.9982"/>
</g>
<!-- 1280_24 -->
<g id="node10" class="node"><title>1280_24</title>
<ellipse fill="#66cdaa" stroke="black" cx="481" cy="-16.2635" rx="45.011" ry="16.0303"/>
<text text-anchor="middle" x="481" y="-12.5635" font-family="Times,serif" font-size="14.00">1280_24</text>
</g>
<!-- 1280_9x1280_18&#45;&gt;1280_24 -->
<g id="edge8" class="edge"><title>1280_9x1280_18&#45;&gt;1280_24</title>
<path fill="none" stroke="black" d="M533.665,-69.6979C529.348,-65.3994 515.317,-51.43 502.823,-38.9906"/>
<polygon fill="black" stroke="black" points="505.285,-36.5032 495.729,-31.9279 500.346,-41.4638 505.285,-36.5032"/>
</g>
<!-- 1280_25 -->
<g id="node29" class="node"><title>1280_25</title>
<ellipse fill="#66cdaa" stroke="black" cx="590" cy="-16.2635" rx="45.011" ry="16.0303"/>
<text text-anchor="middle" x="590" y="-12.5635" font-family="Times,serif" font-size="14.00">1280_25</text>
</g>
<!-- 1280_9x1280_18&#45;&gt;1280_25 -->
<g id="edge26" class="edge"><title>1280_9x1280_18&#45;&gt;1280_25</title>
<path fill="none" stroke="black" d="M536.36,-69.6979C540.785,-65.3724 555.228,-51.2539 568.013,-38.7561"/>
<polygon fill="black" stroke="black" points="570.557,-41.1642 575.261,-31.6711 565.663,-36.1585 570.557,-41.1642"/>
</g>
<!-- 1280_30 -->
<g id="node38" class="node"><title>1280_30</title>
<ellipse fill="#66cdaa" stroke="black" cx="699" cy="-16.2635" rx="45.011" ry="16.0303"/>
<text text-anchor="middle" x="699" y="-12.5635" font-family="Times,serif" font-size="14.00">1280_30</text>
</g>
<!-- 1280_9x1280_18&#45;&gt;1280_30 -->
<g id="edge35" class="edge"><title>1280_9x1280_18&#45;&gt;1280_30</title>
<path fill="none" stroke="black" d="M537.074,-70.3471C549.346,-66.3241 613.415,-45.3205 657.187,-30.9707"/>
<polygon fill="black" stroke="black" points="658.327,-34.2803 666.74,-27.8393 656.147,-27.6286 658.327,-34.2803"/>
</g>
<!-- 1280_31 -->
<g id="node40" class="node"><title>1280_31</title>
<ellipse fill="#66cdaa" stroke="black" cx="808" cy="-16.2635" rx="45.011" ry="16.0303"/>
<text text-anchor="middle" x="808" y="-12.5635" font-family="Times,serif" font-size="14.00">1280_31</text>
</g>
<!-- 1280_9x1280_18&#45;&gt;1280_31 -->
<g id="edge37" class="edge"><title>1280_9x1280_18&#45;&gt;1280_31</title>
<path fill="none" stroke="black" d="M537.61,-70.663C555.783,-68.1088 665.289,-52.3946 753,-32.5269 756.645,-31.7012 760.411,-30.7874 764.181,-29.8295"/>
<polygon fill="black" stroke="black" points="765.315,-33.1503 774.096,-27.2208 763.534,-26.3807 765.315,-33.1503"/>
</g>
<!-- 1280_32 -->
<g id="node44" class="node"><title>1280_32</title>
<polygon fill="#66cdaa" stroke="black" points="935,-27.7635 871,-27.7635 871,-4.76346 935,-4.76346 935,-27.7635"/>
<text text-anchor="middle" x="903" y="-12.5635" font-family="Times,serif" font-size="14.00">1280_32</text>
</g>
<!-- 1280_9x1280_18&#45;&gt;1280_32 -->
<g id="edge44" class="edge"><title>1280_9x1280_18&#45;&gt;1280_32</title>
<path fill="none" stroke="black" d="M537.661,-70.956C560.77,-70.2912 729.748,-64.4415 862,-32.5269 863.883,-32.0726 865.797,-31.5573 867.718,-30.9977"/>
<polygon fill="black" stroke="black" points="868.828,-34.3173 877.265,-27.908 866.673,-27.6575 868.828,-34.3173"/>
</g>
<!-- 1280_33 -->
<g id="node46" class="node"><title>1280_33</title>
<polygon fill="#66cdaa" stroke="black" points="1017,-27.7635 953,-27.7635 953,-4.76346 1017,-4.76346 1017,-27.7635"/>
<text text-anchor="middle" x="985" y="-12.5635" font-family="Times,serif" font-size="14.00">1280_33</text>
</g>
<!-- 1280_9x1280_18&#45;&gt;1280_33 -->
<g id="edge46" class="edge"><title>1280_9x1280_18&#45;&gt;1280_33</title>
<path fill="none" stroke="black" d="M537.638,-71.0423C563.671,-71.1409 777.149,-70.736 944,-32.5269 945.943,-32.0819 947.919,-31.5676 949.901,-31.003"/>
<polygon fill="black" stroke="black" points="951.276,-34.2374 959.728,-27.8478 949.136,-27.5725 951.276,-34.2374"/>
</g>
<!-- 1280_34 -->
<g id="node47" class="node"><title>1280_34</title>
<ellipse fill="#66cdaa" stroke="black" cx="1080" cy="-16.2635" rx="45.011" ry="16.0303"/>
<text text-anchor="middle" x="1080" y="-12.5635" font-family="Times,serif" font-size="14.00">1280_34</text>
</g>
<!-- 1280_9x1280_18&#45;&gt;1280_34 -->
<g id="edge47" class="edge"><title>1280_9x1280_18&#45;&gt;1280_34</title>
<path fill="none" stroke="black" d="M537.77,-71.0193C567.082,-70.896 823.148,-68.7823 1026,-32.5269 1029.72,-31.8622 1033.55,-31.0486 1037.38,-30.1464"/>
<polygon fill="black" stroke="black" points="1038.57,-33.4529 1047.4,-27.5931 1036.85,-26.6695 1038.57,-33.4529"/>
</g>
<!-- 1280_4 -->
<g id="node3" class="node"><title>1280_4</title>
<polygon fill="dimgrey" stroke="black" points="902.5,-139.29 845.5,-139.29 845.5,-116.29 902.5,-116.29 902.5,-139.29"/>
<text text-anchor="middle" x="874" y="-124.09" font-family="Times,serif" font-size="14.00">1280_4</text>
</g>
<!-- 1280_1x1280_2 -->
<g id="node4" class="node"><title>1280_1x1280_2</title>
<polygon fill="none" stroke="black" points="1296,-187.054 1292.5,-183.554 1296,-180.054 1299.5,-183.554 1296,-187.054"/>
</g>
<!-- 1280_1x1280_2&#45;&gt;1280_4 -->
<g id="edge2" class="edge"><title>1280_1x1280_2&#45;&gt;1280_4</title>
<path fill="none" stroke="black" d="M1293.2,-182.573C1267.35,-182.685 1067.51,-182.263 912,-144.054 910.339,-143.646 908.654,-143.179 906.965,-142.669"/>
<polygon fill="black" stroke="black" points="907.971,-139.314 897.376,-139.374 905.696,-145.934 907.971,-139.314"/>
</g>
<!-- 1280_41 -->
<g id="node7" class="node"><title>1280_41</title>
<ellipse fill="#66cdaa" stroke="black" cx="966" cy="-127.79" rx="45.011" ry="16.0303"/>
<text text-anchor="middle" x="966" y="-124.09" font-family="Times,serif" font-size="14.00">1280_41</text>
</g>
<!-- 1280_1x1280_2&#45;&gt;1280_41 -->
<g id="edge5" class="edge"><title>1280_1x1280_2&#45;&gt;1280_41</title>
<path fill="none" stroke="black" d="M1293.52,-182.339C1273.21,-180.55 1132.21,-167.624 1020,-144.054 1016.4,-143.298 1012.7,-142.434 1008.98,-141.51"/>
<polygon fill="black" stroke="black" points="1009.8,-138.105 999.238,-138.955 1008.02,-144.876 1009.8,-138.105"/>
</g>
<!-- 1280_38 -->
<g id="node24" class="node"><title>1280_38</title>
<polygon fill="#66cdaa" stroke="black" points="1093,-139.29 1029,-139.29 1029,-116.29 1093,-116.29 1093,-139.29"/>
<text text-anchor="middle" x="1061" y="-124.09" font-family="Times,serif" font-size="14.00">1280_38</text>
</g>
<!-- 1280_1x1280_2&#45;&gt;1280_38 -->
<g id="edge20" class="edge"><title>1280_1x1280_2&#45;&gt;1280_38</title>
<path fill="none" stroke="black" d="M1293.66,-182.235C1277.38,-179.986 1179.31,-165.961 1102,-144.054 1100.54,-143.64 1099.06,-143.197 1097.56,-142.733"/>
<polygon fill="black" stroke="black" points="1098.3,-139.288 1087.7,-139.432 1096.07,-145.926 1098.3,-139.288"/>
</g>
<!-- 1280_39 -->
<g id="node25" class="node"><title>1280_39</title>
<ellipse fill="#66cdaa" stroke="black" cx="1156" cy="-127.79" rx="45.011" ry="16.0303"/>
<text text-anchor="middle" x="1156" y="-124.09" font-family="Times,serif" font-size="14.00">1280_39</text>
</g>
<!-- 1280_1x1280_2&#45;&gt;1280_39 -->
<g id="edge21" class="edge"><title>1280_1x1280_2&#45;&gt;1280_39</title>
<path fill="none" stroke="black" d="M1294.02,-181.794C1283.37,-177.705 1232.01,-157.981 1195.06,-143.789"/>
<polygon fill="black" stroke="black" points="1196.12,-140.449 1185.53,-140.132 1193.61,-146.984 1196.12,-140.449"/>
</g>
<!-- 1280_40 -->
<g id="node26" class="node"><title>1280_40</title>
<polygon fill="#66cdaa" stroke="black" points="1283,-139.29 1219,-139.29 1219,-116.29 1283,-116.29 1283,-139.29"/>
<text text-anchor="middle" x="1251" y="-124.09" font-family="Times,serif" font-size="14.00">1280_40</text>
</g>
<!-- 1280_1x1280_2&#45;&gt;1280_40 -->
<g id="edge22" class="edge"><title>1280_1x1280_2&#45;&gt;1280_40</title>
<path fill="none" stroke="black" d="M1294.5,-180.765C1290.15,-175.564 1277.13,-160.005 1266.46,-147.256"/>
<polygon fill="black" stroke="black" points="1269,-144.842 1259.9,-139.42 1263.63,-149.335 1269,-144.842"/>
</g>
<!-- 1280_6 -->
<g id="node32" class="node"><title>1280_6</title>
<ellipse fill="#66cdaa" stroke="black" cx="1341" cy="-127.79" rx="40.1111" ry="16.0303"/>
<text text-anchor="middle" x="1341" y="-124.09" font-family="Times,serif" font-size="14.00">1280_6</text>
</g>
<!-- 1280_1x1280_2&#45;&gt;1280_6 -->
<g id="edge28" class="edge"><title>1280_1x1280_2&#45;&gt;1280_6</title>
<path fill="none" stroke="black" d="M1297.5,-180.765C1301.39,-176.117 1312.2,-163.196 1322.08,-151.401"/>
<polygon fill="black" stroke="black" points="1324.93,-153.445 1328.66,-143.53 1319.56,-148.952 1324.93,-153.445"/>
</g>
<!-- 1280_5 -->
<g id="node33" class="node"><title>1280_5</title>
<ellipse fill="#66cdaa" stroke="black" cx="1440" cy="-127.79" rx="40.1111" ry="16.0303"/>
<text text-anchor="middle" x="1440" y="-124.09" font-family="Times,serif" font-size="14.00">1280_5</text>
</g>
<!-- 1280_1x1280_2&#45;&gt;1280_5 -->
<g id="edge29" class="edge"><title>1280_1x1280_2&#45;&gt;1280_5</title>
<path fill="none" stroke="black" d="M1298.04,-181.794C1309.18,-177.635 1363.65,-157.298 1401.78,-143.062"/>
<polygon fill="black" stroke="black" points="1403.42,-146.184 1411.56,-139.407 1400.97,-139.626 1403.42,-146.184"/>
</g>
<!-- 1280_9 -->
<g id="node35" class="node"><title>1280_9</title>
<polygon fill="#66cdaa" stroke="black" points="827.5,-139.29 770.5,-139.29 770.5,-116.29 827.5,-116.29 827.5,-139.29"/>
<text text-anchor="middle" x="799" y="-124.09" font-family="Times,serif" font-size="14.00">1280_9</text>
</g>
<!-- 1280_1x1280_2&#45;&gt;1280_9 -->
<g id="edge31" class="edge"><title>1280_1x1280_2&#45;&gt;1280_9</title>
<path fill="none" stroke="black" d="M1293.38,-182.641C1265.67,-183.497 1023.72,-189.471 836,-144.054 834.523,-143.696 833.028,-143.289 831.529,-142.842"/>
<polygon fill="black" stroke="black" points="832.321,-139.412 821.726,-139.443 830.028,-146.026 832.321,-139.412"/>
</g>
<!-- 1280_3 -->
<g id="node36" class="node"><title>1280_3</title>
<polygon fill="#66cdaa" stroke="black" points="1555.5,-139.29 1498.5,-139.29 1498.5,-116.29 1555.5,-116.29 1555.5,-139.29"/>
<text text-anchor="middle" x="1527" y="-124.09" font-family="Times,serif" font-size="14.00">1280_3</text>
</g>
<!-- 1280_1x1280_2&#45;&gt;1280_3 -->
<g id="edge33" class="edge"><title>1280_1x1280_2&#45;&gt;1280_3</title>
<path fill="none" stroke="black" d="M1298.33,-182.255C1314.58,-180.143 1412.37,-166.872 1489,-144.054 1490.41,-143.635 1491.83,-143.185 1493.26,-142.711"/>
<polygon fill="black" stroke="black" points="1494.48,-145.994 1502.71,-139.32 1492.11,-139.406 1494.48,-145.994"/>
</g>
<!-- 1280_7 -->
<g id="node37" class="node"><title>1280_7</title>
<ellipse fill="#66cdaa" stroke="black" cx="1614" cy="-127.79" rx="40.1111" ry="16.0303"/>
<text text-anchor="middle" x="1614" y="-124.09" font-family="Times,serif" font-size="14.00">1280_7</text>
</g>
<!-- 1280_1x1280_2&#45;&gt;1280_7 -->
<g id="edge34" class="edge"><title>1280_1x1280_2&#45;&gt;1280_7</title>
<path fill="none" stroke="black" d="M1298.42,-182.356C1318.26,-180.706 1455.94,-168.679 1565,-144.054 1568.17,-143.338 1571.44,-142.515 1574.7,-141.632"/>
<polygon fill="black" stroke="black" points="1575.76,-144.968 1584.41,-138.842 1573.83,-138.241 1575.76,-144.968"/>
</g>
<!-- 1280_99 -->
<g id="node42" class="node"><title>1280_99</title>
<ellipse fill="dimgrey" stroke="black" cx="1799" cy="-127.79" rx="45.011" ry="16.0303"/>
<text text-anchor="middle" x="1799" y="-124.09" font-family="Times,serif" font-size="14.00">1280_99</text>
</g>
<!-- 1280_1x1280_2&#45;&gt;1280_99 -->
<g id="edge41" class="edge"><title>1280_1x1280_2&#45;&gt;1280_99</title>
<path fill="none" stroke="black" d="M1298.53,-182.521C1325.34,-182.141 1559.51,-177.904 1745,-144.054 1748.72,-143.376 1752.55,-142.552 1756.37,-141.644"/>
<polygon fill="black" stroke="black" points="1757.57,-144.949 1766.39,-139.081 1755.84,-138.167 1757.57,-144.949"/>
</g>
<!-- 1280_8 -->
<g id="node43" class="node"><title>1280_8</title>
<ellipse fill="#66cdaa" stroke="black" cx="1903" cy="-127.79" rx="40.1111" ry="16.0303"/>
<text text-anchor="middle" x="1903" y="-124.09" font-family="Times,serif" font-size="14.00">1280_8</text>
</g>
<!-- 1280_1x1280_2&#45;&gt;1280_8 -->
<g id="edge43" class="edge"><title>1280_1x1280_2&#45;&gt;1280_8</title>
<path fill="none" stroke="black" d="M1298.75,-182.603C1330.03,-183.118 1622.33,-186.661 1853,-144.054 1856.6,-143.388 1860.31,-142.553 1864.01,-141.618"/>
<polygon fill="black" stroke="black" points="1864.95,-144.988 1873.66,-138.959 1863.09,-138.24 1864.95,-144.988"/>
</g>
<!-- 1280_23 -->
<g id="node11" class="node"><title>1280_23</title>
<polygon fill="#66cdaa" stroke="black" points="398,-139.29 334,-139.29 334,-116.29 398,-116.29 398,-139.29"/>
<text text-anchor="middle" x="366" y="-124.09" font-family="Times,serif" font-size="14.00">1280_23</text>
</g>
<!-- 1280_16x1280_17 -->
<g id="node12" class="node"><title>1280_16x1280_17</title>
<polygon fill="none" stroke="black" points="530,-187.054 526.5,-183.554 530,-180.054 533.5,-183.554 530,-187.054"/>
</g>
<!-- 1280_16x1280_17&#45;&gt;1280_23 -->
<g id="edge9" class="edge"><title>1280_16x1280_17&#45;&gt;1280_23</title>
<path fill="none" stroke="black" d="M527.958,-181.959C516.174,-178.517 455.69,-160.724 407,-144.054 405.787,-143.639 404.557,-143.212 403.315,-142.777"/>
<polygon fill="black" stroke="black" points="404.312,-139.416 393.717,-139.336 401.949,-146.005 404.312,-139.416"/>
</g>
<!-- 1280_22 -->
<g id="node13" class="node"><title>1280_22</title>
<polygon fill="#66cdaa" stroke="black" points="480,-139.29 416,-139.29 416,-116.29 480,-116.29 480,-139.29"/>
<text text-anchor="middle" x="448" y="-124.09" font-family="Times,serif" font-size="14.00">1280_22</text>
</g>
<!-- 1280_16x1280_17&#45;&gt;1280_22 -->
<g id="edge10" class="edge"><title>1280_16x1280_17&#45;&gt;1280_22</title>
<path fill="none" stroke="black" d="M528.287,-181.431C521.204,-176.786 493.588,-158.68 472.707,-144.99"/>
<polygon fill="black" stroke="black" points="474.531,-142.001 464.25,-139.444 470.693,-147.855 474.531,-142.001"/>
</g>
<!-- 1280_21 -->
<g id="node14" class="node"><title>1280_21</title>
<polygon fill="#66cdaa" stroke="black" points="562,-139.29 498,-139.29 498,-116.29 562,-116.29 562,-139.29"/>
<text text-anchor="middle" x="530" y="-124.09" font-family="Times,serif" font-size="14.00">1280_21</text>
</g>
<!-- 1280_16x1280_17&#45;&gt;1280_21 -->
<g id="edge11" class="edge"><title>1280_16x1280_17&#45;&gt;1280_21</title>
<path fill="none" stroke="black" d="M530,-179.961C530,-174.493 530,-161.327 530,-149.721"/>
<polygon fill="black" stroke="black" points="533.5,-149.372 530,-139.372 526.5,-149.372 533.5,-149.372"/>
</g>
<!-- 1280_20 -->
<g id="node15" class="node"><title>1280_20</title>
<polygon fill="#66cdaa" stroke="black" points="644,-139.29 580,-139.29 580,-116.29 644,-116.29 644,-139.29"/>
<text text-anchor="middle" x="612" y="-124.09" font-family="Times,serif" font-size="14.00">1280_20</text>
</g>
<!-- 1280_16x1280_17&#45;&gt;1280_20 -->
<g id="edge12" class="edge"><title>1280_16x1280_17&#45;&gt;1280_20</title>
<path fill="none" stroke="black" d="M531.713,-181.431C538.796,-176.786 566.412,-158.68 587.293,-144.99"/>
<polygon fill="black" stroke="black" points="589.307,-147.855 595.75,-139.444 585.469,-142.001 589.307,-147.855"/>
</g>
<!-- 1280_19 -->
<g id="node16" class="node"><title>1280_19</title>
<ellipse fill="#66cdaa" stroke="black" cx="707" cy="-127.79" rx="45.011" ry="16.0303"/>
<text text-anchor="middle" x="707" y="-124.09" font-family="Times,serif" font-size="14.00">1280_19</text>
</g>
<!-- 1280_16x1280_17&#45;&gt;1280_19 -->
<g id="edge13" class="edge"><title>1280_16x1280_17&#45;&gt;1280_19</title>
<path fill="none" stroke="black" d="M531.988,-181.95C544.753,-178.073 616.172,-156.379 663.741,-141.93"/>
<polygon fill="black" stroke="black" points="664.948,-145.221 673.5,-138.966 662.914,-138.524 664.948,-145.221"/>
</g>
<!-- 1280_18 -->
<g id="node27" class="node"><title>1280_18</title>
<ellipse fill="dimgrey" stroke="black" cx="271" cy="-127.79" rx="45.011" ry="16.0303"/>
<text text-anchor="middle" x="271" y="-124.09" font-family="Times,serif" font-size="14.00">1280_18</text>
</g>
<!-- 1280_16x1280_17&#45;&gt;1280_18 -->
<g id="edge23" class="edge"><title>1280_16x1280_17&#45;&gt;1280_18</title>
<path fill="none" stroke="black" d="M527.546,-182.179C510.458,-179.549 407.495,-163.418 325,-144.054 321.577,-143.25 318.045,-142.37 314.504,-141.45"/>
<polygon fill="black" stroke="black" points="315.147,-137.999 304.581,-138.786 313.332,-144.76 315.147,-137.999"/>
</g>
<!-- 1280_17 -->
<g id="node17" class="node"><title>1280_17</title>
<ellipse fill="#66cdaa" stroke="black" cx="530" cy="-239.317" rx="45.011" ry="16.0303"/>
<text text-anchor="middle" x="530" y="-235.617" font-family="Times,serif" font-size="14.00">1280_17</text>
</g>
<!-- 1280_17&#45;&gt;1280_16x1280_17 -->
<g id="edge14" class="edge"><title>1280_17&#45;&gt;1280_16x1280_17</title>
<path fill="none" stroke="black" d="M530,-222.767C530,-214.661 530,-204.872 530,-197.232"/>
<polygon fill="black" stroke="black" points="533.5,-197.077 530,-187.077 526.5,-197.077 533.5,-197.077"/>
</g>
<!-- 1280_16 -->
<g id="node18" class="node"><title>1280_16</title>
<polygon fill="#66cdaa" stroke="black" points="813,-250.817 749,-250.817 749,-227.817 813,-227.817 813,-250.817"/>
<text text-anchor="middle" x="781" y="-235.617" font-family="Times,serif" font-size="14.00">1280_16</text>
</g>
<!-- 1280_16&#45;&gt;1280_16x1280_17 -->
<g id="edge16" class="edge"><title>1280_16&#45;&gt;1280_16x1280_17</title>
<path fill="none" stroke="black" d="M748.956,-231.453C692.928,-219.452 579.569,-195.171 542.231,-187.174"/>
<polygon fill="black" stroke="black" points="542.673,-183.689 532.162,-185.017 541.207,-190.534 542.673,-183.689"/>
</g>
<!-- 1280_14x1280_15 -->
<g id="node19" class="node"><title>1280_14x1280_15</title>
<polygon fill="none" stroke="black" points="1094,-298.581 1090.5,-295.081 1094,-291.581 1097.5,-295.081 1094,-298.581"/>
</g>
<!-- 1280_14x1280_15&#45;&gt;1280_16 -->
<g id="edge15" class="edge"><title>1280_14x1280_15&#45;&gt;1280_16</title>
<path fill="none" stroke="black" d="M1091.66,-293.679C1069.98,-289.954 903.087,-261.288 823.268,-247.578"/>
<polygon fill="black" stroke="black" points="823.512,-244.068 813.064,-245.825 822.327,-250.967 823.512,-244.068"/>
</g>
<!-- 1280_1 -->
<g id="node41" class="node"><title>1280_1</title>
<polygon fill="#66cdaa" stroke="black" points="1367.5,-250.817 1310.5,-250.817 1310.5,-227.817 1367.5,-227.817 1367.5,-250.817"/>
<text text-anchor="middle" x="1339" y="-235.617" font-family="Times,serif" font-size="14.00">1280_1</text>
</g>
<!-- 1280_14x1280_15&#45;&gt;1280_1 -->
<g id="edge38" class="edge"><title>1280_14x1280_15&#45;&gt;1280_1</title>
<path fill="none" stroke="black" d="M1096.5,-293.806C1113.93,-291.852 1218.86,-279.459 1301,-255.581 1302.41,-255.171 1303.84,-254.729 1305.27,-254.261"/>
<polygon fill="black" stroke="black" points="1306.47,-257.548 1314.72,-250.896 1304.13,-250.954 1306.47,-257.548"/>
</g>
<!-- 1280_15 -->
<g id="node20" class="node"><title>1280_15</title>
<ellipse fill="#66cdaa" stroke="black" cx="1047" cy="-350.844" rx="45.011" ry="16.0303"/>
<text text-anchor="middle" x="1047" y="-347.144" font-family="Times,serif" font-size="14.00">1280_15</text>
</g>
<!-- 1280_15&#45;&gt;1280_14x1280_15 -->
<g id="edge17" class="edge"><title>1280_15&#45;&gt;1280_14x1280_15</title>
<path fill="none" stroke="black" d="M1059.84,-335.153C1068.19,-325.604 1078.81,-313.452 1085.98,-305.256"/>
<polygon fill="black" stroke="black" points="1088.67,-307.493 1092.62,-297.661 1083.4,-302.886 1088.67,-307.493"/>
</g>
<!-- 1280_14 -->
<g id="node21" class="node"><title>1280_14</title>
<polygon fill="#66cdaa" stroke="black" points="1174,-362.344 1110,-362.344 1110,-339.344 1174,-339.344 1174,-362.344"/>
<text text-anchor="middle" x="1142" y="-347.144" font-family="Times,serif" font-size="14.00">1280_14</text>
</g>
<!-- 1280_14&#45;&gt;1280_14x1280_15 -->
<g id="edge18" class="edge"><title>1280_14&#45;&gt;1280_14x1280_15</title>
<path fill="none" stroke="black" d="M1132.52,-339.222C1123.69,-329.334 1110.66,-314.744 1102.25,-305.325"/>
<polygon fill="black" stroke="black" points="1104.63,-302.73 1095.36,-297.601 1099.41,-307.392 1104.63,-302.73"/>
</g>
<!-- 1280_36 -->
<g id="node22" class="node"><title>1280_36</title>
<ellipse fill="#66cdaa" stroke="black" cx="1756" cy="-239.317" rx="45.011" ry="16.0303"/>
<text text-anchor="middle" x="1756" y="-235.617" font-family="Times,serif" font-size="14.00">1280_36</text>
</g>
<!-- 1280_1x1280_36 -->
<g id="node23" class="node"><title>1280_1x1280_36</title>
<polygon fill="none" stroke="black" points="1756,-187.054 1752.5,-183.554 1756,-180.054 1759.5,-183.554 1756,-187.054"/>
</g>
<!-- 1280_36&#45;&gt;1280_1x1280_36 -->
<g id="edge19" class="edge"><title>1280_36&#45;&gt;1280_1x1280_36</title>
<path fill="none" stroke="black" d="M1756,-222.767C1756,-214.661 1756,-204.872 1756,-197.232"/>
<polygon fill="black" stroke="black" points="1759.5,-197.077 1756,-187.077 1752.5,-197.077 1759.5,-197.077"/>
</g>
<!-- 1280_37 -->
<g id="node28" class="node"><title>1280_37</title>
<polygon fill="dimgrey" stroke="black" points="2025,-139.29 1961,-139.29 1961,-116.29 2025,-116.29 2025,-139.29"/>
<text text-anchor="middle" x="1993" y="-124.09" font-family="Times,serif" font-size="14.00">1280_37</text>
</g>
<!-- 1280_1x1280_36&#45;&gt;1280_37 -->
<g id="edge25" class="edge"><title>1280_1x1280_36&#45;&gt;1280_37</title>
<path fill="none" stroke="black" d="M1758.36,-182.238C1774.82,-180.011 1873.91,-166.102 1952,-144.054 1953.46,-143.641 1954.95,-143.2 1956.44,-142.737"/>
<polygon fill="black" stroke="black" points="1957.93,-145.93 1966.3,-139.44 1955.71,-139.291 1957.93,-145.93"/>
</g>
<!-- 1280_18&#45;&gt;1280_9x1280_18 -->
<g id="edge24" class="edge"><title>1280_18&#45;&gt;1280_9x1280_18</title>
<path fill="none" stroke="black" d="M304.576,-116.772C311.31,-114.912 318.357,-113.071 325,-111.527 399.252,-94.267 489.736,-79.8911 522.448,-74.9051"/>
<polygon fill="black" stroke="black" points="523.117,-78.3439 532.486,-73.3959 522.076,-71.4217 523.117,-78.3439"/>
</g>
<!-- 1280_11 -->
<g id="node30" class="node"><title>1280_11</title>
<polygon fill="#66cdaa" stroke="black" points="1701,-27.7635 1637,-27.7635 1637,-4.76346 1701,-4.76346 1701,-27.7635"/>
<text text-anchor="middle" x="1669" y="-12.5635" font-family="Times,serif" font-size="14.00">1280_11</text>
</g>
<!-- 1280_10x1280_99 -->
<g id="node31" class="node"><title>1280_10x1280_99</title>
<polygon fill="none" stroke="black" points="1751,-75.5269 1747.5,-72.0269 1751,-68.5269 1754.5,-72.0269 1751,-75.5269"/>
</g>
<!-- 1280_10x1280_99&#45;&gt;1280_11 -->
<g id="edge27" class="edge"><title>1280_10x1280_99&#45;&gt;1280_11</title>
<path fill="none" stroke="black" d="M1749.29,-69.904C1742.2,-65.2596 1714.59,-47.1535 1693.71,-33.4626"/>
<polygon fill="black" stroke="black" points="1695.53,-30.4736 1685.25,-27.9175 1691.69,-36.3276 1695.53,-30.4736"/>
</g>
<!-- 1280_13 -->
<g id="node39" class="node"><title>1280_13</title>
<polygon fill="#66cdaa" stroke="black" points="1783,-27.7635 1719,-27.7635 1719,-4.76346 1783,-4.76346 1783,-27.7635"/>
<text text-anchor="middle" x="1751" y="-12.5635" font-family="Times,serif" font-size="14.00">1280_13</text>
</g>
<!-- 1280_10x1280_99&#45;&gt;1280_13 -->
<g id="edge36" class="edge"><title>1280_10x1280_99&#45;&gt;1280_13</title>
<path fill="none" stroke="black" d="M1751,-68.4338C1751,-62.9657 1751,-49.8005 1751,-38.1938"/>
<polygon fill="black" stroke="black" points="1754.5,-37.8452 1751,-27.8453 1747.5,-37.8453 1754.5,-37.8452"/>
</g>
<!-- 1280_12 -->
<g id="node45" class="node"><title>1280_12</title>
<polygon fill="#66cdaa" stroke="black" points="1865,-27.7635 1801,-27.7635 1801,-4.76346 1865,-4.76346 1865,-27.7635"/>
<text text-anchor="middle" x="1833" y="-12.5635" font-family="Times,serif" font-size="14.00">1280_12</text>
</g>
<!-- 1280_10x1280_99&#45;&gt;1280_12 -->
<g id="edge45" class="edge"><title>1280_10x1280_99&#45;&gt;1280_12</title>
<path fill="none" stroke="black" d="M1752.71,-69.904C1759.8,-65.2596 1787.41,-47.1535 1808.29,-33.4626"/>
<polygon fill="black" stroke="black" points="1810.31,-36.3276 1816.75,-27.9175 1806.47,-30.4736 1810.31,-36.3276"/>
</g>
<!-- 1280_10 -->
<g id="node34" class="node"><title>1280_10</title>
<polygon fill="#66cdaa" stroke="black" points="1736,-139.29 1672,-139.29 1672,-116.29 1736,-116.29 1736,-139.29"/>
<text text-anchor="middle" x="1704" y="-124.09" font-family="Times,serif" font-size="14.00">1280_10</text>
</g>
<!-- 1280_10&#45;&gt;1280_10x1280_99 -->
<g id="edge30" class="edge"><title>1280_10&#45;&gt;1280_10x1280_99</title>
<path fill="none" stroke="black" d="M1713.29,-116.168C1721.93,-106.28 1734.68,-91.69 1742.92,-82.2712"/>
<polygon fill="black" stroke="black" points="1745.72,-84.3799 1749.67,-74.5476 1740.45,-79.7728 1745.72,-84.3799"/>
</g>
<!-- 1280_9&#45;&gt;1280_9x1280_18 -->
<g id="edge32" class="edge"><title>1280_9&#45;&gt;1280_9x1280_18</title>
<path fill="none" stroke="black" d="M774.737,-116.156C770.229,-114.435 765.516,-112.803 761,-111.527 681.526,-89.0743 582.414,-77.726 547.708,-74.2316"/>
<polygon fill="black" stroke="black" points="548.024,-70.746 537.735,-73.27 547.352,-77.7137 548.024,-70.746"/>
</g>
<!-- 1280_1&#45;&gt;1280_1x1280_2 -->
<g id="edge39" class="edge"><title>1280_1&#45;&gt;1280_1x1280_2</title>
<path fill="none" stroke="black" d="M1330.5,-227.695C1322.68,-217.912 1311.17,-203.527 1303.64,-194.1"/>
<polygon fill="black" stroke="black" points="1306.2,-191.698 1297.22,-186.074 1300.73,-196.07 1306.2,-191.698"/>
</g>
<!-- 1280_1&#45;&gt;1280_1x1280_36 -->
<g id="edge40" class="edge"><title>1280_1&#45;&gt;1280_1x1280_36</title>
<path fill="none" stroke="black" d="M1367.66,-234.622C1450.11,-223.992 1685.67,-193.621 1743.21,-186.203"/>
<polygon fill="black" stroke="black" points="1743.97,-189.634 1753.44,-184.884 1743.08,-182.691 1743.97,-189.634"/>
</g>
<!-- 1280_99&#45;&gt;1280_10x1280_99 -->
<g id="edge42" class="edge"><title>1280_99&#45;&gt;1280_10x1280_99</title>
<path fill="none" stroke="black" d="M1785.88,-112.099C1777.36,-102.551 1766.51,-90.3983 1759.19,-82.2019"/>
<polygon fill="black" stroke="black" points="1761.68,-79.7355 1752.41,-74.6068 1756.46,-84.3974 1761.68,-79.7355"/>
</g>
<!-- 1280_2 -->
<g id="node48" class="node"><title>1280_2</title>
<ellipse fill="#66cdaa" stroke="black" cx="1252" cy="-239.317" rx="40.1111" ry="16.0303"/>
<text text-anchor="middle" x="1252" y="-235.617" font-family="Times,serif" font-size="14.00">1280_2</text>
</g>
<!-- 1280_2&#45;&gt;1280_1x1280_2 -->
<g id="edge48" class="edge"><title>1280_2&#45;&gt;1280_1x1280_2</title>
<path fill="none" stroke="black" d="M1264.02,-223.626C1271.75,-214.182 1281.56,-202.192 1288.27,-194"/>
<polygon fill="black" stroke="black" points="1291.08,-196.089 1294.71,-186.134 1285.66,-191.656 1291.08,-196.089"/>
</g>
</g>
</svg>
