<?xml version="1.0" encoding="UTF-8" standalone="no"?>
<!DOCTYPE svg PUBLIC "-//W3C//DTD SVG 1.1//EN"
 "http://www.w3.org/Graphics/SVG/1.1/DTD/svg11.dtd">
<!-- Generated by graphviz version 2.38.0 (20140413.2041)
 -->
<!-- Title: %3 Pages: 1 -->
<svg width="1405pt" height="264pt"
 viewBox="0.00 0.00 1404.81 263.58" xmlns="http://www.w3.org/2000/svg" xmlns:xlink="http://www.w3.org/1999/xlink">
<g id="graph0" class="graph" transform="scale(1 1) rotate(0) translate(4 259.581)">
<title>%3</title>
<polygon fill="white" stroke="none" points="-4,4 -4,-259.581 1400.81,-259.581 1400.81,4 -4,4"/>
<!-- 333_25 -->
<g id="node1" class="node"><title>333_25</title>
<ellipse fill="white" stroke="black" cx="957.305" cy="-16.2635" rx="40.1111" ry="16.0303"/>
<text text-anchor="middle" x="957.305" y="-12.5635" font-family="Times,serif" font-size="14.00">333_25</text>
</g>
<!-- 333_10x333_19 -->
<g id="node2" class="node"><title>333_10x333_19</title>
<polygon fill="none" stroke="black" points="957.305,-75.5269 953.805,-72.0269 957.305,-68.5269 960.805,-72.0269 957.305,-75.5269"/>
</g>
<!-- 333_10x333_19&#45;&gt;333_25 -->
<g id="edge1" class="edge"><title>333_10x333_19&#45;&gt;333_25</title>
<path fill="none" stroke="black" d="M957.305,-68.4338C957.305,-63.6514 957.305,-52.9811 957.305,-42.6151"/>
<polygon fill="black" stroke="black" points="960.805,-42.5799 957.305,-32.58 953.805,-42.58 960.805,-42.5799"/>
</g>
<!-- 333_29 -->
<g id="node5" class="node"><title>333_29</title>
<polygon fill="#66cdaa" stroke="black" points="1072.81,-27.7635 1015.81,-27.7635 1015.81,-4.76346 1072.81,-4.76346 1072.81,-27.7635"/>
<text text-anchor="middle" x="1044.31" y="-12.5635" font-family="Times,serif" font-size="14.00">333_29</text>
</g>
<!-- 333_10x333_19&#45;&gt;333_29 -->
<g id="edge2" class="edge"><title>333_10x333_19&#45;&gt;333_29</title>
<path fill="none" stroke="black" d="M959.122,-69.904C966.671,-65.2388 996.199,-46.9916 1018.39,-33.2795"/>
<polygon fill="black" stroke="black" points="1020.4,-36.1518 1027.06,-27.9175 1016.72,-30.1971 1020.4,-36.1518"/>
</g>
<!-- 333_26 -->
<g id="node9" class="node"><title>333_26</title>
<ellipse fill="#66cdaa" stroke="black" cx="1131.31" cy="-16.2635" rx="40.1111" ry="16.0303"/>
<text text-anchor="middle" x="1131.31" y="-12.5635" font-family="Times,serif" font-size="14.00">333_26</text>
</g>
<!-- 333_10x333_19&#45;&gt;333_26 -->
<g id="edge6" class="edge"><title>333_10x333_19&#45;&gt;333_26</title>
<path fill="none" stroke="black" d="M959.367,-70.3944C971.273,-66.7426 1032.42,-47.9798 1082.31,-32.5269 1085.06,-31.6742 1087.9,-30.7934 1090.76,-29.905"/>
<polygon fill="black" stroke="black" points="1091.96,-33.1977 1100.47,-26.8862 1089.88,-26.5133 1091.96,-33.1977"/>
</g>
<!-- 333_21 -->
<g id="node11" class="node"><title>333_21</title>
<polygon fill="#66cdaa" stroke="black" points="1246.81,-27.7635 1189.81,-27.7635 1189.81,-4.76346 1246.81,-4.76346 1246.81,-27.7635"/>
<text text-anchor="middle" x="1218.31" y="-12.5635" font-family="Times,serif" font-size="14.00">333_21</text>
</g>
<!-- 333_10x333_19&#45;&gt;333_21 -->
<g id="edge8" class="edge"><title>333_10x333_19&#45;&gt;333_21</title>
<path fill="none" stroke="black" d="M960.003,-70.7787C978.785,-69.0069 1091.86,-57.6198 1180.31,-32.5269 1181.72,-32.1267 1183.15,-31.6919 1184.58,-31.2306"/>
<polygon fill="black" stroke="black" points="1185.78,-34.521 1194.04,-27.89 1183.44,-27.9207 1185.78,-34.521"/>
</g>
<!-- 333_22 -->
<g id="node12" class="node"><title>333_22</title>
<polygon fill="white" stroke="black" points="1321.81,-27.7635 1264.81,-27.7635 1264.81,-4.76346 1321.81,-4.76346 1321.81,-27.7635"/>
<text text-anchor="middle" x="1293.31" y="-12.5635" font-family="Times,serif" font-size="14.00">333_22</text>
</g>
<!-- 333_10x333_19&#45;&gt;333_22 -->
<g id="edge9" class="edge"><title>333_10x333_19&#45;&gt;333_22</title>
<path fill="none" stroke="black" d="M959.746,-70.957C980.944,-70.3007 1135.92,-64.509 1256.31,-32.5269 1257.73,-32.1478 1259.18,-31.7264 1260.63,-31.2725"/>
<polygon fill="black" stroke="black" points="1261.88,-34.5421 1270.14,-27.9054 1259.54,-27.9434 1261.88,-34.5421"/>
</g>
<!-- 333_28 -->
<g id="node13" class="node"><title>333_28</title>
<polygon fill="#66cdaa" stroke="black" points="1396.81,-27.7635 1339.81,-27.7635 1339.81,-4.76346 1396.81,-4.76346 1396.81,-27.7635"/>
<text text-anchor="middle" x="1368.31" y="-12.5635" font-family="Times,serif" font-size="14.00">333_28</text>
</g>
<!-- 333_10x333_19&#45;&gt;333_28 -->
<g id="edge10" class="edge"><title>333_10x333_19&#45;&gt;333_28</title>
<path fill="none" stroke="black" d="M960.033,-71.0446C985.237,-71.1476 1180.03,-70.657 1331.31,-32.5269 1332.78,-32.1554 1334.27,-31.7359 1335.77,-31.2794"/>
<polygon fill="black" stroke="black" points="1337.28,-34.4571 1345.56,-27.8446 1334.97,-27.8516 1337.28,-34.4571"/>
</g>
<!-- 333_27 -->
<g id="node14" class="node"><title>333_27</title>
<polygon fill="#66cdaa" stroke="black" points="649.805,-27.7635 592.805,-27.7635 592.805,-4.76346 649.805,-4.76346 649.805,-27.7635"/>
<text text-anchor="middle" x="621.305" y="-12.5635" font-family="Times,serif" font-size="14.00">333_27</text>
</g>
<!-- 333_10x333_19&#45;&gt;333_27 -->
<g id="edge11" class="edge"><title>333_10x333_19&#45;&gt;333_27</title>
<path fill="none" stroke="black" d="M954.874,-70.9475C933.766,-70.2108 779.439,-63.8702 659.305,-32.5269 657.843,-32.1455 656.362,-31.7223 654.875,-31.2667"/>
<polygon fill="black" stroke="black" points="655.712,-27.8529 645.118,-27.8936 653.425,-34.4687 655.712,-27.8529"/>
</g>
<!-- 333_23 -->
<g id="node17" class="node"><title>333_23</title>
<ellipse fill="white" stroke="black" cx="708.305" cy="-16.2635" rx="40.1111" ry="16.0303"/>
<text text-anchor="middle" x="708.305" y="-12.5635" font-family="Times,serif" font-size="14.00">333_23</text>
</g>
<!-- 333_10x333_19&#45;&gt;333_23 -->
<g id="edge13" class="edge"><title>333_10x333_19&#45;&gt;333_23</title>
<path fill="none" stroke="black" d="M954.906,-70.6693C938.2,-68.1583 837.554,-52.6826 757.305,-32.5269 754.333,-31.7805 751.275,-30.9591 748.209,-30.0965"/>
<polygon fill="black" stroke="black" points="749.057,-26.6979 738.476,-27.2416 747.086,-33.4149 749.057,-26.6979"/>
</g>
<!-- 333_24 -->
<g id="node18" class="node"><title>333_24</title>
<polygon fill="#66cdaa" stroke="black" points="823.805,-27.7635 766.805,-27.7635 766.805,-4.76346 823.805,-4.76346 823.805,-27.7635"/>
<text text-anchor="middle" x="795.305" y="-12.5635" font-family="Times,serif" font-size="14.00">333_24</text>
</g>
<!-- 333_10x333_19&#45;&gt;333_24 -->
<g id="edge14" class="edge"><title>333_10x333_19&#45;&gt;333_24</title>
<path fill="none" stroke="black" d="M955.22,-70.4628C943.187,-67.1917 881.454,-50.1909 832.305,-32.5269 831.292,-32.1626 830.265,-31.7865 829.231,-31.4013"/>
<polygon fill="black" stroke="black" points="830.45,-28.12 819.861,-27.7644 827.917,-34.6457 830.45,-28.12"/>
</g>
<!-- 333_20 -->
<g id="node19" class="node"><title>333_20</title>
<polygon fill="#66cdaa" stroke="black" points="898.805,-27.7635 841.805,-27.7635 841.805,-4.76346 898.805,-4.76346 898.805,-27.7635"/>
<text text-anchor="middle" x="870.305" y="-12.5635" font-family="Times,serif" font-size="14.00">333_20</text>
</g>
<!-- 333_10x333_19&#45;&gt;333_20 -->
<g id="edge15" class="edge"><title>333_10x333_19&#45;&gt;333_20</title>
<path fill="none" stroke="black" d="M955.488,-69.904C947.939,-65.2388 918.411,-46.9916 896.222,-33.2795"/>
<polygon fill="black" stroke="black" points="897.892,-30.1971 887.545,-27.9175 894.212,-36.1518 897.892,-30.1971"/>
</g>
<!-- 333_31 -->
<g id="node3" class="node"><title>333_31</title>
<ellipse fill="#66cdaa" stroke="black" cx="651.305" cy="-239.317" rx="40.1111" ry="16.0303"/>
<text text-anchor="middle" x="651.305" y="-235.617" font-family="Times,serif" font-size="14.00">333_31</text>
</g>
<!-- 333_30 -->
<g id="node4" class="node"><title>333_30</title>
<ellipse fill="#66cdaa" stroke="black" cx="750.305" cy="-239.317" rx="40.1111" ry="16.0303"/>
<text text-anchor="middle" x="750.305" y="-235.617" font-family="Times,serif" font-size="14.00">333_30</text>
</g>
<!-- 333_10 -->
<g id="node6" class="node"><title>333_10</title>
<polygon fill="dimgrey" stroke="black" points="707.805,-139.29 650.805,-139.29 650.805,-116.29 707.805,-116.29 707.805,-139.29"/>
<text text-anchor="middle" x="679.305" y="-124.09" font-family="Times,serif" font-size="14.00">333_10</text>
</g>
<!-- 333_10&#45;&gt;333_10x333_19 -->
<g id="edge4" class="edge"><title>333_10&#45;&gt;333_10x333_19</title>
<path fill="none" stroke="black" d="M703.149,-116.276C707.782,-114.501 712.646,-112.819 717.305,-111.527 802.403,-87.9293 908.747,-77.1849 944.738,-74.0484"/>
<polygon fill="black" stroke="black" points="945.219,-77.5206 954.897,-73.2079 944.642,-70.5445 945.219,-77.5206"/>
</g>
<!-- 333_1x333_2 -->
<g id="node7" class="node"><title>333_1x333_2</title>
<polygon fill="none" stroke="black" points="529.305,-187.054 525.805,-183.554 529.305,-180.054 532.805,-183.554 529.305,-187.054"/>
</g>
<!-- 333_1x333_2&#45;&gt;333_10 -->
<g id="edge3" class="edge"><title>333_1x333_2&#45;&gt;333_10</title>
<path fill="none" stroke="black" d="M531.455,-181.86C542.855,-178.172 597.373,-160.416 641.305,-144.054 642.18,-143.728 643.064,-143.396 643.956,-143.058"/>
<polygon fill="black" stroke="black" points="645.559,-146.191 653.619,-139.313 643.03,-139.664 645.559,-146.191"/>
</g>
<!-- 333_6 -->
<g id="node8" class="node"><title>333_6</title>
<polygon fill="dimgrey" stroke="black" points="776.305,-139.29 726.305,-139.29 726.305,-116.29 776.305,-116.29 776.305,-139.29"/>
<text text-anchor="middle" x="751.305" y="-124.09" font-family="Times,serif" font-size="14.00">333_6</text>
</g>
<!-- 333_1x333_2&#45;&gt;333_6 -->
<g id="edge5" class="edge"><title>333_1x333_2&#45;&gt;333_6</title>
<path fill="none" stroke="black" d="M531.573,-182.269C547.358,-180.251 642.373,-167.503 716.305,-144.054 717.348,-143.723 718.401,-143.372 719.46,-143.003"/>
<polygon fill="black" stroke="black" points="720.897,-146.201 728.976,-139.347 718.386,-139.667 720.897,-146.201"/>
</g>
<!-- 333_7 -->
<g id="node21" class="node"><title>333_7</title>
<ellipse fill="#66cdaa" stroke="black" cx="829.305" cy="-127.79" rx="35.2113" ry="16.0303"/>
<text text-anchor="middle" x="829.305" y="-124.09" font-family="Times,serif" font-size="14.00">333_7</text>
</g>
<!-- 333_1x333_2&#45;&gt;333_7 -->
<g id="edge17" class="edge"><title>333_1x333_2&#45;&gt;333_7</title>
<path fill="none" stroke="black" d="M531.863,-182.35C551.651,-180.738 682.317,-169.43 785.305,-144.054 787.938,-143.405 790.635,-142.665 793.336,-141.867"/>
<polygon fill="black" stroke="black" points="794.545,-145.156 803.018,-138.795 792.428,-138.484 794.545,-145.156"/>
</g>
<!-- 333_9 -->
<g id="node23" class="node"><title>333_9</title>
<ellipse fill="dimgrey" stroke="black" cx="209.305" cy="-127.79" rx="35.2113" ry="16.0303"/>
<text text-anchor="middle" x="209.305" y="-124.09" font-family="Times,serif" font-size="14.00">333_9</text>
</g>
<!-- 333_1x333_2&#45;&gt;333_9 -->
<g id="edge19" class="edge"><title>333_1x333_2&#45;&gt;333_9</title>
<path fill="none" stroke="black" d="M526.812,-182.393C506.404,-181.035 364.782,-170.892 253.305,-144.054 250.669,-143.419 247.969,-142.689 245.267,-141.899"/>
<polygon fill="black" stroke="black" points="246.17,-138.514 235.581,-138.842 244.063,-145.19 246.17,-138.514"/>
</g>
<!-- 333_5 -->
<g id="node26" class="node"><title>333_5</title>
<polygon fill="dimgrey" stroke="black" points="312.305,-139.29 262.305,-139.29 262.305,-116.29 312.305,-116.29 312.305,-139.29"/>
<text text-anchor="middle" x="287.305" y="-124.09" font-family="Times,serif" font-size="14.00">333_5</text>
</g>
<!-- 333_1x333_2&#45;&gt;333_5 -->
<g id="edge21" class="edge"><title>333_1x333_2&#45;&gt;333_5</title>
<path fill="none" stroke="black" d="M526.778,-182.317C509.191,-180.621 403.339,-169.654 321.305,-144.054 320.413,-143.776 319.514,-143.48 318.611,-143.17"/>
<polygon fill="black" stroke="black" points="319.543,-139.778 308.954,-139.431 317.016,-146.306 319.543,-139.778"/>
</g>
<!-- 333_8 -->
<g id="node27" class="node"><title>333_8</title>
<ellipse fill="white" stroke="black" cx="365.305" cy="-127.79" rx="35.2113" ry="16.0303"/>
<text text-anchor="middle" x="365.305" y="-124.09" font-family="Times,serif" font-size="14.00">333_8</text>
</g>
<!-- 333_1x333_2&#45;&gt;333_8 -->
<g id="edge22" class="edge"><title>333_1x333_2&#45;&gt;333_8</title>
<path fill="none" stroke="black" d="M527.32,-181.936C515.864,-178.367 457.038,-159.988 409.305,-144.054 407.04,-143.298 404.712,-142.513 402.366,-141.716"/>
<polygon fill="black" stroke="black" points="403.327,-138.346 392.733,-138.416 401.059,-144.968 403.327,-138.346"/>
</g>
<!-- 333_99 -->
<g id="node28" class="node"><title>333_99</title>
<ellipse fill="dimgrey" stroke="black" cx="40.3051" cy="-127.79" rx="40.1111" ry="16.0303"/>
<text text-anchor="middle" x="40.3051" y="-124.09" font-family="Times,serif" font-size="14.00">333_99</text>
</g>
<!-- 333_1x333_2&#45;&gt;333_99 -->
<g id="edge23" class="edge"><title>333_1x333_2&#45;&gt;333_99</title>
<path fill="none" stroke="black" d="M526.818,-182.541C500.501,-182.363 270.617,-179.794 89.3051,-144.054 86.0706,-143.416 82.7475,-142.644 79.429,-141.79"/>
<polygon fill="black" stroke="black" points="80.1537,-138.358 69.5803,-139.031 78.2659,-145.099 80.1537,-138.358"/>
</g>
<!-- 333_3 -->
<g id="node29" class="node"><title>333_3</title>
<ellipse fill="dimgrey" stroke="black" cx="529.305" cy="-127.79" rx="35.2113" ry="16.0303"/>
<text text-anchor="middle" x="529.305" y="-124.09" font-family="Times,serif" font-size="14.00">333_3</text>
</g>
<!-- 333_1x333_2&#45;&gt;333_3 -->
<g id="edge25" class="edge"><title>333_1x333_2&#45;&gt;333_3</title>
<path fill="none" stroke="black" d="M529.305,-179.961C529.305,-175.178 529.305,-164.508 529.305,-154.142"/>
<polygon fill="black" stroke="black" points="532.805,-154.107 529.305,-144.107 525.805,-154.107 532.805,-154.107"/>
</g>
<!-- 333_4 -->
<g id="node30" class="node"><title>333_4</title>
<polygon fill="dimgrey" stroke="black" points="632.305,-139.29 582.305,-139.29 582.305,-116.29 632.305,-116.29 632.305,-139.29"/>
<text text-anchor="middle" x="607.305" y="-124.09" font-family="Times,serif" font-size="14.00">333_4</text>
</g>
<!-- 333_1x333_2&#45;&gt;333_4 -->
<g id="edge27" class="edge"><title>333_1x333_2&#45;&gt;333_4</title>
<path fill="none" stroke="black" d="M530.934,-181.431C537.642,-176.807 563.706,-158.842 583.537,-145.173"/>
<polygon fill="black" stroke="black" points="585.601,-148.001 591.848,-139.444 581.628,-142.238 585.601,-148.001"/>
</g>
<!-- 333_19 -->
<g id="node10" class="node"><title>333_19</title>
<ellipse fill="#66cdaa" stroke="black" cx="957.305" cy="-127.79" rx="40.1111" ry="16.0303"/>
<text text-anchor="middle" x="957.305" y="-124.09" font-family="Times,serif" font-size="14.00">333_19</text>
</g>
<!-- 333_19&#45;&gt;333_10x333_19 -->
<g id="edge7" class="edge"><title>333_19&#45;&gt;333_10x333_19</title>
<path fill="none" stroke="black" d="M957.305,-111.24C957.305,-103.134 957.305,-93.3455 957.305,-85.7049"/>
<polygon fill="black" stroke="black" points="960.805,-85.5501 957.305,-75.5502 953.805,-85.5502 960.805,-85.5501"/>
</g>
<!-- 333_18 -->
<g id="node15" class="node"><title>333_18</title>
<polygon fill="#66cdaa" stroke="black" points="475.805,-139.29 418.805,-139.29 418.805,-116.29 475.805,-116.29 475.805,-139.29"/>
<text text-anchor="middle" x="447.305" y="-124.09" font-family="Times,serif" font-size="14.00">333_18</text>
</g>
<!-- 333_18x333_3 -->
<g id="node16" class="node"><title>333_18x333_3</title>
<polygon fill="none" stroke="black" points="447.305,-75.5269 443.805,-72.0269 447.305,-68.5269 450.805,-72.0269 447.305,-75.5269"/>
</g>
<!-- 333_18&#45;&gt;333_18x333_3 -->
<g id="edge12" class="edge"><title>333_18&#45;&gt;333_18x333_3</title>
<path fill="none" stroke="black" d="M447.305,-116.168C447.305,-107.416 447.305,-94.9805 447.305,-85.7075"/>
<polygon fill="black" stroke="black" points="450.805,-85.6655 447.305,-75.6656 443.805,-85.6656 450.805,-85.6655"/>
</g>
<!-- 333_17 -->
<g id="node20" class="node"><title>333_17</title>
<polygon fill="#66cdaa" stroke="black" points="325.805,-27.7635 268.805,-27.7635 268.805,-4.76346 325.805,-4.76346 325.805,-27.7635"/>
<text text-anchor="middle" x="297.305" y="-12.5635" font-family="Times,serif" font-size="14.00">333_17</text>
</g>
<!-- 333_18x333_3&#45;&gt;333_17 -->
<g id="edge16" class="edge"><title>333_18x333_3&#45;&gt;333_17</title>
<path fill="none" stroke="black" d="M445.133,-70.3431C433.613,-66.7052 378.533,-49.1651 334.305,-32.5269 333.451,-32.2058 332.588,-31.8775 331.718,-31.5435"/>
<polygon fill="black" stroke="black" points="332.885,-28.2412 322.298,-27.8231 330.313,-34.7518 332.885,-28.2412"/>
</g>
<!-- 333_15 -->
<g id="node22" class="node"><title>333_15</title>
<polygon fill="#66cdaa" stroke="black" points="400.805,-27.7635 343.805,-27.7635 343.805,-4.76346 400.805,-4.76346 400.805,-27.7635"/>
<text text-anchor="middle" x="372.305" y="-12.5635" font-family="Times,serif" font-size="14.00">333_15</text>
</g>
<!-- 333_18x333_3&#45;&gt;333_15 -->
<g id="edge18" class="edge"><title>333_18x333_3&#45;&gt;333_15</title>
<path fill="none" stroke="black" d="M445.739,-69.904C439.317,-65.301 414.451,-47.4758 395.416,-33.8304"/>
<polygon fill="black" stroke="black" points="397.334,-30.8991 387.167,-27.9175 393.256,-36.5883 397.334,-30.8991"/>
</g>
<!-- 333_16 -->
<g id="node31" class="node"><title>333_16</title>
<polygon fill="#66cdaa" stroke="black" points="475.805,-27.7635 418.805,-27.7635 418.805,-4.76346 475.805,-4.76346 475.805,-27.7635"/>
<text text-anchor="middle" x="447.305" y="-12.5635" font-family="Times,serif" font-size="14.00">333_16</text>
</g>
<!-- 333_18x333_3&#45;&gt;333_16 -->
<g id="edge28" class="edge"><title>333_18x333_3&#45;&gt;333_16</title>
<path fill="none" stroke="black" d="M447.305,-68.4338C447.305,-62.9657 447.305,-49.8005 447.305,-38.1938"/>
<polygon fill="black" stroke="black" points="450.805,-37.8452 447.305,-27.8453 443.805,-37.8453 450.805,-37.8452"/>
</g>
<!-- 333_14 -->
<g id="node35" class="node"><title>333_14</title>
<ellipse fill="#66cdaa" stroke="black" cx="534.305" cy="-16.2635" rx="40.1111" ry="16.0303"/>
<text text-anchor="middle" x="534.305" y="-12.5635" font-family="Times,serif" font-size="14.00">333_14</text>
</g>
<!-- 333_18x333_3&#45;&gt;333_14 -->
<g id="edge32" class="edge"><title>333_18x333_3&#45;&gt;333_14</title>
<path fill="none" stroke="black" d="M449.122,-69.904C456.242,-65.5039 482.915,-49.0213 504.54,-35.6574"/>
<polygon fill="black" stroke="black" points="506.46,-38.5854 513.127,-30.351 502.78,-32.6306 506.46,-38.5854"/>
</g>
<!-- 333_11 -->
<g id="node24" class="node"><title>333_11</title>
<polygon fill="#66cdaa" stroke="black" points="109.805,-27.7635 52.8051,-27.7635 52.8051,-4.76346 109.805,-4.76346 109.805,-27.7635"/>
<text text-anchor="middle" x="81.3051" y="-12.5635" font-family="Times,serif" font-size="14.00">333_11</text>
</g>
<!-- 333_13x333_99 -->
<g id="node25" class="node"><title>333_13x333_99</title>
<polygon fill="none" stroke="black" points="83.3051,-75.5269 79.8051,-72.0269 83.3051,-68.5269 86.8051,-72.0269 83.3051,-75.5269"/>
</g>
<!-- 333_13x333_99&#45;&gt;333_11 -->
<g id="edge20" class="edge"><title>333_13x333_99&#45;&gt;333_11</title>
<path fill="none" stroke="black" d="M83.2086,-68.4338C83.0052,-62.9657 82.5155,-49.8005 82.0837,-38.1938"/>
<polygon fill="black" stroke="black" points="85.5681,-37.7082 81.6987,-27.8453 78.573,-37.9685 85.5681,-37.7082"/>
</g>
<!-- 333_12 -->
<g id="node33" class="node"><title>333_12</title>
<ellipse fill="#66cdaa" stroke="black" cx="168.305" cy="-16.2635" rx="40.1111" ry="16.0303"/>
<text text-anchor="middle" x="168.305" y="-12.5635" font-family="Times,serif" font-size="14.00">333_12</text>
</g>
<!-- 333_13x333_99&#45;&gt;333_12 -->
<g id="edge30" class="edge"><title>333_13x333_99&#45;&gt;333_12</title>
<path fill="none" stroke="black" d="M85.0804,-69.904C92.0061,-65.5234 117.865,-49.1676 138.942,-35.8358"/>
<polygon fill="black" stroke="black" points="141.033,-38.6546 147.614,-30.351 137.291,-32.7387 141.033,-38.6546"/>
</g>
<!-- 333_99&#45;&gt;333_13x333_99 -->
<g id="edge24" class="edge"><title>333_99&#45;&gt;333_13x333_99</title>
<path fill="none" stroke="black" d="M52.055,-112.099C59.6081,-102.656 69.1981,-90.6651 75.7497,-82.4735"/>
<polygon fill="black" stroke="black" points="78.5287,-84.6024 82.0415,-74.6068 73.0621,-80.2302 78.5287,-84.6024"/>
</g>
<!-- 333_3&#45;&gt;333_18x333_3 -->
<g id="edge26" class="edge"><title>333_3&#45;&gt;333_18x333_3</title>
<path fill="none" stroke="black" d="M509.872,-114.049C493.462,-103.29 470.607,-88.3051 457.547,-79.742"/>
<polygon fill="black" stroke="black" points="459.281,-76.6936 448.999,-74.1375 455.443,-82.5476 459.281,-76.6936"/>
</g>
<!-- 333_2 -->
<g id="node32" class="node"><title>333_2</title>
<ellipse fill="#66cdaa" stroke="black" cx="490.305" cy="-239.317" rx="35.2113" ry="16.0303"/>
<text text-anchor="middle" x="490.305" y="-235.617" font-family="Times,serif" font-size="14.00">333_2</text>
</g>
<!-- 333_2&#45;&gt;333_1x333_2 -->
<g id="edge29" class="edge"><title>333_2&#45;&gt;333_1x333_2</title>
<path fill="none" stroke="black" d="M500.962,-223.626C507.736,-214.287 516.317,-202.458 522.253,-194.275"/>
<polygon fill="black" stroke="black" points="525.12,-196.283 528.159,-186.134 519.454,-192.173 525.12,-196.283"/>
</g>
<!-- 333_13 -->
<g id="node34" class="node"><title>333_13</title>
<polygon fill="#66cdaa" stroke="black" points="155.805,-139.29 98.8051,-139.29 98.8051,-116.29 155.805,-116.29 155.805,-139.29"/>
<text text-anchor="middle" x="127.305" y="-124.09" font-family="Times,serif" font-size="14.00">333_13</text>
</g>
<!-- 333_13&#45;&gt;333_13x333_99 -->
<g id="edge31" class="edge"><title>333_13&#45;&gt;333_13x333_99</title>
<path fill="none" stroke="black" d="M118.612,-116.168C110.606,-106.385 98.8326,-91.9999 91.118,-82.5735"/>
<polygon fill="black" stroke="black" points="93.5916,-80.0696 84.5496,-74.5476 88.1744,-84.503 93.5916,-80.0696"/>
</g>
<!-- 333_1 -->
<g id="node36" class="node"><title>333_1</title>
<polygon fill="#66cdaa" stroke="black" points="593.305,-250.817 543.305,-250.817 543.305,-227.817 593.305,-227.817 593.305,-250.817"/>
<text text-anchor="middle" x="568.305" y="-235.617" font-family="Times,serif" font-size="14.00">333_1</text>
</g>
<!-- 333_1&#45;&gt;333_1x333_2 -->
<g id="edge33" class="edge"><title>333_1&#45;&gt;333_1x333_2</title>
<path fill="none" stroke="black" d="M560.6,-227.695C553.58,-218.017 543.292,-203.836 536.452,-194.406"/>
<polygon fill="black" stroke="black" points="539.113,-192.114 530.408,-186.074 533.447,-196.224 539.113,-192.114"/>
</g>
</g>
</svg>
