<?xml version="1.0" encoding="UTF-8" standalone="no"?>
<!DOCTYPE svg PUBLIC "-//W3C//DTD SVG 1.1//EN"
 "http://www.w3.org/Graphics/SVG/1.1/DTD/svg11.dtd">
<!-- Generated by graphviz version 2.38.0 (20140413.2041)
 -->
<!-- Title: %3 Pages: 1 -->
<svg width="1930pt" height="264pt"
 viewBox="0.00 0.00 1930.00 263.58" xmlns="http://www.w3.org/2000/svg" xmlns:xlink="http://www.w3.org/1999/xlink">
<g id="graph0" class="graph" transform="scale(1 1) rotate(0) translate(4 259.581)">
<title>%3</title>
<polygon fill="white" stroke="none" points="-4,4 -4,-259.581 1926,-259.581 1926,4 -4,4"/>
<!-- 827_35 -->
<g id="node1" class="node"><title>827_35</title>
<polygon fill="#66cdaa" stroke="black" points="834,-139.29 777,-139.29 777,-116.29 834,-116.29 834,-139.29"/>
<text text-anchor="middle" x="805.5" y="-124.09" font-family="Times,serif" font-size="14.00">827_35</text>
</g>
<!-- 827_35x827_9 -->
<g id="node2" class="node"><title>827_35x827_9</title>
<polygon fill="none" stroke="black" points="723.5,-75.5269 720,-72.0269 723.5,-68.5269 727,-72.0269 723.5,-75.5269"/>
</g>
<!-- 827_35&#45;&gt;827_35x827_9 -->
<g id="edge1" class="edge"><title>827_35&#45;&gt;827_35x827_9</title>
<path fill="none" stroke="black" d="M789.299,-116.168C772.8,-105.351 747.718,-88.9054 733.77,-79.7602"/>
<polygon fill="black" stroke="black" points="735.629,-76.7941 725.347,-74.238 731.791,-82.6481 735.629,-76.7941"/>
</g>
<!-- 827_36 -->
<g id="node3" class="node"><title>827_36</title>
<polygon fill="#66cdaa" stroke="black" points="752,-27.7635 695,-27.7635 695,-4.76346 752,-4.76346 752,-27.7635"/>
<text text-anchor="middle" x="723.5" y="-12.5635" font-family="Times,serif" font-size="14.00">827_36</text>
</g>
<!-- 827_35x827_9&#45;&gt;827_36 -->
<g id="edge2" class="edge"><title>827_35x827_9&#45;&gt;827_36</title>
<path fill="none" stroke="black" d="M723.5,-68.4338C723.5,-62.9657 723.5,-49.8005 723.5,-38.1938"/>
<polygon fill="black" stroke="black" points="727,-37.8452 723.5,-27.8453 720,-37.8453 727,-37.8452"/>
</g>
<!-- 827_37 -->
<g id="node4" class="node"><title>827_37</title>
<ellipse fill="#66cdaa" stroke="black" cx="810.5" cy="-16.2635" rx="40.1111" ry="16.0303"/>
<text text-anchor="middle" x="810.5" y="-12.5635" font-family="Times,serif" font-size="14.00">827_37</text>
</g>
<!-- 827_35x827_9&#45;&gt;827_37 -->
<g id="edge3" class="edge"><title>827_35x827_9&#45;&gt;827_37</title>
<path fill="none" stroke="black" d="M725.317,-69.904C732.437,-65.5039 759.109,-49.0213 780.735,-35.6574"/>
<polygon fill="black" stroke="black" points="782.655,-38.5854 789.322,-30.351 778.975,-32.6306 782.655,-38.5854"/>
</g>
<!-- 827_38 -->
<g id="node5" class="node"><title>827_38</title>
<polygon fill="#66cdaa" stroke="black" points="602,-27.7635 545,-27.7635 545,-4.76346 602,-4.76346 602,-27.7635"/>
<text text-anchor="middle" x="573.5" y="-12.5635" font-family="Times,serif" font-size="14.00">827_38</text>
</g>
<!-- 827_35x827_9&#45;&gt;827_38 -->
<g id="edge4" class="edge"><title>827_35x827_9&#45;&gt;827_38</title>
<path fill="none" stroke="black" d="M721.328,-70.3431C709.808,-66.7052 654.728,-49.1651 610.5,-32.5269 609.646,-32.2058 608.783,-31.8775 607.913,-31.5435"/>
<polygon fill="black" stroke="black" points="609.08,-28.2412 598.493,-27.8231 606.508,-34.7518 609.08,-28.2412"/>
</g>
<!-- 827_39 -->
<g id="node6" class="node"><title>827_39</title>
<polygon fill="#66cdaa" stroke="black" points="677,-27.7635 620,-27.7635 620,-4.76346 677,-4.76346 677,-27.7635"/>
<text text-anchor="middle" x="648.5" y="-12.5635" font-family="Times,serif" font-size="14.00">827_39</text>
</g>
<!-- 827_35x827_9&#45;&gt;827_39 -->
<g id="edge5" class="edge"><title>827_35x827_9&#45;&gt;827_39</title>
<path fill="none" stroke="black" d="M721.934,-69.904C715.512,-65.301 690.646,-47.4758 671.611,-33.8304"/>
<polygon fill="black" stroke="black" points="673.529,-30.8991 663.362,-27.9175 669.451,-36.5883 673.529,-30.8991"/>
</g>
<!-- 827_40 -->
<g id="node7" class="node"><title>827_40</title>
<polygon fill="#66cdaa" stroke="black" points="1266,-139.29 1209,-139.29 1209,-116.29 1266,-116.29 1266,-139.29"/>
<text text-anchor="middle" x="1237.5" y="-124.09" font-family="Times,serif" font-size="14.00">827_40</text>
</g>
<!-- 827_40x827_4 -->
<g id="node8" class="node"><title>827_40x827_4</title>
<polygon fill="none" stroke="black" points="1319.5,-75.5269 1316,-72.0269 1319.5,-68.5269 1323,-72.0269 1319.5,-75.5269"/>
</g>
<!-- 827_40&#45;&gt;827_40x827_4 -->
<g id="edge6" class="edge"><title>827_40&#45;&gt;827_40x827_4</title>
<path fill="none" stroke="black" d="M1253.7,-116.168C1270.2,-105.351 1295.28,-88.9054 1309.23,-79.7602"/>
<polygon fill="black" stroke="black" points="1311.21,-82.6481 1317.65,-74.238 1307.37,-76.7941 1311.21,-82.6481"/>
</g>
<!-- 827_42 -->
<g id="node12" class="node"><title>827_42</title>
<polygon fill="#66cdaa" stroke="black" points="1499,-27.7635 1442,-27.7635 1442,-4.76346 1499,-4.76346 1499,-27.7635"/>
<text text-anchor="middle" x="1470.5" y="-12.5635" font-family="Times,serif" font-size="14.00">827_42</text>
</g>
<!-- 827_40x827_4&#45;&gt;827_42 -->
<g id="edge9" class="edge"><title>827_40x827_4&#45;&gt;827_42</title>
<path fill="none" stroke="black" d="M1321.69,-70.3457C1333.32,-66.721 1388.9,-49.2374 1433.5,-32.5269 1434.35,-32.2069 1435.22,-31.8796 1436.09,-31.5466"/>
<polygon fill="black" stroke="black" points="1437.49,-34.7558 1445.51,-27.8323 1434.92,-28.2436 1437.49,-34.7558"/>
</g>
<!-- 827_43 -->
<g id="node13" class="node"><title>827_43</title>
<ellipse fill="#66cdaa" stroke="black" cx="1308.5" cy="-16.2635" rx="40.1111" ry="16.0303"/>
<text text-anchor="middle" x="1308.5" y="-12.5635" font-family="Times,serif" font-size="14.00">827_43</text>
</g>
<!-- 827_40x827_4&#45;&gt;827_43 -->
<g id="edge10" class="edge"><title>827_40x827_4&#45;&gt;827_43</title>
<path fill="none" stroke="black" d="M1319.03,-68.7168C1318.08,-64.0865 1315.85,-53.206 1313.69,-42.6372"/>
<polygon fill="black" stroke="black" points="1317.12,-41.9095 1311.68,-32.8141 1310.26,-43.3127 1317.12,-41.9095"/>
</g>
<!-- 827_41 -->
<g id="node20" class="node"><title>827_41</title>
<polygon fill="#66cdaa" stroke="black" points="1424,-27.7635 1367,-27.7635 1367,-4.76346 1424,-4.76346 1424,-27.7635"/>
<text text-anchor="middle" x="1395.5" y="-12.5635" font-family="Times,serif" font-size="14.00">827_41</text>
</g>
<!-- 827_40x827_4&#45;&gt;827_41 -->
<g id="edge18" class="edge"><title>827_40x827_4&#45;&gt;827_41</title>
<path fill="none" stroke="black" d="M1321.09,-69.904C1327.59,-65.301 1352.79,-47.4758 1372.08,-33.8304"/>
<polygon fill="black" stroke="black" points="1374.3,-36.5501 1380.44,-27.9175 1370.25,-30.8354 1374.3,-36.5501"/>
</g>
<!-- 827_99 -->
<g id="node9" class="node"><title>827_99</title>
<ellipse fill="dimgrey" stroke="black" cx="265.5" cy="-127.79" rx="40.1111" ry="16.0303"/>
<text text-anchor="middle" x="265.5" y="-124.09" font-family="Times,serif" font-size="14.00">827_99</text>
</g>
<!-- 827_10x827_99 -->
<g id="node11" class="node"><title>827_10x827_99</title>
<polygon fill="none" stroke="black" points="105.5,-75.5269 102,-72.0269 105.5,-68.5269 109,-72.0269 105.5,-75.5269"/>
</g>
<!-- 827_99&#45;&gt;827_10x827_99 -->
<g id="edge8" class="edge"><title>827_99&#45;&gt;827_10x827_99</title>
<path fill="none" stroke="black" d="M235.78,-116.804C200.072,-104.805 141.887,-85.2539 117.184,-76.9532"/>
<polygon fill="black" stroke="black" points="118.209,-73.6051 107.615,-73.7375 115.979,-80.2405 118.209,-73.6051"/>
</g>
<!-- 827_1x827_2 -->
<g id="node10" class="node"><title>827_1x827_2</title>
<polygon fill="none" stroke="black" points="878.5,-187.054 875,-183.554 878.5,-180.054 882,-183.554 878.5,-187.054"/>
</g>
<!-- 827_1x827_2&#45;&gt;827_99 -->
<g id="edge7" class="edge"><title>827_1x827_2&#45;&gt;827_99</title>
<path fill="none" stroke="black" d="M875.725,-182.607C844.108,-183.159 548.663,-187.032 315.5,-144.054 311.896,-143.39 308.186,-142.555 304.491,-141.621"/>
<polygon fill="black" stroke="black" points="305.406,-138.242 294.835,-138.962 303.548,-144.991 305.406,-138.242"/>
</g>
<!-- 827_9 -->
<g id="node14" class="node"><title>827_9</title>
<ellipse fill="white" stroke="black" cx="723.5" cy="-127.79" rx="35.2113" ry="16.0303"/>
<text text-anchor="middle" x="723.5" y="-124.09" font-family="Times,serif" font-size="14.00">827_9</text>
</g>
<!-- 827_1x827_2&#45;&gt;827_9 -->
<g id="edge11" class="edge"><title>827_1x827_2&#45;&gt;827_9</title>
<path fill="none" stroke="black" d="M876.309,-181.794C863.901,-177.49 801.558,-155.866 760.434,-141.601"/>
<polygon fill="black" stroke="black" points="761.329,-138.207 750.735,-138.237 759.035,-144.821 761.329,-138.207"/>
</g>
<!-- 827_8 -->
<g id="node15" class="node"><title>827_8</title>
<ellipse fill="white" stroke="black" cx="359.5" cy="-127.79" rx="35.2113" ry="16.0303"/>
<text text-anchor="middle" x="359.5" y="-124.09" font-family="Times,serif" font-size="14.00">827_8</text>
</g>
<!-- 827_1x827_2&#45;&gt;827_8 -->
<g id="edge13" class="edge"><title>827_1x827_2&#45;&gt;827_8</title>
<path fill="none" stroke="black" d="M875.808,-182.596C847.332,-182.986 598.62,-185.11 403.5,-144.054 400.681,-143.461 397.795,-142.737 394.915,-141.931"/>
<polygon fill="black" stroke="black" points="395.838,-138.553 385.25,-138.94 393.769,-145.24 395.838,-138.553"/>
</g>
<!-- 827_7 -->
<g id="node17" class="node"><title>827_7</title>
<ellipse fill="white" stroke="black" cx="523.5" cy="-127.79" rx="35.2113" ry="16.0303"/>
<text text-anchor="middle" x="523.5" y="-124.09" font-family="Times,serif" font-size="14.00">827_7</text>
</g>
<!-- 827_1x827_2&#45;&gt;827_7 -->
<g id="edge15" class="edge"><title>827_1x827_2&#45;&gt;827_7</title>
<path fill="none" stroke="black" d="M875.974,-182.445C854.038,-181.455 693.618,-173.389 567.5,-144.054 564.859,-143.44 562.156,-142.724 559.451,-141.945"/>
<polygon fill="black" stroke="black" points="560.349,-138.559 549.759,-138.91 558.256,-145.239 560.349,-138.559"/>
</g>
<!-- 827_3 -->
<g id="node30" class="node"><title>827_3</title>
<polygon fill="#66cdaa" stroke="black" points="1059.5,-139.29 1009.5,-139.29 1009.5,-116.29 1059.5,-116.29 1059.5,-139.29"/>
<text text-anchor="middle" x="1034.5" y="-124.09" font-family="Times,serif" font-size="14.00">827_3</text>
</g>
<!-- 827_1x827_2&#45;&gt;827_3 -->
<g id="edge28" class="edge"><title>827_1x827_2&#45;&gt;827_3</title>
<path fill="none" stroke="black" d="M880.542,-182.006C892.326,-178.823 952.76,-162.232 1000.5,-144.054 1001.2,-143.786 1001.91,-143.511 1002.63,-143.231"/>
<polygon fill="black" stroke="black" points="1004.09,-146.414 1011.98,-139.342 1001.4,-139.95 1004.09,-146.414"/>
</g>
<!-- 827_4 -->
<g id="node32" class="node"><title>827_4</title>
<ellipse fill="#66cdaa" stroke="black" cx="1319.5" cy="-127.79" rx="35.2113" ry="16.0303"/>
<text text-anchor="middle" x="1319.5" y="-124.09" font-family="Times,serif" font-size="14.00">827_4</text>
</g>
<!-- 827_1x827_2&#45;&gt;827_4 -->
<g id="edge30" class="edge"><title>827_1x827_2&#45;&gt;827_4</title>
<path fill="none" stroke="black" d="M881.056,-182.538C906.28,-182.33 1113.14,-179.558 1275.5,-144.054 1278.15,-143.475 1280.86,-142.785 1283.57,-142.025"/>
<polygon fill="black" stroke="black" points="1284.75,-145.324 1293.27,-139.027 1282.68,-138.636 1284.75,-145.324"/>
</g>
<!-- 827_5 -->
<g id="node33" class="node"><title>827_5</title>
<polygon fill="#66cdaa" stroke="black" points="1646.5,-139.29 1596.5,-139.29 1596.5,-116.29 1646.5,-116.29 1646.5,-139.29"/>
<text text-anchor="middle" x="1621.5" y="-124.09" font-family="Times,serif" font-size="14.00">827_5</text>
</g>
<!-- 827_1x827_2&#45;&gt;827_5 -->
<g id="edge32" class="edge"><title>827_1x827_2&#45;&gt;827_5</title>
<path fill="none" stroke="black" d="M881.309,-182.535C915.947,-182.279 1264.07,-178.866 1542.5,-144.054 1556.97,-142.245 1572.77,-139.373 1586.42,-136.606"/>
<polygon fill="black" stroke="black" points="1587.3,-139.998 1596.38,-134.53 1585.87,-133.145 1587.3,-139.998"/>
</g>
<!-- 827_6 -->
<g id="node35" class="node"><title>827_6</title>
<polygon fill="#66cdaa" stroke="black" points="1533.5,-139.29 1483.5,-139.29 1483.5,-116.29 1533.5,-116.29 1533.5,-139.29"/>
<text text-anchor="middle" x="1508.5" y="-124.09" font-family="Times,serif" font-size="14.00">827_6</text>
</g>
<!-- 827_1x827_2&#45;&gt;827_6 -->
<g id="edge34" class="edge"><title>827_1x827_2&#45;&gt;827_6</title>
<path fill="none" stroke="black" d="M881.024,-182.516C918.024,-181.945 1351.22,-174.645 1474.5,-144.054 1475.77,-143.738 1477.05,-143.377 1478.34,-142.98"/>
<polygon fill="black" stroke="black" points="1479.91,-146.132 1488.06,-139.372 1477.47,-139.569 1479.91,-146.132"/>
</g>
<!-- 827_15 -->
<g id="node26" class="node"><title>827_15</title>
<ellipse fill="white" stroke="black" cx="62.5" cy="-16.2635" rx="40.1111" ry="16.0303"/>
<text text-anchor="middle" x="62.5" y="-12.5635" font-family="Times,serif" font-size="14.00">827_15</text>
</g>
<!-- 827_10x827_99&#45;&gt;827_15 -->
<g id="edge24" class="edge"><title>827_10x827_99&#45;&gt;827_15</title>
<path fill="none" stroke="black" d="M104.069,-69.2381C100.351,-64.5897 90.0174,-51.6688 80.5838,-39.8738"/>
<polygon fill="black" stroke="black" points="83.2684,-37.6268 74.289,-32.0034 77.8018,-41.999 83.2684,-37.6268"/>
</g>
<!-- 827_16 -->
<g id="node27" class="node"><title>827_16</title>
<polygon fill="white" stroke="black" points="178,-27.7635 121,-27.7635 121,-4.76346 178,-4.76346 178,-27.7635"/>
<text text-anchor="middle" x="149.5" y="-12.5635" font-family="Times,serif" font-size="14.00">827_16</text>
</g>
<!-- 827_10x827_99&#45;&gt;827_16 -->
<g id="edge25" class="edge"><title>827_10x827_99&#45;&gt;827_16</title>
<path fill="none" stroke="black" d="M106.964,-69.2381C111.221,-64.0368 123.954,-48.4782 134.388,-35.7288"/>
<polygon fill="black" stroke="black" points="137.176,-37.8489 140.8,-27.8934 131.758,-33.4155 137.176,-37.8489"/>
</g>
<!-- 827_9&#45;&gt;827_35x827_9 -->
<g id="edge12" class="edge"><title>827_9&#45;&gt;827_35x827_9</title>
<path fill="none" stroke="black" d="M723.5,-111.24C723.5,-103.134 723.5,-93.3455 723.5,-85.7049"/>
<polygon fill="black" stroke="black" points="727,-85.5501 723.5,-75.5502 720,-85.5502 727,-85.5501"/>
</g>
<!-- 827_33x827_8 -->
<g id="node16" class="node"><title>827_33x827_8</title>
<polygon fill="none" stroke="black" points="359.5,-75.5269 356,-72.0269 359.5,-68.5269 363,-72.0269 359.5,-75.5269"/>
</g>
<!-- 827_8&#45;&gt;827_33x827_8 -->
<g id="edge14" class="edge"><title>827_8&#45;&gt;827_33x827_8</title>
<path fill="none" stroke="black" d="M359.5,-111.24C359.5,-103.134 359.5,-93.3455 359.5,-85.7049"/>
<polygon fill="black" stroke="black" points="363,-85.5501 359.5,-75.5502 356,-85.5502 363,-85.5501"/>
</g>
<!-- 827_34 -->
<g id="node19" class="node"><title>827_34</title>
<polygon fill="#66cdaa" stroke="black" points="329,-27.7635 272,-27.7635 272,-4.76346 329,-4.76346 329,-27.7635"/>
<text text-anchor="middle" x="300.5" y="-12.5635" font-family="Times,serif" font-size="14.00">827_34</text>
</g>
<!-- 827_33x827_8&#45;&gt;827_34 -->
<g id="edge17" class="edge"><title>827_33x827_8&#45;&gt;827_34</title>
<path fill="none" stroke="black" d="M358.042,-69.6979C352.801,-64.9227 334.463,-48.2122 319.88,-34.9232"/>
<polygon fill="black" stroke="black" points="322.02,-32.1384 312.271,-27.9899 317.305,-37.3124 322.02,-32.1384"/>
</g>
<!-- 827_30x827_7 -->
<g id="node18" class="node"><title>827_30x827_7</title>
<polygon fill="none" stroke="black" points="505.5,-75.5269 502,-72.0269 505.5,-68.5269 509,-72.0269 505.5,-75.5269"/>
</g>
<!-- 827_7&#45;&gt;827_30x827_7 -->
<g id="edge16" class="edge"><title>827_7&#45;&gt;827_30x827_7</title>
<path fill="none" stroke="black" d="M518.39,-111.528C515.553,-103.053 512.076,-92.6694 509.449,-84.8224"/>
<polygon fill="black" stroke="black" points="512.727,-83.5893 506.234,-75.2179 506.089,-85.8117 512.727,-83.5893"/>
</g>
<!-- 827_32 -->
<g id="node21" class="node"><title>827_32</title>
<ellipse fill="#66cdaa" stroke="black" cx="387.5" cy="-16.2635" rx="40.1111" ry="16.0303"/>
<text text-anchor="middle" x="387.5" y="-12.5635" font-family="Times,serif" font-size="14.00">827_32</text>
</g>
<!-- 827_30x827_7&#45;&gt;827_32 -->
<g id="edge19" class="edge"><title>827_30x827_7&#45;&gt;827_32</title>
<path fill="none" stroke="black" d="M503.452,-70.0937C493.883,-65.7341 452.762,-46.9985 422.192,-33.0701"/>
<polygon fill="black" stroke="black" points="423.642,-29.8843 413.091,-28.9231 420.739,-36.2543 423.642,-29.8843"/>
</g>
<!-- 827_31 -->
<g id="node29" class="node"><title>827_31</title>
<ellipse fill="#66cdaa" stroke="black" cx="486.5" cy="-16.2635" rx="40.1111" ry="16.0303"/>
<text text-anchor="middle" x="486.5" y="-12.5635" font-family="Times,serif" font-size="14.00">827_31</text>
</g>
<!-- 827_30x827_7&#45;&gt;827_31 -->
<g id="edge27" class="edge"><title>827_30x827_7&#45;&gt;827_31</title>
<path fill="none" stroke="black" d="M504.684,-68.7168C503.03,-64.0387 499.123,-52.9809 495.352,-42.3105"/>
<polygon fill="black" stroke="black" points="498.628,-41.0764 491.996,-32.8141 492.028,-43.4089 498.628,-41.0764"/>
</g>
<!-- 827_33 -->
<g id="node22" class="node"><title>827_33</title>
<polygon fill="#66cdaa" stroke="black" points="470,-139.29 413,-139.29 413,-116.29 470,-116.29 470,-139.29"/>
<text text-anchor="middle" x="441.5" y="-124.09" font-family="Times,serif" font-size="14.00">827_33</text>
</g>
<!-- 827_33&#45;&gt;827_33x827_8 -->
<g id="edge20" class="edge"><title>827_33&#45;&gt;827_33x827_8</title>
<path fill="none" stroke="black" d="M425.299,-116.168C408.8,-105.351 383.718,-88.9054 369.77,-79.7602"/>
<polygon fill="black" stroke="black" points="371.629,-76.7941 361.347,-74.238 367.791,-82.6481 371.629,-76.7941"/>
</g>
<!-- 827_30 -->
<g id="node23" class="node"><title>827_30</title>
<polygon fill="#66cdaa" stroke="black" points="634,-139.29 577,-139.29 577,-116.29 634,-116.29 634,-139.29"/>
<text text-anchor="middle" x="605.5" y="-124.09" font-family="Times,serif" font-size="14.00">827_30</text>
</g>
<!-- 827_30&#45;&gt;827_30x827_7 -->
<g id="edge21" class="edge"><title>827_30&#45;&gt;827_30x827_7</title>
<path fill="none" stroke="black" d="M585.743,-116.168C564.857,-104.939 532.693,-87.647 516.144,-78.7497"/>
<polygon fill="black" stroke="black" points="517.703,-75.6142 507.238,-73.9615 514.389,-81.7796 517.703,-75.6142"/>
</g>
<!-- 827_10 -->
<g id="node24" class="node"><title>827_10</title>
<polygon fill="dimgrey" stroke="black" points="57,-139.29 0,-139.29 0,-116.29 57,-116.29 57,-139.29"/>
<text text-anchor="middle" x="28.5" y="-124.09" font-family="Times,serif" font-size="14.00">827_10</text>
</g>
<!-- 827_10&#45;&gt;827_10x827_99 -->
<g id="edge23" class="edge"><title>827_10&#45;&gt;827_10x827_99</title>
<path fill="none" stroke="black" d="M43.7127,-116.168C59.0527,-105.458 82.2933,-89.2305 95.4645,-80.034"/>
<polygon fill="black" stroke="black" points="97.57,-82.8326 103.765,-74.238 93.5626,-77.0932 97.57,-82.8326"/>
</g>
<!-- 827_11x827_12 -->
<g id="node25" class="node"><title>827_11x827_12</title>
<polygon fill="none" stroke="black" points="103.5,-187.054 100,-183.554 103.5,-180.054 107,-183.554 103.5,-187.054"/>
</g>
<!-- 827_11x827_12&#45;&gt;827_10 -->
<g id="edge22" class="edge"><title>827_11x827_12&#45;&gt;827_10</title>
<path fill="none" stroke="black" d="M101.934,-181.431C95.5124,-176.828 70.6462,-159.003 51.6109,-145.357"/>
<polygon fill="black" stroke="black" points="53.5291,-142.426 43.3624,-139.444 49.4507,-148.115 53.5291,-142.426"/>
</g>
<!-- 827_13 -->
<g id="node38" class="node"><title>827_13</title>
<polygon fill="#66cdaa" stroke="black" points="207,-139.29 150,-139.29 150,-116.29 207,-116.29 207,-139.29"/>
<text text-anchor="middle" x="178.5" y="-124.09" font-family="Times,serif" font-size="14.00">827_13</text>
</g>
<!-- 827_11x827_12&#45;&gt;827_13 -->
<g id="edge37" class="edge"><title>827_11x827_12&#45;&gt;827_13</title>
<path fill="none" stroke="black" d="M105.066,-181.431C111.488,-176.828 136.354,-159.003 155.389,-145.357"/>
<polygon fill="black" stroke="black" points="157.549,-148.115 163.638,-139.444 153.471,-142.426 157.549,-148.115"/>
</g>
<!-- 827_14 -->
<g id="node39" class="node"><title>827_14</title>
<polygon fill="#66cdaa" stroke="black" points="132,-139.29 75,-139.29 75,-116.29 132,-116.29 132,-139.29"/>
<text text-anchor="middle" x="103.5" y="-124.09" font-family="Times,serif" font-size="14.00">827_14</text>
</g>
<!-- 827_11x827_12&#45;&gt;827_14 -->
<g id="edge38" class="edge"><title>827_11x827_12&#45;&gt;827_14</title>
<path fill="none" stroke="black" d="M103.5,-179.961C103.5,-174.493 103.5,-161.327 103.5,-149.721"/>
<polygon fill="black" stroke="black" points="107,-149.372 103.5,-139.372 100,-149.372 107,-149.372"/>
</g>
<!-- 827_1 -->
<g id="node28" class="node"><title>827_1</title>
<polygon fill="#66cdaa" stroke="black" points="864.5,-250.817 814.5,-250.817 814.5,-227.817 864.5,-227.817 864.5,-250.817"/>
<text text-anchor="middle" x="839.5" y="-235.617" font-family="Times,serif" font-size="14.00">827_1</text>
</g>
<!-- 827_1&#45;&gt;827_1x827_2 -->
<g id="edge26" class="edge"><title>827_1&#45;&gt;827_1x827_2</title>
<path fill="none" stroke="black" d="M847.205,-227.695C854.226,-218.017 864.513,-203.836 871.353,-194.406"/>
<polygon fill="black" stroke="black" points="874.358,-196.224 877.397,-186.074 868.692,-192.114 874.358,-196.224"/>
</g>
<!-- 827_3x827_17 -->
<g id="node31" class="node"><title>827_3x827_17</title>
<polygon fill="none" stroke="black" points="1034.5,-75.5269 1031,-72.0269 1034.5,-68.5269 1038,-72.0269 1034.5,-75.5269"/>
</g>
<!-- 827_3&#45;&gt;827_3x827_17 -->
<g id="edge29" class="edge"><title>827_3&#45;&gt;827_3x827_17</title>
<path fill="none" stroke="black" d="M1034.5,-116.168C1034.5,-107.416 1034.5,-94.9805 1034.5,-85.7075"/>
<polygon fill="black" stroke="black" points="1038,-85.6655 1034.5,-75.6656 1031,-85.6656 1038,-85.6655"/>
</g>
<!-- 827_18 -->
<g id="node41" class="node"><title>827_18</title>
<polygon fill="#66cdaa" stroke="black" points="1175,-27.7635 1118,-27.7635 1118,-4.76346 1175,-4.76346 1175,-27.7635"/>
<text text-anchor="middle" x="1146.5" y="-12.5635" font-family="Times,serif" font-size="14.00">827_18</text>
</g>
<!-- 827_3x827_17&#45;&gt;827_18 -->
<g id="edge40" class="edge"><title>827_3x827_17&#45;&gt;827_18</title>
<path fill="none" stroke="black" d="M1036.44,-70.0937C1045.72,-65.6397 1086.26,-46.1799 1115.44,-32.1719"/>
<polygon fill="black" stroke="black" points="1116.96,-35.3242 1124.46,-27.8413 1113.93,-29.0136 1116.96,-35.3242"/>
</g>
<!-- 827_22 -->
<g id="node50" class="node"><title>827_22</title>
<polygon fill="#66cdaa" stroke="black" points="1250,-27.7635 1193,-27.7635 1193,-4.76346 1250,-4.76346 1250,-27.7635"/>
<text text-anchor="middle" x="1221.5" y="-12.5635" font-family="Times,serif" font-size="14.00">827_22</text>
</g>
<!-- 827_3x827_17&#45;&gt;827_22 -->
<g id="edge48" class="edge"><title>827_3x827_17&#45;&gt;827_22</title>
<path fill="none" stroke="black" d="M1036.65,-70.5945C1050.21,-67.8394 1125.32,-52.222 1184.5,-32.5269 1185.55,-32.1759 1186.62,-31.8091 1187.7,-31.4299"/>
<polygon fill="black" stroke="black" points="1189.28,-34.5742 1197.4,-27.7724 1186.81,-28.0239 1189.28,-34.5742"/>
</g>
<!-- 827_19 -->
<g id="node51" class="node"><title>827_19</title>
<ellipse fill="white" stroke="black" cx="909.5" cy="-16.2635" rx="40.1111" ry="16.0303"/>
<text text-anchor="middle" x="909.5" y="-12.5635" font-family="Times,serif" font-size="14.00">827_19</text>
</g>
<!-- 827_3x827_17&#45;&gt;827_19 -->
<g id="edge49" class="edge"><title>827_3x827_17&#45;&gt;827_19</title>
<path fill="none" stroke="black" d="M1032.73,-70.2669C1023.31,-66.2128 978.145,-46.7882 945.216,-32.6253"/>
<polygon fill="black" stroke="black" points="946.438,-29.3407 935.868,-28.6047 943.672,-35.7711 946.438,-29.3407"/>
</g>
<!-- 827_21 -->
<g id="node52" class="node"><title>827_21</title>
<polygon fill="#66cdaa" stroke="black" points="1025,-27.7635 968,-27.7635 968,-4.76346 1025,-4.76346 1025,-27.7635"/>
<text text-anchor="middle" x="996.5" y="-12.5635" font-family="Times,serif" font-size="14.00">827_21</text>
</g>
<!-- 827_3x827_17&#45;&gt;827_21 -->
<g id="edge50" class="edge"><title>827_3x827_17&#45;&gt;827_21</title>
<path fill="none" stroke="black" d="M1033.24,-69.2381C1029.59,-64.0863 1018.77,-48.7736 1009.81,-36.0939"/>
<polygon fill="black" stroke="black" points="1012.64,-34.0394 1004.01,-27.8934 1006.93,-38.0797 1012.64,-34.0394"/>
</g>
<!-- 827_20 -->
<g id="node53" class="node"><title>827_20</title>
<polygon fill="#66cdaa" stroke="black" points="1100,-27.7635 1043,-27.7635 1043,-4.76346 1100,-4.76346 1100,-27.7635"/>
<text text-anchor="middle" x="1071.5" y="-12.5635" font-family="Times,serif" font-size="14.00">827_20</text>
</g>
<!-- 827_3x827_17&#45;&gt;827_20 -->
<g id="edge51" class="edge"><title>827_3x827_17&#45;&gt;827_20</title>
<path fill="none" stroke="black" d="M1035.73,-69.2381C1039.24,-64.1359 1049.61,-49.0672 1058.29,-36.4603"/>
<polygon fill="black" stroke="black" points="1061.4,-38.1154 1064.18,-27.8934 1055.63,-34.1469 1061.4,-38.1154"/>
</g>
<!-- 827_4&#45;&gt;827_40x827_4 -->
<g id="edge31" class="edge"><title>827_4&#45;&gt;827_40x827_4</title>
<path fill="none" stroke="black" d="M1319.5,-111.24C1319.5,-103.134 1319.5,-93.3455 1319.5,-85.7049"/>
<polygon fill="black" stroke="black" points="1323,-85.5501 1319.5,-75.5502 1316,-85.5502 1323,-85.5501"/>
</g>
<!-- 827_5x827_23 -->
<g id="node34" class="node"><title>827_5x827_23</title>
<polygon fill="none" stroke="black" points="1644.5,-75.5269 1641,-72.0269 1644.5,-68.5269 1648,-72.0269 1644.5,-75.5269"/>
</g>
<!-- 827_5&#45;&gt;827_5x827_23 -->
<g id="edge33" class="edge"><title>827_5&#45;&gt;827_5x827_23</title>
<path fill="none" stroke="black" d="M1626.04,-116.168C1629.98,-106.976 1635.65,-93.7212 1639.66,-84.334"/>
<polygon fill="black" stroke="black" points="1642.99,-85.4599 1643.7,-74.8893 1636.55,-82.7067 1642.99,-85.4599"/>
</g>
<!-- 827_28 -->
<g id="node44" class="node"><title>827_28</title>
<polygon fill="#66cdaa" stroke="black" points="1847,-27.7635 1790,-27.7635 1790,-4.76346 1847,-4.76346 1847,-27.7635"/>
<text text-anchor="middle" x="1818.5" y="-12.5635" font-family="Times,serif" font-size="14.00">827_28</text>
</g>
<!-- 827_5x827_23&#45;&gt;827_28 -->
<g id="edge42" class="edge"><title>827_5x827_23&#45;&gt;827_28</title>
<path fill="none" stroke="black" d="M1646.77,-70.4803C1659.87,-67.3068 1727.09,-50.7574 1780.5,-32.5269 1781.54,-32.171 1782.6,-31.8022 1783.66,-31.4234"/>
<polygon fill="black" stroke="black" points="1785.15,-34.6026 1793.29,-27.8218 1782.7,-28.046 1785.15,-34.6026"/>
</g>
<!-- 827_27 -->
<g id="node45" class="node"><title>827_27</title>
<polygon fill="#66cdaa" stroke="black" points="1922,-27.7635 1865,-27.7635 1865,-4.76346 1922,-4.76346 1922,-27.7635"/>
<text text-anchor="middle" x="1893.5" y="-12.5635" font-family="Times,serif" font-size="14.00">827_27</text>
</g>
<!-- 827_5x827_23&#45;&gt;827_27 -->
<g id="edge43" class="edge"><title>827_5x827_23&#45;&gt;827_27</title>
<path fill="none" stroke="black" d="M1647.07,-70.7689C1664.94,-68.9306 1772.51,-57.1756 1856.5,-32.5269 1857.74,-32.1637 1858.99,-31.7729 1860.25,-31.3605"/>
<polygon fill="black" stroke="black" points="1861.67,-34.5681 1869.88,-27.8724 1859.29,-27.9864 1861.67,-34.5681"/>
</g>
<!-- 827_25 -->
<g id="node46" class="node"><title>827_25</title>
<ellipse fill="#66cdaa" stroke="black" cx="1557.5" cy="-16.2635" rx="40.1111" ry="16.0303"/>
<text text-anchor="middle" x="1557.5" y="-12.5635" font-family="Times,serif" font-size="14.00">827_25</text>
</g>
<!-- 827_5x827_23&#45;&gt;827_25 -->
<g id="edge44" class="edge"><title>827_5x827_23&#45;&gt;827_25</title>
<path fill="none" stroke="black" d="M1642.68,-69.904C1635.56,-65.5039 1608.89,-49.0213 1587.27,-35.6574"/>
<polygon fill="black" stroke="black" points="1589.02,-32.6306 1578.68,-30.351 1585.35,-38.5854 1589.02,-32.6306"/>
</g>
<!-- 827_24 -->
<g id="node47" class="node"><title>827_24</title>
<polygon fill="#66cdaa" stroke="black" points="1673,-27.7635 1616,-27.7635 1616,-4.76346 1673,-4.76346 1673,-27.7635"/>
<text text-anchor="middle" x="1644.5" y="-12.5635" font-family="Times,serif" font-size="14.00">827_24</text>
</g>
<!-- 827_5x827_23&#45;&gt;827_24 -->
<g id="edge45" class="edge"><title>827_5x827_23&#45;&gt;827_24</title>
<path fill="none" stroke="black" d="M1644.5,-68.4338C1644.5,-62.9657 1644.5,-49.8005 1644.5,-38.1938"/>
<polygon fill="black" stroke="black" points="1648,-37.8452 1644.5,-27.8453 1641,-37.8453 1648,-37.8452"/>
</g>
<!-- 827_26 -->
<g id="node48" class="node"><title>827_26</title>
<ellipse fill="#66cdaa" stroke="black" cx="1731.5" cy="-16.2635" rx="40.1111" ry="16.0303"/>
<text text-anchor="middle" x="1731.5" y="-12.5635" font-family="Times,serif" font-size="14.00">827_26</text>
</g>
<!-- 827_5x827_23&#45;&gt;827_26 -->
<g id="edge46" class="edge"><title>827_5x827_23&#45;&gt;827_26</title>
<path fill="none" stroke="black" d="M1646.32,-69.904C1653.44,-65.5039 1680.11,-49.0213 1701.73,-35.6574"/>
<polygon fill="black" stroke="black" points="1703.65,-38.5854 1710.32,-30.351 1699.98,-32.6306 1703.65,-38.5854"/>
</g>
<!-- 827_11 -->
<g id="node36" class="node"><title>827_11</title>
<polygon fill="#66cdaa" stroke="black" points="89,-250.817 32,-250.817 32,-227.817 89,-227.817 89,-250.817"/>
<text text-anchor="middle" x="60.5" y="-235.617" font-family="Times,serif" font-size="14.00">827_11</text>
</g>
<!-- 827_11&#45;&gt;827_11x827_12 -->
<g id="edge35" class="edge"><title>827_11&#45;&gt;827_11x827_12</title>
<path fill="none" stroke="black" d="M68.9954,-227.695C76.82,-217.912 88.3254,-203.527 95.8646,-194.1"/>
<polygon fill="black" stroke="black" points="98.7711,-196.07 102.284,-186.074 93.3044,-191.698 98.7711,-196.07"/>
</g>
<!-- 827_12 -->
<g id="node37" class="node"><title>827_12</title>
<ellipse fill="#66cdaa" stroke="black" cx="147.5" cy="-239.317" rx="40.1111" ry="16.0303"/>
<text text-anchor="middle" x="147.5" y="-235.617" font-family="Times,serif" font-size="14.00">827_12</text>
</g>
<!-- 827_12&#45;&gt;827_11x827_12 -->
<g id="edge36" class="edge"><title>827_12&#45;&gt;827_11x827_12</title>
<path fill="none" stroke="black" d="M135.477,-223.626C127.748,-214.182 117.935,-202.192 111.231,-194"/>
<polygon fill="black" stroke="black" points="113.835,-191.656 104.793,-186.134 108.418,-196.089 113.835,-191.656"/>
</g>
<!-- 827_2 -->
<g id="node40" class="node"><title>827_2</title>
<ellipse fill="#66cdaa" stroke="black" cx="917.5" cy="-239.317" rx="35.2113" ry="16.0303"/>
<text text-anchor="middle" x="917.5" y="-235.617" font-family="Times,serif" font-size="14.00">827_2</text>
</g>
<!-- 827_2&#45;&gt;827_1x827_2 -->
<g id="edge39" class="edge"><title>827_2&#45;&gt;827_1x827_2</title>
<path fill="none" stroke="black" d="M906.843,-223.626C900.069,-214.287 891.488,-202.458 885.552,-194.275"/>
<polygon fill="black" stroke="black" points="888.351,-192.173 879.646,-186.134 882.685,-196.283 888.351,-192.173"/>
</g>
<!-- 827_17 -->
<g id="node42" class="node"><title>827_17</title>
<ellipse fill="#66cdaa" stroke="black" cx="951.5" cy="-127.79" rx="40.1111" ry="16.0303"/>
<text text-anchor="middle" x="951.5" y="-124.09" font-family="Times,serif" font-size="14.00">827_17</text>
</g>
<!-- 827_17&#45;&gt;827_3x827_17 -->
<g id="edge41" class="edge"><title>827_17&#45;&gt;827_3x827_17</title>
<path fill="none" stroke="black" d="M972.017,-113.501C988.651,-102.726 1011.39,-87.998 1024.35,-79.6023"/>
<polygon fill="black" stroke="black" points="1026.33,-82.4872 1032.82,-74.113 1022.53,-76.6121 1026.33,-82.4872"/>
</g>
<!-- 827_29 -->
<g id="node43" class="node"><title>827_29</title>
<ellipse fill="#66cdaa" stroke="black" cx="1011.5" cy="-239.317" rx="40.1111" ry="16.0303"/>
<text text-anchor="middle" x="1011.5" y="-235.617" font-family="Times,serif" font-size="14.00">827_29</text>
</g>
<!-- 827_23 -->
<g id="node49" class="node"><title>827_23</title>
<ellipse fill="#66cdaa" stroke="black" cx="1425.5" cy="-127.79" rx="40.1111" ry="16.0303"/>
<text text-anchor="middle" x="1425.5" y="-124.09" font-family="Times,serif" font-size="14.00">827_23</text>
</g>
<!-- 827_23&#45;&gt;827_5x827_23 -->
<g id="edge47" class="edge"><title>827_23&#45;&gt;827_5x827_23</title>
<path fill="none" stroke="black" d="M1455.71,-116.968C1461.9,-115.072 1468.39,-113.168 1474.5,-111.527 1533.03,-95.8086 1604.03,-81.12 1632.16,-75.4707"/>
<polygon fill="black" stroke="black" points="1632.96,-78.8811 1642.09,-73.4985 1631.6,-72.0154 1632.96,-78.8811"/>
</g>
</g>
</svg>
