<?xml version="1.0" encoding="UTF-8" standalone="no"?>
<!DOCTYPE svg PUBLIC "-//W3C//DTD SVG 1.1//EN"
 "http://www.w3.org/Graphics/SVG/1.1/DTD/svg11.dtd">
<!-- Generated by graphviz version 2.38.0 (20140413.2041)
 -->
<!-- Title: %3 Pages: 1 -->
<svg width="3012pt" height="264pt"
 viewBox="0.00 0.00 3012.25 263.58" xmlns="http://www.w3.org/2000/svg" xmlns:xlink="http://www.w3.org/1999/xlink">
<g id="graph0" class="graph" transform="scale(1 1) rotate(0) translate(4 259.581)">
<title>%3</title>
<polygon fill="white" stroke="none" points="-4,4 -4,-259.581 3008.25,-259.581 3008.25,4 -4,4"/>
<!-- 3746_36 -->
<g id="node1" class="node"><title>3746_36</title>
<polygon fill="#66cdaa" stroke="black" points="390.255,-27.7635 326.255,-27.7635 326.255,-4.76346 390.255,-4.76346 390.255,-27.7635"/>
<text text-anchor="middle" x="358.255" y="-12.5635" font-family="Times,serif" font-size="14.00">3746_36</text>
</g>
<!-- 3746_11x3746_34 -->
<g id="node2" class="node"><title>3746_11x3746_34</title>
<polygon fill="none" stroke="black" points="399.255,-75.5269 395.755,-72.0269 399.255,-68.5269 402.755,-72.0269 399.255,-75.5269"/>
</g>
<!-- 3746_11x3746_34&#45;&gt;3746_36 -->
<g id="edge1" class="edge"><title>3746_11x3746_34&#45;&gt;3746_36</title>
<path fill="none" stroke="black" d="M397.891,-69.2381C393.962,-64.0863 382.284,-48.7736 372.615,-36.0939"/>
<polygon fill="black" stroke="black" points="375.208,-33.7227 366.361,-27.8934 369.642,-37.9675 375.208,-33.7227"/>
</g>
<!-- 3746_38 -->
<g id="node3" class="node"><title>3746_38</title>
<polygon fill="#66cdaa" stroke="black" points="472.255,-27.7635 408.255,-27.7635 408.255,-4.76346 472.255,-4.76346 472.255,-27.7635"/>
<text text-anchor="middle" x="440.255" y="-12.5635" font-family="Times,serif" font-size="14.00">3746_38</text>
</g>
<!-- 3746_11x3746_34&#45;&gt;3746_38 -->
<g id="edge2" class="edge"><title>3746_11x3746_34&#45;&gt;3746_38</title>
<path fill="none" stroke="black" d="M400.619,-69.2381C404.548,-64.0863 416.225,-48.7736 425.895,-36.0939"/>
<polygon fill="black" stroke="black" points="428.868,-37.9675 432.148,-27.8934 423.301,-33.7227 428.868,-37.9675"/>
</g>
<!-- 3746_39 -->
<g id="node4" class="node"><title>3746_39</title>
<polygon fill="#66cdaa" stroke="black" points="554.255,-27.7635 490.255,-27.7635 490.255,-4.76346 554.255,-4.76346 554.255,-27.7635"/>
<text text-anchor="middle" x="522.255" y="-12.5635" font-family="Times,serif" font-size="14.00">3746_39</text>
</g>
<!-- 3746_11x3746_34&#45;&gt;3746_39 -->
<g id="edge3" class="edge"><title>3746_11x3746_34&#45;&gt;3746_39</title>
<path fill="none" stroke="black" d="M401.39,-70.0937C411.624,-65.6204 456.486,-46.0112 488.563,-31.9902"/>
<polygon fill="black" stroke="black" points="490.294,-35.0535 498.055,-27.8413 487.49,-28.6394 490.294,-35.0535"/>
</g>
<!-- 3746_40 -->
<g id="node5" class="node"><title>3746_40</title>
<polygon fill="#66cdaa" stroke="black" points="636.255,-27.7635 572.255,-27.7635 572.255,-4.76346 636.255,-4.76346 636.255,-27.7635"/>
<text text-anchor="middle" x="604.255" y="-12.5635" font-family="Times,serif" font-size="14.00">3746_40</text>
</g>
<!-- 3746_11x3746_34&#45;&gt;3746_40 -->
<g id="edge4" class="edge"><title>3746_11x3746_34&#45;&gt;3746_40</title>
<path fill="none" stroke="black" d="M401.596,-70.5928C416.385,-67.8269 498.305,-52.1554 563.255,-32.5269 564.709,-32.0875 566.186,-31.6235 567.674,-31.1416"/>
<polygon fill="black" stroke="black" points="569.188,-34.3224 577.513,-27.769 566.919,-27.7006 569.188,-34.3224"/>
</g>
<!-- 3746_41 -->
<g id="node13" class="node"><title>3746_41</title>
<ellipse fill="#66cdaa" stroke="black" cx="45.2548" cy="-16.2635" rx="45.011" ry="16.0303"/>
<text text-anchor="middle" x="45.2548" y="-12.5635" font-family="Times,serif" font-size="14.00">3746_41</text>
</g>
<!-- 3746_11x3746_34&#45;&gt;3746_41 -->
<g id="edge10" class="edge"><title>3746_11x3746_34&#45;&gt;3746_41</title>
<path fill="none" stroke="black" d="M396.839,-70.8486C375.856,-69.2727 222.352,-57.1987 100.255,-32.5269 96.3772,-31.7434 92.3713,-30.833 88.3717,-29.8544"/>
<polygon fill="black" stroke="black" points="89.0758,-26.4216 78.5187,-27.3149 87.3286,-33.2001 89.0758,-26.4216"/>
</g>
<!-- 3746_37 -->
<g id="node17" class="node"><title>3746_37</title>
<ellipse fill="white" stroke="black" cx="154.255" cy="-16.2635" rx="45.011" ry="16.0303"/>
<text text-anchor="middle" x="154.255" y="-12.5635" font-family="Times,serif" font-size="14.00">3746_37</text>
</g>
<!-- 3746_11x3746_34&#45;&gt;3746_37 -->
<g id="edge14" class="edge"><title>3746_11x3746_34&#45;&gt;3746_37</title>
<path fill="none" stroke="black" d="M396.983,-70.6296C381.165,-67.85 285.841,-50.8889 209.255,-32.5269 205.62,-31.6555 201.862,-30.7095 198.097,-29.7298"/>
<polygon fill="black" stroke="black" points="198.755,-26.283 188.191,-27.086 196.95,-33.0462 198.755,-26.283"/>
</g>
<!-- 3746_35 -->
<g id="node18" class="node"><title>3746_35</title>
<ellipse fill="#66cdaa" stroke="black" cx="263.255" cy="-16.2635" rx="45.011" ry="16.0303"/>
<text text-anchor="middle" x="263.255" y="-12.5635" font-family="Times,serif" font-size="14.00">3746_35</text>
</g>
<!-- 3746_11x3746_34&#45;&gt;3746_35 -->
<g id="edge15" class="edge"><title>3746_11x3746_34&#45;&gt;3746_35</title>
<path fill="none" stroke="black" d="M397.332,-70.2669C387.092,-66.2187 338.084,-46.845 302.271,-32.6875"/>
<polygon fill="black" stroke="black" points="303.15,-29.2712 292.563,-28.8497 300.576,-35.781 303.15,-29.2712"/>
</g>
<!-- 3746_24 -->
<g id="node6" class="node"><title>3746_24</title>
<polygon fill="white" stroke="black" points="2650.25,-27.7635 2586.25,-27.7635 2586.25,-4.76346 2650.25,-4.76346 2650.25,-27.7635"/>
<text text-anchor="middle" x="2618.25" y="-12.5635" font-family="Times,serif" font-size="14.00">3746_24</text>
</g>
<!-- 3746_25x3746_7 -->
<g id="node7" class="node"><title>3746_25x3746_7</title>
<polygon fill="none" stroke="black" points="2523.25,-75.5269 2519.75,-72.0269 2523.25,-68.5269 2526.75,-72.0269 2523.25,-75.5269"/>
</g>
<!-- 3746_25x3746_7&#45;&gt;3746_24 -->
<g id="edge5" class="edge"><title>3746_25x3746_7&#45;&gt;3746_24</title>
<path fill="none" stroke="black" d="M2524.9,-70.0937C2532.64,-65.7168 2565.98,-46.8494 2590.62,-32.9043"/>
<polygon fill="black" stroke="black" points="2592.58,-35.8126 2599.56,-27.8413 2589.14,-29.7206 2592.58,-35.8126"/>
</g>
<!-- 3746_28 -->
<g id="node10" class="node"><title>3746_28</title>
<ellipse fill="white" stroke="black" cx="2713.25" cy="-16.2635" rx="45.011" ry="16.0303"/>
<text text-anchor="middle" x="2713.25" y="-12.5635" font-family="Times,serif" font-size="14.00">3746_28</text>
</g>
<!-- 3746_25x3746_7&#45;&gt;3746_28 -->
<g id="edge7" class="edge"><title>3746_25x3746_7&#45;&gt;3746_28</title>
<path fill="none" stroke="black" d="M2525.39,-70.4231C2539.3,-66.4863 2618.12,-44.1823 2669.15,-29.7436"/>
<polygon fill="black" stroke="black" points="2670.29,-33.0591 2678.96,-26.9685 2668.38,-26.3235 2670.29,-33.0591"/>
</g>
<!-- 3746_33 -->
<g id="node16" class="node"><title>3746_33</title>
<polygon fill="#66cdaa" stroke="black" points="2840.25,-27.7635 2776.25,-27.7635 2776.25,-4.76346 2840.25,-4.76346 2840.25,-27.7635"/>
<text text-anchor="middle" x="2808.25" y="-12.5635" font-family="Times,serif" font-size="14.00">3746_33</text>
</g>
<!-- 3746_25x3746_7&#45;&gt;3746_33 -->
<g id="edge13" class="edge"><title>3746_25x3746_7&#45;&gt;3746_33</title>
<path fill="none" stroke="black" d="M2525.7,-70.8287C2544.59,-69.2573 2669.36,-58.1974 2767.25,-32.5269 2768.92,-32.0898 2770.62,-31.6104 2772.32,-31.0994"/>
<polygon fill="black" stroke="black" points="2773.63,-34.3521 2782.04,-27.9053 2771.45,-27.7019 2773.63,-34.3521"/>
</g>
<!-- 3746_32 -->
<g id="node20" class="node"><title>3746_32</title>
<polygon fill="#66cdaa" stroke="black" points="2922.25,-27.7635 2858.25,-27.7635 2858.25,-4.76346 2922.25,-4.76346 2922.25,-27.7635"/>
<text text-anchor="middle" x="2890.25" y="-12.5635" font-family="Times,serif" font-size="14.00">3746_32</text>
</g>
<!-- 3746_25x3746_7&#45;&gt;3746_32 -->
<g id="edge17" class="edge"><title>3746_25x3746_7&#45;&gt;3746_32</title>
<path fill="none" stroke="black" d="M2525.91,-70.9549C2548.95,-70.2809 2717.41,-64.3688 2849.25,-32.5269 2851.14,-32.0722 2853.05,-31.5567 2854.97,-30.9969"/>
<polygon fill="black" stroke="black" points="2856.08,-34.3164 2864.52,-27.9065 2853.93,-27.6567 2856.08,-34.3164"/>
</g>
<!-- 3746_31 -->
<g id="node22" class="node"><title>3746_31</title>
<polygon fill="#66cdaa" stroke="black" points="3004.25,-27.7635 2940.25,-27.7635 2940.25,-4.76346 3004.25,-4.76346 3004.25,-27.7635"/>
<text text-anchor="middle" x="2972.25" y="-12.5635" font-family="Times,serif" font-size="14.00">3746_31</text>
</g>
<!-- 3746_25x3746_7&#45;&gt;3746_31 -->
<g id="edge19" class="edge"><title>3746_25x3746_7&#45;&gt;3746_31</title>
<path fill="none" stroke="black" d="M2525.89,-71.0414C2551.86,-71.1317 2764.81,-70.6624 2931.25,-32.5269 2933.2,-32.0816 2935.17,-31.5672 2937.16,-31.0024"/>
<polygon fill="black" stroke="black" points="2938.53,-34.2368 2946.98,-27.8469 2936.39,-27.572 2938.53,-34.2368"/>
</g>
<!-- 3746_30 -->
<g id="node23" class="node"><title>3746_30</title>
<polygon fill="#66cdaa" stroke="black" points="2296.25,-27.7635 2232.25,-27.7635 2232.25,-4.76346 2296.25,-4.76346 2296.25,-27.7635"/>
<text text-anchor="middle" x="2264.25" y="-12.5635" font-family="Times,serif" font-size="14.00">3746_30</text>
</g>
<!-- 3746_25x3746_7&#45;&gt;3746_30 -->
<g id="edge20" class="edge"><title>3746_25x3746_7&#45;&gt;3746_30</title>
<path fill="none" stroke="black" d="M2520.62,-70.7458C2502.31,-68.7513 2392.03,-56.1327 2305.25,-32.5269 2303.59,-32.0746 2301.9,-31.5826 2300.2,-31.0615"/>
<polygon fill="black" stroke="black" points="2301.08,-27.6664 2290.49,-27.8321 2298.88,-34.3088 2301.08,-27.6664"/>
</g>
<!-- 3746_29 -->
<g id="node24" class="node"><title>3746_29</title>
<polygon fill="#66cdaa" stroke="black" points="2378.25,-27.7635 2314.25,-27.7635 2314.25,-4.76346 2378.25,-4.76346 2378.25,-27.7635"/>
<text text-anchor="middle" x="2346.25" y="-12.5635" font-family="Times,serif" font-size="14.00">3746_29</text>
</g>
<!-- 3746_25x3746_7&#45;&gt;3746_29 -->
<g id="edge21" class="edge"><title>3746_25x3746_7&#45;&gt;3746_29</title>
<path fill="none" stroke="black" d="M2520.99,-70.4592C2507.93,-67.1678 2440.9,-50.0733 2387.25,-32.5269 2386.04,-32.1284 2384.8,-31.7162 2383.56,-31.2937"/>
<polygon fill="black" stroke="black" points="2384.53,-27.9271 2373.94,-27.9131 2382.21,-34.5311 2384.53,-27.9271"/>
</g>
<!-- 3746_27 -->
<g id="node25" class="node"><title>3746_27</title>
<polygon fill="white" stroke="black" points="2460.25,-27.7635 2396.25,-27.7635 2396.25,-4.76346 2460.25,-4.76346 2460.25,-27.7635"/>
<text text-anchor="middle" x="2428.25" y="-12.5635" font-family="Times,serif" font-size="14.00">3746_27</text>
</g>
<!-- 3746_25x3746_7&#45;&gt;3746_27 -->
<g id="edge22" class="edge"><title>3746_25x3746_7&#45;&gt;3746_27</title>
<path fill="none" stroke="black" d="M2521.61,-70.0937C2513.87,-65.7168 2480.53,-46.8494 2455.89,-32.9043"/>
<polygon fill="black" stroke="black" points="2457.37,-29.7206 2446.95,-27.8413 2453.92,-35.8126 2457.37,-29.7206"/>
</g>
<!-- 3746_26 -->
<g id="node29" class="node"><title>3746_26</title>
<ellipse fill="white" stroke="black" cx="2523.25" cy="-16.2635" rx="45.011" ry="16.0303"/>
<text text-anchor="middle" x="2523.25" y="-12.5635" font-family="Times,serif" font-size="14.00">3746_26</text>
</g>
<!-- 3746_25x3746_7&#45;&gt;3746_26 -->
<g id="edge25" class="edge"><title>3746_25x3746_7&#45;&gt;3746_26</title>
<path fill="none" stroke="black" d="M2523.25,-68.4338C2523.25,-63.6514 2523.25,-52.9811 2523.25,-42.6151"/>
<polygon fill="black" stroke="black" points="2526.75,-42.5799 2523.25,-32.58 2519.75,-42.58 2526.75,-42.5799"/>
</g>
<!-- 3746_42 -->
<g id="node8" class="node"><title>3746_42</title>
<polygon fill="#66cdaa" stroke="black" points="1190.25,-139.29 1126.25,-139.29 1126.25,-116.29 1190.25,-116.29 1190.25,-139.29"/>
<text text-anchor="middle" x="1158.25" y="-124.09" font-family="Times,serif" font-size="14.00">3746_42</text>
</g>
<!-- 3746_42x3746_6 -->
<g id="node9" class="node"><title>3746_42x3746_6</title>
<polygon fill="none" stroke="black" points="1068.25,-75.5269 1064.75,-72.0269 1068.25,-68.5269 1071.75,-72.0269 1068.25,-75.5269"/>
</g>
<!-- 3746_42&#45;&gt;3746_42x3746_6 -->
<g id="edge6" class="edge"><title>3746_42&#45;&gt;3746_42x3746_6</title>
<path fill="none" stroke="black" d="M1140.47,-116.168C1122.19,-105.243 1094.29,-88.5792 1079.08,-79.4907"/>
<polygon fill="black" stroke="black" points="1080.66,-76.3617 1070.28,-74.238 1077.07,-82.3711 1080.66,-76.3617"/>
</g>
<!-- 3746_43 -->
<g id="node11" class="node"><title>3746_43</title>
<polygon fill="#66cdaa" stroke="black" points="1072.25,-27.7635 1008.25,-27.7635 1008.25,-4.76346 1072.25,-4.76346 1072.25,-27.7635"/>
<text text-anchor="middle" x="1040.25" y="-12.5635" font-family="Times,serif" font-size="14.00">3746_43</text>
</g>
<!-- 3746_42x3746_6&#45;&gt;3746_43 -->
<g id="edge8" class="edge"><title>3746_42x3746_6&#45;&gt;3746_43</title>
<path fill="none" stroke="black" d="M1067.32,-69.2381C1064.69,-64.1854 1056.97,-49.3588 1050.44,-36.8282"/>
<polygon fill="black" stroke="black" points="1053.51,-35.146 1045.79,-27.8934 1047.31,-38.3794 1053.51,-35.146"/>
</g>
<!-- 3746_44 -->
<g id="node12" class="node"><title>3746_44</title>
<ellipse fill="#66cdaa" stroke="black" cx="1135.25" cy="-16.2635" rx="45.011" ry="16.0303"/>
<text text-anchor="middle" x="1135.25" y="-12.5635" font-family="Times,serif" font-size="14.00">3746_44</text>
</g>
<!-- 3746_42x3746_6&#45;&gt;3746_44 -->
<g id="edge9" class="edge"><title>3746_42x3746_6&#45;&gt;3746_44</title>
<path fill="none" stroke="black" d="M1069.91,-69.6979C1075.44,-65.264 1093.79,-50.5402 1109.64,-37.8198"/>
<polygon fill="black" stroke="black" points="1112.01,-40.4039 1117.62,-31.4155 1107.63,-34.9443 1112.01,-40.4039"/>
</g>
<!-- 3746_45 -->
<g id="node44" class="node"><title>3746_45</title>
<polygon fill="#66cdaa" stroke="black" points="990.255,-27.7635 926.255,-27.7635 926.255,-4.76346 990.255,-4.76346 990.255,-27.7635"/>
<text text-anchor="middle" x="958.255" y="-12.5635" font-family="Times,serif" font-size="14.00">3746_45</text>
</g>
<!-- 3746_42x3746_6&#45;&gt;3746_45 -->
<g id="edge41" class="edge"><title>3746_42x3746_6&#45;&gt;3746_45</title>
<path fill="none" stroke="black" d="M1066.35,-70.0937C1057.27,-65.659 1017.76,-46.3481 989.13,-32.3541"/>
<polygon fill="black" stroke="black" points="990.418,-29.088 979.897,-27.8413 987.344,-35.377 990.418,-29.088"/>
</g>
<!-- 3746_6 -->
<g id="node14" class="node"><title>3746_6</title>
<ellipse fill="dimgrey" stroke="black" cx="1068.25" cy="-127.79" rx="40.1111" ry="16.0303"/>
<text text-anchor="middle" x="1068.25" y="-124.09" font-family="Times,serif" font-size="14.00">3746_6</text>
</g>
<!-- 3746_6&#45;&gt;3746_42x3746_6 -->
<g id="edge12" class="edge"><title>3746_6&#45;&gt;3746_42x3746_6</title>
<path fill="none" stroke="black" d="M1068.25,-111.24C1068.25,-103.134 1068.25,-93.3455 1068.25,-85.7049"/>
<polygon fill="black" stroke="black" points="1071.75,-85.5501 1068.25,-75.5502 1064.75,-85.5502 1071.75,-85.5501"/>
</g>
<!-- 3746_1x3746_2 -->
<g id="node15" class="node"><title>3746_1x3746_2</title>
<polygon fill="none" stroke="black" points="1518.25,-187.054 1514.75,-183.554 1518.25,-180.054 1521.75,-183.554 1518.25,-187.054"/>
</g>
<!-- 3746_1x3746_2&#45;&gt;3746_6 -->
<g id="edge11" class="edge"><title>3746_1x3746_2&#45;&gt;3746_6</title>
<path fill="none" stroke="black" d="M1515.68,-182.51C1490.26,-182.036 1281.8,-177.211 1117.25,-144.054 1114.02,-143.403 1110.7,-142.621 1107.38,-141.76"/>
<polygon fill="black" stroke="black" points="1108.11,-138.329 1097.54,-138.99 1106.22,-145.067 1108.11,-138.329"/>
</g>
<!-- 3746_3 -->
<g id="node32" class="node"><title>3746_3</title>
<polygon fill="#66cdaa" stroke="black" points="1786.75,-139.29 1729.75,-139.29 1729.75,-116.29 1786.75,-116.29 1786.75,-139.29"/>
<text text-anchor="middle" x="1758.25" y="-124.09" font-family="Times,serif" font-size="14.00">3746_3</text>
</g>
<!-- 3746_1x3746_2&#45;&gt;3746_3 -->
<g id="edge27" class="edge"><title>3746_1x3746_2&#45;&gt;3746_3</title>
<path fill="none" stroke="black" d="M1520.7,-182.27C1537.7,-180.26 1640.09,-167.553 1720.25,-144.054 1721.66,-143.641 1723.09,-143.196 1724.52,-142.727"/>
<polygon fill="black" stroke="black" points="1725.73,-146.012 1733.97,-139.352 1723.38,-139.42 1725.73,-146.012"/>
</g>
<!-- 3746_99 -->
<g id="node38" class="node"><title>3746_99</title>
<ellipse fill="dimgrey" stroke="black" cx="1666.25" cy="-127.79" rx="45.011" ry="16.0303"/>
<text text-anchor="middle" x="1666.25" y="-124.09" font-family="Times,serif" font-size="14.00">3746_99</text>
</g>
<!-- 3746_1x3746_2&#45;&gt;3746_99 -->
<g id="edge32" class="edge"><title>3746_1x3746_2&#45;&gt;3746_99</title>
<path fill="none" stroke="black" d="M1520.35,-181.794C1531.72,-177.664 1586.99,-157.584 1626.14,-143.364"/>
<polygon fill="black" stroke="black" points="1627.5,-146.593 1635.7,-139.888 1625.11,-140.013 1627.5,-146.593"/>
</g>
<!-- 3746_7 -->
<g id="node39" class="node"><title>3746_7</title>
<ellipse fill="dimgrey" stroke="black" cx="1992.25" cy="-127.79" rx="40.1111" ry="16.0303"/>
<text text-anchor="middle" x="1992.25" y="-124.09" font-family="Times,serif" font-size="14.00">3746_7</text>
</g>
<!-- 3746_1x3746_2&#45;&gt;3746_7 -->
<g id="edge34" class="edge"><title>3746_1x3746_2&#45;&gt;3746_7</title>
<path fill="none" stroke="black" d="M1520.81,-182.265C1550.38,-178.91 1829.27,-147.277 1943.66,-134.302"/>
<polygon fill="black" stroke="black" points="1944.34,-137.748 1953.88,-133.143 1943.55,-130.792 1944.34,-137.748"/>
</g>
<!-- 3746_10 -->
<g id="node40" class="node"><title>3746_10</title>
<ellipse fill="dimgrey" stroke="black" cx="2471.25" cy="-127.79" rx="45.011" ry="16.0303"/>
<text text-anchor="middle" x="2471.25" y="-124.09" font-family="Times,serif" font-size="14.00">3746_10</text>
</g>
<!-- 3746_1x3746_2&#45;&gt;3746_10 -->
<g id="edge36" class="edge"><title>3746_1x3746_2&#45;&gt;3746_10</title>
<path fill="none" stroke="black" d="M1520.8,-182.528C1566.96,-182.044 2226.76,-174.626 2417.25,-144.054 2421.15,-143.429 2425.16,-142.62 2429.15,-141.702"/>
<polygon fill="black" stroke="black" points="2430.13,-145.065 2438.98,-139.233 2428.42,-138.276 2430.13,-145.065"/>
</g>
<!-- 3746_11 -->
<g id="node41" class="node"><title>3746_11</title>
<polygon fill="dimgrey" stroke="black" points="431.255,-139.29 367.255,-139.29 367.255,-116.29 431.255,-116.29 431.255,-139.29"/>
<text text-anchor="middle" x="399.255" y="-124.09" font-family="Times,serif" font-size="14.00">3746_11</text>
</g>
<!-- 3746_1x3746_2&#45;&gt;3746_11 -->
<g id="edge37" class="edge"><title>3746_1x3746_2&#45;&gt;3746_11</title>
<path fill="none" stroke="black" d="M1515.52,-182.579C1462.95,-183.037 667.565,-189.196 440.255,-144.054 437.929,-143.592 435.561,-143.016 433.195,-142.36"/>
<polygon fill="black" stroke="black" points="434.189,-139.003 423.599,-139.305 432.066,-145.674 434.189,-139.003"/>
</g>
<!-- 3746_5 -->
<g id="node45" class="node"><title>3746_5</title>
<polygon fill="dimgrey" stroke="black" points="862.755,-139.29 805.755,-139.29 805.755,-116.29 862.755,-116.29 862.755,-139.29"/>
<text text-anchor="middle" x="834.255" y="-124.09" font-family="Times,serif" font-size="14.00">3746_5</text>
</g>
<!-- 3746_1x3746_2&#45;&gt;3746_5 -->
<g id="edge42" class="edge"><title>3746_1x3746_2&#45;&gt;3746_5</title>
<path fill="none" stroke="black" d="M1515.52,-182.514C1475.47,-181.906 1006.55,-174.188 872.255,-144.054 870.538,-143.669 868.798,-143.215 867.055,-142.71"/>
<polygon fill="black" stroke="black" points="867.782,-139.261 857.187,-139.374 865.539,-145.893 867.782,-139.261"/>
</g>
<!-- 3746_9 -->
<g id="node54" class="node"><title>3746_9</title>
<polygon fill="#66cdaa" stroke="black" points="1428.75,-139.29 1371.75,-139.29 1371.75,-116.29 1428.75,-116.29 1428.75,-139.29"/>
<text text-anchor="middle" x="1400.25" y="-124.09" font-family="Times,serif" font-size="14.00">3746_9</text>
</g>
<!-- 3746_1x3746_2&#45;&gt;3746_9 -->
<g id="edge52" class="edge"><title>3746_1x3746_2&#45;&gt;3746_9</title>
<path fill="none" stroke="black" d="M1516.21,-181.621C1506.39,-177.147 1463.35,-157.538 1432.58,-143.517"/>
<polygon fill="black" stroke="black" points="1434.02,-140.329 1423.47,-139.368 1431.12,-146.699 1434.02,-140.329"/>
</g>
<!-- 3746_8 -->
<g id="node55" class="node"><title>3746_8</title>
<polygon fill="#66cdaa" stroke="black" points="1503.75,-139.29 1446.75,-139.29 1446.75,-116.29 1503.75,-116.29 1503.75,-139.29"/>
<text text-anchor="middle" x="1475.25" y="-124.09" font-family="Times,serif" font-size="14.00">3746_8</text>
</g>
<!-- 3746_1x3746_2&#45;&gt;3746_8 -->
<g id="edge53" class="edge"><title>3746_1x3746_2&#45;&gt;3746_8</title>
<path fill="none" stroke="black" d="M1516.82,-180.765C1512.66,-175.564 1500.22,-160.005 1490.02,-147.256"/>
<polygon fill="black" stroke="black" points="1492.74,-145.044 1483.76,-139.42 1487.27,-149.416 1492.74,-145.044"/>
</g>
<!-- 3746_4 -->
<g id="node56" class="node"><title>3746_4</title>
<ellipse fill="#66cdaa" stroke="black" cx="1562.25" cy="-127.79" rx="40.1111" ry="16.0303"/>
<text text-anchor="middle" x="1562.25" y="-124.09" font-family="Times,serif" font-size="14.00">3746_4</text>
</g>
<!-- 3746_1x3746_2&#45;&gt;3746_4 -->
<g id="edge54" class="edge"><title>3746_1x3746_2&#45;&gt;3746_4</title>
<path fill="none" stroke="black" d="M1519.72,-180.765C1523.52,-176.117 1534.1,-163.196 1543.75,-151.401"/>
<polygon fill="black" stroke="black" points="1546.57,-153.486 1550.19,-143.53 1541.15,-149.052 1546.57,-153.486"/>
</g>
<!-- 3746_34 -->
<g id="node19" class="node"><title>3746_34</title>
<ellipse fill="#66cdaa" stroke="black" cx="494.255" cy="-127.79" rx="45.011" ry="16.0303"/>
<text text-anchor="middle" x="494.255" y="-124.09" font-family="Times,serif" font-size="14.00">3746_34</text>
</g>
<!-- 3746_34&#45;&gt;3746_11x3746_34 -->
<g id="edge16" class="edge"><title>3746_34&#45;&gt;3746_11x3746_34</title>
<path fill="none" stroke="black" d="M471.258,-113.776C451.846,-102.79 424.916,-87.5493 410.103,-79.166"/>
<polygon fill="black" stroke="black" points="411.622,-76.0045 401.196,-74.1252 408.175,-82.0966 411.622,-76.0045"/>
</g>
<!-- 3746_1 -->
<g id="node21" class="node"><title>3746_1</title>
<polygon fill="#66cdaa" stroke="black" points="1503.75,-250.817 1446.75,-250.817 1446.75,-227.817 1503.75,-227.817 1503.75,-250.817"/>
<text text-anchor="middle" x="1475.25" y="-235.617" font-family="Times,serif" font-size="14.00">3746_1</text>
</g>
<!-- 3746_1&#45;&gt;3746_1x3746_2 -->
<g id="edge18" class="edge"><title>3746_1&#45;&gt;3746_1x3746_2</title>
<path fill="none" stroke="black" d="M1483.75,-227.695C1491.57,-217.912 1503.08,-203.527 1510.62,-194.1"/>
<polygon fill="black" stroke="black" points="1513.53,-196.07 1517.04,-186.074 1508.06,-191.698 1513.53,-196.07"/>
</g>
<!-- 3746_25 -->
<g id="node26" class="node"><title>3746_25</title>
<polygon fill="#66cdaa" stroke="black" points="2408.25,-139.29 2344.25,-139.29 2344.25,-116.29 2408.25,-116.29 2408.25,-139.29"/>
<text text-anchor="middle" x="2376.25" y="-124.09" font-family="Times,serif" font-size="14.00">3746_25</text>
</g>
<!-- 3746_25&#45;&gt;3746_25x3746_7 -->
<g id="edge23" class="edge"><title>3746_25&#45;&gt;3746_25x3746_7</title>
<path fill="none" stroke="black" d="M2404.47,-116.251C2408.75,-114.662 2413.12,-113.047 2417.25,-111.527 2451.62,-98.8883 2492.35,-84.1671 2511.8,-77.1524"/>
<polygon fill="black" stroke="black" points="2513.01,-80.4377 2521.23,-73.7549 2510.64,-73.8522 2513.01,-80.4377"/>
</g>
<!-- 3746_23 -->
<g id="node27" class="node"><title>3746_23</title>
<polygon fill="#66cdaa" stroke="black" points="1684.25,-250.817 1620.25,-250.817 1620.25,-227.817 1684.25,-227.817 1684.25,-250.817"/>
<text text-anchor="middle" x="1652.25" y="-235.617" font-family="Times,serif" font-size="14.00">3746_23</text>
</g>
<!-- 3746_2 -->
<g id="node28" class="node"><title>3746_2</title>
<ellipse fill="#66cdaa" stroke="black" cx="1562.25" cy="-239.317" rx="40.1111" ry="16.0303"/>
<text text-anchor="middle" x="1562.25" y="-235.617" font-family="Times,serif" font-size="14.00">3746_2</text>
</g>
<!-- 3746_2&#45;&gt;3746_1x3746_2 -->
<g id="edge24" class="edge"><title>3746_2&#45;&gt;3746_1x3746_2</title>
<path fill="none" stroke="black" d="M1550.23,-223.626C1542.5,-214.182 1532.69,-202.192 1525.99,-194"/>
<polygon fill="black" stroke="black" points="1528.59,-191.656 1519.55,-186.134 1523.17,-196.089 1528.59,-191.656"/>
</g>
<!-- 3746_13 -->
<g id="node30" class="node"><title>3746_13</title>
<polygon fill="#66cdaa" stroke="black" points="2106.25,-27.7635 2042.25,-27.7635 2042.25,-4.76346 2106.25,-4.76346 2106.25,-27.7635"/>
<text text-anchor="middle" x="2074.25" y="-12.5635" font-family="Times,serif" font-size="14.00">3746_13</text>
</g>
<!-- 3746_12x3746_99 -->
<g id="node31" class="node"><title>3746_12x3746_99</title>
<polygon fill="none" stroke="black" points="1666.25,-75.5269 1662.75,-72.0269 1666.25,-68.5269 1669.75,-72.0269 1666.25,-75.5269"/>
</g>
<!-- 3746_12x3746_99&#45;&gt;3746_13 -->
<g id="edge26" class="edge"><title>3746_12x3746_99&#45;&gt;3746_13</title>
<path fill="none" stroke="black" d="M1668.92,-71.0028C1693.58,-70.7284 1884.19,-67.5012 2033.25,-32.5269 2035.2,-32.0715 2037.17,-31.549 2039.15,-30.978"/>
<polygon fill="black" stroke="black" points="2040.53,-34.2093 2048.97,-27.8041 2038.38,-27.5484 2040.53,-34.2093"/>
</g>
<!-- 3746_15 -->
<g id="node42" class="node"><title>3746_15</title>
<ellipse fill="white" stroke="black" cx="2169.25" cy="-16.2635" rx="45.011" ry="16.0303"/>
<text text-anchor="middle" x="2169.25" y="-12.5635" font-family="Times,serif" font-size="14.00">3746_15</text>
</g>
<!-- 3746_12x3746_99&#45;&gt;3746_15 -->
<g id="edge39" class="edge"><title>3746_12x3746_99&#45;&gt;3746_15</title>
<path fill="none" stroke="black" d="M1668.79,-70.9945C1695.59,-70.6142 1929.77,-66.3768 2115.25,-32.5269 2118.97,-31.8486 2122.8,-31.0256 2126.63,-30.1172"/>
<polygon fill="black" stroke="black" points="2127.83,-33.4223 2136.65,-27.5541 2126.09,-26.6405 2127.83,-33.4223"/>
</g>
<!-- 3746_17 -->
<g id="node43" class="node"><title>3746_17</title>
<ellipse fill="white" stroke="black" cx="1244.25" cy="-16.2635" rx="45.011" ry="16.0303"/>
<text text-anchor="middle" x="1244.25" y="-12.5635" font-family="Times,serif" font-size="14.00">3746_17</text>
</g>
<!-- 3746_12x3746_99&#45;&gt;3746_17 -->
<g id="edge40" class="edge"><title>3746_12x3746_99&#45;&gt;3746_17</title>
<path fill="none" stroke="black" d="M1663.6,-70.9179C1639.11,-69.8763 1449.68,-61.0852 1299.25,-32.5269 1295.37,-31.789 1291.36,-30.9101 1287.35,-29.9521"/>
<polygon fill="black" stroke="black" points="1288.05,-26.5176 1277.49,-27.443 1286.32,-33.3013 1288.05,-26.5176"/>
</g>
<!-- 3746_21 -->
<g id="node46" class="node"><title>3746_21</title>
<ellipse fill="#66cdaa" stroke="black" cx="1353.25" cy="-16.2635" rx="45.011" ry="16.0303"/>
<text text-anchor="middle" x="1353.25" y="-12.5635" font-family="Times,serif" font-size="14.00">3746_21</text>
</g>
<!-- 3746_12x3746_99&#45;&gt;3746_21 -->
<g id="edge44" class="edge"><title>3746_12x3746_99&#45;&gt;3746_21</title>
<path fill="none" stroke="black" d="M1663.69,-70.7655C1643.85,-68.718 1512.8,-54.7461 1408.25,-32.5269 1404.44,-31.7157 1400.49,-30.793 1396.55,-29.8122"/>
<polygon fill="black" stroke="black" points="1397.39,-26.4144 1386.83,-27.2852 1395.63,-33.1891 1397.39,-26.4144"/>
</g>
<!-- 3746_20 -->
<g id="node47" class="node"><title>3746_20</title>
<ellipse fill="#66cdaa" stroke="black" cx="1462.25" cy="-16.2635" rx="45.011" ry="16.0303"/>
<text text-anchor="middle" x="1462.25" y="-12.5635" font-family="Times,serif" font-size="14.00">3746_20</text>
</g>
<!-- 3746_12x3746_99&#45;&gt;3746_20 -->
<g id="edge45" class="edge"><title>3746_12x3746_99&#45;&gt;3746_20</title>
<path fill="none" stroke="black" d="M1664.15,-70.4982C1650.85,-67.1544 1577.13,-48.5687 1517.25,-32.5269 1513.7,-31.5732 1510.01,-30.5745 1506.31,-29.564"/>
<polygon fill="black" stroke="black" points="1507.13,-26.1588 1496.56,-26.8843 1505.27,-32.9087 1507.13,-26.1588"/>
</g>
<!-- 3746_19 -->
<g id="node48" class="node"><title>3746_19</title>
<ellipse fill="#66cdaa" stroke="black" cx="1571.25" cy="-16.2635" rx="45.011" ry="16.0303"/>
<text text-anchor="middle" x="1571.25" y="-12.5635" font-family="Times,serif" font-size="14.00">3746_19</text>
</g>
<!-- 3746_12x3746_99&#45;&gt;3746_19 -->
<g id="edge46" class="edge"><title>3746_12x3746_99&#45;&gt;3746_19</title>
<path fill="none" stroke="black" d="M1664.61,-70.0937C1657.31,-65.9641 1627.22,-48.935 1603.15,-35.3115"/>
<polygon fill="black" stroke="black" points="1604.7,-32.1702 1594.27,-30.291 1601.25,-38.2623 1604.7,-32.1702"/>
</g>
<!-- 3746_18 -->
<g id="node49" class="node"><title>3746_18</title>
<polygon fill="#66cdaa" stroke="black" points="1698.25,-27.7635 1634.25,-27.7635 1634.25,-4.76346 1698.25,-4.76346 1698.25,-27.7635"/>
<text text-anchor="middle" x="1666.25" y="-12.5635" font-family="Times,serif" font-size="14.00">3746_18</text>
</g>
<!-- 3746_12x3746_99&#45;&gt;3746_18 -->
<g id="edge47" class="edge"><title>3746_12x3746_99&#45;&gt;3746_18</title>
<path fill="none" stroke="black" d="M1666.25,-68.4338C1666.25,-62.9657 1666.25,-49.8005 1666.25,-38.1938"/>
<polygon fill="black" stroke="black" points="1669.75,-37.8452 1666.25,-27.8453 1662.75,-37.8453 1669.75,-37.8452"/>
</g>
<!-- 3746_16 -->
<g id="node50" class="node"><title>3746_16</title>
<ellipse fill="#66cdaa" stroke="black" cx="1761.25" cy="-16.2635" rx="45.011" ry="16.0303"/>
<text text-anchor="middle" x="1761.25" y="-12.5635" font-family="Times,serif" font-size="14.00">3746_16</text>
</g>
<!-- 3746_12x3746_99&#45;&gt;3746_16 -->
<g id="edge48" class="edge"><title>3746_12x3746_99&#45;&gt;3746_16</title>
<path fill="none" stroke="black" d="M1667.9,-70.0937C1675.2,-65.9641 1705.29,-48.935 1729.36,-35.3115"/>
<polygon fill="black" stroke="black" points="1731.26,-38.2623 1738.24,-30.291 1727.81,-32.1702 1731.26,-38.2623"/>
</g>
<!-- 3746_14 -->
<g id="node51" class="node"><title>3746_14</title>
<ellipse fill="#66cdaa" stroke="black" cx="1870.25" cy="-16.2635" rx="45.011" ry="16.0303"/>
<text text-anchor="middle" x="1870.25" y="-12.5635" font-family="Times,serif" font-size="14.00">3746_14</text>
</g>
<!-- 3746_12x3746_99&#45;&gt;3746_14 -->
<g id="edge49" class="edge"><title>3746_12x3746_99&#45;&gt;3746_14</title>
<path fill="none" stroke="black" d="M1668.36,-70.4982C1681.66,-67.1544 1755.38,-48.5687 1815.25,-32.5269 1818.81,-31.5732 1822.5,-30.5745 1826.2,-29.564"/>
<polygon fill="black" stroke="black" points="1827.24,-32.9087 1835.95,-26.8843 1825.38,-26.1588 1827.24,-32.9087"/>
</g>
<!-- 3746_22 -->
<g id="node52" class="node"><title>3746_22</title>
<ellipse fill="#66cdaa" stroke="black" cx="1979.25" cy="-16.2635" rx="45.011" ry="16.0303"/>
<text text-anchor="middle" x="1979.25" y="-12.5635" font-family="Times,serif" font-size="14.00">3746_22</text>
</g>
<!-- 3746_12x3746_99&#45;&gt;3746_22 -->
<g id="edge50" class="edge"><title>3746_12x3746_99&#45;&gt;3746_22</title>
<path fill="none" stroke="black" d="M1668.82,-70.7655C1688.66,-68.718 1819.71,-54.7461 1924.25,-32.5269 1928.07,-31.7157 1932.02,-30.793 1935.96,-29.8122"/>
<polygon fill="black" stroke="black" points="1936.88,-33.1891 1945.68,-27.2852 1935.12,-26.4144 1936.88,-33.1891"/>
</g>
<!-- 3746_46 -->
<g id="node33" class="node"><title>3746_46</title>
<ellipse fill="#66cdaa" stroke="black" cx="926.255" cy="-127.79" rx="45.011" ry="16.0303"/>
<text text-anchor="middle" x="926.255" y="-124.09" font-family="Times,serif" font-size="14.00">3746_46</text>
</g>
<!-- 3746_5x3746_46 -->
<g id="node34" class="node"><title>3746_5x3746_46</title>
<polygon fill="none" stroke="black" points="834.255,-75.5269 830.755,-72.0269 834.255,-68.5269 837.755,-72.0269 834.255,-75.5269"/>
</g>
<!-- 3746_46&#45;&gt;3746_5x3746_46 -->
<g id="edge28" class="edge"><title>3746_46&#45;&gt;3746_5x3746_46</title>
<path fill="none" stroke="black" d="M903.513,-113.501C884.89,-102.617 859.363,-87.7 845.075,-79.3499"/>
<polygon fill="black" stroke="black" points="846.513,-76.1367 836.113,-74.113 842.981,-82.1804 846.513,-76.1367"/>
</g>
<!-- 3746_47 -->
<g id="node35" class="node"><title>3746_47</title>
<ellipse fill="white" stroke="black" cx="863.255" cy="-16.2635" rx="45.011" ry="16.0303"/>
<text text-anchor="middle" x="863.255" y="-12.5635" font-family="Times,serif" font-size="14.00">3746_47</text>
</g>
<!-- 3746_5x3746_46&#45;&gt;3746_47 -->
<g id="edge29" class="edge"><title>3746_5x3746_46&#45;&gt;3746_47</title>
<path fill="none" stroke="black" d="M835.22,-69.2381C837.624,-64.7813 844.13,-52.7199 850.269,-41.3374"/>
<polygon fill="black" stroke="black" points="853.362,-42.9755 855.029,-32.5126 847.202,-39.6523 853.362,-42.9755"/>
</g>
<!-- 3746_48 -->
<g id="node36" class="node"><title>3746_48</title>
<polygon fill="#66cdaa" stroke="black" points="718.255,-27.7635 654.255,-27.7635 654.255,-4.76346 718.255,-4.76346 718.255,-27.7635"/>
<text text-anchor="middle" x="686.255" y="-12.5635" font-family="Times,serif" font-size="14.00">3746_48</text>
</g>
<!-- 3746_5x3746_46&#45;&gt;3746_48 -->
<g id="edge30" class="edge"><title>3746_5x3746_46&#45;&gt;3746_48</title>
<path fill="none" stroke="black" d="M832.212,-70.3012C821.375,-66.4501 769.525,-47.9991 727.255,-32.5269 726.221,-32.1484 725.172,-31.7637 724.114,-31.3749"/>
<polygon fill="black" stroke="black" points="725.064,-27.9948 714.471,-27.814 722.639,-34.5614 725.064,-27.9948"/>
</g>
<!-- 3746_49 -->
<g id="node37" class="node"><title>3746_49</title>
<polygon fill="#66cdaa" stroke="black" points="800.255,-27.7635 736.255,-27.7635 736.255,-4.76346 800.255,-4.76346 800.255,-27.7635"/>
<text text-anchor="middle" x="768.255" y="-12.5635" font-family="Times,serif" font-size="14.00">3746_49</text>
</g>
<!-- 3746_5x3746_46&#45;&gt;3746_49 -->
<g id="edge31" class="edge"><title>3746_5x3746_46&#45;&gt;3746_49</title>
<path fill="none" stroke="black" d="M832.623,-69.6979C826.707,-64.8785 805.866,-47.9017 789.482,-34.5549"/>
<polygon fill="black" stroke="black" points="791.386,-31.592 781.423,-27.9899 786.965,-37.0193 791.386,-31.592"/>
</g>
<!-- 3746_99&#45;&gt;3746_12x3746_99 -->
<g id="edge33" class="edge"><title>3746_99&#45;&gt;3746_12x3746_99</title>
<path fill="none" stroke="black" d="M1666.25,-111.24C1666.25,-103.134 1666.25,-93.3455 1666.25,-85.7049"/>
<polygon fill="black" stroke="black" points="1669.75,-85.5501 1666.25,-75.5502 1662.75,-85.5502 1669.75,-85.5501"/>
</g>
<!-- 3746_7&#45;&gt;3746_25x3746_7 -->
<g id="edge35" class="edge"><title>3746_7&#45;&gt;3746_25x3746_7</title>
<path fill="none" stroke="black" d="M2030.87,-122.881C2139.6,-111.872 2444.7,-80.9808 2510.6,-74.308"/>
<polygon fill="black" stroke="black" points="2511.28,-77.7572 2520.88,-73.2675 2510.58,-70.7928 2511.28,-77.7572"/>
</g>
<!-- 3746_11&#45;&gt;3746_11x3746_34 -->
<g id="edge38" class="edge"><title>3746_11&#45;&gt;3746_11x3746_34</title>
<path fill="none" stroke="black" d="M399.255,-116.168C399.255,-107.416 399.255,-94.9805 399.255,-85.7075"/>
<polygon fill="black" stroke="black" points="402.755,-85.6655 399.255,-75.6656 395.755,-85.6656 402.755,-85.6655"/>
</g>
<!-- 3746_5&#45;&gt;3746_5x3746_46 -->
<g id="edge43" class="edge"><title>3746_5&#45;&gt;3746_5x3746_46</title>
<path fill="none" stroke="black" d="M834.255,-116.168C834.255,-107.416 834.255,-94.9805 834.255,-85.7075"/>
<polygon fill="black" stroke="black" points="837.755,-85.6655 834.255,-75.6656 830.755,-85.6656 837.755,-85.6655"/>
</g>
<!-- 3746_12 -->
<g id="node53" class="node"><title>3746_12</title>
<polygon fill="#66cdaa" stroke="black" points="1353.25,-139.29 1289.25,-139.29 1289.25,-116.29 1353.25,-116.29 1353.25,-139.29"/>
<text text-anchor="middle" x="1321.25" y="-124.09" font-family="Times,serif" font-size="14.00">3746_12</text>
</g>
<!-- 3746_12&#45;&gt;3746_12x3746_99 -->
<g id="edge51" class="edge"><title>3746_12&#45;&gt;3746_12x3746_99</title>
<path fill="none" stroke="black" d="M1347,-116.181C1352,-114.416 1357.24,-112.761 1362.25,-111.527 1473.2,-84.2387 1611.94,-75.6402 1653.77,-73.5779"/>
<polygon fill="black" stroke="black" points="1653.95,-77.0732 1663.78,-73.1226 1653.63,-70.0804 1653.95,-77.0732"/>
</g>
</g>
</svg>
