<?xml version="1.0" encoding="UTF-8" standalone="no"?>
<!DOCTYPE svg PUBLIC "-//W3C//DTD SVG 1.1//EN"
 "http://www.w3.org/Graphics/SVG/1.1/DTD/svg11.dtd">
<!-- Generated by graphviz version 2.38.0 (20140413.2041)
 -->
<!-- Title: %3 Pages: 1 -->
<svg width="2356pt" height="391pt"
 viewBox="0.00 0.00 2355.81 391.11" xmlns="http://www.w3.org/2000/svg" xmlns:xlink="http://www.w3.org/1999/xlink">
<g id="graph0" class="graph" transform="scale(1 1) rotate(0) translate(4 387.108)">
<title>%3</title>
<polygon fill="white" stroke="none" points="-4,4 -4,-387.108 2351.81,-387.108 2351.81,4 -4,4"/>
<!-- 738_12 -->
<g id="node1" class="node"><title>738_12</title>
<ellipse fill="#66cdaa" stroke="black" cx="40.3051" cy="-16.2635" rx="40.1111" ry="16.0303"/>
<text text-anchor="middle" x="40.3051" y="-12.5635" font-family="Times,serif" font-size="14.00">738_12</text>
</g>
<!-- 738_10x738_99 -->
<g id="node2" class="node"><title>738_10x738_99</title>
<polygon fill="none" stroke="black" points="170.305,-75.5269 166.805,-72.0269 170.305,-68.5269 173.805,-72.0269 170.305,-75.5269"/>
</g>
<!-- 738_10x738_99&#45;&gt;738_12 -->
<g id="edge1" class="edge"><title>738_10x738_99&#45;&gt;738_12</title>
<path fill="none" stroke="black" d="M168.467,-70.2669C158.594,-66.1837 111.021,-46.5089 76.7153,-32.3215"/>
<polygon fill="black" stroke="black" points="78.0122,-29.0704 67.4337,-28.4829 75.337,-35.539 78.0122,-29.0704"/>
</g>
<!-- 738_13 -->
<g id="node42" class="node"><title>738_13</title>
<polygon fill="#66cdaa" stroke="black" points="155.805,-27.7635 98.8051,-27.7635 98.8051,-4.76346 155.805,-4.76346 155.805,-27.7635"/>
<text text-anchor="middle" x="127.305" y="-12.5635" font-family="Times,serif" font-size="14.00">738_13</text>
</g>
<!-- 738_10x738_99&#45;&gt;738_13 -->
<g id="edge36" class="edge"><title>738_10x738_99&#45;&gt;738_13</title>
<path fill="none" stroke="black" d="M168.874,-69.2381C164.714,-64.0368 152.271,-48.4782 142.074,-35.7288"/>
<polygon fill="black" stroke="black" points="144.786,-33.5168 135.807,-27.8934 139.32,-37.889 144.786,-33.5168"/>
</g>
<!-- 738_11 -->
<g id="node43" class="node"><title>738_11</title>
<ellipse fill="#66cdaa" stroke="black" cx="214.305" cy="-16.2635" rx="40.1111" ry="16.0303"/>
<text text-anchor="middle" x="214.305" y="-12.5635" font-family="Times,serif" font-size="14.00">738_11</text>
</g>
<!-- 738_10x738_99&#45;&gt;738_11 -->
<g id="edge37" class="edge"><title>738_10x738_99&#45;&gt;738_11</title>
<path fill="none" stroke="black" d="M171.769,-69.2381C175.573,-64.5897 186.148,-51.6688 195.801,-39.8738"/>
<polygon fill="black" stroke="black" points="198.617,-41.9589 202.242,-32.0034 193.2,-37.5255 198.617,-41.9589"/>
</g>
<!-- 738_5 -->
<g id="node3" class="node"><title>738_5</title>
<ellipse fill="white" stroke="black" cx="537.305" cy="-127.79" rx="35.2113" ry="16.0303"/>
<text text-anchor="middle" x="537.305" y="-124.09" font-family="Times,serif" font-size="14.00">738_5</text>
</g>
<!-- 738_22x738_5 -->
<g id="node5" class="node"><title>738_22x738_5</title>
<polygon fill="none" stroke="black" points="537.305,-75.5269 533.805,-72.0269 537.305,-68.5269 540.805,-72.0269 537.305,-75.5269"/>
</g>
<!-- 738_5&#45;&gt;738_22x738_5 -->
<g id="edge3" class="edge"><title>738_5&#45;&gt;738_22x738_5</title>
<path fill="none" stroke="black" d="M537.305,-111.24C537.305,-103.134 537.305,-93.3455 537.305,-85.7049"/>
<polygon fill="black" stroke="black" points="540.805,-85.5501 537.305,-75.5502 533.805,-85.5502 540.805,-85.5501"/>
</g>
<!-- 738_1x738_2 -->
<g id="node4" class="node"><title>738_1x738_2</title>
<polygon fill="none" stroke="black" points="1299.31,-195.054 1295.81,-191.554 1299.31,-188.054 1302.81,-191.554 1299.31,-195.054"/>
</g>
<!-- 738_1x738_2&#45;&gt;738_5 -->
<g id="edge2" class="edge"><title>738_1x738_2&#45;&gt;738_5</title>
<path fill="none" stroke="black" d="M1296.79,-190.486C1256.07,-189.368 731.908,-174.471 581.305,-144.054 578.482,-143.484 575.592,-142.776 572.709,-141.982"/>
<polygon fill="black" stroke="black" points="573.627,-138.602 563.04,-139.013 571.572,-145.294 573.627,-138.602"/>
</g>
<!-- 738_7 -->
<g id="node47" class="node"><title>738_7</title>
<polygon fill="#66cdaa" stroke="black" points="1115.31,-139.29 1065.31,-139.29 1065.31,-116.29 1115.31,-116.29 1115.31,-139.29"/>
<text text-anchor="middle" x="1090.31" y="-124.09" font-family="Times,serif" font-size="14.00">738_7</text>
</g>
<!-- 738_1x738_2&#45;&gt;738_7 -->
<g id="edge42" class="edge"><title>738_1x738_2&#45;&gt;738_7</title>
<path fill="none" stroke="black" d="M1296.96,-189.86C1280.36,-184.955 1179.75,-155.224 1125.28,-139.127"/>
<polygon fill="black" stroke="black" points="1125.94,-135.672 1115.36,-136.194 1123.96,-142.385 1125.94,-135.672"/>
</g>
<!-- 738_99 -->
<g id="node48" class="node"><title>738_99</title>
<ellipse fill="dimgrey" stroke="black" cx="310.305" cy="-127.79" rx="40.1111" ry="16.0303"/>
<text text-anchor="middle" x="310.305" y="-124.09" font-family="Times,serif" font-size="14.00">738_99</text>
</g>
<!-- 738_1x738_2&#45;&gt;738_99 -->
<g id="edge44" class="edge"><title>738_1x738_2&#45;&gt;738_99</title>
<path fill="none" stroke="black" d="M1296.87,-190.437C1260.97,-188.72 835.854,-168.217 493.305,-144.054 447.812,-140.845 396.02,-136.456 359.173,-133.208"/>
<polygon fill="black" stroke="black" points="359.465,-129.72 349.195,-132.324 358.847,-136.693 359.465,-129.72"/>
</g>
<!-- 738_3 -->
<g id="node49" class="node"><title>738_3</title>
<ellipse fill="dimgrey" stroke="black" cx="1299.31" cy="-127.79" rx="35.2113" ry="16.0303"/>
<text text-anchor="middle" x="1299.31" y="-124.09" font-family="Times,serif" font-size="14.00">738_3</text>
</g>
<!-- 738_1x738_2&#45;&gt;738_3 -->
<g id="edge46" class="edge"><title>738_1x738_2&#45;&gt;738_3</title>
<path fill="none" stroke="black" d="M1299.31,-187.9C1299.31,-182.033 1299.31,-167.433 1299.31,-154.212"/>
<polygon fill="black" stroke="black" points="1302.81,-154.097 1299.31,-144.097 1295.81,-154.097 1302.81,-154.097"/>
</g>
<!-- 738_6 -->
<g id="node50" class="node"><title>738_6</title>
<ellipse fill="white" stroke="black" cx="1594.31" cy="-127.79" rx="35.2113" ry="16.0303"/>
<text text-anchor="middle" x="1594.31" y="-124.09" font-family="Times,serif" font-size="14.00">738_6</text>
</g>
<!-- 738_1x738_2&#45;&gt;738_6 -->
<g id="edge48" class="edge"><title>738_1x738_2&#45;&gt;738_6</title>
<path fill="none" stroke="black" d="M1301.8,-190.229C1321.09,-187.686 1448.5,-170.38 1549.31,-144.054 1552.07,-143.331 1554.92,-142.523 1557.77,-141.668"/>
<polygon fill="black" stroke="black" points="1558.89,-144.983 1567.37,-138.626 1556.78,-138.31 1558.89,-144.983"/>
</g>
<!-- 738_4 -->
<g id="node61" class="node"><title>738_4</title>
<ellipse fill="dimgrey" stroke="black" cx="1938.31" cy="-127.79" rx="35.2113" ry="16.0303"/>
<text text-anchor="middle" x="1938.31" y="-124.09" font-family="Times,serif" font-size="14.00">738_4</text>
</g>
<!-- 738_1x738_2&#45;&gt;738_4 -->
<g id="edge60" class="edge"><title>738_1x738_2&#45;&gt;738_4</title>
<path fill="none" stroke="black" d="M1302.24,-190.604C1335.68,-191.115 1648.1,-194.416 1893.31,-144.054 1896.28,-143.443 1899.33,-142.692 1902.37,-141.854"/>
<polygon fill="black" stroke="black" points="1903.4,-145.198 1911.96,-138.946 1901.37,-138.5 1903.4,-145.198"/>
</g>
<!-- 738_27 -->
<g id="node6" class="node"><title>738_27</title>
<ellipse fill="#66cdaa" stroke="black" cx="313.305" cy="-16.2635" rx="40.1111" ry="16.0303"/>
<text text-anchor="middle" x="313.305" y="-12.5635" font-family="Times,serif" font-size="14.00">738_27</text>
</g>
<!-- 738_22x738_5&#45;&gt;738_27 -->
<g id="edge4" class="edge"><title>738_22x738_5&#45;&gt;738_27</title>
<path fill="none" stroke="black" d="M534.834,-70.5563C519.226,-67.5677 432.726,-50.7729 363.305,-32.5269 360.145,-31.6963 356.885,-30.7975 353.616,-29.8661"/>
<polygon fill="black" stroke="black" points="354.45,-26.4636 343.87,-27.0095 352.482,-33.181 354.45,-26.4636"/>
</g>
<!-- 738_26 -->
<g id="node7" class="node"><title>738_26</title>
<ellipse fill="#66cdaa" stroke="black" cx="412.305" cy="-16.2635" rx="40.1111" ry="16.0303"/>
<text text-anchor="middle" x="412.305" y="-12.5635" font-family="Times,serif" font-size="14.00">738_26</text>
</g>
<!-- 738_22x738_5&#45;&gt;738_26 -->
<g id="edge5" class="edge"><title>738_22x738_5&#45;&gt;738_26</title>
<path fill="none" stroke="black" d="M535.538,-70.2669C526.112,-66.2128 480.95,-46.7882 448.021,-32.6253"/>
<polygon fill="black" stroke="black" points="449.243,-29.3407 438.674,-28.6047 446.477,-35.7711 449.243,-29.3407"/>
</g>
<!-- 738_25 -->
<g id="node8" class="node"><title>738_25</title>
<polygon fill="#66cdaa" stroke="black" points="527.805,-27.7635 470.805,-27.7635 470.805,-4.76346 527.805,-4.76346 527.805,-27.7635"/>
<text text-anchor="middle" x="499.305" y="-12.5635" font-family="Times,serif" font-size="14.00">738_25</text>
</g>
<!-- 738_22x738_5&#45;&gt;738_25 -->
<g id="edge6" class="edge"><title>738_22x738_5&#45;&gt;738_25</title>
<path fill="none" stroke="black" d="M536.041,-69.2381C532.399,-64.0863 521.576,-48.7736 512.614,-36.0939"/>
<polygon fill="black" stroke="black" points="515.448,-34.0394 506.818,-27.8934 509.732,-38.0797 515.448,-34.0394"/>
</g>
<!-- 738_24 -->
<g id="node9" class="node"><title>738_24</title>
<polygon fill="#66cdaa" stroke="black" points="602.805,-27.7635 545.805,-27.7635 545.805,-4.76346 602.805,-4.76346 602.805,-27.7635"/>
<text text-anchor="middle" x="574.305" y="-12.5635" font-family="Times,serif" font-size="14.00">738_24</text>
</g>
<!-- 738_22x738_5&#45;&gt;738_24 -->
<g id="edge7" class="edge"><title>738_22x738_5&#45;&gt;738_24</title>
<path fill="none" stroke="black" d="M538.536,-69.2381C542.048,-64.1359 552.418,-49.0672 561.094,-36.4603"/>
<polygon fill="black" stroke="black" points="564.204,-38.1154 566.99,-27.8934 558.437,-34.1469 564.204,-38.1154"/>
</g>
<!-- 738_23 -->
<g id="node10" class="node"><title>738_23</title>
<polygon fill="#66cdaa" stroke="black" points="677.805,-27.7635 620.805,-27.7635 620.805,-4.76346 677.805,-4.76346 677.805,-27.7635"/>
<text text-anchor="middle" x="649.305" y="-12.5635" font-family="Times,serif" font-size="14.00">738_23</text>
</g>
<!-- 738_22x738_5&#45;&gt;738_23 -->
<g id="edge8" class="edge"><title>738_22x738_5&#45;&gt;738_23</title>
<path fill="none" stroke="black" d="M539.249,-70.0937C548.528,-65.6397 589.066,-46.1799 618.248,-32.1719"/>
<polygon fill="black" stroke="black" points="619.769,-35.3242 627.269,-27.8413 616.74,-29.0136 619.769,-35.3242"/>
</g>
<!-- 738_22 -->
<g id="node11" class="node"><title>738_22</title>
<polygon fill="#66cdaa" stroke="black" points="647.805,-139.29 590.805,-139.29 590.805,-116.29 647.805,-116.29 647.805,-139.29"/>
<text text-anchor="middle" x="619.305" y="-124.09" font-family="Times,serif" font-size="14.00">738_22</text>
</g>
<!-- 738_22&#45;&gt;738_22x738_5 -->
<g id="edge9" class="edge"><title>738_22&#45;&gt;738_22x738_5</title>
<path fill="none" stroke="black" d="M603.105,-116.168C586.605,-105.351 561.523,-88.9054 547.575,-79.7602"/>
<polygon fill="black" stroke="black" points="549.434,-76.7941 539.152,-74.238 545.596,-82.6481 549.434,-76.7941"/>
</g>
<!-- 738_35 -->
<g id="node12" class="node"><title>738_35</title>
<ellipse fill="#66cdaa" stroke="black" cx="953.305" cy="-127.79" rx="40.1111" ry="16.0303"/>
<text text-anchor="middle" x="953.305" y="-124.09" font-family="Times,serif" font-size="14.00">738_35</text>
</g>
<!-- 738_7x738_35 -->
<g id="node13" class="node"><title>738_7x738_35</title>
<polygon fill="none" stroke="black" points="953.305,-75.5269 949.805,-72.0269 953.305,-68.5269 956.805,-72.0269 953.305,-75.5269"/>
</g>
<!-- 738_35&#45;&gt;738_7x738_35 -->
<g id="edge10" class="edge"><title>738_35&#45;&gt;738_7x738_35</title>
<path fill="none" stroke="black" d="M953.305,-111.24C953.305,-103.134 953.305,-93.3455 953.305,-85.7049"/>
<polygon fill="black" stroke="black" points="956.805,-85.5501 953.305,-75.5502 949.805,-85.5502 956.805,-85.5501"/>
</g>
<!-- 738_37 -->
<g id="node14" class="node"><title>738_37</title>
<polygon fill="#66cdaa" stroke="black" points="752.805,-27.7635 695.805,-27.7635 695.805,-4.76346 752.805,-4.76346 752.805,-27.7635"/>
<text text-anchor="middle" x="724.305" y="-12.5635" font-family="Times,serif" font-size="14.00">738_37</text>
</g>
<!-- 738_7x738_35&#45;&gt;738_37 -->
<g id="edge11" class="edge"><title>738_7x738_35&#45;&gt;738_37</title>
<path fill="none" stroke="black" d="M950.996,-70.725C934.922,-68.5899 838.145,-55.1935 762.305,-32.5269 760.9,-32.107 759.475,-31.6557 758.042,-31.1808"/>
<polygon fill="black" stroke="black" points="759.195,-27.8761 748.601,-27.786 756.827,-34.4633 759.195,-27.8761"/>
</g>
<!-- 738_39 -->
<g id="node15" class="node"><title>738_39</title>
<ellipse fill="white" stroke="black" cx="811.305" cy="-16.2635" rx="40.1111" ry="16.0303"/>
<text text-anchor="middle" x="811.305" y="-12.5635" font-family="Times,serif" font-size="14.00">738_39</text>
</g>
<!-- 738_7x738_35&#45;&gt;738_39 -->
<g id="edge12" class="edge"><title>738_7x738_35&#45;&gt;738_39</title>
<path fill="none" stroke="black" d="M951.298,-70.2669C940.343,-66.1194 886.901,-45.8852 849.317,-31.6552"/>
<polygon fill="black" stroke="black" points="850.254,-28.2677 839.662,-28 847.775,-34.8141 850.254,-28.2677"/>
</g>
<!-- 738_38 -->
<g id="node19" class="node"><title>738_38</title>
<ellipse fill="dimgrey" stroke="black" cx="910.305" cy="-16.2635" rx="40.1111" ry="16.0303"/>
<text text-anchor="middle" x="910.305" y="-12.5635" font-family="Times,serif" font-size="14.00">738_38</text>
</g>
<!-- 738_7x738_35&#45;&gt;738_38 -->
<g id="edge15" class="edge"><title>738_7x738_35&#45;&gt;738_38</title>
<path fill="none" stroke="black" d="M951.874,-69.2381C948.157,-64.5897 937.822,-51.6688 928.389,-39.8738"/>
<polygon fill="black" stroke="black" points="931.073,-37.6268 922.094,-32.0034 925.607,-41.999 931.073,-37.6268"/>
</g>
<!-- 738_36 -->
<g id="node20" class="node"><title>738_36</title>
<polygon fill="dimgrey" stroke="black" points="1025.81,-27.7635 968.805,-27.7635 968.805,-4.76346 1025.81,-4.76346 1025.81,-27.7635"/>
<text text-anchor="middle" x="997.305" y="-12.5635" font-family="Times,serif" font-size="14.00">738_36</text>
</g>
<!-- 738_7x738_35&#45;&gt;738_36 -->
<g id="edge16" class="edge"><title>738_7x738_35&#45;&gt;738_36</title>
<path fill="none" stroke="black" d="M954.769,-69.2381C959.026,-64.0368 971.759,-48.4782 982.193,-35.7288"/>
<polygon fill="black" stroke="black" points="984.981,-37.8489 988.606,-27.8934 979.564,-33.4155 984.981,-37.8489"/>
</g>
<!-- 738_40 -->
<g id="node58" class="node"><title>738_40</title>
<ellipse fill="white" stroke="black" cx="1084.31" cy="-16.2635" rx="40.1111" ry="16.0303"/>
<text text-anchor="middle" x="1084.31" y="-12.5635" font-family="Times,serif" font-size="14.00">738_40</text>
</g>
<!-- 738_7x738_35&#45;&gt;738_40 -->
<g id="edge57" class="edge"><title>738_7x738_35&#45;&gt;738_40</title>
<path fill="none" stroke="black" d="M955.157,-70.2669C965.134,-66.1721 1013.32,-46.3964 1047.91,-32.2"/>
<polygon fill="black" stroke="black" points="1049.34,-35.3962 1057.26,-28.3615 1046.68,-28.9204 1049.34,-35.3962"/>
</g>
<!-- 738_49 -->
<g id="node16" class="node"><title>738_49</title>
<ellipse fill="#66cdaa" stroke="black" cx="2064.31" cy="-366.844" rx="40.1111" ry="16.0303"/>
<text text-anchor="middle" x="2064.31" y="-363.144" font-family="Times,serif" font-size="14.00">738_49</text>
</g>
<!-- 738_48x738_49 -->
<g id="node17" class="node"><title>738_48x738_49</title>
<polygon fill="none" stroke="black" points="2107.31,-314.581 2103.81,-311.081 2107.31,-307.581 2110.81,-311.081 2107.31,-314.581"/>
</g>
<!-- 738_49&#45;&gt;738_48x738_49 -->
<g id="edge13" class="edge"><title>738_49&#45;&gt;738_48x738_49</title>
<path fill="none" stroke="black" d="M2076.06,-351.153C2083.61,-341.709 2093.2,-329.719 2099.75,-321.527"/>
<polygon fill="black" stroke="black" points="2102.53,-323.656 2106.04,-313.661 2097.06,-319.284 2102.53,-323.656"/>
</g>
<!-- 738_41 -->
<g id="node21" class="node"><title>738_41</title>
<polygon fill="#66cdaa" stroke="black" points="1961.81,-266.817 1904.81,-266.817 1904.81,-243.817 1961.81,-243.817 1961.81,-266.817"/>
<text text-anchor="middle" x="1933.31" y="-251.617" font-family="Times,serif" font-size="14.00">738_41</text>
</g>
<!-- 738_48x738_49&#45;&gt;738_41 -->
<g id="edge17" class="edge"><title>738_48x738_49&#45;&gt;738_41</title>
<path fill="none" stroke="black" d="M2105.03,-309.534C2091.93,-306.361 2024.72,-289.811 1971.31,-271.581 1970.26,-271.225 1969.21,-270.856 1968.14,-270.477"/>
<polygon fill="black" stroke="black" points="1969.1,-267.1 1958.51,-266.876 1966.65,-273.656 1969.1,-267.1"/>
</g>
<!-- 738_42 -->
<g id="node23" class="node"><title>738_42</title>
<polygon fill="#66cdaa" stroke="black" points="2135.81,-266.817 2078.81,-266.817 2078.81,-243.817 2135.81,-243.817 2135.81,-266.817"/>
<text text-anchor="middle" x="2107.31" y="-251.617" font-family="Times,serif" font-size="14.00">738_42</text>
</g>
<!-- 738_48x738_49&#45;&gt;738_42 -->
<g id="edge19" class="edge"><title>738_48x738_49&#45;&gt;738_42</title>
<path fill="none" stroke="black" d="M2107.31,-307.488C2107.31,-302.02 2107.31,-288.854 2107.31,-277.248"/>
<polygon fill="black" stroke="black" points="2110.81,-276.899 2107.31,-266.899 2103.81,-276.899 2110.81,-276.899"/>
</g>
<!-- 738_43 -->
<g id="node24" class="node"><title>738_43</title>
<polygon fill="#66cdaa" stroke="black" points="2192.81,-203.054 2135.81,-203.054 2135.81,-180.054 2192.81,-180.054 2192.81,-203.054"/>
<text text-anchor="middle" x="2164.31" y="-187.854" font-family="Times,serif" font-size="14.00">738_43</text>
</g>
<!-- 738_48x738_49&#45;&gt;738_43 -->
<g id="edge20" class="edge"><title>738_48x738_49&#45;&gt;738_43</title>
<path fill="none" stroke="black" d="M2109.08,-308.853C2115.17,-304.53 2135.45,-289.31 2145.31,-271.581 2155.39,-253.443 2160.16,-230.065 2162.39,-213.453"/>
<polygon fill="black" stroke="black" points="2165.91,-213.513 2163.56,-203.18 2158.95,-212.718 2165.91,-213.513"/>
</g>
<!-- 738_44 -->
<g id="node26" class="node"><title>738_44</title>
<ellipse fill="#66cdaa" stroke="black" cx="2232.31" cy="-255.317" rx="40.1111" ry="16.0303"/>
<text text-anchor="middle" x="2232.31" y="-251.617" font-family="Times,serif" font-size="14.00">738_44</text>
</g>
<!-- 738_48x738_49&#45;&gt;738_44 -->
<g id="edge22" class="edge"><title>738_48x738_49&#45;&gt;738_44</title>
<path fill="none" stroke="black" d="M2109.07,-309.321C2118.5,-305.267 2163.66,-285.842 2196.59,-271.679"/>
<polygon fill="black" stroke="black" points="2198.13,-274.825 2205.94,-267.659 2195.37,-268.395 2198.13,-274.825"/>
</g>
<!-- 738_2 -->
<g id="node46" class="node"><title>738_2</title>
<ellipse fill="#66cdaa" stroke="black" cx="1648.31" cy="-255.317" rx="35.2113" ry="16.0303"/>
<text text-anchor="middle" x="1648.31" y="-251.617" font-family="Times,serif" font-size="14.00">738_2</text>
</g>
<!-- 738_48x738_49&#45;&gt;738_2 -->
<g id="edge40" class="edge"><title>738_48x738_49&#45;&gt;738_2</title>
<path fill="none" stroke="black" d="M2104.84,-309.791C2075.92,-306.405 1800.85,-274.185 1692.17,-261.455"/>
<polygon fill="black" stroke="black" points="1692.53,-257.973 1682.19,-260.286 1691.71,-264.926 1692.53,-257.973"/>
</g>
<!-- 738_48 -->
<g id="node18" class="node"><title>738_48</title>
<polygon fill="#66cdaa" stroke="black" points="2179.81,-378.344 2122.81,-378.344 2122.81,-355.344 2179.81,-355.344 2179.81,-378.344"/>
<text text-anchor="middle" x="2151.31" y="-363.144" font-family="Times,serif" font-size="14.00">738_48</text>
</g>
<!-- 738_48&#45;&gt;738_48x738_49 -->
<g id="edge14" class="edge"><title>738_48&#45;&gt;738_48x738_49</title>
<path fill="none" stroke="black" d="M2142.61,-355.222C2134.61,-345.439 2122.83,-331.054 2115.12,-321.627"/>
<polygon fill="black" stroke="black" points="2117.59,-319.123 2108.55,-313.601 2112.17,-323.557 2117.59,-319.123"/>
</g>
<!-- 738_41x738_52 -->
<g id="node22" class="node"><title>738_41x738_52</title>
<polygon fill="none" stroke="black" points="2020.31,-195.054 2016.81,-191.554 2020.31,-188.054 2023.81,-191.554 2020.31,-195.054"/>
</g>
<!-- 738_41&#45;&gt;738_41x738_52 -->
<g id="edge18" class="edge"><title>738_41&#45;&gt;738_41x738_52</title>
<path fill="none" stroke="black" d="M1948.46,-243.559C1966.15,-231 1994.92,-210.576 2010.13,-199.778"/>
<polygon fill="black" stroke="black" points="2012.58,-202.328 2018.71,-193.685 2008.53,-196.62 2012.58,-202.328"/>
</g>
<!-- 738_51 -->
<g id="node53" class="node"><title>738_51</title>
<polygon fill="#66cdaa" stroke="black" points="2048.81,-139.29 1991.81,-139.29 1991.81,-116.29 2048.81,-116.29 2048.81,-139.29"/>
<text text-anchor="middle" x="2020.31" y="-124.09" font-family="Times,serif" font-size="14.00">738_51</text>
</g>
<!-- 738_41x738_52&#45;&gt;738_51 -->
<g id="edge52" class="edge"><title>738_41x738_52&#45;&gt;738_51</title>
<path fill="none" stroke="black" d="M2020.31,-187.9C2020.31,-181.35 2020.31,-163.911 2020.31,-149.662"/>
<polygon fill="black" stroke="black" points="2023.81,-149.619 2020.31,-139.619 2016.81,-149.619 2023.81,-149.619"/>
</g>
<!-- 738_50 -->
<g id="node54" class="node"><title>738_50</title>
<polygon fill="#66cdaa" stroke="black" points="2123.81,-139.29 2066.81,-139.29 2066.81,-116.29 2123.81,-116.29 2123.81,-139.29"/>
<text text-anchor="middle" x="2095.31" y="-124.09" font-family="Times,serif" font-size="14.00">738_50</text>
</g>
<!-- 738_41x738_52&#45;&gt;738_50 -->
<g id="edge53" class="edge"><title>738_41x738_52&#45;&gt;738_50</title>
<path fill="none" stroke="black" d="M2021.87,-189.264C2028.57,-183.746 2055.35,-161.692 2074.64,-145.81"/>
<polygon fill="black" stroke="black" points="2076.87,-148.506 2082.36,-139.447 2072.42,-143.103 2076.87,-148.506"/>
</g>
<!-- 738_43x738_46 -->
<g id="node25" class="node"><title>738_43x738_46</title>
<polygon fill="none" stroke="black" points="2217.31,-75.5269 2213.81,-72.0269 2217.31,-68.5269 2220.81,-72.0269 2217.31,-75.5269"/>
</g>
<!-- 738_43&#45;&gt;738_43x738_46 -->
<g id="edge21" class="edge"><title>738_43&#45;&gt;738_43x738_46</title>
<path fill="none" stroke="black" d="M2165.21,-180.014C2166.9,-164.308 2171.52,-134.185 2183.31,-111.527 2189.56,-99.5121 2200.36,-88.2027 2208.11,-80.9905"/>
<polygon fill="black" stroke="black" points="2210.52,-83.5299 2215.73,-74.3015 2205.9,-78.2701 2210.52,-83.5299"/>
</g>
<!-- 738_47 -->
<g id="node30" class="node"><title>738_47</title>
<ellipse fill="#66cdaa" stroke="black" cx="2217.31" cy="-16.2635" rx="40.1111" ry="16.0303"/>
<text text-anchor="middle" x="2217.31" y="-12.5635" font-family="Times,serif" font-size="14.00">738_47</text>
</g>
<!-- 738_43x738_46&#45;&gt;738_47 -->
<g id="edge27" class="edge"><title>738_43x738_46&#45;&gt;738_47</title>
<path fill="none" stroke="black" d="M2217.31,-68.4338C2217.31,-63.6514 2217.31,-52.9811 2217.31,-42.6151"/>
<polygon fill="black" stroke="black" points="2220.81,-42.5799 2217.31,-32.58 2213.81,-42.58 2220.81,-42.5799"/>
</g>
<!-- 738_45x738_44 -->
<g id="node27" class="node"><title>738_45x738_44</title>
<polygon fill="none" stroke="black" points="2232.31,-195.054 2228.81,-191.554 2232.31,-188.054 2235.81,-191.554 2232.31,-195.054"/>
</g>
<!-- 738_44&#45;&gt;738_45x738_44 -->
<g id="edge23" class="edge"><title>738_44&#45;&gt;738_45x738_44</title>
<path fill="none" stroke="black" d="M2232.31,-239.05C2232.31,-228.717 2232.31,-215.22 2232.31,-205.431"/>
<polygon fill="black" stroke="black" points="2235.81,-205.277 2232.31,-195.277 2228.81,-205.277 2235.81,-205.277"/>
</g>
<!-- 738_46 -->
<g id="node29" class="node"><title>738_46</title>
<ellipse fill="#66cdaa" stroke="black" cx="2232.31" cy="-127.79" rx="40.1111" ry="16.0303"/>
<text text-anchor="middle" x="2232.31" y="-124.09" font-family="Times,serif" font-size="14.00">738_46</text>
</g>
<!-- 738_45x738_44&#45;&gt;738_46 -->
<g id="edge25" class="edge"><title>738_45x738_44&#45;&gt;738_46</title>
<path fill="none" stroke="black" d="M2232.31,-187.9C2232.31,-182.033 2232.31,-167.433 2232.31,-154.212"/>
<polygon fill="black" stroke="black" points="2235.81,-154.097 2232.31,-144.097 2228.81,-154.097 2235.81,-154.097"/>
</g>
<!-- 738_45 -->
<g id="node28" class="node"><title>738_45</title>
<polygon fill="#66cdaa" stroke="black" points="2347.81,-266.817 2290.81,-266.817 2290.81,-243.817 2347.81,-243.817 2347.81,-266.817"/>
<text text-anchor="middle" x="2319.31" y="-251.617" font-family="Times,serif" font-size="14.00">738_45</text>
</g>
<!-- 738_45&#45;&gt;738_45x738_44 -->
<g id="edge24" class="edge"><title>738_45&#45;&gt;738_45x738_44</title>
<path fill="none" stroke="black" d="M2304.15,-243.559C2286.46,-231 2257.69,-210.576 2242.48,-199.778"/>
<polygon fill="black" stroke="black" points="2244.08,-196.62 2233.9,-193.685 2240.03,-202.328 2244.08,-196.62"/>
</g>
<!-- 738_46&#45;&gt;738_43x738_46 -->
<g id="edge26" class="edge"><title>738_46&#45;&gt;738_43x738_46</title>
<path fill="none" stroke="black" d="M2228.05,-111.528C2225.71,-103.153 2222.85,-92.9163 2220.67,-85.1037"/>
<polygon fill="black" stroke="black" points="2223.98,-83.9094 2217.92,-75.2179 2217.23,-85.7906 2223.98,-83.9094"/>
</g>
<!-- 738_14 -->
<g id="node31" class="node"><title>738_14</title>
<polygon fill="#66cdaa" stroke="black" points="1245.81,-139.29 1188.81,-139.29 1188.81,-116.29 1245.81,-116.29 1245.81,-139.29"/>
<text text-anchor="middle" x="1217.31" y="-124.09" font-family="Times,serif" font-size="14.00">738_14</text>
</g>
<!-- 738_14x738_3 -->
<g id="node32" class="node"><title>738_14x738_3</title>
<polygon fill="none" stroke="black" points="1258.31,-75.5269 1254.81,-72.0269 1258.31,-68.5269 1261.81,-72.0269 1258.31,-75.5269"/>
</g>
<!-- 738_14&#45;&gt;738_14x738_3 -->
<g id="edge28" class="edge"><title>738_14&#45;&gt;738_14x738_3</title>
<path fill="none" stroke="black" d="M1225.41,-116.168C1232.87,-106.385 1243.84,-91.9999 1251.02,-82.5735"/>
<polygon fill="black" stroke="black" points="1253.86,-84.6216 1257.15,-74.5476 1248.3,-80.3768 1253.86,-84.6216"/>
</g>
<!-- 738_15 -->
<g id="node33" class="node"><title>738_15</title>
<polygon fill="#66cdaa" stroke="black" points="1199.81,-27.7635 1142.81,-27.7635 1142.81,-4.76346 1199.81,-4.76346 1199.81,-27.7635"/>
<text text-anchor="middle" x="1171.31" y="-12.5635" font-family="Times,serif" font-size="14.00">738_15</text>
</g>
<!-- 738_14x738_3&#45;&gt;738_15 -->
<g id="edge29" class="edge"><title>738_14x738_3&#45;&gt;738_15</title>
<path fill="none" stroke="black" d="M1256.49,-69.904C1248.94,-65.2388 1219.41,-46.9916 1197.22,-33.2795"/>
<polygon fill="black" stroke="black" points="1198.89,-30.1971 1188.55,-27.9175 1195.21,-36.1518 1198.89,-30.1971"/>
</g>
<!-- 738_17 -->
<g id="node40" class="node"><title>738_17</title>
<ellipse fill="#66cdaa" stroke="black" cx="1258.31" cy="-16.2635" rx="40.1111" ry="16.0303"/>
<text text-anchor="middle" x="1258.31" y="-12.5635" font-family="Times,serif" font-size="14.00">738_17</text>
</g>
<!-- 738_14x738_3&#45;&gt;738_17 -->
<g id="edge34" class="edge"><title>738_14x738_3&#45;&gt;738_17</title>
<path fill="none" stroke="black" d="M1258.31,-68.4338C1258.31,-63.6514 1258.31,-52.9811 1258.31,-42.6151"/>
<polygon fill="black" stroke="black" points="1261.81,-42.5799 1258.31,-32.58 1254.81,-42.58 1261.81,-42.5799"/>
</g>
<!-- 738_16 -->
<g id="node52" class="node"><title>738_16</title>
<ellipse fill="#66cdaa" stroke="black" cx="1357.31" cy="-16.2635" rx="40.1111" ry="16.0303"/>
<text text-anchor="middle" x="1357.31" y="-12.5635" font-family="Times,serif" font-size="14.00">738_16</text>
</g>
<!-- 738_14x738_3&#45;&gt;738_16 -->
<g id="edge51" class="edge"><title>738_14x738_3&#45;&gt;738_16</title>
<path fill="none" stroke="black" d="M1260.02,-70.0937C1267.75,-65.8962 1300.02,-48.3718 1325.3,-34.6427"/>
<polygon fill="black" stroke="black" points="1327.12,-37.6361 1334.24,-29.788 1323.78,-31.4847 1327.12,-37.6361"/>
</g>
<!-- 738_20 -->
<g id="node34" class="node"><title>738_20</title>
<polygon fill="#66cdaa" stroke="black" points="1994.81,-27.7635 1937.81,-27.7635 1937.81,-4.76346 1994.81,-4.76346 1994.81,-27.7635"/>
<text text-anchor="middle" x="1966.31" y="-12.5635" font-family="Times,serif" font-size="14.00">738_20</text>
</g>
<!-- 738_18x738_4 -->
<g id="node35" class="node"><title>738_18x738_4</title>
<polygon fill="none" stroke="black" points="1966.31,-75.5269 1962.81,-72.0269 1966.31,-68.5269 1969.81,-72.0269 1966.31,-75.5269"/>
</g>
<!-- 738_18x738_4&#45;&gt;738_20 -->
<g id="edge30" class="edge"><title>738_18x738_4&#45;&gt;738_20</title>
<path fill="none" stroke="black" d="M1966.31,-68.4338C1966.31,-62.9657 1966.31,-49.8005 1966.31,-38.1938"/>
<polygon fill="black" stroke="black" points="1969.81,-37.8452 1966.31,-27.8453 1962.81,-37.8453 1969.81,-37.8452"/>
</g>
<!-- 738_19 -->
<g id="node36" class="node"><title>738_19</title>
<polygon fill="#66cdaa" stroke="black" points="2069.81,-27.7635 2012.81,-27.7635 2012.81,-4.76346 2069.81,-4.76346 2069.81,-27.7635"/>
<text text-anchor="middle" x="2041.31" y="-12.5635" font-family="Times,serif" font-size="14.00">738_19</text>
</g>
<!-- 738_18x738_4&#45;&gt;738_19 -->
<g id="edge31" class="edge"><title>738_18x738_4&#45;&gt;738_19</title>
<path fill="none" stroke="black" d="M1967.87,-69.904C1974.29,-65.301 1999.16,-47.4758 2018.19,-33.8304"/>
<polygon fill="black" stroke="black" points="2020.35,-36.5883 2026.44,-27.9175 2016.28,-30.8991 2020.35,-36.5883"/>
</g>
<!-- 738_21 -->
<g id="node51" class="node"><title>738_21</title>
<polygon fill="white" stroke="black" points="2144.81,-27.7635 2087.81,-27.7635 2087.81,-4.76346 2144.81,-4.76346 2144.81,-27.7635"/>
<text text-anchor="middle" x="2116.31" y="-12.5635" font-family="Times,serif" font-size="14.00">738_21</text>
</g>
<!-- 738_18x738_4&#45;&gt;738_21 -->
<g id="edge50" class="edge"><title>738_18x738_4&#45;&gt;738_21</title>
<path fill="none" stroke="black" d="M1968.45,-70.3331C1979.86,-66.6447 2034.37,-48.8886 2078.31,-32.5269 2079.18,-32.2012 2080.06,-31.8688 2080.96,-31.5313"/>
<polygon fill="black" stroke="black" points="2082.56,-34.6636 2090.62,-27.7865 2080.03,-28.1366 2082.56,-34.6636"/>
</g>
<!-- 738_18 -->
<g id="node37" class="node"><title>738_18</title>
<polygon fill="#66cdaa" stroke="black" points="1884.81,-139.29 1827.81,-139.29 1827.81,-116.29 1884.81,-116.29 1884.81,-139.29"/>
<text text-anchor="middle" x="1856.31" y="-124.09" font-family="Times,serif" font-size="14.00">738_18</text>
</g>
<!-- 738_18&#45;&gt;738_18x738_4 -->
<g id="edge32" class="edge"><title>738_18&#45;&gt;738_18x738_4</title>
<path fill="none" stroke="black" d="M1878.04,-116.168C1901.35,-104.776 1937.43,-87.1421 1955.38,-78.3663"/>
<polygon fill="black" stroke="black" points="1956.95,-81.4972 1964.39,-73.9615 1953.87,-75.2082 1956.95,-81.4972"/>
</g>
<!-- 738_28 -->
<g id="node38" class="node"><title>738_28</title>
<polygon fill="#66cdaa" stroke="black" points="1540.81,-139.29 1483.81,-139.29 1483.81,-116.29 1540.81,-116.29 1540.81,-139.29"/>
<text text-anchor="middle" x="1512.31" y="-124.09" font-family="Times,serif" font-size="14.00">738_28</text>
</g>
<!-- 738_28x738_6 -->
<g id="node39" class="node"><title>738_28x738_6</title>
<polygon fill="none" stroke="black" points="1594.31,-75.5269 1590.81,-72.0269 1594.31,-68.5269 1597.81,-72.0269 1594.31,-75.5269"/>
</g>
<!-- 738_28&#45;&gt;738_28x738_6 -->
<g id="edge33" class="edge"><title>738_28&#45;&gt;738_28x738_6</title>
<path fill="none" stroke="black" d="M1528.51,-116.168C1545.01,-105.351 1570.09,-88.9054 1584.04,-79.7602"/>
<polygon fill="black" stroke="black" points="1586.01,-82.6481 1592.46,-74.238 1582.18,-76.7941 1586.01,-82.6481"/>
</g>
<!-- 738_29 -->
<g id="node41" class="node"><title>738_29</title>
<polygon fill="#66cdaa" stroke="black" points="1472.81,-27.7635 1415.81,-27.7635 1415.81,-4.76346 1472.81,-4.76346 1472.81,-27.7635"/>
<text text-anchor="middle" x="1444.31" y="-12.5635" font-family="Times,serif" font-size="14.00">738_29</text>
</g>
<!-- 738_28x738_6&#45;&gt;738_29 -->
<g id="edge35" class="edge"><title>738_28x738_6&#45;&gt;738_29</title>
<path fill="none" stroke="black" d="M1592.13,-70.3431C1580.61,-66.7052 1525.53,-49.1651 1481.31,-32.5269 1480.45,-32.2058 1479.59,-31.8775 1478.72,-31.5435"/>
<polygon fill="black" stroke="black" points="1479.88,-28.2412 1469.3,-27.8231 1477.31,-34.7518 1479.88,-28.2412"/>
</g>
<!-- 738_30 -->
<g id="node55" class="node"><title>738_30</title>
<polygon fill="#66cdaa" stroke="black" points="1547.81,-27.7635 1490.81,-27.7635 1490.81,-4.76346 1547.81,-4.76346 1547.81,-27.7635"/>
<text text-anchor="middle" x="1519.31" y="-12.5635" font-family="Times,serif" font-size="14.00">738_30</text>
</g>
<!-- 738_28x738_6&#45;&gt;738_30 -->
<g id="edge54" class="edge"><title>738_28x738_6&#45;&gt;738_30</title>
<path fill="none" stroke="black" d="M1592.74,-69.904C1586.32,-65.301 1561.45,-47.4758 1542.42,-33.8304"/>
<polygon fill="black" stroke="black" points="1544.33,-30.8991 1534.17,-27.9175 1540.26,-36.5883 1544.33,-30.8991"/>
</g>
<!-- 738_31 -->
<g id="node56" class="node"><title>738_31</title>
<polygon fill="#66cdaa" stroke="black" points="1622.81,-27.7635 1565.81,-27.7635 1565.81,-4.76346 1622.81,-4.76346 1622.81,-27.7635"/>
<text text-anchor="middle" x="1594.31" y="-12.5635" font-family="Times,serif" font-size="14.00">738_31</text>
</g>
<!-- 738_28x738_6&#45;&gt;738_31 -->
<g id="edge55" class="edge"><title>738_28x738_6&#45;&gt;738_31</title>
<path fill="none" stroke="black" d="M1594.31,-68.4338C1594.31,-62.9657 1594.31,-49.8005 1594.31,-38.1938"/>
<polygon fill="black" stroke="black" points="1597.81,-37.8452 1594.31,-27.8453 1590.81,-37.8453 1597.81,-37.8452"/>
</g>
<!-- 738_32 -->
<g id="node59" class="node"><title>738_32</title>
<ellipse fill="#66cdaa" stroke="black" cx="1681.31" cy="-16.2635" rx="40.1111" ry="16.0303"/>
<text text-anchor="middle" x="1681.31" y="-12.5635" font-family="Times,serif" font-size="14.00">738_32</text>
</g>
<!-- 738_28x738_6&#45;&gt;738_32 -->
<g id="edge58" class="edge"><title>738_28x738_6&#45;&gt;738_32</title>
<path fill="none" stroke="black" d="M1596.12,-69.904C1603.24,-65.5039 1629.91,-49.0213 1651.54,-35.6574"/>
<polygon fill="black" stroke="black" points="1653.46,-38.5854 1660.13,-30.351 1649.78,-32.6306 1653.46,-38.5854"/>
</g>
<!-- 738_33 -->
<g id="node60" class="node"><title>738_33</title>
<ellipse fill="#66cdaa" stroke="black" cx="1780.31" cy="-16.2635" rx="40.1111" ry="16.0303"/>
<text text-anchor="middle" x="1780.31" y="-12.5635" font-family="Times,serif" font-size="14.00">738_33</text>
</g>
<!-- 738_28x738_6&#45;&gt;738_33 -->
<g id="edge59" class="edge"><title>738_28x738_6&#45;&gt;738_33</title>
<path fill="none" stroke="black" d="M1596.55,-70.4091C1609.53,-66.8388 1676.16,-48.4537 1730.31,-32.5269 1733.4,-31.6177 1736.59,-30.6671 1739.8,-29.7042"/>
<polygon fill="black" stroke="black" points="1740.83,-33.0488 1749.4,-26.807 1738.81,-26.3478 1740.83,-33.0488"/>
</g>
<!-- 738_34 -->
<g id="node62" class="node"><title>738_34</title>
<ellipse fill="#66cdaa" stroke="black" cx="1879.31" cy="-16.2635" rx="40.1111" ry="16.0303"/>
<text text-anchor="middle" x="1879.31" y="-12.5635" font-family="Times,serif" font-size="14.00">738_34</text>
</g>
<!-- 738_28x738_6&#45;&gt;738_34 -->
<g id="edge62" class="edge"><title>738_28x738_6&#45;&gt;738_34</title>
<path fill="none" stroke="black" d="M1596.64,-70.7648C1614.74,-68.7119 1734.29,-54.7072 1829.31,-32.5269 1832.53,-31.7738 1835.85,-30.9252 1839.18,-30.0236"/>
<polygon fill="black" stroke="black" points="1840.42,-33.3102 1849.07,-27.2024 1838.5,-26.5785 1840.42,-33.3102"/>
</g>
<!-- 738_10 -->
<g id="node44" class="node"><title>738_10</title>
<polygon fill="#66cdaa" stroke="black" points="198.805,-139.29 141.805,-139.29 141.805,-116.29 198.805,-116.29 198.805,-139.29"/>
<text text-anchor="middle" x="170.305" y="-124.09" font-family="Times,serif" font-size="14.00">738_10</text>
</g>
<!-- 738_10&#45;&gt;738_10x738_99 -->
<g id="edge38" class="edge"><title>738_10&#45;&gt;738_10x738_99</title>
<path fill="none" stroke="black" d="M170.305,-116.168C170.305,-107.416 170.305,-94.9805 170.305,-85.7075"/>
<polygon fill="black" stroke="black" points="173.805,-85.6655 170.305,-75.6656 166.805,-85.6656 173.805,-85.6655"/>
</g>
<!-- 738_1 -->
<g id="node45" class="node"><title>738_1</title>
<polygon fill="#66cdaa" stroke="black" points="1324.31,-266.817 1274.31,-266.817 1274.31,-243.817 1324.31,-243.817 1324.31,-266.817"/>
<text text-anchor="middle" x="1299.31" y="-251.617" font-family="Times,serif" font-size="14.00">738_1</text>
</g>
<!-- 738_1&#45;&gt;738_1x738_2 -->
<g id="edge39" class="edge"><title>738_1&#45;&gt;738_1x738_2</title>
<path fill="none" stroke="black" d="M1299.31,-243.559C1299.31,-232.912 1299.31,-216.612 1299.31,-205.316"/>
<polygon fill="black" stroke="black" points="1302.81,-205.257 1299.31,-195.257 1295.81,-205.257 1302.81,-205.257"/>
</g>
<!-- 738_2&#45;&gt;738_1x738_2 -->
<g id="edge41" class="edge"><title>738_2&#45;&gt;738_1x738_2</title>
<path fill="none" stroke="black" d="M1615.79,-248.562C1541.23,-235.368 1360.64,-203.409 1311.71,-194.749"/>
<polygon fill="black" stroke="black" points="1312.05,-191.256 1301.6,-192.959 1310.83,-198.149 1312.05,-191.256"/>
</g>
<!-- 738_7&#45;&gt;738_7x738_35 -->
<g id="edge43" class="edge"><title>738_7&#45;&gt;738_7x738_35</title>
<path fill="none" stroke="black" d="M1065.18,-116.929C1035.21,-105.171 986.445,-86.0321 964.559,-77.4435"/>
<polygon fill="black" stroke="black" points="965.713,-74.1363 955.125,-73.7413 963.156,-80.6525 965.713,-74.1363"/>
</g>
<!-- 738_99&#45;&gt;738_10x738_99 -->
<g id="edge45" class="edge"><title>738_99&#45;&gt;738_10x738_99</title>
<path fill="none" stroke="black" d="M282.31,-116.04C251.626,-104.256 203.855,-85.9108 181.97,-77.5064"/>
<polygon fill="black" stroke="black" points="182.991,-74.1493 172.401,-73.8316 180.481,-80.684 182.991,-74.1493"/>
</g>
<!-- 738_3&#45;&gt;738_14x738_3 -->
<g id="edge47" class="edge"><title>738_3&#45;&gt;738_14x738_3</title>
<path fill="none" stroke="black" d="M1288.1,-112.099C1280.98,-102.76 1271.96,-90.9312 1265.72,-82.748"/>
<polygon fill="black" stroke="black" points="1268.36,-80.4361 1259.51,-74.6068 1262.79,-84.6809 1268.36,-80.4361"/>
</g>
<!-- 738_6&#45;&gt;738_28x738_6 -->
<g id="edge49" class="edge"><title>738_6&#45;&gt;738_28x738_6</title>
<path fill="none" stroke="black" d="M1594.31,-111.24C1594.31,-103.134 1594.31,-93.3455 1594.31,-85.7049"/>
<polygon fill="black" stroke="black" points="1597.81,-85.5501 1594.31,-75.5502 1590.81,-85.5502 1597.81,-85.5501"/>
</g>
<!-- 738_52 -->
<g id="node57" class="node"><title>738_52</title>
<ellipse fill="#66cdaa" stroke="black" cx="2020.31" cy="-255.317" rx="40.1111" ry="16.0303"/>
<text text-anchor="middle" x="2020.31" y="-251.617" font-family="Times,serif" font-size="14.00">738_52</text>
</g>
<!-- 738_52&#45;&gt;738_41x738_52 -->
<g id="edge56" class="edge"><title>738_52&#45;&gt;738_41x738_52</title>
<path fill="none" stroke="black" d="M2020.31,-239.05C2020.31,-228.717 2020.31,-215.22 2020.31,-205.431"/>
<polygon fill="black" stroke="black" points="2023.81,-205.277 2020.31,-195.277 2016.81,-205.277 2023.81,-205.277"/>
</g>
<!-- 738_4&#45;&gt;738_18x738_4 -->
<g id="edge61" class="edge"><title>738_4&#45;&gt;738_18x738_4</title>
<path fill="none" stroke="black" d="M1946.1,-111.814C1950.71,-102.963 1956.45,-91.9537 1960.63,-83.9279"/>
<polygon fill="black" stroke="black" points="1963.81,-85.389 1965.33,-74.903 1957.6,-82.1555 1963.81,-85.389"/>
</g>
</g>
</svg>
