<?xml version="1.0" encoding="UTF-8" standalone="no"?>
<!DOCTYPE svg PUBLIC "-//W3C//DTD SVG 1.1//EN"
 "http://www.w3.org/Graphics/SVG/1.1/DTD/svg11.dtd">
<!-- Generated by graphviz version 2.38.0 (20140413.2041)
 -->
<!-- Title: %3 Pages: 1 -->
<svg width="2122pt" height="264pt"
 viewBox="0.00 0.00 2121.61 263.58" xmlns="http://www.w3.org/2000/svg" xmlns:xlink="http://www.w3.org/1999/xlink">
<g id="graph0" class="graph" transform="scale(1 1) rotate(0) translate(4 259.581)">
<title>%3</title>
<polygon fill="white" stroke="none" points="-4,4 -4,-259.581 2117.61,-259.581 2117.61,4 -4,4"/>
<!-- 442_9 -->
<g id="node1" class="node"><title>442_9</title>
<ellipse fill="#66cdaa" stroke="black" cx="1103.31" cy="-127.79" rx="35.2113" ry="16.0303"/>
<text text-anchor="middle" x="1103.31" y="-124.09" font-family="Times,serif" font-size="14.00">442_9</text>
</g>
<!-- 442_1x442_2 -->
<g id="node2" class="node"><title>442_1x442_2</title>
<polygon fill="none" stroke="black" points="1014.31,-187.054 1010.81,-183.554 1014.31,-180.054 1017.81,-183.554 1014.31,-187.054"/>
</g>
<!-- 442_1x442_2&#45;&gt;442_9 -->
<g id="edge1" class="edge"><title>442_1x442_2&#45;&gt;442_9</title>
<path fill="none" stroke="black" d="M1016.16,-181.431C1023.58,-176.951 1051.73,-159.949 1074.05,-146.463"/>
<polygon fill="black" stroke="black" points="1076.13,-149.298 1082.88,-141.131 1072.51,-143.306 1076.13,-149.298"/>
</g>
<!-- 442_7 -->
<g id="node5" class="node"><title>442_7</title>
<ellipse fill="dimgrey" stroke="black" cx="256.305" cy="-127.79" rx="35.2113" ry="16.0303"/>
<text text-anchor="middle" x="256.305" y="-124.09" font-family="Times,serif" font-size="14.00">442_7</text>
</g>
<!-- 442_1x442_2&#45;&gt;442_7 -->
<g id="edge3" class="edge"><title>442_1x442_2&#45;&gt;442_7</title>
<path fill="none" stroke="black" d="M1011.34,-182.612C974.821,-183.281 607.816,-188.739 316.305,-144.054 309.381,-142.992 302.094,-141.482 295.077,-139.821"/>
<polygon fill="black" stroke="black" points="295.615,-136.347 285.064,-137.312 293.914,-143.137 295.615,-136.347"/>
</g>
<!-- 442_8 -->
<g id="node7" class="node"><title>442_8</title>
<polygon fill="#66cdaa" stroke="black" points="1370.31,-139.29 1320.31,-139.29 1320.31,-116.29 1370.31,-116.29 1370.31,-139.29"/>
<text text-anchor="middle" x="1345.31" y="-124.09" font-family="Times,serif" font-size="14.00">442_8</text>
</g>
<!-- 442_1x442_2&#45;&gt;442_8 -->
<g id="edge5" class="edge"><title>442_1x442_2&#45;&gt;442_8</title>
<path fill="none" stroke="black" d="M1017.01,-182.503C1039.15,-182.026 1192.72,-177.567 1311.31,-144.054 1312.53,-143.707 1313.77,-143.324 1315.01,-142.911"/>
<polygon fill="black" stroke="black" points="1316.35,-146.145 1324.44,-139.304 1313.85,-139.607 1316.35,-146.145"/>
</g>
<!-- 442_6 -->
<g id="node12" class="node"><title>442_6</title>
<ellipse fill="#66cdaa" stroke="black" cx="360.305" cy="-127.79" rx="35.2113" ry="16.0303"/>
<text text-anchor="middle" x="360.305" y="-124.09" font-family="Times,serif" font-size="14.00">442_6</text>
</g>
<!-- 442_1x442_2&#45;&gt;442_6 -->
<g id="edge10" class="edge"><title>442_1x442_2&#45;&gt;442_6</title>
<path fill="none" stroke="black" d="M1011.73,-182.489C973.961,-181.519 531.742,-169.684 404.305,-144.054 401.481,-143.486 398.591,-142.78 395.708,-141.987"/>
<polygon fill="black" stroke="black" points="396.626,-138.607 386.039,-139.02 394.572,-145.299 396.626,-138.607"/>
</g>
<!-- 442_99 -->
<g id="node15" class="node"><title>442_99</title>
<ellipse fill="dimgrey" stroke="black" cx="586.305" cy="-127.79" rx="40.1111" ry="16.0303"/>
<text text-anchor="middle" x="586.305" y="-124.09" font-family="Times,serif" font-size="14.00">442_99</text>
</g>
<!-- 442_1x442_2&#45;&gt;442_99 -->
<g id="edge13" class="edge"><title>442_1x442_2&#45;&gt;442_99</title>
<path fill="none" stroke="black" d="M1011.56,-182.486C986.209,-181.814 790.172,-175.706 635.305,-144.054 632.075,-143.394 628.755,-142.606 625.439,-141.74"/>
<polygon fill="black" stroke="black" points="626.169,-138.309 615.594,-138.963 624.268,-145.047 626.169,-138.309"/>
</g>
<!-- 442_5 -->
<g id="node17" class="node"><title>442_5</title>
<ellipse fill="dimgrey" stroke="black" cx="925.305" cy="-127.79" rx="35.2113" ry="16.0303"/>
<text text-anchor="middle" x="925.305" y="-124.09" font-family="Times,serif" font-size="14.00">442_5</text>
</g>
<!-- 442_1x442_2&#45;&gt;442_5 -->
<g id="edge15" class="edge"><title>442_1x442_2&#45;&gt;442_5</title>
<path fill="none" stroke="black" d="M1012.45,-181.431C1005.03,-176.951 976.884,-159.949 954.56,-146.463"/>
<polygon fill="black" stroke="black" points="956.103,-143.306 945.734,-141.131 952.484,-149.298 956.103,-143.306"/>
</g>
<!-- 442_4 -->
<g id="node18" class="node"><title>442_4</title>
<ellipse fill="white" stroke="black" cx="1267.31" cy="-127.79" rx="35.2113" ry="16.0303"/>
<text text-anchor="middle" x="1267.31" y="-124.09" font-family="Times,serif" font-size="14.00">442_4</text>
</g>
<!-- 442_1x442_2&#45;&gt;442_4 -->
<g id="edge17" class="edge"><title>442_1x442_2&#45;&gt;442_4</title>
<path fill="none" stroke="black" d="M1016.82,-182.238C1034.34,-180.008 1139.83,-166.085 1223.31,-144.054 1225.93,-143.362 1228.62,-142.59 1231.31,-141.769"/>
<polygon fill="black" stroke="black" points="1232.54,-145.051 1240.98,-138.65 1230.39,-138.389 1232.54,-145.051"/>
</g>
<!-- 442_3 -->
<g id="node43" class="node"><title>442_3</title>
<ellipse fill="dimgrey" stroke="black" cx="1014.31" cy="-127.79" rx="35.2113" ry="16.0303"/>
<text text-anchor="middle" x="1014.31" y="-124.09" font-family="Times,serif" font-size="14.00">442_3</text>
</g>
<!-- 442_1x442_2&#45;&gt;442_3 -->
<g id="edge43" class="edge"><title>442_1x442_2&#45;&gt;442_3</title>
<path fill="none" stroke="black" d="M1014.31,-179.961C1014.31,-175.178 1014.31,-164.508 1014.31,-154.142"/>
<polygon fill="black" stroke="black" points="1017.81,-154.107 1014.31,-144.107 1010.81,-154.107 1017.81,-154.107"/>
</g>
<!-- 442_39 -->
<g id="node3" class="node"><title>442_39</title>
<ellipse fill="white" stroke="black" cx="1357.31" cy="-16.2635" rx="40.1111" ry="16.0303"/>
<text text-anchor="middle" x="1357.31" y="-12.5635" font-family="Times,serif" font-size="14.00">442_39</text>
</g>
<!-- 442_31x442_5 -->
<g id="node4" class="node"><title>442_31x442_5</title>
<polygon fill="none" stroke="black" points="977.305,-75.5269 973.805,-72.0269 977.305,-68.5269 980.805,-72.0269 977.305,-75.5269"/>
</g>
<!-- 442_31x442_5&#45;&gt;442_39 -->
<g id="edge2" class="edge"><title>442_31x442_5&#45;&gt;442_39</title>
<path fill="none" stroke="black" d="M979.701,-70.9194C1001.84,-69.8914 1173.04,-61.1992 1308.31,-32.5269 1311.49,-31.8525 1314.76,-31.0601 1318.03,-30.1971"/>
<polygon fill="black" stroke="black" points="1319.07,-33.5381 1327.74,-27.4436 1317.16,-26.8034 1319.07,-33.5381"/>
</g>
<!-- 442_33 -->
<g id="node14" class="node"><title>442_33</title>
<polygon fill="dimgrey" stroke="black" points="800.805,-27.7635 743.805,-27.7635 743.805,-4.76346 800.805,-4.76346 800.805,-27.7635"/>
<text text-anchor="middle" x="772.305" y="-12.5635" font-family="Times,serif" font-size="14.00">442_33</text>
</g>
<!-- 442_31x442_5&#45;&gt;442_33 -->
<g id="edge12" class="edge"><title>442_31x442_5&#45;&gt;442_33</title>
<path fill="none" stroke="black" d="M974.896,-70.6306C959.684,-68.0958 875.453,-53.5897 809.305,-32.5269 808.246,-32.1896 807.174,-31.8348 806.096,-31.4661"/>
<polygon fill="black" stroke="black" points="806.966,-28.0559 796.373,-27.865 804.535,-34.6202 806.966,-28.0559"/>
</g>
<!-- 442_35 -->
<g id="node21" class="node"><title>442_35</title>
<polygon fill="#66cdaa" stroke="black" points="875.805,-27.7635 818.805,-27.7635 818.805,-4.76346 875.805,-4.76346 875.805,-27.7635"/>
<text text-anchor="middle" x="847.305" y="-12.5635" font-family="Times,serif" font-size="14.00">442_35</text>
</g>
<!-- 442_31x442_5&#45;&gt;442_35 -->
<g id="edge20" class="edge"><title>442_31x442_5&#45;&gt;442_35</title>
<path fill="none" stroke="black" d="M975.467,-70.2669C965.453,-66.1254 916.654,-45.9436 882.253,-31.7168"/>
<polygon fill="black" stroke="black" points="883.555,-28.4678 872.977,-27.8804 880.88,-34.9365 883.555,-28.4678"/>
</g>
<!-- 442_36 -->
<g id="node23" class="node"><title>442_36</title>
<ellipse fill="white" stroke="black" cx="934.305" cy="-16.2635" rx="40.1111" ry="16.0303"/>
<text text-anchor="middle" x="934.305" y="-12.5635" font-family="Times,serif" font-size="14.00">442_36</text>
</g>
<!-- 442_31x442_5&#45;&gt;442_36 -->
<g id="edge22" class="edge"><title>442_31x442_5&#45;&gt;442_36</title>
<path fill="none" stroke="black" d="M975.874,-69.2381C972.157,-64.5897 961.822,-51.6688 952.389,-39.8738"/>
<polygon fill="black" stroke="black" points="955.073,-37.6268 946.094,-32.0034 949.607,-41.999 955.073,-37.6268"/>
</g>
<!-- 442_34 -->
<g id="node28" class="node"><title>442_34</title>
<polygon fill="#66cdaa" stroke="black" points="1049.81,-27.7635 992.805,-27.7635 992.805,-4.76346 1049.81,-4.76346 1049.81,-27.7635"/>
<text text-anchor="middle" x="1021.31" y="-12.5635" font-family="Times,serif" font-size="14.00">442_34</text>
</g>
<!-- 442_31x442_5&#45;&gt;442_34 -->
<g id="edge27" class="edge"><title>442_31x442_5&#45;&gt;442_34</title>
<path fill="none" stroke="black" d="M978.769,-69.2381C983.026,-64.0368 995.759,-48.4782 1006.19,-35.7288"/>
<polygon fill="black" stroke="black" points="1008.98,-37.8489 1012.61,-27.8934 1003.56,-33.4155 1008.98,-37.8489"/>
</g>
<!-- 442_32 -->
<g id="node29" class="node"><title>442_32</title>
<polygon fill="#66cdaa" stroke="black" points="1124.81,-27.7635 1067.81,-27.7635 1067.81,-4.76346 1124.81,-4.76346 1124.81,-27.7635"/>
<text text-anchor="middle" x="1096.31" y="-12.5635" font-family="Times,serif" font-size="14.00">442_32</text>
</g>
<!-- 442_31x442_5&#45;&gt;442_32 -->
<g id="edge28" class="edge"><title>442_31x442_5&#45;&gt;442_32</title>
<path fill="none" stroke="black" d="M979.371,-70.0937C989.272,-65.6204 1032.67,-46.0112 1063.71,-31.9902"/>
<polygon fill="black" stroke="black" points="1065.22,-35.1481 1072.89,-27.8413 1062.34,-28.769 1065.22,-35.1481"/>
</g>
<!-- 442_38 -->
<g id="node46" class="node"><title>442_38</title>
<ellipse fill="#66cdaa" stroke="black" cx="1183.31" cy="-16.2635" rx="40.1111" ry="16.0303"/>
<text text-anchor="middle" x="1183.31" y="-12.5635" font-family="Times,serif" font-size="14.00">442_38</text>
</g>
<!-- 442_31x442_5&#45;&gt;442_38 -->
<g id="edge46" class="edge"><title>442_31x442_5&#45;&gt;442_38</title>
<path fill="none" stroke="black" d="M979.516,-70.5289C993.486,-67.373 1070.92,-49.7346 1133.31,-32.5269 1136.45,-31.6582 1139.71,-30.7319 1142.97,-29.7815"/>
<polygon fill="black" stroke="black" points="1144.12,-33.0923 1152.71,-26.8912 1142.13,-26.3817 1144.12,-33.0923"/>
</g>
<!-- 442_37 -->
<g id="node52" class="node"><title>442_37</title>
<polygon fill="#66cdaa" stroke="black" points="1298.81,-27.7635 1241.81,-27.7635 1241.81,-4.76346 1298.81,-4.76346 1298.81,-27.7635"/>
<text text-anchor="middle" x="1270.31" y="-12.5635" font-family="Times,serif" font-size="14.00">442_37</text>
</g>
<!-- 442_31x442_5&#45;&gt;442_37 -->
<g id="edge52" class="edge"><title>442_31x442_5&#45;&gt;442_37</title>
<path fill="none" stroke="black" d="M979.864,-70.8671C999.663,-69.5847 1130.36,-60.2925 1232.31,-32.5269 1233.76,-32.1299 1235.24,-31.6937 1236.72,-31.2274"/>
<polygon fill="black" stroke="black" points="1238.19,-34.4223 1246.47,-27.8129 1235.88,-27.816 1238.19,-34.4223"/>
</g>
<!-- 442_23x442_7 -->
<g id="node6" class="node"><title>442_23x442_7</title>
<polygon fill="none" stroke="black" points="228.305,-75.5269 224.805,-72.0269 228.305,-68.5269 231.805,-72.0269 228.305,-75.5269"/>
</g>
<!-- 442_7&#45;&gt;442_23x442_7 -->
<g id="edge4" class="edge"><title>442_7&#45;&gt;442_23x442_7</title>
<path fill="none" stroke="black" d="M248.506,-111.814C243.896,-102.963 238.162,-91.9537 233.982,-83.9279"/>
<polygon fill="black" stroke="black" points="237.006,-82.1555 229.282,-74.903 230.797,-85.389 237.006,-82.1555"/>
</g>
<!-- 442_24 -->
<g id="node13" class="node"><title>442_24</title>
<ellipse fill="dimgrey" stroke="black" cx="313.305" cy="-16.2635" rx="40.1111" ry="16.0303"/>
<text text-anchor="middle" x="313.305" y="-12.5635" font-family="Times,serif" font-size="14.00">442_24</text>
</g>
<!-- 442_23x442_7&#45;&gt;442_24 -->
<g id="edge11" class="edge"><title>442_23x442_7&#45;&gt;442_24</title>
<path fill="none" stroke="black" d="M230.08,-69.904C237.006,-65.5234 262.865,-49.1676 283.942,-35.8358"/>
<polygon fill="black" stroke="black" points="286.033,-38.6546 292.614,-30.351 282.291,-32.7387 286.033,-38.6546"/>
</g>
<!-- 442_25 -->
<g id="node37" class="node"><title>442_25</title>
<ellipse fill="white" stroke="black" cx="40.3051" cy="-16.2635" rx="40.1111" ry="16.0303"/>
<text text-anchor="middle" x="40.3051" y="-12.5635" font-family="Times,serif" font-size="14.00">442_25</text>
</g>
<!-- 442_23x442_7&#45;&gt;442_25 -->
<g id="edge36" class="edge"><title>442_23x442_7&#45;&gt;442_25</title>
<path fill="none" stroke="black" d="M226.005,-70.4191C212.728,-66.9051 144.557,-48.7798 89.3051,-32.5269 86.4068,-31.6744 83.4167,-30.7799 80.4099,-29.8696"/>
<polygon fill="black" stroke="black" points="81.4282,-26.521 70.8417,-26.9399 79.3788,-33.2143 81.4282,-26.521"/>
</g>
<!-- 442_26 -->
<g id="node38" class="node"><title>442_26</title>
<polygon fill="white" stroke="black" points="155.805,-27.7635 98.8051,-27.7635 98.8051,-4.76346 155.805,-4.76346 155.805,-27.7635"/>
<text text-anchor="middle" x="127.305" y="-12.5635" font-family="Times,serif" font-size="14.00">442_26</text>
</g>
<!-- 442_23x442_7&#45;&gt;442_26 -->
<g id="edge37" class="edge"><title>442_23x442_7&#45;&gt;442_26</title>
<path fill="none" stroke="black" d="M226.552,-70.0937C218.293,-65.6975 182.572,-46.6829 156.342,-32.7203"/>
<polygon fill="black" stroke="black" points="157.648,-29.4506 147.177,-27.8413 154.359,-35.6297 157.648,-29.4506"/>
</g>
<!-- 442_27 -->
<g id="node39" class="node"><title>442_27</title>
<ellipse fill="white" stroke="black" cx="214.305" cy="-16.2635" rx="40.1111" ry="16.0303"/>
<text text-anchor="middle" x="214.305" y="-12.5635" font-family="Times,serif" font-size="14.00">442_27</text>
</g>
<!-- 442_23x442_7&#45;&gt;442_27 -->
<g id="edge38" class="edge"><title>442_23x442_7&#45;&gt;442_27</title>
<path fill="none" stroke="black" d="M227.704,-68.7168C226.498,-64.0865 223.665,-53.206 220.912,-42.6372"/>
<polygon fill="black" stroke="black" points="224.262,-41.6093 218.354,-32.8141 217.487,-43.3734 224.262,-41.6093"/>
</g>
<!-- 442_8x442_28 -->
<g id="node8" class="node"><title>442_8x442_28</title>
<polygon fill="none" stroke="black" points="1993.31,-75.5269 1989.81,-72.0269 1993.31,-68.5269 1996.81,-72.0269 1993.31,-75.5269"/>
</g>
<!-- 442_8&#45;&gt;442_8x442_28 -->
<g id="edge6" class="edge"><title>442_8&#45;&gt;442_8x442_28</title>
<path fill="none" stroke="black" d="M1365.74,-116.202C1370.11,-114.341 1374.78,-112.645 1379.31,-111.527 1499.13,-81.9134 1903.06,-74.3904 1980.43,-73.208"/>
<polygon fill="black" stroke="black" points="1980.76,-76.7038 1990.71,-73.0602 1980.66,-69.7045 1980.76,-76.7038"/>
</g>
<!-- 442_30 -->
<g id="node20" class="node"><title>442_30</title>
<ellipse fill="white" stroke="black" cx="2043.31" cy="-16.2635" rx="40.1111" ry="16.0303"/>
<text text-anchor="middle" x="2043.31" y="-12.5635" font-family="Times,serif" font-size="14.00">442_30</text>
</g>
<!-- 442_8x442_28&#45;&gt;442_30 -->
<g id="edge19" class="edge"><title>442_8x442_28&#45;&gt;442_30</title>
<path fill="none" stroke="black" d="M1994.54,-69.6979C1998.53,-65.4128 2011.45,-51.517 2022.99,-39.1069"/>
<polygon fill="black" stroke="black" points="2025.66,-41.3774 2029.91,-31.6711 2020.53,-36.6103 2025.66,-41.3774"/>
</g>
<!-- 442_29 -->
<g id="node41" class="node"><title>442_29</title>
<ellipse fill="white" stroke="black" cx="1944.31" cy="-16.2635" rx="40.1111" ry="16.0303"/>
<text text-anchor="middle" x="1944.31" y="-12.5635" font-family="Times,serif" font-size="14.00">442_29</text>
</g>
<!-- 442_8x442_28&#45;&gt;442_29 -->
<g id="edge41" class="edge"><title>442_8x442_28&#45;&gt;442_29</title>
<path fill="none" stroke="black" d="M1992.09,-69.6979C1988.19,-65.4128 1975.52,-51.517 1964.21,-39.1069"/>
<polygon fill="black" stroke="black" points="1966.76,-36.7044 1957.44,-31.6711 1961.59,-41.4196 1966.76,-36.7044"/>
</g>
<!-- 442_1 -->
<g id="node9" class="node"><title>442_1</title>
<polygon fill="#66cdaa" stroke="black" points="1343.31,-250.817 1293.31,-250.817 1293.31,-227.817 1343.31,-227.817 1343.31,-250.817"/>
<text text-anchor="middle" x="1318.31" y="-235.617" font-family="Times,serif" font-size="14.00">442_1</text>
</g>
<!-- 442_1&#45;&gt;442_1x442_2 -->
<g id="edge7" class="edge"><title>442_1&#45;&gt;442_1x442_2</title>
<path fill="none" stroke="black" d="M1293.17,-233.872C1231.02,-222.881 1071.9,-194.739 1026.54,-186.718"/>
<polygon fill="black" stroke="black" points="1027.09,-183.261 1016.64,-184.966 1025.87,-190.154 1027.09,-183.261"/>
</g>
<!-- 442_1x442_20 -->
<g id="node10" class="node"><title>442_1x442_20</title>
<polygon fill="none" stroke="black" points="1626.31,-187.054 1622.81,-183.554 1626.31,-180.054 1629.81,-183.554 1626.31,-187.054"/>
</g>
<!-- 442_1&#45;&gt;442_1x442_20 -->
<g id="edge8" class="edge"><title>442_1&#45;&gt;442_1x442_20</title>
<path fill="none" stroke="black" d="M1343.51,-233.918C1406.28,-222.961 1567.82,-194.762 1613.88,-186.723"/>
<polygon fill="black" stroke="black" points="1614.69,-190.135 1623.94,-184.967 1613.48,-183.239 1614.69,-190.135"/>
</g>
<!-- 442_18 -->
<g id="node11" class="node"><title>442_18</title>
<ellipse fill="dimgrey" stroke="black" cx="1428.31" cy="-127.79" rx="40.1111" ry="16.0303"/>
<text text-anchor="middle" x="1428.31" y="-124.09" font-family="Times,serif" font-size="14.00">442_18</text>
</g>
<!-- 442_1x442_20&#45;&gt;442_18 -->
<g id="edge9" class="edge"><title>442_1x442_20&#45;&gt;442_18</title>
<path fill="none" stroke="black" d="M1624.21,-182.044C1610.97,-178.814 1537.58,-160.803 1478.31,-144.054 1475.2,-143.178 1472,-142.251 1468.79,-141.305"/>
<polygon fill="black" stroke="black" points="1469.77,-137.945 1459.19,-138.438 1467.77,-144.653 1469.77,-137.945"/>
</g>
<!-- 442_16 -->
<g id="node26" class="node"><title>442_16</title>
<ellipse fill="#66cdaa" stroke="black" cx="1527.31" cy="-127.79" rx="40.1111" ry="16.0303"/>
<text text-anchor="middle" x="1527.31" y="-124.09" font-family="Times,serif" font-size="14.00">442_16</text>
</g>
<!-- 442_1x442_20&#45;&gt;442_16 -->
<g id="edge25" class="edge"><title>442_1x442_20&#45;&gt;442_16</title>
<path fill="none" stroke="black" d="M1624.59,-181.621C1616.86,-177.423 1584.59,-159.899 1559.31,-146.17"/>
<polygon fill="black" stroke="black" points="1560.83,-143.012 1550.37,-141.315 1557.49,-149.163 1560.83,-143.012"/>
</g>
<!-- 442_14 -->
<g id="node33" class="node"><title>442_14</title>
<ellipse fill="#66cdaa" stroke="black" cx="1626.31" cy="-127.79" rx="40.1111" ry="16.0303"/>
<text text-anchor="middle" x="1626.31" y="-124.09" font-family="Times,serif" font-size="14.00">442_14</text>
</g>
<!-- 442_1x442_20&#45;&gt;442_14 -->
<g id="edge32" class="edge"><title>442_1x442_20&#45;&gt;442_14</title>
<path fill="none" stroke="black" d="M1626.31,-179.961C1626.31,-175.178 1626.31,-164.508 1626.31,-154.142"/>
<polygon fill="black" stroke="black" points="1629.81,-154.107 1626.31,-144.107 1622.81,-154.107 1629.81,-154.107"/>
</g>
<!-- 442_17 -->
<g id="node45" class="node"><title>442_17</title>
<polygon fill="#66cdaa" stroke="black" points="1741.81,-139.29 1684.81,-139.29 1684.81,-116.29 1741.81,-116.29 1741.81,-139.29"/>
<text text-anchor="middle" x="1713.31" y="-124.09" font-family="Times,serif" font-size="14.00">442_17</text>
</g>
<!-- 442_1x442_20&#45;&gt;442_17 -->
<g id="edge45" class="edge"><title>442_1x442_20&#45;&gt;442_17</title>
<path fill="none" stroke="black" d="M1628.12,-181.431C1635.67,-176.766 1665.2,-158.519 1687.39,-144.806"/>
<polygon fill="black" stroke="black" points="1689.4,-147.679 1696.06,-139.444 1685.72,-141.724 1689.4,-147.679"/>
</g>
<!-- 442_15 -->
<g id="node53" class="node"><title>442_15</title>
<ellipse fill="#66cdaa" stroke="black" cx="1800.31" cy="-127.79" rx="40.1111" ry="16.0303"/>
<text text-anchor="middle" x="1800.31" y="-124.09" font-family="Times,serif" font-size="14.00">442_15</text>
</g>
<!-- 442_1x442_20&#45;&gt;442_15 -->
<g id="edge53" class="edge"><title>442_1x442_20&#45;&gt;442_15</title>
<path fill="none" stroke="black" d="M1628.37,-181.921C1640.27,-178.27 1701.42,-159.507 1751.31,-144.054 1754.06,-143.201 1756.9,-142.32 1759.76,-141.432"/>
<polygon fill="black" stroke="black" points="1760.96,-144.725 1769.47,-138.413 1758.88,-138.04 1760.96,-144.725"/>
</g>
<!-- 442_19 -->
<g id="node54" class="node"><title>442_19</title>
<ellipse fill="#66cdaa" stroke="black" cx="1899.31" cy="-127.79" rx="40.1111" ry="16.0303"/>
<text text-anchor="middle" x="1899.31" y="-124.09" font-family="Times,serif" font-size="14.00">442_19</text>
</g>
<!-- 442_1x442_20&#45;&gt;442_19 -->
<g id="edge54" class="edge"><title>442_1x442_20&#45;&gt;442_19</title>
<path fill="none" stroke="black" d="M1628.98,-182.221C1647.61,-179.879 1759.87,-165.337 1849.31,-144.054 1852.53,-143.287 1855.85,-142.428 1859.17,-141.52"/>
<polygon fill="black" stroke="black" points="1860.41,-144.805 1869.06,-138.687 1858.49,-138.076 1860.41,-144.805"/>
</g>
<!-- 442_10x442_99 -->
<g id="node16" class="node"><title>442_10x442_99</title>
<polygon fill="none" stroke="black" points="586.305,-75.5269 582.805,-72.0269 586.305,-68.5269 589.805,-72.0269 586.305,-75.5269"/>
</g>
<!-- 442_99&#45;&gt;442_10x442_99 -->
<g id="edge14" class="edge"><title>442_99&#45;&gt;442_10x442_99</title>
<path fill="none" stroke="black" d="M586.305,-111.24C586.305,-103.134 586.305,-93.3455 586.305,-85.7049"/>
<polygon fill="black" stroke="black" points="589.805,-85.5501 586.305,-75.5502 582.805,-85.5502 589.805,-85.5501"/>
</g>
<!-- 442_11 -->
<g id="node22" class="node"><title>442_11</title>
<ellipse fill="white" stroke="black" cx="685.305" cy="-16.2635" rx="40.1111" ry="16.0303"/>
<text text-anchor="middle" x="685.305" y="-12.5635" font-family="Times,serif" font-size="14.00">442_11</text>
</g>
<!-- 442_10x442_99&#45;&gt;442_11 -->
<g id="edge21" class="edge"><title>442_10x442_99&#45;&gt;442_11</title>
<path fill="none" stroke="black" d="M588.023,-70.0937C595.753,-65.8962 628.022,-48.3718 653.303,-34.6427"/>
<polygon fill="black" stroke="black" points="655.125,-37.6361 662.242,-29.788 651.784,-31.4847 655.125,-37.6361"/>
</g>
<!-- 442_45 -->
<g id="node31" class="node"><title>442_45</title>
<polygon fill="white" stroke="black" points="428.805,-27.7635 371.805,-27.7635 371.805,-4.76346 428.805,-4.76346 428.805,-27.7635"/>
<text text-anchor="middle" x="400.305" y="-12.5635" font-family="Times,serif" font-size="14.00">442_45</text>
</g>
<!-- 442_10x442_99&#45;&gt;442_45 -->
<g id="edge30" class="edge"><title>442_10x442_99&#45;&gt;442_45</title>
<path fill="none" stroke="black" d="M584.189,-70.5834C570.825,-67.76 496.808,-51.7985 438.305,-32.5269 437.258,-32.1821 436.199,-31.8231 435.133,-31.4529"/>
<polygon fill="black" stroke="black" points="436.079,-28.0715 425.485,-27.8987 433.659,-34.6399 436.079,-28.0715"/>
</g>
<!-- 442_13 -->
<g id="node32" class="node"><title>442_13</title>
<ellipse fill="white" stroke="black" cx="487.305" cy="-16.2635" rx="40.1111" ry="16.0303"/>
<text text-anchor="middle" x="487.305" y="-12.5635" font-family="Times,serif" font-size="14.00">442_13</text>
</g>
<!-- 442_10x442_99&#45;&gt;442_13 -->
<g id="edge31" class="edge"><title>442_10x442_99&#45;&gt;442_13</title>
<path fill="none" stroke="black" d="M584.587,-70.0937C576.857,-65.8962 544.588,-48.3718 519.307,-34.6427"/>
<polygon fill="black" stroke="black" points="520.826,-31.4847 510.368,-29.788 517.485,-37.6361 520.826,-31.4847"/>
</g>
<!-- 442_12 -->
<g id="node47" class="node"><title>442_12</title>
<ellipse fill="white" stroke="black" cx="586.305" cy="-16.2635" rx="40.1111" ry="16.0303"/>
<text text-anchor="middle" x="586.305" y="-12.5635" font-family="Times,serif" font-size="14.00">442_12</text>
</g>
<!-- 442_10x442_99&#45;&gt;442_12 -->
<g id="edge47" class="edge"><title>442_10x442_99&#45;&gt;442_12</title>
<path fill="none" stroke="black" d="M586.305,-68.4338C586.305,-63.6514 586.305,-52.9811 586.305,-42.6151"/>
<polygon fill="black" stroke="black" points="589.805,-42.5799 586.305,-32.58 582.805,-42.58 589.805,-42.5799"/>
</g>
<!-- 442_5&#45;&gt;442_31x442_5 -->
<g id="edge16" class="edge"><title>442_5&#45;&gt;442_31x442_5</title>
<path fill="none" stroke="black" d="M938.967,-112.665C948.484,-102.826 960.871,-90.0185 968.952,-81.6638"/>
<polygon fill="black" stroke="black" points="971.593,-83.9672 976.029,-74.3459 966.561,-79.1006 971.593,-83.9672"/>
</g>
<!-- 442_44x442_4 -->
<g id="node19" class="node"><title>442_44x442_4</title>
<polygon fill="none" stroke="black" points="1739.31,-75.5269 1735.81,-72.0269 1739.31,-68.5269 1742.81,-72.0269 1739.31,-75.5269"/>
</g>
<!-- 442_4&#45;&gt;442_44x442_4 -->
<g id="edge18" class="edge"><title>442_4&#45;&gt;442_44x442_4</title>
<path fill="none" stroke="black" d="M1293.53,-116.523C1299.31,-114.591 1305.46,-112.785 1311.31,-111.527 1472.34,-76.8989 1673.95,-73.3636 1726.38,-73.0463"/>
<polygon fill="black" stroke="black" points="1726.56,-76.5459 1736.55,-73.0182 1726.54,-69.5459 1726.56,-76.5459"/>
</g>
<!-- 442_21 -->
<g id="node24" class="node"><title>442_21</title>
<polygon fill="white" stroke="black" points="1805.81,-27.7635 1748.81,-27.7635 1748.81,-4.76346 1805.81,-4.76346 1805.81,-27.7635"/>
<text text-anchor="middle" x="1777.31" y="-12.5635" font-family="Times,serif" font-size="14.00">442_21</text>
</g>
<!-- 442_44x442_4&#45;&gt;442_21 -->
<g id="edge23" class="edge"><title>442_44x442_4&#45;&gt;442_21</title>
<path fill="none" stroke="black" d="M1740.57,-69.2381C1744.21,-64.0863 1755.03,-48.7736 1764,-36.0939"/>
<polygon fill="black" stroke="black" points="1766.88,-38.0797 1769.79,-27.8934 1761.16,-34.0394 1766.88,-38.0797"/>
</g>
<!-- 442_22 -->
<g id="node27" class="node"><title>442_22</title>
<polygon fill="dimgrey" stroke="black" points="1730.81,-27.7635 1673.81,-27.7635 1673.81,-4.76346 1730.81,-4.76346 1730.81,-27.7635"/>
<text text-anchor="middle" x="1702.31" y="-12.5635" font-family="Times,serif" font-size="14.00">442_22</text>
</g>
<!-- 442_44x442_4&#45;&gt;442_22 -->
<g id="edge26" class="edge"><title>442_44x442_4&#45;&gt;442_22</title>
<path fill="none" stroke="black" d="M1738.07,-69.2381C1734.56,-64.1359 1724.19,-49.0672 1715.52,-36.4603"/>
<polygon fill="black" stroke="black" points="1718.17,-34.1469 1709.62,-27.8934 1712.41,-38.1154 1718.17,-34.1469"/>
</g>
<!-- 442_10 -->
<g id="node25" class="node"><title>442_10</title>
<polygon fill="#66cdaa" stroke="black" points="701.805,-139.29 644.805,-139.29 644.805,-116.29 701.805,-116.29 701.805,-139.29"/>
<text text-anchor="middle" x="673.305" y="-124.09" font-family="Times,serif" font-size="14.00">442_10</text>
</g>
<!-- 442_10&#45;&gt;442_10x442_99 -->
<g id="edge24" class="edge"><title>442_10&#45;&gt;442_10x442_99</title>
<path fill="none" stroke="black" d="M656.117,-116.168C638.611,-105.351 612,-88.9054 597.201,-79.7602"/>
<polygon fill="black" stroke="black" points="598.612,-76.5176 588.265,-74.238 594.932,-82.4723 598.612,-76.5176"/>
</g>
<!-- 442_31 -->
<g id="node30" class="node"><title>442_31</title>
<polygon fill="#66cdaa" stroke="black" points="871.805,-139.29 814.805,-139.29 814.805,-116.29 871.805,-116.29 871.805,-139.29"/>
<text text-anchor="middle" x="843.305" y="-124.09" font-family="Times,serif" font-size="14.00">442_31</text>
</g>
<!-- 442_31&#45;&gt;442_31x442_5 -->
<g id="edge29" class="edge"><title>442_31&#45;&gt;442_31x442_5</title>
<path fill="none" stroke="black" d="M869.47,-116.279C873.435,-114.686 877.478,-113.063 881.305,-111.527 912.028,-99.196 948.288,-84.6584 966.177,-77.4876"/>
<polygon fill="black" stroke="black" points="967.495,-80.73 975.475,-73.7606 964.89,-74.2326 967.495,-80.73"/>
</g>
<!-- 442_44 -->
<g id="node34" class="node"><title>442_44</title>
<polygon fill="#66cdaa" stroke="black" points="2014.81,-139.29 1957.81,-139.29 1957.81,-116.29 2014.81,-116.29 2014.81,-139.29"/>
<text text-anchor="middle" x="1986.31" y="-124.09" font-family="Times,serif" font-size="14.00">442_44</text>
</g>
<!-- 442_44&#45;&gt;442_44x442_4 -->
<g id="edge34" class="edge"><title>442_44&#45;&gt;442_44x442_4</title>
<path fill="none" stroke="black" d="M1962.03,-116.206C1957.52,-114.48 1952.81,-112.833 1948.31,-111.527 1875.42,-90.407 1784.75,-78.3732 1751.92,-74.4574"/>
<polygon fill="black" stroke="black" points="1752.17,-70.9634 1741.83,-73.2986 1751.37,-77.9177 1752.17,-70.9634"/>
</g>
<!-- 442_40x442_41 -->
<g id="node35" class="node"><title>442_40x442_41</title>
<polygon fill="none" stroke="black" points="2029.31,-187.054 2025.81,-183.554 2029.31,-180.054 2032.81,-183.554 2029.31,-187.054"/>
</g>
<!-- 442_40x442_41&#45;&gt;442_44 -->
<g id="edge33" class="edge"><title>442_40x442_41&#45;&gt;442_44</title>
<path fill="none" stroke="black" d="M2027.87,-180.765C2023.71,-175.564 2011.27,-160.005 2001.07,-147.256"/>
<polygon fill="black" stroke="black" points="2003.79,-145.044 1994.81,-139.42 1998.32,-149.416 2003.79,-145.044"/>
</g>
<!-- 442_28 -->
<g id="node40" class="node"><title>442_28</title>
<ellipse fill="#66cdaa" stroke="black" cx="2073.31" cy="-127.79" rx="40.1111" ry="16.0303"/>
<text text-anchor="middle" x="2073.31" y="-124.09" font-family="Times,serif" font-size="14.00">442_28</text>
</g>
<!-- 442_40x442_41&#45;&gt;442_28 -->
<g id="edge39" class="edge"><title>442_40x442_41&#45;&gt;442_28</title>
<path fill="none" stroke="black" d="M2030.77,-180.765C2034.57,-176.117 2045.15,-163.196 2054.8,-151.401"/>
<polygon fill="black" stroke="black" points="2057.62,-153.486 2061.24,-143.53 2052.2,-149.052 2057.62,-153.486"/>
</g>
<!-- 442_23 -->
<g id="node36" class="node"><title>442_23</title>
<polygon fill="#66cdaa" stroke="black" points="470.805,-139.29 413.805,-139.29 413.805,-116.29 470.805,-116.29 470.805,-139.29"/>
<text text-anchor="middle" x="442.305" y="-124.09" font-family="Times,serif" font-size="14.00">442_23</text>
</g>
<!-- 442_23&#45;&gt;442_23x442_7 -->
<g id="edge35" class="edge"><title>442_23&#45;&gt;442_23x442_7</title>
<path fill="none" stroke="black" d="M417.581,-116.171C413.203,-114.489 408.654,-112.866 404.305,-111.527 344.163,-93.0116 269.85,-79.8198 240.784,-75.0196"/>
<polygon fill="black" stroke="black" points="241.256,-71.5507 230.827,-73.4156 240.143,-78.4616 241.256,-71.5507"/>
</g>
<!-- 442_28&#45;&gt;442_8x442_28 -->
<g id="edge40" class="edge"><title>442_28&#45;&gt;442_8x442_28</title>
<path fill="none" stroke="black" d="M2053.53,-113.501C2037.66,-102.835 2016.02,-88.2951 2003.47,-79.8587"/>
<polygon fill="black" stroke="black" points="2005.17,-76.786 1994.92,-74.113 2001.27,-82.5959 2005.17,-76.786"/>
</g>
<!-- 442_20 -->
<g id="node42" class="node"><title>442_20</title>
<ellipse fill="#66cdaa" stroke="black" cx="1626.31" cy="-239.317" rx="40.1111" ry="16.0303"/>
<text text-anchor="middle" x="1626.31" y="-235.617" font-family="Times,serif" font-size="14.00">442_20</text>
</g>
<!-- 442_20&#45;&gt;442_1x442_20 -->
<g id="edge42" class="edge"><title>442_20&#45;&gt;442_1x442_20</title>
<path fill="none" stroke="black" d="M1626.31,-222.767C1626.31,-214.661 1626.31,-204.872 1626.31,-197.232"/>
<polygon fill="black" stroke="black" points="1629.81,-197.077 1626.31,-187.077 1622.81,-197.077 1629.81,-197.077"/>
</g>
<!-- 442_42x442_3 -->
<g id="node44" class="node"><title>442_42x442_3</title>
<polygon fill="none" stroke="black" points="1185.31,-75.5269 1181.81,-72.0269 1185.31,-68.5269 1188.81,-72.0269 1185.31,-75.5269"/>
</g>
<!-- 442_3&#45;&gt;442_42x442_3 -->
<g id="edge44" class="edge"><title>442_3&#45;&gt;442_42x442_3</title>
<path fill="none" stroke="black" d="M1041.87,-117.294C1047.62,-115.353 1053.65,-113.349 1059.31,-111.527 1101.16,-98.0367 1151.22,-83.0936 1173.55,-76.4892"/>
<polygon fill="black" stroke="black" points="1174.62,-79.8229 1183.22,-73.6382 1172.64,-73.1085 1174.62,-79.8229"/>
</g>
<!-- 442_43 -->
<g id="node48" class="node"><title>442_43</title>
<ellipse fill="white" stroke="black" cx="1456.31" cy="-16.2635" rx="40.1111" ry="16.0303"/>
<text text-anchor="middle" x="1456.31" y="-12.5635" font-family="Times,serif" font-size="14.00">442_43</text>
</g>
<!-- 442_42x442_3&#45;&gt;442_43 -->
<g id="edge48" class="edge"><title>442_42x442_3&#45;&gt;442_43</title>
<path fill="none" stroke="black" d="M1187.96,-70.6917C1206.42,-68.3318 1317.66,-53.6918 1406.31,-32.5269 1409.53,-31.7576 1412.85,-30.8973 1416.17,-29.9877"/>
<polygon fill="black" stroke="black" points="1417.41,-33.2724 1426.06,-27.1525 1415.49,-26.5434 1417.41,-33.2724"/>
</g>
<!-- 442_42 -->
<g id="node49" class="node"><title>442_42</title>
<polygon fill="#66cdaa" stroke="black" points="1213.81,-139.29 1156.81,-139.29 1156.81,-116.29 1213.81,-116.29 1213.81,-139.29"/>
<text text-anchor="middle" x="1185.31" y="-124.09" font-family="Times,serif" font-size="14.00">442_42</text>
</g>
<!-- 442_42&#45;&gt;442_42x442_3 -->
<g id="edge49" class="edge"><title>442_42&#45;&gt;442_42x442_3</title>
<path fill="none" stroke="black" d="M1185.31,-116.168C1185.31,-107.416 1185.31,-94.9805 1185.31,-85.7075"/>
<polygon fill="black" stroke="black" points="1188.81,-85.6655 1185.31,-75.6656 1181.81,-85.6656 1188.81,-85.6655"/>
</g>
<!-- 442_41 -->
<g id="node50" class="node"><title>442_41</title>
<ellipse fill="#66cdaa" stroke="black" cx="2073.31" cy="-239.317" rx="40.1111" ry="16.0303"/>
<text text-anchor="middle" x="2073.31" y="-235.617" font-family="Times,serif" font-size="14.00">442_41</text>
</g>
<!-- 442_41&#45;&gt;442_40x442_41 -->
<g id="edge50" class="edge"><title>442_41&#45;&gt;442_40x442_41</title>
<path fill="none" stroke="black" d="M2061.28,-223.626C2053.55,-214.182 2043.74,-202.192 2037.04,-194"/>
<polygon fill="black" stroke="black" points="2039.64,-191.656 2030.6,-186.134 2034.22,-196.089 2039.64,-191.656"/>
</g>
<!-- 442_40 -->
<g id="node51" class="node"><title>442_40</title>
<polygon fill="#66cdaa" stroke="black" points="2014.81,-250.817 1957.81,-250.817 1957.81,-227.817 2014.81,-227.817 2014.81,-250.817"/>
<text text-anchor="middle" x="1986.31" y="-235.617" font-family="Times,serif" font-size="14.00">442_40</text>
</g>
<!-- 442_40&#45;&gt;442_40x442_41 -->
<g id="edge51" class="edge"><title>442_40&#45;&gt;442_40x442_41</title>
<path fill="none" stroke="black" d="M1994.8,-227.695C2002.63,-217.912 2014.13,-203.527 2021.67,-194.1"/>
<polygon fill="black" stroke="black" points="2024.58,-196.07 2028.09,-186.074 2019.11,-191.698 2024.58,-196.07"/>
</g>
<!-- 442_2 -->
<g id="node55" class="node"><title>442_2</title>
<ellipse fill="#66cdaa" stroke="black" cx="1014.31" cy="-239.317" rx="35.2113" ry="16.0303"/>
<text text-anchor="middle" x="1014.31" y="-235.617" font-family="Times,serif" font-size="14.00">442_2</text>
</g>
<!-- 442_2&#45;&gt;442_1x442_2 -->
<g id="edge55" class="edge"><title>442_2&#45;&gt;442_1x442_2</title>
<path fill="none" stroke="black" d="M1014.31,-222.767C1014.31,-214.661 1014.31,-204.872 1014.31,-197.232"/>
<polygon fill="black" stroke="black" points="1017.81,-197.077 1014.31,-187.077 1010.81,-197.077 1017.81,-197.077"/>
</g>
</g>
</svg>
