<?xml version="1.0" encoding="UTF-8" standalone="no"?>
<!DOCTYPE svg PUBLIC "-//W3C//DTD SVG 1.1//EN"
 "http://www.w3.org/Graphics/SVG/1.1/DTD/svg11.dtd">
<!-- Generated by graphviz version 2.38.0 (20140413.2041)
 -->
<!-- Title: %3 Pages: 1 -->
<svg width="1642pt" height="589pt"
 viewBox="0.00 0.00 1641.81 588.63" xmlns="http://www.w3.org/2000/svg" xmlns:xlink="http://www.w3.org/1999/xlink">
<g id="graph0" class="graph" transform="scale(1 1) rotate(0) translate(4 584.635)">
<title>%3</title>
<polygon fill="white" stroke="none" points="-4,4 -4,-584.635 1637.81,-584.635 1637.81,4 -4,4"/>
<!-- 336_1 -->
<g id="node1" class="node"><title>336_1</title>
<polygon fill="#66cdaa" stroke="black" points="1227.5,-352.817 1177.5,-352.817 1177.5,-329.817 1227.5,-329.817 1227.5,-352.817"/>
<text text-anchor="middle" x="1202.5" y="-337.617" font-family="Times,serif" font-size="14.00">336_1</text>
</g>
<!-- 336_1x336_2 -->
<g id="node3" class="node"><title>336_1x336_2</title>
<polygon fill="none" stroke="black" points="1027.5,-289.054 1024,-285.554 1027.5,-282.054 1031,-285.554 1027.5,-289.054"/>
</g>
<!-- 336_1&#45;&gt;336_1x336_2 -->
<g id="edge2" class="edge"><title>336_1&#45;&gt;336_1x336_2</title>
<path fill="none" stroke="black" d="M1180.39,-329.797C1176.47,-328.104 1172.4,-326.451 1168.5,-325.054 1121.93,-308.357 1064.52,-294.762 1039.78,-289.229"/>
<polygon fill="black" stroke="black" points="1040.39,-285.778 1029.87,-287.055 1038.89,-292.615 1040.39,-285.778"/>
</g>
<!-- 336_1x336_12 -->
<g id="node4" class="node"><title>336_1x336_12</title>
<polygon fill="none" stroke="black" points="1285.5,-289.054 1282,-285.554 1285.5,-282.054 1289,-285.554 1285.5,-289.054"/>
</g>
<!-- 336_1&#45;&gt;336_1x336_12 -->
<g id="edge3" class="edge"><title>336_1&#45;&gt;336_1x336_12</title>
<path fill="none" stroke="black" d="M1218.9,-329.695C1235.6,-318.877 1260.99,-302.432 1275.11,-293.287"/>
<polygon fill="black" stroke="black" points="1277.14,-296.139 1283.63,-287.765 1273.33,-290.264 1277.14,-296.139"/>
</g>
<!-- 336_31x336_32 -->
<g id="node2" class="node"><title>336_31x336_32</title>
<polygon fill="none" stroke="black" points="1202.5,-400.581 1199,-397.081 1202.5,-393.581 1206,-397.081 1202.5,-400.581"/>
</g>
<!-- 336_31x336_32&#45;&gt;336_1 -->
<g id="edge1" class="edge"><title>336_31x336_32&#45;&gt;336_1</title>
<path fill="none" stroke="black" d="M1202.5,-393.488C1202.5,-388.02 1202.5,-374.854 1202.5,-363.248"/>
<polygon fill="black" stroke="black" points="1206,-362.899 1202.5,-352.899 1199,-362.899 1206,-362.899"/>
</g>
<!-- 336_27 -->
<g id="node29" class="node"><title>336_27</title>
<ellipse fill="#66cdaa" stroke="black" cx="1119.5" cy="-341.317" rx="40.1111" ry="16.0303"/>
<text text-anchor="middle" x="1119.5" y="-337.617" font-family="Times,serif" font-size="14.00">336_27</text>
</g>
<!-- 336_31x336_32&#45;&gt;336_27 -->
<g id="edge27" class="edge"><title>336_31x336_32&#45;&gt;336_27</title>
<path fill="none" stroke="black" d="M1200.77,-394.958C1194,-390.577 1168.75,-374.221 1148.17,-360.89"/>
<polygon fill="black" stroke="black" points="1150,-357.904 1139.7,-355.405 1146.19,-363.779 1150,-357.904"/>
</g>
<!-- 336_35 -->
<g id="node48" class="node"><title>336_35</title>
<polygon fill="#66cdaa" stroke="black" points="1500,-352.817 1443,-352.817 1443,-329.817 1500,-329.817 1500,-352.817"/>
<text text-anchor="middle" x="1471.5" y="-337.617" font-family="Times,serif" font-size="14.00">336_35</text>
</g>
<!-- 336_31x336_32&#45;&gt;336_35 -->
<g id="edge47" class="edge"><title>336_31x336_32&#45;&gt;336_35</title>
<path fill="none" stroke="black" d="M1204.82,-395.887C1222.75,-394.35 1341.12,-383.502 1433.5,-357.581 1434.91,-357.185 1436.34,-356.753 1437.78,-356.295"/>
<polygon fill="black" stroke="black" points="1438.97,-359.587 1447.24,-352.966 1436.65,-352.984 1438.97,-359.587"/>
</g>
<!-- 336_5 -->
<g id="node5" class="node"><title>336_5</title>
<polygon fill="dimgrey" stroke="black" points="803.5,-241.29 753.5,-241.29 753.5,-218.29 803.5,-218.29 803.5,-241.29"/>
<text text-anchor="middle" x="778.5" y="-226.09" font-family="Times,serif" font-size="14.00">336_5</text>
</g>
<!-- 336_1x336_2&#45;&gt;336_5 -->
<g id="edge4" class="edge"><title>336_1x336_2&#45;&gt;336_5</title>
<path fill="none" stroke="black" d="M1024.89,-284.33C1006.71,-282.722 897.281,-272.24 812.5,-246.054 811.449,-245.729 810.388,-245.38 809.322,-245.012"/>
<polygon fill="black" stroke="black" points="810.365,-241.662 799.776,-241.294 807.824,-248.185 810.365,-241.662"/>
</g>
<!-- 336_3 -->
<g id="node7" class="node"><title>336_3</title>
<polygon fill="#66cdaa" stroke="black" points="1222.5,-241.29 1172.5,-241.29 1172.5,-218.29 1222.5,-218.29 1222.5,-241.29"/>
<text text-anchor="middle" x="1197.5" y="-226.09" font-family="Times,serif" font-size="14.00">336_3</text>
</g>
<!-- 336_1x336_2&#45;&gt;336_3 -->
<g id="edge6" class="edge"><title>336_1x336_2&#45;&gt;336_3</title>
<path fill="none" stroke="black" d="M1029.76,-284.029C1042.81,-280.976 1109.74,-264.986 1162.5,-246.054 1163.23,-245.794 1163.96,-245.525 1164.69,-245.251"/>
<polygon fill="black" stroke="black" points="1166.34,-248.364 1174.33,-241.41 1163.74,-241.861 1166.34,-248.364"/>
</g>
<!-- 336_4 -->
<g id="node8" class="node"><title>336_4</title>
<polygon fill="#66cdaa" stroke="black" points="735.5,-241.29 685.5,-241.29 685.5,-218.29 735.5,-218.29 735.5,-241.29"/>
<text text-anchor="middle" x="710.5" y="-226.09" font-family="Times,serif" font-size="14.00">336_4</text>
</g>
<!-- 336_1x336_2&#45;&gt;336_4 -->
<g id="edge7" class="edge"><title>336_1x336_2&#45;&gt;336_4</title>
<path fill="none" stroke="black" d="M1024.92,-284.483C1003.82,-283.848 857.485,-278.37 744.5,-246.054 743.442,-245.751 742.375,-245.422 741.305,-245.07"/>
<polygon fill="black" stroke="black" points="742.325,-241.713 731.734,-241.438 739.841,-248.258 742.325,-241.713"/>
</g>
<!-- 336_99 -->
<g id="node14" class="node"><title>336_99</title>
<ellipse fill="dimgrey" stroke="black" cx="1028.5" cy="-229.79" rx="40.1111" ry="16.0303"/>
<text text-anchor="middle" x="1028.5" y="-226.09" font-family="Times,serif" font-size="14.00">336_99</text>
</g>
<!-- 336_1x336_2&#45;&gt;336_99 -->
<g id="edge12" class="edge"><title>336_1x336_2&#45;&gt;336_99</title>
<path fill="none" stroke="black" d="M1027.55,-281.961C1027.64,-277.178 1027.84,-266.508 1028.03,-256.142"/>
<polygon fill="black" stroke="black" points="1031.53,-256.17 1028.22,-246.107 1024.53,-256.04 1031.53,-256.17"/>
</g>
<!-- 336_11 -->
<g id="node12" class="node"><title>336_11</title>
<polygon fill="#66cdaa" stroke="black" points="1401,-241.29 1344,-241.29 1344,-218.29 1401,-218.29 1401,-241.29"/>
<text text-anchor="middle" x="1372.5" y="-226.09" font-family="Times,serif" font-size="14.00">336_11</text>
</g>
<!-- 336_1x336_12&#45;&gt;336_11 -->
<g id="edge10" class="edge"><title>336_1x336_12&#45;&gt;336_11</title>
<path fill="none" stroke="black" d="M1287.32,-283.431C1294.87,-278.766 1324.39,-260.519 1346.58,-246.806"/>
<polygon fill="black" stroke="black" points="1348.59,-249.679 1355.26,-241.444 1344.91,-243.724 1348.59,-249.679"/>
</g>
<!-- 336_5x336_15 -->
<g id="node6" class="node"><title>336_5x336_15</title>
<polygon fill="none" stroke="black" points="636.5,-177.527 633,-174.027 636.5,-170.527 640,-174.027 636.5,-177.527"/>
</g>
<!-- 336_5&#45;&gt;336_5x336_15 -->
<g id="edge5" class="edge"><title>336_5&#45;&gt;336_5x336_15</title>
<path fill="none" stroke="black" d="M755.562,-218.195C751.883,-216.582 748.102,-214.975 744.5,-213.527 709.956,-199.642 668.241,-185.495 648.271,-178.881"/>
<polygon fill="black" stroke="black" points="649.175,-175.494 638.582,-175.7 646.992,-182.145 649.175,-175.494"/>
</g>
<!-- 336_22 -->
<g id="node23" class="node"><title>336_22</title>
<ellipse fill="#66cdaa" stroke="black" cx="289.5" cy="-118.263" rx="40.1111" ry="16.0303"/>
<text text-anchor="middle" x="289.5" y="-114.563" font-family="Times,serif" font-size="14.00">336_22</text>
</g>
<!-- 336_5x336_15&#45;&gt;336_22 -->
<g id="edge22" class="edge"><title>336_5x336_15&#45;&gt;336_22</title>
<path fill="none" stroke="black" d="M634.096,-172.87C613.213,-171.475 460.46,-160.637 339.5,-134.527 336.115,-133.796 332.628,-132.944 329.145,-132.023"/>
<polygon fill="black" stroke="black" points="330.001,-128.628 319.427,-129.289 328.106,-135.367 330.001,-128.628"/>
</g>
<!-- 336_23 -->
<g id="node34" class="node"><title>336_23</title>
<ellipse fill="#66cdaa" stroke="black" cx="388.5" cy="-118.263" rx="40.1111" ry="16.0303"/>
<text text-anchor="middle" x="388.5" y="-114.563" font-family="Times,serif" font-size="14.00">336_23</text>
</g>
<!-- 336_5x336_15&#45;&gt;336_23 -->
<g id="edge32" class="edge"><title>336_5x336_15&#45;&gt;336_23</title>
<path fill="none" stroke="black" d="M634.126,-172.662C617.597,-170.099 518.013,-154.337 438.5,-134.527 435.286,-133.726 431.971,-132.843 428.651,-131.918"/>
<polygon fill="black" stroke="black" points="429.345,-128.475 418.766,-129.056 427.398,-135.199 429.345,-128.475"/>
</g>
<!-- 336_21 -->
<g id="node36" class="node"><title>336_21</title>
<ellipse fill="white" stroke="black" cx="487.5" cy="-118.263" rx="40.1111" ry="16.0303"/>
<text text-anchor="middle" x="487.5" y="-114.563" font-family="Times,serif" font-size="14.00">336_21</text>
</g>
<!-- 336_5x336_15&#45;&gt;336_21 -->
<g id="edge35" class="edge"><title>336_5x336_15&#45;&gt;336_21</title>
<path fill="none" stroke="black" d="M634.394,-172.267C622.785,-168.078 565.704,-147.482 526.216,-133.233"/>
<polygon fill="black" stroke="black" points="527.188,-129.863 516.593,-129.761 524.812,-136.448 527.188,-129.863"/>
</g>
<!-- 336_20 -->
<g id="node37" class="node"><title>336_20</title>
<ellipse fill="white" stroke="black" cx="586.5" cy="-118.263" rx="40.1111" ry="16.0303"/>
<text text-anchor="middle" x="586.5" y="-114.563" font-family="Times,serif" font-size="14.00">336_20</text>
</g>
<!-- 336_5x336_15&#45;&gt;336_20 -->
<g id="edge36" class="edge"><title>336_5x336_15&#45;&gt;336_20</title>
<path fill="none" stroke="black" d="M635.264,-171.698C631.279,-167.413 618.356,-153.517 606.814,-141.107"/>
<polygon fill="black" stroke="black" points="609.272,-138.61 599.899,-133.671 604.146,-143.377 609.272,-138.61"/>
</g>
<!-- 336_19 -->
<g id="node38" class="node"><title>336_19</title>
<ellipse fill="white" stroke="black" cx="685.5" cy="-118.263" rx="40.1111" ry="16.0303"/>
<text text-anchor="middle" x="685.5" y="-114.563" font-family="Times,serif" font-size="14.00">336_19</text>
</g>
<!-- 336_5x336_15&#45;&gt;336_19 -->
<g id="edge37" class="edge"><title>336_5x336_15&#45;&gt;336_19</title>
<path fill="none" stroke="black" d="M637.711,-171.698C641.617,-167.413 654.281,-153.517 665.592,-141.107"/>
<polygon fill="black" stroke="black" points="668.22,-143.42 672.369,-133.671 663.046,-138.704 668.22,-143.42"/>
</g>
<!-- 336_18 -->
<g id="node39" class="node"><title>336_18</title>
<polygon fill="#66cdaa" stroke="black" points="801,-129.763 744,-129.763 744,-106.763 801,-106.763 801,-129.763"/>
<text text-anchor="middle" x="772.5" y="-114.563" font-family="Times,serif" font-size="14.00">336_18</text>
</g>
<!-- 336_5x336_15&#45;&gt;336_18 -->
<g id="edge38" class="edge"><title>336_5x336_15&#45;&gt;336_18</title>
<path fill="none" stroke="black" d="M638.371,-172.298C648.292,-168.432 695.767,-149.914 734.5,-134.527 735.338,-134.194 736.187,-133.856 737.043,-133.516"/>
<polygon fill="black" stroke="black" points="738.357,-136.76 746.345,-129.799 735.76,-130.259 738.357,-136.76"/>
</g>
<!-- 336_17 -->
<g id="node40" class="node"><title>336_17</title>
<polygon fill="white" stroke="black" points="876,-129.763 819,-129.763 819,-106.763 876,-106.763 876,-129.763"/>
<text text-anchor="middle" x="847.5" y="-114.563" font-family="Times,serif" font-size="14.00">336_17</text>
</g>
<!-- 336_5x336_15&#45;&gt;336_17 -->
<g id="edge39" class="edge"><title>336_5x336_15&#45;&gt;336_17</title>
<path fill="none" stroke="black" d="M638.979,-172.632C654.632,-170.108 741.313,-155.654 809.5,-134.527 810.722,-134.148 811.961,-133.747 813.207,-133.329"/>
<polygon fill="black" stroke="black" points="814.558,-136.562 822.772,-129.87 812.178,-129.979 814.558,-136.562"/>
</g>
<!-- 336_16 -->
<g id="node43" class="node"><title>336_16</title>
<polygon fill="white" stroke="black" points="951,-129.763 894,-129.763 894,-106.763 951,-106.763 951,-129.763"/>
<text text-anchor="middle" x="922.5" y="-114.563" font-family="Times,serif" font-size="14.00">336_16</text>
</g>
<!-- 336_5x336_15&#45;&gt;336_16 -->
<g id="edge42" class="edge"><title>336_5x336_15&#45;&gt;336_16</title>
<path fill="none" stroke="black" d="M638.989,-172.857C658.243,-171.501 785.342,-161.754 884.5,-134.527 885.957,-134.127 887.434,-133.688 888.917,-133.22"/>
<polygon fill="black" stroke="black" points="890.387,-136.413 898.662,-129.797 888.067,-129.809 890.387,-136.413"/>
</g>
<!-- 336_13 -->
<g id="node51" class="node"><title>336_13</title>
<polygon fill="white" stroke="black" points="132,-129.763 75,-129.763 75,-106.763 132,-106.763 132,-129.763"/>
<text text-anchor="middle" x="103.5" y="-114.563" font-family="Times,serif" font-size="14.00">336_13</text>
</g>
<!-- 336_5x336_15&#45;&gt;336_13 -->
<g id="edge51" class="edge"><title>336_5x336_15&#45;&gt;336_13</title>
<path fill="none" stroke="black" d="M634.014,-172.939C600.781,-171.748 243.896,-158.479 141.5,-134.527 139.787,-134.126 138.049,-133.66 136.309,-133.145"/>
<polygon fill="black" stroke="black" points="137.043,-129.698 126.449,-129.777 134.78,-136.322 137.043,-129.698"/>
</g>
<!-- 336_14 -->
<g id="node52" class="node"><title>336_14</title>
<ellipse fill="white" stroke="black" cx="190.5" cy="-118.263" rx="40.1111" ry="16.0303"/>
<text text-anchor="middle" x="190.5" y="-114.563" font-family="Times,serif" font-size="14.00">336_14</text>
</g>
<!-- 336_5x336_15&#45;&gt;336_14 -->
<g id="edge52" class="edge"><title>336_5x336_15&#45;&gt;336_14</title>
<path fill="none" stroke="black" d="M633.958,-172.974C608.87,-172.413 403.084,-166.909 240.5,-134.527 237.058,-133.841 233.514,-133.015 229.979,-132.105"/>
<polygon fill="black" stroke="black" points="230.7,-128.673 220.128,-129.37 228.828,-135.418 230.7,-128.673"/>
</g>
<!-- 336_6 -->
<g id="node9" class="node"><title>336_6</title>
<ellipse fill="#66cdaa" stroke="black" cx="1168.5" cy="-118.263" rx="35.2113" ry="16.0303"/>
<text text-anchor="middle" x="1168.5" y="-114.563" font-family="Times,serif" font-size="14.00">336_6</text>
</g>
<!-- 336_10x336_99 -->
<g id="node10" class="node"><title>336_10x336_99</title>
<polygon fill="none" stroke="black" points="1146.5,-177.527 1143,-174.027 1146.5,-170.527 1150,-174.027 1146.5,-177.527"/>
</g>
<!-- 336_10x336_99&#45;&gt;336_6 -->
<g id="edge8" class="edge"><title>336_10x336_99&#45;&gt;336_6</title>
<path fill="none" stroke="black" d="M1147.23,-171.238C1149.02,-166.87 1153.8,-155.195 1158.37,-144.014"/>
<polygon fill="black" stroke="black" points="1161.71,-145.093 1162.26,-134.513 1155.23,-142.442 1161.71,-145.093"/>
</g>
<!-- 336_8 -->
<g id="node15" class="node"><title>336_8</title>
<polygon fill="white" stroke="black" points="1360.5,-129.763 1310.5,-129.763 1310.5,-106.763 1360.5,-106.763 1360.5,-129.763"/>
<text text-anchor="middle" x="1335.5" y="-114.563" font-family="Times,serif" font-size="14.00">336_8</text>
</g>
<!-- 336_10x336_99&#45;&gt;336_8 -->
<g id="edge14" class="edge"><title>336_10x336_99&#45;&gt;336_8</title>
<path fill="none" stroke="black" d="M1148.73,-172.629C1162.8,-170.086 1240.7,-155.537 1301.5,-134.527 1302.36,-134.231 1303.22,-133.922 1304.09,-133.602"/>
<polygon fill="black" stroke="black" points="1305.44,-136.831 1313.42,-129.86 1302.83,-130.335 1305.44,-136.831"/>
</g>
<!-- 336_9 -->
<g id="node16" class="node"><title>336_9</title>
<ellipse fill="dimgrey" stroke="black" cx="1257.5" cy="-118.263" rx="35.2113" ry="16.0303"/>
<text text-anchor="middle" x="1257.5" y="-114.563" font-family="Times,serif" font-size="14.00">336_9</text>
</g>
<!-- 336_10x336_99&#45;&gt;336_9 -->
<g id="edge15" class="edge"><title>336_10x336_99&#45;&gt;336_9</title>
<path fill="none" stroke="black" d="M1148.43,-172.094C1157.43,-167.734 1196.11,-148.998 1224.87,-135.07"/>
<polygon fill="black" stroke="black" points="1226.71,-138.068 1234.18,-130.559 1223.65,-131.768 1226.71,-138.068"/>
</g>
<!-- 336_7 -->
<g id="node50" class="node"><title>336_7</title>
<ellipse fill="dimgrey" stroke="black" cx="1079.5" cy="-118.263" rx="35.2113" ry="16.0303"/>
<text text-anchor="middle" x="1079.5" y="-114.563" font-family="Times,serif" font-size="14.00">336_7</text>
</g>
<!-- 336_10x336_99&#45;&gt;336_7 -->
<g id="edge50" class="edge"><title>336_10x336_99&#45;&gt;336_7</title>
<path fill="none" stroke="black" d="M1144.84,-171.698C1139.22,-167.181 1120.28,-151.988 1104.23,-139.111"/>
<polygon fill="black" stroke="black" points="1106.18,-136.186 1096.19,-132.657 1101.8,-141.645 1106.18,-136.186"/>
</g>
<!-- 336_10 -->
<g id="node11" class="node"><title>336_10</title>
<polygon fill="#66cdaa" stroke="black" points="1154,-241.29 1097,-241.29 1097,-218.29 1154,-218.29 1154,-241.29"/>
<text text-anchor="middle" x="1125.5" y="-226.09" font-family="Times,serif" font-size="14.00">336_10</text>
</g>
<!-- 336_10&#45;&gt;336_10x336_99 -->
<g id="edge9" class="edge"><title>336_10&#45;&gt;336_10x336_99</title>
<path fill="none" stroke="black" d="M1129.65,-218.168C1133.24,-208.976 1138.42,-195.721 1142.08,-186.334"/>
<polygon fill="black" stroke="black" points="1145.39,-187.477 1145.77,-176.889 1138.87,-184.931 1145.39,-187.477"/>
</g>
<!-- 336_12 -->
<g id="node13" class="node"><title>336_12</title>
<ellipse fill="#66cdaa" stroke="black" cx="1285.5" cy="-341.317" rx="40.1111" ry="16.0303"/>
<text text-anchor="middle" x="1285.5" y="-337.617" font-family="Times,serif" font-size="14.00">336_12</text>
</g>
<!-- 336_12&#45;&gt;336_1x336_12 -->
<g id="edge11" class="edge"><title>336_12&#45;&gt;336_1x336_12</title>
<path fill="none" stroke="black" d="M1285.5,-324.767C1285.5,-316.661 1285.5,-306.872 1285.5,-299.232"/>
<polygon fill="black" stroke="black" points="1289,-299.077 1285.5,-289.077 1282,-299.077 1289,-299.077"/>
</g>
<!-- 336_99&#45;&gt;336_10x336_99 -->
<g id="edge13" class="edge"><title>336_99&#45;&gt;336_10x336_99</title>
<path fill="none" stroke="black" d="M1054.1,-217.124C1079.34,-205.627 1116.73,-188.593 1135.25,-180.152"/>
<polygon fill="black" stroke="black" points="1136.89,-183.253 1144.54,-175.922 1133.98,-176.883 1136.89,-183.253"/>
</g>
<!-- 336_42x336_9 -->
<g id="node17" class="node"><title>336_42x336_9</title>
<polygon fill="none" stroke="black" points="1127.5,-66 1124,-62.5 1127.5,-59 1131,-62.5 1127.5,-66"/>
</g>
<!-- 336_9&#45;&gt;336_42x336_9 -->
<g id="edge16" class="edge"><title>336_9&#45;&gt;336_42x336_9</title>
<path fill="none" stroke="black" d="M1232.13,-106.77C1203.85,-95.0738 1159.38,-76.6849 1138.73,-68.145"/>
<polygon fill="black" stroke="black" points="1140.05,-64.9008 1129.47,-64.3133 1137.37,-71.3694 1140.05,-64.9008"/>
</g>
<!-- 336_43 -->
<g id="node22" class="node"><title>336_43</title>
<polygon fill="white" stroke="black" points="1119,-23 1062,-23 1062,-0 1119,-0 1119,-23"/>
<text text-anchor="middle" x="1090.5" y="-7.8" font-family="Times,serif" font-size="14.00">336_43</text>
</g>
<!-- 336_42x336_9&#45;&gt;336_43 -->
<g id="edge21" class="edge"><title>336_42x336_9&#45;&gt;336_43</title>
<path fill="none" stroke="black" d="M1126.27,-59.8697C1122.87,-55.3705 1113.05,-42.3683 1104.56,-31.1221"/>
<polygon fill="black" stroke="black" points="1107.27,-28.9056 1098.45,-23.0343 1101.69,-33.1239 1107.27,-28.9056"/>
</g>
<!-- 336_44 -->
<g id="node55" class="node"><title>336_44</title>
<polygon fill="white" stroke="black" points="1194,-23 1137,-23 1137,-0 1194,-0 1194,-23"/>
<text text-anchor="middle" x="1165.5" y="-7.8" font-family="Times,serif" font-size="14.00">336_44</text>
</g>
<!-- 336_42x336_9&#45;&gt;336_44 -->
<g id="edge55" class="edge"><title>336_42x336_9&#45;&gt;336_44</title>
<path fill="none" stroke="black" d="M1128.76,-59.8697C1132.25,-55.3705 1142.34,-42.3683 1151.06,-31.1221"/>
<polygon fill="black" stroke="black" points="1153.97,-33.0814 1157.33,-23.0343 1148.44,-28.7916 1153.97,-33.0814"/>
</g>
<!-- 336_2 -->
<g id="node18" class="node"><title>336_2</title>
<ellipse fill="#66cdaa" stroke="black" cx="1025.5" cy="-341.317" rx="35.2113" ry="16.0303"/>
<text text-anchor="middle" x="1025.5" y="-337.617" font-family="Times,serif" font-size="14.00">336_2</text>
</g>
<!-- 336_2&#45;&gt;336_1x336_2 -->
<g id="edge18" class="edge"><title>336_2&#45;&gt;336_1x336_2</title>
<path fill="none" stroke="black" d="M1026.07,-325.055C1026.37,-316.94 1026.74,-307.077 1027.02,-299.365"/>
<polygon fill="black" stroke="black" points="1030.53,-299.23 1027.41,-289.106 1023.54,-298.969 1030.53,-299.23"/>
</g>
<!-- 336_29x336_30 -->
<g id="node19" class="node"><title>336_29x336_30</title>
<polygon fill="none" stroke="black" points="1025.5,-400.581 1022,-397.081 1025.5,-393.581 1029,-397.081 1025.5,-400.581"/>
</g>
<!-- 336_29x336_30&#45;&gt;336_2 -->
<g id="edge17" class="edge"><title>336_29x336_30&#45;&gt;336_2</title>
<path fill="none" stroke="black" d="M1025.5,-393.488C1025.5,-388.705 1025.5,-378.035 1025.5,-367.669"/>
<polygon fill="black" stroke="black" points="1029,-367.634 1025.5,-357.634 1022,-367.634 1029,-367.634"/>
</g>
<!-- 336_31 -->
<g id="node20" class="node"><title>336_31</title>
<polygon fill="#66cdaa" stroke="black" points="1186,-464.344 1129,-464.344 1129,-441.344 1186,-441.344 1186,-464.344"/>
<text text-anchor="middle" x="1157.5" y="-449.144" font-family="Times,serif" font-size="14.00">336_31</text>
</g>
<!-- 336_31&#45;&gt;336_31x336_32 -->
<g id="edge20" class="edge"><title>336_31&#45;&gt;336_31x336_32</title>
<path fill="none" stroke="black" d="M1166.39,-441.222C1174.67,-431.334 1186.88,-416.744 1194.76,-407.325"/>
<polygon fill="black" stroke="black" points="1197.49,-409.516 1201.23,-399.601 1192.12,-405.023 1197.49,-409.516"/>
</g>
<!-- 336_34x336_33 -->
<g id="node21" class="node"><title>336_34x336_33</title>
<polygon fill="none" stroke="black" points="1070.5,-512.108 1067,-508.608 1070.5,-505.108 1074,-508.608 1070.5,-512.108"/>
</g>
<!-- 336_34x336_33&#45;&gt;336_31 -->
<g id="edge19" class="edge"><title>336_34x336_33&#45;&gt;336_31</title>
<path fill="none" stroke="black" d="M1072.32,-506.485C1079.87,-501.82 1109.39,-483.572 1131.58,-469.86"/>
<polygon fill="black" stroke="black" points="1133.59,-472.733 1140.26,-464.498 1129.91,-466.778 1133.59,-472.733"/>
</g>
<!-- 336_29 -->
<g id="node35" class="node"><title>336_29</title>
<polygon fill="#66cdaa" stroke="black" points="1012,-464.344 955,-464.344 955,-441.344 1012,-441.344 1012,-464.344"/>
<text text-anchor="middle" x="983.5" y="-449.144" font-family="Times,serif" font-size="14.00">336_29</text>
</g>
<!-- 336_34x336_33&#45;&gt;336_29 -->
<g id="edge33" class="edge"><title>336_34x336_33&#45;&gt;336_29</title>
<path fill="none" stroke="black" d="M1068.68,-506.485C1061.13,-501.82 1031.61,-483.572 1009.42,-469.86"/>
<polygon fill="black" stroke="black" points="1011.09,-466.778 1000.74,-464.498 1007.41,-472.733 1011.09,-466.778"/>
</g>
<!-- 336_26 -->
<g id="node24" class="node"><title>336_26</title>
<ellipse fill="#66cdaa" stroke="black" cx="371.5" cy="-229.79" rx="40.1111" ry="16.0303"/>
<text text-anchor="middle" x="371.5" y="-226.09" font-family="Times,serif" font-size="14.00">336_26</text>
</g>
<!-- 336_25x336_26 -->
<g id="node25" class="node"><title>336_25x336_26</title>
<polygon fill="none" stroke="black" points="284.5,-177.527 281,-174.027 284.5,-170.527 288,-174.027 284.5,-177.527"/>
</g>
<!-- 336_26&#45;&gt;336_25x336_26 -->
<g id="edge23" class="edge"><title>336_26&#45;&gt;336_25x336_26</title>
<path fill="none" stroke="black" d="M350.44,-215.776C332.839,-204.899 308.488,-189.851 294.841,-181.417"/>
<polygon fill="black" stroke="black" points="296.624,-178.405 286.277,-176.125 292.944,-184.36 296.624,-178.405"/>
</g>
<!-- 336_24 -->
<g id="node33" class="node"><title>336_24</title>
<polygon fill="#66cdaa" stroke="black" points="57,-129.763 0,-129.763 0,-106.763 57,-106.763 57,-129.763"/>
<text text-anchor="middle" x="28.5" y="-114.563" font-family="Times,serif" font-size="14.00">336_24</text>
</g>
<!-- 336_25x336_26&#45;&gt;336_24 -->
<g id="edge31" class="edge"><title>336_25x336_26&#45;&gt;336_24</title>
<path fill="none" stroke="black" d="M281.848,-172.781C263.387,-171.024 152.249,-159.72 65.5,-134.527 64.2613,-134.167 63.0077,-133.779 61.7479,-133.369"/>
<polygon fill="black" stroke="black" points="62.7065,-129.995 52.1122,-129.893 60.3307,-136.579 62.7065,-129.995"/>
</g>
<!-- 336_25 -->
<g id="node26" class="node"><title>336_25</title>
<polygon fill="#66cdaa" stroke="black" points="313,-241.29 256,-241.29 256,-218.29 313,-218.29 313,-241.29"/>
<text text-anchor="middle" x="284.5" y="-226.09" font-family="Times,serif" font-size="14.00">336_25</text>
</g>
<!-- 336_25&#45;&gt;336_25x336_26 -->
<g id="edge25" class="edge"><title>336_25&#45;&gt;336_25x336_26</title>
<path fill="none" stroke="black" d="M284.5,-218.168C284.5,-209.416 284.5,-196.981 284.5,-187.707"/>
<polygon fill="black" stroke="black" points="288,-187.666 284.5,-177.666 281,-187.666 288,-187.666"/>
</g>
<!-- 336_28x336_27 -->
<g id="node27" class="node"><title>336_28x336_27</title>
<polygon fill="none" stroke="black" points="614.5,-289.054 611,-285.554 614.5,-282.054 618,-285.554 614.5,-289.054"/>
</g>
<!-- 336_28x336_27&#45;&gt;336_25 -->
<g id="edge24" class="edge"><title>336_28x336_27&#45;&gt;336_25</title>
<path fill="none" stroke="black" d="M611.85,-284.457C590.165,-283.615 439.72,-276.8 322.5,-246.054 321.039,-245.671 319.558,-245.246 318.072,-244.789"/>
<polygon fill="black" stroke="black" points="318.91,-241.375 308.315,-241.411 316.619,-247.99 318.91,-241.375"/>
</g>
<!-- 336_28 -->
<g id="node28" class="node"><title>336_28</title>
<polygon fill="#66cdaa" stroke="black" points="643,-352.817 586,-352.817 586,-329.817 643,-329.817 643,-352.817"/>
<text text-anchor="middle" x="614.5" y="-337.617" font-family="Times,serif" font-size="14.00">336_28</text>
</g>
<!-- 336_28&#45;&gt;336_28x336_27 -->
<g id="edge26" class="edge"><title>336_28&#45;&gt;336_28x336_27</title>
<path fill="none" stroke="black" d="M614.5,-329.695C614.5,-320.943 614.5,-308.507 614.5,-299.234"/>
<polygon fill="black" stroke="black" points="618,-299.192 614.5,-289.192 611,-299.193 618,-299.192"/>
</g>
<!-- 336_27&#45;&gt;336_28x336_27 -->
<g id="edge28" class="edge"><title>336_27&#45;&gt;336_28x336_27</title>
<path fill="none" stroke="black" d="M1089.88,-330.148C1083.24,-328.185 1076.18,-326.342 1069.5,-325.054 896.554,-291.73 681.097,-287.25 627.175,-286.647"/>
<polygon fill="black" stroke="black" points="627.1,-283.147 617.071,-286.563 627.041,-290.146 627.1,-283.147"/>
</g>
<!-- 336_38 -->
<g id="node30" class="node"><title>336_38</title>
<ellipse fill="#66cdaa" stroke="black" cx="1285.5" cy="-229.79" rx="40.1111" ry="16.0303"/>
<text text-anchor="middle" x="1285.5" y="-226.09" font-family="Times,serif" font-size="14.00">336_38</text>
</g>
<!-- 336_37x336_38 -->
<g id="node31" class="node"><title>336_37x336_38</title>
<polygon fill="none" stroke="black" points="1450.5,-177.527 1447,-174.027 1450.5,-170.527 1454,-174.027 1450.5,-177.527"/>
</g>
<!-- 336_38&#45;&gt;336_37x336_38 -->
<g id="edge29" class="edge"><title>336_38&#45;&gt;336_37x336_38</title>
<path fill="none" stroke="black" d="M1315.76,-218.929C1352.69,-206.896 1413.34,-187.134 1438.74,-178.859"/>
<polygon fill="black" stroke="black" points="1439.88,-182.167 1448.31,-175.741 1437.72,-175.512 1439.88,-182.167"/>
</g>
<!-- 336_39 -->
<g id="node45" class="node"><title>336_39</title>
<ellipse fill="white" stroke="black" cx="1494.5" cy="-118.263" rx="40.1111" ry="16.0303"/>
<text text-anchor="middle" x="1494.5" y="-114.563" font-family="Times,serif" font-size="14.00">336_39</text>
</g>
<!-- 336_37x336_38&#45;&gt;336_39 -->
<g id="edge44" class="edge"><title>336_37x336_38&#45;&gt;336_39</title>
<path fill="none" stroke="black" d="M1451.96,-171.238C1455.77,-166.59 1466.34,-153.669 1476,-141.874"/>
<polygon fill="black" stroke="black" points="1478.81,-143.959 1482.44,-134.003 1473.39,-139.526 1478.81,-143.959"/>
</g>
<!-- 336_40 -->
<g id="node46" class="node"><title>336_40</title>
<ellipse fill="#66cdaa" stroke="black" cx="1593.5" cy="-118.263" rx="40.1111" ry="16.0303"/>
<text text-anchor="middle" x="1593.5" y="-114.563" font-family="Times,serif" font-size="14.00">336_40</text>
</g>
<!-- 336_37x336_38&#45;&gt;336_40 -->
<g id="edge45" class="edge"><title>336_37x336_38&#45;&gt;336_40</title>
<path fill="none" stroke="black" d="M1452.52,-172.267C1463.58,-168.108 1517.68,-147.771 1555.54,-133.535"/>
<polygon fill="black" stroke="black" points="1557.13,-136.676 1565.26,-129.88 1554.67,-130.123 1557.13,-136.676"/>
</g>
<!-- 336_41 -->
<g id="node53" class="node"><title>336_41</title>
<polygon fill="#66cdaa" stroke="black" points="1436,-129.763 1379,-129.763 1379,-106.763 1436,-106.763 1436,-129.763"/>
<text text-anchor="middle" x="1407.5" y="-114.563" font-family="Times,serif" font-size="14.00">336_41</text>
</g>
<!-- 336_37x336_38&#45;&gt;336_41 -->
<g id="edge53" class="edge"><title>336_37x336_38&#45;&gt;336_41</title>
<path fill="none" stroke="black" d="M1449.07,-171.238C1444.91,-166.037 1432.47,-150.478 1422.27,-137.729"/>
<polygon fill="black" stroke="black" points="1424.98,-135.517 1416,-129.893 1419.51,-139.889 1424.98,-135.517"/>
</g>
<!-- 336_32 -->
<g id="node32" class="node"><title>336_32</title>
<ellipse fill="#66cdaa" stroke="black" cx="1244.5" cy="-452.844" rx="40.1111" ry="16.0303"/>
<text text-anchor="middle" x="1244.5" y="-449.144" font-family="Times,serif" font-size="14.00">336_32</text>
</g>
<!-- 336_32&#45;&gt;336_31x336_32 -->
<g id="edge30" class="edge"><title>336_32&#45;&gt;336_31x336_32</title>
<path fill="none" stroke="black" d="M1233.02,-437.153C1225.73,-427.814 1216.49,-415.985 1210.09,-407.802"/>
<polygon fill="black" stroke="black" points="1212.65,-405.386 1203.73,-399.661 1207.13,-409.696 1212.65,-405.386"/>
</g>
<!-- 336_29&#45;&gt;336_29x336_30 -->
<g id="edge34" class="edge"><title>336_29&#45;&gt;336_29x336_30</title>
<path fill="none" stroke="black" d="M991.798,-441.222C999.44,-431.439 1010.68,-417.054 1018.04,-407.627"/>
<polygon fill="black" stroke="black" points="1020.91,-409.637 1024.31,-399.601 1015.4,-405.327 1020.91,-409.637"/>
</g>
<!-- 336_37 -->
<g id="node41" class="node"><title>336_37</title>
<polygon fill="#66cdaa" stroke="black" points="1479,-241.29 1422,-241.29 1422,-218.29 1479,-218.29 1479,-241.29"/>
<text text-anchor="middle" x="1450.5" y="-226.09" font-family="Times,serif" font-size="14.00">336_37</text>
</g>
<!-- 336_37&#45;&gt;336_37x336_38 -->
<g id="edge41" class="edge"><title>336_37&#45;&gt;336_37x336_38</title>
<path fill="none" stroke="black" d="M1450.5,-218.168C1450.5,-209.416 1450.5,-196.981 1450.5,-187.707"/>
<polygon fill="black" stroke="black" points="1454,-187.666 1450.5,-177.666 1447,-187.666 1454,-187.666"/>
</g>
<!-- 336_35x336_36 -->
<g id="node42" class="node"><title>336_35x336_36</title>
<polygon fill="none" stroke="black" points="1450.5,-289.054 1447,-285.554 1450.5,-282.054 1454,-285.554 1450.5,-289.054"/>
</g>
<!-- 336_35x336_36&#45;&gt;336_37 -->
<g id="edge40" class="edge"><title>336_35x336_36&#45;&gt;336_37</title>
<path fill="none" stroke="black" d="M1450.5,-281.961C1450.5,-276.493 1450.5,-263.327 1450.5,-251.721"/>
<polygon fill="black" stroke="black" points="1454,-251.372 1450.5,-241.372 1447,-251.372 1454,-251.372"/>
</g>
<!-- 336_30 -->
<g id="node44" class="node"><title>336_30</title>
<ellipse fill="#66cdaa" stroke="black" cx="1070.5" cy="-452.844" rx="40.1111" ry="16.0303"/>
<text text-anchor="middle" x="1070.5" y="-449.144" font-family="Times,serif" font-size="14.00">336_30</text>
</g>
<!-- 336_30&#45;&gt;336_29x336_30 -->
<g id="edge43" class="edge"><title>336_30&#45;&gt;336_29x336_30</title>
<path fill="none" stroke="black" d="M1058.2,-437.153C1050.3,-427.709 1040.26,-415.719 1033.41,-407.527"/>
<polygon fill="black" stroke="black" points="1035.92,-405.083 1026.82,-399.661 1030.56,-409.576 1035.92,-405.083"/>
</g>
<!-- 336_36 -->
<g id="node47" class="node"><title>336_36</title>
<ellipse fill="#66cdaa" stroke="black" cx="1384.5" cy="-341.317" rx="40.1111" ry="16.0303"/>
<text text-anchor="middle" x="1384.5" y="-337.617" font-family="Times,serif" font-size="14.00">336_36</text>
</g>
<!-- 336_36&#45;&gt;336_35x336_36 -->
<g id="edge46" class="edge"><title>336_36&#45;&gt;336_35x336_36</title>
<path fill="none" stroke="black" d="M1401.5,-326.472C1414.1,-316.205 1430.81,-302.59 1441.1,-294.208"/>
<polygon fill="black" stroke="black" points="1443.32,-296.917 1448.86,-287.888 1438.9,-291.49 1443.32,-296.917"/>
</g>
<!-- 336_35&#45;&gt;336_35x336_36 -->
<g id="edge48" class="edge"><title>336_35&#45;&gt;336_35x336_36</title>
<path fill="none" stroke="black" d="M1467.35,-329.695C1463.76,-320.503 1458.58,-307.248 1454.92,-297.861"/>
<polygon fill="black" stroke="black" points="1458.13,-296.457 1451.23,-288.416 1451.61,-299.004 1458.13,-296.457"/>
</g>
<!-- 336_15 -->
<g id="node49" class="node"><title>336_15</title>
<ellipse fill="#66cdaa" stroke="black" cx="861.5" cy="-229.79" rx="40.1111" ry="16.0303"/>
<text text-anchor="middle" x="861.5" y="-226.09" font-family="Times,serif" font-size="14.00">336_15</text>
</g>
<!-- 336_15&#45;&gt;336_5x336_15 -->
<g id="edge49" class="edge"><title>336_15&#45;&gt;336_5x336_15</title>
<path fill="none" stroke="black" d="M831.298,-218.933C825.108,-217.04 818.616,-215.145 812.5,-213.527 751.666,-197.431 677.748,-182.856 648.884,-177.352"/>
<polygon fill="black" stroke="black" points="649.476,-173.902 639.001,-175.489 648.179,-180.781 649.476,-173.902"/>
</g>
<!-- 336_42 -->
<g id="node54" class="node"><title>336_42</title>
<polygon fill="#66cdaa" stroke="black" points="1026,-129.763 969,-129.763 969,-106.763 1026,-106.763 1026,-129.763"/>
<text text-anchor="middle" x="997.5" y="-114.563" font-family="Times,serif" font-size="14.00">336_42</text>
</g>
<!-- 336_42&#45;&gt;336_42x336_9 -->
<g id="edge54" class="edge"><title>336_42&#45;&gt;336_42x336_9</title>
<path fill="none" stroke="black" d="M1023.18,-106.642C1051.37,-94.984 1095.36,-76.7917 1116.03,-68.2418"/>
<polygon fill="black" stroke="black" points="1117.64,-71.3651 1125.54,-64.309 1114.97,-64.8965 1117.64,-71.3651"/>
</g>
<!-- 336_33 -->
<g id="node56" class="node"><title>336_33</title>
<ellipse fill="#66cdaa" stroke="black" cx="1027.5" cy="-564.371" rx="40.1111" ry="16.0303"/>
<text text-anchor="middle" x="1027.5" y="-560.671" font-family="Times,serif" font-size="14.00">336_33</text>
</g>
<!-- 336_33&#45;&gt;336_34x336_33 -->
<g id="edge56" class="edge"><title>336_33&#45;&gt;336_34x336_33</title>
<path fill="none" stroke="black" d="M1039.25,-548.68C1046.8,-539.236 1056.39,-527.246 1062.94,-519.054"/>
<polygon fill="black" stroke="black" points="1065.72,-521.183 1069.24,-511.188 1060.26,-516.811 1065.72,-521.183"/>
</g>
<!-- 336_34 -->
<g id="node57" class="node"><title>336_34</title>
<polygon fill="#66cdaa" stroke="black" points="1143,-575.871 1086,-575.871 1086,-552.871 1143,-552.871 1143,-575.871"/>
<text text-anchor="middle" x="1114.5" y="-560.671" font-family="Times,serif" font-size="14.00">336_34</text>
</g>
<!-- 336_34&#45;&gt;336_34x336_33 -->
<g id="edge57" class="edge"><title>336_34&#45;&gt;336_34x336_33</title>
<path fill="none" stroke="black" d="M1105.81,-552.749C1097.8,-542.966 1086.03,-528.581 1078.31,-519.154"/>
<polygon fill="black" stroke="black" points="1080.79,-516.65 1071.74,-511.128 1075.37,-521.084 1080.79,-516.65"/>
</g>
</g>
</svg>
