<?xml version="1.0" encoding="UTF-8" standalone="no"?>
<!DOCTYPE svg PUBLIC "-//W3C//DTD SVG 1.1//EN"
 "http://www.w3.org/Graphics/SVG/1.1/DTD/svg11.dtd">
<!-- Generated by graphviz version 2.38.0 (20140413.2041)
 -->
<!-- Title: %3 Pages: 1 -->
<svg width="723pt" height="254pt"
 viewBox="0.00 0.00 722.50 254.05" xmlns="http://www.w3.org/2000/svg" xmlns:xlink="http://www.w3.org/1999/xlink">
<g id="graph0" class="graph" transform="scale(1 1) rotate(0) translate(4 250.054)">
<title>%3</title>
<polygon fill="white" stroke="none" points="-4,4 -4,-250.054 718.5,-250.054 718.5,4 -4,4"/>
<!-- 28_4_144 -->
<g id="node1" class="node"><title>28_4_144</title>
<ellipse fill="dimgrey" stroke="black" cx="139.5" cy="-118.263" rx="50.41" ry="16.0303"/>
<text text-anchor="middle" x="139.5" y="-114.563" font-family="Times,serif" font-size="14.00">28_4_144</text>
</g>
<!-- 28_4_149x28_4_144 -->
<g id="node3" class="node"><title>28_4_149x28_4_144</title>
<polygon fill="none" stroke="black" points="87.5,-66 84,-62.5 87.5,-59 91,-62.5 87.5,-66"/>
</g>
<!-- 28_4_144&#45;&gt;28_4_149x28_4_144 -->
<g id="edge2" class="edge"><title>28_4_144&#45;&gt;28_4_149x28_4_144</title>
<path fill="none" stroke="black" d="M125.291,-102.572C115.884,-92.8468 103.865,-80.4205 95.9376,-72.2237"/>
<polygon fill="black" stroke="black" points="98.2149,-69.5438 88.7468,-64.7891 93.1833,-74.4104 98.2149,-69.5438"/>
</g>
<!-- 28_4_139x28_4_138 -->
<g id="node2" class="node"><title>28_4_139x28_4_138</title>
<polygon fill="none" stroke="black" points="198.5,-177.527 195,-174.027 198.5,-170.527 202,-174.027 198.5,-177.527"/>
</g>
<!-- 28_4_139x28_4_138&#45;&gt;28_4_144 -->
<g id="edge1" class="edge"><title>28_4_139x28_4_138&#45;&gt;28_4_144</title>
<path fill="none" stroke="black" d="M197.042,-171.698C192.324,-167.399 176.994,-153.43 163.343,-140.991"/>
<polygon fill="black" stroke="black" points="165.342,-138.076 155.593,-133.928 160.627,-143.25 165.342,-138.076"/>
</g>
<!-- 28_4_147 -->
<g id="node6" class="node"><title>28_4_147</title>
<ellipse fill="white" stroke="black" cx="257.5" cy="-118.263" rx="50.41" ry="16.0303"/>
<text text-anchor="middle" x="257.5" y="-114.563" font-family="Times,serif" font-size="14.00">28_4_147</text>
</g>
<!-- 28_4_139x28_4_138&#45;&gt;28_4_147 -->
<g id="edge5" class="edge"><title>28_4_139x28_4_138&#45;&gt;28_4_147</title>
<path fill="none" stroke="black" d="M199.958,-171.698C204.676,-167.399 220.006,-153.43 233.657,-140.991"/>
<polygon fill="black" stroke="black" points="236.373,-143.25 241.407,-133.928 231.658,-138.076 236.373,-143.25"/>
</g>
<!-- 28_4_150 -->
<g id="node4" class="node"><title>28_4_150</title>
<polygon fill="white" stroke="black" points="123,-23 52,-23 52,-0 123,-0 123,-23"/>
<text text-anchor="middle" x="87.5" y="-7.8" font-family="Times,serif" font-size="14.00">28_4_150</text>
</g>
<!-- 28_4_149x28_4_144&#45;&gt;28_4_150 -->
<g id="edge3" class="edge"><title>28_4_149x28_4_144&#45;&gt;28_4_150</title>
<path fill="none" stroke="black" d="M87.5,-58.8655C87.5,-54.0189 87.5,-43.2742 87.5,-33.3477"/>
<polygon fill="black" stroke="black" points="91.0001,-33.2154 87.5,-23.2154 84.0001,-33.2154 91.0001,-33.2154"/>
</g>
<!-- 28_4_149 -->
<g id="node5" class="node"><title>28_4_149</title>
<polygon fill="#66cdaa" stroke="black" points="71,-129.763 0,-129.763 0,-106.763 71,-106.763 71,-129.763"/>
<text text-anchor="middle" x="35.5" y="-114.563" font-family="Times,serif" font-size="14.00">28_4_149</text>
</g>
<!-- 28_4_149&#45;&gt;28_4_149x28_4_144 -->
<g id="edge4" class="edge"><title>28_4_149&#45;&gt;28_4_149x28_4_144</title>
<path fill="none" stroke="black" d="M45.7735,-106.642C55.4393,-96.648 69.7498,-81.8521 78.848,-72.4454"/>
<polygon fill="black" stroke="black" points="81.5928,-74.6419 86.0292,-65.0207 76.5612,-69.7754 81.5928,-74.6419"/>
</g>
<!-- 28_4_139 -->
<g id="node7" class="node"><title>28_4_139</title>
<polygon fill="#66cdaa" stroke="black" points="182,-241.29 111,-241.29 111,-218.29 182,-218.29 182,-241.29"/>
<text text-anchor="middle" x="146.5" y="-226.09" font-family="Times,serif" font-size="14.00">28_4_139</text>
</g>
<!-- 28_4_139&#45;&gt;28_4_139x28_4_138 -->
<g id="edge6" class="edge"><title>28_4_139&#45;&gt;28_4_139x28_4_138</title>
<path fill="none" stroke="black" d="M156.774,-218.168C166.439,-208.175 180.75,-193.379 189.848,-183.972"/>
<polygon fill="black" stroke="black" points="192.593,-186.169 197.029,-176.548 187.561,-181.302 192.593,-186.169"/>
</g>
<!-- 28_4_138 -->
<g id="node8" class="node"><title>28_4_138</title>
<ellipse fill="#66cdaa" stroke="black" cx="250.5" cy="-229.79" rx="50.41" ry="16.0303"/>
<text text-anchor="middle" x="250.5" y="-226.09" font-family="Times,serif" font-size="14.00">28_4_138</text>
</g>
<!-- 28_4_138&#45;&gt;28_4_139x28_4_138 -->
<g id="edge7" class="edge"><title>28_4_138&#45;&gt;28_4_139x28_4_138</title>
<path fill="none" stroke="black" d="M236.291,-214.099C226.884,-204.374 214.865,-191.947 206.938,-183.751"/>
<polygon fill="black" stroke="black" points="209.215,-181.071 199.747,-176.316 204.183,-185.937 209.215,-181.071"/>
</g>
<!-- 28_4_12 -->
<g id="node9" class="node"><title>28_4_12</title>
<polygon fill="#66cdaa" stroke="black" points="382.5,-241.29 318.5,-241.29 318.5,-218.29 382.5,-218.29 382.5,-241.29"/>
<text text-anchor="middle" x="350.5" y="-226.09" font-family="Times,serif" font-size="14.00">28_4_12</text>
</g>
<!-- 28_4_13 -->
<g id="node10" class="node"><title>28_4_13</title>
<ellipse fill="#66cdaa" stroke="black" cx="445.5" cy="-229.79" rx="45.011" ry="16.0303"/>
<text text-anchor="middle" x="445.5" y="-226.09" font-family="Times,serif" font-size="14.00">28_4_13</text>
</g>
<!-- 28_4_40 -->
<g id="node11" class="node"><title>28_4_40</title>
<polygon fill="#66cdaa" stroke="black" points="572.5,-241.29 508.5,-241.29 508.5,-218.29 572.5,-218.29 572.5,-241.29"/>
<text text-anchor="middle" x="540.5" y="-226.09" font-family="Times,serif" font-size="14.00">28_4_40</text>
</g>
<!-- 28_4_40x28_4_39 -->
<g id="node12" class="node"><title>28_4_40x28_4_39</title>
<polygon fill="none" stroke="black" points="587.5,-177.527 584,-174.027 587.5,-170.527 591,-174.027 587.5,-177.527"/>
</g>
<!-- 28_4_40&#45;&gt;28_4_40x28_4_39 -->
<g id="edge8" class="edge"><title>28_4_40&#45;&gt;28_4_40x28_4_39</title>
<path fill="none" stroke="black" d="M549.786,-218.168C558.43,-208.28 571.185,-193.69 579.419,-184.271"/>
<polygon fill="black" stroke="black" points="582.224,-186.38 586.171,-176.548 576.954,-181.773 582.224,-186.38"/>
</g>
<!-- 28_4_46 -->
<g id="node13" class="node"><title>28_4_46</title>
<ellipse fill="dimgrey" stroke="black" cx="478.5" cy="-118.263" rx="45.011" ry="16.0303"/>
<text text-anchor="middle" x="478.5" y="-114.563" font-family="Times,serif" font-size="14.00">28_4_46</text>
</g>
<!-- 28_4_40x28_4_39&#45;&gt;28_4_46 -->
<g id="edge9" class="edge"><title>28_4_40x28_4_39&#45;&gt;28_4_46</title>
<path fill="none" stroke="black" d="M585.608,-172.094C577.023,-167.859 540.944,-150.063 513.004,-136.282"/>
<polygon fill="black" stroke="black" points="514.409,-133.073 503.892,-131.788 511.312,-139.351 514.409,-133.073"/>
</g>
<!-- 28_4_45 -->
<g id="node14" class="node"><title>28_4_45</title>
<ellipse fill="dimgrey" stroke="black" cx="587.5" cy="-118.263" rx="45.011" ry="16.0303"/>
<text text-anchor="middle" x="587.5" y="-114.563" font-family="Times,serif" font-size="14.00">28_4_45</text>
</g>
<!-- 28_4_40x28_4_39&#45;&gt;28_4_45 -->
<g id="edge10" class="edge"><title>28_4_40x28_4_39&#45;&gt;28_4_45</title>
<path fill="none" stroke="black" d="M587.5,-170.434C587.5,-165.651 587.5,-154.981 587.5,-144.615"/>
<polygon fill="black" stroke="black" points="591,-144.58 587.5,-134.58 584,-144.58 591,-144.58"/>
</g>
<!-- 28_4_44 -->
<g id="node15" class="node"><title>28_4_44</title>
<polygon fill="dimgrey" stroke="black" points="714.5,-129.763 650.5,-129.763 650.5,-106.763 714.5,-106.763 714.5,-129.763"/>
<text text-anchor="middle" x="682.5" y="-114.563" font-family="Times,serif" font-size="14.00">28_4_44</text>
</g>
<!-- 28_4_40x28_4_39&#45;&gt;28_4_44 -->
<g id="edge11" class="edge"><title>28_4_40x28_4_39&#45;&gt;28_4_44</title>
<path fill="none" stroke="black" d="M589.149,-172.094C596.883,-167.717 630.222,-148.849 654.863,-134.904"/>
<polygon fill="black" stroke="black" points="656.83,-137.813 663.809,-129.841 653.382,-131.721 656.83,-137.813"/>
</g>
<!-- 28_4_39 -->
<g id="node16" class="node"><title>28_4_39</title>
<ellipse fill="#66cdaa" stroke="black" cx="635.5" cy="-229.79" rx="45.011" ry="16.0303"/>
<text text-anchor="middle" x="635.5" y="-226.09" font-family="Times,serif" font-size="14.00">28_4_39</text>
</g>
<!-- 28_4_39&#45;&gt;28_4_40x28_4_39 -->
<g id="edge12" class="edge"><title>28_4_39&#45;&gt;28_4_40x28_4_39</title>
<path fill="none" stroke="black" d="M622.384,-214.099C613.859,-204.551 603.009,-192.398 595.691,-184.202"/>
<polygon fill="black" stroke="black" points="598.181,-181.735 588.911,-176.607 592.96,-186.397 598.181,-181.735"/>
</g>
</g>
</svg>
