<?xml version="1.0" encoding="UTF-8" standalone="no"?>
<!DOCTYPE svg PUBLIC "-//W3C//DTD SVG 1.1//EN"
 "http://www.w3.org/Graphics/SVG/1.1/DTD/svg11.dtd">
<!-- Generated by graphviz version 2.38.0 (20140413.2041)
 -->
<!-- Title: %3 Pages: 1 -->
<svg width="1117pt" height="375pt"
 viewBox="0.00 0.00 1116.89 375.11" xmlns="http://www.w3.org/2000/svg" xmlns:xlink="http://www.w3.org/1999/xlink">
<g id="graph0" class="graph" transform="scale(1 1) rotate(0) translate(4 371.108)">
<title>%3</title>
<polygon fill="white" stroke="none" points="-4,4 -4,-371.108 1112.89,-371.108 1112.89,4 -4,4"/>
<!-- 4_3741_16 -->
<g id="node1" class="node"><title>4_3741_16</title>
<polygon fill="white" stroke="black" points="275.947,-139.29 198.947,-139.29 198.947,-116.29 275.947,-116.29 275.947,-139.29"/>
<text text-anchor="middle" x="237.447" y="-124.09" font-family="Times,serif" font-size="14.00">4_3741_16</text>
</g>
<!-- 4_3741_14x4_3741_12 -->
<g id="node2" class="node"><title>4_3741_14x4_3741_12</title>
<polygon fill="none" stroke="black" points="279.447,-187.054 275.947,-183.554 279.447,-180.054 282.947,-183.554 279.447,-187.054"/>
</g>
<!-- 4_3741_14x4_3741_12&#45;&gt;4_3741_16 -->
<g id="edge1" class="edge"><title>4_3741_14x4_3741_12&#45;&gt;4_3741_16</title>
<path fill="none" stroke="black" d="M278.05,-180.765C274.025,-175.613 262.063,-160.301 252.158,-147.621"/>
<polygon fill="black" stroke="black" points="254.666,-145.146 245.751,-139.42 249.149,-149.455 254.666,-145.146"/>
</g>
<!-- 4_3741_15 -->
<g id="node3" class="node"><title>4_3741_15</title>
<polygon fill="white" stroke="black" points="370.947,-139.29 293.947,-139.29 293.947,-116.29 370.947,-116.29 370.947,-139.29"/>
<text text-anchor="middle" x="332.447" y="-124.09" font-family="Times,serif" font-size="14.00">4_3741_15</text>
</g>
<!-- 4_3741_14x4_3741_12&#45;&gt;4_3741_15 -->
<g id="edge2" class="edge"><title>4_3741_14x4_3741_12&#45;&gt;4_3741_15</title>
<path fill="none" stroke="black" d="M280.757,-181.225C285.395,-176.521 301.449,-160.235 314.45,-147.047"/>
<polygon fill="black" stroke="black" points="317.114,-149.33 321.642,-139.751 312.129,-144.416 317.114,-149.33"/>
</g>
<!-- 4_3741_23 -->
<g id="node4" class="node"><title>4_3741_23</title>
<ellipse fill="white" stroke="black" cx="488.447" cy="-16.2635" rx="54.3945" ry="16.0303"/>
<text text-anchor="middle" x="488.447" y="-12.5635" font-family="Times,serif" font-size="14.00">4_3741_23</text>
</g>
<!-- 4_3741_99x4_3741_4 -->
<g id="node5" class="node"><title>4_3741_99x4_3741_4</title>
<polygon fill="none" stroke="black" points="540.447,-75.5269 536.947,-72.0269 540.447,-68.5269 543.947,-72.0269 540.447,-75.5269"/>
</g>
<!-- 4_3741_99x4_3741_4&#45;&gt;4_3741_23 -->
<g id="edge3" class="edge"><title>4_3741_99x4_3741_4&#45;&gt;4_3741_23</title>
<path fill="none" stroke="black" d="M539.162,-69.6979C535.069,-65.4664 521.912,-51.8629 510.025,-39.5729"/>
<polygon fill="black" stroke="black" points="512.348,-36.9407 502.88,-32.186 507.317,-41.8073 512.348,-36.9407"/>
</g>
<!-- 4_3741_22 -->
<g id="node6" class="node"><title>4_3741_22</title>
<polygon fill="white" stroke="black" points="637.947,-27.7635 560.947,-27.7635 560.947,-4.76346 637.947,-4.76346 637.947,-27.7635"/>
<text text-anchor="middle" x="599.447" y="-12.5635" font-family="Times,serif" font-size="14.00">4_3741_22</text>
</g>
<!-- 4_3741_99x4_3741_4&#45;&gt;4_3741_22 -->
<g id="edge4" class="edge"><title>4_3741_99x4_3741_4&#45;&gt;4_3741_22</title>
<path fill="none" stroke="black" d="M541.906,-69.6979C547.146,-64.9227 565.484,-48.2122 580.067,-34.9232"/>
<polygon fill="black" stroke="black" points="582.642,-37.3124 587.676,-27.9899 577.927,-32.1384 582.642,-37.3124"/>
</g>
<!-- 4_3741_17 -->
<g id="node7" class="node"><title>4_3741_17</title>
<polygon fill="white" stroke="black" points="776.947,-139.29 699.947,-139.29 699.947,-116.29 776.947,-116.29 776.947,-139.29"/>
<text text-anchor="middle" x="738.447" y="-124.09" font-family="Times,serif" font-size="14.00">4_3741_17</text>
</g>
<!-- 4_3741_17x4_3741_3 -->
<g id="node8" class="node"><title>4_3741_17x4_3741_3</title>
<polygon fill="none" stroke="black" points="818.447,-75.5269 814.947,-72.0269 818.447,-68.5269 821.947,-72.0269 818.447,-75.5269"/>
</g>
<!-- 4_3741_17&#45;&gt;4_3741_17x4_3741_3 -->
<g id="edge5" class="edge"><title>4_3741_17&#45;&gt;4_3741_17x4_3741_3</title>
<path fill="none" stroke="black" d="M754.253,-116.168C770.19,-105.458 794.336,-89.2305 808.021,-80.034"/>
<polygon fill="black" stroke="black" points="810.298,-82.7209 816.645,-74.238 806.393,-76.911 810.298,-82.7209"/>
</g>
<!-- 4_3741_18 -->
<g id="node9" class="node"><title>4_3741_18</title>
<polygon fill="white" stroke="black" points="759.947,-27.7635 682.947,-27.7635 682.947,-4.76346 759.947,-4.76346 759.947,-27.7635"/>
<text text-anchor="middle" x="721.447" y="-12.5635" font-family="Times,serif" font-size="14.00">4_3741_18</text>
</g>
<!-- 4_3741_17x4_3741_3&#45;&gt;4_3741_18 -->
<g id="edge6" class="edge"><title>4_3741_17x4_3741_3&#45;&gt;4_3741_18</title>
<path fill="none" stroke="black" d="M816.764,-70.0937C808.832,-65.6975 774.526,-46.6829 749.335,-32.7203"/>
<polygon fill="black" stroke="black" points="750.975,-29.6279 740.532,-27.8413 747.581,-35.7503 750.975,-29.6279"/>
</g>
<!-- 4_3741_21 -->
<g id="node10" class="node"><title>4_3741_21</title>
<polygon fill="white" stroke="black" points="854.947,-27.7635 777.947,-27.7635 777.947,-4.76346 854.947,-4.76346 854.947,-27.7635"/>
<text text-anchor="middle" x="816.447" y="-12.5635" font-family="Times,serif" font-size="14.00">4_3741_21</text>
</g>
<!-- 4_3741_17x4_3741_3&#45;&gt;4_3741_21 -->
<g id="edge7" class="edge"><title>4_3741_17x4_3741_3&#45;&gt;4_3741_21</title>
<path fill="none" stroke="black" d="M818.351,-68.4338C818.147,-62.9657 817.658,-49.8005 817.226,-38.1938"/>
<polygon fill="black" stroke="black" points="820.71,-37.7082 816.841,-27.8453 813.715,-37.9685 820.71,-37.7082"/>
</g>
<!-- 4_3741_20 -->
<g id="node15" class="node"><title>4_3741_20</title>
<ellipse fill="white" stroke="black" cx="927.447" cy="-16.2635" rx="54.3945" ry="16.0303"/>
<text text-anchor="middle" x="927.447" y="-12.5635" font-family="Times,serif" font-size="14.00">4_3741_20</text>
</g>
<!-- 4_3741_17x4_3741_3&#45;&gt;4_3741_20 -->
<g id="edge10" class="edge"><title>4_3741_17x4_3741_3&#45;&gt;4_3741_20</title>
<path fill="none" stroke="black" d="M820.339,-70.0937C828.771,-65.9346 863.731,-48.6909 891.448,-35.0199"/>
<polygon fill="black" stroke="black" points="893.101,-38.1073 900.521,-30.5447 890.004,-31.8294 893.101,-38.1073"/>
</g>
<!-- 4_3741_19 -->
<g id="node21" class="node"><title>4_3741_19</title>
<ellipse fill="white" stroke="black" cx="1054.45" cy="-16.2635" rx="54.3945" ry="16.0303"/>
<text text-anchor="middle" x="1054.45" y="-12.5635" font-family="Times,serif" font-size="14.00">4_3741_19</text>
</g>
<!-- 4_3741_17x4_3741_3&#45;&gt;4_3741_19 -->
<g id="edge17" class="edge"><title>4_3741_17x4_3741_3&#45;&gt;4_3741_19</title>
<path fill="none" stroke="black" d="M820.875,-70.4968C836.216,-67.1444 921.279,-48.5153 990.447,-32.5269 994.758,-31.5304 999.23,-30.4861 1003.71,-29.4311"/>
<polygon fill="black" stroke="black" points="1004.57,-32.8255 1013.5,-27.1193 1002.96,-26.0131 1004.57,-32.8255"/>
</g>
<!-- 4_3741_6 -->
<g id="node11" class="node"><title>4_3741_6</title>
<ellipse fill="white" stroke="black" cx="783.447" cy="-350.844" rx="50.41" ry="16.0303"/>
<text text-anchor="middle" x="783.447" y="-347.144" font-family="Times,serif" font-size="14.00">4_3741_6</text>
</g>
<!-- 4_3741_5x4_3741_6 -->
<g id="node12" class="node"><title>4_3741_5x4_3741_6</title>
<polygon fill="none" stroke="black" points="835.447,-298.581 831.947,-295.081 835.447,-291.581 838.947,-295.081 835.447,-298.581"/>
</g>
<!-- 4_3741_6&#45;&gt;4_3741_5x4_3741_6 -->
<g id="edge8" class="edge"><title>4_3741_6&#45;&gt;4_3741_5x4_3741_6</title>
<path fill="none" stroke="black" d="M797.656,-335.153C807.063,-325.428 819.082,-313.001 827.01,-304.804"/>
<polygon fill="black" stroke="black" points="829.764,-306.991 834.2,-297.37 824.732,-302.125 829.764,-306.991"/>
</g>
<!-- 4_3741_8 -->
<g id="node19" class="node"><title>4_3741_8</title>
<polygon fill="white" stroke="black" points="766.947,-250.817 695.947,-250.817 695.947,-227.817 766.947,-227.817 766.947,-250.817"/>
<text text-anchor="middle" x="731.447" y="-235.617" font-family="Times,serif" font-size="14.00">4_3741_8</text>
</g>
<!-- 4_3741_5x4_3741_6&#45;&gt;4_3741_8 -->
<g id="edge14" class="edge"><title>4_3741_5x4_3741_6&#45;&gt;4_3741_8</title>
<path fill="none" stroke="black" d="M833.642,-293.148C825.101,-288.732 788.033,-269.57 760.992,-255.591"/>
<polygon fill="black" stroke="black" points="762.399,-252.378 751.909,-250.895 759.185,-258.597 762.399,-252.378"/>
</g>
<!-- 4_3741_7 -->
<g id="node23" class="node"><title>4_3741_7</title>
<ellipse fill="white" stroke="black" cx="835.447" cy="-239.317" rx="50.41" ry="16.0303"/>
<text text-anchor="middle" x="835.447" y="-235.617" font-family="Times,serif" font-size="14.00">4_3741_7</text>
</g>
<!-- 4_3741_5x4_3741_6&#45;&gt;4_3741_7 -->
<g id="edge19" class="edge"><title>4_3741_5x4_3741_6&#45;&gt;4_3741_7</title>
<path fill="none" stroke="black" d="M835.447,-291.488C835.447,-286.705 835.447,-276.035 835.447,-265.669"/>
<polygon fill="black" stroke="black" points="838.947,-265.634 835.447,-255.634 831.947,-265.634 838.947,-265.634"/>
</g>
<!-- 4_3741_1 -->
<g id="node27" class="node"><title>4_3741_1</title>
<polygon fill="white" stroke="black" points="974.947,-250.817 903.947,-250.817 903.947,-227.817 974.947,-227.817 974.947,-250.817"/>
<text text-anchor="middle" x="939.447" y="-235.617" font-family="Times,serif" font-size="14.00">4_3741_1</text>
</g>
<!-- 4_3741_5x4_3741_6&#45;&gt;4_3741_1 -->
<g id="edge22" class="edge"><title>4_3741_5x4_3741_6&#45;&gt;4_3741_1</title>
<path fill="none" stroke="black" d="M837.252,-293.148C845.794,-288.732 882.862,-269.57 909.902,-255.591"/>
<polygon fill="black" stroke="black" points="911.71,-258.597 918.986,-250.895 908.495,-252.378 911.71,-258.597"/>
</g>
<!-- 4_3741_10 -->
<g id="node13" class="node"><title>4_3741_10</title>
<ellipse fill="white" stroke="black" cx="127.447" cy="-350.844" rx="54.3945" ry="16.0303"/>
<text text-anchor="middle" x="127.447" y="-347.144" font-family="Times,serif" font-size="14.00">4_3741_10</text>
</g>
<!-- 4_3741_9x4_3741_10 -->
<g id="node14" class="node"><title>4_3741_9x4_3741_10</title>
<polygon fill="none" stroke="black" points="181.447,-298.581 177.947,-295.081 181.447,-291.581 184.947,-295.081 181.447,-298.581"/>
</g>
<!-- 4_3741_10&#45;&gt;4_3741_9x4_3741_10 -->
<g id="edge9" class="edge"><title>4_3741_10&#45;&gt;4_3741_9x4_3741_10</title>
<path fill="none" stroke="black" d="M142.203,-335.153C152.079,-325.321 164.727,-312.728 172.955,-304.536"/>
<polygon fill="black" stroke="black" points="175.535,-306.906 180.152,-297.37 170.596,-301.945 175.535,-306.906"/>
</g>
<!-- 4_3741_11 -->
<g id="node18" class="node"><title>4_3741_11</title>
<ellipse fill="white" stroke="black" cx="54.4472" cy="-239.317" rx="54.3945" ry="16.0303"/>
<text text-anchor="middle" x="54.4472" y="-235.617" font-family="Times,serif" font-size="14.00">4_3741_11</text>
</g>
<!-- 4_3741_9x4_3741_10&#45;&gt;4_3741_11 -->
<g id="edge13" class="edge"><title>4_3741_9x4_3741_10&#45;&gt;4_3741_11</title>
<path fill="none" stroke="black" d="M179.652,-293.321C170.377,-289.394 127.047,-271.051 93.9338,-257.033"/>
<polygon fill="black" stroke="black" points="95.0423,-253.702 84.469,-253.027 92.3134,-260.148 95.0423,-253.702"/>
</g>
<!-- 4_3741_12 -->
<g id="node20" class="node"><title>4_3741_12</title>
<ellipse fill="white" stroke="black" cx="181.447" cy="-239.317" rx="54.3945" ry="16.0303"/>
<text text-anchor="middle" x="181.447" y="-235.617" font-family="Times,serif" font-size="14.00">4_3741_12</text>
</g>
<!-- 4_3741_9x4_3741_10&#45;&gt;4_3741_12 -->
<g id="edge15" class="edge"><title>4_3741_9x4_3741_10&#45;&gt;4_3741_12</title>
<path fill="none" stroke="black" d="M181.447,-291.488C181.447,-286.705 181.447,-276.035 181.447,-265.669"/>
<polygon fill="black" stroke="black" points="184.947,-265.634 181.447,-255.634 177.947,-265.634 184.947,-265.634"/>
</g>
<!-- 4_3741_13 -->
<g id="node22" class="node"><title>4_3741_13</title>
<ellipse fill="white" stroke="black" cx="308.447" cy="-239.317" rx="54.3945" ry="16.0303"/>
<text text-anchor="middle" x="308.447" y="-235.617" font-family="Times,serif" font-size="14.00">4_3741_13</text>
</g>
<!-- 4_3741_9x4_3741_10&#45;&gt;4_3741_13 -->
<g id="edge18" class="edge"><title>4_3741_9x4_3741_10&#45;&gt;4_3741_13</title>
<path fill="none" stroke="black" d="M183.243,-293.321C192.517,-289.394 235.847,-271.051 268.961,-257.033"/>
<polygon fill="black" stroke="black" points="270.581,-260.148 278.425,-253.027 267.852,-253.702 270.581,-260.148"/>
</g>
<!-- 4_3741_5 -->
<g id="node16" class="node"><title>4_3741_5</title>
<polygon fill="white" stroke="black" points="922.947,-362.344 851.947,-362.344 851.947,-339.344 922.947,-339.344 922.947,-362.344"/>
<text text-anchor="middle" x="887.447" y="-347.144" font-family="Times,serif" font-size="14.00">4_3741_5</text>
</g>
<!-- 4_3741_5&#45;&gt;4_3741_5x4_3741_6 -->
<g id="edge11" class="edge"><title>4_3741_5&#45;&gt;4_3741_5x4_3741_6</title>
<path fill="none" stroke="black" d="M877.174,-339.222C867.508,-329.229 853.197,-314.433 844.099,-305.026"/>
<polygon fill="black" stroke="black" points="846.386,-302.356 836.918,-297.601 841.354,-307.223 846.386,-302.356"/>
</g>
<!-- 4_3741_9 -->
<g id="node17" class="node"><title>4_3741_9</title>
<polygon fill="white" stroke="black" points="270.947,-362.344 199.947,-362.344 199.947,-339.344 270.947,-339.344 270.947,-362.344"/>
<text text-anchor="middle" x="235.447" y="-347.144" font-family="Times,serif" font-size="14.00">4_3741_9</text>
</g>
<!-- 4_3741_9&#45;&gt;4_3741_9x4_3741_10 -->
<g id="edge12" class="edge"><title>4_3741_9&#45;&gt;4_3741_9x4_3741_10</title>
<path fill="none" stroke="black" d="M224.779,-339.222C214.635,-329.124 199.567,-314.121 190.135,-304.731"/>
<polygon fill="black" stroke="black" points="192.531,-302.177 182.975,-297.601 187.592,-307.137 192.531,-302.177"/>
</g>
<!-- 4_3741_12&#45;&gt;4_3741_14x4_3741_12 -->
<g id="edge16" class="edge"><title>4_3741_12&#45;&gt;4_3741_14x4_3741_12</title>
<path fill="none" stroke="black" d="M206.177,-224.75C226.221,-213.754 253.515,-198.781 268.492,-190.564"/>
<polygon fill="black" stroke="black" points="270.406,-193.506 277.49,-185.628 267.039,-187.369 270.406,-193.506"/>
</g>
<!-- 4_3741_14 -->
<g id="node24" class="node"><title>4_3741_14</title>
<polygon fill="white" stroke="black" points="457.947,-250.817 380.947,-250.817 380.947,-227.817 457.947,-227.817 457.947,-250.817"/>
<text text-anchor="middle" x="419.447" y="-235.617" font-family="Times,serif" font-size="14.00">4_3741_14</text>
</g>
<!-- 4_3741_14&#45;&gt;4_3741_14x4_3741_12 -->
<g id="edge20" class="edge"><title>4_3741_14&#45;&gt;4_3741_14x4_3741_12</title>
<path fill="none" stroke="black" d="M391.788,-227.695C361.145,-215.928 313.164,-197.502 291.172,-189.056"/>
<polygon fill="black" stroke="black" points="292.144,-185.681 281.554,-185.363 289.634,-192.215 292.144,-185.681"/>
</g>
<!-- 4_3741_2 -->
<g id="node25" class="node"><title>4_3741_2</title>
<ellipse fill="white" stroke="black" cx="627.447" cy="-239.317" rx="50.41" ry="16.0303"/>
<text text-anchor="middle" x="627.447" y="-235.617" font-family="Times,serif" font-size="14.00">4_3741_2</text>
</g>
<!-- 4_3741_1x4_3741_2 -->
<g id="node26" class="node"><title>4_3741_1x4_3741_2</title>
<polygon fill="none" stroke="black" points="711.447,-187.054 707.947,-183.554 711.447,-180.054 714.947,-183.554 711.447,-187.054"/>
</g>
<!-- 4_3741_2&#45;&gt;4_3741_1x4_3741_2 -->
<g id="edge21" class="edge"><title>4_3741_2&#45;&gt;4_3741_1x4_3741_2</title>
<path fill="none" stroke="black" d="M649.079,-224.472C665.753,-213.8 688.077,-199.512 700.998,-191.242"/>
<polygon fill="black" stroke="black" points="703.252,-193.954 709.788,-185.616 699.479,-188.059 703.252,-193.954"/>
</g>
<!-- 4_3741_99 -->
<g id="node29" class="node"><title>4_3741_99</title>
<polygon fill="#66cdaa" stroke="black" points="681.947,-139.29 604.947,-139.29 604.947,-116.29 681.947,-116.29 681.947,-139.29"/>
<text text-anchor="middle" x="643.447" y="-124.09" font-family="Times,serif" font-size="14.00">4_3741_99</text>
</g>
<!-- 4_3741_1x4_3741_2&#45;&gt;4_3741_99 -->
<g id="edge25" class="edge"><title>4_3741_1x4_3741_2&#45;&gt;4_3741_99</title>
<path fill="none" stroke="black" d="M710.027,-181.431C704.258,-176.869 682.065,-159.323 664.869,-145.727"/>
<polygon fill="black" stroke="black" points="666.938,-142.901 656.922,-139.444 662.596,-148.392 666.938,-142.901"/>
</g>
<!-- 4_3741_3 -->
<g id="node30" class="node"><title>4_3741_3</title>
<ellipse fill="dimgrey" stroke="black" cx="845.447" cy="-127.79" rx="50.41" ry="16.0303"/>
<text text-anchor="middle" x="845.447" y="-124.09" font-family="Times,serif" font-size="14.00">4_3741_3</text>
</g>
<!-- 4_3741_1x4_3741_2&#45;&gt;4_3741_3 -->
<g id="edge27" class="edge"><title>4_3741_1x4_3741_2&#45;&gt;4_3741_3</title>
<path fill="none" stroke="black" d="M713.341,-181.794C723.315,-177.792 770.61,-158.817 805.779,-144.706"/>
<polygon fill="black" stroke="black" points="807.358,-147.844 815.336,-140.872 804.752,-141.347 807.358,-147.844"/>
</g>
<!-- 4_3741_1&#45;&gt;4_3741_1x4_3741_2 -->
<g id="edge23" class="edge"><title>4_3741_1&#45;&gt;4_3741_1x4_3741_2</title>
<path fill="none" stroke="black" d="M910.072,-227.791C904.898,-226.099 899.54,-224.448 894.447,-223.054 830.904,-205.66 753.116,-191.651 723.591,-186.589"/>
<polygon fill="black" stroke="black" points="724.089,-183.124 713.646,-184.914 722.925,-190.027 724.089,-183.124"/>
</g>
<!-- 4_3741_4 -->
<g id="node28" class="node"><title>4_3741_4</title>
<ellipse fill="white" stroke="black" cx="536.447" cy="-127.79" rx="50.41" ry="16.0303"/>
<text text-anchor="middle" x="536.447" y="-124.09" font-family="Times,serif" font-size="14.00">4_3741_4</text>
</g>
<!-- 4_3741_4&#45;&gt;4_3741_99x4_3741_4 -->
<g id="edge24" class="edge"><title>4_3741_4&#45;&gt;4_3741_99x4_3741_4</title>
<path fill="none" stroke="black" d="M537.583,-111.528C538.194,-103.314 538.938,-93.3094 539.515,-85.5571"/>
<polygon fill="black" stroke="black" points="543.006,-85.8115 540.257,-75.5794 536.025,-85.2921 543.006,-85.8115"/>
</g>
<!-- 4_3741_99&#45;&gt;4_3741_99x4_3741_4 -->
<g id="edge26" class="edge"><title>4_3741_99&#45;&gt;4_3741_99x4_3741_4</title>
<path fill="none" stroke="black" d="M623.098,-116.168C601.481,-104.885 568.134,-87.479 551.164,-78.6207"/>
<polygon fill="black" stroke="black" points="552.722,-75.4861 542.238,-73.9615 549.483,-81.6916 552.722,-75.4861"/>
</g>
<!-- 4_3741_3&#45;&gt;4_3741_17x4_3741_3 -->
<g id="edge28" class="edge"><title>4_3741_3&#45;&gt;4_3741_17x4_3741_3</title>
<path fill="none" stroke="black" d="M837.782,-111.528C833.393,-102.787 827.984,-92.0162 824.004,-84.0917"/>
<polygon fill="black" stroke="black" points="826.994,-82.2471 819.379,-74.8815 820.739,-85.3886 826.994,-82.2471"/>
</g>
</g>
</svg>
