<?xml version="1.0" encoding="UTF-8" standalone="no"?>
<!DOCTYPE svg PUBLIC "-//W3C//DTD SVG 1.1//EN"
 "http://www.w3.org/Graphics/SVG/1.1/DTD/svg11.dtd">
<!-- Generated by graphviz version 2.38.0 (20140413.2041)
 -->
<!-- Title: %3 Pages: 1 -->
<svg width="984pt" height="152pt"
 viewBox="0.00 0.00 984.33 152.05" xmlns="http://www.w3.org/2000/svg" xmlns:xlink="http://www.w3.org/1999/xlink">
<g id="graph0" class="graph" transform="scale(1 1) rotate(0) translate(4 148.054)">
<title>%3</title>
<polygon fill="white" stroke="none" points="-4,4 -4,-148.054 980.333,-148.054 980.333,4 -4,4"/>
<!-- 26_DXV_DXV12211 -->
<g id="node1" class="node"><title>26_DXV_DXV12211</title>
<ellipse fill="dimgrey" stroke="black" cx="96.1665" cy="-16.2635" rx="96.3333" ry="16.0303"/>
<text text-anchor="middle" x="96.1665" y="-12.5635" font-family="Times,serif" font-size="14.00">26_DXV_DXV12211</text>
</g>
<!-- 26_DXV_DXV12208x26_DXV_DXV12212 -->
<g id="node2" class="node"><title>26_DXV_DXV12208x26_DXV_DXV12212</title>
<polygon fill="none" stroke="black" points="110.167,-75.5269 106.667,-72.0269 110.167,-68.5269 113.667,-72.0269 110.167,-75.5269"/>
</g>
<!-- 26_DXV_DXV12208x26_DXV_DXV12212&#45;&gt;26_DXV_DXV12211 -->
<g id="edge1" class="edge"><title>26_DXV_DXV12208x26_DXV_DXV12212&#45;&gt;26_DXV_DXV12211</title>
<path fill="none" stroke="black" d="M109.565,-68.7168C108.359,-64.0865 105.526,-53.206 102.774,-42.6372"/>
<polygon fill="black" stroke="black" points="106.123,-41.6093 100.216,-32.8141 99.3489,-43.3734 106.123,-41.6093"/>
</g>
<!-- 26_DXV_DXV12203 -->
<g id="node3" class="node"><title>26_DXV_DXV12203</title>
<ellipse fill="white" stroke="black" cx="306.167" cy="-16.2635" rx="96.3333" ry="16.0303"/>
<text text-anchor="middle" x="306.167" y="-12.5635" font-family="Times,serif" font-size="14.00">26_DXV_DXV12203</text>
</g>
<!-- 26_DXV_DXV12208x26_DXV_DXV12209 -->
<g id="node4" class="node"><title>26_DXV_DXV12208x26_DXV_DXV12209</title>
<polygon fill="none" stroke="black" points="516.167,-75.5269 512.667,-72.0269 516.167,-68.5269 519.667,-72.0269 516.167,-75.5269"/>
</g>
<!-- 26_DXV_DXV12208x26_DXV_DXV12209&#45;&gt;26_DXV_DXV12203 -->
<g id="edge2" class="edge"><title>26_DXV_DXV12208x26_DXV_DXV12209&#45;&gt;26_DXV_DXV12203</title>
<path fill="none" stroke="black" d="M513.808,-70.4231C499.44,-66.7447 422.437,-47.0306 366.385,-32.6804"/>
<polygon fill="black" stroke="black" points="367.089,-29.2478 356.534,-30.1582 365.353,-36.0291 367.089,-29.2478"/>
</g>
<!-- 26_DXV_DXV12202 -->
<g id="node5" class="node"><title>26_DXV_DXV12202</title>
<ellipse fill="dimgrey" stroke="black" cx="516.167" cy="-16.2635" rx="96.3333" ry="16.0303"/>
<text text-anchor="middle" x="516.167" y="-12.5635" font-family="Times,serif" font-size="14.00">26_DXV_DXV12202</text>
</g>
<!-- 26_DXV_DXV12208x26_DXV_DXV12209&#45;&gt;26_DXV_DXV12202 -->
<g id="edge3" class="edge"><title>26_DXV_DXV12208x26_DXV_DXV12209&#45;&gt;26_DXV_DXV12202</title>
<path fill="none" stroke="black" d="M516.167,-68.4338C516.167,-63.6514 516.167,-52.9811 516.167,-42.6151"/>
<polygon fill="black" stroke="black" points="519.667,-42.5799 516.167,-32.58 512.667,-42.58 519.667,-42.5799"/>
</g>
<!-- 26_DXV_DXV12201 -->
<g id="node6" class="node"><title>26_DXV_DXV12201</title>
<polygon fill="dimgrey" stroke="black" points="766.167,-27.7635 630.167,-27.7635 630.167,-4.76346 766.167,-4.76346 766.167,-27.7635"/>
<text text-anchor="middle" x="698.167" y="-12.5635" font-family="Times,serif" font-size="14.00">26_DXV_DXV12201</text>
</g>
<!-- 26_DXV_DXV12208x26_DXV_DXV12209&#45;&gt;26_DXV_DXV12201 -->
<g id="edge4" class="edge"><title>26_DXV_DXV12208x26_DXV_DXV12209&#45;&gt;26_DXV_DXV12201</title>
<path fill="none" stroke="black" d="M518.21,-70.4231C531.254,-66.5701 603.856,-45.123 652.764,-30.6755"/>
<polygon fill="black" stroke="black" points="653.909,-33.9869 662.508,-27.7972 651.926,-27.2737 653.909,-33.9869"/>
</g>
<!-- 26_DXV_DXV12207 -->
<g id="node7" class="node"><title>26_DXV_DXV12207</title>
<ellipse fill="dimgrey" stroke="black" cx="880.167" cy="-16.2635" rx="96.3333" ry="16.0303"/>
<text text-anchor="middle" x="880.167" y="-12.5635" font-family="Times,serif" font-size="14.00">26_DXV_DXV12207</text>
</g>
<!-- 26_DXV_DXV12208x26_DXV_DXV12209&#45;&gt;26_DXV_DXV12207 -->
<g id="edge5" class="edge"><title>26_DXV_DXV12208x26_DXV_DXV12209&#45;&gt;26_DXV_DXV12207</title>
<path fill="none" stroke="black" d="M518.491,-70.6836C539.652,-67.558 700.45,-43.808 800.388,-29.0469"/>
<polygon fill="black" stroke="black" points="801.08,-32.4827 810.461,-27.559 800.057,-25.5578 801.08,-32.4827"/>
</g>
<!-- 26_DXV_DXV12208 -->
<g id="node8" class="node"><title>26_DXV_DXV12208</title>
<polygon fill="white" stroke="black" points="374.167,-139.29 238.167,-139.29 238.167,-116.29 374.167,-116.29 374.167,-139.29"/>
<text text-anchor="middle" x="306.167" y="-124.09" font-family="Times,serif" font-size="14.00">26_DXV_DXV12208</text>
</g>
<!-- 26_DXV_DXV12208&#45;&gt;26_DXV_DXV12208x26_DXV_DXV12212 -->
<g id="edge6" class="edge"><title>26_DXV_DXV12208&#45;&gt;26_DXV_DXV12208x26_DXV_DXV12212</title>
<path fill="none" stroke="black" d="M267.443,-116.168C222.37,-103.805 150.5,-84.0904 122.189,-76.3246"/>
<polygon fill="black" stroke="black" points="122.864,-72.8807 112.295,-73.6107 121.013,-79.6314 122.864,-72.8807"/>
</g>
<!-- 26_DXV_DXV12208&#45;&gt;26_DXV_DXV12208x26_DXV_DXV12209 -->
<g id="edge7" class="edge"><title>26_DXV_DXV12208&#45;&gt;26_DXV_DXV12208x26_DXV_DXV12209</title>
<path fill="none" stroke="black" d="M347.405,-116.233C396.101,-103.766 474.243,-83.76 504.067,-76.1247"/>
<polygon fill="black" stroke="black" points="505.061,-79.4831 513.88,-73.6122 503.325,-72.7018 505.061,-79.4831"/>
</g>
<!-- 26_DXV_DXV12209 -->
<g id="node9" class="node"><title>26_DXV_DXV12209</title>
<ellipse fill="white" stroke="black" cx="516.167" cy="-127.79" rx="96.3333" ry="16.0303"/>
<text text-anchor="middle" x="516.167" y="-124.09" font-family="Times,serif" font-size="14.00">26_DXV_DXV12209</text>
</g>
<!-- 26_DXV_DXV12209&#45;&gt;26_DXV_DXV12208x26_DXV_DXV12209 -->
<g id="edge8" class="edge"><title>26_DXV_DXV12209&#45;&gt;26_DXV_DXV12208x26_DXV_DXV12209</title>
<path fill="none" stroke="black" d="M516.167,-111.24C516.167,-103.134 516.167,-93.3455 516.167,-85.7049"/>
<polygon fill="black" stroke="black" points="519.667,-85.5501 516.167,-75.5502 512.667,-85.5502 519.667,-85.5501"/>
</g>
<!-- 26_DXV_DXV12212 -->
<g id="node10" class="node"><title>26_DXV_DXV12212</title>
<ellipse fill="white" stroke="black" cx="110.167" cy="-127.79" rx="96.3333" ry="16.0303"/>
<text text-anchor="middle" x="110.167" y="-124.09" font-family="Times,serif" font-size="14.00">26_DXV_DXV12212</text>
</g>
<!-- 26_DXV_DXV12212&#45;&gt;26_DXV_DXV12208x26_DXV_DXV12212 -->
<g id="edge9" class="edge"><title>26_DXV_DXV12212&#45;&gt;26_DXV_DXV12208x26_DXV_DXV12212</title>
<path fill="none" stroke="black" d="M110.167,-111.24C110.167,-103.134 110.167,-93.3455 110.167,-85.7049"/>
<polygon fill="black" stroke="black" points="113.667,-85.5501 110.167,-75.5502 106.667,-85.5502 113.667,-85.5501"/>
</g>
</g>
</svg>
