<?xml version="1.0" encoding="UTF-8" standalone="no"?>
<!DOCTYPE svg PUBLIC "-//W3C//DTD SVG 1.1//EN"
 "http://www.w3.org/Graphics/SVG/1.1/DTD/svg11.dtd">
<!-- Generated by graphviz version 2.38.0 (20140413.2041)
 -->
<!-- Title: %3 Pages: 1 -->
<svg width="3532pt" height="375pt"
 viewBox="0.00 0.00 3532.30 375.11" xmlns="http://www.w3.org/2000/svg" xmlns:xlink="http://www.w3.org/1999/xlink">
<g id="graph0" class="graph" transform="scale(1 1) rotate(0) translate(4 371.108)">
<title>%3</title>
<polygon fill="white" stroke="none" points="-4,4 -4,-371.108 3528.3,-371.108 3528.3,4 -4,4"/>
<!-- 27_131_85057 -->
<g id="node1" class="node"><title>27_131_85057</title>
<polygon fill="white" stroke="black" points="2980,-27.7635 2882,-27.7635 2882,-4.76346 2980,-4.76346 2980,-27.7635"/>
<text text-anchor="middle" x="2931" y="-12.5635" font-family="Times,serif" font-size="14.00">27_131_85057</text>
</g>
<!-- 27_131_85031x27_131_85094 -->
<g id="node2" class="node"><title>27_131_85031x27_131_85094</title>
<polygon fill="none" stroke="black" points="2999,-75.5269 2995.5,-72.0269 2999,-68.5269 3002.5,-72.0269 2999,-75.5269"/>
</g>
<!-- 27_131_85031x27_131_85094&#45;&gt;27_131_85057 -->
<g id="edge1" class="edge"><title>27_131_85031x27_131_85094&#45;&gt;27_131_85057</title>
<path fill="none" stroke="black" d="M2997.58,-69.904C2991.81,-65.3425 2969.62,-47.7959 2952.42,-34.2002"/>
<polygon fill="black" stroke="black" points="2954.49,-31.3741 2944.48,-27.9175 2950.15,-36.8652 2954.49,-31.3741"/>
</g>
<!-- 27_131_86482 -->
<g id="node18" class="node"><title>27_131_86482</title>
<ellipse fill="#66cdaa" stroke="black" cx="3067" cy="-16.2635" rx="69.0935" ry="16.0303"/>
<text text-anchor="middle" x="3067" y="-12.5635" font-family="Times,serif" font-size="14.00">27_131_86482</text>
</g>
<!-- 27_131_85031x27_131_85094&#45;&gt;27_131_86482 -->
<g id="edge16" class="edge"><title>27_131_85031x27_131_85094&#45;&gt;27_131_86482</title>
<path fill="none" stroke="black" d="M3000.42,-69.904C3005.59,-65.8206 3023.91,-51.3312 3040.03,-38.5855"/>
<polygon fill="black" stroke="black" points="3042.51,-41.0913 3048.18,-32.1437 3038.16,-35.6002 3042.51,-41.0913"/>
</g>
<!-- 27_131_85067 -->
<g id="node19" class="node"><title>27_131_85067</title>
<polygon fill="white" stroke="black" points="3252,-27.7635 3154,-27.7635 3154,-4.76346 3252,-4.76346 3252,-27.7635"/>
<text text-anchor="middle" x="3203" y="-12.5635" font-family="Times,serif" font-size="14.00">27_131_85067</text>
</g>
<!-- 27_131_85031x27_131_85094&#45;&gt;27_131_85067 -->
<g id="edge17" class="edge"><title>27_131_85031x27_131_85094&#45;&gt;27_131_85067</title>
<path fill="none" stroke="black" d="M3001.29,-70.4231C3016,-66.546 3098.31,-44.8537 3153.14,-30.4049"/>
<polygon fill="black" stroke="black" points="3154.25,-33.7302 3163.03,-27.7972 3152.47,-26.9613 3154.25,-33.7302"/>
</g>
<!-- 27_131_85068 -->
<g id="node41" class="node"><title>27_131_85068</title>
<polygon fill="white" stroke="black" points="3368,-27.7635 3270,-27.7635 3270,-4.76346 3368,-4.76346 3368,-27.7635"/>
<text text-anchor="middle" x="3319" y="-12.5635" font-family="Times,serif" font-size="14.00">27_131_85068</text>
</g>
<!-- 27_131_85031x27_131_85094&#45;&gt;27_131_85068 -->
<g id="edge36" class="edge"><title>27_131_85031x27_131_85094&#45;&gt;27_131_85068</title>
<path fill="none" stroke="black" d="M3001.6,-70.7565C3021.73,-68.6412 3154.7,-54.2543 3261,-32.5269 3264.42,-31.8281 3267.94,-31.0506 3271.47,-30.2271"/>
<polygon fill="black" stroke="black" points="3272.5,-33.5775 3281.39,-27.8113 3270.85,-26.7762 3272.5,-33.5775"/>
</g>
<!-- 27_131_85139 -->
<g id="node47" class="node"><title>27_131_85139</title>
<ellipse fill="white" stroke="black" cx="3455" cy="-16.2635" rx="69.0935" ry="16.0303"/>
<text text-anchor="middle" x="3455" y="-12.5635" font-family="Times,serif" font-size="14.00">27_131_85139</text>
</g>
<!-- 27_131_85031x27_131_85094&#45;&gt;27_131_85139 -->
<g id="edge42" class="edge"><title>27_131_85031x27_131_85094&#45;&gt;27_131_85139</title>
<path fill="none" stroke="black" d="M3001.41,-70.867C3025.2,-69.2707 3220.4,-55.7738 3377,-32.5269 3382.86,-31.6572 3388.94,-30.6501 3395.02,-29.5761"/>
<polygon fill="black" stroke="black" points="3395.98,-32.9589 3405.18,-27.7179 3394.72,-26.073 3395.98,-32.9589"/>
</g>
<!-- 27_131_85059 -->
<g id="node51" class="node"><title>27_131_85059</title>
<ellipse fill="white" stroke="black" cx="2638" cy="-16.2635" rx="69.0935" ry="16.0303"/>
<text text-anchor="middle" x="2638" y="-12.5635" font-family="Times,serif" font-size="14.00">27_131_85059</text>
</g>
<!-- 27_131_85031x27_131_85094&#45;&gt;27_131_85059 -->
<g id="edge48" class="edge"><title>27_131_85031x27_131_85094&#45;&gt;27_131_85059</title>
<path fill="none" stroke="black" d="M2996.73,-70.7662C2977.06,-68.4913 2833.04,-51.6427 2717,-32.5269 2710.94,-31.5286 2704.63,-30.4229 2698.34,-29.2762"/>
<polygon fill="black" stroke="black" points="2698.97,-25.8338 2688.5,-27.4501 2697.69,-32.7162 2698.97,-25.8338"/>
</g>
<!-- 27_131_85060 -->
<g id="node59" class="node"><title>27_131_85060</title>
<ellipse fill="white" stroke="black" cx="2795" cy="-16.2635" rx="69.0935" ry="16.0303"/>
<text text-anchor="middle" x="2795" y="-12.5635" font-family="Times,serif" font-size="14.00">27_131_85060</text>
</g>
<!-- 27_131_85031x27_131_85094&#45;&gt;27_131_85060 -->
<g id="edge57" class="edge"><title>27_131_85031x27_131_85094&#45;&gt;27_131_85060</title>
<path fill="none" stroke="black" d="M2996.71,-70.4231C2982.37,-66.6437 2903.8,-45.9361 2849.06,-31.5111"/>
<polygon fill="black" stroke="black" points="2849.7,-28.0603 2839.14,-28.8962 2847.92,-34.8292 2849.7,-28.0603"/>
</g>
<!-- 27_131_85062 -->
<g id="node3" class="node"><title>27_131_85062</title>
<ellipse fill="white" stroke="black" cx="1630" cy="-16.2635" rx="69.0935" ry="16.0303"/>
<text text-anchor="middle" x="1630" y="-12.5635" font-family="Times,serif" font-size="14.00">27_131_85062</text>
</g>
<!-- 27_131_85096x27_131_85041 -->
<g id="node4" class="node"><title>27_131_85096x27_131_85041</title>
<polygon fill="none" stroke="black" points="1687,-75.5269 1683.5,-72.0269 1687,-68.5269 1690.5,-72.0269 1687,-75.5269"/>
</g>
<!-- 27_131_85096x27_131_85041&#45;&gt;27_131_85062 -->
<g id="edge2" class="edge"><title>27_131_85096x27_131_85041&#45;&gt;27_131_85062</title>
<path fill="none" stroke="black" d="M1685.59,-69.6979C1681.06,-65.4265 1666.41,-51.6053 1653.28,-39.2255"/>
<polygon fill="black" stroke="black" points="1655.5,-36.5015 1645.82,-32.186 1650.69,-41.5937 1655.5,-36.5015"/>
</g>
<!-- 27_131_85054 -->
<g id="node55" class="node"><title>27_131_85054</title>
<polygon fill="white" stroke="black" points="1815,-27.7635 1717,-27.7635 1717,-4.76346 1815,-4.76346 1815,-27.7635"/>
<text text-anchor="middle" x="1766" y="-12.5635" font-family="Times,serif" font-size="14.00">27_131_85054</text>
</g>
<!-- 27_131_85096x27_131_85041&#45;&gt;27_131_85054 -->
<g id="edge52" class="edge"><title>27_131_85096x27_131_85041&#45;&gt;27_131_85054</title>
<path fill="none" stroke="black" d="M1688.65,-69.904C1695.44,-65.2803 1721.84,-47.3149 1741.93,-33.6462"/>
<polygon fill="black" stroke="black" points="1744.05,-36.4373 1750.34,-27.9175 1740.11,-30.6503 1744.05,-36.4373"/>
</g>
<!-- 27_131_85046 -->
<g id="node5" class="node"><title>27_131_85046</title>
<ellipse fill="dimgrey" stroke="black" cx="233" cy="-127.79" rx="69.0935" ry="16.0303"/>
<text text-anchor="middle" x="233" y="-124.09" font-family="Times,serif" font-size="14.00">27_131_85046</text>
</g>
<!-- 27_131_85099x27_131_85046 -->
<g id="node7" class="node"><title>27_131_85099x27_131_85046</title>
<polygon fill="none" stroke="black" points="233,-75.5269 229.5,-72.0269 233,-68.5269 236.5,-72.0269 233,-75.5269"/>
</g>
<!-- 27_131_85046&#45;&gt;27_131_85099x27_131_85046 -->
<g id="edge4" class="edge"><title>27_131_85046&#45;&gt;27_131_85099x27_131_85046</title>
<path fill="none" stroke="black" d="M233,-111.24C233,-103.134 233,-93.3455 233,-85.7049"/>
<polygon fill="black" stroke="black" points="236.5,-85.5501 233,-75.5502 229.5,-85.5502 236.5,-85.5501"/>
</g>
<!-- 27_131_85037x27_131_85036 -->
<g id="node6" class="node"><title>27_131_85037x27_131_85036</title>
<polygon fill="none" stroke="black" points="1473,-187.054 1469.5,-183.554 1473,-180.054 1476.5,-183.554 1473,-187.054"/>
</g>
<!-- 27_131_85037x27_131_85036&#45;&gt;27_131_85046 -->
<g id="edge3" class="edge"><title>27_131_85037x27_131_85036&#45;&gt;27_131_85046</title>
<path fill="none" stroke="black" d="M1470.4,-182.526C1417.05,-181.952 559.689,-172.322 311,-144.054 304.702,-143.338 298.152,-142.387 291.645,-141.31"/>
<polygon fill="black" stroke="black" points="291.95,-137.81 281.495,-139.527 290.738,-144.704 291.95,-137.81"/>
</g>
<!-- 27_131_85050 -->
<g id="node10" class="node"><title>27_131_85050</title>
<ellipse fill="dimgrey" stroke="black" cx="772" cy="-127.79" rx="69.0935" ry="16.0303"/>
<text text-anchor="middle" x="772" y="-124.09" font-family="Times,serif" font-size="14.00">27_131_85050</text>
</g>
<!-- 27_131_85037x27_131_85036&#45;&gt;27_131_85050 -->
<g id="edge6" class="edge"><title>27_131_85037x27_131_85036&#45;&gt;27_131_85050</title>
<path fill="none" stroke="black" d="M1470.36,-182.525C1437.86,-182.143 1111.19,-177.533 850,-144.054 843.803,-143.259 837.357,-142.269 830.945,-141.176"/>
<polygon fill="black" stroke="black" points="831.398,-137.701 820.938,-139.387 830.167,-144.592 831.398,-137.701"/>
</g>
<!-- 27_131_85047 -->
<g id="node12" class="node"><title>27_131_85047</title>
<ellipse fill="dimgrey" stroke="black" cx="1337" cy="-127.79" rx="69.0935" ry="16.0303"/>
<text text-anchor="middle" x="1337" y="-124.09" font-family="Times,serif" font-size="14.00">27_131_85047</text>
</g>
<!-- 27_131_85037x27_131_85036&#45;&gt;27_131_85047 -->
<g id="edge8" class="edge"><title>27_131_85037x27_131_85036&#45;&gt;27_131_85047</title>
<path fill="none" stroke="black" d="M1471.08,-181.794C1461.25,-177.909 1415.72,-159.91 1380.41,-145.952"/>
<polygon fill="black" stroke="black" points="1381.35,-142.559 1370.76,-142.137 1378.78,-149.069 1381.35,-142.559"/>
</g>
<!-- 27_131_85041 -->
<g id="node15" class="node"><title>27_131_85041</title>
<ellipse fill="dimgrey" stroke="black" cx="1609" cy="-127.79" rx="69.0935" ry="16.0303"/>
<text text-anchor="middle" x="1609" y="-124.09" font-family="Times,serif" font-size="14.00">27_131_85041</text>
</g>
<!-- 27_131_85037x27_131_85036&#45;&gt;27_131_85041 -->
<g id="edge11" class="edge"><title>27_131_85037x27_131_85036&#45;&gt;27_131_85041</title>
<path fill="none" stroke="black" d="M1474.92,-181.794C1484.75,-177.909 1530.28,-159.91 1565.59,-145.952"/>
<polygon fill="black" stroke="black" points="1567.22,-149.069 1575.24,-142.137 1564.65,-142.559 1567.22,-149.069"/>
</g>
<!-- 27_131_85031 -->
<g id="node16" class="node"><title>27_131_85031</title>
<polygon fill="white" stroke="black" points="3048,-139.29 2950,-139.29 2950,-116.29 3048,-116.29 3048,-139.29"/>
<text text-anchor="middle" x="2999" y="-124.09" font-family="Times,serif" font-size="14.00">27_131_85031</text>
</g>
<!-- 27_131_85037x27_131_85036&#45;&gt;27_131_85031 -->
<g id="edge13" class="edge"><title>27_131_85037x27_131_85036&#45;&gt;27_131_85031</title>
<path fill="none" stroke="black" d="M1475.53,-182.57C1535,-182.93 2626.77,-188.904 2941,-144.054 2945.41,-143.424 2949.97,-142.579 2954.5,-141.608"/>
<polygon fill="black" stroke="black" points="2955.36,-144.999 2964.3,-139.314 2953.77,-138.183 2955.36,-144.999"/>
</g>
<!-- 27_131_85058 -->
<g id="node17" class="node"><title>27_131_85058</title>
<ellipse fill="dimgrey" stroke="black" cx="2222" cy="-127.79" rx="69.0935" ry="16.0303"/>
<text text-anchor="middle" x="2222" y="-124.09" font-family="Times,serif" font-size="14.00">27_131_85058</text>
</g>
<!-- 27_131_85037x27_131_85036&#45;&gt;27_131_85058 -->
<g id="edge15" class="edge"><title>27_131_85037x27_131_85036&#45;&gt;27_131_85058</title>
<path fill="none" stroke="black" d="M1475.84,-182.54C1510.85,-182.341 1862.68,-179.483 2144,-144.054 2150.2,-143.273 2156.65,-142.291 2163.06,-141.203"/>
<polygon fill="black" stroke="black" points="2163.83,-144.62 2173.07,-139.421 2162.61,-137.729 2163.83,-144.62"/>
</g>
<!-- 27_131_85033 -->
<g id="node49" class="node"><title>27_131_85033</title>
<polygon fill="white" stroke="black" points="2135,-139.29 2037,-139.29 2037,-116.29 2135,-116.29 2135,-139.29"/>
<text text-anchor="middle" x="2086" y="-124.09" font-family="Times,serif" font-size="14.00">27_131_85033</text>
</g>
<!-- 27_131_85037x27_131_85036&#45;&gt;27_131_85033 -->
<g id="edge44" class="edge"><title>27_131_85037x27_131_85036&#45;&gt;27_131_85033</title>
<path fill="none" stroke="black" d="M1475.73,-182.562C1506.82,-182.614 1797.37,-182.052 2028,-144.054 2032.1,-143.378 2036.34,-142.541 2040.56,-141.611"/>
<polygon fill="black" stroke="black" points="2041.41,-145.007 2050.34,-139.3 2039.8,-138.194 2041.41,-145.007"/>
</g>
<!-- 27_131_85032 -->
<g id="node50" class="node"><title>27_131_85032</title>
<polygon fill="white" stroke="black" points="1250,-139.29 1152,-139.29 1152,-116.29 1250,-116.29 1250,-139.29"/>
<text text-anchor="middle" x="1201" y="-124.09" font-family="Times,serif" font-size="14.00">27_131_85032</text>
</g>
<!-- 27_131_85037x27_131_85036&#45;&gt;27_131_85032 -->
<g id="edge46" class="edge"><title>27_131_85037x27_131_85036&#45;&gt;27_131_85032</title>
<path fill="none" stroke="black" d="M1470.44,-182.172C1452.62,-179.5 1345.25,-163.129 1259,-144.054 1255.8,-143.346 1252.51,-142.58 1249.19,-141.783"/>
<polygon fill="black" stroke="black" points="1249.82,-138.332 1239.27,-139.32 1248.13,-145.126 1249.82,-138.332"/>
</g>
<!-- 27_131_85065 -->
<g id="node22" class="node"><title>27_131_85065</title>
<polygon fill="white" stroke="black" points="214,-27.7635 116,-27.7635 116,-4.76346 214,-4.76346 214,-27.7635"/>
<text text-anchor="middle" x="165" y="-12.5635" font-family="Times,serif" font-size="14.00">27_131_85065</text>
</g>
<!-- 27_131_85099x27_131_85046&#45;&gt;27_131_85065 -->
<g id="edge19" class="edge"><title>27_131_85099x27_131_85046&#45;&gt;27_131_85065</title>
<path fill="none" stroke="black" d="M231.58,-69.904C225.81,-65.3425 203.617,-47.7959 186.422,-34.2002"/>
<polygon fill="black" stroke="black" points="188.49,-31.3741 178.475,-27.9175 184.149,-36.8652 188.49,-31.3741"/>
</g>
<!-- 27_131_85093 -->
<g id="node23" class="node"><title>27_131_85093</title>
<ellipse fill="white" stroke="black" cx="301" cy="-16.2635" rx="69.0935" ry="16.0303"/>
<text text-anchor="middle" x="301" y="-12.5635" font-family="Times,serif" font-size="14.00">27_131_85093</text>
</g>
<!-- 27_131_85099x27_131_85046&#45;&gt;27_131_85093 -->
<g id="edge20" class="edge"><title>27_131_85099x27_131_85046&#45;&gt;27_131_85093</title>
<path fill="none" stroke="black" d="M234.42,-69.904C239.585,-65.8206 257.911,-51.3312 274.032,-38.5855"/>
<polygon fill="black" stroke="black" points="276.506,-41.0913 282.18,-32.1437 272.164,-35.6002 276.506,-41.0913"/>
</g>
<!-- 27_131_85076 -->
<g id="node34" class="node"><title>27_131_85076</title>
<polygon fill="dimgrey" stroke="black" points="98,-27.7635 7.10543e-15,-27.7635 7.10543e-15,-4.76346 98,-4.76346 98,-27.7635"/>
<text text-anchor="middle" x="49" y="-12.5635" font-family="Times,serif" font-size="14.00">27_131_85076</text>
</g>
<!-- 27_131_85099x27_131_85046&#45;&gt;27_131_85076 -->
<g id="edge29" class="edge"><title>27_131_85099x27_131_85046&#45;&gt;27_131_85076</title>
<path fill="none" stroke="black" d="M230.934,-70.4231C217.747,-66.5701 144.347,-45.123 94.9014,-30.6755"/>
<polygon fill="black" stroke="black" points="95.631,-27.2424 85.0507,-27.7972 93.6677,-33.9615 95.631,-27.2424"/>
</g>
<!-- 27_131_85358 -->
<g id="node8" class="node"><title>27_131_85358</title>
<polygon fill="#66cdaa" stroke="black" points="1473,-362.344 1375,-362.344 1375,-339.344 1473,-339.344 1473,-362.344"/>
<text text-anchor="middle" x="1424" y="-347.144" font-family="Times,serif" font-size="14.00">27_131_85358</text>
</g>
<!-- 27_131_85358x27_131_85357 -->
<g id="node9" class="node"><title>27_131_85358x27_131_85357</title>
<polygon fill="none" stroke="black" points="1463,-298.581 1459.5,-295.081 1463,-291.581 1466.5,-295.081 1463,-298.581"/>
</g>
<!-- 27_131_85358&#45;&gt;27_131_85358x27_131_85357 -->
<g id="edge5" class="edge"><title>27_131_85358&#45;&gt;27_131_85358x27_131_85357</title>
<path fill="none" stroke="black" d="M1431.71,-339.222C1438.73,-329.544 1449.01,-315.363 1455.85,-305.933"/>
<polygon fill="black" stroke="black" points="1458.86,-307.751 1461.9,-297.601 1453.19,-303.641 1458.86,-307.751"/>
</g>
<!-- 27_131_85092 -->
<g id="node28" class="node"><title>27_131_85092</title>
<ellipse fill="dimgrey" stroke="black" cx="1677" cy="-239.317" rx="69.0935" ry="16.0303"/>
<text text-anchor="middle" x="1677" y="-235.617" font-family="Times,serif" font-size="14.00">27_131_85092</text>
</g>
<!-- 27_131_85358x27_131_85357&#45;&gt;27_131_85092 -->
<g id="edge24" class="edge"><title>27_131_85358x27_131_85357&#45;&gt;27_131_85092</title>
<path fill="none" stroke="black" d="M1465.4,-293.477C1480.56,-289.668 1564.17,-268.664 1621.63,-254.227"/>
<polygon fill="black" stroke="black" points="1622.84,-257.534 1631.68,-251.703 1621.13,-250.745 1622.84,-257.534"/>
</g>
<!-- 27_131_85036 -->
<g id="node58" class="node"><title>27_131_85036</title>
<ellipse fill="#66cdaa" stroke="black" cx="1405" cy="-239.317" rx="69.0935" ry="16.0303"/>
<text text-anchor="middle" x="1405" y="-235.617" font-family="Times,serif" font-size="14.00">27_131_85036</text>
</g>
<!-- 27_131_85358x27_131_85357&#45;&gt;27_131_85036 -->
<g id="edge55" class="edge"><title>27_131_85358x27_131_85357&#45;&gt;27_131_85036</title>
<path fill="none" stroke="black" d="M1461.57,-292.752C1456.96,-288.48 1442.05,-274.659 1428.69,-262.279"/>
<polygon fill="black" stroke="black" points="1430.81,-259.471 1421.1,-255.24 1426.05,-264.605 1430.81,-259.471"/>
</g>
<!-- 27_131_85097x27_131_85050 -->
<g id="node11" class="node"><title>27_131_85097x27_131_85050</title>
<polygon fill="none" stroke="black" points="772,-75.5269 768.5,-72.0269 772,-68.5269 775.5,-72.0269 772,-75.5269"/>
</g>
<!-- 27_131_85050&#45;&gt;27_131_85097x27_131_85050 -->
<g id="edge7" class="edge"><title>27_131_85050&#45;&gt;27_131_85097x27_131_85050</title>
<path fill="none" stroke="black" d="M772,-111.24C772,-103.134 772,-93.3455 772,-85.7049"/>
<polygon fill="black" stroke="black" points="775.5,-85.5501 772,-75.5502 768.5,-85.5502 775.5,-85.5501"/>
</g>
<!-- 27_131_85063 -->
<g id="node14" class="node"><title>27_131_85063</title>
<ellipse fill="dimgrey" stroke="black" cx="772" cy="-16.2635" rx="69.0935" ry="16.0303"/>
<text text-anchor="middle" x="772" y="-12.5635" font-family="Times,serif" font-size="14.00">27_131_85063</text>
</g>
<!-- 27_131_85097x27_131_85050&#45;&gt;27_131_85063 -->
<g id="edge10" class="edge"><title>27_131_85097x27_131_85050&#45;&gt;27_131_85063</title>
<path fill="none" stroke="black" d="M772,-68.4338C772,-63.6514 772,-52.9811 772,-42.6151"/>
<polygon fill="black" stroke="black" points="775.5,-42.5799 772,-32.58 768.5,-42.58 775.5,-42.5799"/>
</g>
<!-- 27_131_85075 -->
<g id="node42" class="node"><title>27_131_85075</title>
<ellipse fill="white" stroke="black" cx="929" cy="-16.2635" rx="69.0935" ry="16.0303"/>
<text text-anchor="middle" x="929" y="-12.5635" font-family="Times,serif" font-size="14.00">27_131_85075</text>
</g>
<!-- 27_131_85097x27_131_85050&#45;&gt;27_131_85075 -->
<g id="edge37" class="edge"><title>27_131_85097x27_131_85050&#45;&gt;27_131_85075</title>
<path fill="none" stroke="black" d="M773.985,-70.3471C785.092,-66.5435 840.524,-47.5615 881.952,-33.3747"/>
<polygon fill="black" stroke="black" points="883.289,-36.6164 891.616,-30.0654 881.021,-29.9939 883.289,-36.6164"/>
</g>
<!-- 27_131_85116 -->
<g id="node48" class="node"><title>27_131_85116</title>
<ellipse fill="white" stroke="black" cx="458" cy="-16.2635" rx="69.0935" ry="16.0303"/>
<text text-anchor="middle" x="458" y="-12.5635" font-family="Times,serif" font-size="14.00">27_131_85116</text>
</g>
<!-- 27_131_85097x27_131_85050&#45;&gt;27_131_85116 -->
<g id="edge43" class="edge"><title>27_131_85097x27_131_85050&#45;&gt;27_131_85116</title>
<path fill="none" stroke="black" d="M769.68,-70.6726C751.723,-67.9249 633.05,-49.6702 537,-32.5269 531.186,-31.4892 525.137,-30.3778 519.09,-29.2456"/>
<polygon fill="black" stroke="black" points="519.433,-25.7484 508.956,-27.3295 518.132,-32.6265 519.433,-25.7484"/>
</g>
<!-- 27_131_85103 -->
<g id="node53" class="node"><title>27_131_85103</title>
<ellipse fill="white" stroke="black" cx="615" cy="-16.2635" rx="69.0935" ry="16.0303"/>
<text text-anchor="middle" x="615" y="-12.5635" font-family="Times,serif" font-size="14.00">27_131_85103</text>
</g>
<!-- 27_131_85097x27_131_85050&#45;&gt;27_131_85103 -->
<g id="edge50" class="edge"><title>27_131_85097x27_131_85050&#45;&gt;27_131_85103</title>
<path fill="none" stroke="black" d="M770.015,-70.3471C758.908,-66.5435 703.476,-47.5615 662.048,-33.3747"/>
<polygon fill="black" stroke="black" points="662.979,-29.9939 652.384,-30.0654 660.711,-36.6164 662.979,-29.9939"/>
</g>
<!-- 27_131_85098x27_131_85047 -->
<g id="node13" class="node"><title>27_131_85098x27_131_85047</title>
<polygon fill="none" stroke="black" points="1337,-75.5269 1333.5,-72.0269 1337,-68.5269 1340.5,-72.0269 1337,-75.5269"/>
</g>
<!-- 27_131_85047&#45;&gt;27_131_85098x27_131_85047 -->
<g id="edge9" class="edge"><title>27_131_85047&#45;&gt;27_131_85098x27_131_85047</title>
<path fill="none" stroke="black" d="M1337,-111.24C1337,-103.134 1337,-93.3455 1337,-85.7049"/>
<polygon fill="black" stroke="black" points="1340.5,-85.5501 1337,-75.5502 1333.5,-85.5502 1340.5,-85.5501"/>
</g>
<!-- 27_131_85061 -->
<g id="node35" class="node"><title>27_131_85061</title>
<polygon fill="white" stroke="black" points="1386,-27.7635 1288,-27.7635 1288,-4.76346 1386,-4.76346 1386,-27.7635"/>
<text text-anchor="middle" x="1337" y="-12.5635" font-family="Times,serif" font-size="14.00">27_131_85061</text>
</g>
<!-- 27_131_85098x27_131_85047&#45;&gt;27_131_85061 -->
<g id="edge30" class="edge"><title>27_131_85098x27_131_85047&#45;&gt;27_131_85061</title>
<path fill="none" stroke="black" d="M1337,-68.4338C1337,-62.9657 1337,-49.8005 1337,-38.1938"/>
<polygon fill="black" stroke="black" points="1340.5,-37.8452 1337,-27.8453 1333.5,-37.8453 1340.5,-37.8452"/>
</g>
<!-- 27_131_85064 -->
<g id="node36" class="node"><title>27_131_85064</title>
<ellipse fill="white" stroke="black" cx="1473" cy="-16.2635" rx="69.0935" ry="16.0303"/>
<text text-anchor="middle" x="1473" y="-12.5635" font-family="Times,serif" font-size="14.00">27_131_85064</text>
</g>
<!-- 27_131_85098x27_131_85047&#45;&gt;27_131_85064 -->
<g id="edge31" class="edge"><title>27_131_85098x27_131_85047&#45;&gt;27_131_85064</title>
<path fill="none" stroke="black" d="M1338.92,-70.2669C1348.75,-66.382 1394.28,-48.3834 1429.59,-34.4252"/>
<polygon fill="black" stroke="black" points="1431.22,-37.5418 1439.24,-30.6105 1428.65,-31.032 1431.22,-37.5418"/>
</g>
<!-- 27_131_85090 -->
<g id="node44" class="node"><title>27_131_85090</title>
<ellipse fill="white" stroke="black" cx="1201" cy="-16.2635" rx="69.0935" ry="16.0303"/>
<text text-anchor="middle" x="1201" y="-12.5635" font-family="Times,serif" font-size="14.00">27_131_85090</text>
</g>
<!-- 27_131_85098x27_131_85047&#45;&gt;27_131_85090 -->
<g id="edge39" class="edge"><title>27_131_85098x27_131_85047&#45;&gt;27_131_85090</title>
<path fill="none" stroke="black" d="M1335.08,-70.2669C1325.25,-66.382 1279.72,-48.3834 1244.41,-34.4252"/>
<polygon fill="black" stroke="black" points="1245.35,-31.032 1234.76,-30.6105 1242.78,-37.5418 1245.35,-31.032"/>
</g>
<!-- 27_131_85041&#45;&gt;27_131_85096x27_131_85041 -->
<g id="edge12" class="edge"><title>27_131_85041&#45;&gt;27_131_85096x27_131_85041</title>
<path fill="none" stroke="black" d="M1630.31,-112.099C1645.63,-101.544 1665.56,-87.8074 1677.25,-79.7494"/>
<polygon fill="black" stroke="black" points="1679.26,-82.6099 1685.51,-74.0529 1675.29,-76.8464 1679.26,-82.6099"/>
</g>
<!-- 27_131_85031&#45;&gt;27_131_85031x27_131_85094 -->
<g id="edge14" class="edge"><title>27_131_85031&#45;&gt;27_131_85031x27_131_85094</title>
<path fill="none" stroke="black" d="M2999,-116.168C2999,-107.416 2999,-94.9805 2999,-85.7075"/>
<polygon fill="black" stroke="black" points="3002.5,-85.6655 2999,-75.6656 2995.5,-85.6656 3002.5,-85.6655"/>
</g>
<!-- 27_131_85069 -->
<g id="node20" class="node"><title>27_131_85069</title>
<polygon fill="white" stroke="black" points="2435,-27.7635 2337,-27.7635 2337,-4.76346 2435,-4.76346 2435,-27.7635"/>
<text text-anchor="middle" x="2386" y="-12.5635" font-family="Times,serif" font-size="14.00">27_131_85069</text>
</g>
<!-- 27_131_85033x27_131_85091 -->
<g id="node21" class="node"><title>27_131_85033x27_131_85091</title>
<polygon fill="none" stroke="black" points="2086,-75.5269 2082.5,-72.0269 2086,-68.5269 2089.5,-72.0269 2086,-75.5269"/>
</g>
<!-- 27_131_85033x27_131_85091&#45;&gt;27_131_85069 -->
<g id="edge18" class="edge"><title>27_131_85033x27_131_85091&#45;&gt;27_131_85069</title>
<path fill="none" stroke="black" d="M2088.4,-70.7375C2106.98,-68.4789 2229.75,-53.2155 2328,-32.5269 2331.36,-31.8189 2334.82,-31.0397 2338.3,-30.2196"/>
<polygon fill="black" stroke="black" points="2339.19,-33.6051 2348.07,-27.8248 2337.52,-26.8063 2339.19,-33.6051"/>
</g>
<!-- 27_131_85073 -->
<g id="node37" class="node"><title>27_131_85073</title>
<polygon fill="white" stroke="black" points="2551,-27.7635 2453,-27.7635 2453,-4.76346 2551,-4.76346 2551,-27.7635"/>
<text text-anchor="middle" x="2502" y="-12.5635" font-family="Times,serif" font-size="14.00">27_131_85073</text>
</g>
<!-- 27_131_85033x27_131_85091&#45;&gt;27_131_85073 -->
<g id="edge32" class="edge"><title>27_131_85033x27_131_85091&#45;&gt;27_131_85073</title>
<path fill="none" stroke="black" d="M2088.58,-70.8983C2112.45,-69.6793 2297.07,-59.6018 2444,-32.5269 2447.7,-31.8453 2451.51,-31.052 2455.33,-30.1923"/>
<polygon fill="black" stroke="black" points="2456.46,-33.5208 2465.37,-27.7922 2454.83,-26.7125 2456.46,-33.5208"/>
</g>
<!-- 27_131_85072 -->
<g id="node38" class="node"><title>27_131_85072</title>
<polygon fill="white" stroke="black" points="1931,-27.7635 1833,-27.7635 1833,-4.76346 1931,-4.76346 1931,-27.7635"/>
<text text-anchor="middle" x="1882" y="-12.5635" font-family="Times,serif" font-size="14.00">27_131_85072</text>
</g>
<!-- 27_131_85033x27_131_85091&#45;&gt;27_131_85072 -->
<g id="edge33" class="edge"><title>27_131_85033x27_131_85091&#45;&gt;27_131_85072</title>
<path fill="none" stroke="black" d="M2083.71,-70.4231C2069,-66.546 1986.69,-44.8537 1931.86,-30.4049"/>
<polygon fill="black" stroke="black" points="1932.53,-26.9613 1921.97,-27.7972 1930.75,-33.7302 1932.53,-26.9613"/>
</g>
<!-- 27_131_85071 -->
<g id="node39" class="node"><title>27_131_85071</title>
<ellipse fill="white" stroke="black" cx="2018" cy="-16.2635" rx="69.0935" ry="16.0303"/>
<text text-anchor="middle" x="2018" y="-12.5635" font-family="Times,serif" font-size="14.00">27_131_85071</text>
</g>
<!-- 27_131_85033x27_131_85091&#45;&gt;27_131_85071 -->
<g id="edge34" class="edge"><title>27_131_85033x27_131_85091&#45;&gt;27_131_85071</title>
<path fill="none" stroke="black" d="M2084.58,-69.904C2079.41,-65.8206 2061.09,-51.3312 2044.97,-38.5855"/>
<polygon fill="black" stroke="black" points="2046.84,-35.6002 2036.82,-32.1437 2042.49,-41.0913 2046.84,-35.6002"/>
</g>
<!-- 27_131_85070 -->
<g id="node40" class="node"><title>27_131_85070</title>
<polygon fill="white" stroke="black" points="2203,-27.7635 2105,-27.7635 2105,-4.76346 2203,-4.76346 2203,-27.7635"/>
<text text-anchor="middle" x="2154" y="-12.5635" font-family="Times,serif" font-size="14.00">27_131_85070</text>
</g>
<!-- 27_131_85033x27_131_85091&#45;&gt;27_131_85070 -->
<g id="edge35" class="edge"><title>27_131_85033x27_131_85091&#45;&gt;27_131_85070</title>
<path fill="none" stroke="black" d="M2087.42,-69.904C2093.19,-65.3425 2115.38,-47.7959 2132.58,-34.2002"/>
<polygon fill="black" stroke="black" points="2134.85,-36.8652 2140.52,-27.9175 2130.51,-31.3741 2134.85,-36.8652"/>
</g>
<!-- 27_131_85074 -->
<g id="node45" class="node"><title>27_131_85074</title>
<polygon fill="white" stroke="black" points="2319,-27.7635 2221,-27.7635 2221,-4.76346 2319,-4.76346 2319,-27.7635"/>
<text text-anchor="middle" x="2270" y="-12.5635" font-family="Times,serif" font-size="14.00">27_131_85074</text>
</g>
<!-- 27_131_85033x27_131_85091&#45;&gt;27_131_85074 -->
<g id="edge40" class="edge"><title>27_131_85033x27_131_85091&#45;&gt;27_131_85074</title>
<path fill="none" stroke="black" d="M2088.07,-70.4231C2101.25,-66.5701 2174.65,-45.123 2224.1,-30.6755"/>
<polygon fill="black" stroke="black" points="2225.33,-33.9615 2233.95,-27.7972 2223.37,-27.2424 2225.33,-33.9615"/>
</g>
<!-- 27_131_85095 -->
<g id="node24" class="node"><title>27_131_85095</title>
<ellipse fill="#66cdaa" stroke="black" cx="1833" cy="-350.844" rx="69.0935" ry="16.0303"/>
<text text-anchor="middle" x="1833" y="-347.144" font-family="Times,serif" font-size="14.00">27_131_85095</text>
</g>
<!-- 27_131_85044x27_131_85095 -->
<g id="node25" class="node"><title>27_131_85044x27_131_85095</title>
<polygon fill="none" stroke="black" points="1891,-298.581 1887.5,-295.081 1891,-291.581 1894.5,-295.081 1891,-298.581"/>
</g>
<!-- 27_131_85095&#45;&gt;27_131_85044x27_131_85095 -->
<g id="edge21" class="edge"><title>27_131_85095&#45;&gt;27_131_85044x27_131_85095</title>
<path fill="none" stroke="black" d="M1849.16,-334.868C1859.87,-324.935 1873.52,-312.285 1882.26,-304.183"/>
<polygon fill="black" stroke="black" points="1884.67,-306.72 1889.63,-297.355 1879.91,-301.586 1884.67,-306.72"/>
</g>
<!-- 27_131_85077 -->
<g id="node32" class="node"><title>27_131_85077</title>
<polygon fill="white" stroke="black" points="1940,-250.817 1842,-250.817 1842,-227.817 1940,-227.817 1940,-250.817"/>
<text text-anchor="middle" x="1891" y="-235.617" font-family="Times,serif" font-size="14.00">27_131_85077</text>
</g>
<!-- 27_131_85044x27_131_85095&#45;&gt;27_131_85077 -->
<g id="edge27" class="edge"><title>27_131_85044x27_131_85095&#45;&gt;27_131_85077</title>
<path fill="none" stroke="black" d="M1891,-291.488C1891,-286.02 1891,-272.854 1891,-261.248"/>
<polygon fill="black" stroke="black" points="1894.5,-260.899 1891,-250.899 1887.5,-260.899 1894.5,-260.899"/>
</g>
<!-- 27_131_85094 -->
<g id="node26" class="node"><title>27_131_85094</title>
<ellipse fill="#66cdaa" stroke="black" cx="2863" cy="-127.79" rx="69.0935" ry="16.0303"/>
<text text-anchor="middle" x="2863" y="-124.09" font-family="Times,serif" font-size="14.00">27_131_85094</text>
</g>
<!-- 27_131_85094&#45;&gt;27_131_85031x27_131_85094 -->
<g id="edge22" class="edge"><title>27_131_85094&#45;&gt;27_131_85031x27_131_85094</title>
<path fill="none" stroke="black" d="M2896.62,-113.501C2926.3,-101.767 2967.84,-85.3446 2987.64,-77.5181"/>
<polygon fill="black" stroke="black" points="2989.15,-80.6832 2997.17,-73.7519 2986.58,-74.1734 2989.15,-80.6832"/>
</g>
<!-- 27_131_85091 -->
<g id="node27" class="node"><title>27_131_85091</title>
<ellipse fill="#66cdaa" stroke="black" cx="1950" cy="-127.79" rx="69.0935" ry="16.0303"/>
<text text-anchor="middle" x="1950" y="-124.09" font-family="Times,serif" font-size="14.00">27_131_85091</text>
</g>
<!-- 27_131_85091&#45;&gt;27_131_85033x27_131_85091 -->
<g id="edge23" class="edge"><title>27_131_85091&#45;&gt;27_131_85033x27_131_85091</title>
<path fill="none" stroke="black" d="M1983.62,-113.501C2013.3,-101.767 2054.84,-85.3446 2074.64,-77.5181"/>
<polygon fill="black" stroke="black" points="2076.15,-80.6832 2084.17,-73.7519 2073.58,-74.1734 2076.15,-80.6832"/>
</g>
<!-- 27_131_85089 -->
<g id="node29" class="node"><title>27_131_85089</title>
<ellipse fill="#66cdaa" stroke="black" cx="1065" cy="-127.79" rx="69.0935" ry="16.0303"/>
<text text-anchor="middle" x="1065" y="-124.09" font-family="Times,serif" font-size="14.00">27_131_85089</text>
</g>
<!-- 27_131_85032x27_131_85089 -->
<g id="node30" class="node"><title>27_131_85032x27_131_85089</title>
<polygon fill="none" stroke="black" points="1065,-75.5269 1061.5,-72.0269 1065,-68.5269 1068.5,-72.0269 1065,-75.5269"/>
</g>
<!-- 27_131_85089&#45;&gt;27_131_85032x27_131_85089 -->
<g id="edge25" class="edge"><title>27_131_85089&#45;&gt;27_131_85032x27_131_85089</title>
<path fill="none" stroke="black" d="M1065,-111.24C1065,-103.134 1065,-93.3455 1065,-85.7049"/>
<polygon fill="black" stroke="black" points="1068.5,-85.5501 1065,-75.5502 1061.5,-85.5502 1068.5,-85.5501"/>
</g>
<!-- 27_131_85078 -->
<g id="node31" class="node"><title>27_131_85078</title>
<polygon fill="white" stroke="black" points="1114,-27.7635 1016,-27.7635 1016,-4.76346 1114,-4.76346 1114,-27.7635"/>
<text text-anchor="middle" x="1065" y="-12.5635" font-family="Times,serif" font-size="14.00">27_131_85078</text>
</g>
<!-- 27_131_85032x27_131_85089&#45;&gt;27_131_85078 -->
<g id="edge26" class="edge"><title>27_131_85032x27_131_85089&#45;&gt;27_131_85078</title>
<path fill="none" stroke="black" d="M1065,-68.4338C1065,-62.9657 1065,-49.8005 1065,-38.1938"/>
<polygon fill="black" stroke="black" points="1068.5,-37.8452 1065,-27.8453 1061.5,-37.8453 1068.5,-37.8452"/>
</g>
<!-- 27_131_85096 -->
<g id="node33" class="node"><title>27_131_85096</title>
<polygon fill="#66cdaa" stroke="black" points="1794,-139.29 1696,-139.29 1696,-116.29 1794,-116.29 1794,-139.29"/>
<text text-anchor="middle" x="1745" y="-124.09" font-family="Times,serif" font-size="14.00">27_131_85096</text>
</g>
<!-- 27_131_85096&#45;&gt;27_131_85096x27_131_85041 -->
<g id="edge28" class="edge"><title>27_131_85096&#45;&gt;27_131_85096x27_131_85041</title>
<path fill="none" stroke="black" d="M1733.54,-116.168C1722.45,-105.886 1705.87,-90.5198 1695.79,-81.1705"/>
<polygon fill="black" stroke="black" points="1698.02,-78.4693 1688.31,-74.238 1693.26,-83.603 1698.02,-78.4693"/>
</g>
<!-- 27_131_85097 -->
<g id="node43" class="node"><title>27_131_85097</title>
<polygon fill="#66cdaa" stroke="black" points="957,-139.29 859,-139.29 859,-116.29 957,-116.29 957,-139.29"/>
<text text-anchor="middle" x="908" y="-124.09" font-family="Times,serif" font-size="14.00">27_131_85097</text>
</g>
<!-- 27_131_85097&#45;&gt;27_131_85097x27_131_85050 -->
<g id="edge38" class="edge"><title>27_131_85097&#45;&gt;27_131_85097x27_131_85050</title>
<path fill="none" stroke="black" d="M881.131,-116.168C851.364,-104.401 804.753,-85.9748 783.389,-77.5294"/>
<polygon fill="black" stroke="black" points="784.633,-74.2574 774.046,-73.8359 782.059,-80.7672 784.633,-74.2574"/>
</g>
<!-- 27_131_85098 -->
<g id="node46" class="node"><title>27_131_85098</title>
<polygon fill="#66cdaa" stroke="black" points="1522,-139.29 1424,-139.29 1424,-116.29 1522,-116.29 1522,-139.29"/>
<text text-anchor="middle" x="1473" y="-124.09" font-family="Times,serif" font-size="14.00">27_131_85098</text>
</g>
<!-- 27_131_85098&#45;&gt;27_131_85098x27_131_85047 -->
<g id="edge41" class="edge"><title>27_131_85098&#45;&gt;27_131_85098x27_131_85047</title>
<path fill="none" stroke="black" d="M1446.13,-116.168C1416.36,-104.401 1369.75,-85.9748 1348.39,-77.5294"/>
<polygon fill="black" stroke="black" points="1349.63,-74.2574 1339.05,-73.8359 1347.06,-80.7672 1349.63,-74.2574"/>
</g>
<!-- 27_131_85033&#45;&gt;27_131_85033x27_131_85091 -->
<g id="edge45" class="edge"><title>27_131_85033&#45;&gt;27_131_85033x27_131_85091</title>
<path fill="none" stroke="black" d="M2086,-116.168C2086,-107.416 2086,-94.9805 2086,-85.7075"/>
<polygon fill="black" stroke="black" points="2089.5,-85.6655 2086,-75.6656 2082.5,-85.6656 2089.5,-85.6655"/>
</g>
<!-- 27_131_85032&#45;&gt;27_131_85032x27_131_85089 -->
<g id="edge47" class="edge"><title>27_131_85032&#45;&gt;27_131_85032x27_131_85089</title>
<path fill="none" stroke="black" d="M1174.13,-116.168C1144.36,-104.401 1097.75,-85.9748 1076.39,-77.5294"/>
<polygon fill="black" stroke="black" points="1077.63,-74.2574 1067.05,-73.8359 1075.06,-80.7672 1077.63,-74.2574"/>
</g>
<!-- 27_131_85357 -->
<g id="node52" class="node"><title>27_131_85357</title>
<ellipse fill="#66cdaa" stroke="black" cx="1560" cy="-350.844" rx="69.0935" ry="16.0303"/>
<text text-anchor="middle" x="1560" y="-347.144" font-family="Times,serif" font-size="14.00">27_131_85357</text>
</g>
<!-- 27_131_85357&#45;&gt;27_131_85358x27_131_85357 -->
<g id="edge49" class="edge"><title>27_131_85357&#45;&gt;27_131_85358x27_131_85357</title>
<path fill="none" stroke="black" d="M1534.51,-335.718C1514.87,-324.829 1488.66,-310.305 1474.05,-302.204"/>
<polygon fill="black" stroke="black" points="1475.34,-298.917 1464.89,-297.131 1471.94,-305.04 1475.34,-298.917"/>
</g>
<!-- 27_131_85099 -->
<g id="node54" class="node"><title>27_131_85099</title>
<polygon fill="#66cdaa" stroke="black" points="418,-139.29 320,-139.29 320,-116.29 418,-116.29 418,-139.29"/>
<text text-anchor="middle" x="369" y="-124.09" font-family="Times,serif" font-size="14.00">27_131_85099</text>
</g>
<!-- 27_131_85099&#45;&gt;27_131_85099x27_131_85046 -->
<g id="edge51" class="edge"><title>27_131_85099&#45;&gt;27_131_85099x27_131_85046</title>
<path fill="none" stroke="black" d="M342.131,-116.168C312.364,-104.401 265.753,-85.9748 244.389,-77.5294"/>
<polygon fill="black" stroke="black" points="245.633,-74.2574 235.046,-73.8359 243.059,-80.7672 245.633,-74.2574"/>
</g>
<!-- 27_131_85044 -->
<g id="node56" class="node"><title>27_131_85044</title>
<polygon fill="dimgrey" stroke="black" points="2018,-362.344 1920,-362.344 1920,-339.344 2018,-339.344 2018,-362.344"/>
<text text-anchor="middle" x="1969" y="-347.144" font-family="Times,serif" font-size="14.00">27_131_85044</text>
</g>
<!-- 27_131_85044&#45;&gt;27_131_85044x27_131_85095 -->
<g id="edge53" class="edge"><title>27_131_85044&#45;&gt;27_131_85044x27_131_85095</title>
<path fill="none" stroke="black" d="M1953.59,-339.222C1938.05,-328.512 1914.51,-312.284 1901.17,-303.088"/>
<polygon fill="black" stroke="black" points="1902.98,-300.085 1892.76,-297.292 1899,-305.849 1902.98,-300.085"/>
</g>
<!-- 27_131_85037 -->
<g id="node57" class="node"><title>27_131_85037</title>
<polygon fill="#66cdaa" stroke="black" points="1590,-250.817 1492,-250.817 1492,-227.817 1590,-227.817 1590,-250.817"/>
<text text-anchor="middle" x="1541" y="-235.617" font-family="Times,serif" font-size="14.00">27_131_85037</text>
</g>
<!-- 27_131_85037&#45;&gt;27_131_85037x27_131_85036 -->
<g id="edge54" class="edge"><title>27_131_85037&#45;&gt;27_131_85037x27_131_85036</title>
<path fill="none" stroke="black" d="M1527.57,-227.695C1514.29,-217.199 1494.31,-201.404 1482.57,-192.121"/>
<polygon fill="black" stroke="black" points="1484.55,-189.221 1474.53,-185.765 1480.21,-194.713 1484.55,-189.221"/>
</g>
<!-- 27_131_85036&#45;&gt;27_131_85037x27_131_85036 -->
<g id="edge56" class="edge"><title>27_131_85036&#45;&gt;27_131_85037x27_131_85036</title>
<path fill="none" stroke="black" d="M1423.58,-223.626C1436.42,-213.473 1452.99,-200.377 1463.3,-192.222"/>
<polygon fill="black" stroke="black" points="1465.7,-194.791 1471.37,-185.843 1461.35,-189.3 1465.7,-194.791"/>
</g>
</g>
</svg>
