<?xml version="1.0" encoding="UTF-8" standalone="no"?>
<!DOCTYPE svg PUBLIC "-//W3C//DTD SVG 1.1//EN"
 "http://www.w3.org/Graphics/SVG/1.1/DTD/svg11.dtd">
<!-- Generated by graphviz version 2.38.0 (20140413.2041)
 -->
<!-- Title: %3 Pages: 1 -->
<svg width="1573pt" height="366pt"
 viewBox="0.00 0.00 1572.81 365.58" xmlns="http://www.w3.org/2000/svg" xmlns:xlink="http://www.w3.org/1999/xlink">
<g id="graph0" class="graph" transform="scale(1 1) rotate(0) translate(4 361.581)">
<title>%3</title>
<polygon fill="white" stroke="none" points="-4,4 -4,-361.581 1568.81,-361.581 1568.81,4 -4,4"/>
<!-- 411_15 -->
<g id="node1" class="node"><title>411_15</title>
<polygon fill="#66cdaa" stroke="black" points="1564.81,-129.763 1507.81,-129.763 1507.81,-106.763 1564.81,-106.763 1564.81,-129.763"/>
<text text-anchor="middle" x="1536.31" y="-114.563" font-family="Times,serif" font-size="14.00">411_15</text>
</g>
<!-- 411_99x411_12 -->
<g id="node2" class="node"><title>411_99x411_12</title>
<polygon fill="none" stroke="black" points="1284.31,-177.527 1280.81,-174.027 1284.31,-170.527 1287.81,-174.027 1284.31,-177.527"/>
</g>
<!-- 411_99x411_12&#45;&gt;411_15 -->
<g id="edge1" class="edge"><title>411_99x411_12&#45;&gt;411_15</title>
<path fill="none" stroke="black" d="M1286.89,-172.764C1304.91,-170.889 1413.41,-158.936 1498.31,-134.527 1499.71,-134.122 1501.14,-133.683 1502.58,-133.218"/>
<polygon fill="black" stroke="black" points="1503.78,-136.506 1512.03,-129.864 1501.44,-129.909 1503.78,-136.506"/>
</g>
<!-- 411_16 -->
<g id="node3" class="node"><title>411_16</title>
<polygon fill="#66cdaa" stroke="black" points="1127.81,-129.763 1070.81,-129.763 1070.81,-106.763 1127.81,-106.763 1127.81,-129.763"/>
<text text-anchor="middle" x="1099.31" y="-114.563" font-family="Times,serif" font-size="14.00">411_16</text>
</g>
<!-- 411_99x411_12&#45;&gt;411_16 -->
<g id="edge2" class="edge"><title>411_99x411_12&#45;&gt;411_16</title>
<path fill="none" stroke="black" d="M1282.2,-172.581C1268.93,-169.746 1195.42,-153.725 1137.31,-134.527 1136.26,-134.181 1135.2,-133.822 1134.13,-133.451"/>
<polygon fill="black" stroke="black" points="1135.08,-130.069 1124.49,-129.893 1132.66,-136.637 1135.08,-130.069"/>
</g>
<!-- 411_17 -->
<g id="node4" class="node"><title>411_17</title>
<ellipse fill="#66cdaa" stroke="black" cx="1186.31" cy="-118.263" rx="40.1111" ry="16.0303"/>
<text text-anchor="middle" x="1186.31" y="-114.563" font-family="Times,serif" font-size="14.00">411_17</text>
</g>
<!-- 411_99x411_12&#45;&gt;411_17 -->
<g id="edge3" class="edge"><title>411_99x411_12&#45;&gt;411_17</title>
<path fill="none" stroke="black" d="M1282.6,-172.094C1274.95,-167.896 1243.01,-150.372 1217.98,-136.643"/>
<polygon fill="black" stroke="black" points="1219.59,-133.529 1209.13,-131.788 1216.22,-139.666 1219.59,-133.529"/>
</g>
<!-- 411_14 -->
<g id="node5" class="node"><title>411_14</title>
<ellipse fill="#66cdaa" stroke="black" cx="1285.31" cy="-118.263" rx="40.1111" ry="16.0303"/>
<text text-anchor="middle" x="1285.31" y="-114.563" font-family="Times,serif" font-size="14.00">411_14</text>
</g>
<!-- 411_99x411_12&#45;&gt;411_14 -->
<g id="edge4" class="edge"><title>411_99x411_12&#45;&gt;411_14</title>
<path fill="none" stroke="black" d="M1284.35,-170.434C1284.44,-165.651 1284.64,-154.981 1284.83,-144.615"/>
<polygon fill="black" stroke="black" points="1288.33,-144.643 1285.02,-134.58 1281.33,-144.513 1288.33,-144.643"/>
</g>
<!-- 411_13 -->
<g id="node25" class="node"><title>411_13</title>
<polygon fill="#66cdaa" stroke="black" points="1400.81,-129.763 1343.81,-129.763 1343.81,-106.763 1400.81,-106.763 1400.81,-129.763"/>
<text text-anchor="middle" x="1372.31" y="-114.563" font-family="Times,serif" font-size="14.00">411_13</text>
</g>
<!-- 411_99x411_12&#45;&gt;411_13 -->
<g id="edge23" class="edge"><title>411_99x411_12&#45;&gt;411_13</title>
<path fill="none" stroke="black" d="M1286.14,-171.904C1293.78,-167.239 1323.65,-148.992 1346.09,-135.28"/>
<polygon fill="black" stroke="black" points="1348.16,-138.118 1354.87,-129.918 1344.51,-132.144 1348.16,-138.118"/>
</g>
<!-- 411_6 -->
<g id="node36" class="node"><title>411_6</title>
<ellipse fill="white" stroke="black" cx="1454.31" cy="-118.263" rx="35.2113" ry="16.0303"/>
<text text-anchor="middle" x="1454.31" y="-114.563" font-family="Times,serif" font-size="14.00">411_6</text>
</g>
<!-- 411_99x411_12&#45;&gt;411_6 -->
<g id="edge35" class="edge"><title>411_99x411_12&#45;&gt;411_6</title>
<path fill="none" stroke="black" d="M1286.37,-172.414C1298.31,-168.869 1359.61,-150.603 1409.31,-134.527 1411.87,-133.698 1414.5,-132.833 1417.16,-131.954"/>
<polygon fill="black" stroke="black" points="1418.37,-135.241 1426.74,-128.75 1416.15,-128.603 1418.37,-135.241"/>
</g>
<!-- 411_18 -->
<g id="node6" class="node"><title>411_18</title>
<polygon fill="#66cdaa" stroke="black" points="1064.81,-241.29 1007.81,-241.29 1007.81,-218.29 1064.81,-218.29 1064.81,-241.29"/>
<text text-anchor="middle" x="1036.31" y="-226.09" font-family="Times,serif" font-size="14.00">411_18</text>
</g>
<!-- 411_18x411_11 -->
<g id="node7" class="node"><title>411_18x411_11</title>
<polygon fill="none" stroke="black" points="949.305,-177.527 945.805,-174.027 949.305,-170.527 952.805,-174.027 949.305,-177.527"/>
</g>
<!-- 411_18&#45;&gt;411_18x411_11 -->
<g id="edge5" class="edge"><title>411_18&#45;&gt;411_18x411_11</title>
<path fill="none" stroke="black" d="M1019.12,-218.168C1001.61,-207.351 975,-190.905 960.201,-181.76"/>
<polygon fill="black" stroke="black" points="961.612,-178.518 951.265,-176.238 957.932,-184.472 961.612,-178.518"/>
</g>
<!-- 411_20 -->
<g id="node8" class="node"><title>411_20</title>
<ellipse fill="#66cdaa" stroke="black" cx="862.305" cy="-118.263" rx="40.1111" ry="16.0303"/>
<text text-anchor="middle" x="862.305" y="-114.563" font-family="Times,serif" font-size="14.00">411_20</text>
</g>
<!-- 411_18x411_11&#45;&gt;411_20 -->
<g id="edge6" class="edge"><title>411_18x411_11&#45;&gt;411_20</title>
<path fill="none" stroke="black" d="M947.488,-171.904C940.368,-167.504 913.696,-151.021 892.07,-137.657"/>
<polygon fill="black" stroke="black" points="893.83,-134.631 883.483,-132.351 890.15,-140.585 893.83,-134.631"/>
</g>
<!-- 411_22 -->
<g id="node9" class="node"><title>411_22</title>
<polygon fill="#66cdaa" stroke="black" points="977.805,-129.763 920.805,-129.763 920.805,-106.763 977.805,-106.763 977.805,-129.763"/>
<text text-anchor="middle" x="949.305" y="-114.563" font-family="Times,serif" font-size="14.00">411_22</text>
</g>
<!-- 411_18x411_11&#45;&gt;411_22 -->
<g id="edge7" class="edge"><title>411_18x411_11&#45;&gt;411_22</title>
<path fill="none" stroke="black" d="M949.305,-170.434C949.305,-164.966 949.305,-151.801 949.305,-140.194"/>
<polygon fill="black" stroke="black" points="952.805,-139.845 949.305,-129.845 945.805,-139.845 952.805,-139.845"/>
</g>
<!-- 411_21 -->
<g id="node29" class="node"><title>411_21</title>
<polygon fill="white" stroke="black" points="1052.81,-129.763 995.805,-129.763 995.805,-106.763 1052.81,-106.763 1052.81,-129.763"/>
<text text-anchor="middle" x="1024.31" y="-114.563" font-family="Times,serif" font-size="14.00">411_21</text>
</g>
<!-- 411_18x411_11&#45;&gt;411_21 -->
<g id="edge27" class="edge"><title>411_18x411_11&#45;&gt;411_21</title>
<path fill="none" stroke="black" d="M950.872,-171.904C957.293,-167.301 982.159,-149.476 1001.19,-135.83"/>
<polygon fill="black" stroke="black" points="1003.35,-138.588 1009.44,-129.918 999.276,-132.899 1003.35,-138.588"/>
</g>
<!-- 411_19 -->
<g id="node31" class="node"><title>411_19</title>
<ellipse fill="white" stroke="black" cx="763.305" cy="-118.263" rx="40.1111" ry="16.0303"/>
<text text-anchor="middle" x="763.305" y="-114.563" font-family="Times,serif" font-size="14.00">411_19</text>
</g>
<!-- 411_18x411_11&#45;&gt;411_19 -->
<g id="edge29" class="edge"><title>411_18x411_11&#45;&gt;411_19</title>
<path fill="none" stroke="black" d="M947.057,-172.409C934.081,-168.839 867.451,-150.454 813.305,-134.527 810.214,-133.618 807.019,-132.667 803.808,-131.704"/>
<polygon fill="black" stroke="black" points="804.8,-128.348 794.215,-128.807 802.776,-135.049 804.8,-128.348"/>
</g>
<!-- 411_23 -->
<g id="node10" class="node"><title>411_23</title>
<polygon fill="#66cdaa" stroke="black" points="511.805,-241.29 454.805,-241.29 454.805,-218.29 511.805,-218.29 511.805,-241.29"/>
<text text-anchor="middle" x="483.305" y="-226.09" font-family="Times,serif" font-size="14.00">411_23</text>
</g>
<!-- 411_23x411_9 -->
<g id="node11" class="node"><title>411_23x411_9</title>
<polygon fill="none" stroke="black" points="333.305,-177.527 329.805,-174.027 333.305,-170.527 336.805,-174.027 333.305,-177.527"/>
</g>
<!-- 411_23&#45;&gt;411_23x411_9 -->
<g id="edge8" class="edge"><title>411_23&#45;&gt;411_23x411_9</title>
<path fill="none" stroke="black" d="M457.619,-218.267C453.514,-216.645 449.303,-215.016 445.305,-213.527 409.096,-200.041 365.695,-185.608 345.172,-178.886"/>
<polygon fill="black" stroke="black" points="346.047,-175.49 335.455,-175.721 343.879,-182.146 346.047,-175.49"/>
</g>
<!-- 411_25 -->
<g id="node12" class="node"><title>411_25</title>
<polygon fill="#66cdaa" stroke="black" points="155.805,-129.763 98.8051,-129.763 98.8051,-106.763 155.805,-106.763 155.805,-129.763"/>
<text text-anchor="middle" x="127.305" y="-114.563" font-family="Times,serif" font-size="14.00">411_25</text>
</g>
<!-- 411_23x411_9&#45;&gt;411_25 -->
<g id="edge9" class="edge"><title>411_23x411_9&#45;&gt;411_25</title>
<path fill="none" stroke="black" d="M330.882,-172.633C315.578,-170.11 230.841,-155.666 164.305,-134.527 163.245,-134.19 162.174,-133.836 161.096,-133.468"/>
<polygon fill="black" stroke="black" points="161.965,-130.058 151.372,-129.87 159.535,-136.623 161.965,-130.058"/>
</g>
<!-- 411_26 -->
<g id="node16" class="node"><title>411_26</title>
<polygon fill="#66cdaa" stroke="black" points="230.805,-129.763 173.805,-129.763 173.805,-106.763 230.805,-106.763 230.805,-129.763"/>
<text text-anchor="middle" x="202.305" y="-114.563" font-family="Times,serif" font-size="14.00">411_26</text>
</g>
<!-- 411_23x411_9&#45;&gt;411_26 -->
<g id="edge13" class="edge"><title>411_23x411_9&#45;&gt;411_26</title>
<path fill="none" stroke="black" d="M331.512,-172.295C322.002,-168.41 276.494,-149.813 239.305,-134.527 238.606,-134.24 237.9,-133.949 237.188,-133.656"/>
<polygon fill="black" stroke="black" points="238.358,-130.353 227.778,-129.782 235.692,-136.826 238.358,-130.353"/>
</g>
<!-- 411_27 -->
<g id="node26" class="node"><title>411_27</title>
<polygon fill="#66cdaa" stroke="black" points="305.805,-129.763 248.805,-129.763 248.805,-106.763 305.805,-106.763 305.805,-129.763"/>
<text text-anchor="middle" x="277.305" y="-114.563" font-family="Times,serif" font-size="14.00">411_27</text>
</g>
<!-- 411_23x411_9&#45;&gt;411_27 -->
<g id="edge24" class="edge"><title>411_23x411_9&#45;&gt;411_27</title>
<path fill="none" stroke="black" d="M331.921,-171.698C326.975,-166.95 309.74,-150.403 295.937,-137.151"/>
<polygon fill="black" stroke="black" points="298.36,-134.625 288.722,-130.224 293.512,-139.675 298.36,-134.625"/>
</g>
<!-- 411_29 -->
<g id="node28" class="node"><title>411_29</title>
<polygon fill="#66cdaa" stroke="black" points="380.805,-129.763 323.805,-129.763 323.805,-106.763 380.805,-106.763 380.805,-129.763"/>
<text text-anchor="middle" x="352.305" y="-114.563" font-family="Times,serif" font-size="14.00">411_29</text>
</g>
<!-- 411_23x411_9&#45;&gt;411_29 -->
<g id="edge26" class="edge"><title>411_23x411_9&#45;&gt;411_29</title>
<path fill="none" stroke="black" d="M334.121,-170.717C336.011,-165.369 340.847,-151.685 345.057,-139.772"/>
<polygon fill="black" stroke="black" points="348.474,-140.609 348.506,-130.014 341.874,-138.276 348.474,-140.609"/>
</g>
<!-- 411_28 -->
<g id="node30" class="node"><title>411_28</title>
<polygon fill="#66cdaa" stroke="black" points="455.805,-129.763 398.805,-129.763 398.805,-106.763 455.805,-106.763 455.805,-129.763"/>
<text text-anchor="middle" x="427.305" y="-114.563" font-family="Times,serif" font-size="14.00">411_28</text>
</g>
<!-- 411_23x411_9&#45;&gt;411_28 -->
<g id="edge28" class="edge"><title>411_23x411_9&#45;&gt;411_28</title>
<path fill="none" stroke="black" d="M334.937,-172.094C342.589,-167.717 375.577,-148.849 399.959,-134.904"/>
<polygon fill="black" stroke="black" points="401.868,-137.844 408.811,-129.841 398.393,-131.768 401.868,-137.844"/>
</g>
<!-- 411_24 -->
<g id="node34" class="node"><title>411_24</title>
<polygon fill="dimgrey" stroke="black" points="530.805,-129.763 473.805,-129.763 473.805,-106.763 530.805,-106.763 530.805,-129.763"/>
<text text-anchor="middle" x="502.305" y="-114.563" font-family="Times,serif" font-size="14.00">411_24</text>
</g>
<!-- 411_23x411_9&#45;&gt;411_24 -->
<g id="edge33" class="edge"><title>411_23x411_9&#45;&gt;411_24</title>
<path fill="none" stroke="black" d="M335.49,-172.469C348.1,-169.233 412.795,-152.395 464.305,-134.527 465.346,-134.166 466.401,-133.792 467.463,-133.41"/>
<polygon fill="black" stroke="black" points="468.962,-136.585 477.087,-129.786 466.495,-130.034 468.962,-136.585"/>
</g>
<!-- 411_30 -->
<g id="node40" class="node"><title>411_30</title>
<ellipse fill="#66cdaa" stroke="black" cx="40.3051" cy="-118.263" rx="40.1111" ry="16.0303"/>
<text text-anchor="middle" x="40.3051" y="-114.563" font-family="Times,serif" font-size="14.00">411_30</text>
</g>
<!-- 411_23x411_9&#45;&gt;411_30 -->
<g id="edge39" class="edge"><title>411_23x411_9&#45;&gt;411_30</title>
<path fill="none" stroke="black" d="M330.875,-172.78C312.07,-170.84 187.867,-157.525 89.3051,-134.527 86.279,-133.821 83.168,-133.024 80.0514,-132.174"/>
<polygon fill="black" stroke="black" points="80.7534,-128.734 70.175,-129.325 78.8131,-135.459 80.7534,-128.734"/>
</g>
<!-- 411_1 -->
<g id="node13" class="node"><title>411_1</title>
<polygon fill="#66cdaa" stroke="black" points="753.305,-352.817 703.305,-352.817 703.305,-329.817 753.305,-329.817 753.305,-352.817"/>
<text text-anchor="middle" x="728.305" y="-337.617" font-family="Times,serif" font-size="14.00">411_1</text>
</g>
<!-- 411_1x411_2 -->
<g id="node14" class="node"><title>411_1x411_2</title>
<polygon fill="none" stroke="black" points="767.305,-289.054 763.805,-285.554 767.305,-282.054 770.805,-285.554 767.305,-289.054"/>
</g>
<!-- 411_1&#45;&gt;411_1x411_2 -->
<g id="edge10" class="edge"><title>411_1&#45;&gt;411_1x411_2</title>
<path fill="none" stroke="black" d="M736.01,-329.695C743.031,-320.017 753.318,-305.836 760.158,-296.406"/>
<polygon fill="black" stroke="black" points="763.163,-298.224 766.202,-288.074 757.497,-294.114 763.163,-298.224"/>
</g>
<!-- 411_99 -->
<g id="node15" class="node"><title>411_99</title>
<polygon fill="dimgrey" stroke="black" points="1311.81,-241.29 1254.81,-241.29 1254.81,-218.29 1311.81,-218.29 1311.81,-241.29"/>
<text text-anchor="middle" x="1283.31" y="-226.09" font-family="Times,serif" font-size="14.00">411_99</text>
</g>
<!-- 411_1x411_2&#45;&gt;411_99 -->
<g id="edge11" class="edge"><title>411_1x411_2&#45;&gt;411_99</title>
<path fill="none" stroke="black" d="M770.009,-284.627C798.615,-285.344 1048.43,-290.169 1243.31,-246.054 1245.21,-245.623 1247.14,-245.12 1249.08,-244.564"/>
<polygon fill="black" stroke="black" points="1250.26,-247.862 1258.68,-241.435 1248.09,-241.207 1250.26,-247.862"/>
</g>
<!-- 411_10 -->
<g id="node17" class="node"><title>411_10</title>
<ellipse fill="#66cdaa" stroke="black" cx="850.305" cy="-229.79" rx="40.1111" ry="16.0303"/>
<text text-anchor="middle" x="850.305" y="-226.09" font-family="Times,serif" font-size="14.00">411_10</text>
</g>
<!-- 411_1x411_2&#45;&gt;411_10 -->
<g id="edge14" class="edge"><title>411_1x411_2&#45;&gt;411_10</title>
<path fill="none" stroke="black" d="M769.039,-283.431C775.801,-279.05 801.052,-262.694 821.633,-249.363"/>
<polygon fill="black" stroke="black" points="823.61,-252.252 830.101,-243.878 819.805,-246.377 823.61,-252.252"/>
</g>
<!-- 411_9 -->
<g id="node19" class="node"><title>411_9</title>
<ellipse fill="dimgrey" stroke="black" cx="333.305" cy="-229.79" rx="35.2113" ry="16.0303"/>
<text text-anchor="middle" x="333.305" y="-226.09" font-family="Times,serif" font-size="14.00">411_9</text>
</g>
<!-- 411_1x411_2&#45;&gt;411_9 -->
<g id="edge16" class="edge"><title>411_1x411_2&#45;&gt;411_9</title>
<path fill="none" stroke="black" d="M764.794,-284.532C740.015,-284.269 536.795,-281.075 377.305,-246.054 374.657,-245.472 371.948,-244.781 369.239,-244.019"/>
<polygon fill="black" stroke="black" points="370.127,-240.631 359.54,-241.019 368.059,-247.318 370.127,-240.631"/>
</g>
<!-- 411_7 -->
<g id="node20" class="node"><title>411_7</title>
<polygon fill="dimgrey" stroke="black" points="1234.31,-241.29 1184.31,-241.29 1184.31,-218.29 1234.31,-218.29 1234.31,-241.29"/>
<text text-anchor="middle" x="1209.31" y="-226.09" font-family="Times,serif" font-size="14.00">411_7</text>
</g>
<!-- 411_1x411_2&#45;&gt;411_7 -->
<g id="edge18" class="edge"><title>411_1x411_2&#45;&gt;411_7</title>
<path fill="none" stroke="black" d="M769.952,-284.632C796.074,-285.338 1010.2,-289.625 1175.31,-246.054 1176.54,-245.729 1177.78,-245.363 1179.03,-244.966"/>
<polygon fill="black" stroke="black" points="1180.34,-248.211 1188.48,-241.424 1177.88,-241.656 1180.34,-248.211"/>
</g>
<!-- 411_8 -->
<g id="node21" class="node"><title>411_8</title>
<polygon fill="#66cdaa" stroke="black" points="436.305,-241.29 386.305,-241.29 386.305,-218.29 436.305,-218.29 436.305,-241.29"/>
<text text-anchor="middle" x="411.305" y="-226.09" font-family="Times,serif" font-size="14.00">411_8</text>
</g>
<!-- 411_1x411_2&#45;&gt;411_8 -->
<g id="edge19" class="edge"><title>411_1x411_2&#45;&gt;411_8</title>
<path fill="none" stroke="black" d="M764.668,-284.541C741.774,-284.365 574.43,-281.857 445.305,-246.054 444.078,-245.713 442.838,-245.335 441.595,-244.927"/>
<polygon fill="black" stroke="black" points="442.748,-241.621 432.157,-241.338 440.26,-248.164 442.748,-241.621"/>
</g>
<!-- 411_5 -->
<g id="node22" class="node"><title>411_5</title>
<polygon fill="#66cdaa" stroke="black" points="580.305,-241.29 530.305,-241.29 530.305,-218.29 580.305,-218.29 580.305,-241.29"/>
<text text-anchor="middle" x="555.305" y="-226.09" font-family="Times,serif" font-size="14.00">411_5</text>
</g>
<!-- 411_1x411_2&#45;&gt;411_5 -->
<g id="edge20" class="edge"><title>411_1x411_2&#45;&gt;411_5</title>
<path fill="none" stroke="black" d="M764.742,-284.206C748.561,-281.967 658.991,-268.953 589.305,-246.054 588.418,-245.762 587.522,-245.455 586.622,-245.135"/>
<polygon fill="black" stroke="black" points="587.573,-241.747 576.986,-241.33 585.002,-248.258 587.573,-241.747"/>
</g>
<!-- 411_3 -->
<g id="node23" class="node"><title>411_3</title>
<polygon fill="#66cdaa" stroke="black" points="724.305,-241.29 674.305,-241.29 674.305,-218.29 724.305,-218.29 724.305,-241.29"/>
<text text-anchor="middle" x="699.305" y="-226.09" font-family="Times,serif" font-size="14.00">411_3</text>
</g>
<!-- 411_1x411_2&#45;&gt;411_3 -->
<g id="edge21" class="edge"><title>411_1x411_2&#45;&gt;411_3</title>
<path fill="none" stroke="black" d="M765.885,-283.431C760.115,-278.869 737.922,-261.323 720.727,-247.727"/>
<polygon fill="black" stroke="black" points="722.795,-244.901 712.78,-241.444 718.454,-250.392 722.795,-244.901"/>
</g>
<!-- 411_4 -->
<g id="node27" class="node"><title>411_4</title>
<polygon fill="#66cdaa" stroke="black" points="792.305,-241.29 742.305,-241.29 742.305,-218.29 792.305,-218.29 792.305,-241.29"/>
<text text-anchor="middle" x="767.305" y="-226.09" font-family="Times,serif" font-size="14.00">411_4</text>
</g>
<!-- 411_1x411_2&#45;&gt;411_4 -->
<g id="edge25" class="edge"><title>411_1x411_2&#45;&gt;411_4</title>
<path fill="none" stroke="black" d="M767.305,-281.961C767.305,-276.493 767.305,-263.327 767.305,-251.721"/>
<polygon fill="black" stroke="black" points="770.805,-251.372 767.305,-241.372 763.805,-251.372 770.805,-251.372"/>
</g>
<!-- 411_11 -->
<g id="node32" class="node"><title>411_11</title>
<ellipse fill="dimgrey" stroke="black" cx="949.305" cy="-229.79" rx="40.1111" ry="16.0303"/>
<text text-anchor="middle" x="949.305" y="-226.09" font-family="Times,serif" font-size="14.00">411_11</text>
</g>
<!-- 411_1x411_2&#45;&gt;411_11 -->
<g id="edge30" class="edge"><title>411_1x411_2&#45;&gt;411_11</title>
<path fill="none" stroke="black" d="M769.485,-283.929C782.069,-280.32 846.694,-261.756 899.305,-246.054 902.392,-245.132 905.585,-244.173 908.794,-243.204"/>
<polygon fill="black" stroke="black" points="909.83,-246.547 918.384,-240.296 907.798,-239.849 909.83,-246.547"/>
</g>
<!-- 411_99&#45;&gt;411_99x411_12 -->
<g id="edge12" class="edge"><title>411_99&#45;&gt;411_99x411_12</title>
<path fill="none" stroke="black" d="M1283.5,-218.168C1283.67,-209.416 1283.9,-196.981 1284.07,-187.707"/>
<polygon fill="black" stroke="black" points="1287.57,-187.729 1284.26,-177.666 1280.57,-187.599 1287.57,-187.729"/>
</g>
<!-- 411_31x411_10 -->
<g id="node18" class="node"><title>411_31x411_10</title>
<polygon fill="none" stroke="black" points="651.305,-177.527 647.805,-174.027 651.305,-170.527 654.805,-174.027 651.305,-177.527"/>
</g>
<!-- 411_10&#45;&gt;411_31x411_10 -->
<g id="edge15" class="edge"><title>411_10&#45;&gt;411_31x411_10</title>
<path fill="none" stroke="black" d="M819.795,-219.024C813.687,-217.143 807.305,-215.23 801.305,-213.527 750.208,-199.021 688.642,-183.975 663.198,-177.862"/>
<polygon fill="black" stroke="black" points="663.97,-174.448 653.431,-175.529 662.344,-181.257 663.97,-174.448"/>
</g>
<!-- 411_34 -->
<g id="node33" class="node"><title>411_34</title>
<polygon fill="#66cdaa" stroke="black" points="704.805,-129.763 647.805,-129.763 647.805,-106.763 704.805,-106.763 704.805,-129.763"/>
<text text-anchor="middle" x="676.305" y="-114.563" font-family="Times,serif" font-size="14.00">411_34</text>
</g>
<!-- 411_31x411_10&#45;&gt;411_34 -->
<g id="edge32" class="edge"><title>411_31x411_10&#45;&gt;411_34</title>
<path fill="none" stroke="black" d="M652.137,-171.238C654.463,-166.235 661.246,-151.649 667.036,-139.197"/>
<polygon fill="black" stroke="black" points="670.319,-140.437 671.362,-129.893 663.972,-137.485 670.319,-140.437"/>
</g>
<!-- 411_32 -->
<g id="node41" class="node"><title>411_32</title>
<ellipse fill="white" stroke="black" cx="589.305" cy="-118.263" rx="40.1111" ry="16.0303"/>
<text text-anchor="middle" x="589.305" y="-114.563" font-family="Times,serif" font-size="14.00">411_32</text>
</g>
<!-- 411_31x411_10&#45;&gt;411_32 -->
<g id="edge40" class="edge"><title>411_31x411_10&#45;&gt;411_32</title>
<path fill="none" stroke="black" d="M649.772,-171.698C644.706,-167.305 627.99,-152.809 613.415,-140.17"/>
<polygon fill="black" stroke="black" points="615.473,-137.323 605.625,-133.416 610.887,-142.611 615.473,-137.323"/>
</g>
<!-- 411_9&#45;&gt;411_23x411_9 -->
<g id="edge17" class="edge"><title>411_9&#45;&gt;411_23x411_9</title>
<path fill="none" stroke="black" d="M333.305,-213.24C333.305,-205.134 333.305,-195.345 333.305,-187.705"/>
<polygon fill="black" stroke="black" points="336.805,-187.55 333.305,-177.55 329.805,-187.55 336.805,-187.55"/>
</g>
<!-- 411_2 -->
<g id="node24" class="node"><title>411_2</title>
<ellipse fill="#66cdaa" stroke="black" cx="806.305" cy="-341.317" rx="35.2113" ry="16.0303"/>
<text text-anchor="middle" x="806.305" y="-337.617" font-family="Times,serif" font-size="14.00">411_2</text>
</g>
<!-- 411_2&#45;&gt;411_1x411_2 -->
<g id="edge22" class="edge"><title>411_2&#45;&gt;411_1x411_2</title>
<path fill="none" stroke="black" d="M795.648,-325.626C788.874,-316.287 780.293,-304.458 774.357,-296.275"/>
<polygon fill="black" stroke="black" points="777.156,-294.173 768.451,-288.134 771.49,-298.283 777.156,-294.173"/>
</g>
<!-- 411_11&#45;&gt;411_18x411_11 -->
<g id="edge31" class="edge"><title>411_11&#45;&gt;411_18x411_11</title>
<path fill="none" stroke="black" d="M949.305,-213.24C949.305,-205.134 949.305,-195.345 949.305,-187.705"/>
<polygon fill="black" stroke="black" points="952.805,-187.55 949.305,-177.55 945.805,-187.55 952.805,-187.55"/>
</g>
<!-- 411_24x411_32 -->
<g id="node35" class="node"><title>411_24x411_32</title>
<polygon fill="none" stroke="black" points="545.305,-66 541.805,-62.5 545.305,-59 548.805,-62.5 545.305,-66"/>
</g>
<!-- 411_24&#45;&gt;411_24x411_32 -->
<g id="edge34" class="edge"><title>411_24&#45;&gt;411_24x411_32</title>
<path fill="none" stroke="black" d="M510.801,-106.642C518.625,-96.8584 530.131,-82.473 537.67,-73.0466"/>
<polygon fill="black" stroke="black" points="540.576,-75.0162 544.089,-65.0207 535.11,-70.644 540.576,-75.0162"/>
</g>
<!-- 411_33 -->
<g id="node38" class="node"><title>411_33</title>
<polygon fill="#66cdaa" stroke="black" points="573.805,-23 516.805,-23 516.805,-0 573.805,-0 573.805,-23"/>
<text text-anchor="middle" x="545.305" y="-7.8" font-family="Times,serif" font-size="14.00">411_33</text>
</g>
<!-- 411_24x411_32&#45;&gt;411_33 -->
<g id="edge37" class="edge"><title>411_24x411_32&#45;&gt;411_33</title>
<path fill="none" stroke="black" d="M545.305,-58.8655C545.305,-54.0189 545.305,-43.2742 545.305,-33.3477"/>
<polygon fill="black" stroke="black" points="548.805,-33.2154 545.305,-23.2154 541.805,-33.2154 548.805,-33.2154"/>
</g>
<!-- 411_12 -->
<g id="node37" class="node"><title>411_12</title>
<ellipse fill="#66cdaa" stroke="black" cx="1126.31" cy="-229.79" rx="40.1111" ry="16.0303"/>
<text text-anchor="middle" x="1126.31" y="-226.09" font-family="Times,serif" font-size="14.00">411_12</text>
</g>
<!-- 411_12&#45;&gt;411_99x411_12 -->
<g id="edge36" class="edge"><title>411_12&#45;&gt;411_99x411_12</title>
<path fill="none" stroke="black" d="M1156.02,-218.678C1191.18,-206.714 1248.02,-187.372 1272.49,-179.048"/>
<polygon fill="black" stroke="black" points="1273.89,-182.269 1282.23,-175.734 1271.63,-175.642 1273.89,-182.269"/>
</g>
<!-- 411_31 -->
<g id="node39" class="node"><title>411_31</title>
<polygon fill="#66cdaa" stroke="black" points="655.805,-241.29 598.805,-241.29 598.805,-218.29 655.805,-218.29 655.805,-241.29"/>
<text text-anchor="middle" x="627.305" y="-226.09" font-family="Times,serif" font-size="14.00">411_31</text>
</g>
<!-- 411_31&#45;&gt;411_31x411_10 -->
<g id="edge38" class="edge"><title>411_31&#45;&gt;411_31x411_10</title>
<path fill="none" stroke="black" d="M632.047,-218.168C636.15,-208.976 642.067,-195.721 646.258,-186.334"/>
<polygon fill="black" stroke="black" points="649.593,-187.447 650.474,-176.889 643.201,-184.594 649.593,-187.447"/>
</g>
<!-- 411_32&#45;&gt;411_24x411_32 -->
<g id="edge41" class="edge"><title>411_32&#45;&gt;411_24x411_32</title>
<path fill="none" stroke="black" d="M577.282,-102.572C569.553,-93.1286 559.74,-81.1382 553.036,-72.9466"/>
<polygon fill="black" stroke="black" points="555.64,-70.602 546.598,-65.0799 550.223,-75.0354 555.64,-70.602"/>
</g>
</g>
</svg>
