<?xml version="1.0" encoding="UTF-8" standalone="no"?>
<!DOCTYPE svg PUBLIC "-//W3C//DTD SVG 1.1//EN"
 "http://www.w3.org/Graphics/SVG/1.1/DTD/svg11.dtd">
<!-- Generated by graphviz version 2.38.0 (20140413.2041)
 -->
<!-- Title: %3 Pages: 1 -->
<svg width="2214pt" height="487pt"
 viewBox="0.00 0.00 2214.00 486.63" xmlns="http://www.w3.org/2000/svg" xmlns:xlink="http://www.w3.org/1999/xlink">
<g id="graph0" class="graph" transform="scale(1 1) rotate(0) translate(4 482.635)">
<title>%3</title>
<polygon fill="white" stroke="none" points="-4,4 -4,-482.635 2210,-482.635 2210,4 -4,4"/>
<!-- 616_44 -->
<g id="node1" class="node"><title>616_44</title>
<polygon fill="#66cdaa" stroke="black" points="1497,-27.7635 1440,-27.7635 1440,-4.76346 1497,-4.76346 1497,-27.7635"/>
<text text-anchor="middle" x="1468.5" y="-12.5635" font-family="Times,serif" font-size="14.00">616_44</text>
</g>
<!-- 616_26x616_23 -->
<g id="node2" class="node"><title>616_26x616_23</title>
<polygon fill="none" stroke="black" points="1673.5,-75.5269 1670,-72.0269 1673.5,-68.5269 1677,-72.0269 1673.5,-75.5269"/>
</g>
<!-- 616_26x616_23&#45;&gt;616_44 -->
<g id="edge1" class="edge"><title>616_26x616_23&#45;&gt;616_44</title>
<path fill="none" stroke="black" d="M1671.09,-70.6306C1655.88,-68.0958 1571.65,-53.5897 1505.5,-32.5269 1504.44,-32.1896 1503.37,-31.8348 1502.29,-31.4661"/>
<polygon fill="black" stroke="black" points="1503.16,-28.0559 1492.57,-27.865 1500.73,-34.6202 1503.16,-28.0559"/>
</g>
<!-- 616_47 -->
<g id="node6" class="node"><title>616_47</title>
<polygon fill="#66cdaa" stroke="black" points="1572,-27.7635 1515,-27.7635 1515,-4.76346 1572,-4.76346 1572,-27.7635"/>
<text text-anchor="middle" x="1543.5" y="-12.5635" font-family="Times,serif" font-size="14.00">616_47</text>
</g>
<!-- 616_26x616_23&#45;&gt;616_47 -->
<g id="edge5" class="edge"><title>616_26x616_23&#45;&gt;616_47</title>
<path fill="none" stroke="black" d="M1671.66,-70.2669C1661.65,-66.1254 1612.85,-45.9436 1578.45,-31.7168"/>
<polygon fill="black" stroke="black" points="1579.75,-28.4678 1569.17,-27.8804 1577.07,-34.9365 1579.75,-28.4678"/>
</g>
<!-- 616_46 -->
<g id="node7" class="node"><title>616_46</title>
<ellipse fill="#66cdaa" stroke="black" cx="1630.5" cy="-16.2635" rx="40.1111" ry="16.0303"/>
<text text-anchor="middle" x="1630.5" y="-12.5635" font-family="Times,serif" font-size="14.00">616_46</text>
</g>
<!-- 616_26x616_23&#45;&gt;616_46 -->
<g id="edge6" class="edge"><title>616_26x616_23&#45;&gt;616_46</title>
<path fill="none" stroke="black" d="M1672.07,-69.2381C1668.35,-64.5897 1658.02,-51.6688 1648.58,-39.8738"/>
<polygon fill="black" stroke="black" points="1651.27,-37.6268 1642.29,-32.0034 1645.8,-41.999 1651.27,-37.6268"/>
</g>
<!-- 616_45 -->
<g id="node8" class="node"><title>616_45</title>
<polygon fill="#66cdaa" stroke="black" points="1746,-27.7635 1689,-27.7635 1689,-4.76346 1746,-4.76346 1746,-27.7635"/>
<text text-anchor="middle" x="1717.5" y="-12.5635" font-family="Times,serif" font-size="14.00">616_45</text>
</g>
<!-- 616_26x616_23&#45;&gt;616_45 -->
<g id="edge7" class="edge"><title>616_26x616_23&#45;&gt;616_45</title>
<path fill="none" stroke="black" d="M1674.96,-69.2381C1679.22,-64.0368 1691.95,-48.4782 1702.39,-35.7288"/>
<polygon fill="black" stroke="black" points="1705.18,-37.8489 1708.8,-27.8934 1699.76,-33.4155 1705.18,-37.8489"/>
</g>
<!-- 616_48 -->
<g id="node9" class="node"><title>616_48</title>
<ellipse fill="#66cdaa" stroke="black" cx="1804.5" cy="-16.2635" rx="40.1111" ry="16.0303"/>
<text text-anchor="middle" x="1804.5" y="-12.5635" font-family="Times,serif" font-size="14.00">616_48</text>
</g>
<!-- 616_26x616_23&#45;&gt;616_48 -->
<g id="edge8" class="edge"><title>616_26x616_23&#45;&gt;616_48</title>
<path fill="none" stroke="black" d="M1675.35,-70.2669C1685.33,-66.1721 1733.51,-46.3964 1768.11,-32.2"/>
<polygon fill="black" stroke="black" points="1769.54,-35.3962 1777.46,-28.3615 1766.88,-28.9204 1769.54,-35.3962"/>
</g>
<!-- 616_43 -->
<g id="node19" class="node"><title>616_43</title>
<polygon fill="#66cdaa" stroke="black" points="1920,-27.7635 1863,-27.7635 1863,-4.76346 1920,-4.76346 1920,-27.7635"/>
<text text-anchor="middle" x="1891.5" y="-12.5635" font-family="Times,serif" font-size="14.00">616_43</text>
</g>
<!-- 616_26x616_23&#45;&gt;616_43 -->
<g id="edge16" class="edge"><title>616_26x616_23&#45;&gt;616_43</title>
<path fill="none" stroke="black" d="M1676.08,-70.6461C1692.37,-68.2059 1782.59,-54.1766 1853.5,-32.5269 1854.72,-32.1532 1855.96,-31.7566 1857.21,-31.3422"/>
<polygon fill="black" stroke="black" points="1858.56,-34.5779 1866.78,-27.8998 1856.19,-27.9911 1858.56,-34.5779"/>
</g>
<!-- 616_23 -->
<g id="node3" class="node"><title>616_23</title>
<ellipse fill="dimgrey" stroke="black" cx="1480.5" cy="-127.79" rx="40.1111" ry="16.0303"/>
<text text-anchor="middle" x="1480.5" y="-124.09" font-family="Times,serif" font-size="14.00">616_23</text>
</g>
<!-- 616_23&#45;&gt;616_26x616_23 -->
<g id="edge3" class="edge"><title>616_23&#45;&gt;616_26x616_23</title>
<path fill="none" stroke="black" d="M1511.02,-117.071C1517.13,-115.187 1523.51,-113.26 1529.5,-111.527 1578.39,-97.3841 1637.14,-82.2506 1661.75,-75.9944"/>
<polygon fill="black" stroke="black" points="1662.62,-79.3844 1671.46,-73.5387 1660.91,-72.5982 1662.62,-79.3844"/>
</g>
<!-- 616_24x616_7 -->
<g id="node4" class="node"><title>616_24x616_7</title>
<polygon fill="none" stroke="black" points="1081.5,-187.054 1078,-183.554 1081.5,-180.054 1085,-183.554 1081.5,-187.054"/>
</g>
<!-- 616_24x616_7&#45;&gt;616_23 -->
<g id="edge2" class="edge"><title>616_24x616_7&#45;&gt;616_23</title>
<path fill="none" stroke="black" d="M1084.02,-182.456C1107.36,-181.513 1287.8,-173.437 1430.5,-144.054 1433.94,-143.346 1437.48,-142.504 1441.01,-141.584"/>
<polygon fill="black" stroke="black" points="1442.17,-144.894 1450.86,-138.832 1440.29,-138.152 1442.17,-144.894"/>
</g>
<!-- 616_33 -->
<g id="node21" class="node"><title>616_33</title>
<polygon fill="#66cdaa" stroke="black" points="1596,-139.29 1539,-139.29 1539,-116.29 1596,-116.29 1596,-139.29"/>
<text text-anchor="middle" x="1567.5" y="-124.09" font-family="Times,serif" font-size="14.00">616_33</text>
</g>
<!-- 616_24x616_7&#45;&gt;616_33 -->
<g id="edge18" class="edge"><title>616_24x616_7&#45;&gt;616_33</title>
<path fill="none" stroke="black" d="M1084.4,-182.63C1112.97,-183.318 1347.24,-187.466 1529.5,-144.054 1531.16,-143.657 1532.85,-143.201 1534.54,-142.698"/>
<polygon fill="black" stroke="black" points="1535.8,-145.967 1544.14,-139.428 1533.54,-139.342 1535.8,-145.967"/>
</g>
<!-- 616_34 -->
<g id="node22" class="node"><title>616_34</title>
<polygon fill="#66cdaa" stroke="black" points="1671,-139.29 1614,-139.29 1614,-116.29 1671,-116.29 1671,-139.29"/>
<text text-anchor="middle" x="1642.5" y="-124.09" font-family="Times,serif" font-size="14.00">616_34</text>
</g>
<!-- 616_24x616_7&#45;&gt;616_34 -->
<g id="edge19" class="edge"><title>616_24x616_7&#45;&gt;616_34</title>
<path fill="none" stroke="black" d="M1084.13,-182.473C1119.24,-181.38 1496.29,-169.129 1604.5,-144.054 1606.21,-143.657 1607.95,-143.194 1609.69,-142.681"/>
<polygon fill="black" stroke="black" points="1611.22,-145.859 1619.56,-139.32 1608.96,-139.233 1611.22,-145.859"/>
</g>
<!-- 616_32 -->
<g id="node25" class="node"><title>616_32</title>
<polygon fill="#66cdaa" stroke="black" points="1746,-139.29 1689,-139.29 1689,-116.29 1746,-116.29 1746,-139.29"/>
<text text-anchor="middle" x="1717.5" y="-124.09" font-family="Times,serif" font-size="14.00">616_32</text>
</g>
<!-- 616_24x616_7&#45;&gt;616_32 -->
<g id="edge22" class="edge"><title>616_24x616_7&#45;&gt;616_32</title>
<path fill="none" stroke="black" d="M1084.03,-182.503C1121.11,-181.74 1555.22,-172.253 1679.5,-144.054 1681.22,-143.664 1682.96,-143.208 1684.7,-142.7"/>
<polygon fill="black" stroke="black" points="1686.22,-145.881 1694.56,-139.355 1683.97,-139.252 1686.22,-145.881"/>
</g>
<!-- 616_35 -->
<g id="node26" class="node"><title>616_35</title>
<polygon fill="#66cdaa" stroke="black" points="1821,-139.29 1764,-139.29 1764,-116.29 1821,-116.29 1821,-139.29"/>
<text text-anchor="middle" x="1792.5" y="-124.09" font-family="Times,serif" font-size="14.00">616_35</text>
</g>
<!-- 616_24x616_7&#45;&gt;616_35 -->
<g id="edge23" class="edge"><title>616_24x616_7&#45;&gt;616_35</title>
<path fill="none" stroke="black" d="M1084.35,-182.52C1126.07,-181.999 1614.58,-175.276 1754.5,-144.054 1756.22,-143.671 1757.96,-143.219 1759.7,-142.715"/>
<polygon fill="black" stroke="black" points="1761.21,-145.898 1769.57,-139.383 1758.98,-139.266 1761.21,-145.898"/>
</g>
<!-- 616_31 -->
<g id="node27" class="node"><title>616_31</title>
<polygon fill="#66cdaa" stroke="black" points="381,-139.29 324,-139.29 324,-116.29 381,-116.29 381,-139.29"/>
<text text-anchor="middle" x="352.5" y="-124.09" font-family="Times,serif" font-size="14.00">616_31</text>
</g>
<!-- 616_24x616_7&#45;&gt;616_31 -->
<g id="edge24" class="edge"><title>616_24x616_7&#45;&gt;616_31</title>
<path fill="none" stroke="black" d="M1078.83,-182.53C1037.71,-182.145 533.528,-176.779 389.5,-144.054 387.823,-143.673 386.124,-143.223 384.424,-142.721"/>
<polygon fill="black" stroke="black" points="385.4,-139.355 374.805,-139.393 383.111,-145.97 385.4,-139.355"/>
</g>
<!-- 616_42 -->
<g id="node28" class="node"><title>616_42</title>
<polygon fill="#66cdaa" stroke="black" points="456,-139.29 399,-139.29 399,-116.29 456,-116.29 456,-139.29"/>
<text text-anchor="middle" x="427.5" y="-124.09" font-family="Times,serif" font-size="14.00">616_42</text>
</g>
<!-- 616_24x616_7&#45;&gt;616_42 -->
<g id="edge25" class="edge"><title>616_24x616_7&#45;&gt;616_42</title>
<path fill="none" stroke="black" d="M1078.89,-182.51C1040.63,-181.857 592.608,-173.616 464.5,-144.054 462.824,-143.667 461.127,-143.213 459.427,-142.707"/>
<polygon fill="black" stroke="black" points="460.406,-139.342 449.811,-139.367 458.109,-145.954 460.406,-139.342"/>
</g>
<!-- 616_41 -->
<g id="node29" class="node"><title>616_41</title>
<polygon fill="#66cdaa" stroke="black" points="531,-139.29 474,-139.29 474,-116.29 531,-116.29 531,-139.29"/>
<text text-anchor="middle" x="502.5" y="-124.09" font-family="Times,serif" font-size="14.00">616_41</text>
</g>
<!-- 616_24x616_7&#45;&gt;616_41 -->
<g id="edge26" class="edge"><title>616_24x616_7&#45;&gt;616_41</title>
<path fill="none" stroke="black" d="M1078.78,-182.478C1042.46,-181.448 652.443,-169.851 540.5,-144.054 538.785,-143.659 537.047,-143.197 535.306,-142.686"/>
<polygon fill="black" stroke="black" points="536.037,-139.238 525.443,-139.329 533.782,-145.865 536.037,-139.238"/>
</g>
<!-- 616_40 -->
<g id="node30" class="node"><title>616_40</title>
<ellipse fill="#66cdaa" stroke="black" cx="589.5" cy="-127.79" rx="40.1111" ry="16.0303"/>
<text text-anchor="middle" x="589.5" y="-124.09" font-family="Times,serif" font-size="14.00">616_40</text>
</g>
<!-- 616_24x616_7&#45;&gt;616_40 -->
<g id="edge27" class="edge"><title>616_24x616_7&#45;&gt;616_40</title>
<path fill="none" stroke="black" d="M1079,-182.537C1052.58,-182.317 821.738,-179.401 639.5,-144.054 636.054,-143.385 632.509,-142.571 628.972,-141.669"/>
<polygon fill="black" stroke="black" points="629.689,-138.236 619.118,-138.947 627.826,-144.984 629.689,-138.236"/>
</g>
<!-- 616_39 -->
<g id="node31" class="node"><title>616_39</title>
<ellipse fill="#66cdaa" stroke="black" cx="688.5" cy="-127.79" rx="40.1111" ry="16.0303"/>
<text text-anchor="middle" x="688.5" y="-124.09" font-family="Times,serif" font-size="14.00">616_39</text>
</g>
<!-- 616_24x616_7&#45;&gt;616_39 -->
<g id="edge28" class="edge"><title>616_24x616_7&#45;&gt;616_39</title>
<path fill="none" stroke="black" d="M1079.02,-182.451C1056.08,-181.464 878.744,-173.072 738.5,-144.054 735.063,-143.343 731.523,-142.498 727.991,-141.577"/>
<polygon fill="black" stroke="black" points="728.717,-138.145 718.143,-138.823 726.831,-144.887 728.717,-138.145"/>
</g>
<!-- 616_38 -->
<g id="node32" class="node"><title>616_38</title>
<ellipse fill="#66cdaa" stroke="black" cx="787.5" cy="-127.79" rx="40.1111" ry="16.0303"/>
<text text-anchor="middle" x="787.5" y="-124.09" font-family="Times,serif" font-size="14.00">616_38</text>
</g>
<!-- 616_24x616_7&#45;&gt;616_38 -->
<g id="edge29" class="edge"><title>616_24x616_7&#45;&gt;616_38</title>
<path fill="none" stroke="black" d="M1079.07,-182.302C1060.27,-180.323 936.127,-166.771 837.5,-144.054 834.125,-143.276 830.646,-142.392 827.168,-141.449"/>
<polygon fill="black" stroke="black" points="828.034,-138.057 817.458,-138.679 826.114,-144.788 828.034,-138.057"/>
</g>
<!-- 616_37 -->
<g id="node33" class="node"><title>616_37</title>
<ellipse fill="#66cdaa" stroke="black" cx="886.5" cy="-127.79" rx="40.1111" ry="16.0303"/>
<text text-anchor="middle" x="886.5" y="-124.09" font-family="Times,serif" font-size="14.00">616_37</text>
</g>
<!-- 616_24x616_7&#45;&gt;616_37 -->
<g id="edge30" class="edge"><title>616_24x616_7&#45;&gt;616_37</title>
<path fill="none" stroke="black" d="M1079.45,-182.039C1066.48,-178.782 994.608,-160.631 936.5,-144.054 933.402,-143.17 930.201,-142.238 926.986,-141.287"/>
<polygon fill="black" stroke="black" points="927.971,-137.929 917.387,-138.413 925.963,-144.635 927.971,-137.929"/>
</g>
<!-- 616_30 -->
<g id="node34" class="node"><title>616_30</title>
<ellipse fill="#66cdaa" stroke="black" cx="985.5" cy="-127.79" rx="40.1111" ry="16.0303"/>
<text text-anchor="middle" x="985.5" y="-124.09" font-family="Times,serif" font-size="14.00">616_30</text>
</g>
<!-- 616_24x616_7&#45;&gt;616_30 -->
<g id="edge31" class="edge"><title>616_24x616_7&#45;&gt;616_30</title>
<path fill="none" stroke="black" d="M1079.83,-181.621C1072.42,-177.466 1041.69,-160.258 1017.29,-146.594"/>
<polygon fill="black" stroke="black" points="1018.75,-143.398 1008.31,-141.566 1015.33,-149.506 1018.75,-143.398"/>
</g>
<!-- 616_29 -->
<g id="node35" class="node"><title>616_29</title>
<ellipse fill="#66cdaa" stroke="black" cx="1084.5" cy="-127.79" rx="40.1111" ry="16.0303"/>
<text text-anchor="middle" x="1084.5" y="-124.09" font-family="Times,serif" font-size="14.00">616_29</text>
</g>
<!-- 616_24x616_7&#45;&gt;616_29 -->
<g id="edge32" class="edge"><title>616_24x616_7&#45;&gt;616_29</title>
<path fill="none" stroke="black" d="M1081.64,-179.961C1081.91,-175.178 1082.51,-164.508 1083.09,-154.142"/>
<polygon fill="black" stroke="black" points="1086.58,-154.286 1083.65,-144.107 1079.59,-153.896 1086.58,-154.286"/>
</g>
<!-- 616_28 -->
<g id="node36" class="node"><title>616_28</title>
<ellipse fill="#66cdaa" stroke="black" cx="1183.5" cy="-127.79" rx="40.1111" ry="16.0303"/>
<text text-anchor="middle" x="1183.5" y="-124.09" font-family="Times,serif" font-size="14.00">616_28</text>
</g>
<!-- 616_24x616_7&#45;&gt;616_28 -->
<g id="edge33" class="edge"><title>616_24x616_7&#45;&gt;616_28</title>
<path fill="none" stroke="black" d="M1083.27,-181.621C1091.32,-177.38 1125.17,-159.535 1151.33,-145.745"/>
<polygon fill="black" stroke="black" points="1153,-148.825 1160.21,-141.066 1149.73,-142.632 1153,-148.825"/>
</g>
<!-- 616_27 -->
<g id="node37" class="node"><title>616_27</title>
<ellipse fill="#66cdaa" stroke="black" cx="1282.5" cy="-127.79" rx="40.1111" ry="16.0303"/>
<text text-anchor="middle" x="1282.5" y="-124.09" font-family="Times,serif" font-size="14.00">616_27</text>
</g>
<!-- 616_24x616_7&#45;&gt;616_27 -->
<g id="edge34" class="edge"><title>616_24x616_7&#45;&gt;616_27</title>
<path fill="none" stroke="black" d="M1083.64,-182.048C1097.15,-178.846 1172.06,-160.975 1232.5,-144.054 1235.65,-143.173 1238.9,-142.238 1242.16,-141.282"/>
<polygon fill="black" stroke="black" points="1243.31,-144.591 1251.89,-138.381 1241.31,-137.883 1243.31,-144.591"/>
</g>
<!-- 616_36 -->
<g id="node39" class="node"><title>616_36</title>
<ellipse fill="#66cdaa" stroke="black" cx="1381.5" cy="-127.79" rx="40.1111" ry="16.0303"/>
<text text-anchor="middle" x="1381.5" y="-124.09" font-family="Times,serif" font-size="14.00">616_36</text>
</g>
<!-- 616_24x616_7&#45;&gt;616_36 -->
<g id="edge37" class="edge"><title>616_24x616_7&#45;&gt;616_36</title>
<path fill="none" stroke="black" d="M1083.99,-182.308C1103.25,-180.379 1230.46,-167.13 1331.5,-144.054 1334.88,-143.283 1338.36,-142.402 1341.84,-141.463"/>
<polygon fill="black" stroke="black" points="1342.89,-144.802 1351.55,-138.698 1340.97,-138.07 1342.89,-144.802"/>
</g>
<!-- 616_24 -->
<g id="node5" class="node"><title>616_24</title>
<polygon fill="#66cdaa" stroke="black" points="1028,-250.817 971,-250.817 971,-227.817 1028,-227.817 1028,-250.817"/>
<text text-anchor="middle" x="999.5" y="-235.617" font-family="Times,serif" font-size="14.00">616_24</text>
</g>
<!-- 616_24&#45;&gt;616_24x616_7 -->
<g id="edge4" class="edge"><title>616_24&#45;&gt;616_24x616_7</title>
<path fill="none" stroke="black" d="M1015.7,-227.695C1032.2,-216.877 1057.28,-200.432 1071.23,-191.287"/>
<polygon fill="black" stroke="black" points="1073.21,-194.175 1079.65,-185.765 1069.37,-188.321 1073.21,-194.175"/>
</g>
<!-- 616_26 -->
<g id="node10" class="node"><title>616_26</title>
<polygon fill="dimgrey" stroke="black" points="1896,-139.29 1839,-139.29 1839,-116.29 1896,-116.29 1896,-139.29"/>
<text text-anchor="middle" x="1867.5" y="-124.09" font-family="Times,serif" font-size="14.00">616_26</text>
</g>
<!-- 616_26&#45;&gt;616_26x616_23 -->
<g id="edge10" class="edge"><title>616_26&#45;&gt;616_26x616_23</title>
<path fill="none" stroke="black" d="M1842.75,-116.268C1838.37,-114.576 1833.83,-112.923 1829.5,-111.527 1776.81,-94.5345 1712.05,-80.7494 1685.61,-75.4116"/>
<polygon fill="black" stroke="black" points="1686.22,-71.9646 1675.73,-73.4549 1684.86,-78.8312 1686.22,-71.9646"/>
</g>
<!-- 616_25x616_6 -->
<g id="node11" class="node"><title>616_25x616_6</title>
<polygon fill="none" stroke="black" points="1867.5,-187.054 1864,-183.554 1867.5,-180.054 1871,-183.554 1867.5,-187.054"/>
</g>
<!-- 616_25x616_6&#45;&gt;616_26 -->
<g id="edge9" class="edge"><title>616_25x616_6&#45;&gt;616_26</title>
<path fill="none" stroke="black" d="M1867.5,-179.961C1867.5,-174.493 1867.5,-161.327 1867.5,-149.721"/>
<polygon fill="black" stroke="black" points="1871,-149.372 1867.5,-139.372 1864,-149.372 1871,-149.372"/>
</g>
<!-- 616_8 -->
<g id="node12" class="node"><title>616_8</title>
<ellipse fill="#66cdaa" stroke="black" cx="2020.5" cy="-239.317" rx="35.2113" ry="16.0303"/>
<text text-anchor="middle" x="2020.5" y="-235.617" font-family="Times,serif" font-size="14.00">616_8</text>
</g>
<!-- 616_1x616_2 -->
<g id="node13" class="node"><title>616_1x616_2</title>
<polygon fill="none" stroke="black" points="1576.5,-298.581 1573,-295.081 1576.5,-291.581 1580,-295.081 1576.5,-298.581"/>
</g>
<!-- 616_1x616_2&#45;&gt;616_8 -->
<g id="edge11" class="edge"><title>616_1x616_2&#45;&gt;616_8</title>
<path fill="none" stroke="black" d="M1579.08,-294.067C1604.49,-293.882 1812.92,-291.292 1976.5,-255.581 1979.15,-255.003 1981.86,-254.314 1984.57,-253.554"/>
<polygon fill="black" stroke="black" points="1985.75,-256.853 1994.27,-250.557 1983.68,-250.165 1985.75,-256.853"/>
</g>
<!-- 616_16 -->
<g id="node23" class="node"><title>616_16</title>
<polygon fill="white" stroke="black" points="2131,-250.817 2074,-250.817 2074,-227.817 2131,-227.817 2131,-250.817"/>
<text text-anchor="middle" x="2102.5" y="-235.617" font-family="Times,serif" font-size="14.00">616_16</text>
</g>
<!-- 616_1x616_2&#45;&gt;616_16 -->
<g id="edge20" class="edge"><title>616_1x616_2&#45;&gt;616_16</title>
<path fill="none" stroke="black" d="M1578.95,-293.991C1611.71,-292.775 1963.56,-279.252 2064.5,-255.581 2066.21,-255.179 2067.95,-254.712 2069.69,-254.197"/>
<polygon fill="black" stroke="black" points="2071.22,-257.373 2079.55,-250.827 2068.96,-250.749 2071.22,-257.373"/>
</g>
<!-- 616_13 -->
<g id="node24" class="node"><title>616_13</title>
<polygon fill="#66cdaa" stroke="black" points="2206,-250.817 2149,-250.817 2149,-227.817 2206,-227.817 2206,-250.817"/>
<text text-anchor="middle" x="2177.5" y="-235.617" font-family="Times,serif" font-size="14.00">616_13</text>
</g>
<!-- 616_1x616_2&#45;&gt;616_13 -->
<g id="edge21" class="edge"><title>616_1x616_2&#45;&gt;616_13</title>
<path fill="none" stroke="black" d="M1579.33,-294.011C1617.12,-293.057 2022.99,-282.26 2139.5,-255.581 2141.22,-255.188 2142.95,-254.728 2144.7,-254.219"/>
<polygon fill="black" stroke="black" points="2146.22,-257.398 2154.56,-250.867 2143.97,-250.77 2146.22,-257.398"/>
</g>
<!-- 616_99 -->
<g id="node38" class="node"><title>616_99</title>
<ellipse fill="dimgrey" stroke="black" cx="202.5" cy="-239.317" rx="40.1111" ry="16.0303"/>
<text text-anchor="middle" x="202.5" y="-235.617" font-family="Times,serif" font-size="14.00">616_99</text>
</g>
<!-- 616_1x616_2&#45;&gt;616_99 -->
<g id="edge35" class="edge"><title>616_1x616_2&#45;&gt;616_99</title>
<path fill="none" stroke="black" d="M1573.88,-294.105C1516.53,-294.618 533.531,-302.691 251.5,-255.581 248.101,-255.013 244.611,-254.269 241.135,-253.414"/>
<polygon fill="black" stroke="black" points="242.032,-250.03 231.462,-250.767 240.184,-256.782 242.032,-250.03"/>
</g>
<!-- 616_9 -->
<g id="node41" class="node"><title>616_9</title>
<ellipse fill="#66cdaa" stroke="black" cx="1170.5" cy="-239.317" rx="35.2113" ry="16.0303"/>
<text text-anchor="middle" x="1170.5" y="-235.617" font-family="Times,serif" font-size="14.00">616_9</text>
</g>
<!-- 616_1x616_2&#45;&gt;616_9 -->
<g id="edge39" class="edge"><title>616_1x616_2&#45;&gt;616_9</title>
<path fill="none" stroke="black" d="M1573.87,-294.03C1549.6,-293.514 1361.91,-288.535 1214.5,-255.581 1211.85,-254.989 1209.15,-254.291 1206.44,-253.524"/>
<polygon fill="black" stroke="black" points="1207.33,-250.136 1196.74,-250.513 1205.25,-256.821 1207.33,-250.136"/>
</g>
<!-- 616_17 -->
<g id="node42" class="node"><title>616_17</title>
<polygon fill="dimgrey" stroke="black" points="1281,-250.817 1224,-250.817 1224,-227.817 1281,-227.817 1281,-250.817"/>
<text text-anchor="middle" x="1252.5" y="-235.617" font-family="Times,serif" font-size="14.00">616_17</text>
</g>
<!-- 616_1x616_2&#45;&gt;616_17 -->
<g id="edge40" class="edge"><title>616_1x616_2&#45;&gt;616_17</title>
<path fill="none" stroke="black" d="M1573.9,-293.976C1552.66,-293.073 1405.31,-285.863 1290.5,-255.581 1289.04,-255.195 1287.56,-254.769 1286.07,-254.311"/>
<polygon fill="black" stroke="black" points="1286.91,-250.897 1276.32,-250.927 1284.62,-257.511 1286.91,-250.897"/>
</g>
<!-- 616_10 -->
<g id="node43" class="node"><title>616_10</title>
<ellipse fill="#66cdaa" stroke="black" cx="1339.5" cy="-239.317" rx="40.1111" ry="16.0303"/>
<text text-anchor="middle" x="1339.5" y="-235.617" font-family="Times,serif" font-size="14.00">616_10</text>
</g>
<!-- 616_1x616_2&#45;&gt;616_10 -->
<g id="edge41" class="edge"><title>616_1x616_2&#45;&gt;616_10</title>
<path fill="none" stroke="black" d="M1574.26,-293.701C1558.66,-291.042 1464.66,-274.745 1389.5,-255.581 1386.29,-254.762 1382.98,-253.867 1379.66,-252.933"/>
<polygon fill="black" stroke="black" points="1380.36,-249.491 1369.78,-250.056 1378.4,-256.212 1380.36,-249.491"/>
</g>
<!-- 616_12 -->
<g id="node44" class="node"><title>616_12</title>
<ellipse fill="dimgrey" stroke="black" cx="1438.5" cy="-239.317" rx="40.1111" ry="16.0303"/>
<text text-anchor="middle" x="1438.5" y="-235.617" font-family="Times,serif" font-size="14.00">616_12</text>
</g>
<!-- 616_1x616_2&#45;&gt;616_12 -->
<g id="edge42" class="edge"><title>616_1x616_2&#45;&gt;616_12</title>
<path fill="none" stroke="black" d="M1574.55,-293.321C1563.93,-289.185 1512.26,-269.053 1475.75,-254.83"/>
<polygon fill="black" stroke="black" points="1476.96,-251.543 1466.37,-251.174 1474.41,-258.065 1476.96,-251.543"/>
</g>
<!-- 616_4 -->
<g id="node45" class="node"><title>616_4</title>
<ellipse fill="dimgrey" stroke="black" cx="1532.5" cy="-239.317" rx="35.2113" ry="16.0303"/>
<text text-anchor="middle" x="1532.5" y="-235.617" font-family="Times,serif" font-size="14.00">616_4</text>
</g>
<!-- 616_1x616_2&#45;&gt;616_4 -->
<g id="edge43" class="edge"><title>616_1x616_2&#45;&gt;616_4</title>
<path fill="none" stroke="black" d="M1575.04,-292.292C1571.21,-287.614 1560.52,-274.558 1550.82,-262.702"/>
<polygon fill="black" stroke="black" points="1553.4,-260.327 1544.36,-254.804 1547.98,-264.76 1553.4,-260.327"/>
</g>
<!-- 616_7 -->
<g id="node46" class="node"><title>616_7</title>
<ellipse fill="dimgrey" stroke="black" cx="1081.5" cy="-239.317" rx="35.2113" ry="16.0303"/>
<text text-anchor="middle" x="1081.5" y="-235.617" font-family="Times,serif" font-size="14.00">616_7</text>
</g>
<!-- 616_1x616_2&#45;&gt;616_7 -->
<g id="edge44" class="edge"><title>616_1x616_2&#45;&gt;616_7</title>
<path fill="none" stroke="black" d="M1573.95,-294.098C1546.99,-294.235 1311.47,-294.267 1126.5,-255.581 1123.53,-254.959 1120.48,-254.2 1117.44,-253.357"/>
<polygon fill="black" stroke="black" points="1118.44,-250.004 1107.85,-250.44 1116.4,-256.7 1118.44,-250.004"/>
</g>
<!-- 616_11 -->
<g id="node49" class="node"><title>616_11</title>
<ellipse fill="dimgrey" stroke="black" cx="1715.5" cy="-239.317" rx="40.1111" ry="16.0303"/>
<text text-anchor="middle" x="1715.5" y="-235.617" font-family="Times,serif" font-size="14.00">616_11</text>
</g>
<!-- 616_1x616_2&#45;&gt;616_11 -->
<g id="edge48" class="edge"><title>616_1x616_2&#45;&gt;616_11</title>
<path fill="none" stroke="black" d="M1578.46,-293.321C1589.16,-289.185 1641.21,-269.053 1677.98,-254.83"/>
<polygon fill="black" stroke="black" points="1679.37,-258.046 1687.43,-251.174 1676.84,-251.517 1679.37,-258.046"/>
</g>
<!-- 616_3 -->
<g id="node50" class="node"><title>616_3</title>
<polygon fill="dimgrey" stroke="black" points="1823.5,-250.817 1773.5,-250.817 1773.5,-227.817 1823.5,-227.817 1823.5,-250.817"/>
<text text-anchor="middle" x="1798.5" y="-235.617" font-family="Times,serif" font-size="14.00">616_3</text>
</g>
<!-- 616_1x616_2&#45;&gt;616_3 -->
<g id="edge49" class="edge"><title>616_1x616_2&#45;&gt;616_3</title>
<path fill="none" stroke="black" d="M1578.78,-293.807C1594.67,-291.861 1690.3,-279.51 1764.5,-255.581 1765.39,-255.294 1766.29,-254.991 1767.19,-254.675"/>
<polygon fill="black" stroke="black" points="1768.8,-257.803 1776.83,-250.894 1766.24,-251.285 1768.8,-257.803"/>
</g>
<!-- 616_6 -->
<g id="node53" class="node"><title>616_6</title>
<ellipse fill="#66cdaa" stroke="black" cx="1621.5" cy="-239.317" rx="35.2113" ry="16.0303"/>
<text text-anchor="middle" x="1621.5" y="-235.617" font-family="Times,serif" font-size="14.00">616_6</text>
</g>
<!-- 616_1x616_2&#45;&gt;616_6 -->
<g id="edge52" class="edge"><title>616_1x616_2&#45;&gt;616_6</title>
<path fill="none" stroke="black" d="M1578,-292.292C1581.91,-287.614 1592.84,-274.558 1602.76,-262.702"/>
<polygon fill="black" stroke="black" points="1605.64,-264.719 1609.37,-254.804 1600.27,-260.226 1605.64,-264.719"/>
</g>
<!-- 616_5 -->
<g id="node54" class="node"><title>616_5</title>
<polygon fill="#66cdaa" stroke="black" points="1967.5,-250.817 1917.5,-250.817 1917.5,-227.817 1967.5,-227.817 1967.5,-250.817"/>
<text text-anchor="middle" x="1942.5" y="-235.617" font-family="Times,serif" font-size="14.00">616_5</text>
</g>
<!-- 616_1x616_2&#45;&gt;616_5 -->
<g id="edge54" class="edge"><title>616_1x616_2&#45;&gt;616_5</title>
<path fill="none" stroke="black" d="M1579.21,-294.068C1602.72,-293.9 1774.56,-291.445 1907.5,-255.581 1908.76,-255.241 1910.03,-254.863 1911.31,-254.455"/>
<polygon fill="black" stroke="black" points="1912.85,-257.618 1921.01,-250.867 1910.42,-251.052 1912.85,-257.618"/>
</g>
<!-- 616_21 -->
<g id="node14" class="node"><title>616_21</title>
<polygon fill="#66cdaa" stroke="black" points="306,-139.29 249,-139.29 249,-116.29 306,-116.29 306,-139.29"/>
<text text-anchor="middle" x="277.5" y="-124.09" font-family="Times,serif" font-size="14.00">616_21</text>
</g>
<!-- 616_18x616_99 -->
<g id="node15" class="node"><title>616_18x616_99</title>
<polygon fill="none" stroke="black" points="202.5,-187.054 199,-183.554 202.5,-180.054 206,-183.554 202.5,-187.054"/>
</g>
<!-- 616_18x616_99&#45;&gt;616_21 -->
<g id="edge12" class="edge"><title>616_18x616_99&#45;&gt;616_21</title>
<path fill="none" stroke="black" d="M204.066,-181.431C210.488,-176.828 235.354,-159.003 254.389,-145.357"/>
<polygon fill="black" stroke="black" points="256.549,-148.115 262.638,-139.444 252.471,-142.426 256.549,-148.115"/>
</g>
<!-- 616_20 -->
<g id="node16" class="node"><title>616_20</title>
<polygon fill="#66cdaa" stroke="black" points="57,-139.29 0,-139.29 0,-116.29 57,-116.29 57,-139.29"/>
<text text-anchor="middle" x="28.5" y="-124.09" font-family="Times,serif" font-size="14.00">616_20</text>
</g>
<!-- 616_18x616_99&#45;&gt;616_20 -->
<g id="edge13" class="edge"><title>616_18x616_99&#45;&gt;616_20</title>
<path fill="none" stroke="black" d="M200.229,-182.007C187.128,-178.834 119.914,-162.284 66.5,-144.054 65.4571,-143.698 64.4012,-143.329 63.3376,-142.95"/>
<polygon fill="black" stroke="black" points="64.2984,-139.573 53.7059,-139.349 61.8466,-146.13 64.2984,-139.573"/>
</g>
<!-- 616_19 -->
<g id="node17" class="node"><title>616_19</title>
<ellipse fill="white" stroke="black" cx="115.5" cy="-127.79" rx="40.1111" ry="16.0303"/>
<text text-anchor="middle" x="115.5" y="-124.09" font-family="Times,serif" font-size="14.00">616_19</text>
</g>
<!-- 616_18x616_99&#45;&gt;616_19 -->
<g id="edge14" class="edge"><title>616_18x616_99&#45;&gt;616_19</title>
<path fill="none" stroke="black" d="M200.683,-181.431C193.563,-177.031 166.891,-160.548 145.265,-147.184"/>
<polygon fill="black" stroke="black" points="147.025,-144.158 136.678,-141.878 143.345,-150.112 147.025,-144.158"/>
</g>
<!-- 616_22 -->
<g id="node51" class="node"><title>616_22</title>
<polygon fill="white" stroke="black" points="231,-139.29 174,-139.29 174,-116.29 231,-116.29 231,-139.29"/>
<text text-anchor="middle" x="202.5" y="-124.09" font-family="Times,serif" font-size="14.00">616_22</text>
</g>
<!-- 616_18x616_99&#45;&gt;616_22 -->
<g id="edge50" class="edge"><title>616_18x616_99&#45;&gt;616_22</title>
<path fill="none" stroke="black" d="M202.5,-179.961C202.5,-174.493 202.5,-161.327 202.5,-149.721"/>
<polygon fill="black" stroke="black" points="206,-149.372 202.5,-139.372 199,-149.372 206,-149.372"/>
</g>
<!-- 616_18 -->
<g id="node18" class="node"><title>616_18</title>
<polygon fill="#66cdaa" stroke="black" points="318,-250.817 261,-250.817 261,-227.817 318,-227.817 318,-250.817"/>
<text text-anchor="middle" x="289.5" y="-235.617" font-family="Times,serif" font-size="14.00">616_18</text>
</g>
<!-- 616_18&#45;&gt;616_18x616_99 -->
<g id="edge15" class="edge"><title>616_18&#45;&gt;616_18x616_99</title>
<path fill="none" stroke="black" d="M272.312,-227.695C254.806,-216.877 228.195,-200.432 213.396,-191.287"/>
<polygon fill="black" stroke="black" points="214.806,-188.045 204.46,-185.765 211.127,-193.999 214.806,-188.045"/>
</g>
<!-- 616_25 -->
<g id="node20" class="node"><title>616_25</title>
<polygon fill="#66cdaa" stroke="black" points="1899,-250.817 1842,-250.817 1842,-227.817 1899,-227.817 1899,-250.817"/>
<text text-anchor="middle" x="1870.5" y="-235.617" font-family="Times,serif" font-size="14.00">616_25</text>
</g>
<!-- 616_25&#45;&gt;616_25x616_6 -->
<g id="edge17" class="edge"><title>616_25&#45;&gt;616_25x616_6</title>
<path fill="none" stroke="black" d="M1869.91,-227.695C1869.42,-218.943 1868.73,-206.507 1868.21,-197.234"/>
<polygon fill="black" stroke="black" points="1871.7,-196.982 1867.65,-187.192 1864.71,-197.372 1871.7,-196.982"/>
</g>
<!-- 616_99&#45;&gt;616_18x616_99 -->
<g id="edge36" class="edge"><title>616_99&#45;&gt;616_18x616_99</title>
<path fill="none" stroke="black" d="M202.5,-222.767C202.5,-214.661 202.5,-204.872 202.5,-197.232"/>
<polygon fill="black" stroke="black" points="206,-197.077 202.5,-187.077 199,-197.077 206,-197.077"/>
</g>
<!-- 616_1 -->
<g id="node40" class="node"><title>616_1</title>
<polygon fill="#66cdaa" stroke="black" points="1562.5,-362.344 1512.5,-362.344 1512.5,-339.344 1562.5,-339.344 1562.5,-362.344"/>
<text text-anchor="middle" x="1537.5" y="-347.144" font-family="Times,serif" font-size="14.00">616_1</text>
</g>
<!-- 616_1&#45;&gt;616_1x616_2 -->
<g id="edge38" class="edge"><title>616_1&#45;&gt;616_1x616_2</title>
<path fill="none" stroke="black" d="M1545.21,-339.222C1552.23,-329.544 1562.51,-315.363 1569.35,-305.933"/>
<polygon fill="black" stroke="black" points="1572.36,-307.751 1575.4,-297.601 1566.69,-303.641 1572.36,-307.751"/>
</g>
<!-- 616_7&#45;&gt;616_24x616_7 -->
<g id="edge45" class="edge"><title>616_7&#45;&gt;616_24x616_7</title>
<path fill="none" stroke="black" d="M1081.5,-222.767C1081.5,-214.661 1081.5,-204.872 1081.5,-197.232"/>
<polygon fill="black" stroke="black" points="1085,-197.077 1081.5,-187.077 1078,-197.077 1085,-197.077"/>
</g>
<!-- 616_2 -->
<g id="node47" class="node"><title>616_2</title>
<ellipse fill="#66cdaa" stroke="black" cx="1615.5" cy="-350.844" rx="35.2113" ry="16.0303"/>
<text text-anchor="middle" x="1615.5" y="-347.144" font-family="Times,serif" font-size="14.00">616_2</text>
</g>
<!-- 616_2&#45;&gt;616_1x616_2 -->
<g id="edge47" class="edge"><title>616_2&#45;&gt;616_1x616_2</title>
<path fill="none" stroke="black" d="M1604.84,-335.153C1598.07,-325.814 1589.49,-313.985 1583.55,-305.802"/>
<polygon fill="black" stroke="black" points="1586.35,-303.7 1577.65,-297.661 1580.68,-307.81 1586.35,-303.7"/>
</g>
<!-- 616_14x616_15 -->
<g id="node48" class="node"><title>616_14x616_15</title>
<polygon fill="none" stroke="black" points="1615.5,-410.108 1612,-406.608 1615.5,-403.108 1619,-406.608 1615.5,-410.108"/>
</g>
<!-- 616_14x616_15&#45;&gt;616_2 -->
<g id="edge46" class="edge"><title>616_14x616_15&#45;&gt;616_2</title>
<path fill="none" stroke="black" d="M1615.5,-403.015C1615.5,-398.232 1615.5,-387.562 1615.5,-377.196"/>
<polygon fill="black" stroke="black" points="1619,-377.161 1615.5,-367.161 1612,-377.161 1619,-377.161"/>
</g>
<!-- 616_15 -->
<g id="node52" class="node"><title>616_15</title>
<ellipse fill="#66cdaa" stroke="black" cx="1572.5" cy="-462.371" rx="40.1111" ry="16.0303"/>
<text text-anchor="middle" x="1572.5" y="-458.671" font-family="Times,serif" font-size="14.00">616_15</text>
</g>
<!-- 616_15&#45;&gt;616_14x616_15 -->
<g id="edge51" class="edge"><title>616_15&#45;&gt;616_14x616_15</title>
<path fill="none" stroke="black" d="M1584.25,-446.68C1591.8,-437.236 1601.39,-425.246 1607.94,-417.054"/>
<polygon fill="black" stroke="black" points="1610.72,-419.183 1614.24,-409.188 1605.26,-414.811 1610.72,-419.183"/>
</g>
<!-- 616_6&#45;&gt;616_25x616_6 -->
<g id="edge53" class="edge"><title>616_6&#45;&gt;616_25x616_6</title>
<path fill="none" stroke="black" d="M1648.44,-228.506C1654.35,-226.545 1660.6,-224.612 1666.5,-223.054 1736.84,-204.483 1823.24,-190.99 1855.02,-186.332"/>
<polygon fill="black" stroke="black" points="1855.68,-189.773 1865.08,-184.888 1854.69,-182.844 1855.68,-189.773"/>
</g>
<!-- 616_14 -->
<g id="node55" class="node"><title>616_14</title>
<polygon fill="#66cdaa" stroke="black" points="1688,-473.871 1631,-473.871 1631,-450.871 1688,-450.871 1688,-473.871"/>
<text text-anchor="middle" x="1659.5" y="-458.671" font-family="Times,serif" font-size="14.00">616_14</text>
</g>
<!-- 616_14&#45;&gt;616_14x616_15 -->
<g id="edge55" class="edge"><title>616_14&#45;&gt;616_14x616_15</title>
<path fill="none" stroke="black" d="M1650.81,-450.749C1642.8,-440.966 1631.03,-426.581 1623.31,-417.154"/>
<polygon fill="black" stroke="black" points="1625.79,-414.65 1616.74,-409.128 1620.37,-419.084 1625.79,-414.65"/>
</g>
</g>
</svg>
