<?xml version="1.0" encoding="UTF-8" standalone="no"?>
<!DOCTYPE svg PUBLIC "-//W3C//DTD SVG 1.1//EN"
 "http://www.w3.org/Graphics/SVG/1.1/DTD/svg11.dtd">
<!-- Generated by graphviz version 2.38.0 (20140413.2041)
 -->
<!-- Title: %3 Pages: 1 -->
<svg width="3474pt" height="264pt"
 viewBox="0.00 0.00 3473.51 263.58" xmlns="http://www.w3.org/2000/svg" xmlns:xlink="http://www.w3.org/1999/xlink">
<g id="graph0" class="graph" transform="scale(1 1) rotate(0) translate(4 259.581)">
<title>%3</title>
<polygon fill="white" stroke="none" points="-4,4 -4,-259.581 3469.51,-259.581 3469.51,4 -4,4"/>
<!-- 1989_35 -->
<g id="node1" class="node"><title>1989_35</title>
<ellipse fill="#66cdaa" stroke="black" cx="1460.25" cy="-16.2635" rx="45.011" ry="16.0303"/>
<text text-anchor="middle" x="1460.25" y="-12.5635" font-family="Times,serif" font-size="14.00">1989_35</text>
</g>
<!-- 1989_33x1989_9 -->
<g id="node2" class="node"><title>1989_33x1989_9</title>
<polygon fill="none" stroke="black" points="1759.25,-75.5269 1755.75,-72.0269 1759.25,-68.5269 1762.75,-72.0269 1759.25,-75.5269"/>
</g>
<!-- 1989_33x1989_9&#45;&gt;1989_35 -->
<g id="edge1" class="edge"><title>1989_33x1989_9&#45;&gt;1989_35</title>
<path fill="none" stroke="black" d="M1756.83,-70.7515C1738.07,-68.5985 1614.16,-53.9812 1515.25,-32.5269 1511.44,-31.6998 1507.5,-30.766 1503.56,-29.778"/>
<polygon fill="black" stroke="black" points="1504.4,-26.3809 1493.84,-27.24 1502.63,-33.1537 1504.4,-26.3809"/>
</g>
<!-- 1989_34 -->
<g id="node22" class="node"><title>1989_34</title>
<ellipse fill="#66cdaa" stroke="black" cx="1569.25" cy="-16.2635" rx="45.011" ry="16.0303"/>
<text text-anchor="middle" x="1569.25" y="-12.5635" font-family="Times,serif" font-size="14.00">1989_34</text>
</g>
<!-- 1989_33x1989_9&#45;&gt;1989_34 -->
<g id="edge18" class="edge"><title>1989_33x1989_9&#45;&gt;1989_34</title>
<path fill="none" stroke="black" d="M1757.12,-70.4231C1743.21,-66.4863 1664.39,-44.1823 1613.36,-29.7436"/>
<polygon fill="black" stroke="black" points="1614.13,-26.3235 1603.55,-26.9685 1612.22,-33.0591 1614.13,-26.3235"/>
</g>
<!-- 1989_40 -->
<g id="node24" class="node"><title>1989_40</title>
<polygon fill="dimgrey" stroke="black" points="1696.25,-27.7635 1632.25,-27.7635 1632.25,-4.76346 1696.25,-4.76346 1696.25,-27.7635"/>
<text text-anchor="middle" x="1664.25" y="-12.5635" font-family="Times,serif" font-size="14.00">1989_40</text>
</g>
<!-- 1989_33x1989_9&#45;&gt;1989_40 -->
<g id="edge21" class="edge"><title>1989_33x1989_9&#45;&gt;1989_40</title>
<path fill="none" stroke="black" d="M1757.61,-70.0937C1749.87,-65.7168 1716.53,-46.8494 1691.89,-32.9043"/>
<polygon fill="black" stroke="black" points="1693.37,-29.7206 1682.95,-27.8413 1689.92,-35.8126 1693.37,-29.7206"/>
</g>
<!-- 1989_39 -->
<g id="node47" class="node"><title>1989_39</title>
<ellipse fill="#66cdaa" stroke="black" cx="1759.25" cy="-16.2635" rx="45.011" ry="16.0303"/>
<text text-anchor="middle" x="1759.25" y="-12.5635" font-family="Times,serif" font-size="14.00">1989_39</text>
</g>
<!-- 1989_33x1989_9&#45;&gt;1989_39 -->
<g id="edge46" class="edge"><title>1989_33x1989_9&#45;&gt;1989_39</title>
<path fill="none" stroke="black" d="M1759.25,-68.4338C1759.25,-63.6514 1759.25,-52.9811 1759.25,-42.6151"/>
<polygon fill="black" stroke="black" points="1762.75,-42.5799 1759.25,-32.58 1755.75,-42.58 1762.75,-42.5799"/>
</g>
<!-- 1989_38 -->
<g id="node49" class="node"><title>1989_38</title>
<ellipse fill="#66cdaa" stroke="black" cx="1868.25" cy="-16.2635" rx="45.011" ry="16.0303"/>
<text text-anchor="middle" x="1868.25" y="-12.5635" font-family="Times,serif" font-size="14.00">1989_38</text>
</g>
<!-- 1989_33x1989_9&#45;&gt;1989_38 -->
<g id="edge48" class="edge"><title>1989_33x1989_9&#45;&gt;1989_38</title>
<path fill="none" stroke="black" d="M1761.15,-70.0937C1769.73,-65.8594 1805.81,-48.0634 1833.75,-34.2823"/>
<polygon fill="black" stroke="black" points="1835.44,-37.3506 1842.86,-29.788 1832.35,-31.0727 1835.44,-37.3506"/>
</g>
<!-- 1989_37 -->
<g id="node50" class="node"><title>1989_37</title>
<ellipse fill="#66cdaa" stroke="black" cx="1977.25" cy="-16.2635" rx="45.011" ry="16.0303"/>
<text text-anchor="middle" x="1977.25" y="-12.5635" font-family="Times,serif" font-size="14.00">1989_37</text>
</g>
<!-- 1989_33x1989_9&#45;&gt;1989_37 -->
<g id="edge49" class="edge"><title>1989_33x1989_9&#45;&gt;1989_37</title>
<path fill="none" stroke="black" d="M1761.56,-70.5176C1776.13,-67.2921 1856.91,-49.3032 1922.25,-32.5269 1925.82,-31.6105 1929.52,-30.6382 1933.22,-29.6457"/>
<polygon fill="black" stroke="black" points="1934.25,-32.9936 1942.98,-26.9954 1932.42,-26.2382 1934.25,-32.9936"/>
</g>
<!-- 1989_36 -->
<g id="node53" class="node"><title>1989_36</title>
<polygon fill="#66cdaa" stroke="black" points="2104.25,-27.7635 2040.25,-27.7635 2040.25,-4.76346 2104.25,-4.76346 2104.25,-27.7635"/>
<text text-anchor="middle" x="2072.25" y="-12.5635" font-family="Times,serif" font-size="14.00">1989_36</text>
</g>
<!-- 1989_33x1989_9&#45;&gt;1989_36 -->
<g id="edge53" class="edge"><title>1989_33x1989_9&#45;&gt;1989_36</title>
<path fill="none" stroke="black" d="M1761.72,-70.8816C1781.87,-69.6507 1921.69,-60.3269 2031.25,-32.5269 2033.13,-32.0506 2035.04,-31.5177 2036.96,-30.9442"/>
<polygon fill="black" stroke="black" points="2038.09,-34.2581 2046.5,-27.813 2035.9,-27.6074 2038.09,-34.2581"/>
</g>
<!-- 1989_7 -->
<g id="node3" class="node"><title>1989_7</title>
<polygon fill="dimgrey" stroke="black" points="2693.75,-139.29 2636.75,-139.29 2636.75,-116.29 2693.75,-116.29 2693.75,-139.29"/>
<text text-anchor="middle" x="2665.25" y="-124.09" font-family="Times,serif" font-size="14.00">1989_7</text>
</g>
<!-- 1989_7x1989_25 -->
<g id="node5" class="node"><title>1989_7x1989_25</title>
<polygon fill="none" stroke="black" points="3025.25,-75.5269 3021.75,-72.0269 3025.25,-68.5269 3028.75,-72.0269 3025.25,-75.5269"/>
</g>
<!-- 1989_7&#45;&gt;1989_7x1989_25 -->
<g id="edge3" class="edge"><title>1989_7&#45;&gt;1989_7x1989_25</title>
<path fill="none" stroke="black" d="M2688.65,-116.28C2693.41,-114.461 2698.43,-112.76 2703.25,-111.527 2820.9,-81.428 2968.88,-74.7181 3012.57,-73.3512"/>
<polygon fill="black" stroke="black" points="3012.73,-76.8483 3022.63,-73.0786 3012.54,-69.8508 3012.73,-76.8483"/>
</g>
<!-- 1989_1x1989_2 -->
<g id="node4" class="node"><title>1989_1x1989_2</title>
<polygon fill="none" stroke="black" points="2437.25,-187.054 2433.75,-183.554 2437.25,-180.054 2440.75,-183.554 2437.25,-187.054"/>
</g>
<!-- 1989_1x1989_2&#45;&gt;1989_7 -->
<g id="edge2" class="edge"><title>1989_1x1989_2&#45;&gt;1989_7</title>
<path fill="none" stroke="black" d="M2439.55,-182.25C2455.54,-180.104 2551.81,-166.645 2627.25,-144.054 2628.66,-143.633 2630.08,-143.181 2631.52,-142.706"/>
<polygon fill="black" stroke="black" points="2632.73,-145.988 2640.96,-139.309 2630.36,-139.401 2632.73,-145.988"/>
</g>
<!-- 1989_6 -->
<g id="node16" class="node"><title>1989_6</title>
<ellipse fill="white" stroke="black" cx="2861.25" cy="-127.79" rx="40.1111" ry="16.0303"/>
<text text-anchor="middle" x="2861.25" y="-124.09" font-family="Times,serif" font-size="14.00">1989_6</text>
</g>
<!-- 1989_1x1989_2&#45;&gt;1989_6 -->
<g id="edge12" class="edge"><title>1989_1x1989_2&#45;&gt;1989_6</title>
<path fill="none" stroke="black" d="M2439.96,-182.476C2464.97,-181.715 2658.34,-174.96 2811.25,-144.054 2814.7,-143.358 2818.24,-142.525 2821.77,-141.611"/>
<polygon fill="black" stroke="black" points="2822.93,-144.922 2831.62,-138.869 2821.05,-138.179 2822.93,-144.922"/>
</g>
<!-- 1989_5 -->
<g id="node17" class="node"><title>1989_5</title>
<ellipse fill="#66cdaa" stroke="black" cx="2960.25" cy="-127.79" rx="40.1111" ry="16.0303"/>
<text text-anchor="middle" x="2960.25" y="-124.09" font-family="Times,serif" font-size="14.00">1989_5</text>
</g>
<!-- 1989_1x1989_2&#45;&gt;1989_5 -->
<g id="edge13" class="edge"><title>1989_1x1989_2&#45;&gt;1989_5</title>
<path fill="none" stroke="black" d="M2439.93,-182.556C2468.21,-182.54 2715.22,-181.31 2910.25,-144.054 2913.7,-143.395 2917.25,-142.587 2920.79,-141.69"/>
<polygon fill="black" stroke="black" points="2921.93,-145.006 2930.64,-138.976 2920.07,-138.257 2921.93,-145.006"/>
</g>
<!-- 1989_4 -->
<g id="node18" class="node"><title>1989_4</title>
<ellipse fill="#66cdaa" stroke="black" cx="2394.25" cy="-127.79" rx="40.1111" ry="16.0303"/>
<text text-anchor="middle" x="2394.25" y="-124.09" font-family="Times,serif" font-size="14.00">1989_4</text>
</g>
<!-- 1989_1x1989_2&#45;&gt;1989_4 -->
<g id="edge14" class="edge"><title>1989_1x1989_2&#45;&gt;1989_4</title>
<path fill="none" stroke="black" d="M2435.82,-180.765C2432.11,-176.117 2421.77,-163.196 2412.34,-151.401"/>
<polygon fill="black" stroke="black" points="2415.02,-149.154 2406.04,-143.53 2409.56,-153.526 2415.02,-149.154"/>
</g>
<!-- 1989_3 -->
<g id="node19" class="node"><title>1989_3</title>
<polygon fill="#66cdaa" stroke="black" points="2509.75,-139.29 2452.75,-139.29 2452.75,-116.29 2509.75,-116.29 2509.75,-139.29"/>
<text text-anchor="middle" x="2481.25" y="-124.09" font-family="Times,serif" font-size="14.00">1989_3</text>
</g>
<!-- 1989_1x1989_2&#45;&gt;1989_3 -->
<g id="edge15" class="edge"><title>1989_1x1989_2&#45;&gt;1989_3</title>
<path fill="none" stroke="black" d="M2438.72,-180.765C2442.98,-175.564 2455.71,-160.005 2466.14,-147.256"/>
<polygon fill="black" stroke="black" points="2468.93,-149.376 2472.56,-139.42 2463.51,-144.942 2468.93,-149.376"/>
</g>
<!-- 1989_99 -->
<g id="node23" class="node"><title>1989_99</title>
<polygon fill="dimgrey" stroke="black" points="1398.25,-139.29 1334.25,-139.29 1334.25,-116.29 1398.25,-116.29 1398.25,-139.29"/>
<text text-anchor="middle" x="1366.25" y="-124.09" font-family="Times,serif" font-size="14.00">1989_99</text>
</g>
<!-- 1989_1x1989_2&#45;&gt;1989_99 -->
<g id="edge19" class="edge"><title>1989_1x1989_2&#45;&gt;1989_99</title>
<path fill="none" stroke="black" d="M2434.77,-182.452C2398.12,-180.945 1964.19,-163.006 1614.25,-144.054 1541.87,-140.133 1457.65,-134.783 1408.33,-131.569"/>
<polygon fill="black" stroke="black" points="1408.56,-128.077 1398.35,-130.917 1408.1,-135.062 1408.56,-128.077"/>
</g>
<!-- 1989_9 -->
<g id="node25" class="node"><title>1989_9</title>
<ellipse fill="dimgrey" stroke="black" cx="2101.25" cy="-127.79" rx="40.1111" ry="16.0303"/>
<text text-anchor="middle" x="2101.25" y="-124.09" font-family="Times,serif" font-size="14.00">1989_9</text>
</g>
<!-- 1989_1x1989_2&#45;&gt;1989_9 -->
<g id="edge22" class="edge"><title>1989_1x1989_2&#45;&gt;1989_9</title>
<path fill="none" stroke="black" d="M2434.74,-182.152C2411.6,-178.449 2234.4,-150.095 2148.14,-136.292"/>
<polygon fill="black" stroke="black" points="2148.51,-132.808 2138.09,-134.684 2147.41,-139.72 2148.51,-132.808"/>
</g>
<!-- 1989_8 -->
<g id="node26" class="node"><title>1989_8</title>
<polygon fill="dimgrey" stroke="black" points="2335.75,-139.29 2278.75,-139.29 2278.75,-116.29 2335.75,-116.29 2335.75,-139.29"/>
<text text-anchor="middle" x="2307.25" y="-124.09" font-family="Times,serif" font-size="14.00">1989_8</text>
</g>
<!-- 1989_1x1989_2&#45;&gt;1989_8 -->
<g id="edge24" class="edge"><title>1989_1x1989_2&#45;&gt;1989_8</title>
<path fill="none" stroke="black" d="M2435.42,-181.794C2425.4,-177.652 2376.6,-157.471 2342.2,-143.244"/>
<polygon fill="black" stroke="black" points="2343.51,-139.995 2332.93,-139.407 2340.83,-146.463 2343.51,-139.995"/>
</g>
<!-- 1989_28 -->
<g id="node42" class="node"><title>1989_28</title>
<ellipse fill="#66cdaa" stroke="black" cx="2821.25" cy="-16.2635" rx="45.011" ry="16.0303"/>
<text text-anchor="middle" x="2821.25" y="-12.5635" font-family="Times,serif" font-size="14.00">1989_28</text>
</g>
<!-- 1989_7x1989_25&#45;&gt;1989_28 -->
<g id="edge41" class="edge"><title>1989_7x1989_25&#45;&gt;1989_28</title>
<path fill="none" stroke="black" d="M3023.15,-70.4982C3009.85,-67.1544 2936.13,-48.5687 2876.25,-32.5269 2872.7,-31.5732 2869.01,-30.5745 2865.31,-29.564"/>
<polygon fill="black" stroke="black" points="2866.13,-26.1588 2855.56,-26.8843 2864.27,-32.9087 2866.13,-26.1588"/>
</g>
<!-- 1989_29 -->
<g id="node43" class="node"><title>1989_29</title>
<ellipse fill="#66cdaa" stroke="black" cx="2930.25" cy="-16.2635" rx="45.011" ry="16.0303"/>
<text text-anchor="middle" x="2930.25" y="-12.5635" font-family="Times,serif" font-size="14.00">1989_29</text>
</g>
<!-- 1989_7x1989_25&#45;&gt;1989_29 -->
<g id="edge42" class="edge"><title>1989_7x1989_25&#45;&gt;1989_29</title>
<path fill="none" stroke="black" d="M3023.61,-70.0937C3016.31,-65.9641 2986.22,-48.935 2962.15,-35.3115"/>
<polygon fill="black" stroke="black" points="2963.7,-32.1702 2953.27,-30.291 2960.25,-38.2623 2963.7,-32.1702"/>
</g>
<!-- 1989_30 -->
<g id="node45" class="node"><title>1989_30</title>
<polygon fill="#66cdaa" stroke="black" points="3057.25,-27.7635 2993.25,-27.7635 2993.25,-4.76346 3057.25,-4.76346 3057.25,-27.7635"/>
<text text-anchor="middle" x="3025.25" y="-12.5635" font-family="Times,serif" font-size="14.00">1989_30</text>
</g>
<!-- 1989_7x1989_25&#45;&gt;1989_30 -->
<g id="edge44" class="edge"><title>1989_7x1989_25&#45;&gt;1989_30</title>
<path fill="none" stroke="black" d="M3025.25,-68.4338C3025.25,-62.9657 3025.25,-49.8005 3025.25,-38.1938"/>
<polygon fill="black" stroke="black" points="3028.75,-37.8452 3025.25,-27.8453 3021.75,-37.8453 3028.75,-37.8452"/>
</g>
<!-- 1989_26 -->
<g id="node46" class="node"><title>1989_26</title>
<polygon fill="#66cdaa" stroke="black" points="3139.25,-27.7635 3075.25,-27.7635 3075.25,-4.76346 3139.25,-4.76346 3139.25,-27.7635"/>
<text text-anchor="middle" x="3107.25" y="-12.5635" font-family="Times,serif" font-size="14.00">1989_26</text>
</g>
<!-- 1989_7x1989_25&#45;&gt;1989_26 -->
<g id="edge45" class="edge"><title>1989_7x1989_25&#45;&gt;1989_26</title>
<path fill="none" stroke="black" d="M3026.97,-69.904C3034.05,-65.2596 3061.67,-47.1535 3082.55,-33.4626"/>
<polygon fill="black" stroke="black" points="3084.56,-36.3276 3091.01,-27.9175 3080.72,-30.4736 3084.56,-36.3276"/>
</g>
<!-- 1989_27 -->
<g id="node48" class="node"><title>1989_27</title>
<ellipse fill="#66cdaa" stroke="black" cx="3202.25" cy="-16.2635" rx="45.011" ry="16.0303"/>
<text text-anchor="middle" x="3202.25" y="-12.5635" font-family="Times,serif" font-size="14.00">1989_27</text>
</g>
<!-- 1989_7x1989_25&#45;&gt;1989_27 -->
<g id="edge47" class="edge"><title>1989_7x1989_25&#45;&gt;1989_27</title>
<path fill="none" stroke="black" d="M3027.24,-70.4231C3040.01,-66.5458 3111.43,-44.8522 3159,-30.4034"/>
<polygon fill="black" stroke="black" points="3160.2,-33.6945 3168.75,-27.4392 3158.17,-26.9967 3160.2,-33.6945"/>
</g>
<!-- 1989_32 -->
<g id="node51" class="node"><title>1989_32</title>
<ellipse fill="#66cdaa" stroke="black" cx="3311.25" cy="-16.2635" rx="45.011" ry="16.0303"/>
<text text-anchor="middle" x="3311.25" y="-12.5635" font-family="Times,serif" font-size="14.00">1989_32</text>
</g>
<!-- 1989_7x1989_25&#45;&gt;1989_32 -->
<g id="edge50" class="edge"><title>1989_7x1989_25&#45;&gt;1989_32</title>
<path fill="none" stroke="black" d="M3027.55,-70.7385C3045.3,-68.4877 3162.57,-53.2722 3256.25,-32.5269 3260.06,-31.6833 3264,-30.7381 3267.94,-29.7426"/>
<polygon fill="black" stroke="black" points="3268.87,-33.1171 3277.66,-27.1932 3267.09,-26.3464 3268.87,-33.1171"/>
</g>
<!-- 1989_31 -->
<g id="node57" class="node"><title>1989_31</title>
<ellipse fill="#66cdaa" stroke="black" cx="3420.25" cy="-16.2635" rx="45.011" ry="16.0303"/>
<text text-anchor="middle" x="3420.25" y="-12.5635" font-family="Times,serif" font-size="14.00">1989_31</text>
</g>
<!-- 1989_7x1989_25&#45;&gt;1989_31 -->
<g id="edge57" class="edge"><title>1989_7x1989_25&#45;&gt;1989_31</title>
<path fill="none" stroke="black" d="M3027.71,-70.898C3050.4,-69.6766 3225.88,-59.5819 3365.25,-32.5269 3369.14,-31.7731 3373.15,-30.8831 3377.15,-29.9179"/>
<polygon fill="black" stroke="black" points="3378.19,-33.2659 3387.01,-27.3981 3376.45,-26.484 3378.19,-33.2659"/>
</g>
<!-- 1989_16 -->
<g id="node6" class="node"><title>1989_16</title>
<ellipse fill="#66cdaa" stroke="black" cx="45.2548" cy="-16.2635" rx="45.011" ry="16.0303"/>
<text text-anchor="middle" x="45.2548" y="-12.5635" font-family="Times,serif" font-size="14.00">1989_16</text>
</g>
<!-- 1989_99x1989_10 -->
<g id="node7" class="node"><title>1989_99x1989_10</title>
<polygon fill="none" stroke="black" points="804.255,-75.5269 800.755,-72.0269 804.255,-68.5269 807.755,-72.0269 804.255,-75.5269"/>
</g>
<!-- 1989_99x1989_10&#45;&gt;1989_16 -->
<g id="edge4" class="edge"><title>1989_99x1989_10&#45;&gt;1989_16</title>
<path fill="none" stroke="black" d="M801.792,-70.9686C761.871,-70.0127 247.978,-57.2934 99.2548,-32.5269 95.528,-31.9063 91.691,-31.1234 87.8629,-30.2417"/>
<polygon fill="black" stroke="black" points="88.3833,-26.7637 77.8317,-27.7204 86.6769,-33.5526 88.3833,-26.7637"/>
</g>
<!-- 1989_15 -->
<g id="node8" class="node"><title>1989_15</title>
<polygon fill="#66cdaa" stroke="black" points="172.255,-27.7635 108.255,-27.7635 108.255,-4.76346 172.255,-4.76346 172.255,-27.7635"/>
<text text-anchor="middle" x="140.255" y="-12.5635" font-family="Times,serif" font-size="14.00">1989_15</text>
</g>
<!-- 1989_99x1989_10&#45;&gt;1989_15 -->
<g id="edge5" class="edge"><title>1989_99x1989_10&#45;&gt;1989_15</title>
<path fill="none" stroke="black" d="M801.622,-70.9724C763.026,-70.1569 311.113,-60.0765 181.255,-32.5269 179.082,-32.0659 176.87,-31.5109 174.656,-30.8895"/>
<polygon fill="black" stroke="black" points="175.65,-27.5326 165.059,-27.8251 173.52,-34.201 175.65,-27.5326"/>
</g>
<!-- 1989_14 -->
<g id="node9" class="node"><title>1989_14</title>
<ellipse fill="white" stroke="black" cx="235.255" cy="-16.2635" rx="45.011" ry="16.0303"/>
<text text-anchor="middle" x="235.255" y="-12.5635" font-family="Times,serif" font-size="14.00">1989_14</text>
</g>
<!-- 1989_99x1989_10&#45;&gt;1989_14 -->
<g id="edge6" class="edge"><title>1989_99x1989_10&#45;&gt;1989_14</title>
<path fill="none" stroke="black" d="M801.725,-71.028C772.907,-71.0022 503.588,-69.7478 290.255,-32.5269 286.304,-31.8376 282.228,-30.9849 278.165,-30.0375"/>
<polygon fill="black" stroke="black" points="278.723,-26.5688 268.171,-27.527 277.017,-33.3579 278.723,-26.5688"/>
</g>
<!-- 1989_13 -->
<g id="node10" class="node"><title>1989_13</title>
<ellipse fill="#66cdaa" stroke="black" cx="344.255" cy="-16.2635" rx="45.011" ry="16.0303"/>
<text text-anchor="middle" x="344.255" y="-12.5635" font-family="Times,serif" font-size="14.00">1989_13</text>
</g>
<!-- 1989_99x1989_10&#45;&gt;1989_13 -->
<g id="edge7" class="edge"><title>1989_99x1989_10&#45;&gt;1989_13</title>
<path fill="none" stroke="black" d="M801.653,-70.9608C775.969,-70.2721 565.281,-63.7854 398.255,-32.5269 394.592,-31.8414 390.818,-31.02 387.048,-30.1186"/>
<polygon fill="black" stroke="black" points="387.713,-26.676 377.158,-27.5842 385.976,-33.457 387.713,-26.676"/>
</g>
<!-- 1989_12 -->
<g id="node11" class="node"><title>1989_12</title>
<polygon fill="dimgrey" stroke="black" points="471.255,-27.7635 407.255,-27.7635 407.255,-4.76346 471.255,-4.76346 471.255,-27.7635"/>
<text text-anchor="middle" x="439.255" y="-12.5635" font-family="Times,serif" font-size="14.00">1989_12</text>
</g>
<!-- 1989_99x1989_10&#45;&gt;1989_12 -->
<g id="edge8" class="edge"><title>1989_99x1989_10&#45;&gt;1989_12</title>
<path fill="none" stroke="black" d="M801.618,-70.9528C778.721,-70.2605 611.293,-64.2232 480.255,-32.5269 478.372,-32.0716 476.458,-31.5555 474.537,-30.9953"/>
<polygon fill="black" stroke="black" points="475.583,-27.6551 464.991,-27.9036 473.426,-34.3146 475.583,-27.6551"/>
</g>
<!-- 1989_11 -->
<g id="node12" class="node"><title>1989_11</title>
<ellipse fill="#66cdaa" stroke="black" cx="534.255" cy="-16.2635" rx="45.011" ry="16.0303"/>
<text text-anchor="middle" x="534.255" y="-12.5635" font-family="Times,serif" font-size="14.00">1989_11</text>
</g>
<!-- 1989_99x1989_10&#45;&gt;1989_11 -->
<g id="edge9" class="edge"><title>1989_99x1989_10&#45;&gt;1989_11</title>
<path fill="none" stroke="black" d="M801.681,-70.6594C783.76,-68.081 675.772,-52.2329 589.255,-32.5269 585.61,-31.6968 581.846,-30.78 578.076,-29.82"/>
<polygon fill="black" stroke="black" points="578.724,-26.3714 568.162,-27.208 576.94,-33.1404 578.724,-26.3714"/>
</g>
<!-- 1989_17 -->
<g id="node20" class="node"><title>1989_17</title>
<ellipse fill="#66cdaa" stroke="black" cx="643.255" cy="-16.2635" rx="45.011" ry="16.0303"/>
<text text-anchor="middle" x="643.255" y="-12.5635" font-family="Times,serif" font-size="14.00">1989_17</text>
</g>
<!-- 1989_99x1989_10&#45;&gt;1989_17 -->
<g id="edge16" class="edge"><title>1989_99x1989_10&#45;&gt;1989_17</title>
<path fill="none" stroke="black" d="M802.219,-70.3471C790.231,-66.3438 727.89,-45.5261 684.936,-31.1823"/>
<polygon fill="black" stroke="black" points="685.878,-27.8069 675.284,-27.9592 683.661,-34.4465 685.878,-27.8069"/>
</g>
<!-- 1989_18 -->
<g id="node36" class="node"><title>1989_18</title>
<ellipse fill="#66cdaa" stroke="black" cx="752.255" cy="-16.2635" rx="45.011" ry="16.0303"/>
<text text-anchor="middle" x="752.255" y="-12.5635" font-family="Times,serif" font-size="14.00">1989_18</text>
</g>
<!-- 1989_99x1989_10&#45;&gt;1989_18 -->
<g id="edge34" class="edge"><title>1989_99x1989_10&#45;&gt;1989_18</title>
<path fill="none" stroke="black" d="M802.969,-69.6979C798.851,-65.4396 785.552,-51.6903 773.607,-39.3397"/>
<polygon fill="black" stroke="black" points="775.906,-36.6826 766.438,-31.9279 770.875,-41.5492 775.906,-36.6826"/>
</g>
<!-- 1989_20 -->
<g id="node38" class="node"><title>1989_20</title>
<ellipse fill="#66cdaa" stroke="black" cx="861.255" cy="-16.2635" rx="45.011" ry="16.0303"/>
<text text-anchor="middle" x="861.255" y="-12.5635" font-family="Times,serif" font-size="14.00">1989_20</text>
</g>
<!-- 1989_99x1989_10&#45;&gt;1989_20 -->
<g id="edge37" class="edge"><title>1989_99x1989_10&#45;&gt;1989_20</title>
<path fill="none" stroke="black" d="M805.664,-69.6979C810.25,-65.3724 825.218,-51.2539 838.468,-38.7561"/>
<polygon fill="black" stroke="black" points="841.107,-41.0787 845.98,-31.6711 836.304,-35.9865 841.107,-41.0787"/>
</g>
<!-- 1989_24 -->
<g id="node40" class="node"><title>1989_24</title>
<ellipse fill="#66cdaa" stroke="black" cx="970.255" cy="-16.2635" rx="45.011" ry="16.0303"/>
<text text-anchor="middle" x="970.255" y="-12.5635" font-family="Times,serif" font-size="14.00">1989_24</text>
</g>
<!-- 1989_99x1989_10&#45;&gt;1989_24 -->
<g id="edge39" class="edge"><title>1989_99x1989_10&#45;&gt;1989_24</title>
<path fill="none" stroke="black" d="M806.354,-70.3471C818.81,-66.3128 883.991,-45.2024 928.305,-30.8499"/>
<polygon fill="black" stroke="black" points="929.535,-34.1308 937.97,-27.7198 927.378,-27.4713 929.535,-34.1308"/>
</g>
<!-- 1989_19 -->
<g id="node41" class="node"><title>1989_19</title>
<ellipse fill="#66cdaa" stroke="black" cx="1079.25" cy="-16.2635" rx="45.011" ry="16.0303"/>
<text text-anchor="middle" x="1079.25" y="-12.5635" font-family="Times,serif" font-size="14.00">1989_19</text>
</g>
<!-- 1989_99x1989_10&#45;&gt;1989_19 -->
<g id="edge40" class="edge"><title>1989_99x1989_10&#45;&gt;1989_19</title>
<path fill="none" stroke="black" d="M806.889,-70.6654C825.23,-68.1274 935.748,-52.5025 1024.25,-32.5269 1027.9,-31.704 1031.67,-30.7923 1035.44,-29.8357"/>
<polygon fill="black" stroke="black" points="1036.57,-33.1567 1045.35,-27.2292 1034.79,-26.3867 1036.57,-33.1567"/>
</g>
<!-- 1989_23 -->
<g id="node54" class="node"><title>1989_23</title>
<ellipse fill="#66cdaa" stroke="black" cx="1188.25" cy="-16.2635" rx="45.011" ry="16.0303"/>
<text text-anchor="middle" x="1188.25" y="-12.5635" font-family="Times,serif" font-size="14.00">1989_23</text>
</g>
<!-- 1989_99x1989_10&#45;&gt;1989_23 -->
<g id="edge54" class="edge"><title>1989_99x1989_10&#45;&gt;1989_23</title>
<path fill="none" stroke="black" d="M806.63,-70.89C828.586,-69.5954 998.379,-58.9699 1133.25,-32.5269 1137.14,-31.7658 1141.15,-30.8709 1145.15,-29.9024"/>
<polygon fill="black" stroke="black" points="1146.18,-33.2498 1155,-27.3778 1144.45,-26.4687 1146.18,-33.2498"/>
</g>
<!-- 1989_22 -->
<g id="node55" class="node"><title>1989_22</title>
<polygon fill="#66cdaa" stroke="black" points="1315.25,-27.7635 1251.25,-27.7635 1251.25,-4.76346 1315.25,-4.76346 1315.25,-27.7635"/>
<text text-anchor="middle" x="1283.25" y="-12.5635" font-family="Times,serif" font-size="14.00">1989_22</text>
</g>
<!-- 1989_99x1989_10&#45;&gt;1989_22 -->
<g id="edge55" class="edge"><title>1989_99x1989_10&#45;&gt;1989_22</title>
<path fill="none" stroke="black" d="M807.08,-71.0673C834.956,-71.4077 1063.55,-72.87 1242.25,-32.5269 1244.2,-32.0879 1246.18,-31.5784 1248.16,-31.0175"/>
<polygon fill="black" stroke="black" points="1249.53,-34.2537 1257.99,-27.8732 1247.4,-27.5865 1249.53,-34.2537"/>
</g>
<!-- 1989_21 -->
<g id="node56" class="node"><title>1989_21</title>
<polygon fill="#66cdaa" stroke="black" points="1397.25,-27.7635 1333.25,-27.7635 1333.25,-4.76346 1397.25,-4.76346 1397.25,-27.7635"/>
<text text-anchor="middle" x="1365.25" y="-12.5635" font-family="Times,serif" font-size="14.00">1989_21</text>
</g>
<!-- 1989_99x1989_10&#45;&gt;1989_21 -->
<g id="edge56" class="edge"><title>1989_99x1989_10&#45;&gt;1989_21</title>
<path fill="none" stroke="black" d="M806.864,-70.9365C841.747,-69.7125 1216.36,-56.1046 1324.25,-32.5269 1326.43,-32.0526 1328.63,-31.4875 1330.85,-30.8584"/>
<polygon fill="black" stroke="black" points="1331.99,-34.167 1340.44,-27.7746 1329.85,-27.5028 1331.99,-34.167"/>
</g>
<!-- 1989_50 -->
<g id="node13" class="node"><title>1989_50</title>
<ellipse fill="#66cdaa" stroke="black" cx="1209.25" cy="-239.317" rx="45.011" ry="16.0303"/>
<text text-anchor="middle" x="1209.25" y="-235.617" font-family="Times,serif" font-size="14.00">1989_50</text>
</g>
<!-- 1989_49x1989_50 -->
<g id="node14" class="node"><title>1989_49x1989_50</title>
<polygon fill="none" stroke="black" points="1256.25,-187.054 1252.75,-183.554 1256.25,-180.054 1259.75,-183.554 1256.25,-187.054"/>
</g>
<!-- 1989_50&#45;&gt;1989_49x1989_50 -->
<g id="edge10" class="edge"><title>1989_50&#45;&gt;1989_49x1989_50</title>
<path fill="none" stroke="black" d="M1222.1,-223.626C1230.45,-214.077 1241.07,-201.925 1248.23,-193.729"/>
<polygon fill="black" stroke="black" points="1250.93,-195.966 1254.87,-186.134 1245.66,-191.359 1250.93,-195.966"/>
</g>
<!-- 1989_10 -->
<g id="node37" class="node"><title>1989_10</title>
<ellipse fill="#66cdaa" stroke="black" cx="856.255" cy="-127.79" rx="45.011" ry="16.0303"/>
<text text-anchor="middle" x="856.255" y="-124.09" font-family="Times,serif" font-size="14.00">1989_10</text>
</g>
<!-- 1989_49x1989_50&#45;&gt;1989_10 -->
<g id="edge35" class="edge"><title>1989_49x1989_50&#45;&gt;1989_10</title>
<path fill="none" stroke="black" d="M1253.7,-182.211C1227.68,-178.713 1009.54,-149.393 907.943,-135.738"/>
<polygon fill="black" stroke="black" points="908.278,-132.251 897.901,-134.388 907.345,-139.189 908.278,-132.251"/>
</g>
<!-- 1989_33 -->
<g id="node52" class="node"><title>1989_33</title>
<polygon fill="dimgrey" stroke="black" points="1687.25,-139.29 1623.25,-139.29 1623.25,-116.29 1687.25,-116.29 1687.25,-139.29"/>
<text text-anchor="middle" x="1655.25" y="-124.09" font-family="Times,serif" font-size="14.00">1989_33</text>
</g>
<!-- 1989_49x1989_50&#45;&gt;1989_33 -->
<g id="edge51" class="edge"><title>1989_49x1989_50&#45;&gt;1989_33</title>
<path fill="none" stroke="black" d="M1258.8,-182.211C1285.6,-178.599 1516.71,-147.459 1613.2,-134.457"/>
<polygon fill="black" stroke="black" points="1613.76,-137.914 1623.2,-133.11 1612.82,-130.977 1613.76,-137.914"/>
</g>
<!-- 1989_49 -->
<g id="node15" class="node"><title>1989_49</title>
<polygon fill="#66cdaa" stroke="black" points="1336.25,-250.817 1272.25,-250.817 1272.25,-227.817 1336.25,-227.817 1336.25,-250.817"/>
<text text-anchor="middle" x="1304.25" y="-235.617" font-family="Times,serif" font-size="14.00">1989_49</text>
</g>
<!-- 1989_49&#45;&gt;1989_49x1989_50 -->
<g id="edge11" class="edge"><title>1989_49&#45;&gt;1989_49x1989_50</title>
<path fill="none" stroke="black" d="M1294.77,-227.695C1285.94,-217.807 1272.92,-203.217 1264.51,-193.798"/>
<polygon fill="black" stroke="black" points="1266.88,-191.203 1257.61,-186.074 1261.66,-195.865 1266.88,-191.203"/>
</g>
<!-- 1989_2 -->
<g id="node21" class="node"><title>1989_2</title>
<ellipse fill="#66cdaa" stroke="black" cx="2394.25" cy="-239.317" rx="40.1111" ry="16.0303"/>
<text text-anchor="middle" x="2394.25" y="-235.617" font-family="Times,serif" font-size="14.00">1989_2</text>
</g>
<!-- 1989_2&#45;&gt;1989_1x1989_2 -->
<g id="edge17" class="edge"><title>1989_2&#45;&gt;1989_1x1989_2</title>
<path fill="none" stroke="black" d="M2406,-223.626C2413.56,-214.182 2423.15,-202.192 2429.7,-194"/>
<polygon fill="black" stroke="black" points="2432.48,-196.129 2435.99,-186.134 2427.01,-191.757 2432.48,-196.129"/>
</g>
<!-- 1989_99&#45;&gt;1989_99x1989_10 -->
<g id="edge20" class="edge"><title>1989_99&#45;&gt;1989_99x1989_10</title>
<path fill="none" stroke="black" d="M1334.02,-123.707C1227.09,-113.477 886.904,-80.9335 816.918,-74.2383"/>
<polygon fill="black" stroke="black" points="817.175,-70.7471 806.888,-73.2788 816.509,-77.7152 817.175,-70.7471"/>
</g>
<!-- 1989_9&#45;&gt;1989_33x1989_9 -->
<g id="edge23" class="edge"><title>1989_9&#45;&gt;1989_33x1989_9</title>
<path fill="none" stroke="black" d="M2064.33,-120.986C1988.71,-109.098 1819.34,-82.4732 1771.85,-75.0071"/>
<polygon fill="black" stroke="black" points="1772.13,-71.5083 1761.71,-73.4128 1771.04,-78.4234 1772.13,-71.5083"/>
</g>
<!-- 1989_8x1989_41 -->
<g id="node27" class="node"><title>1989_8x1989_41</title>
<polygon fill="none" stroke="black" points="2440.25,-75.5269 2436.75,-72.0269 2440.25,-68.5269 2443.75,-72.0269 2440.25,-75.5269"/>
</g>
<!-- 1989_8&#45;&gt;1989_8x1989_41 -->
<g id="edge25" class="edge"><title>1989_8&#45;&gt;1989_8x1989_41</title>
<path fill="none" stroke="black" d="M2333.53,-116.168C2362.51,-104.456 2407.8,-86.1469 2428.82,-77.6484"/>
<polygon fill="black" stroke="black" points="2430.29,-80.8286 2438.25,-73.8359 2427.67,-74.3388 2430.29,-80.8286"/>
</g>
<!-- 1989_48 -->
<g id="node28" class="node"><title>1989_48</title>
<polygon fill="#66cdaa" stroke="black" points="2186.25,-27.7635 2122.25,-27.7635 2122.25,-4.76346 2186.25,-4.76346 2186.25,-27.7635"/>
<text text-anchor="middle" x="2154.25" y="-12.5635" font-family="Times,serif" font-size="14.00">1989_48</text>
</g>
<!-- 1989_8x1989_41&#45;&gt;1989_48 -->
<g id="edge26" class="edge"><title>1989_8x1989_41&#45;&gt;1989_48</title>
<path fill="none" stroke="black" d="M2437.8,-70.83C2418.83,-69.2685 2293.55,-58.2692 2195.25,-32.5269 2193.59,-32.0904 2191.89,-31.6113 2190.19,-31.1007"/>
<polygon fill="black" stroke="black" points="2191.06,-27.7031 2180.47,-27.9078 2188.88,-34.3536 2191.06,-27.7031"/>
</g>
<!-- 1989_47 -->
<g id="node29" class="node"><title>1989_47</title>
<polygon fill="#66cdaa" stroke="black" points="2268.25,-27.7635 2204.25,-27.7635 2204.25,-4.76346 2268.25,-4.76346 2268.25,-27.7635"/>
<text text-anchor="middle" x="2236.25" y="-12.5635" font-family="Times,serif" font-size="14.00">1989_47</text>
</g>
<!-- 1989_8x1989_41&#45;&gt;1989_47 -->
<g id="edge27" class="edge"><title>1989_8x1989_41&#45;&gt;1989_47</title>
<path fill="none" stroke="black" d="M2437.93,-70.5909C2423.23,-67.8139 2341.82,-52.0861 2277.25,-32.5269 2275.8,-32.0865 2274.32,-31.6217 2272.84,-31.1391"/>
<polygon fill="black" stroke="black" points="2273.59,-27.6982 2263,-27.7636 2271.32,-34.3194 2273.59,-27.6982"/>
</g>
<!-- 1989_46 -->
<g id="node30" class="node"><title>1989_46</title>
<ellipse fill="#66cdaa" stroke="black" cx="2331.25" cy="-16.2635" rx="45.011" ry="16.0303"/>
<text text-anchor="middle" x="2331.25" y="-12.5635" font-family="Times,serif" font-size="14.00">1989_46</text>
</g>
<!-- 1989_8x1989_41&#45;&gt;1989_46 -->
<g id="edge28" class="edge"><title>1989_8x1989_41&#45;&gt;1989_46</title>
<path fill="none" stroke="black" d="M2438.36,-70.0937C2429.78,-65.8594 2393.7,-48.0634 2365.76,-34.2823"/>
<polygon fill="black" stroke="black" points="2367.16,-31.0727 2356.65,-29.788 2364.07,-37.3506 2367.16,-31.0727"/>
</g>
<!-- 1989_45 -->
<g id="node31" class="node"><title>1989_45</title>
<ellipse fill="#66cdaa" stroke="black" cx="2440.25" cy="-16.2635" rx="45.011" ry="16.0303"/>
<text text-anchor="middle" x="2440.25" y="-12.5635" font-family="Times,serif" font-size="14.00">1989_45</text>
</g>
<!-- 1989_8x1989_41&#45;&gt;1989_45 -->
<g id="edge29" class="edge"><title>1989_8x1989_41&#45;&gt;1989_45</title>
<path fill="none" stroke="black" d="M2440.25,-68.4338C2440.25,-63.6514 2440.25,-52.9811 2440.25,-42.6151"/>
<polygon fill="black" stroke="black" points="2443.75,-42.5799 2440.25,-32.58 2436.75,-42.58 2443.75,-42.5799"/>
</g>
<!-- 1989_44 -->
<g id="node32" class="node"><title>1989_44</title>
<ellipse fill="#66cdaa" stroke="black" cx="2549.25" cy="-16.2635" rx="45.011" ry="16.0303"/>
<text text-anchor="middle" x="2549.25" y="-12.5635" font-family="Times,serif" font-size="14.00">1989_44</text>
</g>
<!-- 1989_8x1989_41&#45;&gt;1989_44 -->
<g id="edge30" class="edge"><title>1989_8x1989_41&#45;&gt;1989_44</title>
<path fill="none" stroke="black" d="M2442.15,-70.0937C2450.73,-65.8594 2486.81,-48.0634 2514.75,-34.2823"/>
<polygon fill="black" stroke="black" points="2516.44,-37.3506 2523.86,-29.788 2513.35,-31.0727 2516.44,-37.3506"/>
</g>
<!-- 1989_43 -->
<g id="node33" class="node"><title>1989_43</title>
<polygon fill="#66cdaa" stroke="black" points="2676.25,-27.7635 2612.25,-27.7635 2612.25,-4.76346 2676.25,-4.76346 2676.25,-27.7635"/>
<text text-anchor="middle" x="2644.25" y="-12.5635" font-family="Times,serif" font-size="14.00">1989_43</text>
</g>
<!-- 1989_8x1989_41&#45;&gt;1989_43 -->
<g id="edge31" class="edge"><title>1989_8x1989_41&#45;&gt;1989_43</title>
<path fill="none" stroke="black" d="M2442.58,-70.5909C2457.28,-67.8139 2538.69,-52.0861 2603.25,-32.5269 2604.71,-32.0865 2606.19,-31.6217 2607.67,-31.1391"/>
<polygon fill="black" stroke="black" points="2609.19,-34.3194 2617.51,-27.7636 2606.92,-27.6982 2609.19,-34.3194"/>
</g>
<!-- 1989_42 -->
<g id="node34" class="node"><title>1989_42</title>
<polygon fill="#66cdaa" stroke="black" points="2758.25,-27.7635 2694.25,-27.7635 2694.25,-4.76346 2758.25,-4.76346 2758.25,-27.7635"/>
<text text-anchor="middle" x="2726.25" y="-12.5635" font-family="Times,serif" font-size="14.00">1989_42</text>
</g>
<!-- 1989_8x1989_41&#45;&gt;1989_42 -->
<g id="edge32" class="edge"><title>1989_8x1989_41&#45;&gt;1989_42</title>
<path fill="none" stroke="black" d="M2442.71,-70.83C2461.68,-69.2685 2586.96,-58.2692 2685.25,-32.5269 2686.92,-32.0904 2688.62,-31.6113 2690.32,-31.1007"/>
<polygon fill="black" stroke="black" points="2691.63,-34.3536 2700.04,-27.9078 2689.45,-27.7031 2691.63,-34.3536"/>
</g>
<!-- 1989_1 -->
<g id="node35" class="node"><title>1989_1</title>
<polygon fill="#66cdaa" stroke="black" points="2509.75,-250.817 2452.75,-250.817 2452.75,-227.817 2509.75,-227.817 2509.75,-250.817"/>
<text text-anchor="middle" x="2481.25" y="-235.617" font-family="Times,serif" font-size="14.00">1989_1</text>
</g>
<!-- 1989_1&#45;&gt;1989_1x1989_2 -->
<g id="edge33" class="edge"><title>1989_1&#45;&gt;1989_1x1989_2</title>
<path fill="none" stroke="black" d="M2472.56,-227.695C2464.56,-217.912 2452.78,-203.527 2445.07,-194.1"/>
<polygon fill="black" stroke="black" points="2447.54,-191.597 2438.5,-186.074 2442.12,-196.03 2447.54,-191.597"/>
</g>
<!-- 1989_10&#45;&gt;1989_99x1989_10 -->
<g id="edge36" class="edge"><title>1989_10&#45;&gt;1989_99x1989_10</title>
<path fill="none" stroke="black" d="M842.046,-112.099C832.639,-102.374 820.62,-89.9474 812.692,-81.7506"/>
<polygon fill="black" stroke="black" points="814.97,-79.0708 805.502,-74.316 809.938,-83.9373 814.97,-79.0708"/>
</g>
<!-- 1989_25 -->
<g id="node39" class="node"><title>1989_25</title>
<ellipse fill="dimgrey" stroke="black" cx="2757.25" cy="-127.79" rx="45.011" ry="16.0303"/>
<text text-anchor="middle" x="2757.25" y="-124.09" font-family="Times,serif" font-size="14.00">1989_25</text>
</g>
<!-- 1989_25&#45;&gt;1989_7x1989_25 -->
<g id="edge38" class="edge"><title>1989_25&#45;&gt;1989_7x1989_25</title>
<path fill="none" stroke="black" d="M2791.16,-116.855C2798.11,-114.967 2805.4,-113.095 2812.25,-111.527 2887.6,-94.302 2979.36,-79.9049 3012.53,-74.9091"/>
<polygon fill="black" stroke="black" points="3013.33,-78.3286 3022.71,-73.3968 3012.3,-71.4046 3013.33,-78.3286"/>
</g>
<!-- 1989_41 -->
<g id="node44" class="node"><title>1989_41</title>
<ellipse fill="white" stroke="black" cx="2573.25" cy="-127.79" rx="45.011" ry="16.0303"/>
<text text-anchor="middle" x="2573.25" y="-124.09" font-family="Times,serif" font-size="14.00">1989_41</text>
</g>
<!-- 1989_41&#45;&gt;1989_8x1989_41 -->
<g id="edge43" class="edge"><title>1989_41&#45;&gt;1989_8x1989_41</title>
<path fill="none" stroke="black" d="M2544.4,-115.124C2515.29,-103.36 2471.85,-85.7978 2451.51,-77.5775"/>
<polygon fill="black" stroke="black" points="2452.75,-74.3047 2442.17,-73.8018 2450.13,-80.7945 2452.75,-74.3047"/>
</g>
<!-- 1989_33&#45;&gt;1989_33x1989_9 -->
<g id="edge52" class="edge"><title>1989_33&#45;&gt;1989_33x1989_9</title>
<path fill="none" stroke="black" d="M1675.8,-116.168C1697.63,-104.885 1731.3,-87.479 1748.43,-78.6207"/>
<polygon fill="black" stroke="black" points="1750.17,-81.6629 1757.45,-73.9615 1746.96,-75.4447 1750.17,-81.6629"/>
</g>
</g>
</svg>
