<?xml version="1.0" encoding="UTF-8" standalone="no"?>
<!DOCTYPE svg PUBLIC "-//W3C//DTD SVG 1.1//EN"
 "http://www.w3.org/Graphics/SVG/1.1/DTD/svg11.dtd">
<!-- Generated by graphviz version 2.38.0 (20140413.2041)
 -->
<!-- Title: %3 Pages: 1 -->
<svg width="1272pt" height="605pt"
 viewBox="0.00 0.00 1271.81 604.63" xmlns="http://www.w3.org/2000/svg" xmlns:xlink="http://www.w3.org/1999/xlink">
<g id="graph0" class="graph" transform="scale(1 1) rotate(0) translate(4 600.635)">
<title>%3</title>
<polygon fill="white" stroke="none" points="-4,4 -4,-600.635 1267.81,-600.635 1267.81,4 -4,4"/>
<!-- 506_10 -->
<g id="node1" class="node"><title>506_10</title>
<ellipse fill="dimgrey" stroke="black" cx="506.305" cy="-245.79" rx="40.1111" ry="16.0303"/>
<text text-anchor="middle" x="506.305" y="-242.09" font-family="Times,serif" font-size="14.00">506_10</text>
</g>
<!-- 506_1x506_2 -->
<g id="node2" class="node"><title>506_1x506_2</title>
<polygon fill="none" stroke="black" points="459.305,-305.054 455.805,-301.554 459.305,-298.054 462.805,-301.554 459.305,-305.054"/>
</g>
<!-- 506_1x506_2&#45;&gt;506_10 -->
<g id="edge1" class="edge"><title>506_1x506_2&#45;&gt;506_10</title>
<path fill="none" stroke="black" d="M460.869,-298.765C464.998,-294.042 476.592,-280.779 487.035,-268.834"/>
<polygon fill="black" stroke="black" points="489.694,-271.11 493.64,-261.278 484.424,-266.503 489.694,-271.11"/>
</g>
<!-- 506_11 -->
<g id="node33" class="node"><title>506_11</title>
<ellipse fill="dimgrey" stroke="black" cx="935.305" cy="-245.79" rx="40.1111" ry="16.0303"/>
<text text-anchor="middle" x="935.305" y="-242.09" font-family="Times,serif" font-size="14.00">506_11</text>
</g>
<!-- 506_1x506_2&#45;&gt;506_11 -->
<g id="edge29" class="edge"><title>506_1x506_2&#45;&gt;506_11</title>
<path fill="none" stroke="black" d="M461.897,-300.428C487.482,-299.163 697.407,-288.223 865.305,-262.054 873.873,-260.718 882.967,-258.978 891.663,-257.153"/>
<polygon fill="black" stroke="black" points="892.604,-260.53 901.635,-254.99 891.12,-253.689 892.604,-260.53"/>
</g>
<!-- 506_7 -->
<g id="node34" class="node"><title>506_7</title>
<polygon fill="dimgrey" stroke="black" points="614.305,-257.29 564.305,-257.29 564.305,-234.29 614.305,-234.29 614.305,-257.29"/>
<text text-anchor="middle" x="589.305" y="-242.09" font-family="Times,serif" font-size="14.00">506_7</text>
</g>
<!-- 506_1x506_2&#45;&gt;506_7 -->
<g id="edge31" class="edge"><title>506_1x506_2&#45;&gt;506_7</title>
<path fill="none" stroke="black" d="M461.147,-299.847C470.913,-296.094 517.622,-278.061 555.305,-262.054 555.737,-261.87 556.171,-261.685 556.608,-261.498"/>
<polygon fill="black" stroke="black" points="558.181,-264.631 565.949,-257.425 555.383,-258.214 558.181,-264.631"/>
</g>
<!-- 506_6 -->
<g id="node35" class="node"><title>506_6</title>
<polygon fill="dimgrey" stroke="black" points="780.305,-257.29 730.305,-257.29 730.305,-234.29 780.305,-234.29 780.305,-257.29"/>
<text text-anchor="middle" x="755.305" y="-242.09" font-family="Times,serif" font-size="14.00">506_6</text>
</g>
<!-- 506_1x506_2&#45;&gt;506_6 -->
<g id="edge32" class="edge"><title>506_1x506_2&#45;&gt;506_6</title>
<path fill="none" stroke="black" d="M461.945,-300.442C482.369,-299.522 617.149,-292.448 721.305,-262.054 722.361,-261.746 723.427,-261.411 724.496,-261.055"/>
<polygon fill="black" stroke="black" points="725.969,-264.239 734.061,-257.401 723.47,-257.7 725.969,-264.239"/>
</g>
<!-- 506_99 -->
<g id="node38" class="node"><title>506_99</title>
<ellipse fill="dimgrey" stroke="black" cx="672.305" cy="-245.79" rx="40.1111" ry="16.0303"/>
<text text-anchor="middle" x="672.305" y="-242.09" font-family="Times,serif" font-size="14.00">506_99</text>
</g>
<!-- 506_1x506_2&#45;&gt;506_99 -->
<g id="edge35" class="edge"><title>506_1x506_2&#45;&gt;506_99</title>
<path fill="none" stroke="black" d="M461.633,-300.073C476.34,-297.021 557.845,-279.908 623.305,-262.054 626.261,-261.247 629.308,-260.382 632.366,-259.489"/>
<polygon fill="black" stroke="black" points="633.51,-262.8 642.084,-256.575 631.5,-256.095 633.51,-262.8"/>
</g>
<!-- 506_4 -->
<g id="node42" class="node"><title>506_4</title>
<polygon fill="#66cdaa" stroke="black" points="114.305,-257.29 64.3051,-257.29 64.3051,-234.29 114.305,-234.29 114.305,-257.29"/>
<text text-anchor="middle" x="89.3051" y="-242.09" font-family="Times,serif" font-size="14.00">506_4</text>
</g>
<!-- 506_1x506_2&#45;&gt;506_4 -->
<g id="edge42" class="edge"><title>506_1x506_2&#45;&gt;506_4</title>
<path fill="none" stroke="black" d="M456.554,-300.558C432.666,-300.534 258.058,-299.061 123.305,-262.054 122.077,-261.716 120.836,-261.341 119.593,-260.935"/>
<polygon fill="black" stroke="black" points="120.744,-257.628 110.152,-257.355 118.262,-264.173 120.744,-257.628"/>
</g>
<!-- 506_3 -->
<g id="node43" class="node"><title>506_3</title>
<ellipse fill="#66cdaa" stroke="black" cx="167.305" cy="-245.79" rx="35.2113" ry="16.0303"/>
<text text-anchor="middle" x="167.305" y="-242.09" font-family="Times,serif" font-size="14.00">506_3</text>
</g>
<!-- 506_1x506_2&#45;&gt;506_3 -->
<g id="edge43" class="edge"><title>506_1x506_2&#45;&gt;506_3</title>
<path fill="none" stroke="black" d="M456.839,-300.333C437.761,-298.59 311.773,-286.482 212.305,-262.054 209.356,-261.33 206.324,-260.498 203.295,-259.605"/>
<polygon fill="black" stroke="black" points="204.32,-256.258 193.731,-256.599 202.222,-262.936 204.32,-256.258"/>
</g>
<!-- 506_8 -->
<g id="node45" class="node"><title>506_8</title>
<ellipse fill="#66cdaa" stroke="black" cx="256.305" cy="-245.79" rx="35.2113" ry="16.0303"/>
<text text-anchor="middle" x="256.305" y="-242.09" font-family="Times,serif" font-size="14.00">506_8</text>
</g>
<!-- 506_1x506_2&#45;&gt;506_8 -->
<g id="edge46" class="edge"><title>506_1x506_2&#45;&gt;506_8</title>
<path fill="none" stroke="black" d="M457.042,-300.092C442.744,-297.156 363.526,-280.627 300.305,-262.054 297.861,-261.336 295.353,-260.564 292.833,-259.761"/>
<polygon fill="black" stroke="black" points="293.758,-256.381 283.165,-256.568 291.563,-263.028 293.758,-256.381"/>
</g>
<!-- 506_9 -->
<g id="node46" class="node"><title>506_9</title>
<polygon fill="dimgrey" stroke="black" points="359.305,-257.29 309.305,-257.29 309.305,-234.29 359.305,-234.29 359.305,-257.29"/>
<text text-anchor="middle" x="334.305" y="-242.09" font-family="Times,serif" font-size="14.00">506_9</text>
</g>
<!-- 506_1x506_2&#45;&gt;506_9 -->
<g id="edge47" class="edge"><title>506_1x506_2&#45;&gt;506_9</title>
<path fill="none" stroke="black" d="M457.046,-299.619C446.783,-295.369 403.529,-277.409 368.305,-262.054 367.875,-261.866 367.442,-261.677 367.007,-261.487"/>
<polygon fill="black" stroke="black" points="368.248,-258.209 357.687,-257.367 365.418,-264.611 368.248,-258.209"/>
</g>
<!-- 506_5 -->
<g id="node50" class="node"><title>506_5</title>
<ellipse fill="#66cdaa" stroke="black" cx="412.305" cy="-245.79" rx="35.2113" ry="16.0303"/>
<text text-anchor="middle" x="412.305" y="-242.09" font-family="Times,serif" font-size="14.00">506_5</text>
</g>
<!-- 506_1x506_2&#45;&gt;506_5 -->
<g id="edge51" class="edge"><title>506_1x506_2&#45;&gt;506_5</title>
<path fill="none" stroke="black" d="M457.741,-298.765C453.586,-294.012 441.871,-280.611 431.377,-268.607"/>
<polygon fill="black" stroke="black" points="433.967,-266.251 424.75,-261.026 428.696,-270.858 433.967,-266.251"/>
</g>
<!-- 506_19 -->
<g id="node3" class="node"><title>506_19</title>
<polygon fill="dimgrey" stroke="black" points="615.805,-129.763 558.805,-129.763 558.805,-106.763 615.805,-106.763 615.805,-129.763"/>
<text text-anchor="middle" x="587.305" y="-114.563" font-family="Times,serif" font-size="14.00">506_19</text>
</g>
<!-- 506_12x506_99 -->
<g id="node4" class="node"><title>506_12x506_99</title>
<polygon fill="none" stroke="black" points="629.305,-185.527 625.805,-182.027 629.305,-178.527 632.805,-182.027 629.305,-185.527"/>
</g>
<!-- 506_12x506_99&#45;&gt;506_19 -->
<g id="edge2" class="edge"><title>506_12x506_99&#45;&gt;506_19</title>
<path fill="none" stroke="black" d="M628.267,-179.5C624.444,-173.879 610.831,-153.86 600.336,-138.427"/>
<polygon fill="black" stroke="black" points="603.132,-136.314 594.615,-130.013 597.344,-140.25 603.132,-136.314"/>
</g>
<!-- 506_21 -->
<g id="node5" class="node"><title>506_21</title>
<ellipse fill="#66cdaa" stroke="black" cx="674.305" cy="-118.263" rx="40.1111" ry="16.0303"/>
<text text-anchor="middle" x="674.305" y="-114.563" font-family="Times,serif" font-size="14.00">506_21</text>
</g>
<!-- 506_12x506_99&#45;&gt;506_21 -->
<g id="edge3" class="edge"><title>506_12x506_99&#45;&gt;506_21</title>
<path fill="none" stroke="black" d="M630.417,-179.5C634.174,-174.345 646.753,-157.079 657.486,-142.347"/>
<polygon fill="black" stroke="black" points="660.452,-144.22 663.512,-134.077 654.795,-140.098 660.452,-144.22"/>
</g>
<!-- 506_42 -->
<g id="node27" class="node"><title>506_42</title>
<polygon fill="#66cdaa" stroke="black" points="789.805,-129.763 732.805,-129.763 732.805,-106.763 789.805,-106.763 789.805,-129.763"/>
<text text-anchor="middle" x="761.305" y="-114.563" font-family="Times,serif" font-size="14.00">506_42</text>
</g>
<!-- 506_12x506_99&#45;&gt;506_42 -->
<g id="edge24" class="edge"><title>506_12x506_99&#45;&gt;506_42</title>
<path fill="none" stroke="black" d="M631.171,-180.154C641.683,-175.235 694.285,-150.623 729.309,-134.235"/>
<polygon fill="black" stroke="black" points="731.098,-137.262 738.672,-129.854 728.131,-130.922 731.098,-137.262"/>
</g>
<!-- 506_20 -->
<g id="node28" class="node"><title>506_20</title>
<polygon fill="white" stroke="black" points="864.805,-129.763 807.805,-129.763 807.805,-106.763 864.805,-106.763 864.805,-129.763"/>
<text text-anchor="middle" x="836.305" y="-114.563" font-family="Times,serif" font-size="14.00">506_20</text>
</g>
<!-- 506_12x506_99&#45;&gt;506_20 -->
<g id="edge25" class="edge"><title>506_12x506_99&#45;&gt;506_20</title>
<path fill="none" stroke="black" d="M631.355,-180.568C645.623,-177.356 731.549,-157.669 799.305,-134.527 800.324,-134.179 801.356,-133.817 802.394,-133.444"/>
<polygon fill="black" stroke="black" points="803.683,-136.699 811.789,-129.876 801.197,-130.155 803.683,-136.699"/>
</g>
<!-- 506_18 -->
<g id="node29" class="node"><title>506_18</title>
<polygon fill="dimgrey" stroke="black" points="939.805,-129.763 882.805,-129.763 882.805,-106.763 939.805,-106.763 939.805,-129.763"/>
<text text-anchor="middle" x="911.305" y="-114.563" font-family="Times,serif" font-size="14.00">506_18</text>
</g>
<!-- 506_12x506_99&#45;&gt;506_18 -->
<g id="edge26" class="edge"><title>506_12x506_99&#45;&gt;506_18</title>
<path fill="none" stroke="black" d="M631.764,-180.754C650.79,-178.601 776.38,-163.686 874.305,-134.527 875.541,-134.159 876.793,-133.764 878.051,-133.348"/>
<polygon fill="black" stroke="black" points="879.479,-136.553 887.678,-129.844 877.084,-129.975 879.479,-136.553"/>
</g>
<!-- 506_16 -->
<g id="node32" class="node"><title>506_16</title>
<ellipse fill="white" stroke="black" cx="104.305" cy="-118.263" rx="40.1111" ry="16.0303"/>
<text text-anchor="middle" x="104.305" y="-114.563" font-family="Times,serif" font-size="14.00">506_16</text>
</g>
<!-- 506_12x506_99&#45;&gt;506_16 -->
<g id="edge28" class="edge"><title>506_12x506_99&#45;&gt;506_16</title>
<path fill="none" stroke="black" d="M626.621,-180.969C598.221,-180.316 350.137,-173.599 154.305,-134.527 150.863,-133.84 147.32,-133.013 143.785,-132.102"/>
<polygon fill="black" stroke="black" points="144.506,-128.67 133.934,-129.367 142.633,-135.415 144.506,-128.67"/>
</g>
<!-- 506_17 -->
<g id="node41" class="node"><title>506_17</title>
<ellipse fill="white" stroke="black" cx="203.305" cy="-118.263" rx="40.1111" ry="16.0303"/>
<text text-anchor="middle" x="203.305" y="-114.563" font-family="Times,serif" font-size="14.00">506_17</text>
</g>
<!-- 506_12x506_99&#45;&gt;506_17 -->
<g id="edge41" class="edge"><title>506_12x506_99&#45;&gt;506_17</title>
<path fill="none" stroke="black" d="M626.892,-180.89C603.074,-179.503 407.708,-167.383 253.305,-134.527 249.918,-133.806 246.43,-132.961 242.946,-132.045"/>
<polygon fill="black" stroke="black" points="243.8,-128.65 233.226,-129.319 241.909,-135.389 243.8,-128.65"/>
</g>
<!-- 506_15 -->
<g id="node48" class="node"><title>506_15</title>
<ellipse fill="white" stroke="black" cx="302.305" cy="-118.263" rx="40.1111" ry="16.0303"/>
<text text-anchor="middle" x="302.305" y="-114.563" font-family="Times,serif" font-size="14.00">506_15</text>
</g>
<!-- 506_12x506_99&#45;&gt;506_15 -->
<g id="edge49" class="edge"><title>506_12x506_99&#45;&gt;506_15</title>
<path fill="none" stroke="black" d="M627.065,-180.764C607.607,-178.459 465.271,-161.132 352.305,-134.527 349.081,-133.767 345.759,-132.914 342.434,-132.01"/>
<polygon fill="black" stroke="black" points="343.117,-128.565 332.54,-129.183 341.194,-135.295 343.117,-128.565"/>
</g>
<!-- 506_13 -->
<g id="node52" class="node"><title>506_13</title>
<ellipse fill="#66cdaa" stroke="black" cx="401.305" cy="-118.263" rx="40.1111" ry="16.0303"/>
<text text-anchor="middle" x="401.305" y="-114.563" font-family="Times,serif" font-size="14.00">506_13</text>
</g>
<!-- 506_12x506_99&#45;&gt;506_13 -->
<g id="edge53" class="edge"><title>506_12x506_99&#45;&gt;506_13</title>
<path fill="none" stroke="black" d="M627.181,-180.507C612.386,-176.878 523.218,-154.887 451.305,-134.527 448.205,-133.649 445.003,-132.721 441.787,-131.774"/>
<polygon fill="black" stroke="black" points="442.77,-128.415 432.187,-128.906 440.766,-135.122 442.77,-128.415"/>
</g>
<!-- 506_14 -->
<g id="node53" class="node"><title>506_14</title>
<ellipse fill="#66cdaa" stroke="black" cx="500.305" cy="-118.263" rx="40.1111" ry="16.0303"/>
<text text-anchor="middle" x="500.305" y="-114.563" font-family="Times,serif" font-size="14.00">506_14</text>
</g>
<!-- 506_12x506_99&#45;&gt;506_14 -->
<g id="edge54" class="edge"><title>506_12x506_99&#45;&gt;506_14</title>
<path fill="none" stroke="black" d="M627.482,-180.154C617.488,-175.369 568.573,-151.949 534.409,-135.592"/>
<polygon fill="black" stroke="black" points="535.74,-132.349 525.209,-131.187 532.717,-138.662 535.74,-132.349"/>
</g>
<!-- 506_30 -->
<g id="node6" class="node"><title>506_30</title>
<ellipse fill="white" stroke="black" cx="998.305" cy="-118.263" rx="40.1111" ry="16.0303"/>
<text text-anchor="middle" x="998.305" y="-114.563" font-family="Times,serif" font-size="14.00">506_30</text>
</g>
<!-- 506_39x506_30 -->
<g id="node8" class="node"><title>506_39x506_30</title>
<polygon fill="none" stroke="black" points="517.305,-66 513.805,-62.5 517.305,-59 520.805,-62.5 517.305,-66"/>
</g>
<!-- 506_30&#45;&gt;506_39x506_30 -->
<g id="edge5" class="edge"><title>506_30&#45;&gt;506_39x506_30</title>
<path fill="none" stroke="black" d="M969.028,-107.03C962.596,-105.096 955.773,-103.28 949.305,-102 786.227,-69.7178 583.122,-64.4821 530.325,-63.6526"/>
<polygon fill="black" stroke="black" points="530.123,-60.1498 520.079,-63.5211 530.033,-67.1492 530.123,-60.1498"/>
</g>
<!-- 506_22x506_11 -->
<g id="node7" class="node"><title>506_22x506_11</title>
<polygon fill="none" stroke="black" points="1074.31,-185.527 1070.81,-182.027 1074.31,-178.527 1077.81,-182.027 1074.31,-185.527"/>
</g>
<!-- 506_22x506_11&#45;&gt;506_30 -->
<g id="edge4" class="edge"><title>506_22x506_11&#45;&gt;506_30</title>
<path fill="none" stroke="black" d="M1072.72,-179.737C1066.38,-174.583 1042.28,-155.001 1023.2,-139.498"/>
<polygon fill="black" stroke="black" points="1025.37,-136.749 1015.4,-133.158 1020.96,-142.181 1025.37,-136.749"/>
</g>
<!-- 506_27 -->
<g id="node9" class="node"><title>506_27</title>
<polygon fill="white" stroke="black" points="1188.81,-129.763 1131.81,-129.763 1131.81,-106.763 1188.81,-106.763 1188.81,-129.763"/>
<text text-anchor="middle" x="1160.31" y="-114.563" font-family="Times,serif" font-size="14.00">506_27</text>
</g>
<!-- 506_22x506_11&#45;&gt;506_27 -->
<g id="edge6" class="edge"><title>506_22x506_11&#45;&gt;506_27</title>
<path fill="none" stroke="black" d="M1075.8,-179.955C1083,-174.779 1114.77,-151.965 1137.23,-135.837"/>
<polygon fill="black" stroke="black" points="1139.52,-138.5 1145.6,-129.824 1135.44,-132.814 1139.52,-138.5"/>
</g>
<!-- 506_28 -->
<g id="node10" class="node"><title>506_28</title>
<polygon fill="#66cdaa" stroke="black" points="1263.81,-129.763 1206.81,-129.763 1206.81,-106.763 1263.81,-106.763 1263.81,-129.763"/>
<text text-anchor="middle" x="1235.31" y="-114.563" font-family="Times,serif" font-size="14.00">506_28</text>
</g>
<!-- 506_22x506_11&#45;&gt;506_28 -->
<g id="edge7" class="edge"><title>506_22x506_11&#45;&gt;506_28</title>
<path fill="none" stroke="black" d="M1076.36,-180.285C1088.22,-175.996 1149.1,-153.896 1198.31,-134.527 1199.01,-134.25 1199.72,-133.969 1200.43,-133.685"/>
<polygon fill="black" stroke="black" points="1201.91,-136.866 1209.87,-129.882 1199.29,-130.373 1201.91,-136.866"/>
</g>
<!-- 506_29 -->
<g id="node11" class="node"><title>506_29</title>
<polygon fill="#66cdaa" stroke="black" points="1113.81,-129.763 1056.81,-129.763 1056.81,-106.763 1113.81,-106.763 1113.81,-129.763"/>
<text text-anchor="middle" x="1085.31" y="-114.563" font-family="Times,serif" font-size="14.00">506_29</text>
</g>
<!-- 506_22x506_11&#45;&gt;506_29 -->
<g id="edge8" class="edge"><title>506_22x506_11&#45;&gt;506_29</title>
<path fill="none" stroke="black" d="M1074.72,-178.681C1075.85,-172.36 1079.04,-154.469 1081.62,-139.957"/>
<polygon fill="black" stroke="black" points="1085.13,-140.226 1083.43,-129.767 1078.24,-138.998 1085.13,-140.226"/>
</g>
<!-- 506_40 -->
<g id="node25" class="node"><title>506_40</title>
<polygon fill="#66cdaa" stroke="black" points="508.805,-23 451.805,-23 451.805,-0 508.805,-0 508.805,-23"/>
<text text-anchor="middle" x="480.305" y="-7.8" font-family="Times,serif" font-size="14.00">506_40</text>
</g>
<!-- 506_39x506_30&#45;&gt;506_40 -->
<g id="edge22" class="edge"><title>506_39x506_30&#45;&gt;506_40</title>
<path fill="none" stroke="black" d="M516.074,-59.8697C512.677,-55.3705 502.859,-42.3683 494.367,-31.1221"/>
<polygon fill="black" stroke="black" points="497.079,-28.9056 488.26,-23.0343 491.492,-33.1239 497.079,-28.9056"/>
</g>
<!-- 506_41 -->
<g id="node26" class="node"><title>506_41</title>
<polygon fill="#66cdaa" stroke="black" points="583.805,-23 526.805,-23 526.805,-0 583.805,-0 583.805,-23"/>
<text text-anchor="middle" x="555.305" y="-7.8" font-family="Times,serif" font-size="14.00">506_41</text>
</g>
<!-- 506_39x506_30&#45;&gt;506_41 -->
<g id="edge23" class="edge"><title>506_39x506_30&#45;&gt;506_41</title>
<path fill="none" stroke="black" d="M518.569,-59.8697C522.059,-55.3705 532.142,-42.3683 540.863,-31.1221"/>
<polygon fill="black" stroke="black" points="543.773,-33.0814 547.136,-23.0343 538.242,-28.7916 543.773,-33.0814"/>
</g>
<!-- 506_31 -->
<g id="node12" class="node"><title>506_31</title>
<polygon fill="#66cdaa" stroke="black" points="313.805,-480.344 256.805,-480.344 256.805,-457.344 313.805,-457.344 313.805,-480.344"/>
<text text-anchor="middle" x="285.305" y="-465.144" font-family="Times,serif" font-size="14.00">506_31</text>
</g>
<!-- 506_31x506_32 -->
<g id="node14" class="node"><title>506_31x506_32</title>
<polygon fill="none" stroke="black" points="380.305,-416.581 376.805,-413.081 380.305,-409.581 383.805,-413.081 380.305,-416.581"/>
</g>
<!-- 506_31&#45;&gt;506_31x506_32 -->
<g id="edge10" class="edge"><title>506_31&#45;&gt;506_31x506_32</title>
<path fill="none" stroke="black" d="M304.074,-457.222C323.723,-446.102 353.879,-429.036 369.731,-420.065"/>
<polygon fill="black" stroke="black" points="371.675,-422.987 378.654,-415.015 368.227,-416.895 371.675,-422.987"/>
</g>
<!-- 506_33x506_34 -->
<g id="node13" class="node"><title>506_33x506_34</title>
<polygon fill="none" stroke="black" points="190.305,-528.108 186.805,-524.608 190.305,-521.108 193.805,-524.608 190.305,-528.108"/>
</g>
<!-- 506_33x506_34&#45;&gt;506_31 -->
<g id="edge9" class="edge"><title>506_33x506_34&#45;&gt;506_31</title>
<path fill="none" stroke="black" d="M191.954,-522.674C199.688,-518.298 233.027,-499.43 257.668,-485.485"/>
<polygon fill="black" stroke="black" points="259.635,-488.393 266.614,-480.422 256.187,-482.301 259.635,-488.393"/>
</g>
<!-- 506_35 -->
<g id="node18" class="node"><title>506_35</title>
<polygon fill="#66cdaa" stroke="black" points="124.805,-480.344 67.8051,-480.344 67.8051,-457.344 124.805,-457.344 124.805,-480.344"/>
<text text-anchor="middle" x="96.3051" y="-465.144" font-family="Times,serif" font-size="14.00">506_35</text>
</g>
<!-- 506_33x506_34&#45;&gt;506_35 -->
<g id="edge14" class="edge"><title>506_33x506_34&#45;&gt;506_35</title>
<path fill="none" stroke="black" d="M188.674,-522.674C181.021,-518.298 148.033,-499.43 123.652,-485.485"/>
<polygon fill="black" stroke="black" points="125.218,-482.349 114.799,-480.422 121.742,-488.425 125.218,-482.349"/>
</g>
<!-- 506_2 -->
<g id="node40" class="node"><title>506_2</title>
<ellipse fill="#66cdaa" stroke="black" cx="390.305" cy="-357.317" rx="35.2113" ry="16.0303"/>
<text text-anchor="middle" x="390.305" y="-353.617" font-family="Times,serif" font-size="14.00">506_2</text>
</g>
<!-- 506_31x506_32&#45;&gt;506_2 -->
<g id="edge39" class="edge"><title>506_31x506_32&#45;&gt;506_2</title>
<path fill="none" stroke="black" d="M380.735,-409.771C381.587,-405.188 383.578,-394.483 385.525,-384.018"/>
<polygon fill="black" stroke="black" points="389.025,-384.339 387.413,-373.868 382.143,-383.059 389.025,-384.339"/>
</g>
<!-- 506_32 -->
<g id="node15" class="node"><title>506_32</title>
<ellipse fill="#66cdaa" stroke="black" cx="380.305" cy="-468.844" rx="40.1111" ry="16.0303"/>
<text text-anchor="middle" x="380.305" y="-465.144" font-family="Times,serif" font-size="14.00">506_32</text>
</g>
<!-- 506_32&#45;&gt;506_31x506_32 -->
<g id="edge11" class="edge"><title>506_32&#45;&gt;506_31x506_32</title>
<path fill="none" stroke="black" d="M380.305,-452.294C380.305,-444.188 380.305,-434.399 380.305,-426.759"/>
<polygon fill="black" stroke="black" points="383.805,-426.604 380.305,-416.604 376.805,-426.604 383.805,-426.604"/>
</g>
<!-- 506_33 -->
<g id="node16" class="node"><title>506_33</title>
<polygon fill="#66cdaa" stroke="black" points="175.805,-591.871 118.805,-591.871 118.805,-568.871 175.805,-568.871 175.805,-591.871"/>
<text text-anchor="middle" x="147.305" y="-576.671" font-family="Times,serif" font-size="14.00">506_33</text>
</g>
<!-- 506_33&#45;&gt;506_33x506_34 -->
<g id="edge12" class="edge"><title>506_33&#45;&gt;506_33x506_34</title>
<path fill="none" stroke="black" d="M155.801,-568.749C163.625,-558.966 175.131,-544.581 182.67,-535.154"/>
<polygon fill="black" stroke="black" points="185.576,-537.124 189.089,-527.128 180.11,-532.752 185.576,-537.124"/>
</g>
<!-- 506_34 -->
<g id="node17" class="node"><title>506_34</title>
<ellipse fill="#66cdaa" stroke="black" cx="234.305" cy="-580.371" rx="40.1111" ry="16.0303"/>
<text text-anchor="middle" x="234.305" y="-576.671" font-family="Times,serif" font-size="14.00">506_34</text>
</g>
<!-- 506_34&#45;&gt;506_33x506_34 -->
<g id="edge13" class="edge"><title>506_34&#45;&gt;506_33x506_34</title>
<path fill="none" stroke="black" d="M222.282,-564.68C214.553,-555.236 204.74,-543.246 198.036,-535.054"/>
<polygon fill="black" stroke="black" points="200.64,-532.71 191.598,-527.188 195.223,-537.143 200.64,-532.71"/>
</g>
<!-- 506_35x506_36 -->
<g id="node19" class="node"><title>506_35x506_36</title>
<polygon fill="none" stroke="black" points="96.3051,-416.581 92.8051,-413.081 96.3051,-409.581 99.8051,-413.081 96.3051,-416.581"/>
</g>
<!-- 506_35&#45;&gt;506_35x506_36 -->
<g id="edge15" class="edge"><title>506_35&#45;&gt;506_35x506_36</title>
<path fill="none" stroke="black" d="M96.3051,-457.222C96.3051,-448.47 96.3051,-436.034 96.3051,-426.761"/>
<polygon fill="black" stroke="black" points="99.8052,-426.719 96.3051,-416.719 92.8052,-426.719 99.8052,-426.719"/>
</g>
<!-- 506_37 -->
<g id="node21" class="node"><title>506_37</title>
<ellipse fill="#66cdaa" stroke="black" cx="40.3051" cy="-357.317" rx="40.1111" ry="16.0303"/>
<text text-anchor="middle" x="40.3051" y="-353.617" font-family="Times,serif" font-size="14.00">506_37</text>
</g>
<!-- 506_35x506_36&#45;&gt;506_37 -->
<g id="edge17" class="edge"><title>506_35x506_36&#45;&gt;506_37</title>
<path fill="none" stroke="black" d="M94.9208,-410.752C90.3872,-406.399 75.5253,-392.131 62.4479,-379.576"/>
<polygon fill="black" stroke="black" points="64.6835,-376.87 55.0459,-372.469 59.8356,-381.92 64.6835,-376.87"/>
</g>
<!-- 506_36 -->
<g id="node20" class="node"><title>506_36</title>
<ellipse fill="#66cdaa" stroke="black" cx="183.305" cy="-468.844" rx="40.1111" ry="16.0303"/>
<text text-anchor="middle" x="183.305" y="-465.144" font-family="Times,serif" font-size="14.00">506_36</text>
</g>
<!-- 506_36&#45;&gt;506_35x506_36 -->
<g id="edge16" class="edge"><title>506_36&#45;&gt;506_35x506_36</title>
<path fill="none" stroke="black" d="M162.245,-454.83C144.644,-443.953 120.293,-428.905 106.646,-420.471"/>
<polygon fill="black" stroke="black" points="108.429,-417.459 98.0824,-415.179 104.749,-423.413 108.429,-417.459"/>
</g>
<!-- 506_38x506_37 -->
<g id="node22" class="node"><title>506_38x506_37</title>
<polygon fill="none" stroke="black" points="40.3051,-305.054 36.8051,-301.554 40.3051,-298.054 43.8051,-301.554 40.3051,-305.054"/>
</g>
<!-- 506_37&#45;&gt;506_38x506_37 -->
<g id="edge18" class="edge"><title>506_37&#45;&gt;506_38x506_37</title>
<path fill="none" stroke="black" d="M40.3051,-340.767C40.3051,-332.661 40.3051,-322.872 40.3051,-315.232"/>
<polygon fill="black" stroke="black" points="43.8052,-315.077 40.3051,-305.077 36.8052,-315.077 43.8052,-315.077"/>
</g>
<!-- 506_39 -->
<g id="node24" class="node"><title>506_39</title>
<polygon fill="white" stroke="black" points="64.8051,-193.527 7.80509,-193.527 7.80509,-170.527 64.8051,-170.527 64.8051,-193.527"/>
<text text-anchor="middle" x="36.3051" y="-178.327" font-family="Times,serif" font-size="14.00">506_39</text>
</g>
<!-- 506_38x506_37&#45;&gt;506_39 -->
<g id="edge20" class="edge"><title>506_38x506_37&#45;&gt;506_39</title>
<path fill="none" stroke="black" d="M40.2215,-298.099C39.8157,-286.174 38.0279,-233.647 37.0138,-203.851"/>
<polygon fill="black" stroke="black" points="40.5058,-203.552 36.6676,-193.677 33.5098,-203.79 40.5058,-203.552"/>
</g>
<!-- 506_38 -->
<g id="node23" class="node"><title>506_38</title>
<polygon fill="#66cdaa" stroke="black" points="155.805,-368.817 98.8051,-368.817 98.8051,-345.817 155.805,-345.817 155.805,-368.817"/>
<text text-anchor="middle" x="127.305" y="-353.617" font-family="Times,serif" font-size="14.00">506_38</text>
</g>
<!-- 506_38&#45;&gt;506_38x506_37 -->
<g id="edge19" class="edge"><title>506_38&#45;&gt;506_38x506_37</title>
<path fill="none" stroke="black" d="M110.117,-345.695C92.6112,-334.877 65.9996,-318.432 51.2009,-309.287"/>
<polygon fill="black" stroke="black" points="52.6116,-306.045 42.2649,-303.765 48.9317,-311.999 52.6116,-306.045"/>
</g>
<!-- 506_39&#45;&gt;506_39x506_30 -->
<g id="edge21" class="edge"><title>506_39&#45;&gt;506_39x506_30</title>
<path fill="none" stroke="black" d="M35.3215,-170.365C34.3806,-153.063 35.3837,-119.088 55.3051,-102 90.314,-71.9699 433.046,-64.8505 504.351,-63.6898"/>
<polygon fill="black" stroke="black" points="504.654,-67.1858 514.6,-63.5351 504.549,-60.1866 504.654,-67.1858"/>
</g>
<!-- 506_26 -->
<g id="node30" class="node"><title>506_26</title>
<ellipse fill="#66cdaa" stroke="black" cx="483.305" cy="-468.844" rx="40.1111" ry="16.0303"/>
<text text-anchor="middle" x="483.305" y="-465.144" font-family="Times,serif" font-size="14.00">506_26</text>
</g>
<!-- 506_25x506_26 -->
<g id="node31" class="node"><title>506_25x506_26</title>
<polygon fill="none" stroke="black" points="513.305,-416.581 509.805,-413.081 513.305,-409.581 516.805,-413.081 513.305,-416.581"/>
</g>
<!-- 506_26&#45;&gt;506_25x506_26 -->
<g id="edge27" class="edge"><title>506_26&#45;&gt;506_25x506_26</title>
<path fill="none" stroke="black" d="M491.662,-452.868C496.658,-443.914 502.887,-432.751 507.378,-424.703"/>
<polygon fill="black" stroke="black" points="510.442,-426.395 512.258,-415.957 504.329,-422.984 510.442,-426.395"/>
</g>
<!-- 506_23 -->
<g id="node39" class="node"><title>506_23</title>
<polygon fill="#66cdaa" stroke="black" points="790.805,-368.817 733.805,-368.817 733.805,-345.817 790.805,-345.817 790.805,-368.817"/>
<text text-anchor="middle" x="762.305" y="-353.617" font-family="Times,serif" font-size="14.00">506_23</text>
</g>
<!-- 506_25x506_26&#45;&gt;506_23 -->
<g id="edge37" class="edge"><title>506_25x506_26&#45;&gt;506_23</title>
<path fill="none" stroke="black" d="M515.458,-411.616C533.37,-407.748 658.637,-380.701 723.525,-366.69"/>
<polygon fill="black" stroke="black" points="724.359,-370.091 733.396,-364.559 722.882,-363.249 724.359,-370.091"/>
</g>
<!-- 506_1 -->
<g id="node44" class="node"><title>506_1</title>
<polygon fill="#66cdaa" stroke="black" points="533.305,-368.817 483.305,-368.817 483.305,-345.817 533.305,-345.817 533.305,-368.817"/>
<text text-anchor="middle" x="508.305" y="-353.617" font-family="Times,serif" font-size="14.00">506_1</text>
</g>
<!-- 506_25x506_26&#45;&gt;506_1 -->
<g id="edge44" class="edge"><title>506_25x506_26&#45;&gt;506_1</title>
<path fill="none" stroke="black" d="M513.09,-409.771C512.598,-404.477 511.346,-391.014 510.246,-379.188"/>
<polygon fill="black" stroke="black" points="513.716,-378.701 509.305,-369.068 506.746,-379.349 513.716,-378.701"/>
</g>
<!-- 506_11&#45;&gt;506_22x506_11 -->
<g id="edge30" class="edge"><title>506_11&#45;&gt;506_22x506_11</title>
<path fill="none" stroke="black" d="M961.45,-233.173C992.096,-219.556 1041.47,-197.618 1063.31,-187.914"/>
<polygon fill="black" stroke="black" points="1064.76,-191.098 1072.48,-183.839 1061.92,-184.701 1064.76,-191.098"/>
</g>
<!-- 506_22 -->
<g id="node36" class="node"><title>506_22</title>
<polygon fill="#66cdaa" stroke="black" points="1060.81,-257.29 1003.81,-257.29 1003.81,-234.29 1060.81,-234.29 1060.81,-257.29"/>
<text text-anchor="middle" x="1032.31" y="-242.09" font-family="Times,serif" font-size="14.00">506_22</text>
</g>
<!-- 506_22&#45;&gt;506_22x506_11 -->
<g id="edge34" class="edge"><title>506_22&#45;&gt;506_22x506_11</title>
<path fill="none" stroke="black" d="M1039.62,-234.032C1047.38,-222.627 1059.54,-204.735 1067.21,-193.456"/>
<polygon fill="black" stroke="black" points="1070.32,-195.104 1073.05,-184.867 1064.54,-191.168 1070.32,-195.104"/>
</g>
<!-- 506_23x506_24 -->
<g id="node37" class="node"><title>506_23x506_24</title>
<polygon fill="none" stroke="black" points="940.305,-305.054 936.805,-301.554 940.305,-298.054 943.805,-301.554 940.305,-305.054"/>
</g>
<!-- 506_23x506_24&#45;&gt;506_22 -->
<g id="edge33" class="edge"><title>506_23x506_24&#45;&gt;506_22</title>
<path fill="none" stroke="black" d="M941.902,-299.621C949.392,-295.244 981.678,-276.376 1005.54,-262.431"/>
<polygon fill="black" stroke="black" points="1007.34,-265.436 1014.2,-257.368 1003.8,-259.392 1007.34,-265.436"/>
</g>
<!-- 506_99&#45;&gt;506_12x506_99 -->
<g id="edge36" class="edge"><title>506_99&#45;&gt;506_12x506_99</title>
<path fill="none" stroke="black" d="M661.896,-229.839C653.95,-218.426 643.221,-203.015 636.282,-193.048"/>
<polygon fill="black" stroke="black" points="638.995,-190.819 630.409,-184.612 633.25,-194.819 638.995,-190.819"/>
</g>
<!-- 506_23&#45;&gt;506_23x506_24 -->
<g id="edge38" class="edge"><title>506_23&#45;&gt;506_23x506_24</title>
<path fill="none" stroke="black" d="M790.904,-347.679C830.608,-335.687 900.679,-314.523 928.47,-306.129"/>
<polygon fill="black" stroke="black" points="929.643,-309.431 938.204,-303.189 927.619,-302.73 929.643,-309.431"/>
</g>
<!-- 506_2&#45;&gt;506_1x506_2 -->
<g id="edge40" class="edge"><title>506_2&#45;&gt;506_1x506_2</title>
<path fill="none" stroke="black" d="M407.361,-343.027C420.668,-332.659 438.673,-318.63 449.614,-310.105"/>
<polygon fill="black" stroke="black" points="451.817,-312.825 457.554,-303.918 447.515,-307.304 451.817,-312.825"/>
</g>
<!-- 506_1&#45;&gt;506_1x506_2 -->
<g id="edge45" class="edge"><title>506_1&#45;&gt;506_1x506_2</title>
<path fill="none" stroke="black" d="M498.624,-345.695C489.516,-335.702 476.031,-320.906 467.458,-311.499"/>
<polygon fill="black" stroke="black" points="470.014,-309.108 460.691,-304.074 464.84,-313.823 470.014,-309.108"/>
</g>
<!-- 506_24 -->
<g id="node47" class="node"><title>506_24</title>
<ellipse fill="#66cdaa" stroke="black" cx="940.305" cy="-357.317" rx="40.1111" ry="16.0303"/>
<text text-anchor="middle" x="940.305" y="-353.617" font-family="Times,serif" font-size="14.00">506_24</text>
</g>
<!-- 506_24&#45;&gt;506_23x506_24 -->
<g id="edge48" class="edge"><title>506_24&#45;&gt;506_23x506_24</title>
<path fill="none" stroke="black" d="M940.305,-340.767C940.305,-332.661 940.305,-322.872 940.305,-315.232"/>
<polygon fill="black" stroke="black" points="943.805,-315.077 940.305,-305.077 936.805,-315.077 943.805,-315.077"/>
</g>
<!-- 506_25 -->
<g id="node49" class="node"><title>506_25</title>
<polygon fill="#66cdaa" stroke="black" points="598.805,-480.344 541.805,-480.344 541.805,-457.344 598.805,-457.344 598.805,-480.344"/>
<text text-anchor="middle" x="570.305" y="-465.144" font-family="Times,serif" font-size="14.00">506_25</text>
</g>
<!-- 506_25&#45;&gt;506_25x506_26 -->
<g id="edge50" class="edge"><title>506_25&#45;&gt;506_25x506_26</title>
<path fill="none" stroke="black" d="M559.044,-457.222C548.337,-447.124 532.431,-432.121 522.476,-422.731"/>
<polygon fill="black" stroke="black" points="524.593,-419.917 514.917,-415.601 519.79,-425.009 524.593,-419.917"/>
</g>
<!-- 506_12 -->
<g id="node51" class="node"><title>506_12</title>
<polygon fill="#66cdaa" stroke="black" points="855.805,-257.29 798.805,-257.29 798.805,-234.29 855.805,-234.29 855.805,-257.29"/>
<text text-anchor="middle" x="827.305" y="-242.09" font-family="Times,serif" font-size="14.00">506_12</text>
</g>
<!-- 506_12&#45;&gt;506_12x506_99 -->
<g id="edge52" class="edge"><title>506_12&#45;&gt;506_12x506_99</title>
<path fill="none" stroke="black" d="M802.091,-234.257C797.849,-232.602 793.472,-230.965 789.305,-229.527 734.788,-210.708 668.141,-192.997 641.325,-186.083"/>
<polygon fill="black" stroke="black" points="642.142,-182.68 631.587,-183.599 640.412,-189.463 642.142,-182.68"/>
</g>
</g>
</svg>
