<?xml version="1.0" encoding="UTF-8" standalone="no"?>
<!DOCTYPE svg PUBLIC "-//W3C//DTD SVG 1.1//EN"
 "http://www.w3.org/Graphics/SVG/1.1/DTD/svg11.dtd">
<!-- Generated by graphviz version 2.38.0 (20140413.2041)
 -->
<!-- Title: %3 Pages: 1 -->
<svg width="495pt" height="152pt"
 viewBox="0.00 0.00 495.00 152.05" xmlns="http://www.w3.org/2000/svg" xmlns:xlink="http://www.w3.org/1999/xlink">
<g id="graph0" class="graph" transform="scale(1 1) rotate(0) translate(4 148.054)">
<title>%3</title>
<polygon fill="white" stroke="none" points="-4,4 -4,-148.054 491,-148.054 491,4 -4,4"/>
<!-- 1517_6 -->
<g id="node1" class="node"><title>1517_6</title>
<polygon fill="#66cdaa" stroke="black" points="57,-27.7635 0,-27.7635 0,-4.76346 57,-4.76346 57,-27.7635"/>
<text text-anchor="middle" x="28.5" y="-12.5635" font-family="Times,serif" font-size="14.00">1517_6</text>
</g>
<!-- 1517_1x1517_2 -->
<g id="node2" class="node"><title>1517_1x1517_2</title>
<polygon fill="none" stroke="black" points="241.5,-75.5269 238,-72.0269 241.5,-68.5269 245,-72.0269 241.5,-75.5269"/>
</g>
<!-- 1517_1x1517_2&#45;&gt;1517_6 -->
<g id="edge1" class="edge"><title>1517_1x1517_2&#45;&gt;1517_6</title>
<path fill="none" stroke="black" d="M238.993,-70.6362C223.156,-68.1359 135.464,-53.8032 66.5,-32.5269 65.2772,-32.1497 64.0384,-31.75 62.792,-31.3329"/>
<polygon fill="black" stroke="black" points="63.8198,-27.9829 53.2254,-27.8784 61.4423,-34.5668 63.8198,-27.9829"/>
</g>
<!-- 1517_4 -->
<g id="node3" class="node"><title>1517_4</title>
<ellipse fill="dimgrey" stroke="black" cx="115.5" cy="-16.2635" rx="40.1111" ry="16.0303"/>
<text text-anchor="middle" x="115.5" y="-12.5635" font-family="Times,serif" font-size="14.00">1517_4</text>
</g>
<!-- 1517_1x1517_2&#45;&gt;1517_4 -->
<g id="edge2" class="edge"><title>1517_1x1517_2&#45;&gt;1517_4</title>
<path fill="none" stroke="black" d="M239.719,-70.2669C230.218,-66.2128 184.694,-46.7882 151.502,-32.6253"/>
<polygon fill="black" stroke="black" points="152.651,-29.3102 142.079,-28.6047 149.903,-35.7486 152.651,-29.3102"/>
</g>
<!-- 1517_3 -->
<g id="node4" class="node"><title>1517_3</title>
<polygon fill="white" stroke="black" points="231,-27.7635 174,-27.7635 174,-4.76346 231,-4.76346 231,-27.7635"/>
<text text-anchor="middle" x="202.5" y="-12.5635" font-family="Times,serif" font-size="14.00">1517_3</text>
</g>
<!-- 1517_1x1517_2&#45;&gt;1517_3 -->
<g id="edge3" class="edge"><title>1517_1x1517_2&#45;&gt;1517_3</title>
<path fill="none" stroke="black" d="M240.202,-69.2381C236.465,-64.0863 225.357,-48.7736 216.16,-36.0939"/>
<polygon fill="black" stroke="black" points="218.916,-33.9329 210.211,-27.8934 213.25,-38.0431 218.916,-33.9329"/>
</g>
<!-- 1517_99 -->
<g id="node5" class="node"><title>1517_99</title>
<polygon fill="dimgrey" stroke="black" points="313.5,-27.7635 249.5,-27.7635 249.5,-4.76346 313.5,-4.76346 313.5,-27.7635"/>
<text text-anchor="middle" x="281.5" y="-12.5635" font-family="Times,serif" font-size="14.00">1517_99</text>
</g>
<!-- 1517_1x1517_2&#45;&gt;1517_99 -->
<g id="edge4" class="edge"><title>1517_1x1517_2&#45;&gt;1517_99</title>
<path fill="none" stroke="black" d="M242.831,-69.2381C246.664,-64.0863 258.056,-48.7736 267.49,-36.0939"/>
<polygon fill="black" stroke="black" points="270.43,-38.0057 273.591,-27.8934 264.814,-33.8273 270.43,-38.0057"/>
</g>
<!-- 1517_5 -->
<g id="node7" class="node"><title>1517_5</title>
<ellipse fill="white" stroke="black" cx="371.5" cy="-16.2635" rx="40.1111" ry="16.0303"/>
<text text-anchor="middle" x="371.5" y="-12.5635" font-family="Times,serif" font-size="14.00">1517_5</text>
</g>
<!-- 1517_1x1517_2&#45;&gt;1517_5 -->
<g id="edge6" class="edge"><title>1517_1x1517_2&#45;&gt;1517_5</title>
<path fill="none" stroke="black" d="M243.338,-70.2669C253.211,-66.1837 300.785,-46.5089 335.09,-32.3215"/>
<polygon fill="black" stroke="black" points="336.468,-35.539 344.371,-28.4829 333.793,-29.0704 336.468,-35.539"/>
</g>
<!-- 1517_7 -->
<g id="node8" class="node"><title>1517_7</title>
<polygon fill="#66cdaa" stroke="black" points="487,-27.7635 430,-27.7635 430,-4.76346 487,-4.76346 487,-27.7635"/>
<text text-anchor="middle" x="458.5" y="-12.5635" font-family="Times,serif" font-size="14.00">1517_7</text>
</g>
<!-- 1517_1x1517_2&#45;&gt;1517_7 -->
<g id="edge7" class="edge"><title>1517_1x1517_2&#45;&gt;1517_7</title>
<path fill="none" stroke="black" d="M244.065,-70.6441C260.267,-68.1918 349.981,-54.1019 420.5,-32.5269 421.724,-32.1525 422.963,-31.7553 424.21,-31.3404"/>
<polygon fill="black" stroke="black" points="425.556,-34.5758 433.78,-27.8957 423.185,-27.9895 425.556,-34.5758"/>
</g>
<!-- 1517_1 -->
<g id="node6" class="node"><title>1517_1</title>
<polygon fill="#66cdaa" stroke="black" points="227,-139.29 170,-139.29 170,-116.29 227,-116.29 227,-139.29"/>
<text text-anchor="middle" x="198.5" y="-124.09" font-family="Times,serif" font-size="14.00">1517_1</text>
</g>
<!-- 1517_1&#45;&gt;1517_1x1517_2 -->
<g id="edge5" class="edge"><title>1517_1&#45;&gt;1517_1x1517_2</title>
<path fill="none" stroke="black" d="M206.995,-116.168C214.82,-106.385 226.325,-91.9999 233.865,-82.5735"/>
<polygon fill="black" stroke="black" points="236.771,-84.5431 240.284,-74.5476 231.304,-80.1709 236.771,-84.5431"/>
</g>
<!-- 1517_2 -->
<g id="node9" class="node"><title>1517_2</title>
<ellipse fill="#66cdaa" stroke="black" cx="285.5" cy="-127.79" rx="40.1111" ry="16.0303"/>
<text text-anchor="middle" x="285.5" y="-124.09" font-family="Times,serif" font-size="14.00">1517_2</text>
</g>
<!-- 1517_2&#45;&gt;1517_1x1517_2 -->
<g id="edge8" class="edge"><title>1517_2&#45;&gt;1517_1x1517_2</title>
<path fill="none" stroke="black" d="M273.477,-112.099C265.748,-102.656 255.935,-90.6651 249.231,-82.4735"/>
<polygon fill="black" stroke="black" points="251.835,-80.1289 242.793,-74.6068 246.418,-84.5623 251.835,-80.1289"/>
</g>
</g>
</svg>
