<?xml version="1.0" encoding="UTF-8" standalone="no"?>
<!DOCTYPE svg PUBLIC "-//W3C//DTD SVG 1.1//EN"
 "http://www.w3.org/Graphics/SVG/1.1/DTD/svg11.dtd">
<!-- Generated by graphviz version 2.38.0 (20140413.2041)
 -->
<!-- Title: %3 Pages: 1 -->
<svg width="1508pt" height="375pt"
 viewBox="0.00 0.00 1507.81 375.11" xmlns="http://www.w3.org/2000/svg" xmlns:xlink="http://www.w3.org/1999/xlink">
<g id="graph0" class="graph" transform="scale(1 1) rotate(0) translate(4 371.108)">
<title>%3</title>
<polygon fill="white" stroke="none" points="-4,4 -4,-371.108 1503.81,-371.108 1503.81,4 -4,4"/>
<!-- 958_9 -->
<g id="node1" class="node"><title>958_9</title>
<polygon fill="white" stroke="black" points="223.5,-139.29 173.5,-139.29 173.5,-116.29 223.5,-116.29 223.5,-139.29"/>
<text text-anchor="middle" x="198.5" y="-124.09" font-family="Times,serif" font-size="14.00">958_9</text>
</g>
<!-- 958_1x958_13 -->
<g id="node2" class="node"><title>958_1x958_13</title>
<polygon fill="none" stroke="black" points="198.5,-187.054 195,-183.554 198.5,-180.054 202,-183.554 198.5,-187.054"/>
</g>
<!-- 958_1x958_13&#45;&gt;958_9 -->
<g id="edge1" class="edge"><title>958_1x958_13&#45;&gt;958_9</title>
<path fill="none" stroke="black" d="M198.5,-179.961C198.5,-174.493 198.5,-161.327 198.5,-149.721"/>
<polygon fill="black" stroke="black" points="202,-149.372 198.5,-139.372 195,-149.372 202,-149.372"/>
</g>
<!-- 958_10 -->
<g id="node18" class="node"><title>958_10</title>
<polygon fill="white" stroke="black" points="299,-139.29 242,-139.29 242,-116.29 299,-116.29 299,-139.29"/>
<text text-anchor="middle" x="270.5" y="-124.09" font-family="Times,serif" font-size="14.00">958_10</text>
</g>
<!-- 958_1x958_13&#45;&gt;958_10 -->
<g id="edge17" class="edge"><title>958_1x958_13&#45;&gt;958_10</title>
<path fill="none" stroke="black" d="M200.004,-181.431C206.113,-176.869 229.611,-159.323 247.818,-145.727"/>
<polygon fill="black" stroke="black" points="250.314,-148.232 256.232,-139.444 246.125,-142.623 250.314,-148.232"/>
</g>
<!-- 958_11 -->
<g id="node19" class="node"><title>958_11</title>
<polygon fill="#66cdaa" stroke="black" points="57,-139.29 0,-139.29 0,-116.29 57,-116.29 57,-139.29"/>
<text text-anchor="middle" x="28.5" y="-124.09" font-family="Times,serif" font-size="14.00">958_11</text>
</g>
<!-- 958_1x958_13&#45;&gt;958_11 -->
<g id="edge18" class="edge"><title>958_1x958_13&#45;&gt;958_11</title>
<path fill="none" stroke="black" d="M196.298,-181.998C183.589,-178.775 118.391,-161.994 66.5,-144.054 65.4585,-143.694 64.4038,-143.321 63.3414,-142.939"/>
<polygon fill="black" stroke="black" points="64.3078,-139.564 53.7157,-139.32 61.8442,-146.116 64.3078,-139.564"/>
</g>
<!-- 958_12 -->
<g id="node20" class="node"><title>958_12</title>
<ellipse fill="#66cdaa" stroke="black" cx="115.5" cy="-127.79" rx="40.1111" ry="16.0303"/>
<text text-anchor="middle" x="115.5" y="-124.09" font-family="Times,serif" font-size="14.00">958_12</text>
</g>
<!-- 958_1x958_13&#45;&gt;958_12 -->
<g id="edge19" class="edge"><title>958_1x958_13&#45;&gt;958_12</title>
<path fill="none" stroke="black" d="M196.766,-181.431C190.004,-177.05 164.754,-160.694 144.172,-147.363"/>
<polygon fill="black" stroke="black" points="146,-144.377 135.705,-141.878 142.195,-150.252 146,-144.377"/>
</g>
<!-- 958_15 -->
<g id="node3" class="node"><title>958_15</title>
<polygon fill="white" stroke="black" points="978,-139.29 921,-139.29 921,-116.29 978,-116.29 978,-139.29"/>
<text text-anchor="middle" x="949.5" y="-124.09" font-family="Times,serif" font-size="14.00">958_15</text>
</g>
<!-- 958_16x958_2 -->
<g id="node4" class="node"><title>958_16x958_2</title>
<polygon fill="none" stroke="black" points="992.5,-187.054 989,-183.554 992.5,-180.054 996,-183.554 992.5,-187.054"/>
</g>
<!-- 958_16x958_2&#45;&gt;958_15 -->
<g id="edge2" class="edge"><title>958_16x958_2&#45;&gt;958_15</title>
<path fill="none" stroke="black" d="M991.069,-180.765C986.909,-175.564 974.466,-160.005 964.269,-147.256"/>
<polygon fill="black" stroke="black" points="966.981,-145.044 958.002,-139.42 961.515,-149.416 966.981,-145.044"/>
</g>
<!-- 958_14 -->
<g id="node11" class="node"><title>958_14</title>
<ellipse fill="white" stroke="black" cx="1036.5" cy="-127.79" rx="40.1111" ry="16.0303"/>
<text text-anchor="middle" x="1036.5" y="-124.09" font-family="Times,serif" font-size="14.00">958_14</text>
</g>
<!-- 958_16x958_2&#45;&gt;958_14 -->
<g id="edge8" class="edge"><title>958_16x958_2&#45;&gt;958_14</title>
<path fill="none" stroke="black" d="M993.964,-180.765C997.768,-176.117 1008.34,-163.196 1018,-151.401"/>
<polygon fill="black" stroke="black" points="1020.81,-153.486 1024.44,-143.53 1015.39,-149.052 1020.81,-153.486"/>
</g>
<!-- 958_29 -->
<g id="node5" class="node"><title>958_29</title>
<polygon fill="white" stroke="black" points="1028,-27.7635 971,-27.7635 971,-4.76346 1028,-4.76346 1028,-27.7635"/>
<text text-anchor="middle" x="999.5" y="-12.5635" font-family="Times,serif" font-size="14.00">958_29</text>
</g>
<!-- 958_3x958_22 -->
<g id="node6" class="node"><title>958_3x958_22</title>
<polygon fill="none" stroke="black" points="1043.5,-75.5269 1040,-72.0269 1043.5,-68.5269 1047,-72.0269 1043.5,-75.5269"/>
</g>
<!-- 958_3x958_22&#45;&gt;958_29 -->
<g id="edge3" class="edge"><title>958_3x958_22&#45;&gt;958_29</title>
<path fill="none" stroke="black" d="M1042.04,-69.2381C1037.78,-64.0368 1025.05,-48.4782 1014.61,-35.7288"/>
<polygon fill="black" stroke="black" points="1017.24,-33.4155 1008.2,-27.8934 1011.82,-37.8489 1017.24,-33.4155"/>
</g>
<!-- 958_30 -->
<g id="node35" class="node"><title>958_30</title>
<ellipse fill="white" stroke="black" cx="1086.5" cy="-16.2635" rx="40.1111" ry="16.0303"/>
<text text-anchor="middle" x="1086.5" y="-12.5635" font-family="Times,serif" font-size="14.00">958_30</text>
</g>
<!-- 958_3x958_22&#45;&gt;958_30 -->
<g id="edge34" class="edge"><title>958_3x958_22&#45;&gt;958_30</title>
<path fill="none" stroke="black" d="M1044.93,-69.2381C1048.65,-64.5897 1058.98,-51.6688 1068.42,-39.8738"/>
<polygon fill="black" stroke="black" points="1071.2,-41.999 1074.71,-32.0034 1065.73,-37.6268 1071.2,-41.999"/>
</g>
<!-- 958_4 -->
<g id="node7" class="node"><title>958_4</title>
<polygon fill="dimgrey" stroke="black" points="698.5,-139.29 648.5,-139.29 648.5,-116.29 698.5,-116.29 698.5,-139.29"/>
<text text-anchor="middle" x="673.5" y="-124.09" font-family="Times,serif" font-size="14.00">958_4</text>
</g>
<!-- 958_1x958_2 -->
<g id="node8" class="node"><title>958_1x958_2</title>
<polygon fill="none" stroke="black" points="673.5,-187.054 670,-183.554 673.5,-180.054 677,-183.554 673.5,-187.054"/>
</g>
<!-- 958_1x958_2&#45;&gt;958_4 -->
<g id="edge4" class="edge"><title>958_1x958_2&#45;&gt;958_4</title>
<path fill="none" stroke="black" d="M673.5,-179.961C673.5,-174.493 673.5,-161.327 673.5,-149.721"/>
<polygon fill="black" stroke="black" points="677,-149.372 673.5,-139.372 670,-149.372 677,-149.372"/>
</g>
<!-- 958_8 -->
<g id="node9" class="node"><title>958_8</title>
<polygon fill="dimgrey" stroke="black" points="766.5,-139.29 716.5,-139.29 716.5,-116.29 766.5,-116.29 766.5,-139.29"/>
<text text-anchor="middle" x="741.5" y="-124.09" font-family="Times,serif" font-size="14.00">958_8</text>
</g>
<!-- 958_1x958_2&#45;&gt;958_8 -->
<g id="edge5" class="edge"><title>958_1x958_2&#45;&gt;958_8</title>
<path fill="none" stroke="black" d="M674.92,-181.431C680.69,-176.869 702.883,-159.323 720.078,-145.727"/>
<polygon fill="black" stroke="black" points="722.351,-148.392 728.025,-139.444 718.01,-142.901 722.351,-148.392"/>
</g>
<!-- 958_3 -->
<g id="node10" class="node"><title>958_3</title>
<polygon fill="dimgrey" stroke="black" points="902.5,-139.29 852.5,-139.29 852.5,-116.29 902.5,-116.29 902.5,-139.29"/>
<text text-anchor="middle" x="877.5" y="-124.09" font-family="Times,serif" font-size="14.00">958_3</text>
</g>
<!-- 958_1x958_2&#45;&gt;958_3 -->
<g id="edge6" class="edge"><title>958_1x958_2&#45;&gt;958_3</title>
<path fill="none" stroke="black" d="M675.946,-182.189C691.395,-179.843 776.91,-166.294 843.5,-144.054 844.386,-143.758 845.28,-143.447 846.179,-143.123"/>
<polygon fill="black" stroke="black" points="847.807,-146.243 855.808,-139.298 845.222,-139.737 847.807,-146.243"/>
</g>
<!-- 958_6 -->
<g id="node15" class="node"><title>958_6</title>
<polygon fill="#66cdaa" stroke="black" points="834.5,-139.29 784.5,-139.29 784.5,-116.29 834.5,-116.29 834.5,-139.29"/>
<text text-anchor="middle" x="809.5" y="-124.09" font-family="Times,serif" font-size="14.00">958_6</text>
</g>
<!-- 958_1x958_2&#45;&gt;958_6 -->
<g id="edge14" class="edge"><title>958_1x958_2&#45;&gt;958_6</title>
<path fill="none" stroke="black" d="M675.462,-181.864C685.866,-178.194 735.609,-160.518 775.5,-144.054 776.061,-143.822 776.626,-143.587 777.195,-143.35"/>
<polygon fill="black" stroke="black" points="778.737,-146.496 786.538,-139.327 775.969,-140.067 778.737,-146.496"/>
</g>
<!-- 958_7 -->
<g id="node16" class="node"><title>958_7</title>
<ellipse fill="#66cdaa" stroke="black" cx="352.5" cy="-127.79" rx="35.2113" ry="16.0303"/>
<text text-anchor="middle" x="352.5" y="-124.09" font-family="Times,serif" font-size="14.00">958_7</text>
</g>
<!-- 958_1x958_2&#45;&gt;958_7 -->
<g id="edge15" class="edge"><title>958_1x958_2&#45;&gt;958_7</title>
<path fill="none" stroke="black" d="M671.008,-182.386C650.613,-180.978 509.069,-170.507 397.5,-144.054 394.545,-143.353 391.509,-142.538 388.477,-141.657"/>
<polygon fill="black" stroke="black" points="389.497,-138.309 378.909,-138.671 387.412,-144.991 389.497,-138.309"/>
</g>
<!-- 958_99 -->
<g id="node25" class="node"><title>958_99</title>
<ellipse fill="dimgrey" stroke="black" cx="446.5" cy="-127.79" rx="40.1111" ry="16.0303"/>
<text text-anchor="middle" x="446.5" y="-124.09" font-family="Times,serif" font-size="14.00">958_99</text>
</g>
<!-- 958_1x958_2&#45;&gt;958_99 -->
<g id="edge23" class="edge"><title>958_1x958_2&#45;&gt;958_99</title>
<path fill="none" stroke="black" d="M671.367,-182.167C656.518,-179.459 567.045,-162.894 495.5,-144.054 492.537,-143.273 489.485,-142.427 486.423,-141.547"/>
<polygon fill="black" stroke="black" points="487.282,-138.151 476.699,-138.659 485.289,-144.861 487.282,-138.151"/>
</g>
<!-- 958_5 -->
<g id="node36" class="node"><title>958_5</title>
<polygon fill="dimgrey" stroke="black" points="630.5,-139.29 580.5,-139.29 580.5,-116.29 630.5,-116.29 630.5,-139.29"/>
<text text-anchor="middle" x="605.5" y="-124.09" font-family="Times,serif" font-size="14.00">958_5</text>
</g>
<!-- 958_1x958_2&#45;&gt;958_5 -->
<g id="edge35" class="edge"><title>958_1x958_2&#45;&gt;958_5</title>
<path fill="none" stroke="black" d="M672.08,-181.431C666.31,-176.869 644.117,-159.323 626.922,-145.727"/>
<polygon fill="black" stroke="black" points="628.99,-142.901 618.975,-139.444 624.649,-148.392 628.99,-142.901"/>
</g>
<!-- 958_3&#45;&gt;958_3x958_22 -->
<g id="edge7" class="edge"><title>958_3&#45;&gt;958_3x958_22</title>
<path fill="none" stroke="black" d="M900.68,-116.197C904.592,-114.55 908.637,-112.931 912.5,-111.527 955.536,-95.8887 1008.21,-81.9304 1031.48,-76.0203"/>
<polygon fill="black" stroke="black" points="1032.45,-79.3834 1041.31,-73.5614 1030.76,-72.5926 1032.45,-79.3834"/>
</g>
<!-- 958_1 -->
<g id="node12" class="node"><title>958_1</title>
<polygon fill="#66cdaa" stroke="black" points="502.5,-250.817 452.5,-250.817 452.5,-227.817 502.5,-227.817 502.5,-250.817"/>
<text text-anchor="middle" x="477.5" y="-235.617" font-family="Times,serif" font-size="14.00">958_1</text>
</g>
<!-- 958_1&#45;&gt;958_1x958_13 -->
<g id="edge9" class="edge"><title>958_1&#45;&gt;958_1x958_13</title>
<path fill="none" stroke="black" d="M452.249,-233.451C394.267,-222.278 253.327,-195.119 210.83,-186.93"/>
<polygon fill="black" stroke="black" points="211.342,-183.464 200.86,-185.009 210.017,-190.338 211.342,-183.464"/>
</g>
<!-- 958_1&#45;&gt;958_1x958_2 -->
<g id="edge10" class="edge"><title>958_1&#45;&gt;958_1x958_2</title>
<path fill="none" stroke="black" d="M502.722,-231.399C545.423,-219.686 630.355,-196.389 661.604,-187.817"/>
<polygon fill="black" stroke="black" points="662.712,-191.143 671.429,-185.122 660.86,-184.392 662.712,-191.143"/>
</g>
<!-- 958_2 -->
<g id="node13" class="node"><title>958_2</title>
<ellipse fill="#66cdaa" stroke="black" cx="935.5" cy="-239.317" rx="35.2113" ry="16.0303"/>
<text text-anchor="middle" x="935.5" y="-235.617" font-family="Times,serif" font-size="14.00">958_2</text>
</g>
<!-- 958_2&#45;&gt;958_16x958_2 -->
<g id="edge12" class="edge"><title>958_2&#45;&gt;958_16x958_2</title>
<path fill="none" stroke="black" d="M950.179,-224.472C960.724,-214.525 974.6,-201.437 983.536,-193.009"/>
<polygon fill="black" stroke="black" points="986.213,-195.296 991.086,-185.888 981.41,-190.203 986.213,-195.296"/>
</g>
<!-- 958_2&#45;&gt;958_1x958_2 -->
<g id="edge13" class="edge"><title>958_2&#45;&gt;958_1x958_2</title>
<path fill="none" stroke="black" d="M903.897,-231.832C845.819,-219.914 724.508,-195.021 685.711,-187.06"/>
<polygon fill="black" stroke="black" points="686.296,-183.607 675.796,-185.025 684.888,-190.464 686.296,-183.607"/>
</g>
<!-- 958_27x958_28 -->
<g id="node14" class="node"><title>958_27x958_28</title>
<polygon fill="none" stroke="black" points="1038.5,-298.581 1035,-295.081 1038.5,-291.581 1042,-295.081 1038.5,-298.581"/>
</g>
<!-- 958_27x958_28&#45;&gt;958_2 -->
<g id="edge11" class="edge"><title>958_27x958_28&#45;&gt;958_2</title>
<path fill="none" stroke="black" d="M1036.71,-293.148C1028.49,-288.857 993.593,-270.64 967.053,-256.787"/>
<polygon fill="black" stroke="black" points="968.557,-253.624 958.072,-252.099 965.317,-259.829 968.557,-253.624"/>
</g>
<!-- 958_19 -->
<g id="node28" class="node"><title>958_19</title>
<polygon fill="#66cdaa" stroke="black" points="1146,-250.817 1089,-250.817 1089,-227.817 1146,-227.817 1146,-250.817"/>
<text text-anchor="middle" x="1117.5" y="-235.617" font-family="Times,serif" font-size="14.00">958_19</text>
</g>
<!-- 958_27x958_28&#45;&gt;958_19 -->
<g id="edge27" class="edge"><title>958_27x958_28&#45;&gt;958_19</title>
<path fill="none" stroke="black" d="M1040.15,-292.958C1046.94,-288.334 1073.34,-270.369 1093.43,-256.7"/>
<polygon fill="black" stroke="black" points="1095.55,-259.491 1101.84,-250.971 1091.61,-253.704 1095.55,-259.491"/>
</g>
<!-- 958_13 -->
<g id="node17" class="node"><title>958_13</title>
<ellipse fill="#66cdaa" stroke="black" cx="198.5" cy="-239.317" rx="40.1111" ry="16.0303"/>
<text text-anchor="middle" x="198.5" y="-235.617" font-family="Times,serif" font-size="14.00">958_13</text>
</g>
<!-- 958_13&#45;&gt;958_1x958_13 -->
<g id="edge16" class="edge"><title>958_13&#45;&gt;958_1x958_13</title>
<path fill="none" stroke="black" d="M198.5,-222.767C198.5,-214.661 198.5,-204.872 198.5,-197.232"/>
<polygon fill="black" stroke="black" points="202,-197.077 198.5,-187.077 195,-197.077 202,-197.077"/>
</g>
<!-- 958_16 -->
<g id="node21" class="node"><title>958_16</title>
<polygon fill="#66cdaa" stroke="black" points="1046,-250.817 989,-250.817 989,-227.817 1046,-227.817 1046,-250.817"/>
<text text-anchor="middle" x="1017.5" y="-235.617" font-family="Times,serif" font-size="14.00">958_16</text>
</g>
<!-- 958_16&#45;&gt;958_16x958_2 -->
<g id="edge20" class="edge"><title>958_16&#45;&gt;958_16x958_2</title>
<path fill="none" stroke="black" d="M1012.56,-227.695C1008.24,-218.4 1001.98,-204.95 997.611,-195.546"/>
<polygon fill="black" stroke="black" points="1000.76,-194.008 993.366,-186.416 994.409,-196.96 1000.76,-194.008"/>
</g>
<!-- 958_26 -->
<g id="node22" class="node"><title>958_26</title>
<polygon fill="#66cdaa" stroke="black" points="562,-139.29 505,-139.29 505,-116.29 562,-116.29 562,-139.29"/>
<text text-anchor="middle" x="533.5" y="-124.09" font-family="Times,serif" font-size="14.00">958_26</text>
</g>
<!-- 958_26x958_99 -->
<g id="node23" class="node"><title>958_26x958_99</title>
<polygon fill="none" stroke="black" points="490.5,-75.5269 487,-72.0269 490.5,-68.5269 494,-72.0269 490.5,-75.5269"/>
</g>
<!-- 958_26&#45;&gt;958_26x958_99 -->
<g id="edge21" class="edge"><title>958_26&#45;&gt;958_26x958_99</title>
<path fill="none" stroke="black" d="M525.005,-116.168C517.18,-106.385 505.675,-91.9999 498.135,-82.5735"/>
<polygon fill="black" stroke="black" points="500.696,-80.1709 491.716,-74.5476 495.229,-84.5431 500.696,-80.1709"/>
</g>
<!-- 958_17 -->
<g id="node24" class="node"><title>958_17</title>
<ellipse fill="white" stroke="black" cx="447.5" cy="-16.2635" rx="40.1111" ry="16.0303"/>
<text text-anchor="middle" x="447.5" y="-12.5635" font-family="Times,serif" font-size="14.00">958_17</text>
</g>
<!-- 958_26x958_99&#45;&gt;958_17 -->
<g id="edge22" class="edge"><title>958_26x958_99&#45;&gt;958_17</title>
<path fill="none" stroke="black" d="M489.069,-69.2381C485.351,-64.5897 475.017,-51.6688 465.584,-39.8738"/>
<polygon fill="black" stroke="black" points="468.268,-37.6268 459.289,-32.0034 462.802,-41.999 468.268,-37.6268"/>
</g>
<!-- 958_18 -->
<g id="node37" class="node"><title>958_18</title>
<polygon fill="#66cdaa" stroke="black" points="563,-27.7635 506,-27.7635 506,-4.76346 563,-4.76346 563,-27.7635"/>
<text text-anchor="middle" x="534.5" y="-12.5635" font-family="Times,serif" font-size="14.00">958_18</text>
</g>
<!-- 958_26x958_99&#45;&gt;958_18 -->
<g id="edge36" class="edge"><title>958_26x958_99&#45;&gt;958_18</title>
<path fill="none" stroke="black" d="M491.964,-69.2381C496.221,-64.0368 508.954,-48.4782 519.388,-35.7288"/>
<polygon fill="black" stroke="black" points="522.176,-37.8489 525.8,-27.8934 516.758,-33.4155 522.176,-37.8489"/>
</g>
<!-- 958_99&#45;&gt;958_26x958_99 -->
<g id="edge24" class="edge"><title>958_99&#45;&gt;958_26x958_99</title>
<path fill="none" stroke="black" d="M458.523,-112.099C466.252,-102.656 476.065,-90.6651 482.769,-82.4735"/>
<polygon fill="black" stroke="black" points="485.582,-84.5623 489.207,-74.6068 480.165,-80.1289 485.582,-84.5623"/>
</g>
<!-- 958_27 -->
<g id="node26" class="node"><title>958_27</title>
<polygon fill="#66cdaa" stroke="black" points="1024,-362.344 967,-362.344 967,-339.344 1024,-339.344 1024,-362.344"/>
<text text-anchor="middle" x="995.5" y="-347.144" font-family="Times,serif" font-size="14.00">958_27</text>
</g>
<!-- 958_27&#45;&gt;958_27x958_28 -->
<g id="edge25" class="edge"><title>958_27&#45;&gt;958_27x958_28</title>
<path fill="none" stroke="black" d="M1004,-339.222C1011.82,-329.439 1023.33,-315.054 1030.86,-305.627"/>
<polygon fill="black" stroke="black" points="1033.77,-307.597 1037.28,-297.601 1028.3,-303.225 1033.77,-307.597"/>
</g>
<!-- 958_28 -->
<g id="node27" class="node"><title>958_28</title>
<ellipse fill="#66cdaa" stroke="black" cx="1082.5" cy="-350.844" rx="40.1111" ry="16.0303"/>
<text text-anchor="middle" x="1082.5" y="-347.144" font-family="Times,serif" font-size="14.00">958_28</text>
</g>
<!-- 958_28&#45;&gt;958_27x958_28 -->
<g id="edge26" class="edge"><title>958_28&#45;&gt;958_27x958_28</title>
<path fill="none" stroke="black" d="M1070.48,-335.153C1062.75,-325.709 1052.94,-313.719 1046.23,-305.527"/>
<polygon fill="black" stroke="black" points="1048.84,-303.183 1039.79,-297.661 1043.42,-307.616 1048.84,-303.183"/>
</g>
<!-- 958_19x958_20 -->
<g id="node29" class="node"><title>958_19x958_20</title>
<polygon fill="none" stroke="black" points="1253.5,-187.054 1250,-183.554 1253.5,-180.054 1257,-183.554 1253.5,-187.054"/>
</g>
<!-- 958_19&#45;&gt;958_19x958_20 -->
<g id="edge28" class="edge"><title>958_19&#45;&gt;958_19x958_20</title>
<path fill="none" stroke="black" d="M1144.37,-227.695C1174.14,-215.928 1220.75,-197.502 1242.11,-189.056"/>
<polygon fill="black" stroke="black" points="1243.44,-192.294 1251.45,-185.363 1240.87,-185.784 1243.44,-192.294"/>
</g>
<!-- 958_21 -->
<g id="node31" class="node"><title>958_21</title>
<polygon fill="#66cdaa" stroke="black" points="1326,-139.29 1269,-139.29 1269,-116.29 1326,-116.29 1326,-139.29"/>
<text text-anchor="middle" x="1297.5" y="-124.09" font-family="Times,serif" font-size="14.00">958_21</text>
</g>
<!-- 958_19x958_20&#45;&gt;958_21 -->
<g id="edge30" class="edge"><title>958_19x958_20&#45;&gt;958_21</title>
<path fill="none" stroke="black" d="M1254.96,-180.765C1259.22,-175.564 1271.95,-160.005 1282.39,-147.256"/>
<polygon fill="black" stroke="black" points="1285.18,-149.376 1288.8,-139.42 1279.76,-144.942 1285.18,-149.376"/>
</g>
<!-- 958_23 -->
<g id="node32" class="node"><title>958_23</title>
<polygon fill="#66cdaa" stroke="black" points="1401,-139.29 1344,-139.29 1344,-116.29 1401,-116.29 1401,-139.29"/>
<text text-anchor="middle" x="1372.5" y="-124.09" font-family="Times,serif" font-size="14.00">958_23</text>
</g>
<!-- 958_19x958_20&#45;&gt;958_23 -->
<g id="edge31" class="edge"><title>958_19x958_20&#45;&gt;958_23</title>
<path fill="none" stroke="black" d="M1255.57,-181.621C1265.47,-177.147 1308.87,-157.538 1339.9,-143.517"/>
<polygon fill="black" stroke="black" points="1341.42,-146.675 1349.09,-139.368 1338.53,-140.296 1341.42,-146.675"/>
</g>
<!-- 958_24 -->
<g id="node33" class="node"><title>958_24</title>
<ellipse fill="#66cdaa" stroke="black" cx="1459.5" cy="-127.79" rx="40.1111" ry="16.0303"/>
<text text-anchor="middle" x="1459.5" y="-124.09" font-family="Times,serif" font-size="14.00">958_24</text>
</g>
<!-- 958_19x958_20&#45;&gt;958_24 -->
<g id="edge32" class="edge"><title>958_19x958_20&#45;&gt;958_24</title>
<path fill="none" stroke="black" d="M1255.73,-182.062C1269.8,-178.944 1347.77,-161.497 1410.5,-144.054 1413.41,-143.244 1416.41,-142.382 1419.42,-141.494"/>
<polygon fill="black" stroke="black" points="1420.44,-144.844 1429,-138.608 1418.42,-138.141 1420.44,-144.844"/>
</g>
<!-- 958_25 -->
<g id="node34" class="node"><title>958_25</title>
<polygon fill="#66cdaa" stroke="black" points="1152,-139.29 1095,-139.29 1095,-116.29 1152,-116.29 1152,-139.29"/>
<text text-anchor="middle" x="1123.5" y="-124.09" font-family="Times,serif" font-size="14.00">958_25</text>
</g>
<!-- 958_19x958_20&#45;&gt;958_25 -->
<g id="edge33" class="edge"><title>958_19x958_20&#45;&gt;958_25</title>
<path fill="none" stroke="black" d="M1251.66,-181.794C1241.65,-177.652 1192.85,-157.471 1158.45,-143.244"/>
<polygon fill="black" stroke="black" points="1159.75,-139.995 1149.17,-139.407 1157.07,-146.463 1159.75,-139.995"/>
</g>
<!-- 958_22 -->
<g id="node38" class="node"><title>958_22</title>
<ellipse fill="dimgrey" stroke="black" cx="1210.5" cy="-127.79" rx="40.1111" ry="16.0303"/>
<text text-anchor="middle" x="1210.5" y="-124.09" font-family="Times,serif" font-size="14.00">958_22</text>
</g>
<!-- 958_19x958_20&#45;&gt;958_22 -->
<g id="edge37" class="edge"><title>958_19x958_20&#45;&gt;958_22</title>
<path fill="none" stroke="black" d="M1252.07,-180.765C1248.35,-176.117 1238.02,-163.196 1228.58,-151.401"/>
<polygon fill="black" stroke="black" points="1231.27,-149.154 1222.29,-143.53 1225.8,-153.526 1231.27,-149.154"/>
</g>
<!-- 958_20 -->
<g id="node30" class="node"><title>958_20</title>
<ellipse fill="#66cdaa" stroke="black" cx="1253.5" cy="-239.317" rx="40.1111" ry="16.0303"/>
<text text-anchor="middle" x="1253.5" y="-235.617" font-family="Times,serif" font-size="14.00">958_20</text>
</g>
<!-- 958_20&#45;&gt;958_19x958_20 -->
<g id="edge29" class="edge"><title>958_20&#45;&gt;958_19x958_20</title>
<path fill="none" stroke="black" d="M1253.5,-222.767C1253.5,-214.661 1253.5,-204.872 1253.5,-197.232"/>
<polygon fill="black" stroke="black" points="1257,-197.077 1253.5,-187.077 1250,-197.077 1257,-197.077"/>
</g>
<!-- 958_22&#45;&gt;958_3x958_22 -->
<g id="edge38" class="edge"><title>958_22&#45;&gt;958_3x958_22</title>
<path fill="none" stroke="black" d="M1179.87,-116.929C1142.49,-104.896 1081.11,-85.1338 1055.4,-76.859"/>
<polygon fill="black" stroke="black" points="1056.31,-73.4742 1045.72,-73.7413 1054.17,-80.1374 1056.31,-73.4742"/>
</g>
</g>
</svg>
