<?xml version="1.0" encoding="UTF-8" standalone="no"?>
<!DOCTYPE svg PUBLIC "-//W3C//DTD SVG 1.1//EN"
 "http://www.w3.org/Graphics/SVG/1.1/DTD/svg11.dtd">
<!-- Generated by graphviz version 2.38.0 (20140413.2041)
 -->
<!-- Title: %3 Pages: 1 -->
<svg width="1329pt" height="487pt"
 viewBox="0.00 0.00 1328.81 486.63" xmlns="http://www.w3.org/2000/svg" xmlns:xlink="http://www.w3.org/1999/xlink">
<g id="graph0" class="graph" transform="scale(1 1) rotate(0) translate(4 482.635)">
<title>%3</title>
<polygon fill="white" stroke="none" points="-4,4 -4,-482.635 1324.81,-482.635 1324.81,4 -4,4"/>
<!-- 746_33 -->
<g id="node1" class="node"><title>746_33</title>
<polygon fill="#66cdaa" stroke="black" points="57,-27.7635 0,-27.7635 0,-4.76346 57,-4.76346 57,-27.7635"/>
<text text-anchor="middle" x="28.5" y="-12.5635" font-family="Times,serif" font-size="14.00">746_33</text>
</g>
<!-- 746_5x746_26 -->
<g id="node2" class="node"><title>746_5x746_26</title>
<polygon fill="none" stroke="black" points="277.5,-75.5269 274,-72.0269 277.5,-68.5269 281,-72.0269 277.5,-75.5269"/>
</g>
<!-- 746_5x746_26&#45;&gt;746_33 -->
<g id="edge1" class="edge"><title>746_5x746_26&#45;&gt;746_33</title>
<path fill="none" stroke="black" d="M274.948,-70.7585C257.181,-68.8502 150.211,-56.7084 66.5,-32.5269 65.0913,-32.12 63.6629,-31.6795 62.2271,-31.2136"/>
<polygon fill="black" stroke="black" points="63.3702,-27.9055 52.7755,-27.8545 61.026,-34.5013 63.3702,-27.9055"/>
</g>
<!-- 746_27 -->
<g id="node14" class="node"><title>746_27</title>
<ellipse fill="#66cdaa" stroke="black" cx="115.5" cy="-16.2635" rx="40.1111" ry="16.0303"/>
<text text-anchor="middle" x="115.5" y="-12.5635" font-family="Times,serif" font-size="14.00">746_27</text>
</g>
<!-- 746_5x746_26&#45;&gt;746_27 -->
<g id="edge11" class="edge"><title>746_5x746_26&#45;&gt;746_27</title>
<path fill="none" stroke="black" d="M275.452,-70.3471C263.185,-66.2761 198.526,-44.8176 155.266,-30.4607"/>
<polygon fill="black" stroke="black" points="156.174,-27.0745 145.581,-27.2465 153.969,-33.7182 156.174,-27.0745"/>
</g>
<!-- 746_28 -->
<g id="node15" class="node"><title>746_28</title>
<polygon fill="white" stroke="black" points="231,-27.7635 174,-27.7635 174,-4.76346 231,-4.76346 231,-27.7635"/>
<text text-anchor="middle" x="202.5" y="-12.5635" font-family="Times,serif" font-size="14.00">746_28</text>
</g>
<!-- 746_5x746_26&#45;&gt;746_28 -->
<g id="edge12" class="edge"><title>746_5x746_26&#45;&gt;746_28</title>
<path fill="none" stroke="black" d="M275.934,-69.904C269.512,-65.301 244.646,-47.4758 225.611,-33.8304"/>
<polygon fill="black" stroke="black" points="227.529,-30.8991 217.362,-27.9175 223.451,-36.5883 227.529,-30.8991"/>
</g>
<!-- 746_29 -->
<g id="node16" class="node"><title>746_29</title>
<polygon fill="white" stroke="black" points="306,-27.7635 249,-27.7635 249,-4.76346 306,-4.76346 306,-27.7635"/>
<text text-anchor="middle" x="277.5" y="-12.5635" font-family="Times,serif" font-size="14.00">746_29</text>
</g>
<!-- 746_5x746_26&#45;&gt;746_29 -->
<g id="edge13" class="edge"><title>746_5x746_26&#45;&gt;746_29</title>
<path fill="none" stroke="black" d="M277.5,-68.4338C277.5,-62.9657 277.5,-49.8005 277.5,-38.1938"/>
<polygon fill="black" stroke="black" points="281,-37.8452 277.5,-27.8453 274,-37.8453 281,-37.8452"/>
</g>
<!-- 746_30 -->
<g id="node17" class="node"><title>746_30</title>
<ellipse fill="#66cdaa" stroke="black" cx="364.5" cy="-16.2635" rx="40.1111" ry="16.0303"/>
<text text-anchor="middle" x="364.5" y="-12.5635" font-family="Times,serif" font-size="14.00">746_30</text>
</g>
<!-- 746_5x746_26&#45;&gt;746_30 -->
<g id="edge14" class="edge"><title>746_5x746_26&#45;&gt;746_30</title>
<path fill="none" stroke="black" d="M279.317,-69.904C286.437,-65.5039 313.109,-49.0213 334.735,-35.6574"/>
<polygon fill="black" stroke="black" points="336.655,-38.5854 343.322,-30.351 332.975,-32.6306 336.655,-38.5854"/>
</g>
<!-- 746_31 -->
<g id="node18" class="node"><title>746_31</title>
<polygon fill="#66cdaa" stroke="black" points="480,-27.7635 423,-27.7635 423,-4.76346 480,-4.76346 480,-27.7635"/>
<text text-anchor="middle" x="451.5" y="-12.5635" font-family="Times,serif" font-size="14.00">746_31</text>
</g>
<!-- 746_5x746_26&#45;&gt;746_31 -->
<g id="edge15" class="edge"><title>746_5x746_26&#45;&gt;746_31</title>
<path fill="none" stroke="black" d="M279.771,-70.4803C292.872,-67.3068 360.086,-50.7574 413.5,-32.5269 414.543,-32.171 415.599,-31.8022 416.662,-31.4234"/>
<polygon fill="black" stroke="black" points="418.153,-34.6026 426.294,-27.8218 415.702,-28.046 418.153,-34.6026"/>
</g>
<!-- 746_32 -->
<g id="node19" class="node"><title>746_32</title>
<polygon fill="#66cdaa" stroke="black" points="555,-27.7635 498,-27.7635 498,-4.76346 555,-4.76346 555,-27.7635"/>
<text text-anchor="middle" x="526.5" y="-12.5635" font-family="Times,serif" font-size="14.00">746_32</text>
</g>
<!-- 746_5x746_26&#45;&gt;746_32 -->
<g id="edge16" class="edge"><title>746_5x746_26&#45;&gt;746_32</title>
<path fill="none" stroke="black" d="M280.052,-70.7585C297.819,-68.8502 404.789,-56.7084 488.5,-32.5269 489.909,-32.12 491.337,-31.6795 492.773,-31.2136"/>
<polygon fill="black" stroke="black" points="493.974,-34.5013 502.224,-27.8545 491.63,-27.9055 493.974,-34.5013"/>
</g>
<!-- 746_1 -->
<g id="node3" class="node"><title>746_1</title>
<polygon fill="#66cdaa" stroke="black" points="749.5,-250.817 699.5,-250.817 699.5,-227.817 749.5,-227.817 749.5,-250.817"/>
<text text-anchor="middle" x="724.5" y="-235.617" font-family="Times,serif" font-size="14.00">746_1</text>
</g>
<!-- 746_1x746_2 -->
<g id="node5" class="node"><title>746_1x746_2</title>
<polygon fill="none" stroke="black" points="724.5,-187.054 721,-183.554 724.5,-180.054 728,-183.554 724.5,-187.054"/>
</g>
<!-- 746_1&#45;&gt;746_1x746_2 -->
<g id="edge3" class="edge"><title>746_1&#45;&gt;746_1x746_2</title>
<path fill="none" stroke="black" d="M724.5,-227.695C724.5,-218.943 724.5,-206.507 724.5,-197.234"/>
<polygon fill="black" stroke="black" points="728,-197.192 724.5,-187.192 721,-197.193 728,-197.192"/>
</g>
<!-- 746_20x746_21 -->
<g id="node4" class="node"><title>746_20x746_21</title>
<polygon fill="none" stroke="black" points="743.5,-298.581 740,-295.081 743.5,-291.581 747,-295.081 743.5,-298.581"/>
</g>
<!-- 746_20x746_21&#45;&gt;746_1 -->
<g id="edge2" class="edge"><title>746_20x746_21&#45;&gt;746_1</title>
<path fill="none" stroke="black" d="M742.684,-291.771C740.794,-286.423 735.958,-272.739 731.748,-260.826"/>
<polygon fill="black" stroke="black" points="734.931,-259.33 728.299,-251.068 728.331,-261.663 734.931,-259.33"/>
</g>
<!-- 746_8 -->
<g id="node6" class="node"><title>746_8</title>
<ellipse fill="#66cdaa" stroke="black" cx="396.5" cy="-127.79" rx="35.2113" ry="16.0303"/>
<text text-anchor="middle" x="396.5" y="-124.09" font-family="Times,serif" font-size="14.00">746_8</text>
</g>
<!-- 746_1x746_2&#45;&gt;746_8 -->
<g id="edge4" class="edge"><title>746_1x746_2&#45;&gt;746_8</title>
<path fill="none" stroke="black" d="M721.934,-182.402C700.934,-181.115 555.2,-171.434 440.5,-144.054 437.863,-143.424 435.162,-142.698 432.459,-141.911"/>
<polygon fill="black" stroke="black" points="433.361,-138.525 422.772,-138.859 431.258,-145.202 433.361,-138.525"/>
</g>
<!-- 746_10 -->
<g id="node10" class="node"><title>746_10</title>
<polygon fill="#66cdaa" stroke="black" points="507,-139.29 450,-139.29 450,-116.29 507,-116.29 507,-139.29"/>
<text text-anchor="middle" x="478.5" y="-124.09" font-family="Times,serif" font-size="14.00">746_10</text>
</g>
<!-- 746_1x746_2&#45;&gt;746_10 -->
<g id="edge7" class="edge"><title>746_1x746_2&#45;&gt;746_10</title>
<path fill="none" stroke="black" d="M721.984,-182.28C704.471,-180.338 599.029,-168.008 516.5,-144.054 515.092,-143.645 513.664,-143.203 512.228,-142.736"/>
<polygon fill="black" stroke="black" points="513.373,-139.428 502.778,-139.372 511.025,-146.023 513.373,-139.428"/>
</g>
<!-- 746_9 -->
<g id="node21" class="node"><title>746_9</title>
<ellipse fill="#66cdaa" stroke="black" cx="560.5" cy="-127.79" rx="35.2113" ry="16.0303"/>
<text text-anchor="middle" x="560.5" y="-124.09" font-family="Times,serif" font-size="14.00">746_9</text>
</g>
<!-- 746_1x746_2&#45;&gt;746_9 -->
<g id="edge18" class="edge"><title>746_1x746_2&#45;&gt;746_9</title>
<path fill="none" stroke="black" d="M722.515,-181.936C711.059,-178.367 652.233,-159.988 604.5,-144.054 602.235,-143.298 599.907,-142.513 597.561,-141.716"/>
<polygon fill="black" stroke="black" points="598.522,-138.346 587.928,-138.416 596.254,-144.968 598.522,-138.346"/>
</g>
<!-- 746_11 -->
<g id="node22" class="node"><title>746_11</title>
<polygon fill="#66cdaa" stroke="black" points="671,-139.29 614,-139.29 614,-116.29 671,-116.29 671,-139.29"/>
<text text-anchor="middle" x="642.5" y="-124.09" font-family="Times,serif" font-size="14.00">746_11</text>
</g>
<!-- 746_1x746_2&#45;&gt;746_11 -->
<g id="edge19" class="edge"><title>746_1x746_2&#45;&gt;746_11</title>
<path fill="none" stroke="black" d="M722.787,-181.431C715.704,-176.786 688.088,-158.68 667.207,-144.99"/>
<polygon fill="black" stroke="black" points="669.031,-142.001 658.75,-139.444 665.193,-147.855 669.031,-142.001"/>
</g>
<!-- 746_7 -->
<g id="node24" class="node"><title>746_7</title>
<ellipse fill="dimgrey" stroke="black" cx="724.5" cy="-127.79" rx="35.2113" ry="16.0303"/>
<text text-anchor="middle" x="724.5" y="-124.09" font-family="Times,serif" font-size="14.00">746_7</text>
</g>
<!-- 746_1x746_2&#45;&gt;746_7 -->
<g id="edge21" class="edge"><title>746_1x746_2&#45;&gt;746_7</title>
<path fill="none" stroke="black" d="M724.5,-179.961C724.5,-175.178 724.5,-164.508 724.5,-154.142"/>
<polygon fill="black" stroke="black" points="728,-154.107 724.5,-144.107 721,-154.107 728,-154.107"/>
</g>
<!-- 746_5 -->
<g id="node25" class="node"><title>746_5</title>
<polygon fill="dimgrey" stroke="black" points="343.5,-139.29 293.5,-139.29 293.5,-116.29 343.5,-116.29 343.5,-139.29"/>
<text text-anchor="middle" x="318.5" y="-124.09" font-family="Times,serif" font-size="14.00">746_5</text>
</g>
<!-- 746_1x746_2&#45;&gt;746_5 -->
<g id="edge22" class="edge"><title>746_1x746_2&#45;&gt;746_5</title>
<path fill="none" stroke="black" d="M721.779,-182.6C696.638,-182.959 502.361,-184.329 352.5,-144.054 351.27,-143.723 350.028,-143.353 348.783,-142.952"/>
<polygon fill="black" stroke="black" points="349.929,-139.643 339.337,-139.393 347.461,-146.194 349.929,-139.643"/>
</g>
<!-- 746_6 -->
<g id="node26" class="node"><title>746_6</title>
<ellipse fill="white" stroke="black" cx="813.5" cy="-127.79" rx="35.2113" ry="16.0303"/>
<text text-anchor="middle" x="813.5" y="-124.09" font-family="Times,serif" font-size="14.00">746_6</text>
</g>
<!-- 746_1x746_2&#45;&gt;746_6 -->
<g id="edge24" class="edge"><title>746_1x746_2&#45;&gt;746_6</title>
<path fill="none" stroke="black" d="M726.359,-181.431C733.774,-176.951 761.921,-159.949 784.245,-146.463"/>
<polygon fill="black" stroke="black" points="786.321,-149.298 793.071,-141.131 782.702,-143.306 786.321,-149.298"/>
</g>
<!-- 746_4 -->
<g id="node27" class="node"><title>746_4</title>
<polygon fill="white" stroke="black" points="916.5,-139.29 866.5,-139.29 866.5,-116.29 916.5,-116.29 916.5,-139.29"/>
<text text-anchor="middle" x="891.5" y="-124.09" font-family="Times,serif" font-size="14.00">746_4</text>
</g>
<!-- 746_1x746_2&#45;&gt;746_4 -->
<g id="edge25" class="edge"><title>746_1x746_2&#45;&gt;746_4</title>
<path fill="none" stroke="black" d="M726.731,-182.033C739.601,-179.001 805.599,-163.109 857.5,-144.054 858.206,-143.795 858.918,-143.527 859.634,-143.254"/>
<polygon fill="black" stroke="black" points="861.075,-146.446 869.005,-139.42 858.424,-139.967 861.075,-146.446"/>
</g>
<!-- 746_3 -->
<g id="node28" class="node"><title>746_3</title>
<ellipse fill="dimgrey" stroke="black" cx="969.5" cy="-127.79" rx="35.2113" ry="16.0303"/>
<text text-anchor="middle" x="969.5" y="-124.09" font-family="Times,serif" font-size="14.00">746_3</text>
</g>
<!-- 746_1x746_2&#45;&gt;746_3 -->
<g id="edge26" class="edge"><title>746_1x746_2&#45;&gt;746_3</title>
<path fill="none" stroke="black" d="M726.919,-182.226C743.759,-179.916 845.188,-165.554 925.5,-144.054 927.96,-143.395 930.481,-142.668 933.011,-141.898"/>
<polygon fill="black" stroke="black" points="934.253,-145.175 942.699,-138.778 932.107,-138.512 934.253,-145.175"/>
</g>
<!-- 746_99 -->
<g id="node33" class="node"><title>746_99</title>
<polygon fill="dimgrey" stroke="black" points="1080,-139.29 1023,-139.29 1023,-116.29 1080,-116.29 1080,-139.29"/>
<text text-anchor="middle" x="1051.5" y="-124.09" font-family="Times,serif" font-size="14.00">746_99</text>
</g>
<!-- 746_1x746_2&#45;&gt;746_99 -->
<g id="edge30" class="edge"><title>746_1x746_2&#45;&gt;746_99</title>
<path fill="none" stroke="black" d="M727.122,-182.453C748.585,-181.581 897.484,-174.568 1013.5,-144.054 1014.96,-143.67 1016.44,-143.244 1017.93,-142.786"/>
<polygon fill="black" stroke="black" points="1019.38,-145.987 1027.68,-139.406 1017.09,-139.373 1019.38,-145.987"/>
</g>
<!-- 746_17 -->
<g id="node7" class="node"><title>746_17</title>
<ellipse fill="#66cdaa" stroke="black" cx="932.5" cy="-16.2635" rx="40.1111" ry="16.0303"/>
<text text-anchor="middle" x="932.5" y="-12.5635" font-family="Times,serif" font-size="14.00">746_17</text>
</g>
<!-- 746_99x746_12 -->
<g id="node8" class="node"><title>746_99x746_12</title>
<polygon fill="none" stroke="black" points="1094.5,-75.5269 1091,-72.0269 1094.5,-68.5269 1098,-72.0269 1094.5,-75.5269"/>
</g>
<!-- 746_99x746_12&#45;&gt;746_17 -->
<g id="edge5" class="edge"><title>746_99x746_12&#45;&gt;746_17</title>
<path fill="none" stroke="black" d="M1092.45,-70.3471C1080.18,-66.2761 1015.53,-44.8176 972.266,-30.4607"/>
<polygon fill="black" stroke="black" points="973.174,-27.0745 962.581,-27.2465 970.969,-33.7182 973.174,-27.0745"/>
</g>
<!-- 746_16 -->
<g id="node9" class="node"><title>746_16</title>
<polygon fill="#66cdaa" stroke="black" points="1048,-27.7635 991,-27.7635 991,-4.76346 1048,-4.76346 1048,-27.7635"/>
<text text-anchor="middle" x="1019.5" y="-12.5635" font-family="Times,serif" font-size="14.00">746_16</text>
</g>
<!-- 746_99x746_12&#45;&gt;746_16 -->
<g id="edge6" class="edge"><title>746_99x746_12&#45;&gt;746_16</title>
<path fill="none" stroke="black" d="M1092.93,-69.904C1086.51,-65.301 1061.65,-47.4758 1042.61,-33.8304"/>
<polygon fill="black" stroke="black" points="1044.53,-30.8991 1034.36,-27.9175 1040.45,-36.5883 1044.53,-30.8991"/>
</g>
<!-- 746_15 -->
<g id="node11" class="node"><title>746_15</title>
<polygon fill="#66cdaa" stroke="black" points="1123,-27.7635 1066,-27.7635 1066,-4.76346 1123,-4.76346 1123,-27.7635"/>
<text text-anchor="middle" x="1094.5" y="-12.5635" font-family="Times,serif" font-size="14.00">746_15</text>
</g>
<!-- 746_99x746_12&#45;&gt;746_15 -->
<g id="edge8" class="edge"><title>746_99x746_12&#45;&gt;746_15</title>
<path fill="none" stroke="black" d="M1094.5,-68.4338C1094.5,-62.9657 1094.5,-49.8005 1094.5,-38.1938"/>
<polygon fill="black" stroke="black" points="1098,-37.8452 1094.5,-27.8453 1091,-37.8453 1098,-37.8452"/>
</g>
<!-- 746_13 -->
<g id="node12" class="node"><title>746_13</title>
<ellipse fill="#66cdaa" stroke="black" cx="1181.5" cy="-16.2635" rx="40.1111" ry="16.0303"/>
<text text-anchor="middle" x="1181.5" y="-12.5635" font-family="Times,serif" font-size="14.00">746_13</text>
</g>
<!-- 746_99x746_12&#45;&gt;746_13 -->
<g id="edge9" class="edge"><title>746_99x746_12&#45;&gt;746_13</title>
<path fill="none" stroke="black" d="M1096.32,-69.904C1103.44,-65.5039 1130.11,-49.0213 1151.73,-35.6574"/>
<polygon fill="black" stroke="black" points="1153.65,-38.5854 1160.32,-30.351 1149.98,-32.6306 1153.65,-38.5854"/>
</g>
<!-- 746_14 -->
<g id="node20" class="node"><title>746_14</title>
<ellipse fill="#66cdaa" stroke="black" cx="1280.5" cy="-16.2635" rx="40.1111" ry="16.0303"/>
<text text-anchor="middle" x="1280.5" y="-12.5635" font-family="Times,serif" font-size="14.00">746_14</text>
</g>
<!-- 746_99x746_12&#45;&gt;746_14 -->
<g id="edge17" class="edge"><title>746_99x746_12&#45;&gt;746_14</title>
<path fill="none" stroke="black" d="M1096.75,-70.4091C1109.72,-66.8388 1176.35,-48.4537 1230.5,-32.5269 1233.59,-31.6177 1236.79,-30.6671 1240,-29.7042"/>
<polygon fill="black" stroke="black" points="1241.03,-33.0488 1249.59,-26.807 1239.01,-26.3478 1241.03,-33.0488"/>
</g>
<!-- 746_26 -->
<g id="node13" class="node"><title>746_26</title>
<ellipse fill="#66cdaa" stroke="black" cx="235.5" cy="-127.79" rx="40.1111" ry="16.0303"/>
<text text-anchor="middle" x="235.5" y="-124.09" font-family="Times,serif" font-size="14.00">746_26</text>
</g>
<!-- 746_26&#45;&gt;746_5x746_26 -->
<g id="edge10" class="edge"><title>746_26&#45;&gt;746_5x746_26</title>
<path fill="none" stroke="black" d="M246.977,-112.099C254.272,-102.76 263.513,-90.9312 269.906,-82.748"/>
<polygon fill="black" stroke="black" points="272.868,-84.642 276.266,-74.6068 267.351,-80.3326 272.868,-84.642"/>
</g>
<!-- 746_2 -->
<g id="node23" class="node"><title>746_2</title>
<ellipse fill="dimgrey" stroke="black" cx="802.5" cy="-239.317" rx="35.2113" ry="16.0303"/>
<text text-anchor="middle" x="802.5" y="-235.617" font-family="Times,serif" font-size="14.00">746_2</text>
</g>
<!-- 746_2&#45;&gt;746_1x746_2 -->
<g id="edge20" class="edge"><title>746_2&#45;&gt;746_1x746_2</title>
<path fill="none" stroke="black" d="M783.618,-225.303C768.154,-214.643 746.877,-199.978 734.516,-191.458"/>
<polygon fill="black" stroke="black" points="736.313,-188.446 726.093,-185.652 732.341,-194.209 736.313,-188.446"/>
</g>
<!-- 746_5&#45;&gt;746_5x746_26 -->
<g id="edge23" class="edge"><title>746_5&#45;&gt;746_5x746_26</title>
<path fill="none" stroke="black" d="M310.4,-116.168C302.939,-106.385 291.969,-91.9999 284.78,-82.5735"/>
<polygon fill="black" stroke="black" points="287.507,-80.3768 278.66,-74.5476 281.941,-84.6216 287.507,-80.3768"/>
</g>
<!-- 746_12 -->
<g id="node29" class="node"><title>746_12</title>
<ellipse fill="dimgrey" stroke="black" cx="1138.5" cy="-127.79" rx="40.1111" ry="16.0303"/>
<text text-anchor="middle" x="1138.5" y="-124.09" font-family="Times,serif" font-size="14.00">746_12</text>
</g>
<!-- 746_12&#45;&gt;746_99x746_12 -->
<g id="edge28" class="edge"><title>746_12&#45;&gt;746_99x746_12</title>
<path fill="none" stroke="black" d="M1126.48,-112.099C1118.75,-102.656 1108.94,-90.6651 1102.23,-82.4735"/>
<polygon fill="black" stroke="black" points="1104.84,-80.1289 1095.79,-74.6068 1099.42,-84.5623 1104.84,-80.1289"/>
</g>
<!-- 746_18x746_19 -->
<g id="node30" class="node"><title>746_18x746_19</title>
<polygon fill="none" stroke="black" points="1135.5,-187.054 1132,-183.554 1135.5,-180.054 1139,-183.554 1135.5,-187.054"/>
</g>
<!-- 746_18x746_19&#45;&gt;746_12 -->
<g id="edge27" class="edge"><title>746_18x746_19&#45;&gt;746_12</title>
<path fill="none" stroke="black" d="M1135.64,-179.961C1135.91,-175.178 1136.51,-164.508 1137.09,-154.142"/>
<polygon fill="black" stroke="black" points="1140.58,-154.286 1137.65,-144.107 1133.59,-153.896 1140.58,-154.286"/>
</g>
<!-- 746_25 -->
<g id="node31" class="node"><title>746_25</title>
<ellipse fill="#66cdaa" stroke="black" cx="874.5" cy="-462.371" rx="40.1111" ry="16.0303"/>
<text text-anchor="middle" x="874.5" y="-458.671" font-family="Times,serif" font-size="14.00">746_25</text>
</g>
<!-- 746_24x746_25 -->
<g id="node32" class="node"><title>746_24x746_25</title>
<polygon fill="none" stroke="black" points="917.5,-410.108 914,-406.608 917.5,-403.108 921,-406.608 917.5,-410.108"/>
</g>
<!-- 746_25&#45;&gt;746_24x746_25 -->
<g id="edge29" class="edge"><title>746_25&#45;&gt;746_24x746_25</title>
<path fill="none" stroke="black" d="M886.25,-446.68C893.803,-437.236 903.393,-425.246 909.945,-417.054"/>
<polygon fill="black" stroke="black" points="912.724,-419.183 916.236,-409.188 907.257,-414.811 912.724,-419.183"/>
</g>
<!-- 746_20 -->
<g id="node38" class="node"><title>746_20</title>
<polygon fill="#66cdaa" stroke="black" points="864,-362.344 807,-362.344 807,-339.344 864,-339.344 864,-362.344"/>
<text text-anchor="middle" x="835.5" y="-347.144" font-family="Times,serif" font-size="14.00">746_20</text>
</g>
<!-- 746_24x746_25&#45;&gt;746_20 -->
<g id="edge35" class="edge"><title>746_24x746_25&#45;&gt;746_20</title>
<path fill="none" stroke="black" d="M915.787,-404.485C908.704,-399.84 881.088,-381.734 860.207,-368.043"/>
<polygon fill="black" stroke="black" points="862.031,-365.054 851.75,-362.498 858.193,-370.908 862.031,-365.054"/>
</g>
<!-- 746_23 -->
<g id="node41" class="node"><title>746_23</title>
<ellipse fill="#66cdaa" stroke="black" cx="999.5" cy="-350.844" rx="40.1111" ry="16.0303"/>
<text text-anchor="middle" x="999.5" y="-347.144" font-family="Times,serif" font-size="14.00">746_23</text>
</g>
<!-- 746_24x746_25&#45;&gt;746_23 -->
<g id="edge40" class="edge"><title>746_24x746_25&#45;&gt;746_23</title>
<path fill="none" stroke="black" d="M919.213,-404.485C925.824,-400.15 950.32,-384.089 970.534,-370.836"/>
<polygon fill="black" stroke="black" points="972.711,-373.594 979.155,-365.184 968.873,-367.74 972.711,-373.594"/>
</g>
<!-- 746_99&#45;&gt;746_99x746_12 -->
<g id="edge31" class="edge"><title>746_99&#45;&gt;746_99x746_12</title>
<path fill="none" stroke="black" d="M1060,-116.168C1067.82,-106.385 1079.33,-91.9999 1086.86,-82.5735"/>
<polygon fill="black" stroke="black" points="1089.77,-84.5431 1093.28,-74.5476 1084.3,-80.1709 1089.77,-84.5431"/>
</g>
<!-- 746_24 -->
<g id="node34" class="node"><title>746_24</title>
<polygon fill="#66cdaa" stroke="black" points="990,-473.871 933,-473.871 933,-450.871 990,-450.871 990,-473.871"/>
<text text-anchor="middle" x="961.5" y="-458.671" font-family="Times,serif" font-size="14.00">746_24</text>
</g>
<!-- 746_24&#45;&gt;746_24x746_25 -->
<g id="edge32" class="edge"><title>746_24&#45;&gt;746_24x746_25</title>
<path fill="none" stroke="black" d="M952.807,-450.749C944.801,-440.966 933.027,-426.581 925.313,-417.154"/>
<polygon fill="black" stroke="black" points="927.786,-414.65 918.745,-409.128 922.369,-419.084 927.786,-414.65"/>
</g>
<!-- 746_22 -->
<g id="node35" class="node"><title>746_22</title>
<polygon fill="#66cdaa" stroke="black" points="941,-362.344 884,-362.344 884,-339.344 941,-339.344 941,-362.344"/>
<text text-anchor="middle" x="912.5" y="-347.144" font-family="Times,serif" font-size="14.00">746_22</text>
</g>
<!-- 746_22x746_23 -->
<g id="node36" class="node"><title>746_22x746_23</title>
<polygon fill="none" stroke="black" points="999.5,-298.581 996,-295.081 999.5,-291.581 1003,-295.081 999.5,-298.581"/>
</g>
<!-- 746_22&#45;&gt;746_22x746_23 -->
<g id="edge33" class="edge"><title>746_22&#45;&gt;746_22x746_23</title>
<path fill="none" stroke="black" d="M929.688,-339.222C947.194,-328.404 973.805,-311.959 988.604,-302.814"/>
<polygon fill="black" stroke="black" points="990.873,-305.526 997.54,-297.292 987.194,-299.571 990.873,-305.526"/>
</g>
<!-- 746_19 -->
<g id="node39" class="node"><title>746_19</title>
<ellipse fill="#66cdaa" stroke="black" cx="1009.5" cy="-239.317" rx="40.1111" ry="16.0303"/>
<text text-anchor="middle" x="1009.5" y="-235.617" font-family="Times,serif" font-size="14.00">746_19</text>
</g>
<!-- 746_22x746_23&#45;&gt;746_19 -->
<g id="edge37" class="edge"><title>746_22x746_23&#45;&gt;746_19</title>
<path fill="none" stroke="black" d="M999.93,-291.771C1000.78,-287.188 1002.77,-276.483 1004.72,-266.018"/>
<polygon fill="black" stroke="black" points="1008.22,-266.339 1006.61,-255.868 1001.34,-265.059 1008.22,-266.339"/>
</g>
<!-- 746_21 -->
<g id="node37" class="node"><title>746_21</title>
<ellipse fill="#66cdaa" stroke="black" cx="743.5" cy="-350.844" rx="40.1111" ry="16.0303"/>
<text text-anchor="middle" x="743.5" y="-347.144" font-family="Times,serif" font-size="14.00">746_21</text>
</g>
<!-- 746_21&#45;&gt;746_20x746_21 -->
<g id="edge34" class="edge"><title>746_21&#45;&gt;746_20x746_21</title>
<path fill="none" stroke="black" d="M743.5,-334.294C743.5,-326.188 743.5,-316.399 743.5,-308.759"/>
<polygon fill="black" stroke="black" points="747,-308.604 743.5,-298.604 740,-308.604 747,-308.604"/>
</g>
<!-- 746_20&#45;&gt;746_20x746_21 -->
<g id="edge36" class="edge"><title>746_20&#45;&gt;746_20x746_21</title>
<path fill="none" stroke="black" d="M817.324,-339.222C798.295,-328.102 769.091,-311.036 753.74,-302.065"/>
<polygon fill="black" stroke="black" points="755.499,-299.039 745.099,-297.015 751.967,-305.083 755.499,-299.039"/>
</g>
<!-- 746_19&#45;&gt;746_18x746_19 -->
<g id="edge38" class="edge"><title>746_19&#45;&gt;746_18x746_19</title>
<path fill="none" stroke="black" d="M1036.22,-226.915C1063.61,-215.229 1104.88,-197.621 1124.45,-189.27"/>
<polygon fill="black" stroke="black" points="1125.84,-192.481 1133.66,-185.337 1123.09,-186.043 1125.84,-192.481"/>
</g>
<!-- 746_18 -->
<g id="node40" class="node"><title>746_18</title>
<polygon fill="#66cdaa" stroke="black" points="1164,-250.817 1107,-250.817 1107,-227.817 1164,-227.817 1164,-250.817"/>
<text text-anchor="middle" x="1135.5" y="-235.617" font-family="Times,serif" font-size="14.00">746_18</text>
</g>
<!-- 746_18&#45;&gt;746_18x746_19 -->
<g id="edge39" class="edge"><title>746_18&#45;&gt;746_18x746_19</title>
<path fill="none" stroke="black" d="M1135.5,-227.695C1135.5,-218.943 1135.5,-206.507 1135.5,-197.234"/>
<polygon fill="black" stroke="black" points="1139,-197.192 1135.5,-187.192 1132,-197.193 1139,-197.192"/>
</g>
<!-- 746_23&#45;&gt;746_22x746_23 -->
<g id="edge41" class="edge"><title>746_23&#45;&gt;746_22x746_23</title>
<path fill="none" stroke="black" d="M999.5,-334.294C999.5,-326.188 999.5,-316.399 999.5,-308.759"/>
<polygon fill="black" stroke="black" points="1003,-308.604 999.5,-298.604 996,-308.604 1003,-308.604"/>
</g>
</g>
</svg>
