<?xml version="1.0" encoding="UTF-8" standalone="no"?>
<!DOCTYPE svg PUBLIC "-//W3C//DTD SVG 1.1//EN"
 "http://www.w3.org/Graphics/SVG/1.1/DTD/svg11.dtd">
<!-- Generated by graphviz version 2.38.0 (20140413.2041)
 -->
<!-- Title: %3 Pages: 1 -->
<svg width="645pt" height="264pt"
 viewBox="0.00 0.00 644.71 263.58" xmlns="http://www.w3.org/2000/svg" xmlns:xlink="http://www.w3.org/1999/xlink">
<g id="graph0" class="graph" transform="scale(1 1) rotate(0) translate(4 259.581)">
<title>%3</title>
<polygon fill="white" stroke="none" points="-4,4 -4,-259.581 640.711,-259.581 640.711,4 -4,4"/>
<!-- 703_2 -->
<g id="node1" class="node"><title>703_2</title>
<ellipse fill="#66cdaa" stroke="black" cx="348.355" cy="-127.79" rx="35.2113" ry="16.0303"/>
<text text-anchor="middle" x="348.355" y="-124.09" font-family="Times,serif" font-size="14.00">703_2</text>
</g>
<!-- 703_1x703_2 -->
<g id="node3" class="node"><title>703_1x703_2</title>
<polygon fill="none" stroke="black" points="309.355,-75.5269 305.855,-72.0269 309.355,-68.5269 312.855,-72.0269 309.355,-75.5269"/>
</g>
<!-- 703_2&#45;&gt;703_1x703_2 -->
<g id="edge2" class="edge"><title>703_2&#45;&gt;703_1x703_2</title>
<path fill="none" stroke="black" d="M337.698,-112.099C330.924,-102.76 322.343,-90.9312 316.407,-82.748"/>
<polygon fill="black" stroke="black" points="319.206,-80.6463 310.501,-74.6068 313.54,-84.7566 319.206,-80.6463"/>
</g>
<!-- 703_10x703_11 -->
<g id="node2" class="node"><title>703_10x703_11</title>
<polygon fill="none" stroke="black" points="348.355,-187.054 344.855,-183.554 348.355,-180.054 351.855,-183.554 348.355,-187.054"/>
</g>
<!-- 703_10x703_11&#45;&gt;703_2 -->
<g id="edge1" class="edge"><title>703_10x703_11&#45;&gt;703_2</title>
<path fill="none" stroke="black" d="M348.355,-179.961C348.355,-175.178 348.355,-164.508 348.355,-154.142"/>
<polygon fill="black" stroke="black" points="351.855,-154.107 348.355,-144.107 344.855,-154.107 351.855,-154.107"/>
</g>
<!-- 703_9 -->
<g id="node4" class="node"><title>703_9</title>
<ellipse fill="#66cdaa" stroke="black" cx="35.3553" cy="-16.2635" rx="35.2113" ry="16.0303"/>
<text text-anchor="middle" x="35.3553" y="-12.5635" font-family="Times,serif" font-size="14.00">703_9</text>
</g>
<!-- 703_1x703_2&#45;&gt;703_9 -->
<g id="edge3" class="edge"><title>703_1x703_2&#45;&gt;703_9</title>
<path fill="none" stroke="black" d="M307.07,-70.7843C289.388,-68.8779 172.616,-55.7694 80.3553,-32.5269 77.5804,-31.8278 74.7313,-31.038 71.8791,-30.1948"/>
<polygon fill="black" stroke="black" points="72.8621,-26.835 62.2727,-27.1768 70.764,-33.5132 72.8621,-26.835"/>
</g>
<!-- 703_4 -->
<g id="node6" class="node"><title>703_4</title>
<ellipse fill="dimgrey" stroke="black" cx="124.355" cy="-16.2635" rx="35.2113" ry="16.0303"/>
<text text-anchor="middle" x="124.355" y="-12.5635" font-family="Times,serif" font-size="14.00">703_4</text>
</g>
<!-- 703_1x703_2&#45;&gt;703_4 -->
<g id="edge5" class="edge"><title>703_1x703_2&#45;&gt;703_4</title>
<path fill="none" stroke="black" d="M307.013,-70.4503C293.494,-67.1097 224.108,-49.7872 168.355,-32.5269 165.922,-31.7737 163.422,-30.9747 160.907,-30.1527"/>
<polygon fill="black" stroke="black" points="161.847,-26.7763 151.253,-26.9157 159.622,-33.4132 161.847,-26.7763"/>
</g>
<!-- 703_8 -->
<g id="node7" class="node"><title>703_8</title>
<polygon fill="#66cdaa" stroke="black" points="227.355,-27.7635 177.355,-27.7635 177.355,-4.76346 227.355,-4.76346 227.355,-27.7635"/>
<text text-anchor="middle" x="202.355" y="-12.5635" font-family="Times,serif" font-size="14.00">703_8</text>
</g>
<!-- 703_1x703_2&#45;&gt;703_8 -->
<g id="edge6" class="edge"><title>703_1x703_2&#45;&gt;703_8</title>
<path fill="none" stroke="black" d="M307.498,-70.0937C298.672,-65.659 260.24,-46.3481 232.389,-32.3541"/>
<polygon fill="black" stroke="black" points="233.914,-29.2036 223.407,-27.8413 230.771,-35.4585 233.914,-29.2036"/>
</g>
<!-- 703_5 -->
<g id="node9" class="node"><title>703_5</title>
<polygon fill="dimgrey" stroke="black" points="295.355,-27.7635 245.355,-27.7635 245.355,-4.76346 295.355,-4.76346 295.355,-27.7635"/>
<text text-anchor="middle" x="270.355" y="-12.5635" font-family="Times,serif" font-size="14.00">703_5</text>
</g>
<!-- 703_1x703_2&#45;&gt;703_5 -->
<g id="edge8" class="edge"><title>703_1x703_2&#45;&gt;703_5</title>
<path fill="none" stroke="black" d="M308.058,-69.2381C304.321,-64.0863 293.213,-48.7736 284.015,-36.0939"/>
<polygon fill="black" stroke="black" points="286.771,-33.9329 278.066,-27.8934 281.105,-38.0431 286.771,-33.9329"/>
</g>
<!-- 703_7 -->
<g id="node11" class="node"><title>703_7</title>
<ellipse fill="dimgrey" stroke="black" cx="348.355" cy="-16.2635" rx="35.2113" ry="16.0303"/>
<text text-anchor="middle" x="348.355" y="-12.5635" font-family="Times,serif" font-size="14.00">703_7</text>
</g>
<!-- 703_1x703_2&#45;&gt;703_7 -->
<g id="edge10" class="edge"><title>703_1x703_2&#45;&gt;703_7</title>
<path fill="none" stroke="black" d="M310.653,-69.2381C313.992,-64.6344 323.218,-51.9165 331.707,-40.2143"/>
<polygon fill="black" stroke="black" points="334.624,-42.1532 337.663,-32.0034 328.958,-38.0429 334.624,-42.1532"/>
</g>
<!-- 703_99 -->
<g id="node13" class="node"><title>703_99</title>
<polygon fill="dimgrey" stroke="black" points="458.855,-27.7635 401.855,-27.7635 401.855,-4.76346 458.855,-4.76346 458.855,-27.7635"/>
<text text-anchor="middle" x="430.355" y="-12.5635" font-family="Times,serif" font-size="14.00">703_99</text>
</g>
<!-- 703_1x703_2&#45;&gt;703_99 -->
<g id="edge11" class="edge"><title>703_1x703_2&#45;&gt;703_99</title>
<path fill="none" stroke="black" d="M311.456,-70.0937C321.523,-65.6204 365.656,-46.0112 397.211,-31.9902"/>
<polygon fill="black" stroke="black" points="398.832,-35.1003 406.549,-27.8413 395.989,-28.7033 398.832,-35.1003"/>
</g>
<!-- 703_6 -->
<g id="node14" class="node"><title>703_6</title>
<ellipse fill="dimgrey" stroke="black" cx="512.355" cy="-16.2635" rx="35.2113" ry="16.0303"/>
<text text-anchor="middle" x="512.355" y="-12.5635" font-family="Times,serif" font-size="14.00">703_6</text>
</g>
<!-- 703_1x703_2&#45;&gt;703_6 -->
<g id="edge12" class="edge"><title>703_1x703_2&#45;&gt;703_6</title>
<path fill="none" stroke="black" d="M311.619,-70.5649C325.916,-67.6289 405.135,-51.0996 468.355,-32.5269 470.799,-31.809 473.307,-31.0367 475.828,-30.2342"/>
<polygon fill="black" stroke="black" points="477.098,-33.5008 485.495,-27.0409 474.902,-26.854 477.098,-33.5008"/>
</g>
<!-- 703_3 -->
<g id="node15" class="node"><title>703_3</title>
<ellipse fill="dimgrey" stroke="black" cx="601.355" cy="-16.2635" rx="35.2113" ry="16.0303"/>
<text text-anchor="middle" x="601.355" y="-12.5635" font-family="Times,serif" font-size="14.00">703_3</text>
</g>
<!-- 703_1x703_2&#45;&gt;703_3 -->
<g id="edge13" class="edge"><title>703_1x703_2&#45;&gt;703_3</title>
<path fill="none" stroke="black" d="M311.821,-70.806C330.9,-69.0631 456.888,-56.9546 556.355,-32.5269 559.305,-31.8026 562.336,-30.971 565.365,-30.0779"/>
<polygon fill="black" stroke="black" points="566.439,-33.4094 574.929,-27.0721 564.34,-26.7315 566.439,-33.4094"/>
</g>
<!-- 703_1 -->
<g id="node5" class="node"><title>703_1</title>
<polygon fill="#66cdaa" stroke="black" points="295.355,-139.29 245.355,-139.29 245.355,-116.29 295.355,-116.29 295.355,-139.29"/>
<text text-anchor="middle" x="270.355" y="-124.09" font-family="Times,serif" font-size="14.00">703_1</text>
</g>
<!-- 703_1&#45;&gt;703_1x703_2 -->
<g id="edge4" class="edge"><title>703_1&#45;&gt;703_1x703_2</title>
<path fill="none" stroke="black" d="M278.06,-116.168C285.081,-106.49 295.368,-92.3087 302.208,-82.8793"/>
<polygon fill="black" stroke="black" points="305.214,-84.6973 308.252,-74.5476 299.547,-80.587 305.214,-84.6973"/>
</g>
<!-- 703_10 -->
<g id="node8" class="node"><title>703_10</title>
<polygon fill="#66cdaa" stroke="black" points="333.855,-250.817 276.855,-250.817 276.855,-227.817 333.855,-227.817 333.855,-250.817"/>
<text text-anchor="middle" x="305.355" y="-235.617" font-family="Times,serif" font-size="14.00">703_10</text>
</g>
<!-- 703_10&#45;&gt;703_10x703_11 -->
<g id="edge7" class="edge"><title>703_10&#45;&gt;703_10x703_11</title>
<path fill="none" stroke="black" d="M313.851,-227.695C321.675,-217.912 333.181,-203.527 340.72,-194.1"/>
<polygon fill="black" stroke="black" points="343.626,-196.07 347.139,-186.074 338.16,-191.698 343.626,-196.07"/>
</g>
<!-- 703_11 -->
<g id="node10" class="node"><title>703_11</title>
<ellipse fill="#66cdaa" stroke="black" cx="392.355" cy="-239.317" rx="40.1111" ry="16.0303"/>
<text text-anchor="middle" x="392.355" y="-235.617" font-family="Times,serif" font-size="14.00">703_11</text>
</g>
<!-- 703_11&#45;&gt;703_10x703_11 -->
<g id="edge9" class="edge"><title>703_11&#45;&gt;703_10x703_11</title>
<path fill="none" stroke="black" d="M380.332,-223.626C372.603,-214.182 362.79,-202.192 356.086,-194"/>
<polygon fill="black" stroke="black" points="358.69,-191.656 349.648,-186.134 353.273,-196.089 358.69,-191.656"/>
</g>
<!-- 703_12 -->
<g id="node12" class="node"><title>703_12</title>
<ellipse fill="#66cdaa" stroke="black" cx="491.355" cy="-239.317" rx="40.1111" ry="16.0303"/>
<text text-anchor="middle" x="491.355" y="-235.617" font-family="Times,serif" font-size="14.00">703_12</text>
</g>
</g>
</svg>
