<?xml version="1.0" encoding="UTF-8" standalone="no"?>
<!DOCTYPE svg PUBLIC "-//W3C//DTD SVG 1.1//EN"
 "http://www.w3.org/Graphics/SVG/1.1/DTD/svg11.dtd">
<!-- Generated by graphviz version 2.38.0 (20140413.2041)
 -->
<!-- Title: %3 Pages: 1 -->
<svg width="873pt" height="375pt"
 viewBox="0.00 0.00 872.86 375.11" xmlns="http://www.w3.org/2000/svg" xmlns:xlink="http://www.w3.org/1999/xlink">
<g id="graph0" class="graph" transform="scale(1 1) rotate(0) translate(4 371.108)">
<title>%3</title>
<polygon fill="white" stroke="none" points="-4,4 -4,-371.108 868.855,-371.108 868.855,4 -4,4"/>
<!-- 440_5 -->
<g id="node1" class="node"><title>440_5</title>
<polygon fill="#66cdaa" stroke="black" points="125.5,-250.817 75.5,-250.817 75.5,-227.817 125.5,-227.817 125.5,-250.817"/>
<text text-anchor="middle" x="100.5" y="-235.617" font-family="Times,serif" font-size="14.00">440_5</text>
</g>
<!-- 440_1x440_2 -->
<g id="node2" class="node"><title>440_1x440_2</title>
<polygon fill="none" stroke="black" points="443.5,-298.581 440,-295.081 443.5,-291.581 447,-295.081 443.5,-298.581"/>
</g>
<!-- 440_1x440_2&#45;&gt;440_5 -->
<g id="edge1" class="edge"><title>440_1x440_2&#45;&gt;440_5</title>
<path fill="none" stroke="black" d="M440.97,-294.051C418.998,-293.735 258.401,-290.266 134.5,-255.581 133.273,-255.237 132.034,-254.856 130.792,-254.446"/>
<polygon fill="black" stroke="black" points="131.947,-251.141 121.357,-250.848 129.453,-257.681 131.947,-251.141"/>
</g>
<!-- 440_7 -->
<g id="node3" class="node"><title>440_7</title>
<ellipse fill="#66cdaa" stroke="black" cx="178.5" cy="-239.317" rx="35.2113" ry="16.0303"/>
<text text-anchor="middle" x="178.5" y="-235.617" font-family="Times,serif" font-size="14.00">440_7</text>
</g>
<!-- 440_1x440_2&#45;&gt;440_7 -->
<g id="edge2" class="edge"><title>440_1x440_2&#45;&gt;440_7</title>
<path fill="none" stroke="black" d="M440.839,-293.782C422.312,-291.672 310.728,-278.409 222.5,-255.581 219.875,-254.902 217.183,-254.139 214.487,-253.325"/>
<polygon fill="black" stroke="black" points="215.404,-249.944 204.813,-250.219 213.264,-256.609 215.404,-249.944"/>
</g>
<!-- 440_3 -->
<g id="node5" class="node"><title>440_3</title>
<polygon fill="#66cdaa" stroke="black" points="281.5,-250.817 231.5,-250.817 231.5,-227.817 281.5,-227.817 281.5,-250.817"/>
<text text-anchor="middle" x="256.5" y="-235.617" font-family="Times,serif" font-size="14.00">440_3</text>
</g>
<!-- 440_1x440_2&#45;&gt;440_3 -->
<g id="edge4" class="edge"><title>440_1x440_2&#45;&gt;440_3</title>
<path fill="none" stroke="black" d="M441.301,-293.679C427.413,-291.109 350.529,-276.427 290.5,-255.581 289.644,-255.284 288.78,-254.973 287.912,-254.652"/>
<polygon fill="black" stroke="black" points="289.17,-251.386 278.586,-250.903 286.559,-257.881 289.17,-251.386"/>
</g>
<!-- 440_8 -->
<g id="node6" class="node"><title>440_8</title>
<polygon fill="#66cdaa" stroke="black" points="349.5,-250.817 299.5,-250.817 299.5,-227.817 349.5,-227.817 349.5,-250.817"/>
<text text-anchor="middle" x="324.5" y="-235.617" font-family="Times,serif" font-size="14.00">440_8</text>
</g>
<!-- 440_1x440_2&#45;&gt;440_8 -->
<g id="edge5" class="edge"><title>440_1x440_2&#45;&gt;440_8</title>
<path fill="none" stroke="black" d="M441.435,-293.148C431.533,-288.674 388.13,-269.065 357.096,-255.044"/>
<polygon fill="black" stroke="black" points="358.467,-251.823 347.913,-250.895 355.585,-258.202 358.467,-251.823"/>
</g>
<!-- 440_4 -->
<g id="node11" class="node"><title>440_4</title>
<ellipse fill="#66cdaa" stroke="black" cx="402.5" cy="-239.317" rx="35.2113" ry="16.0303"/>
<text text-anchor="middle" x="402.5" y="-235.617" font-family="Times,serif" font-size="14.00">440_4</text>
</g>
<!-- 440_1x440_2&#45;&gt;440_4 -->
<g id="edge8" class="edge"><title>440_1x440_2&#45;&gt;440_4</title>
<path fill="none" stroke="black" d="M442.136,-292.292C438.603,-287.659 428.803,-274.808 419.832,-263.045"/>
<polygon fill="black" stroke="black" points="422.395,-260.634 413.548,-254.804 416.829,-264.879 422.395,-260.634"/>
</g>
<!-- 440_11 -->
<g id="node12" class="node"><title>440_11</title>
<polygon fill="#66cdaa" stroke="black" points="513,-250.817 456,-250.817 456,-227.817 513,-227.817 513,-250.817"/>
<text text-anchor="middle" x="484.5" y="-235.617" font-family="Times,serif" font-size="14.00">440_11</text>
</g>
<!-- 440_1x440_2&#45;&gt;440_11 -->
<g id="edge9" class="edge"><title>440_1x440_2&#45;&gt;440_11</title>
<path fill="none" stroke="black" d="M444.864,-292.292C448.793,-287.14 460.47,-271.827 470.14,-259.148"/>
<polygon fill="black" stroke="black" points="473.113,-261.021 476.394,-250.947 467.547,-256.777 473.113,-261.021"/>
</g>
<!-- 440_6 -->
<g id="node14" class="node"><title>440_6</title>
<ellipse fill="#66cdaa" stroke="black" cx="566.5" cy="-239.317" rx="35.2113" ry="16.0303"/>
<text text-anchor="middle" x="566.5" y="-235.617" font-family="Times,serif" font-size="14.00">440_6</text>
</g>
<!-- 440_1x440_2&#45;&gt;440_6 -->
<g id="edge11" class="edge"><title>440_1x440_2&#45;&gt;440_6</title>
<path fill="none" stroke="black" d="M445.635,-293.148C455.811,-288.699 500.225,-269.286 532.263,-255.282"/>
<polygon fill="black" stroke="black" points="533.996,-258.345 541.757,-251.132 531.192,-251.931 533.996,-258.345"/>
</g>
<!-- 440_99 -->
<g id="node20" class="node"><title>440_99</title>
<ellipse fill="dimgrey" stroke="black" cx="660.5" cy="-239.317" rx="40.1111" ry="16.0303"/>
<text text-anchor="middle" x="660.5" y="-235.617" font-family="Times,serif" font-size="14.00">440_99</text>
</g>
<!-- 440_1x440_2&#45;&gt;440_99 -->
<g id="edge16" class="edge"><title>440_1x440_2&#45;&gt;440_99</title>
<path fill="none" stroke="black" d="M445.87,-293.599C460.842,-290.546 543.817,-273.422 610.5,-255.581 613.656,-254.736 616.914,-253.827 620.181,-252.889"/>
<polygon fill="black" stroke="black" points="621.32,-256.202 629.924,-250.02 619.342,-249.488 621.32,-256.202"/>
</g>
<!-- 440_10 -->
<g id="node22" class="node"><title>440_10</title>
<polygon fill="#66cdaa" stroke="black" points="776,-250.817 719,-250.817 719,-227.817 776,-227.817 776,-250.817"/>
<text text-anchor="middle" x="747.5" y="-235.617" font-family="Times,serif" font-size="14.00">440_10</text>
</g>
<!-- 440_1x440_2&#45;&gt;440_10 -->
<g id="edge20" class="edge"><title>440_1x440_2&#45;&gt;440_10</title>
<path fill="none" stroke="black" d="M445.913,-293.951C465.667,-292.843 602.71,-284.314 709.5,-255.581 710.959,-255.188 712.437,-254.756 713.922,-254.292"/>
<polygon fill="black" stroke="black" points="715.384,-257.489 723.672,-250.89 713.077,-250.88 715.384,-257.489"/>
</g>
<!-- 440_9 -->
<g id="node25" class="node"><title>440_9</title>
<ellipse fill="#66cdaa" stroke="black" cx="829.5" cy="-239.317" rx="35.2113" ry="16.0303"/>
<text text-anchor="middle" x="829.5" y="-235.617" font-family="Times,serif" font-size="14.00">440_9</text>
</g>
<!-- 440_1x440_2&#45;&gt;440_9 -->
<g id="edge23" class="edge"><title>440_1x440_2&#45;&gt;440_9</title>
<path fill="none" stroke="black" d="M445.982,-294.012C468.917,-293.332 646.234,-287.163 785.5,-255.581 788.144,-254.981 790.85,-254.277 793.557,-253.505"/>
<polygon fill="black" stroke="black" points="794.745,-256.801 803.252,-250.485 792.663,-250.118 794.745,-256.801"/>
</g>
<!-- 440_1 -->
<g id="node4" class="node"><title>440_1</title>
<polygon fill="#66cdaa" stroke="black" points="429.5,-362.344 379.5,-362.344 379.5,-339.344 429.5,-339.344 429.5,-362.344"/>
<text text-anchor="middle" x="404.5" y="-347.144" font-family="Times,serif" font-size="14.00">440_1</text>
</g>
<!-- 440_1&#45;&gt;440_1x440_2 -->
<g id="edge3" class="edge"><title>440_1&#45;&gt;440_1x440_2</title>
<path fill="none" stroke="black" d="M412.205,-339.222C419.226,-329.544 429.513,-315.363 436.353,-305.933"/>
<polygon fill="black" stroke="black" points="439.358,-307.751 442.397,-297.601 433.692,-303.641 439.358,-307.751"/>
</g>
<!-- 440_16 -->
<g id="node7" class="node"><title>440_16</title>
<polygon fill="#66cdaa" stroke="black" points="57,-250.817 0,-250.817 0,-227.817 57,-227.817 57,-250.817"/>
<text text-anchor="middle" x="28.5" y="-235.617" font-family="Times,serif" font-size="14.00">440_16</text>
</g>
<!-- 440_16x440_99 -->
<g id="node8" class="node"><title>440_16x440_99</title>
<polygon fill="none" stroke="black" points="344.5,-187.054 341,-183.554 344.5,-180.054 348,-183.554 344.5,-187.054"/>
</g>
<!-- 440_16&#45;&gt;440_16x440_99 -->
<g id="edge6" class="edge"><title>440_16&#45;&gt;440_16x440_99</title>
<path fill="none" stroke="black" d="M52.3216,-227.722C56.9565,-225.955 61.8277,-224.296 66.5,-223.054 166.55,-196.462 292.018,-187.491 331.796,-185.208"/>
<polygon fill="black" stroke="black" points="332.177,-188.693 341.978,-184.668 331.806,-181.703 332.177,-188.693"/>
</g>
<!-- 440_14 -->
<g id="node9" class="node"><title>440_14</title>
<polygon fill="#66cdaa" stroke="black" points="237,-139.29 180,-139.29 180,-116.29 237,-116.29 237,-139.29"/>
<text text-anchor="middle" x="208.5" y="-124.09" font-family="Times,serif" font-size="14.00">440_14</text>
</g>
<!-- 440_16x440_99&#45;&gt;440_14 -->
<g id="edge7" class="edge"><title>440_16x440_99&#45;&gt;440_14</title>
<path fill="none" stroke="black" d="M342.629,-181.825C332.708,-177.958 285.233,-159.441 246.5,-144.054 245.662,-143.721 244.813,-143.383 243.957,-143.043"/>
<polygon fill="black" stroke="black" points="245.24,-139.786 234.655,-139.326 242.643,-146.286 245.24,-139.786"/>
</g>
<!-- 440_15 -->
<g id="node21" class="node"><title>440_15</title>
<ellipse fill="white" stroke="black" cx="295.5" cy="-127.79" rx="40.1111" ry="16.0303"/>
<text text-anchor="middle" x="295.5" y="-124.09" font-family="Times,serif" font-size="14.00">440_15</text>
</g>
<!-- 440_16x440_99&#45;&gt;440_15 -->
<g id="edge18" class="edge"><title>440_16x440_99&#45;&gt;440_15</title>
<path fill="none" stroke="black" d="M343.289,-181.225C339.383,-176.94 326.719,-163.044 315.408,-150.634"/>
<polygon fill="black" stroke="black" points="317.954,-148.231 308.631,-143.198 312.78,-152.947 317.954,-148.231"/>
</g>
<!-- 440_13 -->
<g id="node23" class="node"><title>440_13</title>
<ellipse fill="white" stroke="black" cx="394.5" cy="-127.79" rx="40.1111" ry="16.0303"/>
<text text-anchor="middle" x="394.5" y="-124.09" font-family="Times,serif" font-size="14.00">440_13</text>
</g>
<!-- 440_16x440_99&#45;&gt;440_13 -->
<g id="edge21" class="edge"><title>440_16x440_99&#45;&gt;440_13</title>
<path fill="none" stroke="black" d="M345.736,-181.225C349.721,-176.94 362.644,-163.044 374.186,-150.634"/>
<polygon fill="black" stroke="black" points="376.854,-152.904 381.101,-143.198 371.728,-148.137 376.854,-152.904"/>
</g>
<!-- 440_12 -->
<g id="node24" class="node"><title>440_12</title>
<polygon fill="#66cdaa" stroke="black" points="510,-139.29 453,-139.29 453,-116.29 510,-116.29 510,-139.29"/>
<text text-anchor="middle" x="481.5" y="-124.09" font-family="Times,serif" font-size="14.00">440_12</text>
</g>
<!-- 440_16x440_99&#45;&gt;440_12 -->
<g id="edge22" class="edge"><title>440_16x440_99&#45;&gt;440_12</title>
<path fill="none" stroke="black" d="M346.391,-181.828C356.418,-177.974 404.397,-159.51 443.5,-144.054 444.339,-143.722 445.188,-143.386 446.044,-143.046"/>
<polygon fill="black" stroke="black" points="447.356,-146.291 455.35,-139.338 444.765,-139.789 447.356,-146.291"/>
</g>
<!-- 440_18 -->
<g id="node10" class="node"><title>440_18</title>
<polygon fill="#66cdaa" stroke="black" points="593,-362.344 536,-362.344 536,-339.344 593,-339.344 593,-362.344"/>
<text text-anchor="middle" x="564.5" y="-347.144" font-family="Times,serif" font-size="14.00">440_18</text>
</g>
<!-- 440_2 -->
<g id="node13" class="node"><title>440_2</title>
<ellipse fill="#66cdaa" stroke="black" cx="482.5" cy="-350.844" rx="35.2113" ry="16.0303"/>
<text text-anchor="middle" x="482.5" y="-347.144" font-family="Times,serif" font-size="14.00">440_2</text>
</g>
<!-- 440_2&#45;&gt;440_1x440_2 -->
<g id="edge10" class="edge"><title>440_2&#45;&gt;440_1x440_2</title>
<path fill="none" stroke="black" d="M471.843,-335.153C465.069,-325.814 456.488,-313.985 450.552,-305.802"/>
<polygon fill="black" stroke="black" points="453.351,-303.7 444.646,-297.661 447.685,-307.81 453.351,-303.7"/>
</g>
<!-- 440_19 -->
<g id="node15" class="node"><title>440_19</title>
<polygon fill="#66cdaa" stroke="black" points="156,-27.7635 99,-27.7635 99,-4.76346 156,-4.76346 156,-27.7635"/>
<text text-anchor="middle" x="127.5" y="-12.5635" font-family="Times,serif" font-size="14.00">440_19</text>
</g>
<!-- 440_17x440_15 -->
<g id="node16" class="node"><title>440_17x440_15</title>
<polygon fill="none" stroke="black" points="214.5,-75.5269 211,-72.0269 214.5,-68.5269 218,-72.0269 214.5,-75.5269"/>
</g>
<!-- 440_17x440_15&#45;&gt;440_19 -->
<g id="edge12" class="edge"><title>440_17x440_15&#45;&gt;440_19</title>
<path fill="none" stroke="black" d="M212.683,-69.904C205.134,-65.2388 175.606,-46.9916 153.417,-33.2795"/>
<polygon fill="black" stroke="black" points="155.087,-30.1971 144.74,-27.9175 151.407,-36.1518 155.087,-30.1971"/>
</g>
<!-- 440_20 -->
<g id="node17" class="node"><title>440_20</title>
<ellipse fill="#66cdaa" stroke="black" cx="214.5" cy="-16.2635" rx="40.1111" ry="16.0303"/>
<text text-anchor="middle" x="214.5" y="-12.5635" font-family="Times,serif" font-size="14.00">440_20</text>
</g>
<!-- 440_17x440_15&#45;&gt;440_20 -->
<g id="edge13" class="edge"><title>440_17x440_15&#45;&gt;440_20</title>
<path fill="none" stroke="black" d="M214.5,-68.4338C214.5,-63.6514 214.5,-52.9811 214.5,-42.6151"/>
<polygon fill="black" stroke="black" points="218,-42.5799 214.5,-32.58 211,-42.58 218,-42.5799"/>
</g>
<!-- 440_21 -->
<g id="node18" class="node"><title>440_21</title>
<polygon fill="#66cdaa" stroke="black" points="330,-27.7635 273,-27.7635 273,-4.76346 330,-4.76346 330,-27.7635"/>
<text text-anchor="middle" x="301.5" y="-12.5635" font-family="Times,serif" font-size="14.00">440_21</text>
</g>
<!-- 440_17x440_15&#45;&gt;440_21 -->
<g id="edge14" class="edge"><title>440_17x440_15&#45;&gt;440_21</title>
<path fill="none" stroke="black" d="M216.317,-69.904C223.866,-65.2388 253.394,-46.9916 275.583,-33.2795"/>
<polygon fill="black" stroke="black" points="277.593,-36.1518 284.26,-27.9175 273.913,-30.1971 277.593,-36.1518"/>
</g>
<!-- 440_17 -->
<g id="node19" class="node"><title>440_17</title>
<polygon fill="#66cdaa" stroke="black" points="162,-139.29 105,-139.29 105,-116.29 162,-116.29 162,-139.29"/>
<text text-anchor="middle" x="133.5" y="-124.09" font-family="Times,serif" font-size="14.00">440_17</text>
</g>
<!-- 440_17&#45;&gt;440_17x440_15 -->
<g id="edge15" class="edge"><title>440_17&#45;&gt;440_17x440_15</title>
<path fill="none" stroke="black" d="M149.503,-116.168C165.64,-105.458 190.088,-89.2305 203.943,-80.034"/>
<polygon fill="black" stroke="black" points="206.279,-82.6843 212.675,-74.238 202.408,-76.8521 206.279,-82.6843"/>
</g>
<!-- 440_99&#45;&gt;440_16x440_99 -->
<g id="edge17" class="edge"><title>440_99&#45;&gt;440_16x440_99</title>
<path fill="none" stroke="black" d="M630.557,-228.365C623.997,-226.413 617.054,-224.52 610.5,-223.054 514.367,-201.556 395.895,-189.333 357.301,-185.707"/>
<polygon fill="black" stroke="black" points="357.426,-182.204 347.149,-184.782 356.79,-189.175 357.426,-182.204"/>
</g>
<!-- 440_15&#45;&gt;440_17x440_15 -->
<g id="edge19" class="edge"><title>440_15&#45;&gt;440_17x440_15</title>
<path fill="none" stroke="black" d="M275.478,-113.501C259.408,-102.835 237.503,-88.2951 224.793,-79.8587"/>
<polygon fill="black" stroke="black" points="226.404,-76.7271 216.136,-74.113 222.532,-82.5593 226.404,-76.7271"/>
</g>
</g>
</svg>
