<?xml version="1.0" encoding="UTF-8" standalone="no"?>
<!DOCTYPE svg PUBLIC "-//W3C//DTD SVG 1.1//EN"
 "http://www.w3.org/Graphics/SVG/1.1/DTD/svg11.dtd">
<!-- Generated by graphviz version 2.38.0 (20140413.2041)
 -->
<!-- Title: %3 Pages: 1 -->
<svg width="933pt" height="264pt"
 viewBox="0.00 0.00 933.50 263.58" xmlns="http://www.w3.org/2000/svg" xmlns:xlink="http://www.w3.org/1999/xlink">
<g id="graph0" class="graph" transform="scale(1 1) rotate(0) translate(4 259.581)">
<title>%3</title>
<polygon fill="white" stroke="none" points="-4,4 -4,-259.581 929.497,-259.581 929.497,4 -4,4"/>
<!-- 25_2_38 -->
<g id="node1" class="node"><title>25_2_38</title>
<polygon fill="white" stroke="black" points="382.497,-27.7635 318.497,-27.7635 318.497,-4.76346 382.497,-4.76346 382.497,-27.7635"/>
<text text-anchor="middle" x="350.497" y="-12.5635" font-family="Times,serif" font-size="14.00">25_2_38</text>
</g>
<!-- 25_2_37ax25_2_37 -->
<g id="node2" class="node"><title>25_2_37ax25_2_37</title>
<polygon fill="none" stroke="black" points="442.497,-75.5269 438.997,-72.0269 442.497,-68.5269 445.997,-72.0269 442.497,-75.5269"/>
</g>
<!-- 25_2_37ax25_2_37&#45;&gt;25_2_38 -->
<g id="edge1" class="edge"><title>25_2_37ax25_2_37&#45;&gt;25_2_38</title>
<path fill="none" stroke="black" d="M440.901,-70.0937C433.411,-65.7168 401.125,-46.8494 377.262,-32.9043"/>
<polygon fill="black" stroke="black" points="378.998,-29.865 368.598,-27.8413 375.466,-35.9087 378.998,-29.865"/>
</g>
<!-- 25_2_39 -->
<g id="node10" class="node"><title>25_2_39</title>
<ellipse fill="white" stroke="black" cx="445.497" cy="-16.2635" rx="45.011" ry="16.0303"/>
<text text-anchor="middle" x="445.497" y="-12.5635" font-family="Times,serif" font-size="14.00">25_2_39</text>
</g>
<!-- 25_2_37ax25_2_37&#45;&gt;25_2_39 -->
<g id="edge8" class="edge"><title>25_2_37ax25_2_37&#45;&gt;25_2_39</title>
<path fill="none" stroke="black" d="M442.642,-68.4338C442.909,-63.6514 443.504,-52.9811 444.083,-42.6151"/>
<polygon fill="black" stroke="black" points="447.58,-42.7595 444.643,-32.58 440.591,-42.3694 447.58,-42.7595"/>
</g>
<!-- 25_2_28c1 -->
<g id="node3" class="node"><title>25_2_28c1</title>
<ellipse fill="white" stroke="black" cx="789.497" cy="-239.317" rx="54.3945" ry="16.0303"/>
<text text-anchor="middle" x="789.497" y="-235.617" font-family="Times,serif" font-size="14.00">25_2_28c1</text>
</g>
<!-- 25_2_28x25_2_28c1 -->
<g id="node4" class="node"><title>25_2_28x25_2_28c1</title>
<polygon fill="none" stroke="black" points="841.497,-187.054 837.997,-183.554 841.497,-180.054 844.997,-183.554 841.497,-187.054"/>
</g>
<!-- 25_2_28c1&#45;&gt;25_2_28x25_2_28c1 -->
<g id="edge2" class="edge"><title>25_2_28c1&#45;&gt;25_2_28x25_2_28c1</title>
<path fill="none" stroke="black" d="M803.982,-223.341C813.383,-213.622 825.3,-201.3 833.15,-193.185"/>
<polygon fill="black" stroke="black" points="835.829,-195.449 840.265,-185.828 830.797,-190.583 835.829,-195.449"/>
</g>
<!-- 25_2_90012 -->
<g id="node13" class="node"><title>25_2_90012</title>
<ellipse fill="#66cdaa" stroke="black" cx="841.497" cy="-127.79" rx="59.2941" ry="16.0303"/>
<text text-anchor="middle" x="841.497" y="-124.09" font-family="Times,serif" font-size="14.00">25_2_90012</text>
</g>
<!-- 25_2_28x25_2_28c1&#45;&gt;25_2_90012 -->
<g id="edge11" class="edge"><title>25_2_28x25_2_28c1&#45;&gt;25_2_90012</title>
<path fill="none" stroke="black" d="M841.497,-179.961C841.497,-175.178 841.497,-164.508 841.497,-154.142"/>
<polygon fill="black" stroke="black" points="844.998,-154.107 841.497,-144.107 837.998,-154.107 844.998,-154.107"/>
</g>
<!-- 25_2_45a -->
<g id="node5" class="node"><title>25_2_45a</title>
<ellipse fill="#66cdaa" stroke="black" cx="49.4975" cy="-127.79" rx="49.4949" ry="16.0303"/>
<text text-anchor="middle" x="49.4975" y="-124.09" font-family="Times,serif" font-size="14.00">25_2_45a</text>
</g>
<!-- 25_2_45x25_2_45a -->
<g id="node6" class="node"><title>25_2_45x25_2_45a</title>
<polygon fill="none" stroke="black" points="87.4975,-75.5269 83.9975,-72.0269 87.4975,-68.5269 90.9975,-72.0269 87.4975,-75.5269"/>
</g>
<!-- 25_2_45a&#45;&gt;25_2_45x25_2_45a -->
<g id="edge3" class="edge"><title>25_2_45a&#45;&gt;25_2_45x25_2_45a</title>
<path fill="none" stroke="black" d="M60.0826,-111.814C66.6049,-102.586 74.7852,-91.0126 80.5052,-82.9198"/>
<polygon fill="black" stroke="black" points="83.4798,-84.7751 86.3936,-74.5888 77.7635,-80.7348 83.4798,-84.7751"/>
</g>
<!-- 25_2_48 -->
<g id="node11" class="node"><title>25_2_48</title>
<ellipse fill="white" stroke="black" cx="87.4975" cy="-16.2635" rx="45.011" ry="16.0303"/>
<text text-anchor="middle" x="87.4975" y="-12.5635" font-family="Times,serif" font-size="14.00">25_2_48</text>
</g>
<!-- 25_2_45x25_2_45a&#45;&gt;25_2_48 -->
<g id="edge9" class="edge"><title>25_2_45x25_2_45a&#45;&gt;25_2_48</title>
<path fill="none" stroke="black" d="M87.4975,-68.4338C87.4975,-63.6514 87.4975,-52.9811 87.4975,-42.6151"/>
<polygon fill="black" stroke="black" points="90.9976,-42.5799 87.4975,-32.58 83.9976,-42.58 90.9976,-42.5799"/>
</g>
<!-- 25_2_45 -->
<g id="node7" class="node"><title>25_2_45</title>
<polygon fill="white" stroke="black" points="180.497,-139.29 116.497,-139.29 116.497,-116.29 180.497,-116.29 180.497,-139.29"/>
<text text-anchor="middle" x="148.497" y="-124.09" font-family="Times,serif" font-size="14.00">25_2_45</text>
</g>
<!-- 25_2_45&#45;&gt;25_2_45x25_2_45a -->
<g id="edge5" class="edge"><title>25_2_45&#45;&gt;25_2_45x25_2_45a</title>
<path fill="none" stroke="black" d="M136.446,-116.168C124.658,-105.779 106.981,-90.1991 96.408,-80.8803"/>
<polygon fill="black" stroke="black" points="98.6879,-78.2244 88.8716,-74.238 94.0594,-83.4758 98.6879,-78.2244"/>
</g>
<!-- 25_2_49x25_2_50 -->
<g id="node8" class="node"><title>25_2_49x25_2_50</title>
<polygon fill="none" stroke="black" points="440.497,-187.054 436.997,-183.554 440.497,-180.054 443.997,-183.554 440.497,-187.054"/>
</g>
<!-- 25_2_49x25_2_50&#45;&gt;25_2_45 -->
<g id="edge4" class="edge"><title>25_2_49x25_2_50&#45;&gt;25_2_45</title>
<path fill="none" stroke="black" d="M437.985,-182.365C418.545,-180.863 290.195,-170.227 189.497,-144.054 187.623,-143.567 185.715,-143.025 183.799,-142.445"/>
<polygon fill="black" stroke="black" points="184.862,-139.11 174.268,-139.293 182.664,-145.756 184.862,-139.11"/>
</g>
<!-- 25_2_37 -->
<g id="node9" class="node"><title>25_2_37</title>
<ellipse fill="white" stroke="black" cx="440.497" cy="-127.79" rx="45.011" ry="16.0303"/>
<text text-anchor="middle" x="440.497" y="-124.09" font-family="Times,serif" font-size="14.00">25_2_37</text>
</g>
<!-- 25_2_49x25_2_50&#45;&gt;25_2_37 -->
<g id="edge6" class="edge"><title>25_2_49x25_2_50&#45;&gt;25_2_37</title>
<path fill="none" stroke="black" d="M440.497,-179.961C440.497,-175.178 440.497,-164.508 440.497,-154.142"/>
<polygon fill="black" stroke="black" points="443.998,-154.107 440.497,-144.107 436.998,-154.107 443.998,-154.107"/>
</g>
<!-- 25_2_33 -->
<g id="node17" class="node"><title>25_2_33</title>
<ellipse fill="dimgrey" stroke="black" cx="331.497" cy="-127.79" rx="45.011" ry="16.0303"/>
<text text-anchor="middle" x="331.497" y="-124.09" font-family="Times,serif" font-size="14.00">25_2_33</text>
</g>
<!-- 25_2_49x25_2_50&#45;&gt;25_2_33 -->
<g id="edge14" class="edge"><title>25_2_49x25_2_50&#45;&gt;25_2_33</title>
<path fill="none" stroke="black" d="M438.606,-181.621C430.021,-177.386 393.941,-159.59 366.001,-145.809"/>
<polygon fill="black" stroke="black" points="367.406,-142.6 356.89,-141.315 364.31,-148.878 367.406,-142.6"/>
</g>
<!-- 25_2_29 -->
<g id="node18" class="node"><title>25_2_29</title>
<ellipse fill="dimgrey" stroke="black" cx="549.497" cy="-127.79" rx="45.011" ry="16.0303"/>
<text text-anchor="middle" x="549.497" y="-124.09" font-family="Times,serif" font-size="14.00">25_2_29</text>
</g>
<!-- 25_2_49x25_2_50&#45;&gt;25_2_29 -->
<g id="edge16" class="edge"><title>25_2_49x25_2_50&#45;&gt;25_2_29</title>
<path fill="none" stroke="black" d="M442.389,-181.621C450.974,-177.386 487.054,-159.59 514.993,-145.809"/>
<polygon fill="black" stroke="black" points="516.685,-148.878 524.105,-141.315 513.588,-142.6 516.685,-148.878"/>
</g>
<!-- 25_2_25 -->
<g id="node20" class="node"><title>25_2_25</title>
<polygon fill="dimgrey" stroke="black" points="676.497,-139.29 612.497,-139.29 612.497,-116.29 676.497,-116.29 676.497,-139.29"/>
<text text-anchor="middle" x="644.497" y="-124.09" font-family="Times,serif" font-size="14.00">25_2_25</text>
</g>
<!-- 25_2_49x25_2_50&#45;&gt;25_2_25 -->
<g id="edge18" class="edge"><title>25_2_49x25_2_50&#45;&gt;25_2_25</title>
<path fill="none" stroke="black" d="M442.824,-182.118C457.522,-179.341 538.936,-163.613 603.497,-144.054 604.951,-143.613 606.428,-143.149 607.916,-142.666"/>
<polygon fill="black" stroke="black" points="609.431,-145.846 617.754,-139.291 607.16,-139.225 609.431,-145.846"/>
</g>
<!-- 25_2_37&#45;&gt;25_2_37ax25_2_37 -->
<g id="edge7" class="edge"><title>25_2_37&#45;&gt;25_2_37ax25_2_37</title>
<path fill="none" stroke="black" d="M441.065,-111.528C441.367,-103.413 441.734,-93.5502 442.021,-85.8383"/>
<polygon fill="black" stroke="black" points="445.528,-85.7026 442.403,-75.5794 438.533,-85.4423 445.528,-85.7026"/>
</g>
<!-- 25_2_50 -->
<g id="node12" class="node"><title>25_2_50</title>
<ellipse fill="#66cdaa" stroke="black" cx="393.497" cy="-239.317" rx="45.011" ry="16.0303"/>
<text text-anchor="middle" x="393.497" y="-235.617" font-family="Times,serif" font-size="14.00">25_2_50</text>
</g>
<!-- 25_2_50&#45;&gt;25_2_49x25_2_50 -->
<g id="edge10" class="edge"><title>25_2_50&#45;&gt;25_2_49x25_2_50</title>
<path fill="none" stroke="black" d="M406.34,-223.626C414.688,-214.077 425.311,-201.925 432.477,-193.729"/>
<polygon fill="black" stroke="black" points="435.17,-195.966 439.116,-186.134 429.9,-191.359 435.17,-195.966"/>
</g>
<!-- 25_2_36 -->
<g id="node14" class="node"><title>25_2_36</title>
<ellipse fill="white" stroke="black" cx="244.497" cy="-16.2635" rx="45.011" ry="16.0303"/>
<text text-anchor="middle" x="244.497" y="-12.5635" font-family="Times,serif" font-size="14.00">25_2_36</text>
</g>
<!-- 25_2_33ax25_2_33 -->
<g id="node15" class="node"><title>25_2_33ax25_2_33</title>
<polygon fill="none" stroke="black" points="244.497,-75.5269 240.997,-72.0269 244.497,-68.5269 247.997,-72.0269 244.497,-75.5269"/>
</g>
<!-- 25_2_33ax25_2_33&#45;&gt;25_2_36 -->
<g id="edge12" class="edge"><title>25_2_33ax25_2_33&#45;&gt;25_2_36</title>
<path fill="none" stroke="black" d="M244.497,-68.4338C244.497,-63.6514 244.497,-52.9811 244.497,-42.6151"/>
<polygon fill="black" stroke="black" points="247.998,-42.5799 244.497,-32.58 240.998,-42.58 247.998,-42.5799"/>
</g>
<!-- 25_2_33a -->
<g id="node16" class="node"><title>25_2_33a</title>
<polygon fill="#66cdaa" stroke="black" points="268.497,-139.29 198.497,-139.29 198.497,-116.29 268.497,-116.29 268.497,-139.29"/>
<text text-anchor="middle" x="233.497" y="-124.09" font-family="Times,serif" font-size="14.00">25_2_33a</text>
</g>
<!-- 25_2_33a&#45;&gt;25_2_33ax25_2_33 -->
<g id="edge13" class="edge"><title>25_2_33a&#45;&gt;25_2_33ax25_2_33</title>
<path fill="none" stroke="black" d="M235.671,-116.168C237.496,-107.248 240.104,-94.5009 242.012,-85.176"/>
<polygon fill="black" stroke="black" points="245.465,-85.7609 244.04,-75.2622 238.607,-84.3577 245.465,-85.7609"/>
</g>
<!-- 25_2_33&#45;&gt;25_2_33ax25_2_33 -->
<g id="edge15" class="edge"><title>25_2_33&#45;&gt;25_2_33ax25_2_33</title>
<path fill="none" stroke="black" d="M309.544,-113.224C292.102,-102.445 268.476,-87.8452 255.026,-79.5329"/>
<polygon fill="black" stroke="black" points="256.582,-76.3805 246.235,-74.1009 252.902,-82.3352 256.582,-76.3805"/>
</g>
<!-- 25_2_28 -->
<g id="node19" class="node"><title>25_2_28</title>
<polygon fill="dimgrey" stroke="black" points="925.497,-250.817 861.497,-250.817 861.497,-227.817 925.497,-227.817 925.497,-250.817"/>
<text text-anchor="middle" x="893.497" y="-235.617" font-family="Times,serif" font-size="14.00">25_2_28</text>
</g>
<!-- 25_2_28&#45;&gt;25_2_28x25_2_28c1 -->
<g id="edge17" class="edge"><title>25_2_28&#45;&gt;25_2_28x25_2_28c1</title>
<path fill="none" stroke="black" d="M883.224,-227.695C873.558,-217.702 859.248,-202.906 850.149,-193.499"/>
<polygon fill="black" stroke="black" points="852.436,-190.829 842.968,-186.074 847.405,-195.696 852.436,-190.829"/>
</g>
<!-- 25_2_49 -->
<g id="node21" class="node"><title>25_2_49</title>
<polygon fill="#66cdaa" stroke="black" points="520.497,-250.817 456.497,-250.817 456.497,-227.817 520.497,-227.817 520.497,-250.817"/>
<text text-anchor="middle" x="488.497" y="-235.617" font-family="Times,serif" font-size="14.00">25_2_49</text>
</g>
<!-- 25_2_49&#45;&gt;25_2_49x25_2_50 -->
<g id="edge19" class="edge"><title>25_2_49&#45;&gt;25_2_49x25_2_50</title>
<path fill="none" stroke="black" d="M479.014,-227.695C470.186,-217.807 457.16,-203.217 448.751,-193.798"/>
<polygon fill="black" stroke="black" points="451.126,-191.203 441.855,-186.074 445.904,-195.865 451.126,-191.203"/>
</g>
<!-- 25_2_37a -->
<g id="node22" class="node"><title>25_2_37a</title>
<polygon fill="#66cdaa" stroke="black" points="764.497,-139.29 694.497,-139.29 694.497,-116.29 764.497,-116.29 764.497,-139.29"/>
<text text-anchor="middle" x="729.497" y="-124.09" font-family="Times,serif" font-size="14.00">25_2_37a</text>
</g>
<!-- 25_2_37a&#45;&gt;25_2_37ax25_2_37 -->
<g id="edge20" class="edge"><title>25_2_37a&#45;&gt;25_2_37ax25_2_37</title>
<path fill="none" stroke="black" d="M701.317,-116.191C696.106,-114.467 690.674,-112.824 685.497,-111.527 598.793,-89.801 491.464,-77.8683 455.167,-74.2355"/>
<polygon fill="black" stroke="black" points="455.215,-70.7239 444.925,-73.2465 454.542,-77.6915 455.215,-70.7239"/>
</g>
</g>
</svg>
