<?xml version="1.0" encoding="UTF-8" standalone="no"?>
<!DOCTYPE svg PUBLIC "-//W3C//DTD SVG 1.1//EN"
 "http://www.w3.org/Graphics/SVG/1.1/DTD/svg11.dtd">
<!-- Generated by graphviz version 2.38.0 (20140413.2041)
 -->
<!-- Title: %3 Pages: 1 -->
<svg width="3679pt" height="264pt"
 viewBox="0.00 0.00 3679.25 263.58" xmlns="http://www.w3.org/2000/svg" xmlns:xlink="http://www.w3.org/1999/xlink">
<g id="graph0" class="graph" transform="scale(1 1) rotate(0) translate(4 259.581)">
<title>%3</title>
<polygon fill="white" stroke="none" points="-4,4 -4,-259.581 3675.25,-259.581 3675.25,4 -4,4"/>
<!-- 1563_4 -->
<g id="node1" class="node"><title>1563_4</title>
<polygon fill="#66cdaa" stroke="black" points="602.5,-139.29 545.5,-139.29 545.5,-116.29 602.5,-116.29 602.5,-139.29"/>
<text text-anchor="middle" x="574" y="-124.09" font-family="Times,serif" font-size="14.00">1563_4</text>
</g>
<!-- 1563_1x1563_2 -->
<g id="node2" class="node"><title>1563_1x1563_2</title>
<polygon fill="none" stroke="black" points="456,-187.054 452.5,-183.554 456,-180.054 459.5,-183.554 456,-187.054"/>
</g>
<!-- 1563_1x1563_2&#45;&gt;1563_4 -->
<g id="edge1" class="edge"><title>1563_1x1563_2&#45;&gt;1563_4</title>
<path fill="none" stroke="black" d="M458.048,-181.621C467.866,-177.147 510.905,-157.538 541.678,-143.517"/>
<polygon fill="black" stroke="black" points="543.135,-146.699 550.784,-139.368 540.233,-140.329 543.135,-146.699"/>
</g>
<!-- 1563_5 -->
<g id="node7" class="node"><title>1563_5</title>
<polygon fill="#66cdaa" stroke="black" points="108.5,-139.29 51.5,-139.29 51.5,-116.29 108.5,-116.29 108.5,-139.29"/>
<text text-anchor="middle" x="80" y="-124.09" font-family="Times,serif" font-size="14.00">1563_5</text>
</g>
<!-- 1563_1x1563_2&#45;&gt;1563_5 -->
<g id="edge5" class="edge"><title>1563_1x1563_2&#45;&gt;1563_5</title>
<path fill="none" stroke="black" d="M453.243,-182.521C429.303,-182.176 254.273,-178.514 118,-144.054 116.341,-143.634 114.659,-143.159 112.972,-142.642"/>
<polygon fill="black" stroke="black" points="113.984,-139.289 103.389,-139.322 111.693,-145.903 113.984,-139.289"/>
</g>
<!-- 1563_6 -->
<g id="node21" class="node"><title>1563_6</title>
<ellipse fill="dimgrey" stroke="black" cx="412" cy="-127.79" rx="40.1111" ry="16.0303"/>
<text text-anchor="middle" x="412" y="-124.09" font-family="Times,serif" font-size="14.00">1563_6</text>
</g>
<!-- 1563_1x1563_2&#45;&gt;1563_6 -->
<g id="edge16" class="edge"><title>1563_1x1563_2&#45;&gt;1563_6</title>
<path fill="none" stroke="black" d="M454.536,-180.765C450.732,-176.117 440.157,-163.196 430.504,-151.401"/>
<polygon fill="black" stroke="black" points="433.105,-149.052 424.063,-143.53 427.688,-153.486 433.105,-149.052"/>
</g>
<!-- 1563_7 -->
<g id="node24" class="node"><title>1563_7</title>
<ellipse fill="dimgrey" stroke="black" cx="313" cy="-127.79" rx="40.1111" ry="16.0303"/>
<text text-anchor="middle" x="313" y="-124.09" font-family="Times,serif" font-size="14.00">1563_7</text>
</g>
<!-- 1563_1x1563_2&#45;&gt;1563_7 -->
<g id="edge19" class="edge"><title>1563_1x1563_2&#45;&gt;1563_7</title>
<path fill="none" stroke="black" d="M453.979,-181.794C442.916,-177.635 388.824,-157.298 350.959,-143.062"/>
<polygon fill="black" stroke="black" points="351.831,-139.65 341.239,-139.407 349.367,-146.203 351.831,-139.65"/>
</g>
<!-- 1563_99 -->
<g id="node45" class="node"><title>1563_99</title>
<polygon fill="dimgrey" stroke="black" points="1476,-139.29 1412,-139.29 1412,-116.29 1476,-116.29 1476,-139.29"/>
<text text-anchor="middle" x="1444" y="-124.09" font-family="Times,serif" font-size="14.00">1563_99</text>
</g>
<!-- 1563_1x1563_2&#45;&gt;1563_99 -->
<g id="edge40" class="edge"><title>1563_1x1563_2&#45;&gt;1563_99</title>
<path fill="none" stroke="black" d="M458.494,-182.418C506.047,-179.83 1219.62,-141 1401.87,-131.083"/>
<polygon fill="black" stroke="black" points="1402.08,-134.577 1411.88,-130.538 1401.7,-127.587 1402.08,-134.577"/>
</g>
<!-- 1563_3 -->
<g id="node47" class="node"><title>1563_3</title>
<polygon fill="dimgrey" stroke="black" points="527.5,-139.29 470.5,-139.29 470.5,-116.29 527.5,-116.29 527.5,-139.29"/>
<text text-anchor="middle" x="499" y="-124.09" font-family="Times,serif" font-size="14.00">1563_3</text>
</g>
<!-- 1563_1x1563_2&#45;&gt;1563_3 -->
<g id="edge43" class="edge"><title>1563_1x1563_2&#45;&gt;1563_3</title>
<path fill="none" stroke="black" d="M457.431,-180.765C461.591,-175.564 474.034,-160.005 484.231,-147.256"/>
<polygon fill="black" stroke="black" points="486.985,-149.416 490.498,-139.42 481.519,-145.044 486.985,-149.416"/>
</g>
<!-- 1563_44 -->
<g id="node3" class="node"><title>1563_44</title>
<ellipse fill="white" stroke="black" cx="3626" cy="-16.2635" rx="45.011" ry="16.0303"/>
<text text-anchor="middle" x="3626" y="-12.5635" font-family="Times,serif" font-size="14.00">1563_44</text>
</g>
<!-- 1563_40x1563_38 -->
<g id="node4" class="node"><title>1563_40x1563_38</title>
<polygon fill="none" stroke="black" points="3272,-75.5269 3268.5,-72.0269 3272,-68.5269 3275.5,-72.0269 3272,-75.5269"/>
</g>
<!-- 1563_40x1563_38&#45;&gt;1563_44 -->
<g id="edge2" class="edge"><title>1563_40x1563_38&#45;&gt;1563_44</title>
<path fill="none" stroke="black" d="M3274.42,-70.8486C3295.4,-69.2727 3448.9,-57.1987 3571,-32.5269 3574.88,-31.7434 3578.88,-30.833 3582.88,-29.8544"/>
<polygon fill="black" stroke="black" points="3583.93,-33.2001 3592.74,-27.3149 3582.18,-26.4216 3583.93,-33.2001"/>
</g>
<!-- 1563_45 -->
<g id="node23" class="node"><title>1563_45</title>
<polygon fill="#66cdaa" stroke="black" points="3046,-27.7635 2982,-27.7635 2982,-4.76346 3046,-4.76346 3046,-27.7635"/>
<text text-anchor="middle" x="3014" y="-12.5635" font-family="Times,serif" font-size="14.00">1563_45</text>
</g>
<!-- 1563_40x1563_38&#45;&gt;1563_45 -->
<g id="edge18" class="edge"><title>1563_40x1563_38&#45;&gt;1563_45</title>
<path fill="none" stroke="black" d="M3269.38,-70.7442C3251.15,-68.7391 3141.38,-56.0618 3055,-32.5269 3053.34,-32.074 3051.65,-31.5814 3049.95,-31.0598"/>
<polygon fill="black" stroke="black" points="3050.83,-27.6648 3040.24,-27.8289 3048.62,-34.3069 3050.83,-27.6648"/>
</g>
<!-- 1563_47 -->
<g id="node39" class="node"><title>1563_47</title>
<ellipse fill="#66cdaa" stroke="black" cx="3109" cy="-16.2635" rx="45.011" ry="16.0303"/>
<text text-anchor="middle" x="3109" y="-12.5635" font-family="Times,serif" font-size="14.00">1563_47</text>
</g>
<!-- 1563_40x1563_38&#45;&gt;1563_47 -->
<g id="edge34" class="edge"><title>1563_40x1563_38&#45;&gt;1563_47</title>
<path fill="none" stroke="black" d="M3269.94,-70.3471C3257.77,-66.3325 3194.33,-45.4087 3150.83,-31.0612"/>
<polygon fill="black" stroke="black" points="3151.66,-27.6478 3141.06,-27.8393 3149.46,-34.2956 3151.66,-27.6478"/>
</g>
<!-- 1563_46 -->
<g id="node40" class="node"><title>1563_46</title>
<ellipse fill="#66cdaa" stroke="black" cx="3218" cy="-16.2635" rx="45.011" ry="16.0303"/>
<text text-anchor="middle" x="3218" y="-12.5635" font-family="Times,serif" font-size="14.00">1563_46</text>
</g>
<!-- 1563_40x1563_38&#45;&gt;1563_46 -->
<g id="edge35" class="edge"><title>1563_40x1563_38&#45;&gt;1563_46</title>
<path fill="none" stroke="black" d="M3270.67,-69.6979C3266.35,-65.3994 3252.32,-51.43 3239.82,-38.9906"/>
<polygon fill="black" stroke="black" points="3242.29,-36.5032 3232.73,-31.9279 3237.35,-41.4638 3242.29,-36.5032"/>
</g>
<!-- 1563_42 -->
<g id="node41" class="node"><title>1563_42</title>
<ellipse fill="#66cdaa" stroke="black" cx="3327" cy="-16.2635" rx="45.011" ry="16.0303"/>
<text text-anchor="middle" x="3327" y="-12.5635" font-family="Times,serif" font-size="14.00">1563_42</text>
</g>
<!-- 1563_40x1563_38&#45;&gt;1563_42 -->
<g id="edge36" class="edge"><title>1563_40x1563_38&#45;&gt;1563_42</title>
<path fill="none" stroke="black" d="M3273.36,-69.6979C3277.78,-65.3724 3292.23,-51.2539 3305.01,-38.7561"/>
<polygon fill="black" stroke="black" points="3307.56,-41.1642 3312.26,-31.6711 3302.66,-36.1585 3307.56,-41.1642"/>
</g>
<!-- 1563_41 -->
<g id="node42" class="node"><title>1563_41</title>
<polygon fill="#66cdaa" stroke="black" points="3454,-27.7635 3390,-27.7635 3390,-4.76346 3454,-4.76346 3454,-27.7635"/>
<text text-anchor="middle" x="3422" y="-12.5635" font-family="Times,serif" font-size="14.00">1563_41</text>
</g>
<!-- 1563_40x1563_38&#45;&gt;1563_41 -->
<g id="edge37" class="edge"><title>1563_40x1563_38&#45;&gt;1563_41</title>
<path fill="none" stroke="black" d="M3274.08,-70.3059C3285.13,-66.4787 3337.98,-48.1295 3381,-32.5269 3382.04,-32.1514 3383.08,-31.7694 3384.14,-31.383"/>
<polygon fill="black" stroke="black" points="3385.61,-34.5716 3393.79,-27.8358 3383.2,-28.0015 3385.61,-34.5716"/>
</g>
<!-- 1563_43 -->
<g id="node61" class="node"><title>1563_43</title>
<ellipse fill="dimgrey" stroke="black" cx="3517" cy="-16.2635" rx="45.011" ry="16.0303"/>
<text text-anchor="middle" x="3517" y="-12.5635" font-family="Times,serif" font-size="14.00">1563_43</text>
</g>
<!-- 1563_40x1563_38&#45;&gt;1563_43 -->
<g id="edge60" class="edge"><title>1563_40x1563_38&#45;&gt;1563_43</title>
<path fill="none" stroke="black" d="M3274.28,-70.6349C3290.19,-67.8907 3386.06,-51.1258 3463,-32.5269 3466.42,-31.7007 3469.95,-30.804 3473.48,-29.8732"/>
<polygon fill="black" stroke="black" points="3474.66,-33.18 3483.4,-27.1897 3472.84,-26.4229 3474.66,-33.18"/>
</g>
<!-- 1563_1 -->
<g id="node5" class="node"><title>1563_1</title>
<polygon fill="#66cdaa" stroke="black" points="441.5,-250.817 384.5,-250.817 384.5,-227.817 441.5,-227.817 441.5,-250.817"/>
<text text-anchor="middle" x="413" y="-235.617" font-family="Times,serif" font-size="14.00">1563_1</text>
</g>
<!-- 1563_1&#45;&gt;1563_1x1563_2 -->
<g id="edge3" class="edge"><title>1563_1&#45;&gt;1563_1x1563_2</title>
<path fill="none" stroke="black" d="M421.495,-227.695C429.32,-217.912 440.825,-203.527 448.365,-194.1"/>
<polygon fill="black" stroke="black" points="451.271,-196.07 454.784,-186.074 445.804,-191.698 451.271,-196.07"/>
</g>
<!-- 1563_2 -->
<g id="node6" class="node"><title>1563_2</title>
<ellipse fill="#66cdaa" stroke="black" cx="500" cy="-239.317" rx="40.1111" ry="16.0303"/>
<text text-anchor="middle" x="500" y="-235.617" font-family="Times,serif" font-size="14.00">1563_2</text>
</g>
<!-- 1563_2&#45;&gt;1563_1x1563_2 -->
<g id="edge4" class="edge"><title>1563_2&#45;&gt;1563_1x1563_2</title>
<path fill="none" stroke="black" d="M487.977,-223.626C480.248,-214.182 470.435,-202.192 463.731,-194"/>
<polygon fill="black" stroke="black" points="466.335,-191.656 457.293,-186.134 460.918,-196.089 466.335,-191.656"/>
</g>
<!-- 1563_29 -->
<g id="node8" class="node"><title>1563_29</title>
<ellipse fill="#66cdaa" stroke="black" cx="1541" cy="-16.2635" rx="45.011" ry="16.0303"/>
<text text-anchor="middle" x="1541" y="-12.5635" font-family="Times,serif" font-size="14.00">1563_29</text>
</g>
<!-- 1563_99x1563_8 -->
<g id="node9" class="node"><title>1563_99x1563_8</title>
<polygon fill="none" stroke="black" points="1677,-75.5269 1673.5,-72.0269 1677,-68.5269 1680.5,-72.0269 1677,-75.5269"/>
</g>
<!-- 1563_99x1563_8&#45;&gt;1563_29 -->
<g id="edge6" class="edge"><title>1563_99x1563_8&#45;&gt;1563_29</title>
<path fill="none" stroke="black" d="M1675.08,-70.2669C1664.84,-66.2187 1615.83,-46.845 1580.02,-32.6875"/>
<polygon fill="black" stroke="black" points="1580.9,-29.2712 1570.31,-28.8497 1578.32,-35.781 1580.9,-29.2712"/>
</g>
<!-- 1563_13 -->
<g id="node10" class="node"><title>1563_13</title>
<polygon fill="#66cdaa" stroke="black" points="1668,-27.7635 1604,-27.7635 1604,-4.76346 1668,-4.76346 1668,-27.7635"/>
<text text-anchor="middle" x="1636" y="-12.5635" font-family="Times,serif" font-size="14.00">1563_13</text>
</g>
<!-- 1563_99x1563_8&#45;&gt;1563_13 -->
<g id="edge7" class="edge"><title>1563_99x1563_8&#45;&gt;1563_13</title>
<path fill="none" stroke="black" d="M1675.64,-69.2381C1671.71,-64.0863 1660.03,-48.7736 1650.36,-36.0939"/>
<polygon fill="black" stroke="black" points="1652.95,-33.7227 1644.11,-27.8934 1647.39,-37.9675 1652.95,-33.7227"/>
</g>
<!-- 1563_15 -->
<g id="node11" class="node"><title>1563_15</title>
<polygon fill="#66cdaa" stroke="black" points="1750,-27.7635 1686,-27.7635 1686,-4.76346 1750,-4.76346 1750,-27.7635"/>
<text text-anchor="middle" x="1718" y="-12.5635" font-family="Times,serif" font-size="14.00">1563_15</text>
</g>
<!-- 1563_99x1563_8&#45;&gt;1563_15 -->
<g id="edge8" class="edge"><title>1563_99x1563_8&#45;&gt;1563_15</title>
<path fill="none" stroke="black" d="M1678.36,-69.2381C1682.29,-64.0863 1693.97,-48.7736 1703.64,-36.0939"/>
<polygon fill="black" stroke="black" points="1706.61,-37.9675 1709.89,-27.8934 1701.05,-33.7227 1706.61,-37.9675"/>
</g>
<!-- 1563_12 -->
<g id="node20" class="node"><title>1563_12</title>
<ellipse fill="#66cdaa" stroke="black" cx="1813" cy="-16.2635" rx="45.011" ry="16.0303"/>
<text text-anchor="middle" x="1813" y="-12.5635" font-family="Times,serif" font-size="14.00">1563_12</text>
</g>
<!-- 1563_99x1563_8&#45;&gt;1563_12 -->
<g id="edge15" class="edge"><title>1563_99x1563_8&#45;&gt;1563_12</title>
<path fill="none" stroke="black" d="M1678.92,-70.2669C1689.16,-66.2187 1738.17,-46.845 1773.98,-32.6875"/>
<polygon fill="black" stroke="black" points="1775.68,-35.781 1783.69,-28.8497 1773.1,-29.2712 1775.68,-35.781"/>
</g>
<!-- 1563_9 -->
<g id="node26" class="node"><title>1563_9</title>
<ellipse fill="white" stroke="black" cx="1917" cy="-16.2635" rx="40.1111" ry="16.0303"/>
<text text-anchor="middle" x="1917" y="-12.5635" font-family="Times,serif" font-size="14.00">1563_9</text>
</g>
<!-- 1563_99x1563_8&#45;&gt;1563_9 -->
<g id="edge21" class="edge"><title>1563_99x1563_8&#45;&gt;1563_9</title>
<path fill="none" stroke="black" d="M1679.28,-70.6513C1695.13,-68.0181 1790.66,-51.8668 1867,-32.5269 1870.21,-31.7134 1873.52,-30.8216 1876.84,-29.8904"/>
<polygon fill="black" stroke="black" points="1878.1,-33.1699 1886.72,-27.0171 1876.14,-26.4482 1878.1,-33.1699"/>
</g>
<!-- 1563_10 -->
<g id="node27" class="node"><title>1563_10</title>
<polygon fill="dimgrey" stroke="black" points="2039,-27.7635 1975,-27.7635 1975,-4.76346 2039,-4.76346 2039,-27.7635"/>
<text text-anchor="middle" x="2007" y="-12.5635" font-family="Times,serif" font-size="14.00">1563_10</text>
</g>
<!-- 1563_99x1563_8&#45;&gt;1563_10 -->
<g id="edge22" class="edge"><title>1563_99x1563_8&#45;&gt;1563_10</title>
<path fill="none" stroke="black" d="M1679.62,-70.9019C1701.03,-69.8331 1849.6,-61.5559 1966,-32.5269 1967.88,-32.0582 1969.79,-31.5315 1971.71,-30.9629"/>
<polygon fill="black" stroke="black" points="1972.83,-34.2787 1981.25,-27.8461 1970.66,-27.6249 1972.83,-34.2787"/>
</g>
<!-- 1563_14 -->
<g id="node51" class="node"><title>1563_14</title>
<polygon fill="white" stroke="black" points="1369,-27.7635 1305,-27.7635 1305,-4.76346 1369,-4.76346 1369,-27.7635"/>
<text text-anchor="middle" x="1337" y="-12.5635" font-family="Times,serif" font-size="14.00">1563_14</text>
</g>
<!-- 1563_99x1563_8&#45;&gt;1563_14 -->
<g id="edge48" class="edge"><title>1563_99x1563_8&#45;&gt;1563_14</title>
<path fill="none" stroke="black" d="M1674.57,-70.9258C1653.44,-70.0048 1498.93,-62.405 1378,-32.5269 1376.12,-32.0624 1374.21,-31.5389 1372.29,-30.9729"/>
<polygon fill="black" stroke="black" points="1373.34,-27.6342 1362.75,-27.8639 1371.17,-34.2898 1373.34,-27.6342"/>
</g>
<!-- 1563_11 -->
<g id="node60" class="node"><title>1563_11</title>
<ellipse fill="white" stroke="black" cx="1432" cy="-16.2635" rx="45.011" ry="16.0303"/>
<text text-anchor="middle" x="1432" y="-12.5635" font-family="Times,serif" font-size="14.00">1563_11</text>
</g>
<!-- 1563_99x1563_8&#45;&gt;1563_11 -->
<g id="edge59" class="edge"><title>1563_99x1563_8&#45;&gt;1563_11</title>
<path fill="none" stroke="black" d="M1674.73,-70.6296C1658.91,-67.85 1563.59,-50.8889 1487,-32.5269 1483.37,-31.6555 1479.61,-30.7095 1475.84,-29.7298"/>
<polygon fill="black" stroke="black" points="1476.5,-26.283 1465.94,-27.086 1474.7,-33.0462 1476.5,-26.283"/>
</g>
<!-- 1563_49 -->
<g id="node12" class="node"><title>1563_49</title>
<polygon fill="white" stroke="black" points="2338,-27.7635 2274,-27.7635 2274,-4.76346 2338,-4.76346 2338,-27.7635"/>
<text text-anchor="middle" x="2306" y="-12.5635" font-family="Times,serif" font-size="14.00">1563_49</text>
</g>
<!-- 1563_31x1563_33 -->
<g id="node13" class="node"><title>1563_31x1563_33</title>
<polygon fill="none" stroke="black" points="2530,-75.5269 2526.5,-72.0269 2530,-68.5269 2533.5,-72.0269 2530,-75.5269"/>
</g>
<!-- 1563_31x1563_33&#45;&gt;1563_49 -->
<g id="edge9" class="edge"><title>1563_31x1563_33&#45;&gt;1563_49</title>
<path fill="none" stroke="black" d="M2527.79,-70.691C2512.44,-68.3261 2419.97,-53.6585 2347,-32.5269 2345.54,-32.1044 2344.06,-31.6547 2342.57,-31.1847"/>
<polygon fill="black" stroke="black" points="2343.31,-27.7407 2332.71,-27.8603 2341.07,-34.3735 2343.31,-27.7407"/>
</g>
<!-- 1563_56 -->
<g id="node31" class="node"><title>1563_56</title>
<polygon fill="#66cdaa" stroke="black" points="2420,-27.7635 2356,-27.7635 2356,-4.76346 2420,-4.76346 2420,-27.7635"/>
<text text-anchor="middle" x="2388" y="-12.5635" font-family="Times,serif" font-size="14.00">1563_56</text>
</g>
<!-- 1563_31x1563_33&#45;&gt;1563_56 -->
<g id="edge26" class="edge"><title>1563_31x1563_33&#45;&gt;1563_56</title>
<path fill="none" stroke="black" d="M2527.99,-70.2669C2517.01,-66.1077 2463.29,-45.7708 2425.69,-31.5348"/>
<polygon fill="black" stroke="black" points="2426.63,-28.148 2416.04,-27.8804 2424.15,-34.6945 2426.63,-28.148"/>
</g>
<!-- 1563_55 -->
<g id="node32" class="node"><title>1563_55</title>
<ellipse fill="#66cdaa" stroke="black" cx="2483" cy="-16.2635" rx="45.011" ry="16.0303"/>
<text text-anchor="middle" x="2483" y="-12.5635" font-family="Times,serif" font-size="14.00">1563_55</text>
</g>
<!-- 1563_31x1563_33&#45;&gt;1563_55 -->
<g id="edge27" class="edge"><title>1563_31x1563_33&#45;&gt;1563_55</title>
<path fill="none" stroke="black" d="M2528.44,-69.2381C2524.33,-64.545 2512.86,-51.4195 2502.47,-39.5339"/>
<polygon fill="black" stroke="black" points="2505.1,-37.2286 2495.89,-32.0034 2499.83,-41.8358 2505.1,-37.2286"/>
</g>
<!-- 1563_54 -->
<g id="node33" class="node"><title>1563_54</title>
<polygon fill="#66cdaa" stroke="black" points="2610,-27.7635 2546,-27.7635 2546,-4.76346 2610,-4.76346 2610,-27.7635"/>
<text text-anchor="middle" x="2578" y="-12.5635" font-family="Times,serif" font-size="14.00">1563_54</text>
</g>
<!-- 1563_31x1563_33&#45;&gt;1563_54 -->
<g id="edge28" class="edge"><title>1563_31x1563_33&#45;&gt;1563_54</title>
<path fill="none" stroke="black" d="M2531.19,-69.6979C2535.35,-65.0379 2549.66,-49.0116 2561.37,-35.8908"/>
<polygon fill="black" stroke="black" points="2564.17,-38.0149 2568.21,-28.2243 2558.94,-33.3529 2564.17,-38.0149"/>
</g>
<!-- 1563_53 -->
<g id="node34" class="node"><title>1563_53</title>
<ellipse fill="#66cdaa" stroke="black" cx="2673" cy="-16.2635" rx="45.011" ry="16.0303"/>
<text text-anchor="middle" x="2673" y="-12.5635" font-family="Times,serif" font-size="14.00">1563_53</text>
</g>
<!-- 1563_31x1563_33&#45;&gt;1563_53 -->
<g id="edge29" class="edge"><title>1563_31x1563_33&#45;&gt;1563_53</title>
<path fill="none" stroke="black" d="M2532.02,-70.2669C2542.9,-66.178 2595.36,-46.4536 2633.11,-32.2617"/>
<polygon fill="black" stroke="black" points="2634.71,-35.4001 2642.83,-28.6047 2632.24,-28.8479 2634.71,-35.4001"/>
</g>
<!-- 1563_52 -->
<g id="node35" class="node"><title>1563_52</title>
<polygon fill="white" stroke="black" points="2800,-27.7635 2736,-27.7635 2736,-4.76346 2800,-4.76346 2800,-27.7635"/>
<text text-anchor="middle" x="2768" y="-12.5635" font-family="Times,serif" font-size="14.00">1563_52</text>
</g>
<!-- 1563_31x1563_33&#45;&gt;1563_52 -->
<g id="edge30" class="edge"><title>1563_31x1563_33&#45;&gt;1563_52</title>
<path fill="none" stroke="black" d="M2532.38,-70.7129C2548.91,-68.4958 2648.51,-54.646 2727,-32.5269 2728.46,-32.1149 2729.95,-31.674 2731.44,-31.2115"/>
<polygon fill="black" stroke="black" points="2732.93,-34.4051 2741.3,-27.917 2730.71,-27.7657 2732.93,-34.4051"/>
</g>
<!-- 1563_51 -->
<g id="node36" class="node"><title>1563_51</title>
<polygon fill="#66cdaa" stroke="black" points="2882,-27.7635 2818,-27.7635 2818,-4.76346 2882,-4.76346 2882,-27.7635"/>
<text text-anchor="middle" x="2850" y="-12.5635" font-family="Times,serif" font-size="14.00">1563_51</text>
</g>
<!-- 1563_31x1563_33&#45;&gt;1563_51 -->
<g id="edge31" class="edge"><title>1563_31x1563_33&#45;&gt;1563_51</title>
<path fill="none" stroke="black" d="M2532.53,-70.8899C2553.2,-69.7258 2696.63,-60.8328 2809,-32.5269 2810.88,-32.0538 2812.79,-31.5236 2814.71,-30.9522"/>
<polygon fill="black" stroke="black" points="2815.83,-34.2669 2824.24,-27.8271 2813.65,-27.6149 2815.83,-34.2669"/>
</g>
<!-- 1563_50 -->
<g id="node37" class="node"><title>1563_50</title>
<polygon fill="#66cdaa" stroke="black" points="2964,-27.7635 2900,-27.7635 2900,-4.76346 2964,-4.76346 2964,-27.7635"/>
<text text-anchor="middle" x="2932" y="-12.5635" font-family="Times,serif" font-size="14.00">1563_50</text>
</g>
<!-- 1563_31x1563_33&#45;&gt;1563_50 -->
<g id="edge32" class="edge"><title>1563_31x1563_33&#45;&gt;1563_50</title>
<path fill="none" stroke="black" d="M2532.62,-70.997C2556.88,-70.6701 2744.37,-67.0621 2891,-32.5269 2892.94,-32.0698 2894.91,-31.546 2896.89,-30.9739"/>
<polygon fill="black" stroke="black" points="2898.28,-34.2048 2906.72,-27.797 2896.12,-27.5445 2898.28,-34.2048"/>
</g>
<!-- 1563_48 -->
<g id="node38" class="node"><title>1563_48</title>
<ellipse fill="#66cdaa" stroke="black" cx="2102" cy="-16.2635" rx="45.011" ry="16.0303"/>
<text text-anchor="middle" x="2102" y="-12.5635" font-family="Times,serif" font-size="14.00">1563_48</text>
</g>
<!-- 1563_31x1563_33&#45;&gt;1563_48 -->
<g id="edge33" class="edge"><title>1563_31x1563_33&#45;&gt;1563_48</title>
<path fill="none" stroke="black" d="M2527.31,-70.9224C2502.41,-69.9207 2309.89,-61.4194 2157,-32.5269 2153.11,-31.7923 2149.1,-30.9156 2145.1,-29.959"/>
<polygon fill="black" stroke="black" points="2145.79,-26.5244 2135.24,-27.4521 2144.07,-33.3085 2145.79,-26.5244"/>
</g>
<!-- 1563_34 -->
<g id="node52" class="node"><title>1563_34</title>
<ellipse fill="white" stroke="black" cx="2211" cy="-16.2635" rx="45.011" ry="16.0303"/>
<text text-anchor="middle" x="2211" y="-12.5635" font-family="Times,serif" font-size="14.00">1563_34</text>
</g>
<!-- 1563_31x1563_33&#45;&gt;1563_34 -->
<g id="edge49" class="edge"><title>1563_31x1563_33&#45;&gt;1563_34</title>
<path fill="none" stroke="black" d="M2527.37,-70.7772C2506.98,-68.8178 2372.31,-55.3846 2265,-32.5269 2261.41,-31.7613 2257.7,-30.89 2253.99,-29.9607"/>
<polygon fill="black" stroke="black" points="2254.81,-26.5563 2244.24,-27.3983 2253.03,-33.3262 2254.81,-26.5563"/>
</g>
<!-- 1563_17 -->
<g id="node14" class="node"><title>1563_17</title>
<ellipse fill="#66cdaa" stroke="black" cx="888" cy="-16.2635" rx="45.011" ry="16.0303"/>
<text text-anchor="middle" x="888" y="-12.5635" font-family="Times,serif" font-size="14.00">1563_17</text>
</g>
<!-- 1563_3x1563_16 -->
<g id="node15" class="node"><title>1563_3x1563_16</title>
<polygon fill="none" stroke="black" points="698,-75.5269 694.5,-72.0269 698,-68.5269 701.5,-72.0269 698,-75.5269"/>
</g>
<!-- 1563_3x1563_16&#45;&gt;1563_17 -->
<g id="edge10" class="edge"><title>1563_3x1563_16&#45;&gt;1563_17</title>
<path fill="none" stroke="black" d="M700.134,-70.4231C714.046,-66.4863 792.869,-44.1823 843.895,-29.7436"/>
<polygon fill="black" stroke="black" points="845.033,-33.0591 853.702,-26.9685 843.127,-26.3235 845.033,-33.0591"/>
</g>
<!-- 1563_18 -->
<g id="node16" class="node"><title>1563_18</title>
<polygon fill="#66cdaa" stroke="black" points="1015,-27.7635 951,-27.7635 951,-4.76346 1015,-4.76346 1015,-27.7635"/>
<text text-anchor="middle" x="983" y="-12.5635" font-family="Times,serif" font-size="14.00">1563_18</text>
</g>
<!-- 1563_3x1563_16&#45;&gt;1563_18 -->
<g id="edge11" class="edge"><title>1563_3x1563_16&#45;&gt;1563_18</title>
<path fill="none" stroke="black" d="M700.442,-70.8287C719.339,-69.2573 844.101,-58.1974 942,-32.5269 943.667,-32.0898 945.36,-31.6104 947.062,-31.0994"/>
<polygon fill="black" stroke="black" points="948.376,-34.3521 956.783,-27.9053 946.19,-27.7019 948.376,-34.3521"/>
</g>
<!-- 1563_19 -->
<g id="node17" class="node"><title>1563_19</title>
<polygon fill="#66cdaa" stroke="black" points="1097,-27.7635 1033,-27.7635 1033,-4.76346 1097,-4.76346 1097,-27.7635"/>
<text text-anchor="middle" x="1065" y="-12.5635" font-family="Times,serif" font-size="14.00">1563_19</text>
</g>
<!-- 1563_3x1563_16&#45;&gt;1563_19 -->
<g id="edge12" class="edge"><title>1563_3x1563_16&#45;&gt;1563_19</title>
<path fill="none" stroke="black" d="M700.653,-70.9549C723.691,-70.2809 892.153,-64.3688 1024,-32.5269 1025.88,-32.0722 1027.8,-31.5567 1029.72,-30.9969"/>
<polygon fill="black" stroke="black" points="1030.83,-34.3164 1039.26,-27.9065 1028.67,-27.6567 1030.83,-34.3164"/>
</g>
<!-- 1563_20 -->
<g id="node18" class="node"><title>1563_20</title>
<polygon fill="#66cdaa" stroke="black" points="1179,-27.7635 1115,-27.7635 1115,-4.76346 1179,-4.76346 1179,-27.7635"/>
<text text-anchor="middle" x="1147" y="-12.5635" font-family="Times,serif" font-size="14.00">1563_20</text>
</g>
<!-- 1563_3x1563_16&#45;&gt;1563_20 -->
<g id="edge13" class="edge"><title>1563_3x1563_16&#45;&gt;1563_20</title>
<path fill="none" stroke="black" d="M700.632,-71.0414C726.601,-71.1317 939.558,-70.6624 1106,-32.5269 1107.94,-32.0816 1109.92,-31.5672 1111.9,-31.0024"/>
<polygon fill="black" stroke="black" points="1113.28,-34.2368 1121.73,-27.8469 1111.14,-27.572 1113.28,-34.2368"/>
</g>
<!-- 1563_21 -->
<g id="node19" class="node"><title>1563_21</title>
<ellipse fill="#66cdaa" stroke="black" cx="1242" cy="-16.2635" rx="45.011" ry="16.0303"/>
<text text-anchor="middle" x="1242" y="-12.5635" font-family="Times,serif" font-size="14.00">1563_21</text>
</g>
<!-- 1563_3x1563_16&#45;&gt;1563_21 -->
<g id="edge14" class="edge"><title>1563_3x1563_16&#45;&gt;1563_21</title>
<path fill="none" stroke="black" d="M700.765,-71.0187C730.016,-70.8893 985.562,-68.725 1188,-32.5269 1191.72,-31.8619 1195.55,-31.0481 1199.38,-30.1458"/>
<polygon fill="black" stroke="black" points="1200.57,-33.4523 1209.4,-27.5923 1198.85,-26.6688 1200.57,-33.4523"/>
</g>
<!-- 1563_22 -->
<g id="node28" class="node"><title>1563_22</title>
<polygon fill="#66cdaa" stroke="black" points="254,-27.7635 190,-27.7635 190,-4.76346 254,-4.76346 254,-27.7635"/>
<text text-anchor="middle" x="222" y="-12.5635" font-family="Times,serif" font-size="14.00">1563_22</text>
</g>
<!-- 1563_3x1563_16&#45;&gt;1563_22 -->
<g id="edge23" class="edge"><title>1563_3x1563_16&#45;&gt;1563_22</title>
<path fill="none" stroke="black" d="M695.195,-71.0647C667.509,-71.3801 440.48,-72.6492 263,-32.5269 261.055,-32.0873 259.078,-31.5773 257.096,-31.0161"/>
<polygon fill="black" stroke="black" points="257.858,-27.5852 247.267,-27.8707 255.725,-34.2521 257.858,-27.5852"/>
</g>
<!-- 1563_23 -->
<g id="node44" class="node"><title>1563_23</title>
<ellipse fill="#66cdaa" stroke="black" cx="317" cy="-16.2635" rx="45.011" ry="16.0303"/>
<text text-anchor="middle" x="317" y="-12.5635" font-family="Times,serif" font-size="14.00">1563_23</text>
</g>
<!-- 1563_3x1563_16&#45;&gt;1563_23 -->
<g id="edge39" class="edge"><title>1563_3x1563_16&#45;&gt;1563_23</title>
<path fill="none" stroke="black" d="M695.365,-70.8707C672.484,-69.4828 505.09,-58.6931 372,-32.5269 368.118,-31.7637 364.11,-30.8674 360.108,-29.898"/>
<polygon fill="black" stroke="black" points="360.808,-26.4644 350.252,-27.372 359.07,-33.2452 360.808,-26.4644"/>
</g>
<!-- 1563_25 -->
<g id="node46" class="node"><title>1563_25</title>
<ellipse fill="#66cdaa" stroke="black" cx="426" cy="-16.2635" rx="45.011" ry="16.0303"/>
<text text-anchor="middle" x="426" y="-12.5635" font-family="Times,serif" font-size="14.00">1563_25</text>
</g>
<!-- 1563_3x1563_16&#45;&gt;1563_25 -->
<g id="edge42" class="edge"><title>1563_3x1563_16&#45;&gt;1563_25</title>
<path fill="none" stroke="black" d="M695.389,-70.6676C677.208,-68.1447 567.663,-52.6035 480,-32.5269 476.572,-31.7419 473.038,-30.8749 469.495,-29.9645"/>
<polygon fill="black" stroke="black" points="470.132,-26.5123 459.568,-27.3164 468.328,-33.2757 470.132,-26.5123"/>
</g>
<!-- 1563_24 -->
<g id="node57" class="node"><title>1563_24</title>
<polygon fill="#66cdaa" stroke="black" points="553,-27.7635 489,-27.7635 489,-4.76346 553,-4.76346 553,-27.7635"/>
<text text-anchor="middle" x="521" y="-12.5635" font-family="Times,serif" font-size="14.00">1563_24</text>
</g>
<!-- 1563_3x1563_16&#45;&gt;1563_24 -->
<g id="edge55" class="edge"><title>1563_3x1563_16&#45;&gt;1563_24</title>
<path fill="none" stroke="black" d="M695.736,-70.4592C682.674,-67.1678 615.643,-50.0733 562,-32.5269 560.782,-32.1284 559.546,-31.7162 558.3,-31.2937"/>
<polygon fill="black" stroke="black" points="559.277,-27.9271 548.682,-27.9131 556.956,-34.5311 559.277,-27.9271"/>
</g>
<!-- 1563_26 -->
<g id="node62" class="node"><title>1563_26</title>
<polygon fill="#66cdaa" stroke="black" points="635,-27.7635 571,-27.7635 571,-4.76346 635,-4.76346 635,-27.7635"/>
<text text-anchor="middle" x="603" y="-12.5635" font-family="Times,serif" font-size="14.00">1563_26</text>
</g>
<!-- 1563_3x1563_16&#45;&gt;1563_26 -->
<g id="edge61" class="edge"><title>1563_3x1563_16&#45;&gt;1563_26</title>
<path fill="none" stroke="black" d="M696.351,-70.0937C688.617,-65.7168 655.278,-46.8494 630.637,-32.9043"/>
<polygon fill="black" stroke="black" points="632.118,-29.7206 621.691,-27.8413 628.67,-35.8126 632.118,-29.7206"/>
</g>
<!-- 1563_28 -->
<g id="node64" class="node"><title>1563_28</title>
<ellipse fill="#66cdaa" stroke="black" cx="698" cy="-16.2635" rx="45.011" ry="16.0303"/>
<text text-anchor="middle" x="698" y="-12.5635" font-family="Times,serif" font-size="14.00">1563_28</text>
</g>
<!-- 1563_3x1563_16&#45;&gt;1563_28 -->
<g id="edge63" class="edge"><title>1563_3x1563_16&#45;&gt;1563_28</title>
<path fill="none" stroke="black" d="M698,-68.4338C698,-63.6514 698,-52.9811 698,-42.6151"/>
<polygon fill="black" stroke="black" points="701.5,-42.5799 698,-32.58 694.5,-42.58 701.5,-42.5799"/>
</g>
<!-- 1563_27 -->
<g id="node65" class="node"><title>1563_27</title>
<polygon fill="#66cdaa" stroke="black" points="825,-27.7635 761,-27.7635 761,-4.76346 825,-4.76346 825,-27.7635"/>
<text text-anchor="middle" x="793" y="-12.5635" font-family="Times,serif" font-size="14.00">1563_27</text>
</g>
<!-- 1563_3x1563_16&#45;&gt;1563_27 -->
<g id="edge64" class="edge"><title>1563_3x1563_16&#45;&gt;1563_27</title>
<path fill="none" stroke="black" d="M699.649,-70.0937C707.383,-65.7168 740.722,-46.8494 765.363,-32.9043"/>
<polygon fill="black" stroke="black" points="767.33,-35.8126 774.309,-27.8413 763.882,-29.7206 767.33,-35.8126"/>
</g>
<!-- 1563_35x1563_6 -->
<g id="node22" class="node"><title>1563_35x1563_6</title>
<polygon fill="none" stroke="black" points="143,-75.5269 139.5,-72.0269 143,-68.5269 146.5,-72.0269 143,-75.5269"/>
</g>
<!-- 1563_6&#45;&gt;1563_35x1563_6 -->
<g id="edge17" class="edge"><title>1563_6&#45;&gt;1563_35x1563_6</title>
<path fill="none" stroke="black" d="M381.756,-116.909C375.277,-114.975 368.443,-113.071 362,-111.527 284.448,-92.9465 189.452,-79.2831 155.664,-74.7001"/>
<polygon fill="black" stroke="black" points="156.002,-71.2144 145.628,-73.3647 155.079,-78.1532 156.002,-71.2144"/>
</g>
<!-- 1563_36 -->
<g id="node54" class="node"><title>1563_36</title>
<polygon fill="#66cdaa" stroke="black" points="64,-27.7635 0,-27.7635 0,-4.76346 64,-4.76346 64,-27.7635"/>
<text text-anchor="middle" x="32" y="-12.5635" font-family="Times,serif" font-size="14.00">1563_36</text>
</g>
<!-- 1563_35x1563_6&#45;&gt;1563_36 -->
<g id="edge51" class="edge"><title>1563_35x1563_6&#45;&gt;1563_36</title>
<path fill="none" stroke="black" d="M141.073,-70.0937C131.917,-65.659 92.0482,-46.3481 63.1561,-32.3541"/>
<polygon fill="black" stroke="black" points="64.3646,-29.0505 53.8389,-27.8413 61.3131,-35.3504 64.3646,-29.0505"/>
</g>
<!-- 1563_37 -->
<g id="node55" class="node"><title>1563_37</title>
<ellipse fill="#66cdaa" stroke="black" cx="127" cy="-16.2635" rx="45.011" ry="16.0303"/>
<text text-anchor="middle" x="127" y="-12.5635" font-family="Times,serif" font-size="14.00">1563_37</text>
</g>
<!-- 1563_35x1563_6&#45;&gt;1563_37 -->
<g id="edge52" class="edge"><title>1563_35x1563_6&#45;&gt;1563_37</title>
<path fill="none" stroke="black" d="M142.312,-68.7168C140.935,-64.0865 137.696,-53.206 134.551,-42.6372"/>
<polygon fill="black" stroke="black" points="137.835,-41.4003 131.628,-32.8141 131.126,-43.397 137.835,-41.4003"/>
</g>
<!-- 1563_33 -->
<g id="node25" class="node"><title>1563_33</title>
<ellipse fill="dimgrey" stroke="black" cx="2618" cy="-127.79" rx="45.011" ry="16.0303"/>
<text text-anchor="middle" x="2618" y="-124.09" font-family="Times,serif" font-size="14.00">1563_33</text>
</g>
<!-- 1563_33&#45;&gt;1563_31x1563_33 -->
<g id="edge20" class="edge"><title>1563_33&#45;&gt;1563_31x1563_33</title>
<path fill="none" stroke="black" d="M2596.25,-113.501C2578.43,-102.617 2554.02,-87.7 2540.35,-79.3499"/>
<polygon fill="black" stroke="black" points="2542.14,-76.3398 2531.78,-74.113 2538.49,-82.3133 2542.14,-76.3398"/>
</g>
<!-- 1563_31 -->
<g id="node29" class="node"><title>1563_31</title>
<polygon fill="dimgrey" stroke="black" points="2473,-139.29 2409,-139.29 2409,-116.29 2473,-116.29 2473,-139.29"/>
<text text-anchor="middle" x="2441" y="-124.09" font-family="Times,serif" font-size="14.00">1563_31</text>
</g>
<!-- 1563_31&#45;&gt;1563_31x1563_33 -->
<g id="edge25" class="edge"><title>1563_31&#45;&gt;1563_31x1563_33</title>
<path fill="none" stroke="black" d="M2458.58,-116.168C2476.67,-105.243 2504.25,-88.5792 2519.3,-79.4907"/>
<polygon fill="black" stroke="black" points="2521.25,-82.4045 2528,-74.238 2517.63,-76.4129 2521.25,-82.4045"/>
</g>
<!-- 1563_57x1563_30 -->
<g id="node30" class="node"><title>1563_57x1563_30</title>
<polygon fill="none" stroke="black" points="2523,-187.054 2519.5,-183.554 2523,-180.054 2526.5,-183.554 2523,-187.054"/>
</g>
<!-- 1563_57x1563_30&#45;&gt;1563_31 -->
<g id="edge24" class="edge"><title>1563_57x1563_30&#45;&gt;1563_31</title>
<path fill="none" stroke="black" d="M2521.29,-181.431C2514.2,-176.786 2486.59,-158.68 2465.71,-144.99"/>
<polygon fill="black" stroke="black" points="2467.53,-142.001 2457.25,-139.444 2463.69,-147.855 2467.53,-142.001"/>
</g>
<!-- 1563_32 -->
<g id="node43" class="node"><title>1563_32</title>
<polygon fill="dimgrey" stroke="black" points="2555,-139.29 2491,-139.29 2491,-116.29 2555,-116.29 2555,-139.29"/>
<text text-anchor="middle" x="2523" y="-124.09" font-family="Times,serif" font-size="14.00">1563_32</text>
</g>
<!-- 1563_57x1563_30&#45;&gt;1563_32 -->
<g id="edge38" class="edge"><title>1563_57x1563_30&#45;&gt;1563_32</title>
<path fill="none" stroke="black" d="M2523,-179.961C2523,-174.493 2523,-161.327 2523,-149.721"/>
<polygon fill="black" stroke="black" points="2526.5,-149.372 2523,-139.372 2519.5,-149.372 2526.5,-149.372"/>
</g>
<!-- 1563_38 -->
<g id="node56" class="node"><title>1563_38</title>
<ellipse fill="#66cdaa" stroke="black" cx="2727" cy="-127.79" rx="45.011" ry="16.0303"/>
<text text-anchor="middle" x="2727" y="-124.09" font-family="Times,serif" font-size="14.00">1563_38</text>
</g>
<!-- 1563_57x1563_30&#45;&gt;1563_38 -->
<g id="edge53" class="edge"><title>1563_57x1563_30&#45;&gt;1563_38</title>
<path fill="none" stroke="black" d="M2525.1,-182.025C2538.4,-178.681 2612.13,-160.096 2672,-144.054 2675.56,-143.1 2679.25,-142.101 2682.95,-141.091"/>
<polygon fill="black" stroke="black" points="2683.98,-144.436 2692.7,-138.411 2682.13,-137.686 2683.98,-144.436"/>
</g>
<!-- 1563_39 -->
<g id="node58" class="node"><title>1563_39</title>
<ellipse fill="#66cdaa" stroke="black" cx="2836" cy="-127.79" rx="45.011" ry="16.0303"/>
<text text-anchor="middle" x="2836" y="-124.09" font-family="Times,serif" font-size="14.00">1563_39</text>
</g>
<!-- 1563_57x1563_30&#45;&gt;1563_39 -->
<g id="edge56" class="edge"><title>1563_57x1563_30&#45;&gt;1563_39</title>
<path fill="none" stroke="black" d="M2525.56,-182.292C2545.4,-180.245 2676.46,-166.273 2781,-144.054 2784.82,-143.243 2788.76,-142.32 2792.7,-141.339"/>
<polygon fill="black" stroke="black" points="2793.62,-144.716 2802.42,-138.812 2791.86,-137.941 2793.62,-144.716"/>
</g>
<!-- 1563_8 -->
<g id="node59" class="node"><title>1563_8</title>
<ellipse fill="dimgrey" stroke="black" cx="1910" cy="-127.79" rx="40.1111" ry="16.0303"/>
<text text-anchor="middle" x="1910" y="-124.09" font-family="Times,serif" font-size="14.00">1563_8</text>
</g>
<!-- 1563_57x1563_30&#45;&gt;1563_8 -->
<g id="edge57" class="edge"><title>1563_57x1563_30&#45;&gt;1563_8</title>
<path fill="none" stroke="black" d="M2520.53,-182.337C2486,-179.309 2098.96,-145.363 1959.61,-133.142"/>
<polygon fill="black" stroke="black" points="1959.51,-129.619 1949.24,-132.232 1958.89,-136.592 1959.51,-129.619"/>
</g>
<!-- 1563_99&#45;&gt;1563_99x1563_8 -->
<g id="edge41" class="edge"><title>1563_99&#45;&gt;1563_99x1563_8</title>
<path fill="none" stroke="black" d="M1476.4,-119.315C1528.73,-107.239 1629.55,-83.9755 1664.62,-75.8842"/>
<polygon fill="black" stroke="black" points="1665.64,-79.2398 1674.6,-73.581 1664.07,-72.419 1665.64,-79.2398"/>
</g>
<!-- 1563_3&#45;&gt;1563_3x1563_16 -->
<g id="edge44" class="edge"><title>1563_3&#45;&gt;1563_3x1563_16</title>
<path fill="none" stroke="black" d="M523.077,-116.218C527.339,-114.53 531.768,-112.893 536,-111.527 590.848,-93.8188 658.524,-80.3413 685.779,-75.2454"/>
<polygon fill="black" stroke="black" points="686.471,-78.677 695.678,-73.4353 685.212,-71.7911 686.471,-78.677"/>
</g>
<!-- 1563_16 -->
<g id="node48" class="node"><title>1563_16</title>
<ellipse fill="white" stroke="black" cx="698" cy="-127.79" rx="45.011" ry="16.0303"/>
<text text-anchor="middle" x="698" y="-124.09" font-family="Times,serif" font-size="14.00">1563_16</text>
</g>
<!-- 1563_16&#45;&gt;1563_3x1563_16 -->
<g id="edge45" class="edge"><title>1563_16&#45;&gt;1563_3x1563_16</title>
<path fill="none" stroke="black" d="M698,-111.24C698,-103.134 698,-93.3455 698,-85.7049"/>
<polygon fill="black" stroke="black" points="701.5,-85.5501 698,-75.5502 694.5,-85.5502 701.5,-85.5501"/>
</g>
<!-- 1563_57 -->
<g id="node49" class="node"><title>1563_57</title>
<polygon fill="#66cdaa" stroke="black" points="2507,-250.817 2443,-250.817 2443,-227.817 2507,-227.817 2507,-250.817"/>
<text text-anchor="middle" x="2475" y="-235.617" font-family="Times,serif" font-size="14.00">1563_57</text>
</g>
<!-- 1563_57&#45;&gt;1563_57x1563_30 -->
<g id="edge46" class="edge"><title>1563_57&#45;&gt;1563_57x1563_30</title>
<path fill="none" stroke="black" d="M2484.48,-227.695C2493.31,-217.807 2506.34,-203.217 2514.75,-193.798"/>
<polygon fill="black" stroke="black" points="2517.59,-195.865 2521.64,-186.074 2512.37,-191.203 2517.59,-195.865"/>
</g>
<!-- 1563_30 -->
<g id="node50" class="node"><title>1563_30</title>
<ellipse fill="#66cdaa" stroke="black" cx="2570" cy="-239.317" rx="45.011" ry="16.0303"/>
<text text-anchor="middle" x="2570" y="-235.617" font-family="Times,serif" font-size="14.00">1563_30</text>
</g>
<!-- 1563_30&#45;&gt;1563_57x1563_30 -->
<g id="edge47" class="edge"><title>1563_30&#45;&gt;1563_57x1563_30</title>
<path fill="none" stroke="black" d="M2557.16,-223.626C2548.81,-214.077 2538.19,-201.925 2531.02,-193.729"/>
<polygon fill="black" stroke="black" points="2533.6,-191.359 2524.38,-186.134 2528.33,-195.966 2533.6,-191.359"/>
</g>
<!-- 1563_35 -->
<g id="node53" class="node"><title>1563_35</title>
<polygon fill="#66cdaa" stroke="black" points="191,-139.29 127,-139.29 127,-116.29 191,-116.29 191,-139.29"/>
<text text-anchor="middle" x="159" y="-124.09" font-family="Times,serif" font-size="14.00">1563_35</text>
</g>
<!-- 1563_35&#45;&gt;1563_35x1563_6 -->
<g id="edge50" class="edge"><title>1563_35&#45;&gt;1563_35x1563_6</title>
<path fill="none" stroke="black" d="M155.839,-116.168C153.154,-107.147 149.304,-94.2107 146.521,-84.8595"/>
<polygon fill="black" stroke="black" points="149.872,-83.8485 143.665,-75.2622 143.163,-85.8452 149.872,-83.8485"/>
</g>
<!-- 1563_38&#45;&gt;1563_40x1563_38 -->
<g id="edge54" class="edge"><title>1563_38&#45;&gt;1563_40x1563_38</title>
<path fill="none" stroke="black" d="M2759.92,-116.547C2767.14,-114.613 2774.78,-112.8 2782,-111.527 2969.49,-78.462 3202.36,-73.788 3259.1,-73.1328"/>
<polygon fill="black" stroke="black" points="3259.27,-76.6315 3269.24,-73.0401 3259.2,-69.6318 3259.27,-76.6315"/>
</g>
<!-- 1563_8&#45;&gt;1563_99x1563_8 -->
<g id="edge58" class="edge"><title>1563_8&#45;&gt;1563_99x1563_8</title>
<path fill="none" stroke="black" d="M1876.12,-118.973C1823.29,-106.784 1723.78,-83.8207 1689.2,-75.8429"/>
<polygon fill="black" stroke="black" points="1689.9,-72.4107 1679.37,-73.5727 1688.32,-79.2315 1689.9,-72.4107"/>
</g>
<!-- 1563_40 -->
<g id="node63" class="node"><title>1563_40</title>
<polygon fill="#66cdaa" stroke="black" points="3304,-139.29 3240,-139.29 3240,-116.29 3304,-116.29 3304,-139.29"/>
<text text-anchor="middle" x="3272" y="-124.09" font-family="Times,serif" font-size="14.00">1563_40</text>
</g>
<!-- 1563_40&#45;&gt;1563_40x1563_38 -->
<g id="edge62" class="edge"><title>1563_40&#45;&gt;1563_40x1563_38</title>
<path fill="none" stroke="black" d="M3272,-116.168C3272,-107.416 3272,-94.9805 3272,-85.7075"/>
<polygon fill="black" stroke="black" points="3275.5,-85.6655 3272,-75.6656 3268.5,-85.6656 3275.5,-85.6655"/>
</g>
</g>
</svg>
