<?xml version="1.0" encoding="UTF-8" standalone="no"?>
<!DOCTYPE svg PUBLIC "-//W3C//DTD SVG 1.1//EN"
 "http://www.w3.org/Graphics/SVG/1.1/DTD/svg11.dtd">
<!-- Generated by graphviz version 2.38.0 (20140413.2041)
 -->
<!-- Title: %3 Pages: 1 -->
<svg width="2634pt" height="487pt"
 viewBox="0.00 0.00 2633.81 486.63" xmlns="http://www.w3.org/2000/svg" xmlns:xlink="http://www.w3.org/1999/xlink">
<g id="graph0" class="graph" transform="scale(1 1) rotate(0) translate(4 482.635)">
<title>%3</title>
<polygon fill="white" stroke="none" points="-4,4 -4,-482.635 2629.81,-482.635 2629.81,4 -4,4"/>
<!-- 914_17 -->
<g id="node1" class="node"><title>914_17</title>
<ellipse fill="#66cdaa" stroke="black" cx="313.5" cy="-16.2635" rx="40.1111" ry="16.0303"/>
<text text-anchor="middle" x="313.5" y="-12.5635" font-family="Times,serif" font-size="14.00">914_17</text>
</g>
<!-- 914_13x914_99 -->
<g id="node2" class="node"><title>914_13x914_99</title>
<polygon fill="none" stroke="black" points="214.5,-75.5269 211,-72.0269 214.5,-68.5269 218,-72.0269 214.5,-75.5269"/>
</g>
<!-- 914_13x914_99&#45;&gt;914_17 -->
<g id="edge1" class="edge"><title>914_13x914_99&#45;&gt;914_17</title>
<path fill="none" stroke="black" d="M216.218,-70.0937C223.948,-65.8962 256.217,-48.3718 281.498,-34.6427"/>
<polygon fill="black" stroke="black" points="283.32,-37.6361 290.437,-29.788 279.979,-31.4847 283.32,-37.6361"/>
</g>
<!-- 914_18 -->
<g id="node3" class="node"><title>914_18</title>
<polygon fill="#66cdaa" stroke="black" points="429,-27.7635 372,-27.7635 372,-4.76346 429,-4.76346 429,-27.7635"/>
<text text-anchor="middle" x="400.5" y="-12.5635" font-family="Times,serif" font-size="14.00">914_18</text>
</g>
<!-- 914_13x914_99&#45;&gt;914_18 -->
<g id="edge2" class="edge"><title>914_13x914_99&#45;&gt;914_18</title>
<path fill="none" stroke="black" d="M216.616,-70.5834C229.98,-67.76 303.997,-51.7985 362.5,-32.5269 363.547,-32.1821 364.606,-31.8231 365.672,-31.4529"/>
<polygon fill="black" stroke="black" points="367.146,-34.6399 375.32,-27.8987 364.726,-28.0715 367.146,-34.6399"/>
</g>
<!-- 914_15 -->
<g id="node9" class="node"><title>914_15</title>
<polygon fill="#66cdaa" stroke="black" points="57,-27.7635 0,-27.7635 0,-4.76346 57,-4.76346 57,-27.7635"/>
<text text-anchor="middle" x="28.5" y="-12.5635" font-family="Times,serif" font-size="14.00">914_15</text>
</g>
<!-- 914_13x914_99&#45;&gt;914_15 -->
<g id="edge7" class="edge"><title>914_13x914_99&#45;&gt;914_15</title>
<path fill="none" stroke="black" d="M212.384,-70.5834C199.02,-67.76 125.003,-51.7985 66.5,-32.5269 65.4533,-32.1821 64.3941,-31.8231 63.3277,-31.4529"/>
<polygon fill="black" stroke="black" points="64.2736,-28.0715 53.6801,-27.8987 61.8537,-34.6399 64.2736,-28.0715"/>
</g>
<!-- 914_16 -->
<g id="node21" class="node"><title>914_16</title>
<ellipse fill="#66cdaa" stroke="black" cx="115.5" cy="-16.2635" rx="40.1111" ry="16.0303"/>
<text text-anchor="middle" x="115.5" y="-12.5635" font-family="Times,serif" font-size="14.00">914_16</text>
</g>
<!-- 914_13x914_99&#45;&gt;914_16 -->
<g id="edge18" class="edge"><title>914_13x914_99&#45;&gt;914_16</title>
<path fill="none" stroke="black" d="M212.782,-70.0937C205.052,-65.8962 172.783,-48.3718 147.502,-34.6427"/>
<polygon fill="black" stroke="black" points="149.021,-31.4847 138.563,-29.788 145.68,-37.6361 149.021,-31.4847"/>
</g>
<!-- 914_14 -->
<g id="node22" class="node"><title>914_14</title>
<ellipse fill="#66cdaa" stroke="black" cx="214.5" cy="-16.2635" rx="40.1111" ry="16.0303"/>
<text text-anchor="middle" x="214.5" y="-12.5635" font-family="Times,serif" font-size="14.00">914_14</text>
</g>
<!-- 914_13x914_99&#45;&gt;914_14 -->
<g id="edge19" class="edge"><title>914_13x914_99&#45;&gt;914_14</title>
<path fill="none" stroke="black" d="M214.5,-68.4338C214.5,-63.6514 214.5,-52.9811 214.5,-42.6151"/>
<polygon fill="black" stroke="black" points="218,-42.5799 214.5,-32.58 211,-42.58 218,-42.5799"/>
</g>
<!-- 914_36 -->
<g id="node4" class="node"><title>914_36</title>
<ellipse fill="dimgrey" stroke="black" cx="1517.5" cy="-127.79" rx="40.1111" ry="16.0303"/>
<text text-anchor="middle" x="1517.5" y="-124.09" font-family="Times,serif" font-size="14.00">914_36</text>
</g>
<!-- 914_19x914_20 -->
<g id="node5" class="node"><title>914_19x914_20</title>
<polygon fill="none" stroke="black" points="1311.5,-187.054 1308,-183.554 1311.5,-180.054 1315,-183.554 1311.5,-187.054"/>
</g>
<!-- 914_19x914_20&#45;&gt;914_36 -->
<g id="edge3" class="edge"><title>914_19x914_20&#45;&gt;914_36</title>
<path fill="none" stroke="black" d="M1313.73,-182.062C1327.8,-178.944 1405.77,-161.497 1468.5,-144.054 1471.41,-143.244 1474.41,-142.382 1477.42,-141.494"/>
<polygon fill="black" stroke="black" points="1478.44,-144.844 1487,-138.608 1476.42,-138.141 1478.44,-144.844"/>
</g>
<!-- 914_29 -->
<g id="node10" class="node"><title>914_29</title>
<ellipse fill="dimgrey" stroke="black" cx="896.5" cy="-127.79" rx="40.1111" ry="16.0303"/>
<text text-anchor="middle" x="896.5" y="-124.09" font-family="Times,serif" font-size="14.00">914_29</text>
</g>
<!-- 914_19x914_20&#45;&gt;914_29 -->
<g id="edge8" class="edge"><title>914_19x914_20&#45;&gt;914_29</title>
<path fill="none" stroke="black" d="M1308.86,-182.469C1284.45,-181.642 1095.73,-174.412 946.5,-144.054 943.061,-143.354 939.519,-142.518 935.985,-141.601"/>
<polygon fill="black" stroke="black" points="936.709,-138.17 926.137,-138.856 934.83,-144.913 936.709,-138.17"/>
</g>
<!-- 914_35 -->
<g id="node29" class="node"><title>914_35</title>
<ellipse fill="#66cdaa" stroke="black" cx="1616.5" cy="-127.79" rx="40.1111" ry="16.0303"/>
<text text-anchor="middle" x="1616.5" y="-124.09" font-family="Times,serif" font-size="14.00">914_35</text>
</g>
<!-- 914_19x914_20&#45;&gt;914_35 -->
<g id="edge27" class="edge"><title>914_19x914_20&#45;&gt;914_35</title>
<path fill="none" stroke="black" d="M1314.04,-182.314C1333.69,-180.426 1463.45,-167.429 1566.5,-144.054 1569.88,-143.288 1573.36,-142.411 1576.84,-141.473"/>
<polygon fill="black" stroke="black" points="1577.89,-144.814 1586.55,-138.712 1575.97,-138.08 1577.89,-144.814"/>
</g>
<!-- 914_37 -->
<g id="node30" class="node"><title>914_37</title>
<ellipse fill="#66cdaa" stroke="black" cx="1715.5" cy="-127.79" rx="40.1111" ry="16.0303"/>
<text text-anchor="middle" x="1715.5" y="-124.09" font-family="Times,serif" font-size="14.00">914_37</text>
</g>
<!-- 914_19x914_20&#45;&gt;914_37 -->
<g id="edge28" class="edge"><title>914_19x914_20&#45;&gt;914_37</title>
<path fill="none" stroke="black" d="M1314.06,-182.46C1337.73,-181.553 1520.76,-173.742 1665.5,-144.054 1668.94,-143.349 1672.48,-142.508 1676.01,-141.589"/>
<polygon fill="black" stroke="black" points="1677.17,-144.9 1685.86,-138.84 1675.29,-138.158 1677.17,-144.9"/>
</g>
<!-- 914_38 -->
<g id="node35" class="node"><title>914_38</title>
<ellipse fill="#66cdaa" stroke="black" cx="1814.5" cy="-127.79" rx="40.1111" ry="16.0303"/>
<text text-anchor="middle" x="1814.5" y="-124.09" font-family="Times,serif" font-size="14.00">914_38</text>
</g>
<!-- 914_19x914_20&#45;&gt;914_38 -->
<g id="edge32" class="edge"><title>914_19x914_20&#45;&gt;914_38</title>
<path fill="none" stroke="black" d="M1314.06,-182.544C1341.14,-182.396 1577.72,-180.078 1764.5,-144.054 1767.95,-143.389 1771.49,-142.577 1775.03,-141.677"/>
<polygon fill="black" stroke="black" points="1776.17,-144.992 1784.88,-138.958 1774.31,-138.244 1776.17,-144.992"/>
</g>
<!-- 914_40 -->
<g id="node36" class="node"><title>914_40</title>
<polygon fill="#66cdaa" stroke="black" points="1930,-139.29 1873,-139.29 1873,-116.29 1930,-116.29 1930,-139.29"/>
<text text-anchor="middle" x="1901.5" y="-124.09" font-family="Times,serif" font-size="14.00">914_40</text>
</g>
<!-- 914_19x914_20&#45;&gt;914_40 -->
<g id="edge33" class="edge"><title>914_19x914_20&#45;&gt;914_40</title>
<path fill="none" stroke="black" d="M1314.27,-182.481C1351.33,-181.489 1749.27,-170.292 1863.5,-144.054 1865.21,-143.66 1866.95,-143.199 1868.69,-142.689"/>
<polygon fill="black" stroke="black" points="1870.22,-145.868 1878.56,-139.335 1867.96,-139.241 1870.22,-145.868"/>
</g>
<!-- 914_41 -->
<g id="node37" class="node"><title>914_41</title>
<polygon fill="#66cdaa" stroke="black" points="838,-139.29 781,-139.29 781,-116.29 838,-116.29 838,-139.29"/>
<text text-anchor="middle" x="809.5" y="-124.09" font-family="Times,serif" font-size="14.00">914_41</text>
</g>
<!-- 914_19x914_20&#45;&gt;914_41 -->
<g id="edge34" class="edge"><title>914_19x914_20&#45;&gt;914_41</title>
<path fill="none" stroke="black" d="M1308.86,-182.635C1280.93,-183.431 1037.07,-188.914 847.5,-144.054 845.835,-143.66 844.148,-143.205 842.456,-142.705"/>
<polygon fill="black" stroke="black" points="843.455,-139.347 832.861,-139.439 841.2,-145.974 843.455,-139.347"/>
</g>
<!-- 914_33 -->
<g id="node40" class="node"><title>914_33</title>
<ellipse fill="dimgrey" stroke="black" cx="1070.5" cy="-127.79" rx="40.1111" ry="16.0303"/>
<text text-anchor="middle" x="1070.5" y="-124.09" font-family="Times,serif" font-size="14.00">914_33</text>
</g>
<!-- 914_19x914_20&#45;&gt;914_33 -->
<g id="edge37" class="edge"><title>914_19x914_20&#45;&gt;914_33</title>
<path fill="none" stroke="black" d="M1309.21,-182.179C1293.27,-179.555 1197.24,-163.452 1120.5,-144.054 1117.29,-143.242 1113.98,-142.351 1110.66,-141.421"/>
<polygon fill="black" stroke="black" points="1111.35,-137.979 1100.77,-138.549 1109.4,-144.701 1111.35,-137.979"/>
</g>
<!-- 914_39 -->
<g id="node44" class="node"><title>914_39</title>
<polygon fill="#66cdaa" stroke="black" points="1012,-139.29 955,-139.29 955,-116.29 1012,-116.29 1012,-139.29"/>
<text text-anchor="middle" x="983.5" y="-124.09" font-family="Times,serif" font-size="14.00">914_39</text>
</g>
<!-- 914_19x914_20&#45;&gt;914_39 -->
<g id="edge42" class="edge"><title>914_19x914_20&#45;&gt;914_39</title>
<path fill="none" stroke="black" d="M1308.87,-182.455C1287.33,-181.592 1137.92,-174.645 1021.5,-144.054 1020.04,-143.67 1018.56,-143.244 1017.07,-142.787"/>
<polygon fill="black" stroke="black" points="1017.91,-139.374 1007.32,-139.407 1015.62,-145.988 1017.91,-139.374"/>
</g>
<!-- 914_34 -->
<g id="node46" class="node"><title>914_34</title>
<ellipse fill="#66cdaa" stroke="black" cx="1169.5" cy="-127.79" rx="40.1111" ry="16.0303"/>
<text text-anchor="middle" x="1169.5" y="-124.09" font-family="Times,serif" font-size="14.00">914_34</text>
</g>
<!-- 914_19x914_20&#45;&gt;914_34 -->
<g id="edge44" class="edge"><title>914_19x914_20&#45;&gt;914_34</title>
<path fill="none" stroke="black" d="M1309.49,-181.794C1298.54,-177.646 1245.1,-157.412 1207.51,-143.182"/>
<polygon fill="black" stroke="black" points="1208.45,-139.795 1197.86,-139.527 1205.97,-146.341 1208.45,-139.795"/>
</g>
<!-- 914_31 -->
<g id="node47" class="node"><title>914_31</title>
<ellipse fill="#66cdaa" stroke="black" cx="1268.5" cy="-127.79" rx="40.1111" ry="16.0303"/>
<text text-anchor="middle" x="1268.5" y="-124.09" font-family="Times,serif" font-size="14.00">914_31</text>
</g>
<!-- 914_19x914_20&#45;&gt;914_31 -->
<g id="edge45" class="edge"><title>914_19x914_20&#45;&gt;914_31</title>
<path fill="none" stroke="black" d="M1310.07,-180.765C1306.35,-176.117 1296.02,-163.196 1286.58,-151.401"/>
<polygon fill="black" stroke="black" points="1289.27,-149.154 1280.29,-143.53 1283.8,-153.526 1289.27,-149.154"/>
</g>
<!-- 914_32 -->
<g id="node56" class="node"><title>914_32</title>
<polygon fill="#66cdaa" stroke="black" points="1384,-139.29 1327,-139.29 1327,-116.29 1384,-116.29 1384,-139.29"/>
<text text-anchor="middle" x="1355.5" y="-124.09" font-family="Times,serif" font-size="14.00">914_32</text>
</g>
<!-- 914_19x914_20&#45;&gt;914_32 -->
<g id="edge54" class="edge"><title>914_19x914_20&#45;&gt;914_32</title>
<path fill="none" stroke="black" d="M1312.96,-180.765C1317.22,-175.564 1329.95,-160.005 1340.39,-147.256"/>
<polygon fill="black" stroke="black" points="1343.18,-149.376 1346.8,-139.42 1337.76,-144.942 1343.18,-149.376"/>
</g>
<!-- 914_9 -->
<g id="node6" class="node"><title>914_9</title>
<polygon fill="#66cdaa" stroke="black" points="429.5,-139.29 379.5,-139.29 379.5,-116.29 429.5,-116.29 429.5,-139.29"/>
<text text-anchor="middle" x="404.5" y="-124.09" font-family="Times,serif" font-size="14.00">914_9</text>
</g>
<!-- 914_1x914_2 -->
<g id="node7" class="node"><title>914_1x914_2</title>
<polygon fill="none" stroke="black" points="482.5,-187.054 479,-183.554 482.5,-180.054 486,-183.554 482.5,-187.054"/>
</g>
<!-- 914_1x914_2&#45;&gt;914_9 -->
<g id="edge4" class="edge"><title>914_1x914_2&#45;&gt;914_9</title>
<path fill="none" stroke="black" d="M480.871,-181.431C474.163,-176.807 448.099,-158.842 428.268,-145.173"/>
<polygon fill="black" stroke="black" points="430.177,-142.238 419.957,-139.444 426.204,-148.001 430.177,-142.238"/>
</g>
<!-- 914_99 -->
<g id="node8" class="node"><title>914_99</title>
<ellipse fill="dimgrey" stroke="black" cx="253.5" cy="-127.79" rx="40.1111" ry="16.0303"/>
<text text-anchor="middle" x="253.5" y="-124.09" font-family="Times,serif" font-size="14.00">914_99</text>
</g>
<!-- 914_1x914_2&#45;&gt;914_99 -->
<g id="edge5" class="edge"><title>914_1x914_2&#45;&gt;914_99</title>
<path fill="none" stroke="black" d="M480.343,-182.17C465.325,-179.48 374.835,-163.014 302.5,-144.054 299.536,-143.277 296.484,-142.433 293.421,-141.555"/>
<polygon fill="black" stroke="black" points="294.279,-138.159 283.696,-138.67 292.288,-144.869 294.279,-138.159"/>
</g>
<!-- 914_8 -->
<g id="node24" class="node"><title>914_8</title>
<ellipse fill="#66cdaa" stroke="black" cx="482.5" cy="-127.79" rx="35.2113" ry="16.0303"/>
<text text-anchor="middle" x="482.5" y="-124.09" font-family="Times,serif" font-size="14.00">914_8</text>
</g>
<!-- 914_1x914_2&#45;&gt;914_8 -->
<g id="edge21" class="edge"><title>914_1x914_2&#45;&gt;914_8</title>
<path fill="none" stroke="black" d="M482.5,-179.961C482.5,-175.178 482.5,-164.508 482.5,-154.142"/>
<polygon fill="black" stroke="black" points="486,-154.107 482.5,-144.107 479,-154.107 486,-154.107"/>
</g>
<!-- 914_3 -->
<g id="node25" class="node"><title>914_3</title>
<polygon fill="dimgrey" stroke="black" points="361.5,-139.29 311.5,-139.29 311.5,-116.29 361.5,-116.29 361.5,-139.29"/>
<text text-anchor="middle" x="336.5" y="-124.09" font-family="Times,serif" font-size="14.00">914_3</text>
</g>
<!-- 914_1x914_2&#45;&gt;914_3 -->
<g id="edge22" class="edge"><title>914_1x914_2&#45;&gt;914_3</title>
<path fill="none" stroke="black" d="M480.338,-181.891C468.876,-178.363 414.095,-161.291 370.5,-144.054 369.936,-143.831 369.368,-143.604 368.796,-143.373"/>
<polygon fill="black" stroke="black" points="369.998,-140.081 359.424,-139.421 367.278,-146.531 369.998,-140.081"/>
</g>
<!-- 914_4 -->
<g id="node26" class="node"><title>914_4</title>
<ellipse fill="#66cdaa" stroke="black" cx="571.5" cy="-127.79" rx="35.2113" ry="16.0303"/>
<text text-anchor="middle" x="571.5" y="-124.09" font-family="Times,serif" font-size="14.00">914_4</text>
</g>
<!-- 914_1x914_2&#45;&gt;914_4 -->
<g id="edge24" class="edge"><title>914_1x914_2&#45;&gt;914_4</title>
<path fill="none" stroke="black" d="M484.359,-181.431C491.774,-176.951 519.921,-159.949 542.245,-146.463"/>
<polygon fill="black" stroke="black" points="544.321,-149.298 551.071,-141.131 540.702,-143.306 544.321,-149.298"/>
</g>
<!-- 914_5 -->
<g id="node27" class="node"><title>914_5</title>
<polygon fill="dimgrey" stroke="black" points="674.5,-139.29 624.5,-139.29 624.5,-116.29 674.5,-116.29 674.5,-139.29"/>
<text text-anchor="middle" x="649.5" y="-124.09" font-family="Times,serif" font-size="14.00">914_5</text>
</g>
<!-- 914_1x914_2&#45;&gt;914_5 -->
<g id="edge25" class="edge"><title>914_1x914_2&#45;&gt;914_5</title>
<path fill="none" stroke="black" d="M484.731,-182.033C497.601,-179.001 563.599,-163.109 615.5,-144.054 616.206,-143.795 616.918,-143.527 617.634,-143.254"/>
<polygon fill="black" stroke="black" points="619.075,-146.446 627.005,-139.42 616.424,-139.967 619.075,-146.446"/>
</g>
<!-- 914_6 -->
<g id="node28" class="node"><title>914_6</title>
<ellipse fill="#66cdaa" stroke="black" cx="727.5" cy="-127.79" rx="35.2113" ry="16.0303"/>
<text text-anchor="middle" x="727.5" y="-124.09" font-family="Times,serif" font-size="14.00">914_6</text>
</g>
<!-- 914_1x914_2&#45;&gt;914_6 -->
<g id="edge26" class="edge"><title>914_1x914_2&#45;&gt;914_6</title>
<path fill="none" stroke="black" d="M484.919,-182.226C501.759,-179.916 603.188,-165.554 683.5,-144.054 685.96,-143.395 688.481,-142.668 691.011,-141.898"/>
<polygon fill="black" stroke="black" points="692.253,-145.175 700.699,-138.778 690.107,-138.512 692.253,-145.175"/>
</g>
<!-- 914_7 -->
<g id="node31" class="node"><title>914_7</title>
<ellipse fill="#66cdaa" stroke="black" cx="84.5" cy="-127.79" rx="35.2113" ry="16.0303"/>
<text text-anchor="middle" x="84.5" y="-124.09" font-family="Times,serif" font-size="14.00">914_7</text>
</g>
<!-- 914_1x914_2&#45;&gt;914_7 -->
<g id="edge29" class="edge"><title>914_1x914_2&#45;&gt;914_7</title>
<path fill="none" stroke="black" d="M479.931,-182.496C456.191,-181.914 272.654,-176.459 128.5,-144.054 125.855,-143.459 123.148,-142.758 120.44,-141.99"/>
<polygon fill="black" stroke="black" points="121.333,-138.602 110.744,-138.975 119.255,-145.286 121.333,-138.602"/>
</g>
<!-- 914_99&#45;&gt;914_13x914_99 -->
<g id="edge6" class="edge"><title>914_99&#45;&gt;914_13x914_99</title>
<path fill="none" stroke="black" d="M242.843,-112.099C236.069,-102.76 227.488,-90.9312 221.552,-82.748"/>
<polygon fill="black" stroke="black" points="224.351,-80.6463 215.646,-74.6068 218.685,-84.7566 224.351,-80.6463"/>
</g>
<!-- 914_3x914_29 -->
<g id="node11" class="node"><title>914_3x914_29</title>
<polygon fill="none" stroke="black" points="554.5,-75.5269 551,-72.0269 554.5,-68.5269 558,-72.0269 554.5,-75.5269"/>
</g>
<!-- 914_29&#45;&gt;914_3x914_29 -->
<g id="edge9" class="edge"><title>914_29&#45;&gt;914_3x914_29</title>
<path fill="none" stroke="black" d="M866.92,-116.683C860.567,-114.764 853.853,-112.923 847.5,-111.527 740.351,-87.981 607.781,-76.909 567.011,-73.9001"/>
<polygon fill="black" stroke="black" points="567.095,-70.3974 556.873,-73.1825 566.601,-77.38 567.095,-70.3974"/>
</g>
<!-- 914_12 -->
<g id="node15" class="node"><title>914_12</title>
<polygon fill="dimgrey" stroke="black" points="621,-27.7635 564,-27.7635 564,-4.76346 621,-4.76346 621,-27.7635"/>
<text text-anchor="middle" x="592.5" y="-12.5635" font-family="Times,serif" font-size="14.00">914_12</text>
</g>
<!-- 914_3x914_29&#45;&gt;914_12 -->
<g id="edge13" class="edge"><title>914_3x914_29&#45;&gt;914_12</title>
<path fill="none" stroke="black" d="M555.764,-69.2381C559.406,-64.0863 570.229,-48.7736 579.191,-36.0939"/>
<polygon fill="black" stroke="black" points="582.073,-38.0797 584.987,-27.8934 576.357,-34.0394 582.073,-38.0797"/>
</g>
<!-- 914_11 -->
<g id="node18" class="node"><title>914_11</title>
<polygon fill="#66cdaa" stroke="black" points="546,-27.7635 489,-27.7635 489,-4.76346 546,-4.76346 546,-27.7635"/>
<text text-anchor="middle" x="517.5" y="-12.5635" font-family="Times,serif" font-size="14.00">914_11</text>
</g>
<!-- 914_3x914_29&#45;&gt;914_11 -->
<g id="edge16" class="edge"><title>914_3x914_29&#45;&gt;914_11</title>
<path fill="none" stroke="black" d="M553.269,-69.2381C549.758,-64.1359 539.387,-49.0672 530.711,-36.4603"/>
<polygon fill="black" stroke="black" points="533.368,-34.1469 524.816,-27.8934 527.602,-38.1154 533.368,-34.1469"/>
</g>
<!-- 914_13 -->
<g id="node12" class="node"><title>914_13</title>
<polygon fill="#66cdaa" stroke="black" points="195,-139.29 138,-139.29 138,-116.29 195,-116.29 195,-139.29"/>
<text text-anchor="middle" x="166.5" y="-124.09" font-family="Times,serif" font-size="14.00">914_13</text>
</g>
<!-- 914_13&#45;&gt;914_13x914_99 -->
<g id="edge10" class="edge"><title>914_13&#45;&gt;914_13x914_99</title>
<path fill="none" stroke="black" d="M175.983,-116.168C184.812,-106.28 197.838,-91.69 206.247,-82.2712"/>
<polygon fill="black" stroke="black" points="209.093,-84.3382 213.142,-74.5476 203.872,-79.6762 209.093,-84.3382"/>
</g>
<!-- 914_1 -->
<g id="node13" class="node"><title>914_1</title>
<polygon fill="#66cdaa" stroke="black" points="507.5,-250.817 457.5,-250.817 457.5,-227.817 507.5,-227.817 507.5,-250.817"/>
<text text-anchor="middle" x="482.5" y="-235.617" font-family="Times,serif" font-size="14.00">914_1</text>
</g>
<!-- 914_1&#45;&gt;914_1x914_2 -->
<g id="edge12" class="edge"><title>914_1&#45;&gt;914_1x914_2</title>
<path fill="none" stroke="black" d="M482.5,-227.695C482.5,-218.943 482.5,-206.507 482.5,-197.234"/>
<polygon fill="black" stroke="black" points="486,-197.192 482.5,-187.192 479,-197.193 486,-197.192"/>
</g>
<!-- 914_21x914_22 -->
<g id="node14" class="node"><title>914_21x914_22</title>
<polygon fill="none" stroke="black" points="1267.5,-298.581 1264,-295.081 1267.5,-291.581 1271,-295.081 1267.5,-298.581"/>
</g>
<!-- 914_21x914_22&#45;&gt;914_1 -->
<g id="edge11" class="edge"><title>914_21x914_22&#45;&gt;914_1</title>
<path fill="none" stroke="black" d="M1264.87,-294.081C1222.17,-294.072 672.607,-293.219 516.5,-255.581 515.226,-255.274 513.941,-254.92 512.655,-254.528"/>
<polygon fill="black" stroke="black" points="513.519,-251.117 502.926,-250.946 511.1,-257.685 513.519,-251.117"/>
</g>
<!-- 914_19 -->
<g id="node62" class="node"><title>914_19</title>
<polygon fill="#66cdaa" stroke="black" points="1296,-250.817 1239,-250.817 1239,-227.817 1296,-227.817 1296,-250.817"/>
<text text-anchor="middle" x="1267.5" y="-235.617" font-family="Times,serif" font-size="14.00">914_19</text>
</g>
<!-- 914_21x914_22&#45;&gt;914_19 -->
<g id="edge60" class="edge"><title>914_21x914_22&#45;&gt;914_19</title>
<path fill="none" stroke="black" d="M1267.5,-291.488C1267.5,-286.02 1267.5,-272.854 1267.5,-261.248"/>
<polygon fill="black" stroke="black" points="1271,-260.899 1267.5,-250.899 1264,-260.899 1271,-260.899"/>
</g>
<!-- 914_22 -->
<g id="node16" class="node"><title>914_22</title>
<ellipse fill="#66cdaa" stroke="black" cx="1267.5" cy="-350.844" rx="40.1111" ry="16.0303"/>
<text text-anchor="middle" x="1267.5" y="-347.144" font-family="Times,serif" font-size="14.00">914_22</text>
</g>
<!-- 914_22&#45;&gt;914_21x914_22 -->
<g id="edge15" class="edge"><title>914_22&#45;&gt;914_21x914_22</title>
<path fill="none" stroke="black" d="M1267.5,-334.294C1267.5,-326.188 1267.5,-316.399 1267.5,-308.759"/>
<polygon fill="black" stroke="black" points="1271,-308.604 1267.5,-298.604 1264,-308.604 1271,-308.604"/>
</g>
<!-- 914_23x914_24 -->
<g id="node17" class="node"><title>914_23x914_24</title>
<polygon fill="none" stroke="black" points="1427.5,-410.108 1424,-406.608 1427.5,-403.108 1431,-406.608 1427.5,-410.108"/>
</g>
<!-- 914_23x914_24&#45;&gt;914_22 -->
<g id="edge14" class="edge"><title>914_23x914_24&#45;&gt;914_22</title>
<path fill="none" stroke="black" d="M1425.48,-404.928C1413.4,-400.868 1349.85,-379.517 1307.13,-365.161"/>
<polygon fill="black" stroke="black" points="1308.15,-361.812 1297.56,-361.945 1305.92,-368.448 1308.15,-361.812"/>
</g>
<!-- 914_25 -->
<g id="node59" class="node"><title>914_25</title>
<polygon fill="#66cdaa" stroke="black" points="1616,-362.344 1559,-362.344 1559,-339.344 1616,-339.344 1616,-362.344"/>
<text text-anchor="middle" x="1587.5" y="-347.144" font-family="Times,serif" font-size="14.00">914_25</text>
</g>
<!-- 914_23x914_24&#45;&gt;914_25 -->
<g id="edge57" class="edge"><title>914_23x914_24&#45;&gt;914_25</title>
<path fill="none" stroke="black" d="M1429.52,-404.928C1441.74,-400.823 1506.56,-379.04 1549.29,-364.685"/>
<polygon fill="black" stroke="black" points="1550.47,-367.98 1558.83,-361.477 1548.24,-361.345 1550.47,-367.98"/>
</g>
<!-- 914_42 -->
<g id="node19" class="node"><title>914_42</title>
<ellipse fill="dimgrey" stroke="black" cx="2138.5" cy="-127.79" rx="40.1111" ry="16.0303"/>
<text text-anchor="middle" x="2138.5" y="-124.09" font-family="Times,serif" font-size="14.00">914_42</text>
</g>
<!-- 914_27x914_28 -->
<g id="node20" class="node"><title>914_27x914_28</title>
<polygon fill="none" stroke="black" points="2237.5,-187.054 2234,-183.554 2237.5,-180.054 2241,-183.554 2237.5,-187.054"/>
</g>
<!-- 914_27x914_28&#45;&gt;914_42 -->
<g id="edge17" class="edge"><title>914_27x914_28&#45;&gt;914_42</title>
<path fill="none" stroke="black" d="M2235.78,-181.621C2228.05,-177.423 2195.78,-159.899 2170.5,-146.17"/>
<polygon fill="black" stroke="black" points="2172.02,-143.012 2161.56,-141.315 2168.68,-149.163 2172.02,-143.012"/>
</g>
<!-- 914_44 -->
<g id="node38" class="node"><title>914_44</title>
<ellipse fill="#66cdaa" stroke="black" cx="2237.5" cy="-127.79" rx="40.1111" ry="16.0303"/>
<text text-anchor="middle" x="2237.5" y="-124.09" font-family="Times,serif" font-size="14.00">914_44</text>
</g>
<!-- 914_27x914_28&#45;&gt;914_44 -->
<g id="edge35" class="edge"><title>914_27x914_28&#45;&gt;914_44</title>
<path fill="none" stroke="black" d="M2237.5,-179.961C2237.5,-175.178 2237.5,-164.508 2237.5,-154.142"/>
<polygon fill="black" stroke="black" points="2241,-154.107 2237.5,-144.107 2234,-154.107 2241,-154.107"/>
</g>
<!-- 914_45 -->
<g id="node39" class="node"><title>914_45</title>
<ellipse fill="#66cdaa" stroke="black" cx="2336.5" cy="-127.79" rx="40.1111" ry="16.0303"/>
<text text-anchor="middle" x="2336.5" y="-124.09" font-family="Times,serif" font-size="14.00">914_45</text>
</g>
<!-- 914_27x914_28&#45;&gt;914_45 -->
<g id="edge36" class="edge"><title>914_27x914_28&#45;&gt;914_45</title>
<path fill="none" stroke="black" d="M2239.22,-181.621C2246.95,-177.423 2279.22,-159.899 2304.5,-146.17"/>
<polygon fill="black" stroke="black" points="2306.32,-149.163 2313.44,-141.315 2302.98,-143.012 2306.32,-149.163"/>
</g>
<!-- 914_50 -->
<g id="node41" class="node"><title>914_50</title>
<polygon fill="#66cdaa" stroke="black" points="2452,-139.29 2395,-139.29 2395,-116.29 2452,-116.29 2452,-139.29"/>
<text text-anchor="middle" x="2423.5" y="-124.09" font-family="Times,serif" font-size="14.00">914_50</text>
</g>
<!-- 914_27x914_28&#45;&gt;914_50 -->
<g id="edge39" class="edge"><title>914_27x914_28&#45;&gt;914_50</title>
<path fill="none" stroke="black" d="M2239.62,-182.11C2252.98,-179.287 2327,-163.325 2385.5,-144.054 2386.55,-143.709 2387.61,-143.35 2388.67,-142.98"/>
<polygon fill="black" stroke="black" points="2390.15,-146.167 2398.32,-139.426 2387.73,-139.598 2390.15,-146.167"/>
</g>
<!-- 914_49 -->
<g id="node42" class="node"><title>914_49</title>
<polygon fill="#66cdaa" stroke="black" points="2527,-139.29 2470,-139.29 2470,-116.29 2527,-116.29 2527,-139.29"/>
<text text-anchor="middle" x="2498.5" y="-124.09" font-family="Times,serif" font-size="14.00">914_49</text>
</g>
<!-- 914_27x914_28&#45;&gt;914_49 -->
<g id="edge40" class="edge"><title>914_27x914_28&#45;&gt;914_49</title>
<path fill="none" stroke="black" d="M2240.21,-182.316C2259.1,-180.618 2372.78,-169.636 2461.5,-144.054 2462.74,-143.696 2463.99,-143.311 2465.25,-142.902"/>
<polygon fill="black" stroke="black" points="2466.67,-146.113 2474.89,-139.434 2464.3,-139.527 2466.67,-146.113"/>
</g>
<!-- 914_48 -->
<g id="node43" class="node"><title>914_48</title>
<ellipse fill="#66cdaa" stroke="black" cx="2585.5" cy="-127.79" rx="40.1111" ry="16.0303"/>
<text text-anchor="middle" x="2585.5" y="-124.09" font-family="Times,serif" font-size="14.00">914_48</text>
</g>
<!-- 914_27x914_28&#45;&gt;914_48 -->
<g id="edge41" class="edge"><title>914_27x914_28&#45;&gt;914_48</title>
<path fill="none" stroke="black" d="M2239.92,-182.404C2260.96,-181.068 2414.8,-170.631 2536.5,-144.054 2539.68,-143.36 2542.94,-142.554 2546.21,-141.681"/>
<polygon fill="black" stroke="black" points="2547.27,-145.02 2555.92,-138.911 2545.35,-138.289 2547.27,-145.02"/>
</g>
<!-- 914_47 -->
<g id="node45" class="node"><title>914_47</title>
<polygon fill="#66cdaa" stroke="black" points="2005,-139.29 1948,-139.29 1948,-116.29 2005,-116.29 2005,-139.29"/>
<text text-anchor="middle" x="1976.5" y="-124.09" font-family="Times,serif" font-size="14.00">914_47</text>
</g>
<!-- 914_27x914_28&#45;&gt;914_47 -->
<g id="edge43" class="edge"><title>914_27x914_28&#45;&gt;914_47</title>
<path fill="none" stroke="black" d="M2234.8,-182.306C2216.02,-180.534 2102.94,-169.147 2014.5,-144.054 2013.09,-143.654 2011.66,-143.219 2010.22,-142.758"/>
<polygon fill="black" stroke="black" points="2011.36,-139.448 2000.77,-139.417 2009.03,-146.048 2011.36,-139.448"/>
</g>
<!-- 914_46 -->
<g id="node68" class="node"><title>914_46</title>
<polygon fill="#66cdaa" stroke="black" points="2080,-139.29 2023,-139.29 2023,-116.29 2080,-116.29 2080,-139.29"/>
<text text-anchor="middle" x="2051.5" y="-124.09" font-family="Times,serif" font-size="14.00">914_46</text>
</g>
<!-- 914_27x914_28&#45;&gt;914_46 -->
<g id="edge68" class="edge"><title>914_27x914_28&#45;&gt;914_46</title>
<path fill="none" stroke="black" d="M2235.38,-182.11C2222.02,-179.287 2148,-163.325 2089.5,-144.054 2088.45,-143.709 2087.39,-143.35 2086.33,-142.98"/>
<polygon fill="black" stroke="black" points="2087.27,-139.598 2076.68,-139.426 2084.85,-146.167 2087.27,-139.598"/>
</g>
<!-- 914_23 -->
<g id="node23" class="node"><title>914_23</title>
<polygon fill="#66cdaa" stroke="black" points="1413,-473.871 1356,-473.871 1356,-450.871 1413,-450.871 1413,-473.871"/>
<text text-anchor="middle" x="1384.5" y="-458.671" font-family="Times,serif" font-size="14.00">914_23</text>
</g>
<!-- 914_23&#45;&gt;914_23x914_24 -->
<g id="edge20" class="edge"><title>914_23&#45;&gt;914_23x914_24</title>
<path fill="none" stroke="black" d="M1393,-450.749C1400.82,-440.966 1412.33,-426.581 1419.86,-417.154"/>
<polygon fill="black" stroke="black" points="1422.77,-419.124 1426.28,-409.128 1417.3,-414.752 1422.77,-419.124"/>
</g>
<!-- 914_3&#45;&gt;914_3x914_29 -->
<g id="edge23" class="edge"><title>914_3&#45;&gt;914_3x914_29</title>
<path fill="none" stroke="black" d="M358.174,-116.228C362.211,-114.5 366.439,-112.846 370.5,-111.527 433.486,-91.0649 512.229,-78.8517 542.173,-74.6669"/>
<polygon fill="black" stroke="black" points="542.822,-78.1112 552.266,-73.3083 541.889,-71.1737 542.822,-78.1112"/>
</g>
<!-- 914_51 -->
<g id="node32" class="node"><title>914_51</title>
<polygon fill="#66cdaa" stroke="black" points="1459,-139.29 1402,-139.29 1402,-116.29 1459,-116.29 1459,-139.29"/>
<text text-anchor="middle" x="1430.5" y="-124.09" font-family="Times,serif" font-size="14.00">914_51</text>
</g>
<!-- 914_51x914_33 -->
<g id="node33" class="node"><title>914_51x914_33</title>
<polygon fill="none" stroke="black" points="1084.5,-75.5269 1081,-72.0269 1084.5,-68.5269 1088,-72.0269 1084.5,-75.5269"/>
</g>
<!-- 914_51&#45;&gt;914_51x914_33 -->
<g id="edge30" class="edge"><title>914_51&#45;&gt;914_51x914_33</title>
<path fill="none" stroke="black" d="M1407.74,-116.289C1403.1,-114.469 1398.2,-112.766 1393.5,-111.527 1281.23,-81.9486 1139.87,-74.9023 1097.23,-73.3996"/>
<polygon fill="black" stroke="black" points="1097.13,-69.8947 1087.02,-73.085 1096.91,-76.8914 1097.13,-69.8947"/>
</g>
<!-- 914_52 -->
<g id="node49" class="node"><title>914_52</title>
<ellipse fill="#66cdaa" stroke="black" cx="925.5" cy="-16.2635" rx="40.1111" ry="16.0303"/>
<text text-anchor="middle" x="925.5" y="-12.5635" font-family="Times,serif" font-size="14.00">914_52</text>
</g>
<!-- 914_51x914_33&#45;&gt;914_52 -->
<g id="edge47" class="edge"><title>914_51x914_33&#45;&gt;914_52</title>
<path fill="none" stroke="black" d="M1082.49,-70.3471C1070.48,-66.2874 1007.34,-44.9363 964.883,-30.5801"/>
<polygon fill="black" stroke="black" points="965.966,-27.2518 955.372,-27.3641 963.724,-33.883 965.966,-27.2518"/>
</g>
<!-- 914_53 -->
<g id="node50" class="node"><title>914_53</title>
<ellipse fill="#66cdaa" stroke="black" cx="1024.5" cy="-16.2635" rx="40.1111" ry="16.0303"/>
<text text-anchor="middle" x="1024.5" y="-12.5635" font-family="Times,serif" font-size="14.00">914_53</text>
</g>
<!-- 914_51x914_33&#45;&gt;914_53 -->
<g id="edge48" class="edge"><title>914_51x914_33&#45;&gt;914_53</title>
<path fill="none" stroke="black" d="M1083.02,-69.6979C1078.11,-65.3047 1061.94,-50.8095 1047.83,-38.1704"/>
<polygon fill="black" stroke="black" points="1050.08,-35.4823 1040.29,-31.4155 1045.41,-40.6956 1050.08,-35.4823"/>
</g>
<!-- 914_54 -->
<g id="node51" class="node"><title>914_54</title>
<ellipse fill="#66cdaa" stroke="black" cx="1123.5" cy="-16.2635" rx="40.1111" ry="16.0303"/>
<text text-anchor="middle" x="1123.5" y="-12.5635" font-family="Times,serif" font-size="14.00">914_54</text>
</g>
<!-- 914_51x914_33&#45;&gt;914_54 -->
<g id="edge49" class="edge"><title>914_51x914_33&#45;&gt;914_54</title>
<path fill="none" stroke="black" d="M1085.8,-69.2381C1089.14,-64.6344 1098.36,-51.9165 1106.85,-40.2143"/>
<polygon fill="black" stroke="black" points="1109.77,-42.1532 1112.81,-32.0034 1104.1,-38.0429 1109.77,-42.1532"/>
</g>
<!-- 914_55 -->
<g id="node52" class="node"><title>914_55</title>
<ellipse fill="#66cdaa" stroke="black" cx="1222.5" cy="-16.2635" rx="40.1111" ry="16.0303"/>
<text text-anchor="middle" x="1222.5" y="-12.5635" font-family="Times,serif" font-size="14.00">914_55</text>
</g>
<!-- 914_51x914_33&#45;&gt;914_55 -->
<g id="edge50" class="edge"><title>914_51x914_33&#45;&gt;914_55</title>
<path fill="none" stroke="black" d="M1086.45,-70.2669C1097.07,-66.1311 1148.74,-45.9994 1185.25,-31.776"/>
<polygon fill="black" stroke="black" points="1186.59,-35.0115 1194.63,-28.12 1184.04,-28.489 1186.59,-35.0115"/>
</g>
<!-- 914_56 -->
<g id="node53" class="node"><title>914_56</title>
<ellipse fill="#66cdaa" stroke="black" cx="1321.5" cy="-16.2635" rx="40.1111" ry="16.0303"/>
<text text-anchor="middle" x="1321.5" y="-12.5635" font-family="Times,serif" font-size="14.00">914_56</text>
</g>
<!-- 914_51x914_33&#45;&gt;914_56 -->
<g id="edge51" class="edge"><title>914_51x914_33&#45;&gt;914_56</title>
<path fill="none" stroke="black" d="M1086.74,-70.6474C1102.34,-67.9879 1196.34,-51.6909 1271.5,-32.5269 1274.71,-31.7084 1278.02,-30.813 1281.34,-29.8793"/>
<polygon fill="black" stroke="black" points="1282.6,-33.1582 1291.22,-27.0018 1280.64,-26.4374 1282.6,-33.1582"/>
</g>
<!-- 914_57 -->
<g id="node54" class="node"><title>914_57</title>
<ellipse fill="#66cdaa" stroke="black" cx="1420.5" cy="-16.2635" rx="40.1111" ry="16.0303"/>
<text text-anchor="middle" x="1420.5" y="-12.5635" font-family="Times,serif" font-size="14.00">914_57</text>
</g>
<!-- 914_51x914_33&#45;&gt;914_57 -->
<g id="edge52" class="edge"><title>914_51x914_33&#45;&gt;914_57</title>
<path fill="none" stroke="black" d="M1087.08,-70.8409C1108.16,-69.2853 1254.5,-57.865 1370.5,-32.5269 1373.88,-31.7879 1377.37,-30.9301 1380.85,-30.0054"/>
<polygon fill="black" stroke="black" points="1381.89,-33.3481 1390.57,-27.265 1379.99,-26.6109 1381.89,-33.3481"/>
</g>
<!-- 914_58 -->
<g id="node55" class="node"><title>914_58</title>
<ellipse fill="#66cdaa" stroke="black" cx="1519.5" cy="-16.2635" rx="40.1111" ry="16.0303"/>
<text text-anchor="middle" x="1519.5" y="-12.5635" font-family="Times,serif" font-size="14.00">914_58</text>
</g>
<!-- 914_51x914_33&#45;&gt;914_58 -->
<g id="edge53" class="edge"><title>914_51x914_33&#45;&gt;914_58</title>
<path fill="none" stroke="black" d="M1086.97,-70.9661C1111.36,-70.3284 1311.43,-64.2359 1469.5,-32.5269 1472.94,-31.8366 1476.48,-31.0065 1480.02,-30.0946"/>
<polygon fill="black" stroke="black" points="1481.17,-33.4069 1489.87,-27.3565 1479.3,-26.6626 1481.17,-33.4069"/>
</g>
<!-- 914_59 -->
<g id="node57" class="node"><title>914_59</title>
<polygon fill="#66cdaa" stroke="black" points="717,-27.7635 660,-27.7635 660,-4.76346 717,-4.76346 717,-27.7635"/>
<text text-anchor="middle" x="688.5" y="-12.5635" font-family="Times,serif" font-size="14.00">914_59</text>
</g>
<!-- 914_51x914_33&#45;&gt;914_59 -->
<g id="edge55" class="edge"><title>914_51x914_33&#45;&gt;914_59</title>
<path fill="none" stroke="black" d="M1081.89,-71.0187C1057.78,-70.8874 871.457,-68.6982 726.5,-32.5269 724.84,-32.1127 723.157,-31.6416 721.469,-31.1278"/>
<polygon fill="black" stroke="black" points="722.478,-27.7736 711.883,-27.8192 720.194,-34.3905 722.478,-27.7736"/>
</g>
<!-- 914_61 -->
<g id="node58" class="node"><title>914_61</title>
<polygon fill="white" stroke="black" points="792,-27.7635 735,-27.7635 735,-4.76346 792,-4.76346 792,-27.7635"/>
<text text-anchor="middle" x="763.5" y="-12.5635" font-family="Times,serif" font-size="14.00">914_61</text>
</g>
<!-- 914_51x914_33&#45;&gt;914_61 -->
<g id="edge56" class="edge"><title>914_51x914_33&#45;&gt;914_61</title>
<path fill="none" stroke="black" d="M1081.93,-70.9187C1060.91,-69.9846 915.108,-62.5764 801.5,-32.5269 800.039,-32.1406 798.56,-31.7132 797.074,-31.2543"/>
<polygon fill="black" stroke="black" points="797.914,-27.8412 787.319,-27.8681 795.618,-34.4541 797.914,-27.8412"/>
</g>
<!-- 914_60 -->
<g id="node67" class="node"><title>914_60</title>
<polygon fill="#66cdaa" stroke="black" points="867,-27.7635 810,-27.7635 810,-4.76346 867,-4.76346 867,-27.7635"/>
<text text-anchor="middle" x="838.5" y="-12.5635" font-family="Times,serif" font-size="14.00">914_60</text>
</g>
<!-- 914_51x914_33&#45;&gt;914_60 -->
<g id="edge67" class="edge"><title>914_51x914_33&#45;&gt;914_60</title>
<path fill="none" stroke="black" d="M1081.98,-70.7535C1064.47,-68.8111 959.029,-56.4808 876.5,-32.5269 875.092,-32.1182 873.664,-31.6762 872.228,-31.2091"/>
<polygon fill="black" stroke="black" points="873.373,-27.9014 862.778,-27.8451 871.025,-34.496 873.373,-27.9014"/>
</g>
<!-- 914_2 -->
<g id="node34" class="node"><title>914_2</title>
<ellipse fill="#66cdaa" stroke="black" cx="560.5" cy="-239.317" rx="35.2113" ry="16.0303"/>
<text text-anchor="middle" x="560.5" y="-235.617" font-family="Times,serif" font-size="14.00">914_2</text>
</g>
<!-- 914_2&#45;&gt;914_1x914_2 -->
<g id="edge31" class="edge"><title>914_2&#45;&gt;914_1x914_2</title>
<path fill="none" stroke="black" d="M541.618,-225.303C526.154,-214.643 504.877,-199.978 492.516,-191.458"/>
<polygon fill="black" stroke="black" points="494.313,-188.446 484.093,-185.652 490.341,-194.209 494.313,-188.446"/>
</g>
<!-- 914_33&#45;&gt;914_51x914_33 -->
<g id="edge38" class="edge"><title>914_33&#45;&gt;914_51x914_33</title>
<path fill="none" stroke="black" d="M1074.47,-111.528C1076.66,-103.153 1079.32,-92.9163 1081.36,-85.1037"/>
<polygon fill="black" stroke="black" points="1084.8,-85.7772 1083.93,-75.2179 1078.02,-84.0132 1084.8,-85.7772"/>
</g>
<!-- 914_24 -->
<g id="node48" class="node"><title>914_24</title>
<ellipse fill="#66cdaa" stroke="black" cx="1471.5" cy="-462.371" rx="40.1111" ry="16.0303"/>
<text text-anchor="middle" x="1471.5" y="-458.671" font-family="Times,serif" font-size="14.00">914_24</text>
</g>
<!-- 914_24&#45;&gt;914_23x914_24 -->
<g id="edge46" class="edge"><title>914_24&#45;&gt;914_23x914_24</title>
<path fill="none" stroke="black" d="M1459.48,-446.68C1451.75,-437.236 1441.94,-425.246 1435.23,-417.054"/>
<polygon fill="black" stroke="black" points="1437.84,-414.71 1428.79,-409.188 1432.42,-419.143 1437.84,-414.71"/>
</g>
<!-- 914_25x914_26 -->
<g id="node60" class="node"><title>914_25x914_26</title>
<polygon fill="none" stroke="black" points="1753.5,-298.581 1750,-295.081 1753.5,-291.581 1757,-295.081 1753.5,-298.581"/>
</g>
<!-- 914_25&#45;&gt;914_25x914_26 -->
<g id="edge58" class="edge"><title>914_25&#45;&gt;914_25x914_26</title>
<path fill="none" stroke="black" d="M1616.04,-340.602C1653.15,-328.582 1716.27,-308.138 1742.04,-299.793"/>
<polygon fill="black" stroke="black" points="1743.16,-303.11 1751.59,-296.699 1741,-296.451 1743.16,-303.11"/>
</g>
<!-- 914_27 -->
<g id="node65" class="node"><title>914_27</title>
<polygon fill="#66cdaa" stroke="black" points="1862,-250.817 1805,-250.817 1805,-227.817 1862,-227.817 1862,-250.817"/>
<text text-anchor="middle" x="1833.5" y="-235.617" font-family="Times,serif" font-size="14.00">914_27</text>
</g>
<!-- 914_25x914_26&#45;&gt;914_27 -->
<g id="edge64" class="edge"><title>914_25x914_26&#45;&gt;914_27</title>
<path fill="none" stroke="black" d="M1755.17,-292.958C1762.05,-288.334 1788.78,-270.369 1809.12,-256.7"/>
<polygon fill="black" stroke="black" points="1811.3,-259.454 1817.65,-250.971 1807.39,-253.644 1811.3,-259.454"/>
</g>
<!-- 914_26 -->
<g id="node61" class="node"><title>914_26</title>
<ellipse fill="#66cdaa" stroke="black" cx="1753.5" cy="-350.844" rx="40.1111" ry="16.0303"/>
<text text-anchor="middle" x="1753.5" y="-347.144" font-family="Times,serif" font-size="14.00">914_26</text>
</g>
<!-- 914_26&#45;&gt;914_25x914_26 -->
<g id="edge59" class="edge"><title>914_26&#45;&gt;914_25x914_26</title>
<path fill="none" stroke="black" d="M1753.5,-334.294C1753.5,-326.188 1753.5,-316.399 1753.5,-308.759"/>
<polygon fill="black" stroke="black" points="1757,-308.604 1753.5,-298.604 1750,-308.604 1757,-308.604"/>
</g>
<!-- 914_19&#45;&gt;914_19x914_20 -->
<g id="edge61" class="edge"><title>914_19&#45;&gt;914_19x914_20</title>
<path fill="none" stroke="black" d="M1276.19,-227.695C1284.2,-217.912 1295.97,-203.527 1303.69,-194.1"/>
<polygon fill="black" stroke="black" points="1306.63,-196.03 1310.26,-186.074 1301.21,-191.597 1306.63,-196.03"/>
</g>
<!-- 914_20 -->
<g id="node63" class="node"><title>914_20</title>
<ellipse fill="#66cdaa" stroke="black" cx="1354.5" cy="-239.317" rx="40.1111" ry="16.0303"/>
<text text-anchor="middle" x="1354.5" y="-235.617" font-family="Times,serif" font-size="14.00">914_20</text>
</g>
<!-- 914_20&#45;&gt;914_19x914_20 -->
<g id="edge62" class="edge"><title>914_20&#45;&gt;914_19x914_20</title>
<path fill="none" stroke="black" d="M1342.75,-223.626C1335.2,-214.182 1325.61,-202.192 1319.06,-194"/>
<polygon fill="black" stroke="black" points="1321.74,-191.757 1312.76,-186.134 1316.28,-196.129 1321.74,-191.757"/>
</g>
<!-- 914_21 -->
<g id="node64" class="node"><title>914_21</title>
<polygon fill="#66cdaa" stroke="black" points="1383,-362.344 1326,-362.344 1326,-339.344 1383,-339.344 1383,-362.344"/>
<text text-anchor="middle" x="1354.5" y="-347.144" font-family="Times,serif" font-size="14.00">914_21</text>
</g>
<!-- 914_21&#45;&gt;914_21x914_22 -->
<g id="edge63" class="edge"><title>914_21&#45;&gt;914_21x914_22</title>
<path fill="none" stroke="black" d="M1337.31,-339.222C1319.81,-328.404 1293.19,-311.959 1278.4,-302.814"/>
<polygon fill="black" stroke="black" points="1279.81,-299.571 1269.46,-297.292 1276.13,-305.526 1279.81,-299.571"/>
</g>
<!-- 914_27&#45;&gt;914_27x914_28 -->
<g id="edge65" class="edge"><title>914_27&#45;&gt;914_27x914_28</title>
<path fill="none" stroke="black" d="M1862.23,-234.494C1942.83,-223.767 2168.86,-193.688 2224.84,-186.239"/>
<polygon fill="black" stroke="black" points="2225.59,-189.67 2235.04,-184.881 2224.66,-182.731 2225.59,-189.67"/>
</g>
<!-- 914_28 -->
<g id="node66" class="node"><title>914_28</title>
<ellipse fill="#66cdaa" stroke="black" cx="2237.5" cy="-239.317" rx="40.1111" ry="16.0303"/>
<text text-anchor="middle" x="2237.5" y="-235.617" font-family="Times,serif" font-size="14.00">914_28</text>
</g>
<!-- 914_28&#45;&gt;914_27x914_28 -->
<g id="edge66" class="edge"><title>914_28&#45;&gt;914_27x914_28</title>
<path fill="none" stroke="black" d="M2237.5,-222.767C2237.5,-214.661 2237.5,-204.872 2237.5,-197.232"/>
<polygon fill="black" stroke="black" points="2241,-197.077 2237.5,-187.077 2234,-197.077 2241,-197.077"/>
</g>
</g>
</svg>
