<?xml version="1.0" encoding="UTF-8" standalone="no"?>
<!DOCTYPE svg PUBLIC "-//W3C//DTD SVG 1.1//EN"
 "http://www.w3.org/Graphics/SVG/1.1/DTD/svg11.dtd">
<!-- Generated by graphviz version 2.38.0 (20140413.2041)
 -->
<!-- Title: %3 Pages: 1 -->
<svg width="522pt" height="152pt"
 viewBox="0.00 0.00 521.75 152.05" xmlns="http://www.w3.org/2000/svg" xmlns:xlink="http://www.w3.org/1999/xlink">
<g id="graph0" class="graph" transform="scale(1 1) rotate(0) translate(4 148.054)">
<title>%3</title>
<polygon fill="white" stroke="none" points="-4,4 -4,-148.054 517.755,-148.054 517.755,4 -4,4"/>
<!-- 1858_4 -->
<g id="node1" class="node"><title>1858_4</title>
<polygon fill="#66cdaa" stroke="black" points="57,-27.7635 0,-27.7635 0,-4.76346 57,-4.76346 57,-27.7635"/>
<text text-anchor="middle" x="28.5" y="-12.5635" font-family="Times,serif" font-size="14.00">1858_4</text>
</g>
<!-- 1858_1x1858_2 -->
<g id="node2" class="node"><title>1858_1x1858_2</title>
<polygon fill="none" stroke="black" points="239.5,-75.5269 236,-72.0269 239.5,-68.5269 243,-72.0269 239.5,-75.5269"/>
</g>
<!-- 1858_1x1858_2&#45;&gt;1858_4 -->
<g id="edge1" class="edge"><title>1858_1x1858_2&#45;&gt;1858_4</title>
<path fill="none" stroke="black" d="M237.021,-70.6323C221.368,-68.1079 134.687,-53.654 66.5,-32.5269 65.2776,-32.1482 64.0393,-31.7472 62.7932,-31.3291"/>
<polygon fill="black" stroke="black" points="63.8225,-27.9795 53.2282,-27.8695 61.4416,-34.5622 63.8225,-27.9795"/>
</g>
<!-- 1858_7 -->
<g id="node3" class="node"><title>1858_7</title>
<ellipse fill="white" stroke="black" cx="115.5" cy="-16.2635" rx="40.1111" ry="16.0303"/>
<text text-anchor="middle" x="115.5" y="-12.5635" font-family="Times,serif" font-size="14.00">1858_7</text>
</g>
<!-- 1858_1x1858_2&#45;&gt;1858_7 -->
<g id="edge2" class="edge"><title>1858_1x1858_2&#45;&gt;1858_7</title>
<path fill="none" stroke="black" d="M237.747,-70.2669C228.424,-66.2244 183.852,-46.8994 151.212,-32.7471"/>
<polygon fill="black" stroke="black" points="152.507,-29.4939 141.94,-28.727 149.722,-35.9162 152.507,-29.4939"/>
</g>
<!-- 1858_5 -->
<g id="node4" class="node"><title>1858_5</title>
<polygon fill="white" stroke="black" points="231,-27.7635 174,-27.7635 174,-4.76346 231,-4.76346 231,-27.7635"/>
<text text-anchor="middle" x="202.5" y="-12.5635" font-family="Times,serif" font-size="14.00">1858_5</text>
</g>
<!-- 1858_1x1858_2&#45;&gt;1858_5 -->
<g id="edge3" class="edge"><title>1858_1x1858_2&#45;&gt;1858_5</title>
<path fill="none" stroke="black" d="M238.269,-69.2381C234.758,-64.1359 224.387,-49.0672 215.711,-36.4603"/>
<polygon fill="black" stroke="black" points="218.368,-34.1469 209.816,-27.8934 212.602,-38.1154 218.368,-34.1469"/>
</g>
<!-- 1858_3 -->
<g id="node5" class="node"><title>1858_3</title>
<polygon fill="#66cdaa" stroke="black" points="306,-27.7635 249,-27.7635 249,-4.76346 306,-4.76346 306,-27.7635"/>
<text text-anchor="middle" x="277.5" y="-12.5635" font-family="Times,serif" font-size="14.00">1858_3</text>
</g>
<!-- 1858_1x1858_2&#45;&gt;1858_3 -->
<g id="edge4" class="edge"><title>1858_1x1858_2&#45;&gt;1858_3</title>
<path fill="none" stroke="black" d="M240.764,-69.2381C244.406,-64.0863 255.229,-48.7736 264.191,-36.0939"/>
<polygon fill="black" stroke="black" points="267.073,-38.0797 269.987,-27.8934 261.357,-34.0394 267.073,-38.0797"/>
</g>
<!-- 1858_6 -->
<g id="node6" class="node"><title>1858_6</title>
<ellipse fill="dimgrey" stroke="black" cx="364.5" cy="-16.2635" rx="40.1111" ry="16.0303"/>
<text text-anchor="middle" x="364.5" y="-12.5635" font-family="Times,serif" font-size="14.00">1858_6</text>
</g>
<!-- 1858_1x1858_2&#45;&gt;1858_6 -->
<g id="edge5" class="edge"><title>1858_1x1858_2&#45;&gt;1858_6</title>
<path fill="none" stroke="black" d="M241.267,-70.2669C250.693,-66.2128 295.855,-46.7882 328.784,-32.6253"/>
<polygon fill="black" stroke="black" points="330.328,-35.7711 338.132,-28.6047 327.562,-29.3407 330.328,-35.7711"/>
</g>
<!-- 1858_99 -->
<g id="node7" class="node"><title>1858_99</title>
<ellipse fill="dimgrey" stroke="black" cx="468.5" cy="-16.2635" rx="45.011" ry="16.0303"/>
<text text-anchor="middle" x="468.5" y="-12.5635" font-family="Times,serif" font-size="14.00">1858_99</text>
</g>
<!-- 1858_1x1858_2&#45;&gt;1858_99 -->
<g id="edge6" class="edge"><title>1858_1x1858_2&#45;&gt;1858_99</title>
<path fill="none" stroke="black" d="M241.965,-70.5329C257.537,-67.4009 343.852,-49.8836 413.5,-32.5269 417.076,-31.6358 420.773,-30.6815 424.482,-29.7012"/>
<polygon fill="black" stroke="black" points="425.502,-33.0513 434.247,-27.071 423.681,-26.2922 425.502,-33.0513"/>
</g>
<!-- 1858_2 -->
<g id="node8" class="node"><title>1858_2</title>
<ellipse fill="#66cdaa" stroke="black" cx="196.5" cy="-127.79" rx="40.1111" ry="16.0303"/>
<text text-anchor="middle" x="196.5" y="-124.09" font-family="Times,serif" font-size="14.00">1858_2</text>
</g>
<!-- 1858_2&#45;&gt;1858_1x1858_2 -->
<g id="edge7" class="edge"><title>1858_2&#45;&gt;1858_1x1858_2</title>
<path fill="none" stroke="black" d="M208.25,-112.099C215.803,-102.656 225.393,-90.6651 231.945,-82.4735"/>
<polygon fill="black" stroke="black" points="234.724,-84.6024 238.236,-74.6068 229.257,-80.2302 234.724,-84.6024"/>
</g>
<!-- 1858_01 -->
<g id="node9" class="node"><title>1858_01</title>
<polygon fill="#66cdaa" stroke="black" points="394.5,-139.29 330.5,-139.29 330.5,-116.29 394.5,-116.29 394.5,-139.29"/>
<text text-anchor="middle" x="362.5" y="-124.09" font-family="Times,serif" font-size="14.00">1858_01</text>
</g>
<!-- 1858_1 -->
<g id="node10" class="node"><title>1858_1</title>
<polygon fill="#66cdaa" stroke="black" points="312,-139.29 255,-139.29 255,-116.29 312,-116.29 312,-139.29"/>
<text text-anchor="middle" x="283.5" y="-124.09" font-family="Times,serif" font-size="14.00">1858_1</text>
</g>
<!-- 1858_1&#45;&gt;1858_1x1858_2 -->
<g id="edge8" class="edge"><title>1858_1&#45;&gt;1858_1x1858_2</title>
<path fill="none" stroke="black" d="M274.807,-116.168C266.801,-106.385 255.027,-91.9999 247.313,-82.5735"/>
<polygon fill="black" stroke="black" points="249.786,-80.0696 240.745,-74.5476 244.369,-84.503 249.786,-80.0696"/>
</g>
</g>
</svg>
