<?xml version="1.0" encoding="UTF-8" standalone="no"?>
<!DOCTYPE svg PUBLIC "-//W3C//DTD SVG 1.1//EN"
 "http://www.w3.org/Graphics/SVG/1.1/DTD/svg11.dtd">
<!-- Generated by graphviz version 2.38.0 (20140413.2041)
 -->
<!-- Title: %3 Pages: 1 -->
<svg width="2387pt" height="598pt"
 viewBox="0.00 0.00 2387.00 598.16" xmlns="http://www.w3.org/2000/svg" xmlns:xlink="http://www.w3.org/1999/xlink">
<g id="graph0" class="graph" transform="scale(1 1) rotate(0) translate(4 594.161)">
<title>%3</title>
<polygon fill="white" stroke="none" points="-4,4 -4,-594.161 2383,-594.161 2383,4 -4,4"/>
<!-- 4_680_28 -->
<g id="node1" class="node"><title>4_680_28</title>
<ellipse fill="white" stroke="black" cx="1476.5" cy="-350.844" rx="50.41" ry="16.0303"/>
<text text-anchor="middle" x="1476.5" y="-347.144" font-family="Times,serif" font-size="14.00">4_680_28</text>
</g>
<!-- 4_680_8x4_680_28 -->
<g id="node2" class="node"><title>4_680_8x4_680_28</title>
<polygon fill="none" stroke="black" points="1484.5,-298.581 1481,-295.081 1484.5,-291.581 1488,-295.081 1484.5,-298.581"/>
</g>
<!-- 4_680_28&#45;&gt;4_680_8x4_680_28 -->
<g id="edge1" class="edge"><title>4_680_28&#45;&gt;4_680_8x4_680_28</title>
<path fill="none" stroke="black" d="M1478.77,-334.582C1480,-326.308 1481.5,-316.217 1482.66,-308.441"/>
<polygon fill="black" stroke="black" points="1486.16,-308.678 1484.17,-298.272 1479.24,-307.648 1486.16,-308.678"/>
</g>
<!-- 4_680_27 -->
<g id="node47" class="node"><title>4_680_27</title>
<ellipse fill="white" stroke="black" cx="1380.5" cy="-239.317" rx="50.41" ry="16.0303"/>
<text text-anchor="middle" x="1380.5" y="-235.617" font-family="Times,serif" font-size="14.00">4_680_27</text>
</g>
<!-- 4_680_8x4_680_28&#45;&gt;4_680_27 -->
<g id="edge45" class="edge"><title>4_680_8x4_680_28&#45;&gt;4_680_27</title>
<path fill="none" stroke="black" d="M1482.69,-293.148C1474.68,-289.006 1441.58,-271.894 1415.19,-258.252"/>
<polygon fill="black" stroke="black" points="1416.68,-255.082 1406.19,-253.598 1413.47,-261.3 1416.68,-255.082"/>
</g>
<!-- 4_680_25 -->
<g id="node49" class="node"><title>4_680_25</title>
<polygon fill="white" stroke="black" points="1520,-250.817 1449,-250.817 1449,-227.817 1520,-227.817 1520,-250.817"/>
<text text-anchor="middle" x="1484.5" y="-235.617" font-family="Times,serif" font-size="14.00">4_680_25</text>
</g>
<!-- 4_680_8x4_680_28&#45;&gt;4_680_25 -->
<g id="edge47" class="edge"><title>4_680_8x4_680_28&#45;&gt;4_680_25</title>
<path fill="none" stroke="black" d="M1484.5,-291.488C1484.5,-286.02 1484.5,-272.854 1484.5,-261.248"/>
<polygon fill="black" stroke="black" points="1488,-260.899 1484.5,-250.899 1481,-260.899 1488,-260.899"/>
</g>
<!-- 4_680_26 -->
<g id="node53" class="node"><title>4_680_26</title>
<ellipse fill="white" stroke="black" cx="1588.5" cy="-239.317" rx="50.41" ry="16.0303"/>
<text text-anchor="middle" x="1588.5" y="-235.617" font-family="Times,serif" font-size="14.00">4_680_26</text>
</g>
<!-- 4_680_8x4_680_28&#45;&gt;4_680_26 -->
<g id="edge50" class="edge"><title>4_680_8x4_680_28&#45;&gt;4_680_26</title>
<path fill="none" stroke="black" d="M1486.31,-293.148C1494.32,-289.006 1527.42,-271.894 1553.81,-258.252"/>
<polygon fill="black" stroke="black" points="1555.53,-261.3 1562.81,-253.598 1552.32,-255.082 1555.53,-261.3"/>
</g>
<!-- 4_680_99 -->
<g id="node3" class="node"><title>4_680_99</title>
<ellipse fill="dimgrey" stroke="black" cx="1358.5" cy="-350.844" rx="50.41" ry="16.0303"/>
<text text-anchor="middle" x="1358.5" y="-347.144" font-family="Times,serif" font-size="14.00">4_680_99</text>
</g>
<!-- 4_680_51x4_680_99 -->
<g id="node5" class="node"><title>4_680_51x4_680_99</title>
<polygon fill="none" stroke="black" points="974.5,-298.581 971,-295.081 974.5,-291.581 978,-295.081 974.5,-298.581"/>
</g>
<!-- 4_680_99&#45;&gt;4_680_51x4_680_99 -->
<g id="edge3" class="edge"><title>4_680_99&#45;&gt;4_680_51x4_680_99</title>
<path fill="none" stroke="black" d="M1321.86,-339.714C1314.18,-337.82 1306.11,-335.994 1298.5,-334.581 1178.38,-312.264 1030.68,-300.223 987.136,-296.984"/>
<polygon fill="black" stroke="black" points="987.341,-293.49 977.114,-296.26 986.836,-300.471 987.341,-293.49"/>
</g>
<!-- 4_680_1x4_680_2 -->
<g id="node4" class="node"><title>4_680_1x4_680_2</title>
<polygon fill="none" stroke="black" points="1404.5,-410.108 1401,-406.608 1404.5,-403.108 1408,-406.608 1404.5,-410.108"/>
</g>
<!-- 4_680_1x4_680_2&#45;&gt;4_680_99 -->
<g id="edge2" class="edge"><title>4_680_1x4_680_2&#45;&gt;4_680_99</title>
<path fill="none" stroke="black" d="M1402.97,-403.819C1399.02,-399.2 1388.08,-386.414 1378.04,-374.68"/>
<polygon fill="black" stroke="black" points="1380.49,-372.161 1371.33,-366.838 1375.17,-376.712 1380.49,-372.161"/>
</g>
<!-- 4_680_9 -->
<g id="node16" class="node"><title>4_680_9</title>
<polygon fill="dimgrey" stroke="black" points="1608.5,-362.344 1544.5,-362.344 1544.5,-339.344 1608.5,-339.344 1608.5,-362.344"/>
<text text-anchor="middle" x="1576.5" y="-347.144" font-family="Times,serif" font-size="14.00">4_680_9</text>
</g>
<!-- 4_680_1x4_680_2&#45;&gt;4_680_9 -->
<g id="edge12" class="edge"><title>4_680_1x4_680_2&#45;&gt;4_680_9</title>
<path fill="none" stroke="black" d="M1406.68,-405.029C1419.25,-401.68 1483.77,-384.316 1535.5,-367.108 1536.72,-366.703 1537.95,-366.286 1539.19,-365.859"/>
<polygon fill="black" stroke="black" points="1540.55,-369.093 1548.81,-362.456 1538.21,-362.494 1540.55,-369.093"/>
</g>
<!-- 4_680_3 -->
<g id="node22" class="node"><title>4_680_3</title>
<ellipse fill="dimgrey" stroke="black" cx="1753.5" cy="-350.844" rx="45.011" ry="16.0303"/>
<text text-anchor="middle" x="1753.5" y="-347.144" font-family="Times,serif" font-size="14.00">4_680_3</text>
</g>
<!-- 4_680_1x4_680_2&#45;&gt;4_680_3 -->
<g id="edge17" class="edge"><title>4_680_1x4_680_2&#45;&gt;4_680_3</title>
<path fill="none" stroke="black" d="M1406.88,-405.43C1427.59,-403.863 1579.09,-391.845 1699.5,-367.108 1703.1,-366.368 1706.81,-365.515 1710.52,-364.598"/>
<polygon fill="black" stroke="black" points="1711.48,-367.966 1720.27,-362.056 1709.71,-361.192 1711.48,-367.966"/>
</g>
<!-- 4_680_7 -->
<g id="node23" class="node"><title>4_680_7</title>
<polygon fill="white" stroke="black" points="1880.5,-362.344 1816.5,-362.344 1816.5,-339.344 1880.5,-339.344 1880.5,-362.344"/>
<text text-anchor="middle" x="1848.5" y="-347.144" font-family="Times,serif" font-size="14.00">4_680_7</text>
</g>
<!-- 4_680_1x4_680_2&#45;&gt;4_680_7 -->
<g id="edge19" class="edge"><title>4_680_1x4_680_2&#45;&gt;4_680_7</title>
<path fill="none" stroke="black" d="M1407.1,-405.618C1432.75,-405.666 1643.1,-404.875 1807.5,-367.108 1809.44,-366.661 1811.42,-366.146 1813.4,-365.58"/>
<polygon fill="black" stroke="black" points="1814.78,-368.814 1823.23,-362.423 1812.63,-362.15 1814.78,-368.814"/>
</g>
<!-- 4_680_6 -->
<g id="node34" class="node"><title>4_680_6</title>
<ellipse fill="dimgrey" stroke="black" cx="875.5" cy="-350.844" rx="45.011" ry="16.0303"/>
<text text-anchor="middle" x="875.5" y="-347.144" font-family="Times,serif" font-size="14.00">4_680_6</text>
</g>
<!-- 4_680_1x4_680_2&#45;&gt;4_680_6 -->
<g id="edge29" class="edge"><title>4_680_1x4_680_2&#45;&gt;4_680_6</title>
<path fill="none" stroke="black" d="M1401.82,-405.591C1373.46,-405.369 1125.74,-402.446 929.5,-367.108 925.782,-366.438 921.951,-365.621 918.126,-364.717"/>
<polygon fill="black" stroke="black" points="918.656,-361.24 908.101,-362.16 916.926,-368.023 918.656,-361.24"/>
</g>
<!-- 4_680_8 -->
<g id="node41" class="node"><title>4_680_8</title>
<polygon fill="white" stroke="black" points="1690.5,-362.344 1626.5,-362.344 1626.5,-339.344 1690.5,-339.344 1690.5,-362.344"/>
<text text-anchor="middle" x="1658.5" y="-347.144" font-family="Times,serif" font-size="14.00">4_680_8</text>
</g>
<!-- 4_680_1x4_680_2&#45;&gt;4_680_8 -->
<g id="edge37" class="edge"><title>4_680_1x4_680_2&#45;&gt;4_680_8</title>
<path fill="none" stroke="black" d="M1407.07,-405.319C1424.96,-403.271 1532.7,-390.359 1617.5,-367.108 1619.16,-366.652 1620.85,-366.157 1622.55,-365.634"/>
<polygon fill="black" stroke="black" points="1623.88,-368.88 1632.26,-362.397 1621.67,-362.239 1623.88,-368.88"/>
</g>
<!-- 4_680_5 -->
<g id="node44" class="node"><title>4_680_5</title>
<polygon fill="dimgrey" stroke="black" points="1092.5,-362.344 1028.5,-362.344 1028.5,-339.344 1092.5,-339.344 1092.5,-362.344"/>
<text text-anchor="middle" x="1060.5" y="-347.144" font-family="Times,serif" font-size="14.00">4_680_5</text>
</g>
<!-- 4_680_1x4_680_2&#45;&gt;4_680_5 -->
<g id="edge42" class="edge"><title>4_680_1x4_680_2&#45;&gt;4_680_5</title>
<path fill="none" stroke="black" d="M1402.03,-405.511C1380.62,-404.626 1224.05,-397.276 1101.5,-367.108 1099.62,-366.645 1097.71,-366.122 1095.79,-365.557"/>
<polygon fill="black" stroke="black" points="1096.84,-362.219 1086.24,-362.451 1094.67,-368.875 1096.84,-362.219"/>
</g>
<!-- 4_680_4 -->
<g id="node45" class="node"><title>4_680_4</title>
<ellipse fill="dimgrey" stroke="black" cx="1155.5" cy="-350.844" rx="45.011" ry="16.0303"/>
<text text-anchor="middle" x="1155.5" y="-347.144" font-family="Times,serif" font-size="14.00">4_680_4</text>
</g>
<!-- 4_680_1x4_680_2&#45;&gt;4_680_4 -->
<g id="edge43" class="edge"><title>4_680_1x4_680_2&#45;&gt;4_680_4</title>
<path fill="none" stroke="black" d="M1402.17,-405.22C1385.92,-402.509 1288.02,-385.925 1209.5,-367.108 1206.08,-366.288 1202.55,-365.396 1199.01,-364.469"/>
<polygon fill="black" stroke="black" points="1199.66,-361.018 1189.09,-361.791 1197.84,-367.776 1199.66,-361.018"/>
</g>
<!-- 4_680_11 -->
<g id="node56" class="node"><title>4_680_11</title>
<polygon fill="dimgrey" stroke="black" points="1290,-362.344 1219,-362.344 1219,-339.344 1290,-339.344 1290,-362.344"/>
<text text-anchor="middle" x="1254.5" y="-347.144" font-family="Times,serif" font-size="14.00">4_680_11</text>
</g>
<!-- 4_680_1x4_680_2&#45;&gt;4_680_11 -->
<g id="edge53" class="edge"><title>4_680_1x4_680_2&#45;&gt;4_680_11</title>
<path fill="none" stroke="black" d="M1402.38,-404.848C1390.7,-400.662 1333.31,-380.091 1293.56,-365.844"/>
<polygon fill="black" stroke="black" points="1294.72,-362.54 1284.12,-362.461 1292.35,-369.13 1294.72,-362.54"/>
</g>
<!-- 4_680_10 -->
<g id="node60" class="node"><title>4_680_10</title>
<polygon fill="dimgrey" stroke="black" points="2127,-362.344 2056,-362.344 2056,-339.344 2127,-339.344 2127,-362.344"/>
<text text-anchor="middle" x="2091.5" y="-347.144" font-family="Times,serif" font-size="14.00">4_680_10</text>
</g>
<!-- 4_680_1x4_680_2&#45;&gt;4_680_10 -->
<g id="edge59" class="edge"><title>4_680_1x4_680_2&#45;&gt;4_680_10</title>
<path fill="none" stroke="black" d="M1406.93,-405.51C1436.85,-404.29 1737.62,-391.658 1979.5,-367.108 2001.38,-364.887 2025.57,-361.685 2045.85,-358.788"/>
<polygon fill="black" stroke="black" points="2046.37,-362.249 2055.76,-357.351 2045.36,-355.321 2046.37,-362.249"/>
</g>
<!-- 4_680_12 -->
<g id="node57" class="node"><title>4_680_12</title>
<ellipse fill="white" stroke="black" cx="965.5" cy="-239.317" rx="50.41" ry="16.0303"/>
<text text-anchor="middle" x="965.5" y="-235.617" font-family="Times,serif" font-size="14.00">4_680_12</text>
</g>
<!-- 4_680_51x4_680_99&#45;&gt;4_680_12 -->
<g id="edge54" class="edge"><title>4_680_51x4_680_99&#45;&gt;4_680_12</title>
<path fill="none" stroke="black" d="M974.113,-291.771C973.346,-287.188 971.554,-276.483 969.802,-266.018"/>
<polygon fill="black" stroke="black" points="973.206,-265.153 968.103,-255.868 966.302,-266.309 973.206,-265.153"/>
</g>
<!-- 4_680_13 -->
<g id="node58" class="node"><title>4_680_13</title>
<ellipse fill="white" stroke="black" cx="847.5" cy="-239.317" rx="50.41" ry="16.0303"/>
<text text-anchor="middle" x="847.5" y="-235.617" font-family="Times,serif" font-size="14.00">4_680_13</text>
</g>
<!-- 4_680_51x4_680_99&#45;&gt;4_680_13 -->
<g id="edge56" class="edge"><title>4_680_51x4_680_99&#45;&gt;4_680_13</title>
<path fill="none" stroke="black" d="M972.705,-293.321C963.348,-289.36 919.328,-270.724 886.107,-256.661"/>
<polygon fill="black" stroke="black" points="887.202,-253.324 876.629,-252.649 884.473,-259.77 887.202,-253.324"/>
</g>
<!-- 4_680_23 -->
<g id="node63" class="node"><title>4_680_23</title>
<polygon fill="white" stroke="black" points="1105,-250.817 1034,-250.817 1034,-227.817 1105,-227.817 1105,-250.817"/>
<text text-anchor="middle" x="1069.5" y="-235.617" font-family="Times,serif" font-size="14.00">4_680_23</text>
</g>
<!-- 4_680_51x4_680_99&#45;&gt;4_680_23 -->
<g id="edge63" class="edge"><title>4_680_51x4_680_99&#45;&gt;4_680_23</title>
<path fill="none" stroke="black" d="M976.149,-293.148C983.883,-288.771 1017.22,-269.903 1041.86,-255.958"/>
<polygon fill="black" stroke="black" points="1043.83,-258.866 1050.81,-250.895 1040.38,-252.774 1043.83,-258.866"/>
</g>
<!-- 4_680_22 -->
<g id="node65" class="node"><title>4_680_22</title>
<ellipse fill="white" stroke="black" cx="1262.5" cy="-239.317" rx="50.41" ry="16.0303"/>
<text text-anchor="middle" x="1262.5" y="-235.617" font-family="Times,serif" font-size="14.00">4_680_22</text>
</g>
<!-- 4_680_51x4_680_99&#45;&gt;4_680_22 -->
<g id="edge65" class="edge"><title>4_680_51x4_680_99&#45;&gt;4_680_22</title>
<path fill="none" stroke="black" d="M976.76,-293.771C994.25,-291.36 1109.81,-275.163 1202.5,-255.581 1206.64,-254.706 1210.93,-253.739 1215.22,-252.729"/>
<polygon fill="black" stroke="black" points="1216.27,-256.076 1225.16,-250.318 1214.62,-249.273 1216.27,-256.076"/>
</g>
<!-- 4_680_21 -->
<g id="node71" class="node"><title>4_680_21</title>
<ellipse fill="white" stroke="black" cx="729.5" cy="-239.317" rx="50.41" ry="16.0303"/>
<text text-anchor="middle" x="729.5" y="-235.617" font-family="Times,serif" font-size="14.00">4_680_21</text>
</g>
<!-- 4_680_51x4_680_99&#45;&gt;4_680_21 -->
<g id="edge72" class="edge"><title>4_680_51x4_680_99&#45;&gt;4_680_21</title>
<path fill="none" stroke="black" d="M972.28,-293.664C956.822,-290.754 863.656,-273.069 788.5,-255.581 784.668,-254.689 780.704,-253.734 776.728,-252.754"/>
<polygon fill="black" stroke="black" points="777.437,-249.323 766.886,-250.284 775.733,-256.113 777.437,-249.323"/>
</g>
<!-- 4_680_50 -->
<g id="node6" class="node"><title>4_680_50</title>
<polygon fill="dimgrey" stroke="black" points="1970,-362.344 1899,-362.344 1899,-339.344 1970,-339.344 1970,-362.344"/>
<text text-anchor="middle" x="1934.5" y="-347.144" font-family="Times,serif" font-size="14.00">4_680_50</text>
</g>
<!-- 4_680_50x4_680_3 -->
<g id="node8" class="node"><title>4_680_50x4_680_3</title>
<polygon fill="none" stroke="black" points="1914.5,-298.581 1911,-295.081 1914.5,-291.581 1918,-295.081 1914.5,-298.581"/>
</g>
<!-- 4_680_50&#45;&gt;4_680_50x4_680_3 -->
<g id="edge5" class="edge"><title>4_680_50&#45;&gt;4_680_50x4_680_3</title>
<path fill="none" stroke="black" d="M1930.55,-339.222C1927.13,-330.03 1922.2,-316.775 1918.71,-307.388"/>
<polygon fill="black" stroke="black" points="1921.96,-306.095 1915.19,-297.943 1915.4,-308.536 1921.96,-306.095"/>
</g>
<!-- 4_680_58x4_680_55 -->
<g id="node7" class="node"><title>4_680_58x4_680_55</title>
<polygon fill="none" stroke="black" points="1910.5,-410.108 1907,-406.608 1910.5,-403.108 1914,-406.608 1910.5,-410.108"/>
</g>
<!-- 4_680_58x4_680_55&#45;&gt;4_680_50 -->
<g id="edge4" class="edge"><title>4_680_58x4_680_55&#45;&gt;4_680_50</title>
<path fill="none" stroke="black" d="M1911.3,-403.819C1913.53,-398.816 1920.04,-384.229 1925.6,-371.778"/>
<polygon fill="black" stroke="black" points="1928.87,-373.032 1929.75,-362.474 1922.48,-370.179 1928.87,-373.032"/>
</g>
<!-- 4_680_14 -->
<g id="node59" class="node"><title>4_680_14</title>
<polygon fill="white" stroke="black" points="1846,-250.817 1775,-250.817 1775,-227.817 1846,-227.817 1846,-250.817"/>
<text text-anchor="middle" x="1810.5" y="-235.617" font-family="Times,serif" font-size="14.00">4_680_14</text>
</g>
<!-- 4_680_50x4_680_3&#45;&gt;4_680_14 -->
<g id="edge57" class="edge"><title>4_680_50x4_680_3&#45;&gt;4_680_14</title>
<path fill="none" stroke="black" d="M1912.69,-293.148C1904.15,-288.732 1867.09,-269.57 1840.04,-255.591"/>
<polygon fill="black" stroke="black" points="1841.45,-252.378 1830.96,-250.895 1838.24,-258.597 1841.45,-252.378"/>
</g>
<!-- 4_680_16 -->
<g id="node61" class="node"><title>4_680_16</title>
<ellipse fill="white" stroke="black" cx="1914.5" cy="-239.317" rx="50.41" ry="16.0303"/>
<text text-anchor="middle" x="1914.5" y="-235.617" font-family="Times,serif" font-size="14.00">4_680_16</text>
</g>
<!-- 4_680_50x4_680_3&#45;&gt;4_680_16 -->
<g id="edge61" class="edge"><title>4_680_50x4_680_3&#45;&gt;4_680_16</title>
<path fill="none" stroke="black" d="M1914.5,-291.488C1914.5,-286.705 1914.5,-276.035 1914.5,-265.669"/>
<polygon fill="black" stroke="black" points="1918,-265.634 1914.5,-255.634 1911,-265.634 1918,-265.634"/>
</g>
<!-- 4_680_15 -->
<g id="node64" class="node"><title>4_680_15</title>
<ellipse fill="white" stroke="black" cx="2032.5" cy="-239.317" rx="50.41" ry="16.0303"/>
<text text-anchor="middle" x="2032.5" y="-235.617" font-family="Times,serif" font-size="14.00">4_680_15</text>
</g>
<!-- 4_680_50x4_680_3&#45;&gt;4_680_15 -->
<g id="edge64" class="edge"><title>4_680_50x4_680_3&#45;&gt;4_680_15</title>
<path fill="none" stroke="black" d="M1916.55,-293.148C1925.85,-288.907 1965.01,-271.068 1995.27,-257.279"/>
<polygon fill="black" stroke="black" points="1997.09,-260.298 2004.74,-252.967 1994.19,-253.928 1997.09,-260.298"/>
</g>
<!-- 4_680_36 -->
<g id="node9" class="node"><title>4_680_36</title>
<ellipse fill="white" stroke="black" cx="485.5" cy="-16.2635" rx="50.41" ry="16.0303"/>
<text text-anchor="middle" x="485.5" y="-12.5635" font-family="Times,serif" font-size="14.00">4_680_36</text>
</g>
<!-- 4_680_34x4_680_35 -->
<g id="node10" class="node"><title>4_680_34x4_680_35</title>
<polygon fill="none" stroke="black" points="485.5,-75.5269 482,-72.0269 485.5,-68.5269 489,-72.0269 485.5,-75.5269"/>
</g>
<!-- 4_680_34x4_680_35&#45;&gt;4_680_36 -->
<g id="edge6" class="edge"><title>4_680_34x4_680_35&#45;&gt;4_680_36</title>
<path fill="none" stroke="black" d="M485.5,-68.4338C485.5,-63.6514 485.5,-52.9811 485.5,-42.6151"/>
<polygon fill="black" stroke="black" points="489,-42.5799 485.5,-32.58 482,-42.58 489,-42.5799"/>
</g>
<!-- 4_680_35 -->
<g id="node11" class="node"><title>4_680_35</title>
<ellipse fill="white" stroke="black" cx="301.5" cy="-127.79" rx="50.41" ry="16.0303"/>
<text text-anchor="middle" x="301.5" y="-124.09" font-family="Times,serif" font-size="14.00">4_680_35</text>
</g>
<!-- 4_680_35&#45;&gt;4_680_34x4_680_35 -->
<g id="edge7" class="edge"><title>4_680_35&#45;&gt;4_680_34x4_680_35</title>
<path fill="none" stroke="black" d="M337.414,-116.297C379.477,-104.006 446.833,-84.3252 473.791,-76.4483"/>
<polygon fill="black" stroke="black" points="474.874,-79.778 483.491,-73.6138 472.911,-73.059 474.874,-79.778"/>
</g>
<!-- 4_680_51 -->
<g id="node12" class="node"><title>4_680_51</title>
<polygon fill="dimgrey" stroke="black" points="1010,-362.344 939,-362.344 939,-339.344 1010,-339.344 1010,-362.344"/>
<text text-anchor="middle" x="974.5" y="-347.144" font-family="Times,serif" font-size="14.00">4_680_51</text>
</g>
<!-- 4_680_51&#45;&gt;4_680_51x4_680_99 -->
<g id="edge9" class="edge"><title>4_680_51&#45;&gt;4_680_51x4_680_99</title>
<path fill="none" stroke="black" d="M974.5,-339.222C974.5,-330.47 974.5,-318.034 974.5,-308.761"/>
<polygon fill="black" stroke="black" points="978,-308.719 974.5,-298.719 971,-308.719 978,-308.719"/>
</g>
<!-- 4_680_52x4_680_53 -->
<g id="node13" class="node"><title>4_680_52x4_680_53</title>
<polygon fill="none" stroke="black" points="495.5,-410.108 492,-406.608 495.5,-403.108 499,-406.608 495.5,-410.108"/>
</g>
<!-- 4_680_52x4_680_53&#45;&gt;4_680_51 -->
<g id="edge8" class="edge"><title>4_680_52x4_680_53&#45;&gt;4_680_51</title>
<path fill="none" stroke="black" d="M498.292,-405.614C525.85,-405.626 751.86,-404.552 929.5,-367.108 931.972,-366.587 934.497,-365.972 937.026,-365.293"/>
<polygon fill="black" stroke="black" points="938.111,-368.622 946.702,-362.422 936.12,-361.911 938.111,-368.622"/>
</g>
<!-- 4_680_54 -->
<g id="node30" class="node"><title>4_680_54</title>
<polygon fill="white" stroke="black" points="368,-362.344 297,-362.344 297,-339.344 368,-339.344 368,-362.344"/>
<text text-anchor="middle" x="332.5" y="-347.144" font-family="Times,serif" font-size="14.00">4_680_54</text>
</g>
<!-- 4_680_52x4_680_53&#45;&gt;4_680_54 -->
<g id="edge25" class="edge"><title>4_680_52x4_680_53&#45;&gt;4_680_54</title>
<path fill="none" stroke="black" d="M493.551,-404.981C482.301,-401.363 424.528,-382.755 377.5,-367.108 376.081,-366.636 374.638,-366.154 373.18,-365.666"/>
<polygon fill="black" stroke="black" points="374.063,-362.271 363.469,-362.401 371.833,-368.906 374.063,-362.271"/>
</g>
<!-- 4_680_59 -->
<g id="node33" class="node"><title>4_680_59</title>
<ellipse fill="white" stroke="black" cx="436.5" cy="-350.844" rx="50.41" ry="16.0303"/>
<text text-anchor="middle" x="436.5" y="-347.144" font-family="Times,serif" font-size="14.00">4_680_59</text>
</g>
<!-- 4_680_52x4_680_53&#45;&gt;4_680_59 -->
<g id="edge28" class="edge"><title>4_680_52x4_680_53&#45;&gt;4_680_59</title>
<path fill="none" stroke="black" d="M494.042,-404.279C489.324,-399.98 473.994,-386.011 460.343,-373.571"/>
<polygon fill="black" stroke="black" points="462.342,-370.657 452.593,-366.509 457.627,-375.831 462.342,-370.657"/>
</g>
<!-- 4_680_60 -->
<g id="node35" class="node"><title>4_680_60</title>
<ellipse fill="white" stroke="black" cx="554.5" cy="-350.844" rx="50.41" ry="16.0303"/>
<text text-anchor="middle" x="554.5" y="-347.144" font-family="Times,serif" font-size="14.00">4_680_60</text>
</g>
<!-- 4_680_52x4_680_53&#45;&gt;4_680_60 -->
<g id="edge31" class="edge"><title>4_680_52x4_680_53&#45;&gt;4_680_60</title>
<path fill="none" stroke="black" d="M496.958,-404.279C501.676,-399.98 517.006,-386.011 530.657,-373.571"/>
<polygon fill="black" stroke="black" points="533.373,-375.831 538.407,-366.509 528.658,-370.657 533.373,-375.831"/>
</g>
<!-- 4_680_61 -->
<g id="node37" class="node"><title>4_680_61</title>
<ellipse fill="dimgrey" stroke="black" cx="672.5" cy="-350.844" rx="50.41" ry="16.0303"/>
<text text-anchor="middle" x="672.5" y="-347.144" font-family="Times,serif" font-size="14.00">4_680_61</text>
</g>
<!-- 4_680_52x4_680_53&#45;&gt;4_680_61 -->
<g id="edge33" class="edge"><title>4_680_52x4_680_53&#45;&gt;4_680_61</title>
<path fill="none" stroke="black" d="M497.488,-405.004C510.111,-401.17 580.093,-379.913 627.646,-365.468"/>
<polygon fill="black" stroke="black" points="628.874,-368.754 637.425,-362.498 626.839,-362.056 628.874,-368.754"/>
</g>
<!-- 4_680_63 -->
<g id="node38" class="node"><title>4_680_63</title>
<polygon fill="white" stroke="black" points="812,-362.344 741,-362.344 741,-339.344 812,-339.344 812,-362.344"/>
<text text-anchor="middle" x="776.5" y="-347.144" font-family="Times,serif" font-size="14.00">4_680_63</text>
</g>
<!-- 4_680_52x4_680_53&#45;&gt;4_680_63 -->
<g id="edge34" class="edge"><title>4_680_52x4_680_53&#45;&gt;4_680_63</title>
<path fill="none" stroke="black" d="M497.856,-405.373C516.081,-403.531 636.438,-390.811 731.5,-367.108 733.646,-366.572 735.837,-365.982 738.038,-365.354"/>
<polygon fill="black" stroke="black" points="739.122,-368.682 747.661,-362.41 737.075,-361.988 739.122,-368.682"/>
</g>
<!-- 4_680_64 -->
<g id="node39" class="node"><title>4_680_64</title>
<polygon fill="white" stroke="black" points="71,-362.344 0,-362.344 0,-339.344 71,-339.344 71,-362.344"/>
<text text-anchor="middle" x="35.5" y="-347.144" font-family="Times,serif" font-size="14.00">4_680_64</text>
</g>
<!-- 4_680_52x4_680_53&#45;&gt;4_680_64 -->
<g id="edge35" class="edge"><title>4_680_52x4_680_53&#45;&gt;4_680_64</title>
<path fill="none" stroke="black" d="M492.822,-405.607C466.392,-405.547 249.637,-403.922 79.5,-367.108 77.1663,-366.603 74.7855,-366.011 72.3995,-365.36"/>
<polygon fill="black" stroke="black" points="73.2544,-361.962 62.6691,-362.412 71.2252,-368.661 73.2544,-361.962"/>
</g>
<!-- 4_680_65 -->
<g id="node40" class="node"><title>4_680_65</title>
<polygon fill="white" stroke="black" points="160,-362.344 89,-362.344 89,-339.344 160,-339.344 160,-362.344"/>
<text text-anchor="middle" x="124.5" y="-347.144" font-family="Times,serif" font-size="14.00">4_680_65</text>
</g>
<!-- 4_680_52x4_680_53&#45;&gt;4_680_65 -->
<g id="edge36" class="edge"><title>4_680_52x4_680_53&#45;&gt;4_680_65</title>
<path fill="none" stroke="black" d="M492.854,-405.507C469.873,-404.589 301.8,-397.01 169.5,-367.108 167.192,-366.586 164.835,-365.989 162.471,-365.342"/>
<polygon fill="black" stroke="black" points="163.392,-361.964 152.809,-362.448 161.384,-368.67 163.392,-361.964"/>
</g>
<!-- 4_680_62 -->
<g id="node46" class="node"><title>4_680_62</title>
<ellipse fill="white" stroke="black" cx="228.5" cy="-350.844" rx="50.41" ry="16.0303"/>
<text text-anchor="middle" x="228.5" y="-347.144" font-family="Times,serif" font-size="14.00">4_680_62</text>
</g>
<!-- 4_680_52x4_680_53&#45;&gt;4_680_62 -->
<g id="edge44" class="edge"><title>4_680_52x4_680_53&#45;&gt;4_680_62</title>
<path fill="none" stroke="black" d="M493.014,-405.215C475.706,-402.471 371.4,-385.701 287.5,-367.108 283.602,-366.244 279.572,-365.303 275.532,-364.327"/>
<polygon fill="black" stroke="black" points="276.091,-360.859 265.543,-361.85 274.407,-367.654 276.091,-360.859"/>
</g>
<!-- 4_680_34 -->
<g id="node14" class="node"><title>4_680_34</title>
<polygon fill="white" stroke="black" points="706,-139.29 635,-139.29 635,-116.29 706,-116.29 706,-139.29"/>
<text text-anchor="middle" x="670.5" y="-124.09" font-family="Times,serif" font-size="14.00">4_680_34</text>
</g>
<!-- 4_680_34&#45;&gt;4_680_34x4_680_35 -->
<g id="edge11" class="edge"><title>4_680_34&#45;&gt;4_680_34x4_680_35</title>
<path fill="none" stroke="black" d="M634.83,-116.424C592.601,-104.152 524.572,-84.3819 497.334,-76.4659"/>
<polygon fill="black" stroke="black" points="498.11,-73.0467 487.53,-73.6169 496.156,-79.7686 498.11,-73.0467"/>
</g>
<!-- 4_680_33x4_680_12 -->
<g id="node15" class="node"><title>4_680_33x4_680_12</title>
<polygon fill="none" stroke="black" points="965.5,-187.054 962,-183.554 965.5,-180.054 969,-183.554 965.5,-187.054"/>
</g>
<!-- 4_680_33x4_680_12&#45;&gt;4_680_34 -->
<g id="edge10" class="edge"><title>4_680_33x4_680_12&#45;&gt;4_680_34</title>
<path fill="none" stroke="black" d="M963.295,-182.152C943.364,-178.519 793.251,-151.162 716.057,-137.093"/>
<polygon fill="black" stroke="black" points="716.584,-133.632 706.118,-135.282 715.329,-140.518 716.584,-133.632"/>
</g>
<!-- 4_680_33 -->
<g id="node17" class="node"><title>4_680_33</title>
<polygon fill="white" stroke="black" points="1194,-250.817 1123,-250.817 1123,-227.817 1194,-227.817 1194,-250.817"/>
<text text-anchor="middle" x="1158.5" y="-235.617" font-family="Times,serif" font-size="14.00">4_680_33</text>
</g>
<!-- 4_680_33&#45;&gt;4_680_33x4_680_12 -->
<g id="edge13" class="edge"><title>4_680_33&#45;&gt;4_680_33x4_680_12</title>
<path fill="none" stroke="black" d="M1128.1,-227.671C1123.23,-226.065 1118.24,-224.473 1113.5,-223.054 1063.48,-208.086 1002.97,-193.395 977.608,-187.388"/>
<polygon fill="black" stroke="black" points="978.138,-183.918 967.603,-185.04 976.538,-190.732 978.138,-183.918"/>
</g>
<!-- 4_680_31 -->
<g id="node18" class="node"><title>4_680_31</title>
<ellipse fill="white" stroke="black" cx="2150.5" cy="-239.317" rx="50.41" ry="16.0303"/>
<text text-anchor="middle" x="2150.5" y="-235.617" font-family="Times,serif" font-size="14.00">4_680_31</text>
</g>
<!-- 4_680_10x4_680_29 -->
<g id="node19" class="node"><title>4_680_10x4_680_29</title>
<polygon fill="none" stroke="black" points="2202.5,-298.581 2199,-295.081 2202.5,-291.581 2206,-295.081 2202.5,-298.581"/>
</g>
<!-- 4_680_10x4_680_29&#45;&gt;4_680_31 -->
<g id="edge14" class="edge"><title>4_680_10x4_680_29&#45;&gt;4_680_31</title>
<path fill="none" stroke="black" d="M2201.21,-292.752C2197.1,-288.493 2183.8,-274.744 2171.85,-262.394"/>
<polygon fill="black" stroke="black" points="2174.15,-259.736 2164.68,-254.982 2169.12,-264.603 2174.15,-259.736"/>
</g>
<!-- 4_680_30 -->
<g id="node20" class="node"><title>4_680_30</title>
<polygon fill="white" stroke="black" points="2290,-250.817 2219,-250.817 2219,-227.817 2290,-227.817 2290,-250.817"/>
<text text-anchor="middle" x="2254.5" y="-235.617" font-family="Times,serif" font-size="14.00">4_680_30</text>
</g>
<!-- 4_680_10x4_680_29&#45;&gt;4_680_30 -->
<g id="edge15" class="edge"><title>4_680_10x4_680_29&#45;&gt;4_680_30</title>
<path fill="none" stroke="black" d="M2203.79,-292.752C2208.34,-288.048 2224.09,-271.762 2236.84,-258.574"/>
<polygon fill="black" stroke="black" points="2239.46,-260.899 2243.9,-251.278 2234.43,-256.033 2239.46,-260.899"/>
</g>
<!-- 4_680_24 -->
<g id="node62" class="node"><title>4_680_24</title>
<polygon fill="white" stroke="black" points="2379,-250.817 2308,-250.817 2308,-227.817 2379,-227.817 2379,-250.817"/>
<text text-anchor="middle" x="2343.5" y="-235.617" font-family="Times,serif" font-size="14.00">4_680_24</text>
</g>
<!-- 4_680_10x4_680_29&#45;&gt;4_680_24 -->
<g id="edge62" class="edge"><title>4_680_10x4_680_29&#45;&gt;4_680_24</title>
<path fill="none" stroke="black" d="M2204.49,-293.321C2215.4,-289.162 2268.74,-268.825 2306.07,-254.589"/>
<polygon fill="black" stroke="black" points="2307.56,-257.767 2315.66,-250.934 2305.07,-251.227 2307.56,-257.767"/>
</g>
<!-- 4_680_29 -->
<g id="node21" class="node"><title>4_680_29</title>
<ellipse fill="white" stroke="black" cx="2202.5" cy="-350.844" rx="50.41" ry="16.0303"/>
<text text-anchor="middle" x="2202.5" y="-347.144" font-family="Times,serif" font-size="14.00">4_680_29</text>
</g>
<!-- 4_680_29&#45;&gt;4_680_10x4_680_29 -->
<g id="edge16" class="edge"><title>4_680_29&#45;&gt;4_680_10x4_680_29</title>
<path fill="none" stroke="black" d="M2202.5,-334.294C2202.5,-326.188 2202.5,-316.399 2202.5,-308.759"/>
<polygon fill="black" stroke="black" points="2206,-308.604 2202.5,-298.604 2199,-308.604 2206,-308.604"/>
</g>
<!-- 4_680_3&#45;&gt;4_680_50x4_680_3 -->
<g id="edge18" class="edge"><title>4_680_3&#45;&gt;4_680_50x4_680_3</title>
<path fill="none" stroke="black" d="M1785.31,-339.222C1821.35,-327.186 1878.26,-308.184 1902.7,-300.02"/>
<polygon fill="black" stroke="black" points="1904.05,-303.26 1912.43,-296.773 1901.83,-296.62 1904.05,-303.26"/>
</g>
<!-- 4_680_38 -->
<g id="node24" class="node"><title>4_680_38</title>
<ellipse fill="white" stroke="black" cx="167.5" cy="-239.317" rx="50.41" ry="16.0303"/>
<text text-anchor="middle" x="167.5" y="-235.617" font-family="Times,serif" font-size="14.00">4_680_38</text>
</g>
<!-- 4_680_18x4_680_38 -->
<g id="node25" class="node"><title>4_680_18x4_680_38</title>
<polygon fill="none" stroke="black" points="271.5,-187.054 268,-183.554 271.5,-180.054 275,-183.554 271.5,-187.054"/>
</g>
<!-- 4_680_38&#45;&gt;4_680_18x4_680_38 -->
<g id="edge20" class="edge"><title>4_680_38&#45;&gt;4_680_18x4_680_38</title>
<path fill="none" stroke="black" d="M192.941,-225.165C214.409,-214.067 244.133,-198.701 260.162,-190.415"/>
<polygon fill="black" stroke="black" points="262.111,-193.347 269.387,-185.646 258.897,-187.129 262.111,-193.347"/>
</g>
<!-- 4_680_37 -->
<g id="node36" class="node"><title>4_680_37</title>
<ellipse fill="white" stroke="black" cx="419.5" cy="-127.79" rx="50.41" ry="16.0303"/>
<text text-anchor="middle" x="419.5" y="-124.09" font-family="Times,serif" font-size="14.00">4_680_37</text>
</g>
<!-- 4_680_18x4_680_38&#45;&gt;4_680_37 -->
<g id="edge32" class="edge"><title>4_680_18x4_680_38&#45;&gt;4_680_37</title>
<path fill="none" stroke="black" d="M273.592,-181.794C284.831,-177.711 338.983,-158.04 378.037,-143.853"/>
<polygon fill="black" stroke="black" points="379.401,-147.081 387.605,-140.377 377.011,-140.501 379.401,-147.081"/>
</g>
<!-- 4_680_57 -->
<g id="node26" class="node"><title>4_680_57</title>
<ellipse fill="white" stroke="black" cx="988.5" cy="-573.898" rx="50.41" ry="16.0303"/>
<text text-anchor="middle" x="988.5" y="-570.198" font-family="Times,serif" font-size="14.00">4_680_57</text>
</g>
<!-- 4_680_56x4_680_57 -->
<g id="node27" class="node"><title>4_680_56x4_680_57</title>
<polygon fill="none" stroke="black" points="1040.5,-521.635 1037,-518.135 1040.5,-514.635 1044,-518.135 1040.5,-521.635"/>
</g>
<!-- 4_680_57&#45;&gt;4_680_56x4_680_57 -->
<g id="edge21" class="edge"><title>4_680_57&#45;&gt;4_680_56x4_680_57</title>
<path fill="none" stroke="black" d="M1002.71,-558.207C1012.12,-548.481 1024.13,-536.055 1032.06,-527.858"/>
<polygon fill="black" stroke="black" points="1034.82,-530.045 1039.25,-520.424 1029.79,-525.178 1034.82,-530.045"/>
</g>
<!-- 4_680_55 -->
<g id="node29" class="node"><title>4_680_55</title>
<ellipse fill="white" stroke="black" cx="1713.5" cy="-462.371" rx="50.41" ry="16.0303"/>
<text text-anchor="middle" x="1713.5" y="-458.671" font-family="Times,serif" font-size="14.00">4_680_55</text>
</g>
<!-- 4_680_56x4_680_57&#45;&gt;4_680_55 -->
<g id="edge23" class="edge"><title>4_680_56x4_680_57&#45;&gt;4_680_55</title>
<path fill="none" stroke="black" d="M1042.94,-516.94C1078.7,-514.083 1498.43,-480.553 1655.05,-468.04"/>
<polygon fill="black" stroke="black" points="1655.73,-471.497 1665.42,-467.212 1655.18,-464.519 1655.73,-471.497"/>
</g>
<!-- 4_680_53 -->
<g id="node42" class="node"><title>4_680_53</title>
<ellipse fill="white" stroke="black" cx="495.5" cy="-462.371" rx="50.41" ry="16.0303"/>
<text text-anchor="middle" x="495.5" y="-458.671" font-family="Times,serif" font-size="14.00">4_680_53</text>
</g>
<!-- 4_680_56x4_680_57&#45;&gt;4_680_53 -->
<g id="edge39" class="edge"><title>4_680_56x4_680_57&#45;&gt;4_680_53</title>
<path fill="none" stroke="black" d="M1037.76,-517.101C1008.79,-516.707 755.673,-512.361 554.5,-478.635 550.274,-477.926 545.908,-477.06 541.553,-476.103"/>
<polygon fill="black" stroke="black" points="542.016,-472.617 531.481,-473.74 540.417,-479.432 542.016,-472.617"/>
</g>
<!-- 4_680_56 -->
<g id="node28" class="node"><title>4_680_56</title>
<polygon fill="white" stroke="black" points="1128,-585.398 1057,-585.398 1057,-562.398 1128,-562.398 1128,-585.398"/>
<text text-anchor="middle" x="1092.5" y="-570.198" font-family="Times,serif" font-size="14.00">4_680_56</text>
</g>
<!-- 4_680_56&#45;&gt;4_680_56x4_680_57 -->
<g id="edge22" class="edge"><title>4_680_56&#45;&gt;4_680_56x4_680_57</title>
<path fill="none" stroke="black" d="M1082.23,-562.276C1072.56,-552.283 1058.25,-537.487 1049.15,-528.08"/>
<polygon fill="black" stroke="black" points="1051.44,-525.41 1041.97,-520.655 1046.41,-530.276 1051.44,-525.41"/>
</g>
<!-- 4_680_55&#45;&gt;4_680_58x4_680_55 -->
<g id="edge24" class="edge"><title>4_680_55&#45;&gt;4_680_58x4_680_55</title>
<path fill="none" stroke="black" d="M1750.55,-451.259C1795.79,-438.914 1869.81,-418.713 1898.56,-410.867"/>
<polygon fill="black" stroke="black" points="1899.59,-414.213 1908.31,-408.204 1897.75,-407.46 1899.59,-414.213"/>
</g>
<!-- 4_680_54x4_680_6 -->
<g id="node31" class="node"><title>4_680_54x4_680_6</title>
<polygon fill="none" stroke="black" points="434.5,-298.581 431,-295.081 434.5,-291.581 438,-295.081 434.5,-298.581"/>
</g>
<!-- 4_680_54&#45;&gt;4_680_54x4_680_6 -->
<g id="edge26" class="edge"><title>4_680_54&#45;&gt;4_680_54x4_680_6</title>
<path fill="none" stroke="black" d="M352.652,-339.222C373.956,-327.993 406.763,-310.701 423.643,-301.804"/>
<polygon fill="black" stroke="black" points="425.513,-304.774 432.727,-297.015 422.249,-298.582 425.513,-304.774"/>
</g>
<!-- 4_680_20 -->
<g id="node67" class="node"><title>4_680_20</title>
<ellipse fill="white" stroke="black" cx="611.5" cy="-239.317" rx="50.41" ry="16.0303"/>
<text text-anchor="middle" x="611.5" y="-235.617" font-family="Times,serif" font-size="14.00">4_680_20</text>
</g>
<!-- 4_680_54x4_680_6&#45;&gt;4_680_20 -->
<g id="edge67" class="edge"><title>4_680_54x4_680_6&#45;&gt;4_680_20</title>
<path fill="none" stroke="black" d="M436.488,-293.477C449.111,-289.643 519.093,-268.386 566.646,-253.941"/>
<polygon fill="black" stroke="black" points="567.874,-257.227 576.425,-250.971 565.839,-250.529 567.874,-257.227"/>
</g>
<!-- 4_680_19 -->
<g id="node68" class="node"><title>4_680_19</title>
<ellipse fill="white" stroke="black" cx="375.5" cy="-239.317" rx="50.41" ry="16.0303"/>
<text text-anchor="middle" x="375.5" y="-235.617" font-family="Times,serif" font-size="14.00">4_680_19</text>
</g>
<!-- 4_680_54x4_680_6&#45;&gt;4_680_19 -->
<g id="edge68" class="edge"><title>4_680_54x4_680_6&#45;&gt;4_680_19</title>
<path fill="none" stroke="black" d="M433.042,-292.752C428.324,-288.453 412.994,-274.484 399.343,-262.044"/>
<polygon fill="black" stroke="black" points="401.342,-259.13 391.593,-254.982 396.627,-264.304 401.342,-259.13"/>
</g>
<!-- 4_680_18 -->
<g id="node69" class="node"><title>4_680_18</title>
<polygon fill="white" stroke="black" points="307,-250.817 236,-250.817 236,-227.817 307,-227.817 307,-250.817"/>
<text text-anchor="middle" x="271.5" y="-235.617" font-family="Times,serif" font-size="14.00">4_680_18</text>
</g>
<!-- 4_680_54x4_680_6&#45;&gt;4_680_18 -->
<g id="edge69" class="edge"><title>4_680_54x4_680_6&#45;&gt;4_680_18</title>
<path fill="none" stroke="black" d="M432.551,-293.454C421.301,-289.836 363.528,-271.228 316.5,-255.581 315.081,-255.109 313.638,-254.627 312.18,-254.139"/>
<polygon fill="black" stroke="black" points="313.063,-250.744 302.469,-250.874 310.833,-257.379 313.063,-250.744"/>
</g>
<!-- 4_680_17 -->
<g id="node70" class="node"><title>4_680_17</title>
<ellipse fill="white" stroke="black" cx="493.5" cy="-239.317" rx="50.41" ry="16.0303"/>
<text text-anchor="middle" x="493.5" y="-235.617" font-family="Times,serif" font-size="14.00">4_680_17</text>
</g>
<!-- 4_680_54x4_680_6&#45;&gt;4_680_17 -->
<g id="edge71" class="edge"><title>4_680_54x4_680_6&#45;&gt;4_680_17</title>
<path fill="none" stroke="black" d="M435.958,-292.752C440.676,-288.453 456.006,-274.484 469.657,-262.044"/>
<polygon fill="black" stroke="black" points="472.373,-264.304 477.407,-254.982 467.658,-259.13 472.373,-264.304"/>
</g>
<!-- 4_680_58 -->
<g id="node32" class="node"><title>4_680_58</title>
<polygon fill="white" stroke="black" points="1946,-473.871 1875,-473.871 1875,-450.871 1946,-450.871 1946,-473.871"/>
<text text-anchor="middle" x="1910.5" y="-458.671" font-family="Times,serif" font-size="14.00">4_680_58</text>
</g>
<!-- 4_680_58&#45;&gt;4_680_58x4_680_55 -->
<g id="edge27" class="edge"><title>4_680_58&#45;&gt;4_680_58x4_680_55</title>
<path fill="none" stroke="black" d="M1910.5,-450.749C1910.5,-441.997 1910.5,-429.561 1910.5,-420.288"/>
<polygon fill="black" stroke="black" points="1914,-420.246 1910.5,-410.246 1907,-420.246 1914,-420.246"/>
</g>
<!-- 4_680_6&#45;&gt;4_680_54x4_680_6 -->
<g id="edge30" class="edge"><title>4_680_6&#45;&gt;4_680_54x4_680_6</title>
<path fill="none" stroke="black" d="M842.267,-339.637C835.138,-337.725 827.61,-335.912 820.5,-334.581 675.281,-307.396 495.495,-298.53 447.024,-296.55"/>
<polygon fill="black" stroke="black" points="447.1,-293.05 436.973,-296.165 446.832,-300.045 447.1,-293.05"/>
</g>
<!-- 4_680_8&#45;&gt;4_680_8x4_680_28 -->
<g id="edge38" class="edge"><title>4_680_8&#45;&gt;4_680_8x4_680_28</title>
<path fill="none" stroke="black" d="M1630.81,-339.217C1626.38,-337.608 1621.83,-336.01 1617.5,-334.581 1573.41,-320.015 1520.13,-305.511 1496.64,-299.268"/>
<polygon fill="black" stroke="black" points="1497.27,-295.817 1486.71,-296.655 1495.49,-302.586 1497.27,-295.817"/>
</g>
<!-- 4_680_53&#45;&gt;4_680_52x4_680_53 -->
<g id="edge40" class="edge"><title>4_680_53&#45;&gt;4_680_52x4_680_53</title>
<path fill="none" stroke="black" d="M495.5,-445.82C495.5,-437.715 495.5,-427.926 495.5,-420.286"/>
<polygon fill="black" stroke="black" points="499,-420.131 495.5,-410.131 492,-420.131 499,-420.131"/>
</g>
<!-- 4_680_52 -->
<g id="node43" class="node"><title>4_680_52</title>
<polygon fill="white" stroke="black" points="635,-473.871 564,-473.871 564,-450.871 635,-450.871 635,-473.871"/>
<text text-anchor="middle" x="599.5" y="-458.671" font-family="Times,serif" font-size="14.00">4_680_52</text>
</g>
<!-- 4_680_52&#45;&gt;4_680_52x4_680_53 -->
<g id="edge41" class="edge"><title>4_680_52&#45;&gt;4_680_52x4_680_53</title>
<path fill="none" stroke="black" d="M578.953,-450.749C557.126,-439.466 523.456,-422.06 506.321,-413.201"/>
<polygon fill="black" stroke="black" points="507.798,-410.025 497.308,-408.542 504.584,-416.244 507.798,-410.025"/>
</g>
<!-- 4_680_2 -->
<g id="node48" class="node"><title>4_680_2</title>
<ellipse fill="white" stroke="black" cx="1332.5" cy="-462.371" rx="45.011" ry="16.0303"/>
<text text-anchor="middle" x="1332.5" y="-458.671" font-family="Times,serif" font-size="14.00">4_680_2</text>
</g>
<!-- 4_680_2&#45;&gt;4_680_1x4_680_2 -->
<g id="edge46" class="edge"><title>4_680_2&#45;&gt;4_680_1x4_680_2</title>
<path fill="none" stroke="black" d="M1351.04,-447.526C1364.93,-437.152 1383.41,-423.36 1394.6,-415.001"/>
<polygon fill="black" stroke="black" points="1396.79,-417.729 1402.71,-408.942 1392.61,-412.12 1396.79,-417.729"/>
</g>
<!-- 4_680_67 -->
<g id="node50" class="node"><title>4_680_67</title>
<polygon fill="white" stroke="black" points="1705,-139.29 1634,-139.29 1634,-116.29 1705,-116.29 1705,-139.29"/>
<text text-anchor="middle" x="1669.5" y="-124.09" font-family="Times,serif" font-size="14.00">4_680_67</text>
</g>
<!-- 4_680_14x4_680_66 -->
<g id="node51" class="node"><title>4_680_14x4_680_66</title>
<polygon fill="none" stroke="black" points="1758.5,-187.054 1755,-183.554 1758.5,-180.054 1762,-183.554 1758.5,-187.054"/>
</g>
<!-- 4_680_14x4_680_66&#45;&gt;4_680_67 -->
<g id="edge48" class="edge"><title>4_680_14x4_680_66&#45;&gt;4_680_67</title>
<path fill="none" stroke="black" d="M1756.64,-181.431C1748.88,-176.745 1718.44,-158.356 1695.71,-144.624"/>
<polygon fill="black" stroke="black" points="1697.51,-141.619 1687.14,-139.444 1693.89,-147.611 1697.51,-141.619"/>
</g>
<!-- 4_680_68 -->
<g id="node55" class="node"><title>4_680_68</title>
<polygon fill="white" stroke="black" points="1794,-139.29 1723,-139.29 1723,-116.29 1794,-116.29 1794,-139.29"/>
<text text-anchor="middle" x="1758.5" y="-124.09" font-family="Times,serif" font-size="14.00">4_680_68</text>
</g>
<!-- 4_680_14x4_680_66&#45;&gt;4_680_68 -->
<g id="edge52" class="edge"><title>4_680_14x4_680_66&#45;&gt;4_680_68</title>
<path fill="none" stroke="black" d="M1758.5,-179.961C1758.5,-174.493 1758.5,-161.327 1758.5,-149.721"/>
<polygon fill="black" stroke="black" points="1762,-149.372 1758.5,-139.372 1755,-149.372 1762,-149.372"/>
</g>
<!-- 4_680_69 -->
<g id="node66" class="node"><title>4_680_69</title>
<polygon fill="white" stroke="black" points="1883,-139.29 1812,-139.29 1812,-116.29 1883,-116.29 1883,-139.29"/>
<text text-anchor="middle" x="1847.5" y="-124.09" font-family="Times,serif" font-size="14.00">4_680_69</text>
</g>
<!-- 4_680_14x4_680_66&#45;&gt;4_680_69 -->
<g id="edge66" class="edge"><title>4_680_14x4_680_66&#45;&gt;4_680_69</title>
<path fill="none" stroke="black" d="M1760.36,-181.431C1768.12,-176.745 1798.56,-158.356 1821.29,-144.624"/>
<polygon fill="black" stroke="black" points="1823.11,-147.611 1829.86,-139.444 1819.49,-141.619 1823.11,-147.611"/>
</g>
<!-- 4_680_66 -->
<g id="node52" class="node"><title>4_680_66</title>
<ellipse fill="white" stroke="black" cx="1706.5" cy="-239.317" rx="50.41" ry="16.0303"/>
<text text-anchor="middle" x="1706.5" y="-235.617" font-family="Times,serif" font-size="14.00">4_680_66</text>
</g>
<!-- 4_680_66&#45;&gt;4_680_14x4_680_66 -->
<g id="edge49" class="edge"><title>4_680_66&#45;&gt;4_680_14x4_680_66</title>
<path fill="none" stroke="black" d="M1720.71,-223.626C1730.12,-213.901 1742.13,-201.474 1750.06,-193.278"/>
<polygon fill="black" stroke="black" points="1752.82,-195.464 1757.25,-185.843 1747.79,-190.598 1752.82,-195.464"/>
</g>
<!-- 4_680_1 -->
<g id="node54" class="node"><title>4_680_1</title>
<polygon fill="white" stroke="black" points="1459.5,-473.871 1395.5,-473.871 1395.5,-450.871 1459.5,-450.871 1459.5,-473.871"/>
<text text-anchor="middle" x="1427.5" y="-458.671" font-family="Times,serif" font-size="14.00">4_680_1</text>
</g>
<!-- 4_680_1&#45;&gt;4_680_1x4_680_2 -->
<g id="edge51" class="edge"><title>4_680_1&#45;&gt;4_680_1x4_680_2</title>
<path fill="none" stroke="black" d="M1422.96,-450.749C1419.02,-441.557 1413.35,-428.302 1409.34,-418.915"/>
<polygon fill="black" stroke="black" points="1412.45,-417.287 1405.3,-409.47 1406.01,-420.041 1412.45,-417.287"/>
</g>
<!-- 4_680_12&#45;&gt;4_680_33x4_680_12 -->
<g id="edge55" class="edge"><title>4_680_12&#45;&gt;4_680_33x4_680_12</title>
<path fill="none" stroke="black" d="M965.5,-222.767C965.5,-214.661 965.5,-204.872 965.5,-197.232"/>
<polygon fill="black" stroke="black" points="969,-197.077 965.5,-187.077 962,-197.077 969,-197.077"/>
</g>
<!-- 4_680_14&#45;&gt;4_680_14x4_680_66 -->
<g id="edge58" class="edge"><title>4_680_14&#45;&gt;4_680_14x4_680_66</title>
<path fill="none" stroke="black" d="M1800.23,-227.695C1790.56,-217.702 1776.25,-202.906 1767.15,-193.499"/>
<polygon fill="black" stroke="black" points="1769.44,-190.829 1759.97,-186.074 1764.41,-195.696 1769.44,-190.829"/>
</g>
<!-- 4_680_10&#45;&gt;4_680_10x4_680_29 -->
<g id="edge60" class="edge"><title>4_680_10&#45;&gt;4_680_10x4_680_29</title>
<path fill="none" stroke="black" d="M2113.43,-339.222C2136.95,-327.83 2173.36,-310.196 2191.48,-301.42"/>
<polygon fill="black" stroke="black" points="2193.1,-304.524 2200.57,-297.015 2190.04,-298.225 2193.1,-304.524"/>
</g>
<!-- 4_680_18&#45;&gt;4_680_18x4_680_38 -->
<g id="edge70" class="edge"><title>4_680_18&#45;&gt;4_680_18x4_680_38</title>
<path fill="none" stroke="black" d="M271.5,-227.695C271.5,-218.943 271.5,-206.507 271.5,-197.234"/>
<polygon fill="black" stroke="black" points="275,-197.192 271.5,-187.192 268,-197.193 275,-197.192"/>
</g>
</g>
</svg>
