<?xml version="1.0" encoding="UTF-8" standalone="no"?>
<!DOCTYPE svg PUBLIC "-//W3C//DTD SVG 1.1//EN"
 "http://www.w3.org/Graphics/SVG/1.1/DTD/svg11.dtd">
<!-- Generated by graphviz version 2.38.0 (20140413.2041)
 -->
<!-- Title: %3 Pages: 1 -->
<svg width="3125pt" height="375pt"
 viewBox="0.00 0.00 3124.50 375.11" xmlns="http://www.w3.org/2000/svg" xmlns:xlink="http://www.w3.org/1999/xlink">
<g id="graph0" class="graph" transform="scale(1 1) rotate(0) translate(4 371.108)">
<title>%3</title>
<polygon fill="white" stroke="none" points="-4,4 -4,-371.108 3120.5,-371.108 3120.5,4 -4,4"/>
<!-- 10R_R78_14 -->
<g id="node1" class="node"><title>10R_R78_14</title>
<polygon fill="white" stroke="black" points="89.5,-27.7635 0.5,-27.7635 0.5,-4.76346 89.5,-4.76346 89.5,-27.7635"/>
<text text-anchor="middle" x="45" y="-12.5635" font-family="Times,serif" font-size="14.00">10R_R78_14</text>
</g>
<!-- 10R_R78_2x10R_R78_1 -->
<g id="node2" class="node"><title>10R_R78_2x10R_R78_1</title>
<polygon fill="none" stroke="black" points="81,-75.5269 77.5,-72.0269 81,-68.5269 84.5,-72.0269 81,-75.5269"/>
</g>
<!-- 10R_R78_2x10R_R78_1&#45;&gt;10R_R78_14 -->
<g id="edge1" class="edge"><title>10R_R78_2x10R_R78_1&#45;&gt;10R_R78_14</title>
<path fill="none" stroke="black" d="M79.8022,-69.2381C76.3858,-64.1359 66.2958,-49.0672 57.8542,-36.4603"/>
<polygon fill="black" stroke="black" points="60.59,-34.2553 52.1178,-27.8934 54.7735,-38.15 60.59,-34.2553"/>
</g>
<!-- 10R_R78_16 -->
<g id="node53" class="node"><title>10R_R78_16</title>
<ellipse fill="white" stroke="black" cx="170" cy="-16.2635" rx="62.8651" ry="16.0303"/>
<text text-anchor="middle" x="170" y="-12.5635" font-family="Times,serif" font-size="14.00">10R_R78_16</text>
</g>
<!-- 10R_R78_2x10R_R78_1&#45;&gt;10R_R78_16 -->
<g id="edge47" class="edge"><title>10R_R78_2x10R_R78_1&#45;&gt;10R_R78_16</title>
<path fill="none" stroke="black" d="M82.8589,-69.904C89.9673,-65.6099 116.125,-49.8086 137.943,-36.6287"/>
<polygon fill="black" stroke="black" points="139.903,-39.5337 146.653,-31.3672 136.283,-33.5421 139.903,-39.5337"/>
</g>
<!-- 10R_R78_36 -->
<g id="node3" class="node"><title>10R_R78_36</title>
<ellipse fill="#66cdaa" stroke="black" cx="2376" cy="-127.79" rx="62.8651" ry="16.0303"/>
<text text-anchor="middle" x="2376" y="-124.09" font-family="Times,serif" font-size="14.00">10R_R78_36</text>
</g>
<!-- 10R_R78_35x10R_R78_36 -->
<g id="node4" class="node"><title>10R_R78_35x10R_R78_36</title>
<polygon fill="none" stroke="black" points="2448,-75.5269 2444.5,-72.0269 2448,-68.5269 2451.5,-72.0269 2448,-75.5269"/>
</g>
<!-- 10R_R78_36&#45;&gt;10R_R78_35x10R_R78_36 -->
<g id="edge2" class="edge"><title>10R_R78_36&#45;&gt;10R_R78_35x10R_R78_36</title>
<path fill="none" stroke="black" d="M2395.67,-112.099C2409.41,-101.839 2427.18,-88.5737 2438.07,-80.439"/>
<polygon fill="black" stroke="black" points="2440.36,-83.1036 2446.27,-74.316 2436.17,-77.4948 2440.36,-83.1036"/>
</g>
<!-- 10R_R78_38 -->
<g id="node27" class="node"><title>10R_R78_38</title>
<polygon fill="white" stroke="black" points="2492.5,-27.7635 2403.5,-27.7635 2403.5,-4.76346 2492.5,-4.76346 2492.5,-27.7635"/>
<text text-anchor="middle" x="2448" y="-12.5635" font-family="Times,serif" font-size="14.00">10R_R78_38</text>
</g>
<!-- 10R_R78_35x10R_R78_36&#45;&gt;10R_R78_38 -->
<g id="edge19" class="edge"><title>10R_R78_35x10R_R78_36&#45;&gt;10R_R78_38</title>
<path fill="none" stroke="black" d="M2448,-68.4338C2448,-62.9657 2448,-49.8005 2448,-38.1938"/>
<polygon fill="black" stroke="black" points="2451.5,-37.8452 2448,-27.8453 2444.5,-37.8453 2451.5,-37.8452"/>
</g>
<!-- 10R_R78_28 -->
<g id="node5" class="node"><title>10R_R78_28</title>
<polygon fill="dimgrey" stroke="black" points="1545.5,-139.29 1456.5,-139.29 1456.5,-116.29 1545.5,-116.29 1545.5,-139.29"/>
<text text-anchor="middle" x="1501" y="-124.09" font-family="Times,serif" font-size="14.00">10R_R78_28</text>
</g>
<!-- 10R_R78_28x10R_R78_29 -->
<g id="node7" class="node"><title>10R_R78_28x10R_R78_29</title>
<polygon fill="none" stroke="black" points="1576,-75.5269 1572.5,-72.0269 1576,-68.5269 1579.5,-72.0269 1576,-75.5269"/>
</g>
<!-- 10R_R78_28&#45;&gt;10R_R78_28x10R_R78_29 -->
<g id="edge4" class="edge"><title>10R_R78_28&#45;&gt;10R_R78_28x10R_R78_29</title>
<path fill="none" stroke="black" d="M1515.82,-116.168C1530.61,-105.565 1552.94,-89.5545 1565.84,-80.312"/>
<polygon fill="black" stroke="black" points="1568.22,-82.9088 1574.31,-74.238 1564.14,-77.2196 1568.22,-82.9088"/>
</g>
<!-- 10R_R78_51x10R_R78_50 -->
<g id="node6" class="node"><title>10R_R78_51x10R_R78_50</title>
<polygon fill="none" stroke="black" points="2376,-187.054 2372.5,-183.554 2376,-180.054 2379.5,-183.554 2376,-187.054"/>
</g>
<!-- 10R_R78_51x10R_R78_50&#45;&gt;10R_R78_28 -->
<g id="edge3" class="edge"><title>10R_R78_51x10R_R78_50&#45;&gt;10R_R78_28</title>
<path fill="none" stroke="black" d="M2373.41,-182.517C2329.02,-181.878 1727.73,-172.733 1554,-144.054 1550.34,-143.449 1546.57,-142.677 1542.81,-141.803"/>
<polygon fill="black" stroke="black" points="1543.51,-138.371 1532.96,-139.293 1541.78,-145.154 1543.51,-138.371"/>
</g>
<!-- 10R_R78_21 -->
<g id="node20" class="node"><title>10R_R78_21</title>
<ellipse fill="dimgrey" stroke="black" cx="1876" cy="-127.79" rx="62.8651" ry="16.0303"/>
<text text-anchor="middle" x="1876" y="-124.09" font-family="Times,serif" font-size="14.00">10R_R78_21</text>
</g>
<!-- 10R_R78_51x10R_R78_50&#45;&gt;10R_R78_21 -->
<g id="edge13" class="edge"><title>10R_R78_51x10R_R78_50&#45;&gt;10R_R78_21</title>
<path fill="none" stroke="black" d="M2373.6,-182.448C2348.15,-181.309 2125.8,-170.799 1948,-144.054 1942.55,-143.234 1936.89,-142.257 1931.26,-141.2"/>
<polygon fill="black" stroke="black" points="1931.66,-137.712 1921.17,-139.226 1930.31,-144.582 1931.66,-137.712"/>
</g>
<!-- 10R_R78_20 -->
<g id="node23" class="node"><title>10R_R78_20</title>
<polygon fill="dimgrey" stroke="black" points="2045.5,-139.29 1956.5,-139.29 1956.5,-116.29 2045.5,-116.29 2045.5,-139.29"/>
<text text-anchor="middle" x="2001" y="-124.09" font-family="Times,serif" font-size="14.00">10R_R78_20</text>
</g>
<!-- 10R_R78_51x10R_R78_50&#45;&gt;10R_R78_20 -->
<g id="edge16" class="edge"><title>10R_R78_51x10R_R78_50&#45;&gt;10R_R78_20</title>
<path fill="none" stroke="black" d="M2373.4,-182.404C2350.78,-181.068 2185.33,-170.636 2054,-144.054 2050.81,-143.408 2047.53,-142.664 2044.24,-141.861"/>
<polygon fill="black" stroke="black" points="2045,-138.441 2034.44,-139.305 2043.24,-145.215 2045,-138.441"/>
</g>
<!-- 10R_R78_33 -->
<g id="node34" class="node"><title>10R_R78_33</title>
<polygon fill="dimgrey" stroke="black" points="2295.5,-139.29 2206.5,-139.29 2206.5,-116.29 2295.5,-116.29 2295.5,-139.29"/>
<text text-anchor="middle" x="2251" y="-124.09" font-family="Times,serif" font-size="14.00">10R_R78_33</text>
</g>
<!-- 10R_R78_51x10R_R78_50&#45;&gt;10R_R78_33 -->
<g id="edge26" class="edge"><title>10R_R78_51x10R_R78_50&#45;&gt;10R_R78_33</title>
<path fill="none" stroke="black" d="M2374.23,-181.794C2364.65,-177.67 2318.08,-157.643 2285.03,-143.426"/>
<polygon fill="black" stroke="black" points="2286.25,-140.143 2275.68,-139.407 2283.49,-146.574 2286.25,-140.143"/>
</g>
<!-- 10R_R78_35 -->
<g id="node39" class="node"><title>10R_R78_35</title>
<polygon fill="dimgrey" stroke="black" points="2545.5,-139.29 2456.5,-139.29 2456.5,-116.29 2545.5,-116.29 2545.5,-139.29"/>
<text text-anchor="middle" x="2501" y="-124.09" font-family="Times,serif" font-size="14.00">10R_R78_35</text>
</g>
<!-- 10R_R78_51x10R_R78_50&#45;&gt;10R_R78_35 -->
<g id="edge32" class="edge"><title>10R_R78_51x10R_R78_50&#45;&gt;10R_R78_35</title>
<path fill="none" stroke="black" d="M2377.77,-181.794C2387.35,-177.67 2433.92,-157.643 2466.97,-143.426"/>
<polygon fill="black" stroke="black" points="2468.51,-146.574 2476.32,-139.407 2465.75,-140.143 2468.51,-146.574"/>
</g>
<!-- 10R_R78_30 -->
<g id="node42" class="node"><title>10R_R78_30</title>
<ellipse fill="white" stroke="black" cx="2626" cy="-127.79" rx="62.8651" ry="16.0303"/>
<text text-anchor="middle" x="2626" y="-124.09" font-family="Times,serif" font-size="14.00">10R_R78_30</text>
</g>
<!-- 10R_R78_51x10R_R78_50&#45;&gt;10R_R78_30 -->
<g id="edge37" class="edge"><title>10R_R78_51x10R_R78_50&#45;&gt;10R_R78_30</title>
<path fill="none" stroke="black" d="M2378.16,-182.089C2394.62,-178.55 2501.31,-155.606 2569.24,-140.998"/>
<polygon fill="black" stroke="black" points="2570.33,-144.342 2579.37,-138.818 2568.86,-137.498 2570.33,-144.342"/>
</g>
<!-- 10R_R78_32 -->
<g id="node47" class="node"><title>10R_R78_32</title>
<polygon fill="#66cdaa" stroke="black" points="2902.5,-139.29 2813.5,-139.29 2813.5,-116.29 2902.5,-116.29 2902.5,-139.29"/>
<text text-anchor="middle" x="2858" y="-124.09" font-family="Times,serif" font-size="14.00">10R_R78_32</text>
</g>
<!-- 10R_R78_51x10R_R78_50&#45;&gt;10R_R78_32 -->
<g id="edge41" class="edge"><title>10R_R78_51x10R_R78_50&#45;&gt;10R_R78_32</title>
<path fill="none" stroke="black" d="M2378.75,-182.508C2405.9,-182.017 2628.59,-177.058 2805,-144.054 2808.4,-143.418 2811.89,-142.658 2815.38,-141.822"/>
<polygon fill="black" stroke="black" points="2816.35,-145.189 2825.15,-139.302 2814.6,-138.41 2816.35,-145.189"/>
</g>
<!-- 10R_R78_37 -->
<g id="node49" class="node"><title>10R_R78_37</title>
<polygon fill="#66cdaa" stroke="black" points="3009.5,-139.29 2920.5,-139.29 2920.5,-116.29 3009.5,-116.29 3009.5,-139.29"/>
<text text-anchor="middle" x="2965" y="-124.09" font-family="Times,serif" font-size="14.00">10R_R78_37</text>
</g>
<!-- 10R_R78_51x10R_R78_50&#45;&gt;10R_R78_37 -->
<g id="edge43" class="edge"><title>10R_R78_51x10R_R78_50&#45;&gt;10R_R78_37</title>
<path fill="none" stroke="black" d="M2378.64,-182.576C2408.71,-182.783 2689.72,-183.597 2912,-144.054 2915.45,-143.44 2919,-142.689 2922.55,-141.854"/>
<polygon fill="black" stroke="black" points="2923.64,-145.188 2932.46,-139.317 2921.9,-138.406 2923.64,-145.188"/>
</g>
<!-- 10R_R78_31 -->
<g id="node51" class="node"><title>10R_R78_31</title>
<polygon fill="#66cdaa" stroke="black" points="3116.5,-139.29 3027.5,-139.29 3027.5,-116.29 3116.5,-116.29 3116.5,-139.29"/>
<text text-anchor="middle" x="3072" y="-124.09" font-family="Times,serif" font-size="14.00">10R_R78_31</text>
</g>
<!-- 10R_R78_51x10R_R78_50&#45;&gt;10R_R78_31 -->
<g id="edge45" class="edge"><title>10R_R78_51x10R_R78_50&#45;&gt;10R_R78_31</title>
<path fill="none" stroke="black" d="M2378.73,-182.622C2412.45,-183.415 2751.17,-190.057 3019,-144.054 3022.61,-143.434 3026.32,-142.658 3030.03,-141.788"/>
<polygon fill="black" stroke="black" points="3030.93,-145.171 3039.75,-139.302 3029.19,-138.389 3030.93,-145.171"/>
</g>
<!-- 10R_R78_46 -->
<g id="node55" class="node"><title>10R_R78_46</title>
<ellipse fill="white" stroke="black" cx="1576" cy="-16.2635" rx="62.8651" ry="16.0303"/>
<text text-anchor="middle" x="1576" y="-12.5635" font-family="Times,serif" font-size="14.00">10R_R78_46</text>
</g>
<!-- 10R_R78_28x10R_R78_29&#45;&gt;10R_R78_46 -->
<g id="edge49" class="edge"><title>10R_R78_28x10R_R78_29&#45;&gt;10R_R78_46</title>
<path fill="none" stroke="black" d="M1576,-68.4338C1576,-63.6514 1576,-52.9811 1576,-42.6151"/>
<polygon fill="black" stroke="black" points="1579.5,-42.5799 1576,-32.58 1572.5,-42.58 1579.5,-42.5799"/>
</g>
<!-- 10R_R78_9 -->
<g id="node8" class="node"><title>10R_R78_9</title>
<polygon fill="white" stroke="black" points="316,-139.29 234,-139.29 234,-116.29 316,-116.29 316,-139.29"/>
<text text-anchor="middle" x="275" y="-124.09" font-family="Times,serif" font-size="14.00">10R_R78_9</text>
</g>
<!-- 10R_R78_9x10R_R78_44 -->
<g id="node10" class="node"><title>10R_R78_9x10R_R78_44</title>
<polygon fill="none" stroke="black" points="354,-75.5269 350.5,-72.0269 354,-68.5269 357.5,-72.0269 354,-75.5269"/>
</g>
<!-- 10R_R78_9&#45;&gt;10R_R78_9x10R_R78_44 -->
<g id="edge6" class="edge"><title>10R_R78_9&#45;&gt;10R_R78_9x10R_R78_44</title>
<path fill="none" stroke="black" d="M290.608,-116.168C306.346,-105.458 330.19,-89.2305 343.704,-80.034"/>
<polygon fill="black" stroke="black" points="345.922,-82.7578 352.22,-74.238 341.984,-76.9707 345.922,-82.7578"/>
</g>
<!-- 10R_R78_4x10R_R78_3 -->
<g id="node9" class="node"><title>10R_R78_4x10R_R78_3</title>
<polygon fill="none" stroke="black" points="776,-187.054 772.5,-183.554 776,-180.054 779.5,-183.554 776,-187.054"/>
</g>
<!-- 10R_R78_4x10R_R78_3&#45;&gt;10R_R78_9 -->
<g id="edge5" class="edge"><title>10R_R78_4x10R_R78_3&#45;&gt;10R_R78_9</title>
<path fill="none" stroke="black" d="M773.452,-182.543C746.488,-182.381 510.952,-179.955 325,-144.054 321.978,-143.47 318.88,-142.774 315.779,-142.004"/>
<polygon fill="black" stroke="black" points="316.517,-138.578 305.95,-139.347 314.69,-145.336 316.517,-138.578"/>
</g>
<!-- 10R_R78_5 -->
<g id="node45" class="node"><title>10R_R78_5</title>
<polygon fill="#66cdaa" stroke="black" points="560,-139.29 478,-139.29 478,-116.29 560,-116.29 560,-139.29"/>
<text text-anchor="middle" x="519" y="-124.09" font-family="Times,serif" font-size="14.00">10R_R78_5</text>
</g>
<!-- 10R_R78_4x10R_R78_3&#45;&gt;10R_R78_5 -->
<g id="edge39" class="edge"><title>10R_R78_4x10R_R78_3&#45;&gt;10R_R78_5</title>
<path fill="none" stroke="black" d="M773.517,-182.2C756.23,-179.717 652.082,-164.393 569,-144.054 566.532,-143.45 564.005,-142.795 561.463,-142.108"/>
<polygon fill="black" stroke="black" points="562.242,-138.691 551.667,-139.338 560.337,-145.427 562.242,-138.691"/>
</g>
<!-- 10R_R78_13 -->
<g id="node46" class="node"><title>10R_R78_13</title>
<ellipse fill="#66cdaa" stroke="black" cx="641" cy="-127.79" rx="62.8651" ry="16.0303"/>
<text text-anchor="middle" x="641" y="-124.09" font-family="Times,serif" font-size="14.00">10R_R78_13</text>
</g>
<!-- 10R_R78_4x10R_R78_3&#45;&gt;10R_R78_13 -->
<g id="edge40" class="edge"><title>10R_R78_4x10R_R78_3&#45;&gt;10R_R78_13</title>
<path fill="none" stroke="black" d="M774.092,-181.794C764.249,-177.874 718.325,-159.585 683.148,-145.576"/>
<polygon fill="black" stroke="black" points="684.136,-142.202 673.551,-141.754 681.546,-148.705 684.136,-142.202"/>
</g>
<!-- 10R_R78_12 -->
<g id="node60" class="node"><title>10R_R78_12</title>
<polygon fill="white" stroke="black" points="954.5,-139.29 865.5,-139.29 865.5,-116.29 954.5,-116.29 954.5,-139.29"/>
<text text-anchor="middle" x="910" y="-124.09" font-family="Times,serif" font-size="14.00">10R_R78_12</text>
</g>
<!-- 10R_R78_4x10R_R78_3&#45;&gt;10R_R78_12 -->
<g id="edge54" class="edge"><title>10R_R78_4x10R_R78_3&#45;&gt;10R_R78_12</title>
<path fill="none" stroke="black" d="M777.894,-181.794C788.217,-177.652 838.518,-157.471 873.976,-143.244"/>
<polygon fill="black" stroke="black" points="875.561,-146.379 883.538,-139.407 872.954,-139.883 875.561,-146.379"/>
</g>
<!-- 10R_R78_10 -->
<g id="node61" class="node"><title>10R_R78_10</title>
<ellipse fill="white" stroke="black" cx="1142" cy="-127.79" rx="62.8651" ry="16.0303"/>
<text text-anchor="middle" x="1142" y="-124.09" font-family="Times,serif" font-size="14.00">10R_R78_10</text>
</g>
<!-- 10R_R78_4x10R_R78_3&#45;&gt;10R_R78_10 -->
<g id="edge56" class="edge"><title>10R_R78_4x10R_R78_3&#45;&gt;10R_R78_10</title>
<path fill="none" stroke="black" d="M778.374,-182.319C798.991,-180.268 949.862,-164.943 1071,-144.054 1076.07,-143.179 1081.33,-142.195 1086.59,-141.159"/>
<polygon fill="black" stroke="black" points="1087.55,-144.536 1096.66,-139.117 1086.16,-137.676 1087.55,-144.536"/>
</g>
<!-- 10R_R78_6 -->
<g id="node62" class="node"><title>10R_R78_6</title>
<ellipse fill="dimgrey" stroke="black" cx="1381" cy="-127.79" rx="57.9655" ry="16.0303"/>
<text text-anchor="middle" x="1381" y="-124.09" font-family="Times,serif" font-size="14.00">10R_R78_6</text>
</g>
<!-- 10R_R78_4x10R_R78_3&#45;&gt;10R_R78_6 -->
<g id="edge58" class="edge"><title>10R_R78_4x10R_R78_3&#45;&gt;10R_R78_6</title>
<path fill="none" stroke="black" d="M778.64,-182.52C808.719,-182.106 1089.86,-177.406 1314,-144.054 1319.11,-143.294 1324.4,-142.355 1329.67,-141.319"/>
<polygon fill="black" stroke="black" points="1330.65,-144.691 1339.73,-139.23 1329.23,-137.837 1330.65,-144.691"/>
</g>
<!-- 10R_R78_1 -->
<g id="node63" class="node"><title>10R_R78_1</title>
<ellipse fill="dimgrey" stroke="black" cx="158" cy="-127.79" rx="57.9655" ry="16.0303"/>
<text text-anchor="middle" x="158" y="-124.09" font-family="Times,serif" font-size="14.00">10R_R78_1</text>
</g>
<!-- 10R_R78_4x10R_R78_3&#45;&gt;10R_R78_1 -->
<g id="edge60" class="edge"><title>10R_R78_4x10R_R78_3&#45;&gt;10R_R78_1</title>
<path fill="none" stroke="black" d="M773.296,-182.526C742.491,-182.173 454.562,-178.015 225,-144.054 219.894,-143.298 214.6,-142.362 209.328,-141.328"/>
<polygon fill="black" stroke="black" points="209.773,-137.846 199.27,-139.241 208.35,-144.7 209.773,-137.846"/>
</g>
<!-- 10R_R78_45 -->
<g id="node57" class="node"><title>10R_R78_45</title>
<ellipse fill="white" stroke="black" cx="354" cy="-16.2635" rx="62.8651" ry="16.0303"/>
<text text-anchor="middle" x="354" y="-12.5635" font-family="Times,serif" font-size="14.00">10R_R78_45</text>
</g>
<!-- 10R_R78_9x10R_R78_44&#45;&gt;10R_R78_45 -->
<g id="edge51" class="edge"><title>10R_R78_9x10R_R78_44&#45;&gt;10R_R78_45</title>
<path fill="none" stroke="black" d="M354,-68.4338C354,-63.6514 354,-52.9811 354,-42.6151"/>
<polygon fill="black" stroke="black" points="357.5,-42.5799 354,-32.58 350.5,-42.58 357.5,-42.5799"/>
</g>
<!-- 10R_R78_7 -->
<g id="node11" class="node"><title>10R_R78_7</title>
<polygon fill="white" stroke="black" points="1305,-139.29 1223,-139.29 1223,-116.29 1305,-116.29 1305,-139.29"/>
<text text-anchor="middle" x="1264" y="-124.09" font-family="Times,serif" font-size="14.00">10R_R78_7</text>
</g>
<!-- 10R_R78_7x10R_R78_6 -->
<g id="node12" class="node"><title>10R_R78_7x10R_R78_6</title>
<polygon fill="none" stroke="black" points="1378,-75.5269 1374.5,-72.0269 1378,-68.5269 1381.5,-72.0269 1378,-75.5269"/>
</g>
<!-- 10R_R78_7&#45;&gt;10R_R78_7x10R_R78_6 -->
<g id="edge7" class="edge"><title>10R_R78_7&#45;&gt;10R_R78_7x10R_R78_6</title>
<path fill="none" stroke="black" d="M1286.52,-116.168C1310.89,-104.676 1348.73,-86.8322 1367.16,-78.1375"/>
<polygon fill="black" stroke="black" points="1368.73,-81.2671 1376.28,-73.8359 1365.75,-74.9359 1368.73,-81.2671"/>
</g>
<!-- 10R_R78_18 -->
<g id="node56" class="node"><title>10R_R78_18</title>
<ellipse fill="white" stroke="black" cx="1378" cy="-16.2635" rx="62.8651" ry="16.0303"/>
<text text-anchor="middle" x="1378" y="-12.5635" font-family="Times,serif" font-size="14.00">10R_R78_18</text>
</g>
<!-- 10R_R78_7x10R_R78_6&#45;&gt;10R_R78_18 -->
<g id="edge50" class="edge"><title>10R_R78_7x10R_R78_6&#45;&gt;10R_R78_18</title>
<path fill="none" stroke="black" d="M1378,-68.4338C1378,-63.6514 1378,-52.9811 1378,-42.6151"/>
<polygon fill="black" stroke="black" points="1381.5,-42.5799 1378,-32.58 1374.5,-42.58 1381.5,-42.5799"/>
</g>
<!-- 10R_R78_53 -->
<g id="node13" class="node"><title>10R_R78_53</title>
<polygon fill="white" stroke="black" points="1795.5,-139.29 1706.5,-139.29 1706.5,-116.29 1795.5,-116.29 1795.5,-139.29"/>
<text text-anchor="middle" x="1751" y="-124.09" font-family="Times,serif" font-size="14.00">10R_R78_53</text>
</g>
<!-- 10R_R78_53x10R_R78_21 -->
<g id="node14" class="node"><title>10R_R78_53x10R_R78_21</title>
<polygon fill="none" stroke="black" points="1823,-75.5269 1819.5,-72.0269 1823,-68.5269 1826.5,-72.0269 1823,-75.5269"/>
</g>
<!-- 10R_R78_53&#45;&gt;10R_R78_53x10R_R78_21 -->
<g id="edge8" class="edge"><title>10R_R78_53&#45;&gt;10R_R78_53x10R_R78_21</title>
<path fill="none" stroke="black" d="M1765.22,-116.168C1779.43,-105.565 1800.87,-89.5545 1813.24,-80.312"/>
<polygon fill="black" stroke="black" points="1815.46,-83.0256 1821.38,-74.238 1811.27,-77.4168 1815.46,-83.0256"/>
</g>
<!-- 10R_R78_52 -->
<g id="node28" class="node"><title>10R_R78_52</title>
<ellipse fill="white" stroke="black" cx="1823" cy="-16.2635" rx="62.8651" ry="16.0303"/>
<text text-anchor="middle" x="1823" y="-12.5635" font-family="Times,serif" font-size="14.00">10R_R78_52</text>
</g>
<!-- 10R_R78_53x10R_R78_21&#45;&gt;10R_R78_52 -->
<g id="edge20" class="edge"><title>10R_R78_53x10R_R78_21&#45;&gt;10R_R78_52</title>
<path fill="none" stroke="black" d="M1823,-68.4338C1823,-63.6514 1823,-52.9811 1823,-42.6151"/>
<polygon fill="black" stroke="black" points="1826.5,-42.5799 1823,-32.58 1819.5,-42.58 1826.5,-42.5799"/>
</g>
<!-- 10R_R78_51 -->
<g id="node15" class="node"><title>10R_R78_51</title>
<polygon fill="#66cdaa" stroke="black" points="2295.5,-250.817 2206.5,-250.817 2206.5,-227.817 2295.5,-227.817 2295.5,-250.817"/>
<text text-anchor="middle" x="2251" y="-235.617" font-family="Times,serif" font-size="14.00">10R_R78_51</text>
</g>
<!-- 10R_R78_51&#45;&gt;10R_R78_51x10R_R78_50 -->
<g id="edge9" class="edge"><title>10R_R78_51&#45;&gt;10R_R78_51x10R_R78_50</title>
<path fill="none" stroke="black" d="M2275.7,-227.695C2302.67,-216.093 2344.7,-198.017 2364.69,-189.417"/>
<polygon fill="black" stroke="black" points="2366.32,-192.529 2374.12,-185.363 2363.55,-186.099 2366.32,-192.529"/>
</g>
<!-- 10R_R78_34 -->
<g id="node16" class="node"><title>10R_R78_34</title>
<ellipse fill="#66cdaa" stroke="black" cx="2126" cy="-127.79" rx="62.8651" ry="16.0303"/>
<text text-anchor="middle" x="2126" y="-124.09" font-family="Times,serif" font-size="14.00">10R_R78_34</text>
</g>
<!-- 10R_R78_33x10R_R78_34 -->
<g id="node17" class="node"><title>10R_R78_33x10R_R78_34</title>
<polygon fill="none" stroke="black" points="2153,-75.5269 2149.5,-72.0269 2153,-68.5269 2156.5,-72.0269 2153,-75.5269"/>
</g>
<!-- 10R_R78_34&#45;&gt;10R_R78_33x10R_R78_34 -->
<g id="edge10" class="edge"><title>10R_R78_34&#45;&gt;10R_R78_33x10R_R78_34</title>
<path fill="none" stroke="black" d="M2133.66,-111.528C2138.05,-102.787 2143.46,-92.0162 2147.44,-84.0917"/>
<polygon fill="black" stroke="black" points="2150.71,-85.3886 2152.07,-74.8815 2144.45,-82.2471 2150.71,-85.3886"/>
</g>
<!-- 10R_R78_40 -->
<g id="node30" class="node"><title>10R_R78_40</title>
<ellipse fill="white" stroke="black" cx="2009" cy="-16.2635" rx="62.8651" ry="16.0303"/>
<text text-anchor="middle" x="2009" y="-12.5635" font-family="Times,serif" font-size="14.00">10R_R78_40</text>
</g>
<!-- 10R_R78_33x10R_R78_34&#45;&gt;10R_R78_40 -->
<g id="edge22" class="edge"><title>10R_R78_33x10R_R78_34&#45;&gt;10R_R78_40</title>
<path fill="none" stroke="black" d="M2150.96,-70.2669C2140.36,-66.3069 2090.47,-47.6815 2052.81,-33.6195"/>
<polygon fill="black" stroke="black" points="2053.63,-30.1916 2043.04,-29.9727 2051.18,-36.7494 2053.63,-30.1916"/>
</g>
<!-- 10R_R78_41 -->
<g id="node32" class="node"><title>10R_R78_41</title>
<ellipse fill="white" stroke="black" cx="2153" cy="-16.2635" rx="62.8651" ry="16.0303"/>
<text text-anchor="middle" x="2153" y="-12.5635" font-family="Times,serif" font-size="14.00">10R_R78_41</text>
</g>
<!-- 10R_R78_33x10R_R78_34&#45;&gt;10R_R78_41 -->
<g id="edge24" class="edge"><title>10R_R78_33x10R_R78_34&#45;&gt;10R_R78_41</title>
<path fill="none" stroke="black" d="M2153,-68.4338C2153,-63.6514 2153,-52.9811 2153,-42.6151"/>
<polygon fill="black" stroke="black" points="2156.5,-42.5799 2153,-32.58 2149.5,-42.58 2156.5,-42.5799"/>
</g>
<!-- 10R_R78_39 -->
<g id="node35" class="node"><title>10R_R78_39</title>
<ellipse fill="white" stroke="black" cx="2297" cy="-16.2635" rx="62.8651" ry="16.0303"/>
<text text-anchor="middle" x="2297" y="-12.5635" font-family="Times,serif" font-size="14.00">10R_R78_39</text>
</g>
<!-- 10R_R78_33x10R_R78_34&#45;&gt;10R_R78_39 -->
<g id="edge28" class="edge"><title>10R_R78_33x10R_R78_34&#45;&gt;10R_R78_39</title>
<path fill="none" stroke="black" d="M2155.04,-70.2669C2165.64,-66.3069 2215.53,-47.6815 2253.19,-33.6195"/>
<polygon fill="black" stroke="black" points="2254.82,-36.7494 2262.96,-29.9727 2252.37,-30.1916 2254.82,-36.7494"/>
</g>
<!-- 10R_R78_50 -->
<g id="node18" class="node"><title>10R_R78_50</title>
<ellipse fill="dimgrey" stroke="black" cx="2376" cy="-239.317" rx="62.8651" ry="16.0303"/>
<text text-anchor="middle" x="2376" y="-235.617" font-family="Times,serif" font-size="14.00">10R_R78_50</text>
</g>
<!-- 10R_R78_50&#45;&gt;10R_R78_51x10R_R78_50 -->
<g id="edge12" class="edge"><title>10R_R78_50&#45;&gt;10R_R78_51x10R_R78_50</title>
<path fill="none" stroke="black" d="M2376,-222.767C2376,-214.661 2376,-204.872 2376,-197.232"/>
<polygon fill="black" stroke="black" points="2379.5,-197.077 2376,-187.077 2372.5,-197.077 2379.5,-197.077"/>
</g>
<!-- 10R_R78_23x10R_R78_22 -->
<g id="node19" class="node"><title>10R_R78_23x10R_R78_22</title>
<polygon fill="none" stroke="black" points="1576,-298.581 1572.5,-295.081 1576,-291.581 1579.5,-295.081 1576,-298.581"/>
</g>
<!-- 10R_R78_23x10R_R78_22&#45;&gt;10R_R78_50 -->
<g id="edge11" class="edge"><title>10R_R78_23x10R_R78_22&#45;&gt;10R_R78_50</title>
<path fill="none" stroke="black" d="M1578.63,-294.104C1614,-294.379 1998.46,-296.362 2305,-255.581 2310.47,-254.853 2316.14,-253.929 2321.79,-252.896"/>
<polygon fill="black" stroke="black" points="2322.73,-256.279 2331.88,-250.938 2321.39,-249.407 2322.73,-256.279"/>
</g>
<!-- 10R_R78_3 -->
<g id="node40" class="node"><title>10R_R78_3</title>
<ellipse fill="white" stroke="black" cx="776" cy="-239.317" rx="57.9655" ry="16.0303"/>
<text text-anchor="middle" x="776" y="-235.617" font-family="Times,serif" font-size="14.00">10R_R78_3</text>
</g>
<!-- 10R_R78_23x10R_R78_22&#45;&gt;10R_R78_3 -->
<g id="edge34" class="edge"><title>10R_R78_23x10R_R78_22&#45;&gt;10R_R78_3</title>
<path fill="none" stroke="black" d="M1573.35,-294.117C1537.76,-294.573 1150.97,-298.425 843,-255.581 837.888,-254.87 832.59,-253.963 827.315,-252.947"/>
<polygon fill="black" stroke="black" points="827.754,-249.464 817.254,-250.881 826.346,-256.321 827.754,-249.464"/>
</g>
<!-- 10R_R78_21&#45;&gt;10R_R78_53x10R_R78_21 -->
<g id="edge14" class="edge"><title>10R_R78_21&#45;&gt;10R_R78_53x10R_R78_21</title>
<path fill="none" stroke="black" d="M1861.24,-111.814C1851.66,-102.095 1839.51,-89.7736 1831.51,-81.6576"/>
<polygon fill="black" stroke="black" points="1833.77,-78.9656 1824.26,-74.3012 1828.78,-83.8798 1833.77,-78.9656"/>
</g>
<!-- 10R_R78_48 -->
<g id="node21" class="node"><title>10R_R78_48</title>
<ellipse fill="white" stroke="black" cx="660" cy="-16.2635" rx="62.8651" ry="16.0303"/>
<text text-anchor="middle" x="660" y="-12.5635" font-family="Times,serif" font-size="14.00">10R_R78_48</text>
</g>
<!-- 10R_R78_12x10R_R78_47 -->
<g id="node22" class="node"><title>10R_R78_12x10R_R78_47</title>
<polygon fill="none" stroke="black" points="785,-75.5269 781.5,-72.0269 785,-68.5269 788.5,-72.0269 785,-75.5269"/>
</g>
<!-- 10R_R78_12x10R_R78_47&#45;&gt;10R_R78_48 -->
<g id="edge15" class="edge"><title>10R_R78_12x10R_R78_47&#45;&gt;10R_R78_48</title>
<path fill="none" stroke="black" d="M783.233,-70.2669C774.212,-66.387 732.461,-48.4296 700.026,-34.479"/>
<polygon fill="black" stroke="black" points="701.303,-31.2181 690.734,-30.4822 698.537,-37.6486 701.303,-31.2181"/>
</g>
<!-- 10R_R78_56 -->
<g id="node29" class="node"><title>10R_R78_56</title>
<polygon fill="#66cdaa" stroke="black" points="829.5,-27.7635 740.5,-27.7635 740.5,-4.76346 829.5,-4.76346 829.5,-27.7635"/>
<text text-anchor="middle" x="785" y="-12.5635" font-family="Times,serif" font-size="14.00">10R_R78_56</text>
</g>
<!-- 10R_R78_12x10R_R78_47&#45;&gt;10R_R78_56 -->
<g id="edge21" class="edge"><title>10R_R78_12x10R_R78_47&#45;&gt;10R_R78_56</title>
<path fill="none" stroke="black" d="M785,-68.4338C785,-62.9657 785,-49.8005 785,-38.1938"/>
<polygon fill="black" stroke="black" points="788.5,-37.8452 785,-27.8453 781.5,-37.8453 788.5,-37.8452"/>
</g>
<!-- 10R_R78_55 -->
<g id="node50" class="node"><title>10R_R78_55</title>
<polygon fill="#66cdaa" stroke="black" points="936.5,-27.7635 847.5,-27.7635 847.5,-4.76346 936.5,-4.76346 936.5,-27.7635"/>
<text text-anchor="middle" x="892" y="-12.5635" font-family="Times,serif" font-size="14.00">10R_R78_55</text>
</g>
<!-- 10R_R78_12x10R_R78_47&#45;&gt;10R_R78_55 -->
<g id="edge44" class="edge"><title>10R_R78_12x10R_R78_47&#45;&gt;10R_R78_55</title>
<path fill="none" stroke="black" d="M786.857,-70.0937C795.683,-65.659 834.116,-46.3481 861.967,-32.3541"/>
<polygon fill="black" stroke="black" points="863.584,-35.4585 870.948,-27.8413 860.441,-29.2036 863.584,-35.4585"/>
</g>
<!-- 10R_R78_26 -->
<g id="node24" class="node"><title>10R_R78_26</title>
<ellipse fill="white" stroke="black" cx="1017" cy="-16.2635" rx="62.8651" ry="16.0303"/>
<text text-anchor="middle" x="1017" y="-12.5635" font-family="Times,serif" font-size="14.00">10R_R78_26</text>
</g>
<!-- 10R_R78_11x10R_R78_10 -->
<g id="node25" class="node"><title>10R_R78_11x10R_R78_10</title>
<polygon fill="none" stroke="black" points="1142,-75.5269 1138.5,-72.0269 1142,-68.5269 1145.5,-72.0269 1142,-75.5269"/>
</g>
<!-- 10R_R78_11x10R_R78_10&#45;&gt;10R_R78_26 -->
<g id="edge17" class="edge"><title>10R_R78_11x10R_R78_10&#45;&gt;10R_R78_26</title>
<path fill="none" stroke="black" d="M1140.23,-70.2669C1131.21,-66.387 1089.46,-48.4296 1057.03,-34.479"/>
<polygon fill="black" stroke="black" points="1058.3,-31.2181 1047.73,-30.4822 1055.54,-37.6486 1058.3,-31.2181"/>
</g>
<!-- 10R_R78_25 -->
<g id="node26" class="node"><title>10R_R78_25</title>
<polygon fill="white" stroke="black" points="1186.5,-27.7635 1097.5,-27.7635 1097.5,-4.76346 1186.5,-4.76346 1186.5,-27.7635"/>
<text text-anchor="middle" x="1142" y="-12.5635" font-family="Times,serif" font-size="14.00">10R_R78_25</text>
</g>
<!-- 10R_R78_11x10R_R78_10&#45;&gt;10R_R78_25 -->
<g id="edge18" class="edge"><title>10R_R78_11x10R_R78_10&#45;&gt;10R_R78_25</title>
<path fill="none" stroke="black" d="M1142,-68.4338C1142,-62.9657 1142,-49.8005 1142,-38.1938"/>
<polygon fill="black" stroke="black" points="1145.5,-37.8452 1142,-27.8453 1138.5,-37.8453 1145.5,-37.8452"/>
</g>
<!-- 10R_R78_19 -->
<g id="node38" class="node"><title>10R_R78_19</title>
<polygon fill="white" stroke="black" points="1293.5,-27.7635 1204.5,-27.7635 1204.5,-4.76346 1293.5,-4.76346 1293.5,-27.7635"/>
<text text-anchor="middle" x="1249" y="-12.5635" font-family="Times,serif" font-size="14.00">10R_R78_19</text>
</g>
<!-- 10R_R78_11x10R_R78_10&#45;&gt;10R_R78_19 -->
<g id="edge31" class="edge"><title>10R_R78_11x10R_R78_10&#45;&gt;10R_R78_19</title>
<path fill="none" stroke="black" d="M1143.86,-70.0937C1152.68,-65.659 1191.12,-46.3481 1218.97,-32.3541"/>
<polygon fill="black" stroke="black" points="1220.58,-35.4585 1227.95,-27.8413 1217.44,-29.2036 1220.58,-35.4585"/>
</g>
<!-- 10R_R78_29 -->
<g id="node31" class="node"><title>10R_R78_29</title>
<ellipse fill="white" stroke="black" cx="1626" cy="-127.79" rx="62.8651" ry="16.0303"/>
<text text-anchor="middle" x="1626" y="-124.09" font-family="Times,serif" font-size="14.00">10R_R78_29</text>
</g>
<!-- 10R_R78_29&#45;&gt;10R_R78_28x10R_R78_29 -->
<g id="edge23" class="edge"><title>10R_R78_29&#45;&gt;10R_R78_28x10R_R78_29</title>
<path fill="none" stroke="black" d="M1612.07,-111.814C1603.2,-102.272 1591.99,-90.2208 1584.44,-82.1044"/>
<polygon fill="black" stroke="black" points="1586.83,-79.528 1577.45,-74.5888 1581.7,-84.2951 1586.83,-79.528"/>
</g>
<!-- 10R_R78_23 -->
<g id="node33" class="node"><title>10R_R78_23</title>
<polygon fill="white" stroke="black" points="1558.5,-362.344 1469.5,-362.344 1469.5,-339.344 1558.5,-339.344 1558.5,-362.344"/>
<text text-anchor="middle" x="1514" y="-347.144" font-family="Times,serif" font-size="14.00">10R_R78_23</text>
</g>
<!-- 10R_R78_23&#45;&gt;10R_R78_23x10R_R78_22 -->
<g id="edge25" class="edge"><title>10R_R78_23&#45;&gt;10R_R78_23x10R_R78_22</title>
<path fill="none" stroke="black" d="M1526.25,-339.222C1538.23,-328.833 1556.2,-313.253 1566.94,-303.934"/>
<polygon fill="black" stroke="black" points="1569.34,-306.488 1574.6,-297.292 1564.76,-301.199 1569.34,-306.488"/>
</g>
<!-- 10R_R78_33&#45;&gt;10R_R78_33x10R_R78_34 -->
<g id="edge27" class="edge"><title>10R_R78_33&#45;&gt;10R_R78_33x10R_R78_34</title>
<path fill="none" stroke="black" d="M2231.64,-116.168C2211.37,-105.048 2180.26,-87.9822 2163.91,-79.0112"/>
<polygon fill="black" stroke="black" points="2165.15,-75.7028 2154.7,-73.9615 2161.79,-81.8399 2165.15,-75.7028"/>
</g>
<!-- 10R_R78_22 -->
<g id="node36" class="node"><title>10R_R78_22</title>
<ellipse fill="white" stroke="black" cx="1639" cy="-350.844" rx="62.8651" ry="16.0303"/>
<text text-anchor="middle" x="1639" y="-347.144" font-family="Times,serif" font-size="14.00">10R_R78_22</text>
</g>
<!-- 10R_R78_22&#45;&gt;10R_R78_23x10R_R78_22 -->
<g id="edge29" class="edge"><title>10R_R78_22&#45;&gt;10R_R78_23x10R_R78_22</title>
<path fill="none" stroke="black" d="M1621.78,-335.153C1610.01,-325.107 1594.86,-312.179 1585.29,-304.008"/>
<polygon fill="black" stroke="black" points="1587.39,-301.199 1577.51,-297.37 1582.85,-306.524 1587.39,-301.199"/>
</g>
<!-- 10R_R78_2 -->
<g id="node37" class="node"><title>10R_R78_2</title>
<polygon fill="#66cdaa" stroke="black" points="82,-139.29 0,-139.29 0,-116.29 82,-116.29 82,-139.29"/>
<text text-anchor="middle" x="41" y="-124.09" font-family="Times,serif" font-size="14.00">10R_R78_2</text>
</g>
<!-- 10R_R78_2&#45;&gt;10R_R78_2x10R_R78_1 -->
<g id="edge30" class="edge"><title>10R_R78_2&#45;&gt;10R_R78_2x10R_R78_1</title>
<path fill="none" stroke="black" d="M48.9027,-116.168C56.1814,-106.385 66.8841,-91.9999 73.8973,-82.5735"/>
<polygon fill="black" stroke="black" points="76.7075,-84.6598 79.8686,-74.5476 71.0914,-80.4814 76.7075,-84.6598"/>
</g>
<!-- 10R_R78_35&#45;&gt;10R_R78_35x10R_R78_36 -->
<g id="edge33" class="edge"><title>10R_R78_35&#45;&gt;10R_R78_35x10R_R78_36</title>
<path fill="none" stroke="black" d="M2490.53,-116.168C2480.57,-106.07 2465.78,-91.067 2456.53,-81.6771"/>
<polygon fill="black" stroke="black" points="2459.01,-79.2119 2449.5,-74.5476 2454.03,-84.1262 2459.01,-79.2119"/>
</g>
<!-- 10R_R78_3&#45;&gt;10R_R78_4x10R_R78_3 -->
<g id="edge35" class="edge"><title>10R_R78_3&#45;&gt;10R_R78_4x10R_R78_3</title>
<path fill="none" stroke="black" d="M776,-222.767C776,-214.661 776,-204.872 776,-197.232"/>
<polygon fill="black" stroke="black" points="779.5,-197.077 776,-187.077 772.5,-197.077 779.5,-197.077"/>
</g>
<!-- 10R_R78_11 -->
<g id="node41" class="node"><title>10R_R78_11</title>
<polygon fill="white" stroke="black" points="1061.5,-139.29 972.5,-139.29 972.5,-116.29 1061.5,-116.29 1061.5,-139.29"/>
<text text-anchor="middle" x="1017" y="-124.09" font-family="Times,serif" font-size="14.00">10R_R78_11</text>
</g>
<!-- 10R_R78_11&#45;&gt;10R_R78_11x10R_R78_10 -->
<g id="edge36" class="edge"><title>10R_R78_11&#45;&gt;10R_R78_11x10R_R78_10</title>
<path fill="none" stroke="black" d="M1041.7,-116.168C1068.67,-104.566 1110.7,-86.4901 1130.69,-77.8904"/>
<polygon fill="black" stroke="black" points="1132.32,-81.0023 1140.12,-73.8359 1129.55,-74.5719 1132.32,-81.0023"/>
</g>
<!-- 10R_R78_43x10R_R78_30 -->
<g id="node43" class="node"><title>10R_R78_43x10R_R78_30</title>
<polygon fill="none" stroke="black" points="2688,-75.5269 2684.5,-72.0269 2688,-68.5269 2691.5,-72.0269 2688,-75.5269"/>
</g>
<!-- 10R_R78_30&#45;&gt;10R_R78_43x10R_R78_30 -->
<g id="edge38" class="edge"><title>10R_R78_30&#45;&gt;10R_R78_43x10R_R78_30</title>
<path fill="none" stroke="black" d="M2642.94,-112.099C2654.53,-102.053 2669.44,-89.1251 2678.86,-80.954"/>
<polygon fill="black" stroke="black" points="2681.25,-83.5118 2686.51,-74.316 2676.67,-78.2232 2681.25,-83.5118"/>
</g>
<!-- 10R_R78_42 -->
<g id="node48" class="node"><title>10R_R78_42</title>
<polygon fill="white" stroke="black" points="2732.5,-27.7635 2643.5,-27.7635 2643.5,-4.76346 2732.5,-4.76346 2732.5,-27.7635"/>
<text text-anchor="middle" x="2688" y="-12.5635" font-family="Times,serif" font-size="14.00">10R_R78_42</text>
</g>
<!-- 10R_R78_43x10R_R78_30&#45;&gt;10R_R78_42 -->
<g id="edge42" class="edge"><title>10R_R78_43x10R_R78_30&#45;&gt;10R_R78_42</title>
<path fill="none" stroke="black" d="M2688,-68.4338C2688,-62.9657 2688,-49.8005 2688,-38.1938"/>
<polygon fill="black" stroke="black" points="2691.5,-37.8452 2688,-27.8453 2684.5,-37.8453 2691.5,-37.8452"/>
</g>
<!-- 10R_R78_24 -->
<g id="node44" class="node"><title>10R_R78_24</title>
<ellipse fill="#66cdaa" stroke="black" cx="1783" cy="-350.844" rx="62.8651" ry="16.0303"/>
<text text-anchor="middle" x="1783" y="-347.144" font-family="Times,serif" font-size="14.00">10R_R78_24</text>
</g>
<!-- 10R_R78_4 -->
<g id="node52" class="node"><title>10R_R78_4</title>
<polygon fill="white" stroke="black" points="934,-250.817 852,-250.817 852,-227.817 934,-227.817 934,-250.817"/>
<text text-anchor="middle" x="893" y="-235.617" font-family="Times,serif" font-size="14.00">10R_R78_4</text>
</g>
<!-- 10R_R78_4&#45;&gt;10R_R78_4x10R_R78_3 -->
<g id="edge46" class="edge"><title>10R_R78_4&#45;&gt;10R_R78_4x10R_R78_3</title>
<path fill="none" stroke="black" d="M869.885,-227.695C844.755,-216.148 805.671,-198.188 786.851,-189.54"/>
<polygon fill="black" stroke="black" points="788.309,-186.358 777.761,-185.363 785.386,-192.719 788.309,-186.358"/>
</g>
<!-- 10R_R78_47 -->
<g id="node54" class="node"><title>10R_R78_47</title>
<ellipse fill="white" stroke="black" cx="785" cy="-127.79" rx="62.8651" ry="16.0303"/>
<text text-anchor="middle" x="785" y="-124.09" font-family="Times,serif" font-size="14.00">10R_R78_47</text>
</g>
<!-- 10R_R78_47&#45;&gt;10R_R78_12x10R_R78_47 -->
<g id="edge48" class="edge"><title>10R_R78_47&#45;&gt;10R_R78_12x10R_R78_47</title>
<path fill="none" stroke="black" d="M785,-111.24C785,-103.134 785,-93.3455 785,-85.7049"/>
<polygon fill="black" stroke="black" points="788.5,-85.5501 785,-75.5502 781.5,-85.5502 788.5,-85.5501"/>
</g>
<!-- 10R_R78_44 -->
<g id="node58" class="node"><title>10R_R78_44</title>
<ellipse fill="white" stroke="black" cx="397" cy="-127.79" rx="62.8651" ry="16.0303"/>
<text text-anchor="middle" x="397" y="-124.09" font-family="Times,serif" font-size="14.00">10R_R78_44</text>
</g>
<!-- 10R_R78_44&#45;&gt;10R_R78_9x10R_R78_44 -->
<g id="edge52" class="edge"><title>10R_R78_44&#45;&gt;10R_R78_9x10R_R78_44</title>
<path fill="none" stroke="black" d="M385.022,-111.814C377.558,-102.481 368.174,-90.7493 361.693,-82.6452"/>
<polygon fill="black" stroke="black" points="364.229,-80.2121 355.249,-74.5888 358.762,-84.5843 364.229,-80.2121"/>
</g>
<!-- 10R_R78_43 -->
<g id="node59" class="node"><title>10R_R78_43</title>
<polygon fill="#66cdaa" stroke="black" points="2795.5,-139.29 2706.5,-139.29 2706.5,-116.29 2795.5,-116.29 2795.5,-139.29"/>
<text text-anchor="middle" x="2751" y="-124.09" font-family="Times,serif" font-size="14.00">10R_R78_43</text>
</g>
<!-- 10R_R78_43&#45;&gt;10R_R78_43x10R_R78_30 -->
<g id="edge53" class="edge"><title>10R_R78_43&#45;&gt;10R_R78_43x10R_R78_30</title>
<path fill="none" stroke="black" d="M2738.55,-116.168C2726.38,-105.779 2708.12,-90.1991 2697.2,-80.8803"/>
<polygon fill="black" stroke="black" points="2699.3,-78.0671 2689.42,-74.238 2694.75,-83.3918 2699.3,-78.0671"/>
</g>
<!-- 10R_R78_12&#45;&gt;10R_R78_12x10R_R78_47 -->
<g id="edge55" class="edge"><title>10R_R78_12&#45;&gt;10R_R78_12x10R_R78_47</title>
<path fill="none" stroke="black" d="M885.304,-116.168C858.328,-104.566 816.302,-86.4901 796.308,-77.8904"/>
<polygon fill="black" stroke="black" points="797.45,-74.5719 786.881,-73.8359 794.684,-81.0023 797.45,-74.5719"/>
</g>
<!-- 10R_R78_10&#45;&gt;10R_R78_11x10R_R78_10 -->
<g id="edge57" class="edge"><title>10R_R78_10&#45;&gt;10R_R78_11x10R_R78_10</title>
<path fill="none" stroke="black" d="M1142,-111.24C1142,-103.134 1142,-93.3455 1142,-85.7049"/>
<polygon fill="black" stroke="black" points="1145.5,-85.5501 1142,-75.5502 1138.5,-85.5502 1145.5,-85.5501"/>
</g>
<!-- 10R_R78_6&#45;&gt;10R_R78_7x10R_R78_6 -->
<g id="edge59" class="edge"><title>10R_R78_6&#45;&gt;10R_R78_7x10R_R78_6</title>
<path fill="none" stroke="black" d="M1380.15,-111.528C1379.7,-103.413 1379.15,-93.5502 1378.71,-85.8383"/>
<polygon fill="black" stroke="black" points="1382.19,-85.3688 1378.14,-75.5794 1375.21,-85.7589 1382.19,-85.3688"/>
</g>
<!-- 10R_R78_1&#45;&gt;10R_R78_2x10R_R78_1 -->
<g id="edge61" class="edge"><title>10R_R78_1&#45;&gt;10R_R78_2x10R_R78_1</title>
<path fill="none" stroke="black" d="M137.365,-112.383C122.242,-101.823 102.392,-87.9631 90.7329,-79.8227"/>
<polygon fill="black" stroke="black" points="92.6893,-76.92 82.4865,-74.0648 88.6819,-82.6594 92.6893,-76.92"/>
</g>
</g>
</svg>
