<?xml version="1.0" encoding="UTF-8" standalone="no"?>
<!DOCTYPE svg PUBLIC "-//W3C//DTD SVG 1.1//EN"
 "http://www.w3.org/Graphics/SVG/1.1/DTD/svg11.dtd">
<!-- Generated by graphviz version 2.38.0 (20140413.2041)
 -->
<!-- Title: %3 Pages: 1 -->
<svg width="2682pt" height="264pt"
 viewBox="0.00 0.00 2681.51 263.58" xmlns="http://www.w3.org/2000/svg" xmlns:xlink="http://www.w3.org/1999/xlink">
<g id="graph0" class="graph" transform="scale(1 1) rotate(0) translate(4 259.581)">
<title>%3</title>
<polygon fill="white" stroke="none" points="-4,4 -4,-259.581 2677.51,-259.581 2677.51,4 -4,4"/>
<!-- 1276_20 -->
<g id="node1" class="node"><title>1276_20</title>
<polygon fill="dimgrey" stroke="black" points="2293.25,-27.7635 2229.25,-27.7635 2229.25,-4.76346 2293.25,-4.76346 2293.25,-27.7635"/>
<text text-anchor="middle" x="2261.25" y="-12.5635" font-family="Times,serif" font-size="14.00">1276_20</text>
</g>
<!-- 1276_4x1276_19 -->
<g id="node2" class="node"><title>1276_4x1276_19</title>
<polygon fill="none" stroke="black" points="2308.25,-75.5269 2304.75,-72.0269 2308.25,-68.5269 2311.75,-72.0269 2308.25,-75.5269"/>
</g>
<!-- 1276_4x1276_19&#45;&gt;1276_20 -->
<g id="edge1" class="edge"><title>1276_4x1276_19&#45;&gt;1276_20</title>
<path fill="none" stroke="black" d="M2306.69,-69.2381C2302.14,-64.0368 2288.54,-48.4782 2277.4,-35.7288"/>
<polygon fill="black" stroke="black" points="2279.76,-33.1186 2270.55,-27.8934 2274.49,-37.7258 2279.76,-33.1186"/>
</g>
<!-- 1276_23 -->
<g id="node3" class="node"><title>1276_23</title>
<ellipse fill="dimgrey" stroke="black" cx="2356.25" cy="-16.2635" rx="45.011" ry="16.0303"/>
<text text-anchor="middle" x="2356.25" y="-12.5635" font-family="Times,serif" font-size="14.00">1276_23</text>
</g>
<!-- 1276_4x1276_19&#45;&gt;1276_23 -->
<g id="edge2" class="edge"><title>1276_4x1276_19&#45;&gt;1276_23</title>
<path fill="none" stroke="black" d="M2309.44,-69.6979C2313.21,-65.4798 2325.29,-51.9489 2336.23,-39.6897"/>
<polygon fill="black" stroke="black" points="2339.11,-41.7185 2343.16,-31.9279 2333.89,-37.0565 2339.11,-41.7185"/>
</g>
<!-- 1276_25 -->
<g id="node10" class="node"><title>1276_25</title>
<polygon fill="white" stroke="black" points="2483.25,-27.7635 2419.25,-27.7635 2419.25,-4.76346 2483.25,-4.76346 2483.25,-27.7635"/>
<text text-anchor="middle" x="2451.25" y="-12.5635" font-family="Times,serif" font-size="14.00">1276_25</text>
</g>
<!-- 1276_4x1276_19&#45;&gt;1276_25 -->
<g id="edge8" class="edge"><title>1276_4x1276_19&#45;&gt;1276_25</title>
<path fill="none" stroke="black" d="M2310.28,-70.2669C2321.34,-66.1077 2375.43,-45.7708 2413.3,-31.5348"/>
<polygon fill="black" stroke="black" points="2414.89,-34.6757 2423.02,-27.8804 2412.42,-28.1235 2414.89,-34.6757"/>
</g>
<!-- 1276_26 -->
<g id="node11" class="node"><title>1276_26</title>
<polygon fill="white" stroke="black" points="2565.25,-27.7635 2501.25,-27.7635 2501.25,-4.76346 2565.25,-4.76346 2565.25,-27.7635"/>
<text text-anchor="middle" x="2533.25" y="-12.5635" font-family="Times,serif" font-size="14.00">1276_26</text>
</g>
<!-- 1276_4x1276_19&#45;&gt;1276_26 -->
<g id="edge9" class="edge"><title>1276_4x1276_19&#45;&gt;1276_26</title>
<path fill="none" stroke="black" d="M2310.47,-70.6925C2325.91,-68.3382 2418.89,-53.729 2492.25,-32.5269 2493.71,-32.1052 2495.2,-31.6562 2496.69,-31.1868"/>
<polygon fill="black" stroke="black" points="2498.18,-34.3759 2506.54,-27.8646 2495.95,-27.7427 2498.18,-34.3759"/>
</g>
<!-- 1276_24 -->
<g id="node26" class="node"><title>1276_24</title>
<polygon fill="#66cdaa" stroke="black" points="2129.25,-27.7635 2065.25,-27.7635 2065.25,-4.76346 2129.25,-4.76346 2129.25,-27.7635"/>
<text text-anchor="middle" x="2097.25" y="-12.5635" font-family="Times,serif" font-size="14.00">1276_24</text>
</g>
<!-- 1276_4x1276_19&#45;&gt;1276_24 -->
<g id="edge20" class="edge"><title>1276_4x1276_19&#45;&gt;1276_24</title>
<path fill="none" stroke="black" d="M2305.83,-70.6038C2290.49,-67.905 2205.54,-52.5722 2138.25,-32.5269 2136.8,-32.0932 2135.32,-31.6341 2133.83,-31.1562"/>
<polygon fill="black" stroke="black" points="2134.58,-27.7142 2123.99,-27.7999 2132.32,-34.3397 2134.58,-27.7142"/>
</g>
<!-- 1276_21 -->
<g id="node49" class="node"><title>1276_21</title>
<polygon fill="white" stroke="black" points="2211.25,-27.7635 2147.25,-27.7635 2147.25,-4.76346 2211.25,-4.76346 2211.25,-27.7635"/>
<text text-anchor="middle" x="2179.25" y="-12.5635" font-family="Times,serif" font-size="14.00">1276_21</text>
</g>
<!-- 1276_4x1276_19&#45;&gt;1276_21 -->
<g id="edge47" class="edge"><title>1276_4x1276_19&#45;&gt;1276_21</title>
<path fill="none" stroke="black" d="M2306.43,-70.2669C2296.54,-66.1431 2248.48,-46.1158 2214.37,-31.8996"/>
<polygon fill="black" stroke="black" points="2215.31,-28.4967 2204.73,-27.8804 2212.61,-34.9581 2215.31,-28.4967"/>
</g>
<!-- 1276_32 -->
<g id="node4" class="node"><title>1276_32</title>
<ellipse fill="white" stroke="black" cx="1294.25" cy="-16.2635" rx="45.011" ry="16.0303"/>
<text text-anchor="middle" x="1294.25" y="-12.5635" font-family="Times,serif" font-size="14.00">1276_32</text>
</g>
<!-- 1276_27x1276_6 -->
<g id="node5" class="node"><title>1276_27x1276_6</title>
<polygon fill="none" stroke="black" points="1349.25,-75.5269 1345.75,-72.0269 1349.25,-68.5269 1352.75,-72.0269 1349.25,-75.5269"/>
</g>
<!-- 1276_27x1276_6&#45;&gt;1276_32 -->
<g id="edge3" class="edge"><title>1276_27x1276_6&#45;&gt;1276_32</title>
<path fill="none" stroke="black" d="M1347.9,-69.6979C1343.47,-65.3724 1329.03,-51.2539 1316.24,-38.7561"/>
<polygon fill="black" stroke="black" points="1318.59,-36.1585 1308.99,-31.6711 1313.7,-41.1642 1318.59,-36.1585"/>
</g>
<!-- 1276_33 -->
<g id="node6" class="node"><title>1276_33</title>
<ellipse fill="white" stroke="black" cx="1403.25" cy="-16.2635" rx="45.011" ry="16.0303"/>
<text text-anchor="middle" x="1403.25" y="-12.5635" font-family="Times,serif" font-size="14.00">1276_33</text>
</g>
<!-- 1276_27x1276_6&#45;&gt;1276_33 -->
<g id="edge4" class="edge"><title>1276_27x1276_6&#45;&gt;1276_33</title>
<path fill="none" stroke="black" d="M1350.59,-69.6979C1354.91,-65.3994 1368.94,-51.43 1381.43,-38.9906"/>
<polygon fill="black" stroke="black" points="1383.91,-41.4638 1388.53,-31.9279 1378.97,-36.5032 1383.91,-41.4638"/>
</g>
<!-- 1276_34 -->
<g id="node7" class="node"><title>1276_34</title>
<ellipse fill="#66cdaa" stroke="black" cx="1512.25" cy="-16.2635" rx="45.011" ry="16.0303"/>
<text text-anchor="middle" x="1512.25" y="-12.5635" font-family="Times,serif" font-size="14.00">1276_34</text>
</g>
<!-- 1276_27x1276_6&#45;&gt;1276_34 -->
<g id="edge5" class="edge"><title>1276_27x1276_6&#45;&gt;1276_34</title>
<path fill="none" stroke="black" d="M1351.32,-70.3471C1363.49,-66.3325 1426.92,-45.4087 1470.42,-31.0612"/>
<polygon fill="black" stroke="black" points="1471.79,-34.2956 1480.19,-27.8393 1469.6,-27.6478 1471.79,-34.2956"/>
</g>
<!-- 1276_36 -->
<g id="node8" class="node"><title>1276_36</title>
<ellipse fill="white" stroke="black" cx="1621.25" cy="-16.2635" rx="45.011" ry="16.0303"/>
<text text-anchor="middle" x="1621.25" y="-12.5635" font-family="Times,serif" font-size="14.00">1276_36</text>
</g>
<!-- 1276_27x1276_6&#45;&gt;1276_36 -->
<g id="edge6" class="edge"><title>1276_27x1276_6&#45;&gt;1276_36</title>
<path fill="none" stroke="black" d="M1351.85,-70.6618C1369.94,-68.0995 1478.94,-52.3407 1566.25,-32.5269 1569.9,-31.6997 1573.66,-30.785 1577.44,-29.8264"/>
<polygon fill="black" stroke="black" points="1578.57,-33.147 1587.35,-27.2166 1576.79,-26.3776 1578.57,-33.147"/>
</g>
<!-- 1276_37 -->
<g id="node9" class="node"><title>1276_37</title>
<ellipse fill="white" stroke="black" cx="1730.25" cy="-16.2635" rx="45.011" ry="16.0303"/>
<text text-anchor="middle" x="1730.25" y="-12.5635" font-family="Times,serif" font-size="14.00">1276_37</text>
</g>
<!-- 1276_27x1276_6&#45;&gt;1276_37 -->
<g id="edge7" class="edge"><title>1276_27x1276_6&#45;&gt;1276_37</title>
<path fill="none" stroke="black" d="M1351.89,-70.8707C1374.77,-69.4828 1542.17,-58.6931 1675.25,-32.5269 1679.14,-31.7637 1683.15,-30.8674 1687.15,-29.898"/>
<polygon fill="black" stroke="black" points="1688.18,-33.2452 1697,-27.372 1686.45,-26.4644 1688.18,-33.2452"/>
</g>
<!-- 1276_38 -->
<g id="node15" class="node"><title>1276_38</title>
<polygon fill="#66cdaa" stroke="black" points="1857.25,-27.7635 1793.25,-27.7635 1793.25,-4.76346 1857.25,-4.76346 1857.25,-27.7635"/>
<text text-anchor="middle" x="1825.25" y="-12.5635" font-family="Times,serif" font-size="14.00">1276_38</text>
</g>
<!-- 1276_27x1276_6&#45;&gt;1276_38 -->
<g id="edge12" class="edge"><title>1276_27x1276_6&#45;&gt;1276_38</title>
<path fill="none" stroke="black" d="M1352.06,-71.0647C1379.75,-71.3801 1606.77,-72.6492 1784.25,-32.5269 1786.2,-32.0873 1788.18,-31.5773 1790.16,-31.0161"/>
<polygon fill="black" stroke="black" points="1791.53,-34.2521 1799.99,-27.8707 1789.4,-27.5852 1791.53,-34.2521"/>
</g>
<!-- 1276_29 -->
<g id="node20" class="node"><title>1276_29</title>
<polygon fill="#66cdaa" stroke="black" points="851.255,-27.7635 787.255,-27.7635 787.255,-4.76346 851.255,-4.76346 851.255,-27.7635"/>
<text text-anchor="middle" x="819.255" y="-12.5635" font-family="Times,serif" font-size="14.00">1276_29</text>
</g>
<!-- 1276_27x1276_6&#45;&gt;1276_29 -->
<g id="edge15" class="edge"><title>1276_27x1276_6&#45;&gt;1276_29</title>
<path fill="none" stroke="black" d="M1346.48,-71.102C1317.11,-71.8367 1060.65,-76.8091 860.255,-32.5269 858.308,-32.0967 856.329,-31.5943 854.346,-31.0389"/>
<polygon fill="black" stroke="black" points="855.104,-27.6072 844.513,-27.9106 852.981,-34.2777 855.104,-27.6072"/>
</g>
<!-- 1276_35 -->
<g id="node28" class="node"><title>1276_35</title>
<ellipse fill="dimgrey" stroke="black" cx="914.255" cy="-16.2635" rx="45.011" ry="16.0303"/>
<text text-anchor="middle" x="914.255" y="-12.5635" font-family="Times,serif" font-size="14.00">1276_35</text>
</g>
<!-- 1276_27x1276_6&#45;&gt;1276_35 -->
<g id="edge22" class="edge"><title>1276_27x1276_6&#45;&gt;1276_35</title>
<path fill="none" stroke="black" d="M1346.81,-70.9442C1322.71,-70.0941 1125,-62.3615 968.255,-32.5269 964.594,-31.8301 960.822,-31.0008 957.053,-30.0941"/>
<polygon fill="black" stroke="black" points="957.72,-26.652 947.164,-27.5513 955.977,-33.4314 957.72,-26.652"/>
</g>
<!-- 1276_28 -->
<g id="node29" class="node"><title>1276_28</title>
<polygon fill="dimgrey" stroke="black" points="1041.25,-27.7635 977.255,-27.7635 977.255,-4.76346 1041.25,-4.76346 1041.25,-27.7635"/>
<text text-anchor="middle" x="1009.25" y="-12.5635" font-family="Times,serif" font-size="14.00">1276_28</text>
</g>
<!-- 1276_27x1276_6&#45;&gt;1276_28 -->
<g id="edge23" class="edge"><title>1276_27x1276_6&#45;&gt;1276_28</title>
<path fill="none" stroke="black" d="M1346.82,-70.9258C1325.69,-70.0048 1171.18,-62.405 1050.25,-32.5269 1048.37,-32.0624 1046.46,-31.5389 1044.54,-30.9729"/>
<polygon fill="black" stroke="black" points="1045.59,-27.6342 1035,-27.8639 1043.42,-34.2898 1045.59,-27.6342"/>
</g>
<!-- 1276_31 -->
<g id="node45" class="node"><title>1276_31</title>
<ellipse fill="#66cdaa" stroke="black" cx="1104.25" cy="-16.2635" rx="45.011" ry="16.0303"/>
<text text-anchor="middle" x="1104.25" y="-12.5635" font-family="Times,serif" font-size="14.00">1276_31</text>
</g>
<!-- 1276_27x1276_6&#45;&gt;1276_31 -->
<g id="edge42" class="edge"><title>1276_27x1276_6&#45;&gt;1276_31</title>
<path fill="none" stroke="black" d="M1346.97,-70.6349C1331.06,-67.8907 1235.19,-51.1258 1158.25,-32.5269 1154.84,-31.7007 1151.31,-30.804 1147.77,-29.8732"/>
<polygon fill="black" stroke="black" points="1148.42,-26.4229 1137.85,-27.1897 1146.59,-33.18 1148.42,-26.4229"/>
</g>
<!-- 1276_30 -->
<g id="node50" class="node"><title>1276_30</title>
<polygon fill="#66cdaa" stroke="black" points="1231.25,-27.7635 1167.25,-27.7635 1167.25,-4.76346 1231.25,-4.76346 1231.25,-27.7635"/>
<text text-anchor="middle" x="1199.25" y="-12.5635" font-family="Times,serif" font-size="14.00">1276_30</text>
</g>
<!-- 1276_27x1276_6&#45;&gt;1276_30 -->
<g id="edge48" class="edge"><title>1276_27x1276_6&#45;&gt;1276_30</title>
<path fill="none" stroke="black" d="M1347.17,-70.3059C1336.12,-66.4787 1283.27,-48.1295 1240.25,-32.5269 1239.22,-32.1514 1238.17,-31.7694 1237.11,-31.383"/>
<polygon fill="black" stroke="black" points="1238.06,-28.0015 1227.46,-27.8358 1235.64,-34.5716 1238.06,-28.0015"/>
</g>
<!-- 1276_27 -->
<g id="node12" class="node"><title>1276_27</title>
<polygon fill="#66cdaa" stroke="black" points="1471.25,-139.29 1407.25,-139.29 1407.25,-116.29 1471.25,-116.29 1471.25,-139.29"/>
<text text-anchor="middle" x="1439.25" y="-124.09" font-family="Times,serif" font-size="14.00">1276_27</text>
</g>
<!-- 1276_27&#45;&gt;1276_27x1276_6 -->
<g id="edge10" class="edge"><title>1276_27&#45;&gt;1276_27x1276_6</title>
<path fill="none" stroke="black" d="M1421.47,-116.168C1403.19,-105.243 1375.29,-88.5792 1360.08,-79.4907"/>
<polygon fill="black" stroke="black" points="1361.66,-76.3617 1351.28,-74.238 1358.07,-82.3711 1361.66,-76.3617"/>
</g>
<!-- 1276_44 -->
<g id="node13" class="node"><title>1276_44</title>
<polygon fill="#66cdaa" stroke="black" points="2570.25,-139.29 2506.25,-139.29 2506.25,-116.29 2570.25,-116.29 2570.25,-139.29"/>
<text text-anchor="middle" x="2538.25" y="-124.09" font-family="Times,serif" font-size="14.00">1276_44</text>
</g>
<!-- 1276_44x1276_19 -->
<g id="node14" class="node"><title>1276_44x1276_19</title>
<polygon fill="none" stroke="black" points="2538.25,-75.5269 2534.75,-72.0269 2538.25,-68.5269 2541.75,-72.0269 2538.25,-75.5269"/>
</g>
<!-- 1276_44&#45;&gt;1276_44x1276_19 -->
<g id="edge11" class="edge"><title>1276_44&#45;&gt;1276_44x1276_19</title>
<path fill="none" stroke="black" d="M2538.25,-116.168C2538.25,-107.416 2538.25,-94.9805 2538.25,-85.7075"/>
<polygon fill="black" stroke="black" points="2541.75,-85.6655 2538.25,-75.6656 2534.75,-85.6656 2541.75,-85.6655"/>
</g>
<!-- 1276_22 -->
<g id="node27" class="node"><title>1276_22</title>
<ellipse fill="white" stroke="black" cx="2628.25" cy="-16.2635" rx="45.011" ry="16.0303"/>
<text text-anchor="middle" x="2628.25" y="-12.5635" font-family="Times,serif" font-size="14.00">1276_22</text>
</g>
<!-- 1276_44x1276_19&#45;&gt;1276_22 -->
<g id="edge21" class="edge"><title>1276_44x1276_19&#45;&gt;1276_22</title>
<path fill="none" stroke="black" d="M2540.13,-69.904C2547.46,-65.5304 2574.76,-49.2195 2597.06,-35.8993"/>
<polygon fill="black" stroke="black" points="2599.13,-38.7361 2605.92,-30.6029 2595.54,-32.7266 2599.13,-38.7361"/>
</g>
<!-- 1276_39 -->
<g id="node16" class="node"><title>1276_39</title>
<ellipse fill="#66cdaa" stroke="black" cx="2068.25" cy="-239.317" rx="45.011" ry="16.0303"/>
<text text-anchor="middle" x="2068.25" y="-235.617" font-family="Times,serif" font-size="14.00">1276_39</text>
</g>
<!-- 1276_41 -->
<g id="node17" class="node"><title>1276_41</title>
<ellipse fill="#66cdaa" stroke="black" cx="1920.25" cy="-16.2635" rx="45.011" ry="16.0303"/>
<text text-anchor="middle" x="1920.25" y="-12.5635" font-family="Times,serif" font-size="14.00">1276_41</text>
</g>
<!-- 1276_9x1276_40 -->
<g id="node18" class="node"><title>1276_9x1276_40</title>
<polygon fill="none" stroke="black" points="1920.25,-75.5269 1916.75,-72.0269 1920.25,-68.5269 1923.75,-72.0269 1920.25,-75.5269"/>
</g>
<!-- 1276_9x1276_40&#45;&gt;1276_41 -->
<g id="edge13" class="edge"><title>1276_9x1276_40&#45;&gt;1276_41</title>
<path fill="none" stroke="black" d="M1920.25,-68.4338C1920.25,-63.6514 1920.25,-52.9811 1920.25,-42.6151"/>
<polygon fill="black" stroke="black" points="1923.75,-42.5799 1920.25,-32.58 1916.75,-42.58 1923.75,-42.5799"/>
</g>
<!-- 1276_43 -->
<g id="node19" class="node"><title>1276_43</title>
<polygon fill="#66cdaa" stroke="black" points="2047.25,-27.7635 1983.25,-27.7635 1983.25,-4.76346 2047.25,-4.76346 2047.25,-27.7635"/>
<text text-anchor="middle" x="2015.25" y="-12.5635" font-family="Times,serif" font-size="14.00">1276_43</text>
</g>
<!-- 1276_9x1276_40&#45;&gt;1276_43 -->
<g id="edge14" class="edge"><title>1276_9x1276_40&#45;&gt;1276_43</title>
<path fill="none" stroke="black" d="M1921.9,-70.0937C1929.64,-65.7168 1962.98,-46.8494 1987.62,-32.9043"/>
<polygon fill="black" stroke="black" points="1989.58,-35.8126 1996.56,-27.8413 1986.14,-29.7206 1989.58,-35.8126"/>
</g>
<!-- 1276_12 -->
<g id="node21" class="node"><title>1276_12</title>
<ellipse fill="white" stroke="black" cx="724.255" cy="-16.2635" rx="45.011" ry="16.0303"/>
<text text-anchor="middle" x="724.255" y="-12.5635" font-family="Times,serif" font-size="14.00">1276_12</text>
</g>
<!-- 1276_99x1276_10 -->
<g id="node22" class="node"><title>1276_99x1276_10</title>
<polygon fill="none" stroke="black" points="439.255,-75.5269 435.755,-72.0269 439.255,-68.5269 442.755,-72.0269 439.255,-75.5269"/>
</g>
<!-- 1276_99x1276_10&#45;&gt;1276_12 -->
<g id="edge16" class="edge"><title>1276_99x1276_10&#45;&gt;1276_12</title>
<path fill="none" stroke="black" d="M441.55,-70.7426C459.309,-68.5226 576.623,-53.4953 670.255,-32.5269 673.686,-31.7585 677.223,-30.9033 680.768,-30.0011"/>
<polygon fill="black" stroke="black" points="681.93,-33.3142 690.698,-27.3672 680.135,-26.5481 681.93,-33.3142"/>
</g>
<!-- 1276_13 -->
<g id="node36" class="node"><title>1276_13</title>
<ellipse fill="white" stroke="black" cx="45.2548" cy="-16.2635" rx="45.011" ry="16.0303"/>
<text text-anchor="middle" x="45.2548" y="-12.5635" font-family="Times,serif" font-size="14.00">1276_13</text>
</g>
<!-- 1276_99x1276_10&#45;&gt;1276_13 -->
<g id="edge31" class="edge"><title>1276_99x1276_10&#45;&gt;1276_13</title>
<path fill="none" stroke="black" d="M436.799,-70.9024C414.1,-69.7207 238.566,-59.9139 99.2548,-32.5269 95.5984,-31.8081 91.8291,-30.9633 88.0622,-30.0463"/>
<polygon fill="black" stroke="black" points="88.7343,-26.605 78.1762,-27.487 86.9799,-33.3816 88.7343,-26.605"/>
</g>
<!-- 1276_11 -->
<g id="node38" class="node"><title>1276_11</title>
<polygon fill="#66cdaa" stroke="black" points="172.255,-27.7635 108.255,-27.7635 108.255,-4.76346 172.255,-4.76346 172.255,-27.7635"/>
<text text-anchor="middle" x="140.255" y="-12.5635" font-family="Times,serif" font-size="14.00">1276_11</text>
</g>
<!-- 1276_99x1276_10&#45;&gt;1276_11 -->
<g id="edge33" class="edge"><title>1276_99x1276_10&#45;&gt;1276_11</title>
<path fill="none" stroke="black" d="M436.672,-70.8471C416.688,-69.4144 284.751,-59.2029 181.255,-32.5269 179.379,-32.0435 177.471,-31.505 175.554,-30.927"/>
<polygon fill="black" stroke="black" points="176.615,-27.5914 166.021,-27.7826 174.422,-34.2391 176.615,-27.5914"/>
</g>
<!-- 1276_14 -->
<g id="node39" class="node"><title>1276_14</title>
<ellipse fill="#66cdaa" stroke="black" cx="235.255" cy="-16.2635" rx="45.011" ry="16.0303"/>
<text text-anchor="middle" x="235.255" y="-12.5635" font-family="Times,serif" font-size="14.00">1276_14</text>
</g>
<!-- 1276_99x1276_10&#45;&gt;1276_14 -->
<g id="edge34" class="edge"><title>1276_99x1276_10&#45;&gt;1276_14</title>
<path fill="none" stroke="black" d="M437.15,-70.4982C423.853,-67.1544 350.128,-48.5687 290.255,-32.5269 286.695,-31.5732 283.009,-30.5745 279.309,-29.564"/>
<polygon fill="black" stroke="black" points="280.126,-26.1588 269.556,-26.8843 278.271,-32.9087 280.126,-26.1588"/>
</g>
<!-- 1276_17 -->
<g id="node41" class="node"><title>1276_17</title>
<ellipse fill="dimgrey" stroke="black" cx="344.255" cy="-16.2635" rx="45.011" ry="16.0303"/>
<text text-anchor="middle" x="344.255" y="-12.5635" font-family="Times,serif" font-size="14.00">1276_17</text>
</g>
<!-- 1276_99x1276_10&#45;&gt;1276_17 -->
<g id="edge37" class="edge"><title>1276_99x1276_10&#45;&gt;1276_17</title>
<path fill="none" stroke="black" d="M437.606,-70.0937C430.309,-65.9641 400.218,-48.935 376.146,-35.3115"/>
<polygon fill="black" stroke="black" points="377.701,-32.1702 367.274,-30.291 374.254,-38.2623 377.701,-32.1702"/>
</g>
<!-- 1276_16 -->
<g id="node42" class="node"><title>1276_16</title>
<polygon fill="white" stroke="black" points="471.255,-27.7635 407.255,-27.7635 407.255,-4.76346 471.255,-4.76346 471.255,-27.7635"/>
<text text-anchor="middle" x="439.255" y="-12.5635" font-family="Times,serif" font-size="14.00">1276_16</text>
</g>
<!-- 1276_99x1276_10&#45;&gt;1276_16 -->
<g id="edge38" class="edge"><title>1276_99x1276_10&#45;&gt;1276_16</title>
<path fill="none" stroke="black" d="M439.255,-68.4338C439.255,-62.9657 439.255,-49.8005 439.255,-38.1938"/>
<polygon fill="black" stroke="black" points="442.755,-37.8452 439.255,-27.8453 435.755,-37.8453 442.755,-37.8452"/>
</g>
<!-- 1276_15 -->
<g id="node46" class="node"><title>1276_15</title>
<ellipse fill="white" stroke="black" cx="534.255" cy="-16.2635" rx="45.011" ry="16.0303"/>
<text text-anchor="middle" x="534.255" y="-12.5635" font-family="Times,serif" font-size="14.00">1276_15</text>
</g>
<!-- 1276_99x1276_10&#45;&gt;1276_15 -->
<g id="edge43" class="edge"><title>1276_99x1276_10&#45;&gt;1276_15</title>
<path fill="none" stroke="black" d="M440.904,-70.0937C448.201,-65.9641 478.291,-48.935 502.364,-35.3115"/>
<polygon fill="black" stroke="black" points="504.256,-38.2623 511.235,-30.291 500.808,-32.1702 504.256,-38.2623"/>
</g>
<!-- 1276_18 -->
<g id="node47" class="node"><title>1276_18</title>
<polygon fill="#66cdaa" stroke="black" points="661.255,-27.7635 597.255,-27.7635 597.255,-4.76346 661.255,-4.76346 661.255,-27.7635"/>
<text text-anchor="middle" x="629.255" y="-12.5635" font-family="Times,serif" font-size="14.00">1276_18</text>
</g>
<!-- 1276_99x1276_10&#45;&gt;1276_18 -->
<g id="edge44" class="edge"><title>1276_99x1276_10&#45;&gt;1276_18</title>
<path fill="none" stroke="black" d="M441.379,-70.5654C454.796,-67.6324 529.124,-51.1182 588.255,-32.5269 589.659,-32.0855 591.085,-31.6235 592.522,-31.1466"/>
<polygon fill="black" stroke="black" points="593.745,-34.4271 602.044,-27.8414 591.449,-27.8141 593.745,-34.4271"/>
</g>
<!-- 1276_40 -->
<g id="node23" class="node"><title>1276_40</title>
<ellipse fill="#66cdaa" stroke="black" cx="1920.25" cy="-127.79" rx="45.011" ry="16.0303"/>
<text text-anchor="middle" x="1920.25" y="-124.09" font-family="Times,serif" font-size="14.00">1276_40</text>
</g>
<!-- 1276_40&#45;&gt;1276_9x1276_40 -->
<g id="edge17" class="edge"><title>1276_40&#45;&gt;1276_9x1276_40</title>
<path fill="none" stroke="black" d="M1920.25,-111.24C1920.25,-103.134 1920.25,-93.3455 1920.25,-85.7049"/>
<polygon fill="black" stroke="black" points="1923.75,-85.5501 1920.25,-75.5502 1916.75,-85.5502 1923.75,-85.5501"/>
</g>
<!-- 1276_6 -->
<g id="node24" class="node"><title>1276_6</title>
<ellipse fill="dimgrey" stroke="black" cx="1349.25" cy="-127.79" rx="40.1111" ry="16.0303"/>
<text text-anchor="middle" x="1349.25" y="-124.09" font-family="Times,serif" font-size="14.00">1276_6</text>
</g>
<!-- 1276_6&#45;&gt;1276_27x1276_6 -->
<g id="edge19" class="edge"><title>1276_6&#45;&gt;1276_27x1276_6</title>
<path fill="none" stroke="black" d="M1349.25,-111.24C1349.25,-103.134 1349.25,-93.3455 1349.25,-85.7049"/>
<polygon fill="black" stroke="black" points="1352.75,-85.5501 1349.25,-75.5502 1345.75,-85.5502 1352.75,-85.5501"/>
</g>
<!-- 1276_1x1276_2 -->
<g id="node25" class="node"><title>1276_1x1276_2</title>
<polygon fill="none" stroke="black" points="1920.25,-187.054 1916.75,-183.554 1920.25,-180.054 1923.75,-183.554 1920.25,-187.054"/>
</g>
<!-- 1276_1x1276_2&#45;&gt;1276_6 -->
<g id="edge18" class="edge"><title>1276_1x1276_2&#45;&gt;1276_6</title>
<path fill="none" stroke="black" d="M1917.68,-182.589C1888.35,-182.949 1614.3,-185.11 1398.25,-144.054 1395.02,-143.438 1391.69,-142.682 1388.37,-141.838"/>
<polygon fill="black" stroke="black" points="1389.09,-138.406 1378.52,-139.099 1387.21,-145.15 1389.09,-138.406"/>
</g>
<!-- 1276_3 -->
<g id="node32" class="node"><title>1276_3</title>
<polygon fill="#66cdaa" stroke="black" points="2040.75,-139.29 1983.75,-139.29 1983.75,-116.29 2040.75,-116.29 2040.75,-139.29"/>
<text text-anchor="middle" x="2012.25" y="-124.09" font-family="Times,serif" font-size="14.00">1276_3</text>
</g>
<!-- 1276_1x1276_2&#45;&gt;1276_3 -->
<g id="edge26" class="edge"><title>1276_1x1276_2&#45;&gt;1276_3</title>
<path fill="none" stroke="black" d="M1921.85,-181.621C1929.34,-177.244 1961.63,-158.376 1985.49,-144.431"/>
<polygon fill="black" stroke="black" points="1987.29,-147.436 1994.15,-139.368 1983.75,-141.392 1987.29,-147.436"/>
</g>
<!-- 1276_4 -->
<g id="node33" class="node"><title>1276_4</title>
<polygon fill="dimgrey" stroke="black" points="2115.75,-139.29 2058.75,-139.29 2058.75,-116.29 2115.75,-116.29 2115.75,-139.29"/>
<text text-anchor="middle" x="2087.25" y="-124.09" font-family="Times,serif" font-size="14.00">1276_4</text>
</g>
<!-- 1276_1x1276_2&#45;&gt;1276_4 -->
<g id="edge27" class="edge"><title>1276_1x1276_2&#45;&gt;1276_4</title>
<path fill="none" stroke="black" d="M1922.41,-181.992C1934.82,-178.731 1998.51,-161.777 2049.25,-144.054 2050.3,-143.69 2051.35,-143.315 2052.41,-142.931"/>
<polygon fill="black" stroke="black" points="2053.91,-146.105 2062.03,-139.298 2051.44,-139.556 2053.91,-146.105"/>
</g>
<!-- 1276_5 -->
<g id="node34" class="node"><title>1276_5</title>
<polygon fill="#66cdaa" stroke="black" points="2190.75,-139.29 2133.75,-139.29 2133.75,-116.29 2190.75,-116.29 2190.75,-139.29"/>
<text text-anchor="middle" x="2162.25" y="-124.09" font-family="Times,serif" font-size="14.00">1276_5</text>
</g>
<!-- 1276_1x1276_2&#45;&gt;1276_5 -->
<g id="edge29" class="edge"><title>1276_1x1276_2&#45;&gt;1276_5</title>
<path fill="none" stroke="black" d="M1922.72,-182.274C1939.9,-180.286 2043.3,-167.704 2124.25,-144.054 2125.66,-143.643 2127.09,-143.199 2128.52,-142.73"/>
<polygon fill="black" stroke="black" points="2129.73,-146.016 2137.97,-139.359 2127.38,-139.423 2129.73,-146.016"/>
</g>
<!-- 1276_7 -->
<g id="node35" class="node"><title>1276_7</title>
<ellipse fill="#66cdaa" stroke="black" cx="2249.25" cy="-127.79" rx="40.1111" ry="16.0303"/>
<text text-anchor="middle" x="2249.25" y="-124.09" font-family="Times,serif" font-size="14.00">1276_7</text>
</g>
<!-- 1276_1x1276_2&#45;&gt;1276_7 -->
<g id="edge30" class="edge"><title>1276_1x1276_2&#45;&gt;1276_7</title>
<path fill="none" stroke="black" d="M1922.77,-182.361C1943.33,-180.75 2086.08,-168.971 2199.25,-144.054 2202.64,-143.309 2206.12,-142.447 2209.6,-141.52"/>
<polygon fill="black" stroke="black" points="2210.65,-144.862 2219.32,-138.775 2208.74,-138.126 2210.65,-144.862"/>
</g>
<!-- 1276_99 -->
<g id="node40" class="node"><title>1276_99</title>
<polygon fill="dimgrey" stroke="black" points="902.255,-139.29 838.255,-139.29 838.255,-116.29 902.255,-116.29 902.255,-139.29"/>
<text text-anchor="middle" x="870.255" y="-124.09" font-family="Times,serif" font-size="14.00">1276_99</text>
</g>
<!-- 1276_1x1276_2&#45;&gt;1276_99 -->
<g id="edge35" class="edge"><title>1276_1x1276_2&#45;&gt;1276_99</title>
<path fill="none" stroke="black" d="M1917.6,-182.418C1866.85,-179.819 1102.11,-140.662 912.531,-130.955"/>
<polygon fill="black" stroke="black" points="912.57,-127.453 902.404,-130.437 912.212,-134.443 912.57,-127.453"/>
</g>
<!-- 1276_9 -->
<g id="node43" class="node"><title>1276_9</title>
<polygon fill="dimgrey" stroke="black" points="1781.75,-139.29 1724.75,-139.29 1724.75,-116.29 1781.75,-116.29 1781.75,-139.29"/>
<text text-anchor="middle" x="1753.25" y="-124.09" font-family="Times,serif" font-size="14.00">1276_9</text>
</g>
<!-- 1276_1x1276_2&#45;&gt;1276_9 -->
<g id="edge39" class="edge"><title>1276_1x1276_2&#45;&gt;1276_9</title>
<path fill="none" stroke="black" d="M1918.08,-182.001C1905.56,-178.794 1841.3,-162.087 1790.25,-144.054 1789.24,-143.695 1788.21,-143.324 1787.18,-142.943"/>
<polygon fill="black" stroke="black" points="1788.39,-139.659 1777.8,-139.329 1785.87,-146.191 1788.39,-139.659"/>
</g>
<!-- 1276_8 -->
<g id="node44" class="node"><title>1276_8</title>
<polygon fill="dimgrey" stroke="black" points="1856.75,-139.29 1799.75,-139.29 1799.75,-116.29 1856.75,-116.29 1856.75,-139.29"/>
<text text-anchor="middle" x="1828.25" y="-124.09" font-family="Times,serif" font-size="14.00">1276_8</text>
</g>
<!-- 1276_1x1276_2&#45;&gt;1276_8 -->
<g id="edge41" class="edge"><title>1276_1x1276_2&#45;&gt;1276_8</title>
<path fill="none" stroke="black" d="M1918.66,-181.621C1911.17,-177.244 1878.88,-158.376 1855.02,-144.431"/>
<polygon fill="black" stroke="black" points="1856.76,-141.392 1846.36,-139.368 1853.22,-147.436 1856.76,-141.392"/>
</g>
<!-- 1276_1 -->
<g id="node30" class="node"><title>1276_1</title>
<polygon fill="#66cdaa" stroke="black" points="1905.75,-250.817 1848.75,-250.817 1848.75,-227.817 1905.75,-227.817 1905.75,-250.817"/>
<text text-anchor="middle" x="1877.25" y="-235.617" font-family="Times,serif" font-size="14.00">1276_1</text>
</g>
<!-- 1276_1&#45;&gt;1276_1x1276_2 -->
<g id="edge24" class="edge"><title>1276_1&#45;&gt;1276_1x1276_2</title>
<path fill="none" stroke="black" d="M1885.75,-227.695C1893.57,-217.912 1905.08,-203.527 1912.62,-194.1"/>
<polygon fill="black" stroke="black" points="1915.53,-196.07 1919.04,-186.074 1910.06,-191.698 1915.53,-196.07"/>
</g>
<!-- 1276_2 -->
<g id="node31" class="node"><title>1276_2</title>
<ellipse fill="#66cdaa" stroke="black" cx="1964.25" cy="-239.317" rx="40.1111" ry="16.0303"/>
<text text-anchor="middle" x="1964.25" y="-235.617" font-family="Times,serif" font-size="14.00">1276_2</text>
</g>
<!-- 1276_2&#45;&gt;1276_1x1276_2 -->
<g id="edge25" class="edge"><title>1276_2&#45;&gt;1276_1x1276_2</title>
<path fill="none" stroke="black" d="M1952.23,-223.626C1944.5,-214.182 1934.69,-202.192 1927.99,-194"/>
<polygon fill="black" stroke="black" points="1930.59,-191.656 1921.55,-186.134 1925.17,-196.089 1930.59,-191.656"/>
</g>
<!-- 1276_4&#45;&gt;1276_4x1276_19 -->
<g id="edge28" class="edge"><title>1276_4&#45;&gt;1276_4x1276_19</title>
<path fill="none" stroke="black" d="M2110.9,-116.278C2115.29,-114.545 2119.87,-112.877 2124.25,-111.527 2187.55,-92.0342 2266.11,-79.2537 2295.97,-74.7919"/>
<polygon fill="black" stroke="black" points="2296.63,-78.2319 2306.03,-73.333 2295.63,-71.3043 2296.63,-78.2319"/>
</g>
<!-- 1276_10 -->
<g id="node37" class="node"><title>1276_10</title>
<ellipse fill="dimgrey" stroke="black" cx="439.255" cy="-127.79" rx="45.011" ry="16.0303"/>
<text text-anchor="middle" x="439.255" y="-124.09" font-family="Times,serif" font-size="14.00">1276_10</text>
</g>
<!-- 1276_10&#45;&gt;1276_99x1276_10 -->
<g id="edge32" class="edge"><title>1276_10&#45;&gt;1276_99x1276_10</title>
<path fill="none" stroke="black" d="M439.255,-111.24C439.255,-103.134 439.255,-93.3455 439.255,-85.7049"/>
<polygon fill="black" stroke="black" points="442.755,-85.5501 439.255,-75.5502 435.755,-85.5502 442.755,-85.5501"/>
</g>
<!-- 1276_99&#45;&gt;1276_99x1276_10 -->
<g id="edge36" class="edge"><title>1276_99&#45;&gt;1276_99x1276_10</title>
<path fill="none" stroke="black" d="M838.212,-122.793C750.436,-111.844 508.841,-81.7072 451.553,-74.5611"/>
<polygon fill="black" stroke="black" points="451.86,-71.0722 441.503,-73.3074 450.993,-78.0184 451.86,-71.0722"/>
</g>
<!-- 1276_9&#45;&gt;1276_9x1276_40 -->
<g id="edge40" class="edge"><title>1276_9&#45;&gt;1276_9x1276_40</title>
<path fill="none" stroke="black" d="M1777.8,-116.251C1781.93,-114.597 1786.19,-112.962 1790.25,-111.527 1833.13,-96.3815 1885.31,-82.1723 1908.35,-76.1094"/>
<polygon fill="black" stroke="black" points="1909.29,-79.4829 1918.08,-73.5796 1907.53,-72.7081 1909.29,-79.4829"/>
</g>
<!-- 1276_19 -->
<g id="node48" class="node"><title>1276_19</title>
<ellipse fill="#66cdaa" stroke="black" cx="2354.25" cy="-127.79" rx="45.011" ry="16.0303"/>
<text text-anchor="middle" x="2354.25" y="-124.09" font-family="Times,serif" font-size="14.00">1276_19</text>
</g>
<!-- 1276_19&#45;&gt;1276_4x1276_19 -->
<g id="edge45" class="edge"><title>1276_19&#45;&gt;1276_4x1276_19</title>
<path fill="none" stroke="black" d="M2341.69,-112.099C2333.61,-102.656 2323.35,-90.6651 2316.34,-82.4735"/>
<polygon fill="black" stroke="black" points="2318.77,-79.9298 2309.61,-74.6068 2313.45,-84.4806 2318.77,-79.9298"/>
</g>
<!-- 1276_19&#45;&gt;1276_44x1276_19 -->
<g id="edge46" class="edge"><title>1276_19&#45;&gt;1276_44x1276_19</title>
<path fill="none" stroke="black" d="M2388,-116.929C2429.73,-104.737 2498.61,-84.6097 2526.24,-76.5367"/>
<polygon fill="black" stroke="black" points="2527.58,-79.7938 2536.19,-73.6295 2525.61,-73.0747 2527.58,-79.7938"/>
</g>
</g>
</svg>
