<?xml version="1.0" encoding="UTF-8" standalone="no"?>
<!DOCTYPE svg PUBLIC "-//W3C//DTD SVG 1.1//EN"
 "http://www.w3.org/Graphics/SVG/1.1/DTD/svg11.dtd">
<!-- Generated by graphviz version 2.38.0 (20140413.2041)
 -->
<!-- Title: %3 Pages: 1 -->
<svg width="1653pt" height="487pt"
 viewBox="0.00 0.00 1652.61 486.63" xmlns="http://www.w3.org/2000/svg" xmlns:xlink="http://www.w3.org/1999/xlink">
<g id="graph0" class="graph" transform="scale(1 1) rotate(0) translate(4 482.635)">
<title>%3</title>
<polygon fill="white" stroke="none" points="-4,4 -4,-482.635 1648.61,-482.635 1648.61,4 -4,4"/>
<!-- 212_99 -->
<g id="node1" class="node"><title>212_99</title>
<ellipse fill="dimgrey" stroke="black" cx="151.305" cy="-239.317" rx="40.1111" ry="16.0303"/>
<text text-anchor="middle" x="151.305" y="-235.617" font-family="Times,serif" font-size="14.00">212_99</text>
</g>
<!-- 212_14x212_99 -->
<g id="node3" class="node"><title>212_14x212_99</title>
<polygon fill="none" stroke="black" points="151.305,-187.054 147.805,-183.554 151.305,-180.054 154.805,-183.554 151.305,-187.054"/>
</g>
<!-- 212_99&#45;&gt;212_14x212_99 -->
<g id="edge2" class="edge"><title>212_99&#45;&gt;212_14x212_99</title>
<path fill="none" stroke="black" d="M151.305,-222.767C151.305,-214.661 151.305,-204.872 151.305,-197.232"/>
<polygon fill="black" stroke="black" points="154.805,-197.077 151.305,-187.077 147.805,-197.077 154.805,-197.077"/>
</g>
<!-- 212_1x212_2 -->
<g id="node2" class="node"><title>212_1x212_2</title>
<polygon fill="none" stroke="black" points="787.305,-298.581 783.805,-295.081 787.305,-291.581 790.805,-295.081 787.305,-298.581"/>
</g>
<!-- 212_1x212_2&#45;&gt;212_99 -->
<g id="edge1" class="edge"><title>212_1x212_2&#45;&gt;212_99</title>
<path fill="none" stroke="black" d="M784.411,-294.153C751.435,-294.924 443.297,-300.736 200.305,-255.581 197.064,-254.978 193.736,-254.231 190.414,-253.394"/>
<polygon fill="black" stroke="black" points="191.131,-249.961 180.56,-250.665 189.263,-256.707 191.131,-249.961"/>
</g>
<!-- 212_8 -->
<g id="node6" class="node"><title>212_8</title>
<ellipse fill="dimgrey" stroke="black" cx="1194.31" cy="-239.317" rx="35.2113" ry="16.0303"/>
<text text-anchor="middle" x="1194.31" y="-235.617" font-family="Times,serif" font-size="14.00">212_8</text>
</g>
<!-- 212_1x212_2&#45;&gt;212_8 -->
<g id="edge5" class="edge"><title>212_1x212_2&#45;&gt;212_8</title>
<path fill="none" stroke="black" d="M789.93,-294.023C814.194,-293.446 1001.78,-288.026 1149.31,-255.581 1152.27,-254.928 1155.31,-254.148 1158.35,-253.29"/>
<polygon fill="black" stroke="black" points="1159.4,-256.63 1167.93,-250.346 1157.34,-249.939 1159.4,-256.63"/>
</g>
<!-- 212_4 -->
<g id="node39" class="node"><title>212_4</title>
<polygon fill="#66cdaa" stroke="black" points="564.305,-250.817 514.305,-250.817 514.305,-227.817 564.305,-227.817 564.305,-250.817"/>
<text text-anchor="middle" x="539.305" y="-235.617" font-family="Times,serif" font-size="14.00">212_4</text>
</g>
<!-- 212_1x212_2&#45;&gt;212_4 -->
<g id="edge31" class="edge"><title>212_1x212_2&#45;&gt;212_4</title>
<path fill="none" stroke="black" d="M784.705,-293.855C766.609,-292.234 657.694,-281.683 573.305,-255.581 572.254,-255.256 571.193,-254.907 570.128,-254.538"/>
<polygon fill="black" stroke="black" points="571.171,-251.188 560.582,-250.819 568.629,-257.71 571.171,-251.188"/>
</g>
<!-- 212_11 -->
<g id="node41" class="node"><title>212_11</title>
<polygon fill="dimgrey" stroke="black" points="737.805,-250.817 680.805,-250.817 680.805,-227.817 737.805,-227.817 737.805,-250.817"/>
<text text-anchor="middle" x="709.305" y="-235.617" font-family="Times,serif" font-size="14.00">212_11</text>
</g>
<!-- 212_1x212_2&#45;&gt;212_11 -->
<g id="edge33" class="edge"><title>212_1x212_2&#45;&gt;212_11</title>
<path fill="none" stroke="black" d="M785.676,-292.958C778.968,-288.334 752.904,-270.369 733.073,-256.7"/>
<polygon fill="black" stroke="black" points="734.982,-253.765 724.762,-250.971 731.009,-259.528 734.982,-253.765"/>
</g>
<!-- 212_10 -->
<g id="node42" class="node"><title>212_10</title>
<ellipse fill="dimgrey" stroke="black" cx="622.305" cy="-239.317" rx="40.1111" ry="16.0303"/>
<text text-anchor="middle" x="622.305" y="-235.617" font-family="Times,serif" font-size="14.00">212_10</text>
</g>
<!-- 212_1x212_2&#45;&gt;212_10 -->
<g id="edge34" class="edge"><title>212_1x212_2&#45;&gt;212_10</title>
<path fill="none" stroke="black" d="M785.219,-293.401C772.664,-289.31 706.224,-267.662 662.164,-253.305"/>
<polygon fill="black" stroke="black" points="663.176,-249.954 652.584,-250.183 661.007,-256.609 663.176,-249.954"/>
</g>
<!-- 212_9 -->
<g id="node43" class="node"><title>212_9</title>
<ellipse fill="white" stroke="black" cx="1105.31" cy="-239.317" rx="35.2113" ry="16.0303"/>
<text text-anchor="middle" x="1105.31" y="-235.617" font-family="Times,serif" font-size="14.00">212_9</text>
</g>
<!-- 212_1x212_2&#45;&gt;212_9 -->
<g id="edge36" class="edge"><title>212_1x212_2&#45;&gt;212_9</title>
<path fill="none" stroke="black" d="M789.77,-293.91C809.943,-292.475 949.945,-281.835 1060.31,-255.581 1063.26,-254.878 1066.29,-254.062 1069.33,-253.179"/>
<polygon fill="black" stroke="black" points="1070.39,-256.513 1078.89,-250.192 1068.31,-249.831 1070.39,-256.513"/>
</g>
<!-- 212_5 -->
<g id="node49" class="node"><title>212_5</title>
<ellipse fill="dimgrey" stroke="black" cx="344.305" cy="-239.317" rx="35.2113" ry="16.0303"/>
<text text-anchor="middle" x="344.305" y="-235.617" font-family="Times,serif" font-size="14.00">212_5</text>
</g>
<!-- 212_1x212_2&#45;&gt;212_5 -->
<g id="edge44" class="edge"><title>212_1x212_2&#45;&gt;212_5</title>
<path fill="none" stroke="black" d="M784.736,-294.066C759.386,-293.874 551.48,-291.223 388.305,-255.581 385.656,-255.002 382.947,-254.313 380.237,-253.553"/>
<polygon fill="black" stroke="black" points="381.125,-250.164 370.538,-250.556 379.059,-256.852 381.125,-250.164"/>
</g>
<!-- 212_7 -->
<g id="node55" class="node"><title>212_7</title>
<ellipse fill="dimgrey" stroke="black" cx="866.305" cy="-239.317" rx="35.2113" ry="16.0303"/>
<text text-anchor="middle" x="866.305" y="-235.617" font-family="Times,serif" font-size="14.00">212_7</text>
</g>
<!-- 212_1x212_2&#45;&gt;212_7 -->
<g id="edge53" class="edge"><title>212_1x212_2&#45;&gt;212_7</title>
<path fill="none" stroke="black" d="M788.955,-292.958C795.402,-288.571 819.499,-272.171 839.105,-258.828"/>
<polygon fill="black" stroke="black" points="841.144,-261.674 847.442,-253.154 837.206,-255.887 841.144,-261.674"/>
</g>
<!-- 212_6 -->
<g id="node56" class="node"><title>212_6</title>
<polygon fill="dimgrey" stroke="black" points="1426.31,-250.817 1376.31,-250.817 1376.31,-227.817 1426.31,-227.817 1426.31,-250.817"/>
<text text-anchor="middle" x="1401.31" y="-235.617" font-family="Times,serif" font-size="14.00">212_6</text>
</g>
<!-- 212_1x212_2&#45;&gt;212_6 -->
<g id="edge55" class="edge"><title>212_1x212_2&#45;&gt;212_6</title>
<path fill="none" stroke="black" d="M790.221,-294.031C829.206,-293.346 1247.84,-285.339 1367.31,-255.581 1368.58,-255.264 1369.86,-254.902 1371.14,-254.504"/>
<polygon fill="black" stroke="black" points="1372.71,-257.655 1380.87,-250.893 1370.27,-251.093 1372.71,-257.655"/>
</g>
<!-- 212_12 -->
<g id="node5" class="node"><title>212_12</title>
<ellipse fill="white" stroke="black" cx="40.3051" cy="-127.79" rx="40.1111" ry="16.0303"/>
<text text-anchor="middle" x="40.3051" y="-124.09" font-family="Times,serif" font-size="14.00">212_12</text>
</g>
<!-- 212_14x212_99&#45;&gt;212_12 -->
<g id="edge4" class="edge"><title>212_14x212_99&#45;&gt;212_12</title>
<path fill="none" stroke="black" d="M149.378,-181.621C140.507,-177.324 102.801,-159.061 74.1851,-145.2"/>
<polygon fill="black" stroke="black" points="75.4092,-141.904 64.8836,-140.695 72.3578,-148.204 75.4092,-141.904"/>
</g>
<!-- 212_13 -->
<g id="node10" class="node"><title>212_13</title>
<polygon fill="white" stroke="black" points="155.805,-139.29 98.8051,-139.29 98.8051,-116.29 155.805,-116.29 155.805,-139.29"/>
<text text-anchor="middle" x="127.305" y="-124.09" font-family="Times,serif" font-size="14.00">212_13</text>
</g>
<!-- 212_14x212_99&#45;&gt;212_13 -->
<g id="edge8" class="edge"><title>212_14x212_99&#45;&gt;212_13</title>
<path fill="none" stroke="black" d="M150.507,-180.765C148.273,-175.762 141.762,-161.176 136.204,-148.724"/>
<polygon fill="black" stroke="black" points="139.323,-147.125 132.05,-139.42 132.931,-149.979 139.323,-147.125"/>
</g>
<!-- 212_3 -->
<g id="node13" class="node"><title>212_3</title>
<ellipse fill="white" stroke="black" cx="209.305" cy="-127.79" rx="35.2113" ry="16.0303"/>
<text text-anchor="middle" x="209.305" y="-124.09" font-family="Times,serif" font-size="14.00">212_3</text>
</g>
<!-- 212_14x212_99&#45;&gt;212_3 -->
<g id="edge10" class="edge"><title>212_14x212_99&#45;&gt;212_3</title>
<path fill="none" stroke="black" d="M152.739,-181.225C157.464,-176.845 173.019,-162.426 186.624,-149.815"/>
<polygon fill="black" stroke="black" points="189.358,-152.053 194.312,-142.688 184.599,-146.92 189.358,-152.053"/>
</g>
<!-- 212_14 -->
<g id="node4" class="node"><title>212_14</title>
<polygon fill="#66cdaa" stroke="black" points="266.805,-250.817 209.805,-250.817 209.805,-227.817 266.805,-227.817 266.805,-250.817"/>
<text text-anchor="middle" x="238.305" y="-235.617" font-family="Times,serif" font-size="14.00">212_14</text>
</g>
<!-- 212_14&#45;&gt;212_14x212_99 -->
<g id="edge3" class="edge"><title>212_14&#45;&gt;212_14x212_99</title>
<path fill="none" stroke="black" d="M221.117,-227.695C203.611,-216.877 177,-200.432 162.201,-191.287"/>
<polygon fill="black" stroke="black" points="163.612,-188.045 153.265,-185.765 159.932,-193.999 163.612,-188.045"/>
</g>
<!-- 212_33 -->
<g id="node7" class="node"><title>212_33</title>
<ellipse fill="#66cdaa" stroke="black" cx="1320.31" cy="-127.79" rx="40.1111" ry="16.0303"/>
<text text-anchor="middle" x="1320.31" y="-124.09" font-family="Times,serif" font-size="14.00">212_33</text>
</g>
<!-- 212_34x212_33 -->
<g id="node9" class="node"><title>212_34x212_33</title>
<polygon fill="none" stroke="black" points="1438.31,-75.5269 1434.81,-72.0269 1438.31,-68.5269 1441.81,-72.0269 1438.31,-75.5269"/>
</g>
<!-- 212_33&#45;&gt;212_34x212_33 -->
<g id="edge7" class="edge"><title>212_33&#45;&gt;212_34x212_33</title>
<path fill="none" stroke="black" d="M1345.91,-115.124C1371.14,-103.627 1408.53,-86.5929 1427.06,-78.1522"/>
<polygon fill="black" stroke="black" points="1428.69,-81.2534 1436.34,-73.9222 1425.79,-74.8834 1428.69,-81.2534"/>
</g>
<!-- 212_32x212_9 -->
<g id="node8" class="node"><title>212_32x212_9</title>
<polygon fill="none" stroke="black" points="1105.31,-187.054 1101.81,-183.554 1105.31,-180.054 1108.81,-183.554 1105.31,-187.054"/>
</g>
<!-- 212_32x212_9&#45;&gt;212_33 -->
<g id="edge6" class="edge"><title>212_32x212_9&#45;&gt;212_33</title>
<path fill="none" stroke="black" d="M1107.65,-182.07C1122.44,-178.997 1204.4,-161.78 1270.31,-144.054 1273.46,-143.205 1276.72,-142.293 1279.98,-141.353"/>
<polygon fill="black" stroke="black" points="1281.12,-144.666 1289.73,-138.48 1279.14,-137.952 1281.12,-144.666"/>
</g>
<!-- 212_45 -->
<g id="node53" class="node"><title>212_45</title>
<ellipse fill="#66cdaa" stroke="black" cx="1395.31" cy="-16.2635" rx="40.1111" ry="16.0303"/>
<text text-anchor="middle" x="1395.31" y="-12.5635" font-family="Times,serif" font-size="14.00">212_45</text>
</g>
<!-- 212_34x212_33&#45;&gt;212_45 -->
<g id="edge51" class="edge"><title>212_34x212_33&#45;&gt;212_45</title>
<path fill="none" stroke="black" d="M1436.87,-69.2381C1433.16,-64.5897 1422.82,-51.6688 1413.39,-39.8738"/>
<polygon fill="black" stroke="black" points="1416.07,-37.6268 1407.09,-32.0034 1410.61,-41.999 1416.07,-37.6268"/>
</g>
<!-- 212_46 -->
<g id="node54" class="node"><title>212_46</title>
<polygon fill="#66cdaa" stroke="black" points="1510.81,-27.7635 1453.81,-27.7635 1453.81,-4.76346 1510.81,-4.76346 1510.81,-27.7635"/>
<text text-anchor="middle" x="1482.31" y="-12.5635" font-family="Times,serif" font-size="14.00">212_46</text>
</g>
<!-- 212_34x212_33&#45;&gt;212_46 -->
<g id="edge52" class="edge"><title>212_34x212_33&#45;&gt;212_46</title>
<path fill="none" stroke="black" d="M1439.77,-69.2381C1444.03,-64.0368 1456.76,-48.4782 1467.19,-35.7288"/>
<polygon fill="black" stroke="black" points="1469.98,-37.8489 1473.61,-27.8934 1464.56,-33.4155 1469.98,-37.8489"/>
</g>
<!-- 212_44 -->
<g id="node11" class="node"><title>212_44</title>
<ellipse fill="#66cdaa" stroke="black" cx="1300.31" cy="-462.371" rx="40.1111" ry="16.0303"/>
<text text-anchor="middle" x="1300.31" y="-458.671" font-family="Times,serif" font-size="14.00">212_44</text>
</g>
<!-- 212_43x212_44 -->
<g id="node12" class="node"><title>212_43x212_44</title>
<polygon fill="none" stroke="black" points="1343.31,-410.108 1339.81,-406.608 1343.31,-403.108 1346.81,-406.608 1343.31,-410.108"/>
</g>
<!-- 212_44&#45;&gt;212_43x212_44 -->
<g id="edge9" class="edge"><title>212_44&#45;&gt;212_43x212_44</title>
<path fill="none" stroke="black" d="M1312.06,-446.68C1319.61,-437.236 1329.2,-425.246 1335.75,-417.054"/>
<polygon fill="black" stroke="black" points="1338.53,-419.183 1342.04,-409.188 1333.06,-414.811 1338.53,-419.183"/>
</g>
<!-- 212_2 -->
<g id="node44" class="node"><title>212_2</title>
<ellipse fill="#66cdaa" stroke="black" cx="1000.31" cy="-350.844" rx="35.2113" ry="16.0303"/>
<text text-anchor="middle" x="1000.31" y="-347.144" font-family="Times,serif" font-size="14.00">212_2</text>
</g>
<!-- 212_43x212_44&#45;&gt;212_2 -->
<g id="edge38" class="edge"><title>212_43x212_44&#45;&gt;212_2</title>
<path fill="none" stroke="black" d="M1341.11,-405.264C1318.69,-401.749 1129.87,-372.153 1043.33,-358.588"/>
<polygon fill="black" stroke="black" points="1043.72,-355.107 1033.3,-357.016 1042.64,-362.022 1043.72,-355.107"/>
</g>
<!-- 212_39 -->
<g id="node45" class="node"><title>212_39</title>
<polygon fill="#66cdaa" stroke="black" points="1545.81,-362.344 1488.81,-362.344 1488.81,-339.344 1545.81,-339.344 1545.81,-362.344"/>
<text text-anchor="middle" x="1517.31" y="-347.144" font-family="Times,serif" font-size="14.00">212_39</text>
</g>
<!-- 212_43x212_44&#45;&gt;212_39 -->
<g id="edge40" class="edge"><title>212_43x212_44&#45;&gt;212_39</title>
<path fill="none" stroke="black" d="M1345.58,-405.061C1358.68,-401.888 1425.89,-385.338 1479.31,-367.108 1480.35,-366.752 1481.4,-366.383 1482.47,-366.004"/>
<polygon fill="black" stroke="black" points="1483.96,-369.183 1492.1,-362.403 1481.51,-362.627 1483.96,-369.183"/>
</g>
<!-- 212_41 -->
<g id="node47" class="node"><title>212_41</title>
<polygon fill="#66cdaa" stroke="black" points="1371.81,-362.344 1314.81,-362.344 1314.81,-339.344 1371.81,-339.344 1371.81,-362.344"/>
<text text-anchor="middle" x="1343.31" y="-347.144" font-family="Times,serif" font-size="14.00">212_41</text>
</g>
<!-- 212_43x212_44&#45;&gt;212_41 -->
<g id="edge42" class="edge"><title>212_43x212_44&#45;&gt;212_41</title>
<path fill="none" stroke="black" d="M1343.31,-403.015C1343.31,-397.546 1343.31,-384.381 1343.31,-372.774"/>
<polygon fill="black" stroke="black" points="1346.81,-372.426 1343.31,-362.426 1339.81,-372.426 1346.81,-372.426"/>
</g>
<!-- 212_24 -->
<g id="node14" class="node"><title>212_24</title>
<polygon fill="white" stroke="black" points="1510.81,-139.29 1453.81,-139.29 1453.81,-116.29 1510.81,-116.29 1510.81,-139.29"/>
<text text-anchor="middle" x="1482.31" y="-124.09" font-family="Times,serif" font-size="14.00">212_24</text>
</g>
<!-- 212_6x212_27 -->
<g id="node15" class="node"><title>212_6x212_27</title>
<polygon fill="none" stroke="black" points="1403.31,-187.054 1399.81,-183.554 1403.31,-180.054 1406.81,-183.554 1403.31,-187.054"/>
</g>
<!-- 212_6x212_27&#45;&gt;212_24 -->
<g id="edge11" class="edge"><title>212_6x212_27&#45;&gt;212_24</title>
<path fill="none" stroke="black" d="M1404.96,-181.431C1411.75,-176.807 1438.15,-158.842 1458.23,-145.173"/>
<polygon fill="black" stroke="black" points="1460.35,-147.964 1466.65,-139.444 1456.41,-142.177 1460.35,-147.964"/>
</g>
<!-- 212_25 -->
<g id="node58" class="node"><title>212_25</title>
<polygon fill="white" stroke="black" points="1435.81,-139.29 1378.81,-139.29 1378.81,-116.29 1435.81,-116.29 1435.81,-139.29"/>
<text text-anchor="middle" x="1407.31" y="-124.09" font-family="Times,serif" font-size="14.00">212_25</text>
</g>
<!-- 212_6x212_27&#45;&gt;212_25 -->
<g id="edge58" class="edge"><title>212_6x212_27&#45;&gt;212_25</title>
<path fill="none" stroke="black" d="M1403.5,-179.961C1403.91,-174.436 1404.9,-161.055 1405.77,-149.362"/>
<polygon fill="black" stroke="black" points="1409.27,-149.604 1406.52,-139.372 1402.29,-149.085 1409.27,-149.604"/>
</g>
<!-- 212_21 -->
<g id="node16" class="node"><title>212_21</title>
<ellipse fill="white" stroke="black" cx="948.305" cy="-127.79" rx="40.1111" ry="16.0303"/>
<text text-anchor="middle" x="948.305" y="-124.09" font-family="Times,serif" font-size="14.00">212_21</text>
</g>
<!-- 212_20x212_7 -->
<g id="node17" class="node"><title>212_20x212_7</title>
<polygon fill="none" stroke="black" points="948.305,-187.054 944.805,-183.554 948.305,-180.054 951.805,-183.554 948.305,-187.054"/>
</g>
<!-- 212_20x212_7&#45;&gt;212_21 -->
<g id="edge12" class="edge"><title>212_20x212_7&#45;&gt;212_21</title>
<path fill="none" stroke="black" d="M948.305,-179.961C948.305,-175.178 948.305,-164.508 948.305,-154.142"/>
<polygon fill="black" stroke="black" points="951.805,-154.107 948.305,-144.107 944.805,-154.107 951.805,-154.107"/>
</g>
<!-- 212_23 -->
<g id="node26" class="node"><title>212_23</title>
<polygon fill="white" stroke="black" points="1063.81,-139.29 1006.81,-139.29 1006.81,-116.29 1063.81,-116.29 1063.81,-139.29"/>
<text text-anchor="middle" x="1035.31" y="-124.09" font-family="Times,serif" font-size="14.00">212_23</text>
</g>
<!-- 212_20x212_7&#45;&gt;212_23 -->
<g id="edge19" class="edge"><title>212_20x212_7&#45;&gt;212_23</title>
<path fill="none" stroke="black" d="M950.122,-181.431C957.671,-176.766 987.199,-158.519 1009.39,-144.806"/>
<polygon fill="black" stroke="black" points="1011.4,-147.679 1018.06,-139.444 1007.72,-141.724 1011.4,-147.679"/>
</g>
<!-- 212_29 -->
<g id="node31" class="node"><title>212_29</title>
<ellipse fill="white" stroke="black" cx="1122.31" cy="-127.79" rx="40.1111" ry="16.0303"/>
<text text-anchor="middle" x="1122.31" y="-124.09" font-family="Times,serif" font-size="14.00">212_29</text>
</g>
<!-- 212_20x212_7&#45;&gt;212_29 -->
<g id="edge23" class="edge"><title>212_20x212_7&#45;&gt;212_29</title>
<path fill="none" stroke="black" d="M950.259,-181.95C962.982,-178.019 1034.98,-155.773 1081.71,-141.333"/>
<polygon fill="black" stroke="black" points="1082.75,-144.675 1091.27,-138.379 1080.69,-137.987 1082.75,-144.675"/>
</g>
<!-- 212_35 -->
<g id="node32" class="node"><title>212_35</title>
<ellipse fill="#66cdaa" stroke="black" cx="1221.31" cy="-127.79" rx="40.1111" ry="16.0303"/>
<text text-anchor="middle" x="1221.31" y="-124.09" font-family="Times,serif" font-size="14.00">212_35</text>
</g>
<!-- 212_20x212_7&#45;&gt;212_35 -->
<g id="edge24" class="edge"><title>212_20x212_7&#45;&gt;212_35</title>
<path fill="none" stroke="black" d="M950.981,-182.221C969.614,-179.879 1081.87,-165.337 1171.31,-144.054 1174.53,-143.287 1177.85,-142.428 1181.17,-141.52"/>
<polygon fill="black" stroke="black" points="1182.41,-144.805 1191.06,-138.687 1180.49,-138.076 1182.41,-144.805"/>
</g>
<!-- 212_36 -->
<g id="node33" class="node"><title>212_36</title>
<polygon fill="#66cdaa" stroke="black" points="790.805,-139.29 733.805,-139.29 733.805,-116.29 790.805,-116.29 790.805,-139.29"/>
<text text-anchor="middle" x="762.305" y="-124.09" font-family="Times,serif" font-size="14.00">212_36</text>
</g>
<!-- 212_20x212_7&#45;&gt;212_36 -->
<g id="edge25" class="edge"><title>212_20x212_7&#45;&gt;212_36</title>
<path fill="none" stroke="black" d="M946.189,-182.11C932.825,-179.287 858.808,-163.325 800.305,-144.054 799.258,-143.709 798.199,-143.35 797.133,-142.98"/>
<polygon fill="black" stroke="black" points="798.079,-139.598 787.485,-139.426 795.659,-146.167 798.079,-139.598"/>
</g>
<!-- 212_22 -->
<g id="node35" class="node"><title>212_22</title>
<ellipse fill="white" stroke="black" cx="849.305" cy="-127.79" rx="40.1111" ry="16.0303"/>
<text text-anchor="middle" x="849.305" y="-124.09" font-family="Times,serif" font-size="14.00">212_22</text>
</g>
<!-- 212_20x212_7&#45;&gt;212_22 -->
<g id="edge27" class="edge"><title>212_20x212_7&#45;&gt;212_22</title>
<path fill="none" stroke="black" d="M946.587,-181.621C938.857,-177.423 906.588,-159.899 881.307,-146.17"/>
<polygon fill="black" stroke="black" points="882.826,-143.012 872.368,-141.315 879.485,-149.163 882.826,-143.012"/>
</g>
<!-- 212_19 -->
<g id="node18" class="node"><title>212_19</title>
<ellipse fill="white" stroke="black" cx="600.305" cy="-127.79" rx="40.1111" ry="16.0303"/>
<text text-anchor="middle" x="600.305" y="-124.09" font-family="Times,serif" font-size="14.00">212_19</text>
</g>
<!-- 212_15x212_10 -->
<g id="node19" class="node"><title>212_15x212_10</title>
<polygon fill="none" stroke="black" points="611.305,-187.054 607.805,-183.554 611.305,-180.054 614.805,-183.554 611.305,-187.054"/>
</g>
<!-- 212_15x212_10&#45;&gt;212_19 -->
<g id="edge13" class="edge"><title>212_15x212_10&#45;&gt;212_19</title>
<path fill="none" stroke="black" d="M610.832,-180.244C609.885,-175.613 607.659,-164.733 605.497,-154.164"/>
<polygon fill="black" stroke="black" points="608.92,-153.436 603.487,-144.341 602.062,-154.84 608.92,-153.436"/>
</g>
<!-- 212_16 -->
<g id="node21" class="node"><title>212_16</title>
<polygon fill="white" stroke="black" points="715.805,-139.29 658.805,-139.29 658.805,-116.29 715.805,-116.29 715.805,-139.29"/>
<text text-anchor="middle" x="687.305" y="-124.09" font-family="Times,serif" font-size="14.00">212_16</text>
</g>
<!-- 212_15x212_10&#45;&gt;212_16 -->
<g id="edge15" class="edge"><title>212_15x212_10&#45;&gt;212_16</title>
<path fill="none" stroke="black" d="M612.892,-181.431C619.399,-176.828 644.597,-159.003 663.886,-145.357"/>
<polygon fill="black" stroke="black" points="666.102,-148.077 672.245,-139.444 662.059,-142.362 666.102,-148.077"/>
</g>
<!-- 212_17 -->
<g id="node22" class="node"><title>212_17</title>
<ellipse fill="#66cdaa" stroke="black" cx="402.305" cy="-127.79" rx="40.1111" ry="16.0303"/>
<text text-anchor="middle" x="402.305" y="-124.09" font-family="Times,serif" font-size="14.00">212_17</text>
</g>
<!-- 212_15x212_10&#45;&gt;212_17 -->
<g id="edge16" class="edge"><title>212_15x212_10&#45;&gt;212_17</title>
<path fill="none" stroke="black" d="M609.051,-182.06C594.807,-178.932 515.864,-161.434 452.305,-144.054 449.153,-143.192 445.899,-142.271 442.634,-141.324"/>
<polygon fill="black" stroke="black" points="443.478,-137.923 432.896,-138.44 441.49,-144.635 443.478,-137.923"/>
</g>
<!-- 212_18 -->
<g id="node23" class="node"><title>212_18</title>
<ellipse fill="#66cdaa" stroke="black" cx="501.305" cy="-127.79" rx="40.1111" ry="16.0303"/>
<text text-anchor="middle" x="501.305" y="-124.09" font-family="Times,serif" font-size="14.00">212_18</text>
</g>
<!-- 212_15x212_10&#45;&gt;212_18 -->
<g id="edge17" class="edge"><title>212_15x212_10&#45;&gt;212_18</title>
<path fill="none" stroke="black" d="M609.396,-181.621C600.63,-177.336 563.456,-159.167 535.128,-145.322"/>
<polygon fill="black" stroke="black" points="536.435,-142.065 525.914,-140.818 533.362,-148.354 536.435,-142.065"/>
</g>
<!-- 212_15 -->
<g id="node20" class="node"><title>212_15</title>
<polygon fill="#66cdaa" stroke="black" points="812.805,-250.817 755.805,-250.817 755.805,-227.817 812.805,-227.817 812.805,-250.817"/>
<text text-anchor="middle" x="784.305" y="-235.617" font-family="Times,serif" font-size="14.00">212_15</text>
</g>
<!-- 212_15&#45;&gt;212_15x212_10 -->
<g id="edge14" class="edge"><title>212_15&#45;&gt;212_15x212_10</title>
<path fill="none" stroke="black" d="M759.097,-227.766C754.854,-226.113 750.475,-224.482 746.305,-223.054 701.558,-207.733 647.075,-193.516 623.331,-187.534"/>
<polygon fill="black" stroke="black" points="624.108,-184.121 613.559,-185.103 622.418,-190.914 624.108,-184.121"/>
</g>
<!-- 212_501 -->
<g id="node24" class="node"><title>212_501</title>
<polygon fill="#66cdaa" stroke="black" points="1498.31,-473.871 1434.31,-473.871 1434.31,-450.871 1498.31,-450.871 1498.31,-473.871"/>
<text text-anchor="middle" x="1466.31" y="-458.671" font-family="Times,serif" font-size="14.00">212_501</text>
</g>
<!-- 212_20 -->
<g id="node25" class="node"><title>212_20</title>
<polygon fill="#66cdaa" stroke="black" points="976.805,-250.817 919.805,-250.817 919.805,-227.817 976.805,-227.817 976.805,-250.817"/>
<text text-anchor="middle" x="948.305" y="-235.617" font-family="Times,serif" font-size="14.00">212_20</text>
</g>
<!-- 212_20&#45;&gt;212_20x212_7 -->
<g id="edge18" class="edge"><title>212_20&#45;&gt;212_20x212_7</title>
<path fill="none" stroke="black" d="M948.305,-227.695C948.305,-218.943 948.305,-206.507 948.305,-197.234"/>
<polygon fill="black" stroke="black" points="951.805,-197.192 948.305,-187.192 944.805,-197.193 951.805,-197.192"/>
</g>
<!-- 212_27 -->
<g id="node27" class="node"><title>212_27</title>
<ellipse fill="#66cdaa" stroke="black" cx="1318.31" cy="-239.317" rx="40.1111" ry="16.0303"/>
<text text-anchor="middle" x="1318.31" y="-235.617" font-family="Times,serif" font-size="14.00">212_27</text>
</g>
<!-- 212_27&#45;&gt;212_6x212_27 -->
<g id="edge20" class="edge"><title>212_27&#45;&gt;212_6x212_27</title>
<path fill="none" stroke="black" d="M1338.88,-225.303C1355.91,-214.534 1379.39,-199.678 1392.8,-191.199"/>
<polygon fill="black" stroke="black" points="1394.99,-193.956 1401.57,-185.652 1391.25,-188.04 1394.99,-193.956"/>
</g>
<!-- 212_28 -->
<g id="node28" class="node"><title>212_28</title>
<polygon fill="#66cdaa" stroke="black" points="454.805,-250.817 397.805,-250.817 397.805,-227.817 454.805,-227.817 454.805,-250.817"/>
<text text-anchor="middle" x="426.305" y="-235.617" font-family="Times,serif" font-size="14.00">212_28</text>
</g>
<!-- 212_28x212_5 -->
<g id="node29" class="node"><title>212_28x212_5</title>
<polygon fill="none" stroke="black" points="344.305,-187.054 340.805,-183.554 344.305,-180.054 347.805,-183.554 344.305,-187.054"/>
</g>
<!-- 212_28&#45;&gt;212_28x212_5 -->
<g id="edge21" class="edge"><title>212_28&#45;&gt;212_28x212_5</title>
<path fill="none" stroke="black" d="M410.105,-227.695C393.605,-216.877 368.523,-200.432 354.575,-191.287"/>
<polygon fill="black" stroke="black" points="356.434,-188.321 346.152,-185.765 352.596,-194.175 356.434,-188.321"/>
</g>
<!-- 212_26 -->
<g id="node30" class="node"><title>212_26</title>
<ellipse fill="white" stroke="black" cx="303.305" cy="-127.79" rx="40.1111" ry="16.0303"/>
<text text-anchor="middle" x="303.305" y="-124.09" font-family="Times,serif" font-size="14.00">212_26</text>
</g>
<!-- 212_28x212_5&#45;&gt;212_26 -->
<g id="edge22" class="edge"><title>212_28x212_5&#45;&gt;212_26</title>
<path fill="none" stroke="black" d="M342.941,-180.765C339.43,-176.161 329.731,-163.443 320.807,-151.741"/>
<polygon fill="black" stroke="black" points="323.393,-149.36 314.546,-143.53 317.827,-153.604 323.393,-149.36"/>
</g>
<!-- 212_32 -->
<g id="node34" class="node"><title>212_32</title>
<polygon fill="#66cdaa" stroke="black" points="1051.81,-250.817 994.805,-250.817 994.805,-227.817 1051.81,-227.817 1051.81,-250.817"/>
<text text-anchor="middle" x="1023.31" y="-235.617" font-family="Times,serif" font-size="14.00">212_32</text>
</g>
<!-- 212_32&#45;&gt;212_32x212_9 -->
<g id="edge26" class="edge"><title>212_32&#45;&gt;212_32x212_9</title>
<path fill="none" stroke="black" d="M1039.51,-227.695C1056.01,-216.877 1081.09,-200.432 1095.04,-191.287"/>
<polygon fill="black" stroke="black" points="1097.01,-194.175 1103.46,-185.765 1093.18,-188.321 1097.01,-194.175"/>
</g>
<!-- 212_34 -->
<g id="node36" class="node"><title>212_34</title>
<polygon fill="#66cdaa" stroke="black" points="1585.81,-139.29 1528.81,-139.29 1528.81,-116.29 1585.81,-116.29 1585.81,-139.29"/>
<text text-anchor="middle" x="1557.31" y="-124.09" font-family="Times,serif" font-size="14.00">212_34</text>
</g>
<!-- 212_34&#45;&gt;212_34x212_33 -->
<g id="edge29" class="edge"><title>212_34&#45;&gt;212_34x212_33</title>
<path fill="none" stroke="black" d="M1533.79,-116.168C1508.24,-104.621 1468.48,-86.6613 1449.34,-78.0133"/>
<polygon fill="black" stroke="black" points="1450.65,-74.7636 1440.1,-73.8359 1447.77,-81.1428 1450.65,-74.7636"/>
</g>
<!-- 212_38x212_37 -->
<g id="node37" class="node"><title>212_38x212_37</title>
<polygon fill="none" stroke="black" points="1557.31,-187.054 1553.81,-183.554 1557.31,-180.054 1560.81,-183.554 1557.31,-187.054"/>
</g>
<!-- 212_38x212_37&#45;&gt;212_34 -->
<g id="edge28" class="edge"><title>212_38x212_37&#45;&gt;212_34</title>
<path fill="none" stroke="black" d="M1557.31,-179.961C1557.31,-174.493 1557.31,-161.327 1557.31,-149.721"/>
<polygon fill="black" stroke="black" points="1560.81,-149.372 1557.31,-139.372 1553.81,-149.372 1560.81,-149.372"/>
</g>
<!-- 212_1 -->
<g id="node38" class="node"><title>212_1</title>
<polygon fill="#66cdaa" stroke="black" points="812.305,-362.344 762.305,-362.344 762.305,-339.344 812.305,-339.344 812.305,-362.344"/>
<text text-anchor="middle" x="787.305" y="-347.144" font-family="Times,serif" font-size="14.00">212_1</text>
</g>
<!-- 212_1&#45;&gt;212_1x212_2 -->
<g id="edge30" class="edge"><title>212_1&#45;&gt;212_1x212_2</title>
<path fill="none" stroke="black" d="M787.305,-339.222C787.305,-330.47 787.305,-318.034 787.305,-308.761"/>
<polygon fill="black" stroke="black" points="790.805,-308.719 787.305,-298.719 783.805,-308.719 790.805,-308.719"/>
</g>
<!-- 212_43 -->
<g id="node40" class="node"><title>212_43</title>
<polygon fill="#66cdaa" stroke="black" points="1415.81,-473.871 1358.81,-473.871 1358.81,-450.871 1415.81,-450.871 1415.81,-473.871"/>
<text text-anchor="middle" x="1387.31" y="-458.671" font-family="Times,serif" font-size="14.00">212_43</text>
</g>
<!-- 212_43&#45;&gt;212_43x212_44 -->
<g id="edge32" class="edge"><title>212_43&#45;&gt;212_43x212_44</title>
<path fill="none" stroke="black" d="M1378.61,-450.749C1370.61,-440.966 1358.83,-426.581 1351.12,-417.154"/>
<polygon fill="black" stroke="black" points="1353.59,-414.65 1344.55,-409.128 1348.17,-419.084 1353.59,-414.65"/>
</g>
<!-- 212_10&#45;&gt;212_15x212_10 -->
<g id="edge35" class="edge"><title>212_10&#45;&gt;212_15x212_10</title>
<path fill="none" stroke="black" d="M619.182,-223.055C617.469,-214.68 615.374,-204.443 613.776,-196.631"/>
<polygon fill="black" stroke="black" points="617.187,-195.84 611.753,-186.745 610.329,-197.243 617.187,-195.84"/>
</g>
<!-- 212_9&#45;&gt;212_32x212_9 -->
<g id="edge37" class="edge"><title>212_9&#45;&gt;212_32x212_9</title>
<path fill="none" stroke="black" d="M1105.31,-222.767C1105.31,-214.661 1105.31,-204.872 1105.31,-197.232"/>
<polygon fill="black" stroke="black" points="1108.81,-197.077 1105.31,-187.077 1101.81,-197.077 1108.81,-197.077"/>
</g>
<!-- 212_2&#45;&gt;212_1x212_2 -->
<g id="edge39" class="edge"><title>212_2&#45;&gt;212_1x212_2</title>
<path fill="none" stroke="black" d="M970.239,-342.255C922.667,-330.248 832.09,-307.385 799.428,-299.141"/>
<polygon fill="black" stroke="black" points="800.042,-295.686 789.489,-296.632 798.328,-302.473 800.042,-295.686"/>
</g>
<!-- 212_39x212_40 -->
<g id="node46" class="node"><title>212_39x212_40</title>
<polygon fill="none" stroke="black" points="1560.31,-298.581 1556.81,-295.081 1560.31,-291.581 1563.81,-295.081 1560.31,-298.581"/>
</g>
<!-- 212_39&#45;&gt;212_39x212_40 -->
<g id="edge41" class="edge"><title>212_39&#45;&gt;212_39x212_40</title>
<path fill="none" stroke="black" d="M1525.8,-339.222C1533.63,-329.439 1545.13,-315.054 1552.67,-305.627"/>
<polygon fill="black" stroke="black" points="1555.58,-307.597 1559.09,-297.601 1550.11,-303.225 1555.58,-307.597"/>
</g>
<!-- 212_37 -->
<g id="node51" class="node"><title>212_37</title>
<ellipse fill="#66cdaa" stroke="black" cx="1560.31" cy="-239.317" rx="40.1111" ry="16.0303"/>
<text text-anchor="middle" x="1560.31" y="-235.617" font-family="Times,serif" font-size="14.00">212_37</text>
</g>
<!-- 212_39x212_40&#45;&gt;212_37 -->
<g id="edge47" class="edge"><title>212_39x212_40&#45;&gt;212_37</title>
<path fill="none" stroke="black" d="M1560.31,-291.488C1560.31,-286.705 1560.31,-276.035 1560.31,-265.669"/>
<polygon fill="black" stroke="black" points="1563.81,-265.634 1560.31,-255.634 1556.81,-265.634 1563.81,-265.634"/>
</g>
<!-- 212_41x212_42 -->
<g id="node48" class="node"><title>212_41x212_42</title>
<polygon fill="none" stroke="black" points="1430.31,-298.581 1426.81,-295.081 1430.31,-291.581 1433.81,-295.081 1430.31,-298.581"/>
</g>
<!-- 212_41&#45;&gt;212_41x212_42 -->
<g id="edge43" class="edge"><title>212_41&#45;&gt;212_41x212_42</title>
<path fill="none" stroke="black" d="M1360.49,-339.222C1378,-328.404 1404.61,-311.959 1419.41,-302.814"/>
<polygon fill="black" stroke="black" points="1421.68,-305.526 1428.35,-297.292 1418,-299.571 1421.68,-305.526"/>
</g>
<!-- 212_38 -->
<g id="node52" class="node"><title>212_38</title>
<polygon fill="#66cdaa" stroke="black" points="1501.81,-250.817 1444.81,-250.817 1444.81,-227.817 1501.81,-227.817 1501.81,-250.817"/>
<text text-anchor="middle" x="1473.31" y="-235.617" font-family="Times,serif" font-size="14.00">212_38</text>
</g>
<!-- 212_41x212_42&#45;&gt;212_38 -->
<g id="edge49" class="edge"><title>212_41x212_42&#45;&gt;212_38</title>
<path fill="none" stroke="black" d="M1431.74,-292.292C1435.9,-287.091 1448.34,-271.532 1458.54,-258.783"/>
<polygon fill="black" stroke="black" points="1461.29,-260.943 1464.8,-250.947 1455.82,-256.571 1461.29,-260.943"/>
</g>
<!-- 212_5&#45;&gt;212_28x212_5 -->
<g id="edge45" class="edge"><title>212_5&#45;&gt;212_28x212_5</title>
<path fill="none" stroke="black" d="M344.305,-222.767C344.305,-214.661 344.305,-204.872 344.305,-197.232"/>
<polygon fill="black" stroke="black" points="347.805,-197.077 344.305,-187.077 340.805,-197.077 347.805,-197.077"/>
</g>
<!-- 212_42 -->
<g id="node50" class="node"><title>212_42</title>
<ellipse fill="#66cdaa" stroke="black" cx="1430.31" cy="-350.844" rx="40.1111" ry="16.0303"/>
<text text-anchor="middle" x="1430.31" y="-347.144" font-family="Times,serif" font-size="14.00">212_42</text>
</g>
<!-- 212_42&#45;&gt;212_41x212_42 -->
<g id="edge46" class="edge"><title>212_42&#45;&gt;212_41x212_42</title>
<path fill="none" stroke="black" d="M1430.31,-334.294C1430.31,-326.188 1430.31,-316.399 1430.31,-308.759"/>
<polygon fill="black" stroke="black" points="1433.81,-308.604 1430.31,-298.604 1426.81,-308.604 1433.81,-308.604"/>
</g>
<!-- 212_37&#45;&gt;212_38x212_37 -->
<g id="edge48" class="edge"><title>212_37&#45;&gt;212_38x212_37</title>
<path fill="none" stroke="black" d="M1559.45,-223.055C1559,-214.94 1558.45,-205.077 1558.02,-197.365"/>
<polygon fill="black" stroke="black" points="1561.5,-196.896 1557.45,-187.106 1554.51,-197.286 1561.5,-196.896"/>
</g>
<!-- 212_38&#45;&gt;212_38x212_37 -->
<g id="edge50" class="edge"><title>212_38&#45;&gt;212_38x212_37</title>
<path fill="none" stroke="black" d="M1489.9,-227.695C1506.8,-216.877 1532.5,-200.432 1546.78,-191.287"/>
<polygon fill="black" stroke="black" points="1548.88,-194.104 1555.41,-185.765 1545.1,-188.208 1548.88,-194.104"/>
</g>
<!-- 212_7&#45;&gt;212_20x212_7 -->
<g id="edge54" class="edge"><title>212_7&#45;&gt;212_20x212_7</title>
<path fill="none" stroke="black" d="M885.738,-225.576C902.148,-214.817 925.003,-199.832 938.063,-191.269"/>
<polygon fill="black" stroke="black" points="940.168,-194.074 946.611,-185.664 936.329,-188.221 940.168,-194.074"/>
</g>
<!-- 212_6&#45;&gt;212_6x212_27 -->
<g id="edge56" class="edge"><title>212_6&#45;&gt;212_6x212_27</title>
<path fill="none" stroke="black" d="M1401.7,-227.695C1402.03,-218.943 1402.49,-206.507 1402.83,-197.234"/>
<polygon fill="black" stroke="black" points="1406.33,-197.316 1403.21,-187.192 1399.34,-197.055 1406.33,-197.316"/>
</g>
<!-- 212_40 -->
<g id="node57" class="node"><title>212_40</title>
<ellipse fill="#66cdaa" stroke="black" cx="1604.31" cy="-350.844" rx="40.1111" ry="16.0303"/>
<text text-anchor="middle" x="1604.31" y="-347.144" font-family="Times,serif" font-size="14.00">212_40</text>
</g>
<!-- 212_40&#45;&gt;212_39x212_40 -->
<g id="edge57" class="edge"><title>212_40&#45;&gt;212_39x212_40</title>
<path fill="none" stroke="black" d="M1592.28,-335.153C1584.55,-325.709 1574.74,-313.719 1568.04,-305.527"/>
<polygon fill="black" stroke="black" points="1570.64,-303.183 1561.6,-297.661 1565.22,-307.616 1570.64,-303.183"/>
</g>
</g>
</svg>
