<?xml version="1.0" encoding="UTF-8" standalone="no"?>
<!DOCTYPE svg PUBLIC "-//W3C//DTD SVG 1.1//EN"
 "http://www.w3.org/Graphics/SVG/1.1/DTD/svg11.dtd">
<!-- Generated by graphviz version 2.38.0 (20140413.2041)
 -->
<!-- Title: %3 Pages: 1 -->
<svg width="1277pt" height="375pt"
 viewBox="0.00 0.00 1277.00 375.11" xmlns="http://www.w3.org/2000/svg" xmlns:xlink="http://www.w3.org/1999/xlink">
<g id="graph0" class="graph" transform="scale(1 1) rotate(0) translate(4 371.108)">
<title>%3</title>
<polygon fill="white" stroke="none" points="-4,4 -4,-371.108 1273,-371.108 1273,4 -4,4"/>
<!-- 27_70_84229 -->
<g id="node1" class="node"><title>27_70_84229</title>
<ellipse fill="dimgrey" stroke="black" cx="173.5" cy="-239.317" rx="64.1938" ry="16.0303"/>
<text text-anchor="middle" x="173.5" y="-235.617" font-family="Times,serif" font-size="14.00">27_70_84229</text>
</g>
<!-- 27_70_84871x27_70_84229 -->
<g id="node3" class="node"><title>27_70_84871x27_70_84229</title>
<polygon fill="none" stroke="black" points="109.5,-187.054 106,-183.554 109.5,-180.054 113,-183.554 109.5,-187.054"/>
</g>
<!-- 27_70_84229&#45;&gt;27_70_84871x27_70_84229 -->
<g id="edge2" class="edge"><title>27_70_84229&#45;&gt;27_70_84871x27_70_84229</title>
<path fill="none" stroke="black" d="M156.012,-223.626C144.053,-213.58 128.663,-200.652 118.936,-192.481"/>
<polygon fill="black" stroke="black" points="120.943,-189.595 111.035,-185.843 116.44,-194.955 120.943,-189.595"/>
</g>
<!-- 27_70_84462x27_70_84461 -->
<g id="node2" class="node"><title>27_70_84462x27_70_84461</title>
<polygon fill="none" stroke="black" points="759.5,-298.581 756,-295.081 759.5,-291.581 763,-295.081 759.5,-298.581"/>
</g>
<!-- 27_70_84462x27_70_84461&#45;&gt;27_70_84229 -->
<g id="edge1" class="edge"><title>27_70_84462x27_70_84461&#45;&gt;27_70_84229</title>
<path fill="none" stroke="black" d="M756.985,-294.019C728.332,-293.296 460.507,-285.851 246.5,-255.581 240.971,-254.799 235.234,-253.847 229.515,-252.805"/>
<polygon fill="black" stroke="black" points="229.769,-249.29 219.289,-250.849 228.453,-256.166 229.769,-249.29"/>
</g>
<!-- 27_70_84874 -->
<g id="node9" class="node"><title>27_70_84874</title>
<ellipse fill="#66cdaa" stroke="black" cx="429.5" cy="-239.317" rx="64.1938" ry="16.0303"/>
<text text-anchor="middle" x="429.5" y="-235.617" font-family="Times,serif" font-size="14.00">27_70_84874</text>
</g>
<!-- 27_70_84462x27_70_84461&#45;&gt;27_70_84874 -->
<g id="edge7" class="edge"><title>27_70_84462x27_70_84461&#45;&gt;27_70_84874</title>
<path fill="none" stroke="black" d="M756.969,-293.753C737.379,-291.208 607.924,-274.188 503.5,-255.581 498.092,-254.617 492.474,-253.56 486.858,-252.467"/>
<polygon fill="black" stroke="black" points="487.289,-248.984 476.798,-250.47 485.926,-255.85 487.289,-248.984"/>
</g>
<!-- 27_70_85947 -->
<g id="node15" class="node"><title>27_70_85947</title>
<polygon fill="dimgrey" stroke="black" points="750,-250.817 659,-250.817 659,-227.817 750,-227.817 750,-250.817"/>
<text text-anchor="middle" x="704.5" y="-235.617" font-family="Times,serif" font-size="14.00">27_70_85947</text>
</g>
<!-- 27_70_84462x27_70_84461&#45;&gt;27_70_85947 -->
<g id="edge12" class="edge"><title>27_70_84462x27_70_84461&#45;&gt;27_70_85947</title>
<path fill="none" stroke="black" d="M758.14,-292.752C753.328,-288.048 736.668,-271.762 723.177,-258.574"/>
<polygon fill="black" stroke="black" points="725.311,-255.766 715.713,-251.278 720.417,-260.771 725.311,-255.766"/>
</g>
<!-- 27_70_84893 -->
<g id="node20" class="node"><title>27_70_84893</title>
<polygon fill="#66cdaa" stroke="black" points="859,-250.817 768,-250.817 768,-227.817 859,-227.817 859,-250.817"/>
<text text-anchor="middle" x="813.5" y="-235.617" font-family="Times,serif" font-size="14.00">27_70_84893</text>
</g>
<!-- 27_70_84462x27_70_84461&#45;&gt;27_70_84893 -->
<g id="edge16" class="edge"><title>27_70_84462x27_70_84461&#45;&gt;27_70_84893</title>
<path fill="none" stroke="black" d="M760.835,-292.752C765.56,-288.048 781.917,-271.762 795.163,-258.574"/>
<polygon fill="black" stroke="black" points="797.874,-260.814 802.491,-251.278 792.935,-255.853 797.874,-260.814"/>
</g>
<!-- 27_70_85948 -->
<g id="node23" class="node"><title>27_70_85948</title>
<polygon fill="dimgrey" stroke="black" points="968,-250.817 877,-250.817 877,-227.817 968,-227.817 968,-250.817"/>
<text text-anchor="middle" x="922.5" y="-235.617" font-family="Times,serif" font-size="14.00">27_70_85948</text>
</g>
<!-- 27_70_84462x27_70_84461&#45;&gt;27_70_85948 -->
<g id="edge20" class="edge"><title>27_70_84462x27_70_84461&#45;&gt;27_70_85948</title>
<path fill="none" stroke="black" d="M761.561,-293.401C773.732,-289.386 837.169,-268.462 880.668,-254.115"/>
<polygon fill="black" stroke="black" points="882.036,-257.349 890.436,-250.893 879.843,-250.702 882.036,-257.349"/>
</g>
<!-- 27_70_84228 -->
<g id="node24" class="node"><title>27_70_84228</title>
<polygon fill="dimgrey" stroke="black" points="1077,-250.817 986,-250.817 986,-227.817 1077,-227.817 1077,-250.817"/>
<text text-anchor="middle" x="1031.5" y="-235.617" font-family="Times,serif" font-size="14.00">27_70_84228</text>
</g>
<!-- 27_70_84462x27_70_84461&#45;&gt;27_70_84228 -->
<g id="edge21" class="edge"><title>27_70_84462x27_70_84461&#45;&gt;27_70_84228</title>
<path fill="none" stroke="black" d="M762.098,-293.716C780.187,-291.153 889.187,-275.394 976.5,-255.581 979.496,-254.901 982.573,-254.162 985.667,-253.388"/>
<polygon fill="black" stroke="black" points="986.731,-256.728 995.531,-250.827 984.972,-249.952 986.731,-256.728"/>
</g>
<!-- 27_70_84865 -->
<g id="node6" class="node"><title>27_70_84865</title>
<polygon fill="white" stroke="black" points="155,-139.29 64,-139.29 64,-116.29 155,-116.29 155,-139.29"/>
<text text-anchor="middle" x="109.5" y="-124.09" font-family="Times,serif" font-size="14.00">27_70_84865</text>
</g>
<!-- 27_70_84871x27_70_84229&#45;&gt;27_70_84865 -->
<g id="edge5" class="edge"><title>27_70_84871x27_70_84229&#45;&gt;27_70_84865</title>
<path fill="none" stroke="black" d="M109.5,-179.961C109.5,-174.493 109.5,-161.327 109.5,-149.721"/>
<polygon fill="black" stroke="black" points="113,-149.372 109.5,-139.372 106,-149.372 113,-149.372"/>
</g>
<!-- 27_70_84461 -->
<g id="node4" class="node"><title>27_70_84461</title>
<ellipse fill="#66cdaa" stroke="black" cx="695.5" cy="-350.844" rx="64.1938" ry="16.0303"/>
<text text-anchor="middle" x="695.5" y="-347.144" font-family="Times,serif" font-size="14.00">27_70_84461</text>
</g>
<!-- 27_70_84461&#45;&gt;27_70_84462x27_70_84461 -->
<g id="edge3" class="edge"><title>27_70_84461&#45;&gt;27_70_84462x27_70_84461</title>
<path fill="none" stroke="black" d="M712.988,-335.153C724.947,-325.107 740.337,-312.179 750.064,-304.008"/>
<polygon fill="black" stroke="black" points="752.56,-306.482 757.965,-297.37 748.057,-301.122 752.56,-306.482"/>
</g>
<!-- 27_70_84462 -->
<g id="node5" class="node"><title>27_70_84462</title>
<polygon fill="#66cdaa" stroke="black" points="869,-362.344 778,-362.344 778,-339.344 869,-339.344 869,-362.344"/>
<text text-anchor="middle" x="823.5" y="-347.144" font-family="Times,serif" font-size="14.00">27_70_84462</text>
</g>
<!-- 27_70_84462&#45;&gt;27_70_84462x27_70_84461 -->
<g id="edge4" class="edge"><title>27_70_84462&#45;&gt;27_70_84462x27_70_84461</title>
<path fill="none" stroke="black" d="M810.856,-339.222C798.488,-328.833 779.942,-313.253 768.849,-303.934"/>
<polygon fill="black" stroke="black" points="770.85,-301.044 760.942,-297.292 766.347,-306.404 770.85,-301.044"/>
</g>
<!-- 27_70_84892 -->
<g id="node7" class="node"><title>27_70_84892</title>
<ellipse fill="white" stroke="black" cx="484.5" cy="-16.2635" rx="64.1938" ry="16.0303"/>
<text text-anchor="middle" x="484.5" y="-12.5635" font-family="Times,serif" font-size="14.00">27_70_84892</text>
</g>
<!-- 27_70_84895x27_70_84890 -->
<g id="node8" class="node"><title>27_70_84895x27_70_84890</title>
<polygon fill="none" stroke="black" points="557.5,-75.5269 554,-72.0269 557.5,-68.5269 561,-72.0269 557.5,-75.5269"/>
</g>
<!-- 27_70_84895x27_70_84890&#45;&gt;27_70_84892 -->
<g id="edge6" class="edge"><title>27_70_84895x27_70_84890&#45;&gt;27_70_84892</title>
<path fill="none" stroke="black" d="M555.975,-69.904C550.345,-65.7572 530.143,-50.8789 512.647,-37.9933"/>
<polygon fill="black" stroke="black" points="514.479,-34.9955 504.351,-31.8835 510.328,-40.6319 514.479,-34.9955"/>
</g>
<!-- 27_70_84891 -->
<g id="node21" class="node"><title>27_70_84891</title>
<ellipse fill="white" stroke="black" cx="631.5" cy="-16.2635" rx="64.1938" ry="16.0303"/>
<text text-anchor="middle" x="631.5" y="-12.5635" font-family="Times,serif" font-size="14.00">27_70_84891</text>
</g>
<!-- 27_70_84895x27_70_84890&#45;&gt;27_70_84891 -->
<g id="edge18" class="edge"><title>27_70_84895x27_70_84890&#45;&gt;27_70_84891</title>
<path fill="none" stroke="black" d="M559.046,-69.904C564.753,-65.7572 585.232,-50.8789 602.967,-37.9933"/>
<polygon fill="black" stroke="black" points="605.344,-40.593 611.377,-31.8835 601.229,-34.9298 605.344,-40.593"/>
</g>
<!-- 27_70_84875x27_70_84874 -->
<g id="node10" class="node"><title>27_70_84875x27_70_84874</title>
<polygon fill="none" stroke="black" points="343.5,-187.054 340,-183.554 343.5,-180.054 347,-183.554 343.5,-187.054"/>
</g>
<!-- 27_70_84874&#45;&gt;27_70_84875x27_70_84874 -->
<g id="edge8" class="edge"><title>27_70_84874&#45;&gt;27_70_84875x27_70_84874</title>
<path fill="none" stroke="black" d="M406.454,-223.91C389.388,-213.241 366.934,-199.204 353.971,-191.1"/>
<polygon fill="black" stroke="black" points="355.495,-187.925 345.16,-185.592 351.784,-193.86 355.495,-187.925"/>
</g>
<!-- 27_70_84864 -->
<g id="node25" class="node"><title>27_70_84864</title>
<polygon fill="white" stroke="black" points="389,-139.29 298,-139.29 298,-116.29 389,-116.29 389,-139.29"/>
<text text-anchor="middle" x="343.5" y="-124.09" font-family="Times,serif" font-size="14.00">27_70_84864</text>
</g>
<!-- 27_70_84875x27_70_84874&#45;&gt;27_70_84864 -->
<g id="edge22" class="edge"><title>27_70_84875x27_70_84874&#45;&gt;27_70_84864</title>
<path fill="none" stroke="black" d="M343.5,-179.961C343.5,-174.493 343.5,-161.327 343.5,-149.721"/>
<polygon fill="black" stroke="black" points="347,-149.372 343.5,-139.372 340,-149.372 347,-149.372"/>
</g>
<!-- 27_70_84875 -->
<g id="node11" class="node"><title>27_70_84875</title>
<polygon fill="#66cdaa" stroke="black" points="347,-250.817 256,-250.817 256,-227.817 347,-227.817 347,-250.817"/>
<text text-anchor="middle" x="301.5" y="-235.617" font-family="Times,serif" font-size="14.00">27_70_84875</text>
</g>
<!-- 27_70_84875&#45;&gt;27_70_84875x27_70_84874 -->
<g id="edge9" class="edge"><title>27_70_84875&#45;&gt;27_70_84875x27_70_84874</title>
<path fill="none" stroke="black" d="M309.798,-227.695C317.44,-217.912 328.678,-203.527 336.042,-194.1"/>
<polygon fill="black" stroke="black" points="338.914,-196.11 342.312,-186.074 333.398,-191.8 338.914,-196.11"/>
</g>
<!-- 27_70_85950 -->
<g id="node12" class="node"><title>27_70_85950</title>
<ellipse fill="#66cdaa" stroke="black" cx="1095.5" cy="-350.844" rx="64.1938" ry="16.0303"/>
<text text-anchor="middle" x="1095.5" y="-347.144" font-family="Times,serif" font-size="14.00">27_70_85950</text>
</g>
<!-- 27_70_85949x27_70_85950 -->
<g id="node13" class="node"><title>27_70_85949x27_70_85950</title>
<polygon fill="none" stroke="black" points="1159.5,-298.581 1156,-295.081 1159.5,-291.581 1163,-295.081 1159.5,-298.581"/>
</g>
<!-- 27_70_85950&#45;&gt;27_70_85949x27_70_85950 -->
<g id="edge10" class="edge"><title>27_70_85950&#45;&gt;27_70_85949x27_70_85950</title>
<path fill="none" stroke="black" d="M1112.99,-335.153C1124.95,-325.107 1140.34,-312.179 1150.06,-304.008"/>
<polygon fill="black" stroke="black" points="1152.56,-306.482 1157.97,-297.37 1148.06,-301.122 1152.56,-306.482"/>
</g>
<!-- 27_70_85946 -->
<g id="node16" class="node"><title>27_70_85946</title>
<ellipse fill="dimgrey" stroke="black" cx="1159.5" cy="-239.317" rx="64.1938" ry="16.0303"/>
<text text-anchor="middle" x="1159.5" y="-235.617" font-family="Times,serif" font-size="14.00">27_70_85946</text>
</g>
<!-- 27_70_85949x27_70_85950&#45;&gt;27_70_85946 -->
<g id="edge13" class="edge"><title>27_70_85949x27_70_85950&#45;&gt;27_70_85946</title>
<path fill="none" stroke="black" d="M1159.5,-291.488C1159.5,-286.705 1159.5,-276.035 1159.5,-265.669"/>
<polygon fill="black" stroke="black" points="1163,-265.634 1159.5,-255.634 1156,-265.634 1163,-265.634"/>
</g>
<!-- 27_70_85949 -->
<g id="node14" class="node"><title>27_70_85949</title>
<polygon fill="#66cdaa" stroke="black" points="1269,-362.344 1178,-362.344 1178,-339.344 1269,-339.344 1269,-362.344"/>
<text text-anchor="middle" x="1223.5" y="-347.144" font-family="Times,serif" font-size="14.00">27_70_85949</text>
</g>
<!-- 27_70_85949&#45;&gt;27_70_85949x27_70_85950 -->
<g id="edge11" class="edge"><title>27_70_85949&#45;&gt;27_70_85949x27_70_85950</title>
<path fill="none" stroke="black" d="M1210.86,-339.222C1198.49,-328.833 1179.94,-313.253 1168.85,-303.934"/>
<polygon fill="black" stroke="black" points="1170.85,-301.044 1160.94,-297.292 1166.35,-306.404 1170.85,-301.044"/>
</g>
<!-- 27_70_84895 -->
<g id="node17" class="node"><title>27_70_84895</title>
<polygon fill="#66cdaa" stroke="black" points="539,-139.29 448,-139.29 448,-116.29 539,-116.29 539,-139.29"/>
<text text-anchor="middle" x="493.5" y="-124.09" font-family="Times,serif" font-size="14.00">27_70_84895</text>
</g>
<!-- 27_70_84895&#45;&gt;27_70_84895x27_70_84890 -->
<g id="edge14" class="edge"><title>27_70_84895&#45;&gt;27_70_84895x27_70_84890</title>
<path fill="none" stroke="black" d="M506.144,-116.168C518.512,-105.779 537.058,-90.1991 548.151,-80.8803"/>
<polygon fill="black" stroke="black" points="550.653,-83.3501 556.058,-74.238 546.15,-77.9903 550.653,-83.3501"/>
</g>
<!-- 27_70_84894 -->
<g id="node18" class="node"><title>27_70_84894</title>
<ellipse fill="#66cdaa" stroke="black" cx="576.5" cy="-239.317" rx="64.1938" ry="16.0303"/>
<text text-anchor="middle" x="576.5" y="-235.617" font-family="Times,serif" font-size="14.00">27_70_84894</text>
</g>
<!-- 27_70_84893x27_70_84894 -->
<g id="node19" class="node"><title>27_70_84893x27_70_84894</title>
<polygon fill="none" stroke="black" points="621.5,-187.054 618,-183.554 621.5,-180.054 625,-183.554 621.5,-187.054"/>
</g>
<!-- 27_70_84894&#45;&gt;27_70_84893x27_70_84894 -->
<g id="edge15" class="edge"><title>27_70_84894&#45;&gt;27_70_84893x27_70_84894</title>
<path fill="none" stroke="black" d="M589.035,-223.341C596.934,-213.903 606.887,-202.012 613.677,-193.9"/>
<polygon fill="black" stroke="black" points="616.458,-196.031 620.193,-186.116 611.09,-191.538 616.458,-196.031"/>
</g>
<!-- 27_70_84890 -->
<g id="node26" class="node"><title>27_70_84890</title>
<ellipse fill="dimgrey" stroke="black" cx="621.5" cy="-127.79" rx="64.1938" ry="16.0303"/>
<text text-anchor="middle" x="621.5" y="-124.09" font-family="Times,serif" font-size="14.00">27_70_84890</text>
</g>
<!-- 27_70_84893x27_70_84894&#45;&gt;27_70_84890 -->
<g id="edge23" class="edge"><title>27_70_84893x27_70_84894&#45;&gt;27_70_84890</title>
<path fill="none" stroke="black" d="M621.5,-179.961C621.5,-175.178 621.5,-164.508 621.5,-154.142"/>
<polygon fill="black" stroke="black" points="625,-154.107 621.5,-144.107 618,-154.107 625,-154.107"/>
</g>
<!-- 27_70_84893&#45;&gt;27_70_84893x27_70_84894 -->
<g id="edge17" class="edge"><title>27_70_84893&#45;&gt;27_70_84893x27_70_84894</title>
<path fill="none" stroke="black" d="M775.567,-227.695C731.414,-215.332 661.01,-195.617 633.277,-187.852"/>
<polygon fill="black" stroke="black" points="634.158,-184.464 623.585,-185.138 632.271,-191.204 634.158,-184.464"/>
</g>
<!-- 27_70_84871 -->
<g id="node22" class="node"><title>27_70_84871</title>
<polygon fill="#66cdaa" stroke="black" points="91,-250.817 0,-250.817 0,-227.817 91,-227.817 91,-250.817"/>
<text text-anchor="middle" x="45.5" y="-235.617" font-family="Times,serif" font-size="14.00">27_70_84871</text>
</g>
<!-- 27_70_84871&#45;&gt;27_70_84871x27_70_84229 -->
<g id="edge19" class="edge"><title>27_70_84871&#45;&gt;27_70_84871x27_70_84229</title>
<path fill="none" stroke="black" d="M58.1443,-227.695C70.5119,-217.306 89.0582,-201.726 100.151,-192.407"/>
<polygon fill="black" stroke="black" points="102.653,-194.877 108.058,-185.765 98.1502,-189.517 102.653,-194.877"/>
</g>
<!-- 27_70_84890&#45;&gt;27_70_84895x27_70_84890 -->
<g id="edge24" class="edge"><title>27_70_84890&#45;&gt;27_70_84895x27_70_84890</title>
<path fill="none" stroke="black" d="M604.012,-112.099C592.053,-102.053 576.663,-89.1251 566.936,-80.954"/>
<polygon fill="black" stroke="black" points="568.943,-78.0683 559.035,-74.316 564.44,-83.4281 568.943,-78.0683"/>
</g>
</g>
</svg>
