<?xml version="1.0" encoding="UTF-8" standalone="no"?>
<!DOCTYPE svg PUBLIC "-//W3C//DTD SVG 1.1//EN"
 "http://www.w3.org/Graphics/SVG/1.1/DTD/svg11.dtd">
<!-- Generated by graphviz version 2.38.0 (20140413.2041)
 -->
<!-- Title: %3 Pages: 1 -->
<svg width="1237pt" height="375pt"
 viewBox="0.00 0.00 1236.61 375.11" xmlns="http://www.w3.org/2000/svg" xmlns:xlink="http://www.w3.org/1999/xlink">
<g id="graph0" class="graph" transform="scale(1 1) rotate(0) translate(4 371.108)">
<title>%3</title>
<polygon fill="white" stroke="none" points="-4,4 -4,-371.108 1232.61,-371.108 1232.61,4 -4,4"/>
<!-- 740_22 -->
<g id="node1" class="node"><title>740_22</title>
<ellipse fill="#66cdaa" stroke="black" cx="289.305" cy="-16.2635" rx="40.1111" ry="16.0303"/>
<text text-anchor="middle" x="289.305" y="-12.5635" font-family="Times,serif" font-size="14.00">740_22</text>
</g>
<!-- 740_5x740_19 -->
<g id="node2" class="node"><title>740_5x740_19</title>
<polygon fill="none" stroke="black" points="202.305,-75.5269 198.805,-72.0269 202.305,-68.5269 205.805,-72.0269 202.305,-75.5269"/>
</g>
<!-- 740_5x740_19&#45;&gt;740_22 -->
<g id="edge1" class="edge"><title>740_5x740_19&#45;&gt;740_22</title>
<path fill="none" stroke="black" d="M204.122,-69.904C211.242,-65.5039 237.915,-49.0213 259.54,-35.6574"/>
<polygon fill="black" stroke="black" points="261.46,-38.5854 268.127,-30.351 257.78,-32.6306 261.46,-38.5854"/>
</g>
<!-- 740_21 -->
<g id="node6" class="node"><title>740_21</title>
<ellipse fill="#66cdaa" stroke="black" cx="40.3051" cy="-16.2635" rx="40.1111" ry="16.0303"/>
<text text-anchor="middle" x="40.3051" y="-12.5635" font-family="Times,serif" font-size="14.00">740_21</text>
</g>
<!-- 740_5x740_19&#45;&gt;740_21 -->
<g id="edge4" class="edge"><title>740_5x740_19&#45;&gt;740_21</title>
<path fill="none" stroke="black" d="M200.257,-70.3471C187.99,-66.2761 123.331,-44.8176 80.0709,-30.4607"/>
<polygon fill="black" stroke="black" points="80.9795,-27.0745 70.386,-27.2465 78.7746,-33.7182 80.9795,-27.0745"/>
</g>
<!-- 740_20 -->
<g id="node7" class="node"><title>740_20</title>
<polygon fill="#66cdaa" stroke="black" points="155.805,-27.7635 98.8051,-27.7635 98.8051,-4.76346 155.805,-4.76346 155.805,-27.7635"/>
<text text-anchor="middle" x="127.305" y="-12.5635" font-family="Times,serif" font-size="14.00">740_20</text>
</g>
<!-- 740_5x740_19&#45;&gt;740_20 -->
<g id="edge5" class="edge"><title>740_5x740_19&#45;&gt;740_20</title>
<path fill="none" stroke="black" d="M200.739,-69.904C194.317,-65.301 169.451,-47.4758 150.416,-33.8304"/>
<polygon fill="black" stroke="black" points="152.334,-30.8991 142.167,-27.9175 148.256,-36.5883 152.334,-30.8991"/>
</g>
<!-- 740_23 -->
<g id="node23" class="node"><title>740_23</title>
<polygon fill="#66cdaa" stroke="black" points="230.805,-27.7635 173.805,-27.7635 173.805,-4.76346 230.805,-4.76346 230.805,-27.7635"/>
<text text-anchor="middle" x="202.305" y="-12.5635" font-family="Times,serif" font-size="14.00">740_23</text>
</g>
<!-- 740_5x740_19&#45;&gt;740_23 -->
<g id="edge19" class="edge"><title>740_5x740_19&#45;&gt;740_23</title>
<path fill="none" stroke="black" d="M202.305,-68.4338C202.305,-62.9657 202.305,-49.8005 202.305,-38.1938"/>
<polygon fill="black" stroke="black" points="205.805,-37.8452 202.305,-27.8453 198.805,-37.8453 205.805,-37.8452"/>
</g>
<!-- 740_1 -->
<g id="node3" class="node"><title>740_1</title>
<polygon fill="#66cdaa" stroke="black" points="533.305,-250.817 483.305,-250.817 483.305,-227.817 533.305,-227.817 533.305,-250.817"/>
<text text-anchor="middle" x="508.305" y="-235.617" font-family="Times,serif" font-size="14.00">740_1</text>
</g>
<!-- 740_1x740_2 -->
<g id="node5" class="node"><title>740_1x740_2</title>
<polygon fill="none" stroke="black" points="435.305,-187.054 431.805,-183.554 435.305,-180.054 438.805,-183.554 435.305,-187.054"/>
</g>
<!-- 740_1&#45;&gt;740_1x740_2 -->
<g id="edge3" class="edge"><title>740_1&#45;&gt;740_1x740_2</title>
<path fill="none" stroke="black" d="M493.883,-227.695C479.485,-217.092 457.746,-201.081 445.197,-191.839"/>
<polygon fill="black" stroke="black" points="447.077,-188.877 436.95,-185.765 442.926,-194.513 447.077,-188.877"/>
</g>
<!-- 740_24x740_25 -->
<g id="node4" class="node"><title>740_24x740_25</title>
<polygon fill="none" stroke="black" points="580.305,-298.581 576.805,-295.081 580.305,-291.581 583.805,-295.081 580.305,-298.581"/>
</g>
<!-- 740_24x740_25&#45;&gt;740_1 -->
<g id="edge2" class="edge"><title>740_24x740_25&#45;&gt;740_1</title>
<path fill="none" stroke="black" d="M578.801,-292.958C572.693,-288.396 549.194,-270.85 530.987,-257.254"/>
<polygon fill="black" stroke="black" points="532.68,-254.15 522.573,-250.971 528.492,-259.759 532.68,-254.15"/>
</g>
<!-- 740_27 -->
<g id="node24" class="node"><title>740_27</title>
<ellipse fill="#66cdaa" stroke="black" cx="865.305" cy="-239.317" rx="40.1111" ry="16.0303"/>
<text text-anchor="middle" x="865.305" y="-235.617" font-family="Times,serif" font-size="14.00">740_27</text>
</g>
<!-- 740_24x740_25&#45;&gt;740_27 -->
<g id="edge20" class="edge"><title>740_24x740_25&#45;&gt;740_27</title>
<path fill="none" stroke="black" d="M582.644,-293.819C600.744,-291.766 720.291,-277.761 815.305,-255.581 818.531,-254.828 821.854,-253.979 825.18,-253.077"/>
<polygon fill="black" stroke="black" points="826.417,-256.364 835.074,-250.256 824.498,-249.632 826.417,-256.364"/>
</g>
<!-- 740_28 -->
<g id="node25" class="node"><title>740_28</title>
<polygon fill="#66cdaa" stroke="black" points="980.805,-250.817 923.805,-250.817 923.805,-227.817 980.805,-227.817 980.805,-250.817"/>
<text text-anchor="middle" x="952.305" y="-235.617" font-family="Times,serif" font-size="14.00">740_28</text>
</g>
<!-- 740_24x740_25&#45;&gt;740_28 -->
<g id="edge21" class="edge"><title>740_24x740_25&#45;&gt;740_28</title>
<path fill="none" stroke="black" d="M583.029,-294.043C606.686,-293.659 779.647,-289.729 914.305,-255.581 915.963,-255.16 917.646,-254.684 919.333,-254.166"/>
<polygon fill="black" stroke="black" points="920.613,-257.427 928.915,-250.844 918.32,-250.813 920.613,-257.427"/>
</g>
<!-- 740_29 -->
<g id="node27" class="node"><title>740_29</title>
<polygon fill="#66cdaa" stroke="black" points="608.805,-250.817 551.805,-250.817 551.805,-227.817 608.805,-227.817 608.805,-250.817"/>
<text text-anchor="middle" x="580.305" y="-235.617" font-family="Times,serif" font-size="14.00">740_29</text>
</g>
<!-- 740_24x740_25&#45;&gt;740_29 -->
<g id="edge23" class="edge"><title>740_24x740_25&#45;&gt;740_29</title>
<path fill="none" stroke="black" d="M580.305,-291.488C580.305,-286.02 580.305,-272.854 580.305,-261.248"/>
<polygon fill="black" stroke="black" points="583.805,-260.899 580.305,-250.899 576.805,-260.899 583.805,-260.899"/>
</g>
<!-- 740_26 -->
<g id="node36" class="node"><title>740_26</title>
<ellipse fill="#66cdaa" stroke="black" cx="336.305" cy="-239.317" rx="40.1111" ry="16.0303"/>
<text text-anchor="middle" x="336.305" y="-235.617" font-family="Times,serif" font-size="14.00">740_26</text>
</g>
<!-- 740_24x740_25&#45;&gt;740_26 -->
<g id="edge32" class="edge"><title>740_24x740_25&#45;&gt;740_26</title>
<path fill="none" stroke="black" d="M577.98,-293.71C561.788,-291.112 464.234,-275.155 386.305,-255.581 383.092,-254.774 379.779,-253.886 376.459,-252.958"/>
<polygon fill="black" stroke="black" points="377.155,-249.516 366.576,-250.091 375.204,-256.239 377.155,-249.516"/>
</g>
<!-- 740_5 -->
<g id="node38" class="node"><title>740_5</title>
<polygon fill="#66cdaa" stroke="black" points="314.305,-139.29 264.305,-139.29 264.305,-116.29 314.305,-116.29 314.305,-139.29"/>
<text text-anchor="middle" x="289.305" y="-124.09" font-family="Times,serif" font-size="14.00">740_5</text>
</g>
<!-- 740_1x740_2&#45;&gt;740_5 -->
<g id="edge34" class="edge"><title>740_1x740_2&#45;&gt;740_5</title>
<path fill="none" stroke="black" d="M433.241,-181.794C421.565,-177.494 362.936,-155.904 324.199,-141.64"/>
<polygon fill="black" stroke="black" points="324.932,-138.18 314.339,-138.009 322.513,-144.749 324.932,-138.18"/>
</g>
<!-- 740_4 -->
<g id="node39" class="node"><title>740_4</title>
<polygon fill="dimgrey" stroke="black" points="426.305,-139.29 376.305,-139.29 376.305,-116.29 426.305,-116.29 426.305,-139.29"/>
<text text-anchor="middle" x="401.305" y="-124.09" font-family="Times,serif" font-size="14.00">740_4</text>
</g>
<!-- 740_1x740_2&#45;&gt;740_4 -->
<g id="edge36" class="edge"><title>740_1x740_2&#45;&gt;740_4</title>
<path fill="none" stroke="black" d="M434.174,-180.765C430.947,-175.663 421.418,-160.594 413.445,-147.987"/>
<polygon fill="black" stroke="black" points="416.331,-146.001 408.027,-139.42 410.414,-149.743 416.331,-146.001"/>
</g>
<!-- 740_3 -->
<g id="node40" class="node"><title>740_3</title>
<polygon fill="dimgrey" stroke="black" points="494.305,-139.29 444.305,-139.29 444.305,-116.29 494.305,-116.29 494.305,-139.29"/>
<text text-anchor="middle" x="469.305" y="-124.09" font-family="Times,serif" font-size="14.00">740_3</text>
</g>
<!-- 740_1x740_2&#45;&gt;740_3 -->
<g id="edge37" class="edge"><title>740_1x740_2&#45;&gt;740_3</title>
<path fill="none" stroke="black" d="M436.436,-180.765C439.663,-175.663 449.192,-160.594 457.165,-147.987"/>
<polygon fill="black" stroke="black" points="460.196,-149.743 462.583,-139.42 454.28,-146.001 460.196,-149.743"/>
</g>
<!-- 740_99 -->
<g id="node42" class="node"><title>740_99</title>
<polygon fill="dimgrey" stroke="black" points="569.805,-139.29 512.805,-139.29 512.805,-116.29 569.805,-116.29 569.805,-139.29"/>
<text text-anchor="middle" x="541.305" y="-124.09" font-family="Times,serif" font-size="14.00">740_99</text>
</g>
<!-- 740_1x740_2&#45;&gt;740_99 -->
<g id="edge41" class="edge"><title>740_1x740_2&#45;&gt;740_99</title>
<path fill="none" stroke="black" d="M437.145,-181.621C445.851,-177.205 483.631,-158.043 511.192,-144.064"/>
<polygon fill="black" stroke="black" points="513.115,-147.013 520.45,-139.368 509.948,-140.77 513.115,-147.013"/>
</g>
<!-- 740_19 -->
<g id="node8" class="node"><title>740_19</title>
<ellipse fill="#66cdaa" stroke="black" cx="202.305" cy="-127.79" rx="40.1111" ry="16.0303"/>
<text text-anchor="middle" x="202.305" y="-124.09" font-family="Times,serif" font-size="14.00">740_19</text>
</g>
<!-- 740_19&#45;&gt;740_5x740_19 -->
<g id="edge6" class="edge"><title>740_19&#45;&gt;740_5x740_19</title>
<path fill="none" stroke="black" d="M202.305,-111.24C202.305,-103.134 202.305,-93.3455 202.305,-85.7049"/>
<polygon fill="black" stroke="black" points="205.805,-85.5501 202.305,-75.5502 198.805,-85.5502 205.805,-85.5501"/>
</g>
<!-- 740_18 -->
<g id="node9" class="node"><title>740_18</title>
<polygon fill="#66cdaa" stroke="black" points="653.805,-27.7635 596.805,-27.7635 596.805,-4.76346 653.805,-4.76346 653.805,-27.7635"/>
<text text-anchor="middle" x="625.305" y="-12.5635" font-family="Times,serif" font-size="14.00">740_18</text>
</g>
<!-- 740_3x740_10 -->
<g id="node10" class="node"><title>740_3x740_10</title>
<polygon fill="none" stroke="black" points="662.305,-75.5269 658.805,-72.0269 662.305,-68.5269 665.805,-72.0269 662.305,-75.5269"/>
</g>
<!-- 740_3x740_10&#45;&gt;740_18 -->
<g id="edge7" class="edge"><title>740_3x740_10&#45;&gt;740_18</title>
<path fill="none" stroke="black" d="M661.074,-69.2381C657.563,-64.1359 647.192,-49.0672 638.516,-36.4603"/>
<polygon fill="black" stroke="black" points="641.173,-34.1469 632.621,-27.8934 635.407,-38.1154 641.173,-34.1469"/>
</g>
<!-- 740_17 -->
<g id="node11" class="node"><title>740_17</title>
<polygon fill="#66cdaa" stroke="black" points="728.805,-27.7635 671.805,-27.7635 671.805,-4.76346 728.805,-4.76346 728.805,-27.7635"/>
<text text-anchor="middle" x="700.305" y="-12.5635" font-family="Times,serif" font-size="14.00">740_17</text>
</g>
<!-- 740_3x740_10&#45;&gt;740_17 -->
<g id="edge8" class="edge"><title>740_3x740_10&#45;&gt;740_17</title>
<path fill="none" stroke="black" d="M663.569,-69.2381C667.211,-64.0863 678.034,-48.7736 686.996,-36.0939"/>
<polygon fill="black" stroke="black" points="689.878,-38.0797 692.792,-27.8934 684.162,-34.0394 689.878,-38.0797"/>
</g>
<!-- 740_16 -->
<g id="node12" class="node"><title>740_16</title>
<ellipse fill="#66cdaa" stroke="black" cx="787.305" cy="-16.2635" rx="40.1111" ry="16.0303"/>
<text text-anchor="middle" x="787.305" y="-12.5635" font-family="Times,serif" font-size="14.00">740_16</text>
</g>
<!-- 740_3x740_10&#45;&gt;740_16 -->
<g id="edge9" class="edge"><title>740_3x740_10&#45;&gt;740_16</title>
<path fill="none" stroke="black" d="M664.072,-70.2669C673.498,-66.2128 718.66,-46.7882 751.589,-32.6253"/>
<polygon fill="black" stroke="black" points="753.133,-35.7711 760.937,-28.6047 750.367,-29.3407 753.133,-35.7711"/>
</g>
<!-- 740_15 -->
<g id="node13" class="node"><title>740_15</title>
<ellipse fill="white" stroke="black" cx="886.305" cy="-16.2635" rx="40.1111" ry="16.0303"/>
<text text-anchor="middle" x="886.305" y="-12.5635" font-family="Times,serif" font-size="14.00">740_15</text>
</g>
<!-- 740_3x740_10&#45;&gt;740_15 -->
<g id="edge10" class="edge"><title>740_3x740_10&#45;&gt;740_15</title>
<path fill="none" stroke="black" d="M664.776,-70.5563C680.384,-67.5677 766.884,-50.7729 836.305,-32.5269 839.465,-31.6963 842.725,-30.7975 845.995,-29.8661"/>
<polygon fill="black" stroke="black" points="847.129,-33.181 855.74,-27.0095 845.16,-26.4636 847.129,-33.181"/>
</g>
<!-- 740_14 -->
<g id="node14" class="node"><title>740_14</title>
<polygon fill="#66cdaa" stroke="black" points="1001.81,-27.7635 944.805,-27.7635 944.805,-4.76346 1001.81,-4.76346 1001.81,-27.7635"/>
<text text-anchor="middle" x="973.305" y="-12.5635" font-family="Times,serif" font-size="14.00">740_14</text>
</g>
<!-- 740_3x740_10&#45;&gt;740_14 -->
<g id="edge11" class="edge"><title>740_3x740_10&#45;&gt;740_14</title>
<path fill="none" stroke="black" d="M664.782,-70.906C685.056,-69.8697 825.708,-61.8022 935.305,-32.5269 936.765,-32.137 938.244,-31.7067 939.729,-31.2453"/>
<polygon fill="black" stroke="black" points="941.188,-34.4435 949.481,-27.8497 938.886,-27.8328 941.188,-34.4435"/>
</g>
<!-- 740_13 -->
<g id="node15" class="node"><title>740_13</title>
<polygon fill="#66cdaa" stroke="black" points="404.805,-27.7635 347.805,-27.7635 347.805,-4.76346 404.805,-4.76346 404.805,-27.7635"/>
<text text-anchor="middle" x="376.305" y="-12.5635" font-family="Times,serif" font-size="14.00">740_13</text>
</g>
<!-- 740_3x740_10&#45;&gt;740_13 -->
<g id="edge12" class="edge"><title>740_3x740_10&#45;&gt;740_13</title>
<path fill="none" stroke="black" d="M659.816,-70.8572C640.562,-69.5005 513.463,-59.7541 414.305,-32.5269 412.848,-32.1269 411.371,-31.6881 409.888,-31.2197"/>
<polygon fill="black" stroke="black" points="410.738,-27.8088 400.143,-27.7971 408.418,-34.4133 410.738,-27.8088"/>
</g>
<!-- 740_12 -->
<g id="node16" class="node"><title>740_12</title>
<polygon fill="#66cdaa" stroke="black" points="479.805,-27.7635 422.805,-27.7635 422.805,-4.76346 479.805,-4.76346 479.805,-27.7635"/>
<text text-anchor="middle" x="451.305" y="-12.5635" font-family="Times,serif" font-size="14.00">740_12</text>
</g>
<!-- 740_3x740_10&#45;&gt;740_12 -->
<g id="edge13" class="edge"><title>740_3x740_10&#45;&gt;740_12</title>
<path fill="none" stroke="black" d="M659.827,-70.6323C644.173,-68.1079 557.492,-53.654 489.305,-32.5269 488.083,-32.1482 486.844,-31.7472 485.598,-31.3291"/>
<polygon fill="black" stroke="black" points="486.628,-27.9795 476.033,-27.8695 484.247,-34.5622 486.628,-27.9795"/>
</g>
<!-- 740_11 -->
<g id="node43" class="node"><title>740_11</title>
<ellipse fill="white" stroke="black" cx="538.305" cy="-16.2635" rx="40.1111" ry="16.0303"/>
<text text-anchor="middle" x="538.305" y="-12.5635" font-family="Times,serif" font-size="14.00">740_11</text>
</g>
<!-- 740_3x740_10&#45;&gt;740_11 -->
<g id="edge43" class="edge"><title>740_3x740_10&#45;&gt;740_11</title>
<path fill="none" stroke="black" d="M660.552,-70.2669C651.229,-66.2244 606.657,-46.8994 574.017,-32.7471"/>
<polygon fill="black" stroke="black" points="575.312,-29.4939 564.745,-28.727 572.527,-35.9162 575.312,-29.4939"/>
</g>
<!-- 740_8 -->
<g id="node17" class="node"><title>740_8</title>
<ellipse fill="#66cdaa" stroke="black" cx="1055.31" cy="-16.2635" rx="35.2113" ry="16.0303"/>
<text text-anchor="middle" x="1055.31" y="-12.5635" font-family="Times,serif" font-size="14.00">740_8</text>
</g>
<!-- 740_99x740_9 -->
<g id="node18" class="node"><title>740_99x740_9</title>
<polygon fill="none" stroke="black" points="1094.31,-75.5269 1090.81,-72.0269 1094.31,-68.5269 1097.81,-72.0269 1094.31,-75.5269"/>
</g>
<!-- 740_99x740_9&#45;&gt;740_8 -->
<g id="edge14" class="edge"><title>740_99x740_9&#45;&gt;740_8</title>
<path fill="none" stroke="black" d="M1093.01,-69.2381C1089.67,-64.6344 1080.44,-51.9165 1071.95,-40.2143"/>
<polygon fill="black" stroke="black" points="1074.7,-38.0429 1066,-32.0034 1069.04,-42.1532 1074.7,-38.0429"/>
</g>
<!-- 740_7 -->
<g id="node19" class="node"><title>740_7</title>
<polygon fill="#66cdaa" stroke="black" points="1158.31,-27.7635 1108.31,-27.7635 1108.31,-4.76346 1158.31,-4.76346 1158.31,-27.7635"/>
<text text-anchor="middle" x="1133.31" y="-12.5635" font-family="Times,serif" font-size="14.00">740_7</text>
</g>
<!-- 740_99x740_9&#45;&gt;740_7 -->
<g id="edge15" class="edge"><title>740_99x740_9&#45;&gt;740_7</title>
<path fill="none" stroke="black" d="M1095.6,-69.2381C1099.34,-64.0863 1110.45,-48.7736 1119.65,-36.0939"/>
<polygon fill="black" stroke="black" points="1122.56,-38.0431 1125.59,-27.8934 1116.89,-33.9329 1122.56,-38.0431"/>
</g>
<!-- 740_6 -->
<g id="node20" class="node"><title>740_6</title>
<polygon fill="#66cdaa" stroke="black" points="1226.31,-27.7635 1176.31,-27.7635 1176.31,-4.76346 1226.31,-4.76346 1226.31,-27.7635"/>
<text text-anchor="middle" x="1201.31" y="-12.5635" font-family="Times,serif" font-size="14.00">740_6</text>
</g>
<!-- 740_99x740_9&#45;&gt;740_6 -->
<g id="edge16" class="edge"><title>740_99x740_9&#45;&gt;740_6</title>
<path fill="none" stroke="black" d="M1096.16,-70.0937C1104.99,-65.659 1143.42,-46.3481 1171.27,-32.3541"/>
<polygon fill="black" stroke="black" points="1172.89,-35.4585 1180.25,-27.8413 1169.75,-29.2036 1172.89,-35.4585"/>
</g>
<!-- 740_24 -->
<g id="node21" class="node"><title>740_24</title>
<polygon fill="#66cdaa" stroke="black" points="565.805,-362.344 508.805,-362.344 508.805,-339.344 565.805,-339.344 565.805,-362.344"/>
<text text-anchor="middle" x="537.305" y="-347.144" font-family="Times,serif" font-size="14.00">740_24</text>
</g>
<!-- 740_24&#45;&gt;740_24x740_25 -->
<g id="edge17" class="edge"><title>740_24&#45;&gt;740_24x740_25</title>
<path fill="none" stroke="black" d="M545.801,-339.222C553.625,-329.439 565.131,-315.054 572.67,-305.627"/>
<polygon fill="black" stroke="black" points="575.576,-307.597 579.089,-297.601 570.11,-303.225 575.576,-307.597"/>
</g>
<!-- 740_25 -->
<g id="node22" class="node"><title>740_25</title>
<ellipse fill="#66cdaa" stroke="black" cx="624.305" cy="-350.844" rx="40.1111" ry="16.0303"/>
<text text-anchor="middle" x="624.305" y="-347.144" font-family="Times,serif" font-size="14.00">740_25</text>
</g>
<!-- 740_25&#45;&gt;740_24x740_25 -->
<g id="edge18" class="edge"><title>740_25&#45;&gt;740_24x740_25</title>
<path fill="none" stroke="black" d="M612.282,-335.153C604.553,-325.709 594.74,-313.719 588.036,-305.527"/>
<polygon fill="black" stroke="black" points="590.64,-303.183 581.598,-297.661 585.223,-307.616 590.64,-303.183"/>
</g>
<!-- 740_28x740_30 -->
<g id="node26" class="node"><title>740_28x740_30</title>
<polygon fill="none" stroke="black" points="915.305,-187.054 911.805,-183.554 915.305,-180.054 918.805,-183.554 915.305,-187.054"/>
</g>
<!-- 740_28&#45;&gt;740_28x740_30 -->
<g id="edge22" class="edge"><title>740_28&#45;&gt;740_28x740_30</title>
<path fill="none" stroke="black" d="M944.995,-227.695C938.335,-218.017 928.575,-203.836 922.085,-194.406"/>
<polygon fill="black" stroke="black" points="924.904,-192.328 916.352,-186.074 919.138,-196.296 924.904,-192.328"/>
</g>
<!-- 740_32 -->
<g id="node30" class="node"><title>740_32</title>
<ellipse fill="#66cdaa" stroke="black" cx="1188.31" cy="-127.79" rx="40.1111" ry="16.0303"/>
<text text-anchor="middle" x="1188.31" y="-124.09" font-family="Times,serif" font-size="14.00">740_32</text>
</g>
<!-- 740_28x740_30&#45;&gt;740_32 -->
<g id="edge26" class="edge"><title>740_28x740_30&#45;&gt;740_32</title>
<path fill="none" stroke="black" d="M917.981,-182.221C936.614,-179.879 1048.87,-165.337 1138.31,-144.054 1141.53,-143.287 1144.85,-142.428 1148.17,-141.52"/>
<polygon fill="black" stroke="black" points="1149.41,-144.805 1158.06,-138.687 1147.49,-138.076 1149.41,-144.805"/>
</g>
<!-- 740_33 -->
<g id="node31" class="node"><title>740_33</title>
<polygon fill="#66cdaa" stroke="black" points="941.805,-139.29 884.805,-139.29 884.805,-116.29 941.805,-116.29 941.805,-139.29"/>
<text text-anchor="middle" x="913.305" y="-124.09" font-family="Times,serif" font-size="14.00">740_33</text>
</g>
<!-- 740_28x740_30&#45;&gt;740_33 -->
<g id="edge27" class="edge"><title>740_28x740_30&#45;&gt;740_33</title>
<path fill="none" stroke="black" d="M915.209,-179.961C915.005,-174.493 914.515,-161.327 914.084,-149.721"/>
<polygon fill="black" stroke="black" points="917.568,-149.235 913.699,-139.372 910.573,-149.495 917.568,-149.235"/>
</g>
<!-- 740_10 -->
<g id="node41" class="node"><title>740_10</title>
<ellipse fill="dimgrey" stroke="black" cx="826.305" cy="-127.79" rx="40.1111" ry="16.0303"/>
<text text-anchor="middle" x="826.305" y="-124.09" font-family="Times,serif" font-size="14.00">740_10</text>
</g>
<!-- 740_28x740_30&#45;&gt;740_10 -->
<g id="edge39" class="edge"><title>740_28x740_30&#45;&gt;740_10</title>
<path fill="none" stroke="black" d="M913.446,-181.431C906.118,-177.004 878.548,-160.349 856.355,-146.943"/>
<polygon fill="black" stroke="black" points="857.925,-143.802 847.556,-141.627 854.305,-149.794 857.925,-143.802"/>
</g>
<!-- 740_31 -->
<g id="node44" class="node"><title>740_31</title>
<ellipse fill="dimgrey" stroke="black" cx="1000.31" cy="-127.79" rx="40.1111" ry="16.0303"/>
<text text-anchor="middle" x="1000.31" y="-124.09" font-family="Times,serif" font-size="14.00">740_31</text>
</g>
<!-- 740_28x740_30&#45;&gt;740_31 -->
<g id="edge44" class="edge"><title>740_28x740_30&#45;&gt;740_31</title>
<path fill="none" stroke="black" d="M917.08,-181.431C924.006,-177.05 949.865,-160.694 970.942,-147.363"/>
<polygon fill="black" stroke="black" points="973.033,-150.182 979.614,-141.878 969.291,-144.266 973.033,-150.182"/>
</g>
<!-- 740_29x740_34 -->
<g id="node28" class="node"><title>740_29x740_34</title>
<polygon fill="none" stroke="black" points="630.305,-187.054 626.805,-183.554 630.305,-180.054 633.805,-183.554 630.305,-187.054"/>
</g>
<!-- 740_29&#45;&gt;740_29x740_34 -->
<g id="edge24" class="edge"><title>740_29&#45;&gt;740_29x740_34</title>
<path fill="none" stroke="black" d="M590.183,-227.695C599.477,-217.702 613.238,-202.906 621.986,-193.499"/>
<polygon fill="black" stroke="black" points="624.644,-195.781 628.891,-186.074 619.518,-191.014 624.644,-195.781"/>
</g>
<!-- 740_35 -->
<g id="node33" class="node"><title>740_35</title>
<ellipse fill="#66cdaa" stroke="black" cx="628.305" cy="-127.79" rx="40.1111" ry="16.0303"/>
<text text-anchor="middle" x="628.305" y="-124.09" font-family="Times,serif" font-size="14.00">740_35</text>
</g>
<!-- 740_29x740_34&#45;&gt;740_35 -->
<g id="edge29" class="edge"><title>740_29x740_34&#45;&gt;740_35</title>
<path fill="none" stroke="black" d="M630.209,-179.961C630.031,-175.178 629.634,-164.508 629.248,-154.142"/>
<polygon fill="black" stroke="black" points="632.744,-153.97 628.875,-144.107 625.749,-154.23 632.744,-153.97"/>
</g>
<!-- 740_36 -->
<g id="node34" class="node"><title>740_36</title>
<ellipse fill="#66cdaa" stroke="black" cx="727.305" cy="-127.79" rx="40.1111" ry="16.0303"/>
<text text-anchor="middle" x="727.305" y="-124.09" font-family="Times,serif" font-size="14.00">740_36</text>
</g>
<!-- 740_29x740_34&#45;&gt;740_36 -->
<g id="edge30" class="edge"><title>740_29x740_34&#45;&gt;740_36</title>
<path fill="none" stroke="black" d="M631.989,-181.621C639.562,-177.423 671.179,-159.899 695.949,-146.17"/>
<polygon fill="black" stroke="black" points="697.659,-149.224 704.708,-141.315 694.265,-143.102 697.659,-149.224"/>
</g>
<!-- 740_30 -->
<g id="node29" class="node"><title>740_30</title>
<ellipse fill="#66cdaa" stroke="black" cx="766.305" cy="-239.317" rx="40.1111" ry="16.0303"/>
<text text-anchor="middle" x="766.305" y="-235.617" font-family="Times,serif" font-size="14.00">740_30</text>
</g>
<!-- 740_30&#45;&gt;740_28x740_30 -->
<g id="edge25" class="edge"><title>740_30&#45;&gt;740_28x740_30</title>
<path fill="none" stroke="black" d="M795.387,-227.824C828.39,-215.915 880.622,-197.068 903.694,-188.743"/>
<polygon fill="black" stroke="black" points="905.159,-191.936 913.377,-185.25 902.783,-185.351 905.159,-191.936"/>
</g>
<!-- 740_34 -->
<g id="node32" class="node"><title>740_34</title>
<ellipse fill="#66cdaa" stroke="black" cx="667.305" cy="-239.317" rx="40.1111" ry="16.0303"/>
<text text-anchor="middle" x="667.305" y="-235.617" font-family="Times,serif" font-size="14.00">740_34</text>
</g>
<!-- 740_34&#45;&gt;740_29x740_34 -->
<g id="edge28" class="edge"><title>740_34&#45;&gt;740_29x740_34</title>
<path fill="none" stroke="black" d="M656.999,-223.341C650.648,-214.113 642.683,-202.54 637.113,-194.447"/>
<polygon fill="black" stroke="black" points="639.932,-192.369 631.38,-186.116 634.166,-196.338 639.932,-192.369"/>
</g>
<!-- 740_2 -->
<g id="node35" class="node"><title>740_2</title>
<ellipse fill="#66cdaa" stroke="black" cx="430.305" cy="-239.317" rx="35.2113" ry="16.0303"/>
<text text-anchor="middle" x="430.305" y="-235.617" font-family="Times,serif" font-size="14.00">740_2</text>
</g>
<!-- 740_2&#45;&gt;740_1x740_2 -->
<g id="edge31" class="edge"><title>740_2&#45;&gt;740_1x740_2</title>
<path fill="none" stroke="black" d="M431.725,-223.055C432.488,-214.841 433.419,-204.836 434.14,-197.084"/>
<polygon fill="black" stroke="black" points="437.627,-197.387 435.068,-187.106 430.657,-196.739 437.627,-197.387"/>
</g>
<!-- 740_9 -->
<g id="node37" class="node"><title>740_9</title>
<ellipse fill="#66cdaa" stroke="black" cx="1094.31" cy="-127.79" rx="35.2113" ry="16.0303"/>
<text text-anchor="middle" x="1094.31" y="-124.09" font-family="Times,serif" font-size="14.00">740_9</text>
</g>
<!-- 740_9&#45;&gt;740_99x740_9 -->
<g id="edge33" class="edge"><title>740_9&#45;&gt;740_99x740_9</title>
<path fill="none" stroke="black" d="M1094.31,-111.24C1094.31,-103.134 1094.31,-93.3455 1094.31,-85.7049"/>
<polygon fill="black" stroke="black" points="1097.81,-85.5501 1094.31,-75.5502 1090.81,-85.5502 1097.81,-85.5501"/>
</g>
<!-- 740_5&#45;&gt;740_5x740_19 -->
<g id="edge35" class="edge"><title>740_5&#45;&gt;740_5x740_19</title>
<path fill="none" stroke="black" d="M272.117,-116.168C254.611,-105.351 228,-88.9054 213.201,-79.7602"/>
<polygon fill="black" stroke="black" points="214.612,-76.5176 204.265,-74.238 210.932,-82.4723 214.612,-76.5176"/>
</g>
<!-- 740_3&#45;&gt;740_3x740_10 -->
<g id="edge38" class="edge"><title>740_3&#45;&gt;740_3x740_10</title>
<path fill="none" stroke="black" d="M492.052,-116.199C496.087,-114.514 500.285,-112.882 504.305,-111.527 557.404,-93.6282 623.135,-80.342 649.998,-75.2743"/>
<polygon fill="black" stroke="black" points="650.835,-78.6792 660.036,-73.4269 649.568,-71.7948 650.835,-78.6792"/>
</g>
<!-- 740_10&#45;&gt;740_3x740_10 -->
<g id="edge40" class="edge"><title>740_10&#45;&gt;740_3x740_10</title>
<path fill="none" stroke="black" d="M796.225,-116.929C759.52,-104.896 699.236,-85.1338 673.994,-76.859"/>
<polygon fill="black" stroke="black" points="675.077,-73.5306 664.484,-73.7413 672.896,-80.1823 675.077,-73.5306"/>
</g>
<!-- 740_99&#45;&gt;740_99x740_9 -->
<g id="edge42" class="edge"><title>740_99&#45;&gt;740_99x740_9</title>
<path fill="none" stroke="black" d="M564.251,-116.265C569.132,-114.4 574.319,-112.685 579.305,-111.527 679.192,-88.3199 1011.77,-75.8464 1081.44,-73.4539"/>
<polygon fill="black" stroke="black" points="1081.84,-76.9424 1091.72,-73.1096 1081.61,-69.9463 1081.84,-76.9424"/>
</g>
</g>
</svg>
