<?xml version="1.0" encoding="UTF-8" standalone="no"?>
<!DOCTYPE svg PUBLIC "-//W3C//DTD SVG 1.1//EN"
 "http://www.w3.org/Graphics/SVG/1.1/DTD/svg11.dtd">
<!-- Generated by graphviz version 2.38.0 (20140413.2041)
 -->
<!-- Title: %3 Pages: 1 -->
<svg width="1655pt" height="477pt"
 viewBox="0.00 0.00 1654.81 477.11" xmlns="http://www.w3.org/2000/svg" xmlns:xlink="http://www.w3.org/1999/xlink">
<g id="graph0" class="graph" transform="scale(1 1) rotate(0) translate(4 473.108)">
<title>%3</title>
<polygon fill="white" stroke="none" points="-4,4 -4,-473.108 1650.81,-473.108 1650.81,4 -4,4"/>
<!-- 524_1 -->
<g id="node1" class="node"><title>524_1</title>
<polygon fill="#66cdaa" stroke="black" points="772.305,-352.817 722.305,-352.817 722.305,-329.817 772.305,-329.817 772.305,-352.817"/>
<text text-anchor="middle" x="747.305" y="-337.617" font-family="Times,serif" font-size="14.00">524_1</text>
</g>
<!-- 524_1x524_2 -->
<g id="node2" class="node"><title>524_1x524_2</title>
<polygon fill="none" stroke="black" points="786.305,-289.054 782.805,-285.554 786.305,-282.054 789.805,-285.554 786.305,-289.054"/>
</g>
<!-- 524_1&#45;&gt;524_1x524_2 -->
<g id="edge1" class="edge"><title>524_1&#45;&gt;524_1x524_2</title>
<path fill="none" stroke="black" d="M755.01,-329.695C762.031,-320.017 772.318,-305.836 779.158,-296.406"/>
<polygon fill="black" stroke="black" points="782.163,-298.224 785.202,-288.074 776.497,-294.114 782.163,-298.224"/>
</g>
<!-- 524_7 -->
<g id="node9" class="node"><title>524_7</title>
<polygon fill="#66cdaa" stroke="black" points="978.305,-241.29 928.305,-241.29 928.305,-218.29 978.305,-218.29 978.305,-241.29"/>
<text text-anchor="middle" x="953.305" y="-226.09" font-family="Times,serif" font-size="14.00">524_7</text>
</g>
<!-- 524_1x524_2&#45;&gt;524_7 -->
<g id="edge7" class="edge"><title>524_1x524_2&#45;&gt;524_7</title>
<path fill="none" stroke="black" d="M788.536,-284.033C801.407,-281.001 867.405,-265.109 919.305,-246.054 920.011,-245.795 920.723,-245.527 921.439,-245.254"/>
<polygon fill="black" stroke="black" points="922.88,-248.446 930.81,-241.42 920.229,-241.967 922.88,-248.446"/>
</g>
<!-- 524_4 -->
<g id="node10" class="node"><title>524_4</title>
<polygon fill="#66cdaa" stroke="black" points="576.305,-241.29 526.305,-241.29 526.305,-218.29 576.305,-218.29 576.305,-241.29"/>
<text text-anchor="middle" x="551.305" y="-226.09" font-family="Times,serif" font-size="14.00">524_4</text>
</g>
<!-- 524_1x524_2&#45;&gt;524_4 -->
<g id="edge8" class="edge"><title>524_1x524_2&#45;&gt;524_4</title>
<path fill="none" stroke="black" d="M783.864,-284.304C766.87,-282.52 664.593,-271.068 585.305,-246.054 584.414,-245.773 583.516,-245.475 582.613,-245.163"/>
<polygon fill="black" stroke="black" points="583.549,-241.772 572.961,-241.41 581.013,-248.296 583.549,-241.772"/>
</g>
<!-- 524_8 -->
<g id="node11" class="node"><title>524_8</title>
<polygon fill="#66cdaa" stroke="black" points="644.305,-241.29 594.305,-241.29 594.305,-218.29 644.305,-218.29 644.305,-241.29"/>
<text text-anchor="middle" x="619.305" y="-226.09" font-family="Times,serif" font-size="14.00">524_8</text>
</g>
<!-- 524_1x524_2&#45;&gt;524_8 -->
<g id="edge9" class="edge"><title>524_1x524_2&#45;&gt;524_8</title>
<path fill="none" stroke="black" d="M784.074,-284.033C771.204,-281.001 705.206,-265.109 653.305,-246.054 652.599,-245.795 651.887,-245.527 651.171,-245.254"/>
<polygon fill="black" stroke="black" points="652.381,-241.967 641.8,-241.42 649.73,-248.446 652.381,-241.967"/>
</g>
<!-- 524_10 -->
<g id="node12" class="node"><title>524_10</title>
<polygon fill="#66cdaa" stroke="black" points="507.805,-241.29 450.805,-241.29 450.805,-218.29 507.805,-218.29 507.805,-241.29"/>
<text text-anchor="middle" x="479.305" y="-226.09" font-family="Times,serif" font-size="14.00">524_10</text>
</g>
<!-- 524_1x524_2&#45;&gt;524_10 -->
<g id="edge10" class="edge"><title>524_1x524_2&#45;&gt;524_10</title>
<path fill="none" stroke="black" d="M783.864,-284.428C763.887,-283.351 625.298,-275.02 517.305,-246.054 515.846,-245.662 514.367,-245.231 512.882,-244.768"/>
<polygon fill="black" stroke="black" points="513.726,-241.356 503.131,-241.369 511.421,-247.966 513.726,-241.356"/>
</g>
<!-- 524_99 -->
<g id="node14" class="node"><title>524_99</title>
<polygon fill="dimgrey" stroke="black" points="1236.81,-241.29 1179.81,-241.29 1179.81,-218.29 1236.81,-218.29 1236.81,-241.29"/>
<text text-anchor="middle" x="1208.31" y="-226.09" font-family="Times,serif" font-size="14.00">524_99</text>
</g>
<!-- 524_1x524_2&#45;&gt;524_99 -->
<g id="edge12" class="edge"><title>524_1x524_2&#45;&gt;524_99</title>
<path fill="none" stroke="black" d="M789.103,-284.573C814.958,-284.685 1014.8,-284.263 1170.31,-246.054 1171.97,-245.646 1173.65,-245.179 1175.34,-244.669"/>
<polygon fill="black" stroke="black" points="1176.61,-247.934 1184.93,-241.374 1174.33,-241.314 1176.61,-247.934"/>
</g>
<!-- 524_3 -->
<g id="node16" class="node"><title>524_3</title>
<polygon fill="dimgrey" stroke="black" points="1046.31,-241.29 996.305,-241.29 996.305,-218.29 1046.31,-218.29 1046.31,-241.29"/>
<text text-anchor="middle" x="1021.31" y="-226.09" font-family="Times,serif" font-size="14.00">524_3</text>
</g>
<!-- 524_1x524_2&#45;&gt;524_3 -->
<g id="edge14" class="edge"><title>524_1x524_2&#45;&gt;524_3</title>
<path fill="none" stroke="black" d="M788.747,-284.304C805.74,-282.52 908.017,-271.068 987.305,-246.054 988.196,-245.773 989.094,-245.475 989.997,-245.163"/>
<polygon fill="black" stroke="black" points="991.597,-248.296 999.649,-241.41 989.061,-241.772 991.597,-248.296"/>
</g>
<!-- 524_5 -->
<g id="node21" class="node"><title>524_5</title>
<ellipse fill="#66cdaa" stroke="black" cx="697.305" cy="-229.79" rx="35.2113" ry="16.0303"/>
<text text-anchor="middle" x="697.305" y="-226.09" font-family="Times,serif" font-size="14.00">524_5</text>
</g>
<!-- 524_1x524_2&#45;&gt;524_5 -->
<g id="edge20" class="edge"><title>524_1x524_2&#45;&gt;524_5</title>
<path fill="none" stroke="black" d="M784.446,-283.431C777.031,-278.951 748.884,-261.949 726.56,-248.463"/>
<polygon fill="black" stroke="black" points="728.103,-245.306 717.734,-243.131 724.484,-251.298 728.103,-245.306"/>
</g>
<!-- 524_9 -->
<g id="node22" class="node"><title>524_9</title>
<ellipse fill="#66cdaa" stroke="black" cx="786.305" cy="-229.79" rx="35.2113" ry="16.0303"/>
<text text-anchor="middle" x="786.305" y="-226.09" font-family="Times,serif" font-size="14.00">524_9</text>
</g>
<!-- 524_1x524_2&#45;&gt;524_9 -->
<g id="edge21" class="edge"><title>524_1x524_2&#45;&gt;524_9</title>
<path fill="none" stroke="black" d="M786.305,-281.961C786.305,-277.178 786.305,-266.508 786.305,-256.142"/>
<polygon fill="black" stroke="black" points="789.805,-256.107 786.305,-246.107 782.805,-256.107 789.805,-256.107"/>
</g>
<!-- 524_6 -->
<g id="node26" class="node"><title>524_6</title>
<ellipse fill="#66cdaa" stroke="black" cx="875.305" cy="-229.79" rx="35.2113" ry="16.0303"/>
<text text-anchor="middle" x="875.305" y="-226.09" font-family="Times,serif" font-size="14.00">524_6</text>
</g>
<!-- 524_1x524_2&#45;&gt;524_6 -->
<g id="edge25" class="edge"><title>524_1x524_2&#45;&gt;524_6</title>
<path fill="none" stroke="black" d="M788.164,-283.431C795.58,-278.951 823.726,-261.949 846.05,-248.463"/>
<polygon fill="black" stroke="black" points="848.126,-251.298 854.876,-243.131 844.507,-245.306 848.126,-251.298"/>
</g>
<!-- 524_2 -->
<g id="node3" class="node"><title>524_2</title>
<ellipse fill="#66cdaa" stroke="black" cx="825.305" cy="-341.317" rx="35.2113" ry="16.0303"/>
<text text-anchor="middle" x="825.305" y="-337.617" font-family="Times,serif" font-size="14.00">524_2</text>
</g>
<!-- 524_2&#45;&gt;524_1x524_2 -->
<g id="edge3" class="edge"><title>524_2&#45;&gt;524_1x524_2</title>
<path fill="none" stroke="black" d="M814.648,-325.626C807.874,-316.287 799.293,-304.458 793.357,-296.275"/>
<polygon fill="black" stroke="black" points="796.156,-294.173 787.451,-288.134 790.49,-298.283 796.156,-294.173"/>
</g>
<!-- 524_26x524_27 -->
<g id="node4" class="node"><title>524_26x524_27</title>
<polygon fill="none" stroke="black" points="825.305,-400.581 821.805,-397.081 825.305,-393.581 828.805,-397.081 825.305,-400.581"/>
</g>
<!-- 524_26x524_27&#45;&gt;524_2 -->
<g id="edge2" class="edge"><title>524_26x524_27&#45;&gt;524_2</title>
<path fill="none" stroke="black" d="M825.305,-393.488C825.305,-388.705 825.305,-378.035 825.305,-367.669"/>
<polygon fill="black" stroke="black" points="828.805,-367.634 825.305,-357.634 821.805,-367.634 828.805,-367.634"/>
</g>
<!-- 524_28 -->
<g id="node37" class="node"><title>524_28</title>
<polygon fill="#66cdaa" stroke="black" points="605.805,-352.817 548.805,-352.817 548.805,-329.817 605.805,-329.817 605.805,-352.817"/>
<text text-anchor="middle" x="577.305" y="-337.617" font-family="Times,serif" font-size="14.00">524_28</text>
</g>
<!-- 524_26x524_27&#45;&gt;524_28 -->
<g id="edge35" class="edge"><title>524_26x524_27&#45;&gt;524_28</title>
<path fill="none" stroke="black" d="M823.161,-395.616C805.321,-391.748 680.557,-364.701 615.929,-350.69"/>
<polygon fill="black" stroke="black" points="616.613,-347.258 606.099,-348.559 615.13,-354.099 616.613,-347.258"/>
</g>
<!-- 524_30 -->
<g id="node49" class="node"><title>524_30</title>
<ellipse fill="#66cdaa" stroke="black" cx="1256.31" cy="-341.317" rx="40.1111" ry="16.0303"/>
<text text-anchor="middle" x="1256.31" y="-337.617" font-family="Times,serif" font-size="14.00">524_30</text>
</g>
<!-- 524_26x524_27&#45;&gt;524_30 -->
<g id="edge49" class="edge"><title>524_26x524_27&#45;&gt;524_30</title>
<path fill="none" stroke="black" d="M827.751,-396.017C851.889,-395.352 1049.88,-389.045 1206.31,-357.581 1209.75,-356.889 1213.29,-356.057 1216.82,-355.145"/>
<polygon fill="black" stroke="black" points="1217.98,-358.457 1226.67,-352.405 1216.1,-351.713 1217.98,-358.457"/>
</g>
<!-- 524_29 -->
<g id="node5" class="node"><title>524_29</title>
<ellipse fill="#66cdaa" stroke="black" cx="392.305" cy="-341.317" rx="40.1111" ry="16.0303"/>
<text text-anchor="middle" x="392.305" y="-337.617" font-family="Times,serif" font-size="14.00">524_29</text>
</g>
<!-- 524_28x524_29 -->
<g id="node6" class="node"><title>524_28x524_29</title>
<polygon fill="none" stroke="black" points="392.305,-289.054 388.805,-285.554 392.305,-282.054 395.805,-285.554 392.305,-289.054"/>
</g>
<!-- 524_29&#45;&gt;524_28x524_29 -->
<g id="edge4" class="edge"><title>524_29&#45;&gt;524_28x524_29</title>
<path fill="none" stroke="black" d="M392.305,-324.767C392.305,-316.661 392.305,-306.872 392.305,-299.232"/>
<polygon fill="black" stroke="black" points="395.805,-299.077 392.305,-289.077 388.805,-299.077 395.805,-299.077"/>
</g>
<!-- 524_15 -->
<g id="node7" class="node"><title>524_15</title>
<ellipse fill="#66cdaa" stroke="black" cx="392.305" cy="-229.79" rx="40.1111" ry="16.0303"/>
<text text-anchor="middle" x="392.305" y="-226.09" font-family="Times,serif" font-size="14.00">524_15</text>
</g>
<!-- 524_28x524_29&#45;&gt;524_15 -->
<g id="edge5" class="edge"><title>524_28x524_29&#45;&gt;524_15</title>
<path fill="none" stroke="black" d="M392.305,-281.961C392.305,-277.178 392.305,-266.508 392.305,-256.142"/>
<polygon fill="black" stroke="black" points="395.805,-256.107 392.305,-246.107 388.805,-256.107 395.805,-256.107"/>
</g>
<!-- 524_37 -->
<g id="node52" class="node"><title>524_37</title>
<ellipse fill="#66cdaa" stroke="black" cx="260.305" cy="-229.79" rx="40.1111" ry="16.0303"/>
<text text-anchor="middle" x="260.305" y="-226.09" font-family="Times,serif" font-size="14.00">524_37</text>
</g>
<!-- 524_28x524_29&#45;&gt;524_37 -->
<g id="edge53" class="edge"><title>524_28x524_29&#45;&gt;524_37</title>
<path fill="none" stroke="black" d="M390.439,-283.794C380.385,-279.699 331.832,-259.923 296.977,-245.727"/>
<polygon fill="black" stroke="black" points="298.135,-242.419 287.553,-241.888 295.494,-248.902 298.135,-242.419"/>
</g>
<!-- 524_3x524_15 -->
<g id="node8" class="node"><title>524_3x524_15</title>
<polygon fill="none" stroke="black" points="649.305,-177.527 645.805,-174.027 649.305,-170.527 652.805,-174.027 649.305,-177.527"/>
</g>
<!-- 524_15&#45;&gt;524_3x524_15 -->
<g id="edge6" class="edge"><title>524_15&#45;&gt;524_3x524_15</title>
<path fill="none" stroke="black" d="M422.206,-218.857C428.477,-216.949 435.078,-215.067 441.305,-213.527 514.624,-195.39 604.383,-181.546 636.847,-176.803"/>
<polygon fill="black" stroke="black" points="637.408,-180.259 646.809,-175.374 636.413,-173.33 637.408,-180.259"/>
</g>
<!-- 524_16 -->
<g id="node18" class="node"><title>524_16</title>
<polygon fill="#66cdaa" stroke="black" points="950.805,-129.763 893.805,-129.763 893.805,-106.763 950.805,-106.763 950.805,-129.763"/>
<text text-anchor="middle" x="922.305" y="-114.563" font-family="Times,serif" font-size="14.00">524_16</text>
</g>
<!-- 524_3x524_15&#45;&gt;524_16 -->
<g id="edge17" class="edge"><title>524_3x524_15&#45;&gt;524_16</title>
<path fill="none" stroke="black" d="M651.663,-172.839C669.906,-171.344 790.328,-160.755 884.305,-134.527 885.76,-134.121 887.236,-133.677 888.718,-133.204"/>
<polygon fill="black" stroke="black" points="890.194,-136.395 898.458,-129.766 887.863,-129.794 890.194,-136.395"/>
</g>
<!-- 524_20 -->
<g id="node23" class="node"><title>524_20</title>
<ellipse fill="#66cdaa" stroke="black" cx="1009.31" cy="-118.263" rx="40.1111" ry="16.0303"/>
<text text-anchor="middle" x="1009.31" y="-114.563" font-family="Times,serif" font-size="14.00">524_20</text>
</g>
<!-- 524_3x524_15&#45;&gt;524_20 -->
<g id="edge22" class="edge"><title>524_3x524_15&#45;&gt;524_20</title>
<path fill="none" stroke="black" d="M651.815,-172.882C673.614,-171.586 833.064,-161.424 959.305,-134.527 962.692,-133.805 966.18,-132.96 969.664,-132.043"/>
<polygon fill="black" stroke="black" points="970.701,-135.387 979.384,-129.316 968.81,-128.648 970.701,-135.387"/>
</g>
<!-- 524_21 -->
<g id="node24" class="node"><title>524_21</title>
<ellipse fill="#66cdaa" stroke="black" cx="238.305" cy="-118.263" rx="40.1111" ry="16.0303"/>
<text text-anchor="middle" x="238.305" y="-114.563" font-family="Times,serif" font-size="14.00">524_21</text>
</g>
<!-- 524_3x524_15&#45;&gt;524_21 -->
<g id="edge23" class="edge"><title>524_3x524_15&#45;&gt;524_21</title>
<path fill="none" stroke="black" d="M646.685,-172.945C622.469,-172.147 435.226,-165.123 287.305,-134.527 284.12,-133.868 280.848,-133.087 277.577,-132.232"/>
<polygon fill="black" stroke="black" points="278.434,-128.837 267.86,-129.492 276.534,-135.574 278.434,-128.837"/>
</g>
<!-- 524_22 -->
<g id="node25" class="node"><title>524_22</title>
<polygon fill="#66cdaa" stroke="black" points="353.805,-129.763 296.805,-129.763 296.805,-106.763 353.805,-106.763 353.805,-129.763"/>
<text text-anchor="middle" x="325.305" y="-114.563" font-family="Times,serif" font-size="14.00">524_22</text>
</g>
<!-- 524_3x524_15&#45;&gt;524_22 -->
<g id="edge24" class="edge"><title>524_3x524_15&#45;&gt;524_22</title>
<path fill="none" stroke="black" d="M646.699,-172.933C625.365,-172.11 477.376,-165.422 362.305,-134.527 360.879,-134.144 359.435,-133.72 357.985,-133.263"/>
<polygon fill="black" stroke="black" points="359.072,-129.935 348.477,-129.886 356.729,-136.531 359.072,-129.935"/>
</g>
<!-- 524_24 -->
<g id="node28" class="node"><title>524_24</title>
<polygon fill="#66cdaa" stroke="black" points="428.805,-129.763 371.805,-129.763 371.805,-106.763 428.805,-106.763 428.805,-129.763"/>
<text text-anchor="middle" x="400.305" y="-114.563" font-family="Times,serif" font-size="14.00">524_24</text>
</g>
<!-- 524_3x524_15&#45;&gt;524_24 -->
<g id="edge27" class="edge"><title>524_3x524_15&#45;&gt;524_24</title>
<path fill="none" stroke="black" d="M646.738,-172.769C628.869,-170.931 521.297,-159.176 437.305,-134.527 436.067,-134.164 434.815,-133.773 433.556,-133.36"/>
<polygon fill="black" stroke="black" points="434.517,-129.986 423.923,-129.872 432.134,-136.568 434.517,-129.986"/>
</g>
<!-- 524_25 -->
<g id="node29" class="node"><title>524_25</title>
<polygon fill="#66cdaa" stroke="black" points="503.805,-129.763 446.805,-129.763 446.805,-106.763 503.805,-106.763 503.805,-129.763"/>
<text text-anchor="middle" x="475.305" y="-114.563" font-family="Times,serif" font-size="14.00">524_25</text>
</g>
<!-- 524_3x524_15&#45;&gt;524_25 -->
<g id="edge28" class="edge"><title>524_3x524_15&#45;&gt;524_25</title>
<path fill="none" stroke="black" d="M647.034,-172.48C633.933,-169.307 566.719,-152.757 513.305,-134.527 512.262,-134.171 511.206,-133.802 510.143,-133.423"/>
<polygon fill="black" stroke="black" points="511.103,-130.046 500.511,-129.822 508.652,-136.603 511.103,-130.046"/>
</g>
<!-- 524_18 -->
<g id="node33" class="node"><title>524_18</title>
<ellipse fill="#66cdaa" stroke="black" cx="562.305" cy="-118.263" rx="40.1111" ry="16.0303"/>
<text text-anchor="middle" x="562.305" y="-114.563" font-family="Times,serif" font-size="14.00">524_18</text>
</g>
<!-- 524_3x524_15&#45;&gt;524_18 -->
<g id="edge31" class="edge"><title>524_3x524_15&#45;&gt;524_18</title>
<path fill="none" stroke="black" d="M647.488,-171.904C640.368,-167.504 613.696,-151.021 592.07,-137.657"/>
<polygon fill="black" stroke="black" points="593.83,-134.631 583.483,-132.351 590.15,-140.585 593.83,-134.631"/>
</g>
<!-- 524_17 -->
<g id="node34" class="node"><title>524_17</title>
<polygon fill="#66cdaa" stroke="black" points="677.805,-129.763 620.805,-129.763 620.805,-106.763 677.805,-106.763 677.805,-129.763"/>
<text text-anchor="middle" x="649.305" y="-114.563" font-family="Times,serif" font-size="14.00">524_17</text>
</g>
<!-- 524_3x524_15&#45;&gt;524_17 -->
<g id="edge32" class="edge"><title>524_3x524_15&#45;&gt;524_17</title>
<path fill="none" stroke="black" d="M649.305,-170.434C649.305,-164.966 649.305,-151.801 649.305,-140.194"/>
<polygon fill="black" stroke="black" points="652.805,-139.845 649.305,-129.845 645.805,-139.845 652.805,-139.845"/>
</g>
<!-- 524_23 -->
<g id="node43" class="node"><title>524_23</title>
<ellipse fill="white" stroke="black" cx="736.305" cy="-118.263" rx="40.1111" ry="16.0303"/>
<text text-anchor="middle" x="736.305" y="-114.563" font-family="Times,serif" font-size="14.00">524_23</text>
</g>
<!-- 524_3x524_15&#45;&gt;524_23 -->
<g id="edge41" class="edge"><title>524_3x524_15&#45;&gt;524_23</title>
<path fill="none" stroke="black" d="M651.122,-171.904C658.242,-167.504 684.915,-151.021 706.54,-137.657"/>
<polygon fill="black" stroke="black" points="708.46,-140.585 715.127,-132.351 704.78,-134.631 708.46,-140.585"/>
</g>
<!-- 524_19 -->
<g id="node45" class="node"><title>524_19</title>
<ellipse fill="white" stroke="black" cx="835.305" cy="-118.263" rx="40.1111" ry="16.0303"/>
<text text-anchor="middle" x="835.305" y="-114.563" font-family="Times,serif" font-size="14.00">524_19</text>
</g>
<!-- 524_3x524_15&#45;&gt;524_19 -->
<g id="edge44" class="edge"><title>524_3x524_15&#45;&gt;524_19</title>
<path fill="none" stroke="black" d="M651.553,-172.409C664.529,-168.839 731.159,-150.454 785.305,-134.527 788.396,-133.618 791.591,-132.667 794.803,-131.704"/>
<polygon fill="black" stroke="black" points="795.834,-135.049 804.395,-128.807 793.81,-128.348 795.834,-135.049"/>
</g>
<!-- 524_38 -->
<g id="node48" class="node"><title>524_38</title>
<polygon fill="#66cdaa" stroke="black" points="1124.81,-129.763 1067.81,-129.763 1067.81,-106.763 1124.81,-106.763 1124.81,-129.763"/>
<text text-anchor="middle" x="1096.31" y="-114.563" font-family="Times,serif" font-size="14.00">524_38</text>
</g>
<!-- 524_3x524_15&#45;&gt;524_38 -->
<g id="edge47" class="edge"><title>524_3x524_15&#45;&gt;524_38</title>
<path fill="none" stroke="black" d="M651.949,-173.067C678.039,-173.407 891.956,-174.865 1058.31,-134.527 1059.97,-134.124 1061.65,-133.662 1063.34,-133.155"/>
<polygon fill="black" stroke="black" points="1064.61,-136.421 1072.93,-129.87 1062.34,-129.799 1064.61,-136.421"/>
</g>
<!-- 524_10x524_37 -->
<g id="node13" class="node"><title>524_10x524_37</title>
<polygon fill="none" stroke="black" points="193.305,-177.527 189.805,-174.027 193.305,-170.527 196.805,-174.027 193.305,-177.527"/>
</g>
<!-- 524_10&#45;&gt;524_10x524_37 -->
<g id="edge11" class="edge"><title>524_10&#45;&gt;524_10x524_37</title>
<path fill="none" stroke="black" d="M455.467,-218.257C450.833,-216.484 445.967,-214.807 441.305,-213.527 352.992,-189.278 242.517,-178.894 205.804,-175.955"/>
<polygon fill="black" stroke="black" points="206.03,-172.462 195.794,-175.197 205.501,-179.442 206.03,-172.462"/>
</g>
<!-- 524_40 -->
<g id="node35" class="node"><title>524_40</title>
<ellipse fill="#66cdaa" stroke="black" cx="40.3051" cy="-118.263" rx="40.1111" ry="16.0303"/>
<text text-anchor="middle" x="40.3051" y="-114.563" font-family="Times,serif" font-size="14.00">524_40</text>
</g>
<!-- 524_10x524_37&#45;&gt;524_40 -->
<g id="edge33" class="edge"><title>524_10x524_37&#45;&gt;524_40</title>
<path fill="none" stroke="black" d="M191.142,-172.267C179.13,-168.046 119.698,-147.162 79.1207,-132.903"/>
<polygon fill="black" stroke="black" points="80.1002,-129.538 69.5054,-129.524 77.7795,-136.142 80.1002,-129.538"/>
</g>
<!-- 524_39 -->
<g id="node36" class="node"><title>524_39</title>
<ellipse fill="#66cdaa" stroke="black" cx="139.305" cy="-118.263" rx="40.1111" ry="16.0303"/>
<text text-anchor="middle" x="139.305" y="-114.563" font-family="Times,serif" font-size="14.00">524_39</text>
</g>
<!-- 524_10x524_37&#45;&gt;524_39 -->
<g id="edge34" class="edge"><title>524_10x524_37&#45;&gt;524_39</title>
<path fill="none" stroke="black" d="M191.97,-171.698C187.626,-167.372 173.445,-153.254 160.892,-140.756"/>
<polygon fill="black" stroke="black" points="163.332,-138.246 153.776,-133.671 158.393,-143.207 163.332,-138.246"/>
</g>
<!-- 524_99x524_11 -->
<g id="node15" class="node"><title>524_99x524_11</title>
<polygon fill="none" stroke="black" points="1208.31,-177.527 1204.81,-174.027 1208.31,-170.527 1211.81,-174.027 1208.31,-177.527"/>
</g>
<!-- 524_99&#45;&gt;524_99x524_11 -->
<g id="edge13" class="edge"><title>524_99&#45;&gt;524_99x524_11</title>
<path fill="none" stroke="black" d="M1208.31,-218.168C1208.31,-209.416 1208.31,-196.981 1208.31,-187.707"/>
<polygon fill="black" stroke="black" points="1211.81,-187.666 1208.31,-177.666 1204.81,-187.666 1211.81,-187.666"/>
</g>
<!-- 524_12 -->
<g id="node17" class="node"><title>524_12</title>
<ellipse fill="#66cdaa" stroke="black" cx="1333.31" cy="-118.263" rx="40.1111" ry="16.0303"/>
<text text-anchor="middle" x="1333.31" y="-114.563" font-family="Times,serif" font-size="14.00">524_12</text>
</g>
<!-- 524_99x524_11&#45;&gt;524_12 -->
<g id="edge16" class="edge"><title>524_99x524_11&#45;&gt;524_12</title>
<path fill="none" stroke="black" d="M1210.07,-172.267C1219.5,-168.213 1264.66,-148.788 1297.59,-134.625"/>
<polygon fill="black" stroke="black" points="1299.13,-137.771 1306.94,-130.605 1296.37,-131.341 1299.13,-137.771"/>
</g>
<!-- 524_14 -->
<g id="node19" class="node"><title>524_14</title>
<polygon fill="#66cdaa" stroke="black" points="1199.81,-129.763 1142.81,-129.763 1142.81,-106.763 1199.81,-106.763 1199.81,-129.763"/>
<text text-anchor="middle" x="1171.31" y="-114.563" font-family="Times,serif" font-size="14.00">524_14</text>
</g>
<!-- 524_99x524_11&#45;&gt;524_14 -->
<g id="edge18" class="edge"><title>524_99x524_11&#45;&gt;524_14</title>
<path fill="none" stroke="black" d="M1207.07,-171.238C1203.56,-166.136 1193.19,-151.067 1184.52,-138.46"/>
<polygon fill="black" stroke="black" points="1187.17,-136.147 1178.62,-129.893 1181.41,-140.115 1187.17,-136.147"/>
</g>
<!-- 524_13 -->
<g id="node20" class="node"><title>524_13</title>
<polygon fill="#66cdaa" stroke="black" points="1274.81,-129.763 1217.81,-129.763 1217.81,-106.763 1274.81,-106.763 1274.81,-129.763"/>
<text text-anchor="middle" x="1246.31" y="-114.563" font-family="Times,serif" font-size="14.00">524_13</text>
</g>
<!-- 524_99x524_11&#45;&gt;524_13 -->
<g id="edge19" class="edge"><title>524_99x524_11&#45;&gt;524_13</title>
<path fill="none" stroke="black" d="M1209.57,-171.238C1213.21,-166.086 1224.03,-150.774 1233,-138.094"/>
<polygon fill="black" stroke="black" points="1235.88,-140.08 1238.79,-129.893 1230.16,-136.039 1235.88,-140.08"/>
</g>
<!-- 524_3&#45;&gt;524_3x524_15 -->
<g id="edge15" class="edge"><title>524_3&#45;&gt;524_3x524_15</title>
<path fill="none" stroke="black" d="M1000.46,-218.224C996.194,-216.409 991.673,-214.725 987.305,-213.527 863.927,-179.688 707.34,-175.55 662.082,-175.078"/>
<polygon fill="black" stroke="black" points="662.093,-171.578 652.073,-175.02 662.052,-178.577 662.093,-171.578"/>
</g>
<!-- 524_11 -->
<g id="node27" class="node"><title>524_11</title>
<ellipse fill="#66cdaa" stroke="black" cx="1121.31" cy="-229.79" rx="40.1111" ry="16.0303"/>
<text text-anchor="middle" x="1121.31" y="-226.09" font-family="Times,serif" font-size="14.00">524_11</text>
</g>
<!-- 524_11&#45;&gt;524_99x524_11 -->
<g id="edge26" class="edge"><title>524_11&#45;&gt;524_99x524_11</title>
<path fill="none" stroke="black" d="M1142.37,-215.776C1159.97,-204.899 1184.32,-189.851 1197.96,-181.417"/>
<polygon fill="black" stroke="black" points="1199.86,-184.36 1206.53,-176.125 1196.18,-178.405 1199.86,-184.36"/>
</g>
<!-- 524_42 -->
<g id="node30" class="node"><title>524_42</title>
<polygon fill="#66cdaa" stroke="black" points="1255.81,-23 1198.81,-23 1198.81,-0 1255.81,-0 1255.81,-23"/>
<text text-anchor="middle" x="1227.31" y="-7.8" font-family="Times,serif" font-size="14.00">524_42</text>
</g>
<!-- 524_38x524_34 -->
<g id="node31" class="node"><title>524_38x524_34</title>
<polygon fill="none" stroke="black" points="1264.31,-66 1260.81,-62.5 1264.31,-59 1267.81,-62.5 1264.31,-66"/>
</g>
<!-- 524_38x524_34&#45;&gt;524_42 -->
<g id="edge29" class="edge"><title>524_38x524_34&#45;&gt;524_42</title>
<path fill="none" stroke="black" d="M1263.07,-59.8697C1259.68,-55.3705 1249.86,-42.3683 1241.37,-31.1221"/>
<polygon fill="black" stroke="black" points="1244.08,-28.9056 1235.26,-23.0343 1238.49,-33.1239 1244.08,-28.9056"/>
</g>
<!-- 524_41 -->
<g id="node32" class="node"><title>524_41</title>
<polygon fill="#66cdaa" stroke="black" points="1330.81,-23 1273.81,-23 1273.81,-0 1330.81,-0 1330.81,-23"/>
<text text-anchor="middle" x="1302.31" y="-7.8" font-family="Times,serif" font-size="14.00">524_41</text>
</g>
<!-- 524_38x524_34&#45;&gt;524_41 -->
<g id="edge30" class="edge"><title>524_38x524_34&#45;&gt;524_41</title>
<path fill="none" stroke="black" d="M1265.57,-59.8697C1269.06,-55.3705 1279.14,-42.3683 1287.86,-31.1221"/>
<polygon fill="black" stroke="black" points="1290.77,-33.0814 1294.14,-23.0343 1285.24,-28.7916 1290.77,-33.0814"/>
</g>
<!-- 524_28&#45;&gt;524_28x524_29 -->
<g id="edge36" class="edge"><title>524_28&#45;&gt;524_28x524_29</title>
<path fill="none" stroke="black" d="M548.804,-332.035C507.67,-320.08 433.416,-298.501 404.393,-290.067"/>
<polygon fill="black" stroke="black" points="405.102,-286.628 394.523,-287.198 403.149,-293.35 405.102,-286.628"/>
</g>
<!-- 524_36 -->
<g id="node38" class="node"><title>524_36</title>
<ellipse fill="#66cdaa" stroke="black" cx="1531.31" cy="-118.263" rx="40.1111" ry="16.0303"/>
<text text-anchor="middle" x="1531.31" y="-114.563" font-family="Times,serif" font-size="14.00">524_36</text>
</g>
<!-- 524_33x524_32 -->
<g id="node39" class="node"><title>524_33x524_32</title>
<polygon fill="none" stroke="black" points="1481.31,-177.527 1477.81,-174.027 1481.31,-170.527 1484.81,-174.027 1481.31,-177.527"/>
</g>
<!-- 524_33x524_32&#45;&gt;524_36 -->
<g id="edge37" class="edge"><title>524_33x524_32&#45;&gt;524_36</title>
<path fill="none" stroke="black" d="M1482.54,-171.698C1486.53,-167.413 1499.45,-153.517 1510.99,-141.107"/>
<polygon fill="black" stroke="black" points="1513.66,-143.377 1517.91,-133.671 1508.53,-138.61 1513.66,-143.377"/>
</g>
<!-- 524_34 -->
<g id="node44" class="node"><title>524_34</title>
<ellipse fill="dimgrey" stroke="black" cx="1432.31" cy="-118.263" rx="40.1111" ry="16.0303"/>
<text text-anchor="middle" x="1432.31" y="-114.563" font-family="Times,serif" font-size="14.00">524_34</text>
</g>
<!-- 524_33x524_32&#45;&gt;524_34 -->
<g id="edge42" class="edge"><title>524_33x524_32&#45;&gt;524_34</title>
<path fill="none" stroke="black" d="M1480.09,-171.698C1476.19,-167.413 1463.52,-153.517 1452.21,-141.107"/>
<polygon fill="black" stroke="black" points="1454.76,-138.704 1445.44,-133.671 1449.59,-143.42 1454.76,-138.704"/>
</g>
<!-- 524_35 -->
<g id="node51" class="node"><title>524_35</title>
<polygon fill="white" stroke="black" points="1646.81,-129.763 1589.81,-129.763 1589.81,-106.763 1646.81,-106.763 1646.81,-129.763"/>
<text text-anchor="middle" x="1618.31" y="-114.563" font-family="Times,serif" font-size="14.00">524_35</text>
</g>
<!-- 524_33x524_32&#45;&gt;524_35 -->
<g id="edge52" class="edge"><title>524_33x524_32&#45;&gt;524_35</title>
<path fill="none" stroke="black" d="M1483.2,-172.301C1493.22,-168.447 1541.2,-149.983 1580.31,-134.527 1581.14,-134.195 1581.99,-133.859 1582.85,-133.52"/>
<polygon fill="black" stroke="black" points="1584.16,-136.765 1592.15,-129.811 1581.57,-130.262 1584.16,-136.765"/>
</g>
<!-- 524_33 -->
<g id="node40" class="node"><title>524_33</title>
<polygon fill="#66cdaa" stroke="black" points="1422.81,-241.29 1365.81,-241.29 1365.81,-218.29 1422.81,-218.29 1422.81,-241.29"/>
<text text-anchor="middle" x="1394.31" y="-226.09" font-family="Times,serif" font-size="14.00">524_33</text>
</g>
<!-- 524_33&#45;&gt;524_33x524_32 -->
<g id="edge38" class="edge"><title>524_33&#45;&gt;524_33x524_32</title>
<path fill="none" stroke="black" d="M1411.49,-218.168C1429,-207.351 1455.61,-190.905 1470.41,-181.76"/>
<polygon fill="black" stroke="black" points="1472.68,-184.472 1479.35,-176.238 1469,-178.518 1472.68,-184.472"/>
</g>
<!-- 524_32 -->
<g id="node41" class="node"><title>524_32</title>
<ellipse fill="#66cdaa" stroke="black" cx="1481.31" cy="-229.79" rx="40.1111" ry="16.0303"/>
<text text-anchor="middle" x="1481.31" y="-226.09" font-family="Times,serif" font-size="14.00">524_32</text>
</g>
<!-- 524_32&#45;&gt;524_33x524_32 -->
<g id="edge40" class="edge"><title>524_32&#45;&gt;524_33x524_32</title>
<path fill="none" stroke="black" d="M1481.31,-213.24C1481.31,-205.134 1481.31,-195.345 1481.31,-187.705"/>
<polygon fill="black" stroke="black" points="1484.81,-187.55 1481.31,-177.55 1477.81,-187.55 1484.81,-187.55"/>
</g>
<!-- 524_31x524_30 -->
<g id="node42" class="node"><title>524_31x524_30</title>
<polygon fill="none" stroke="black" points="1256.31,-289.054 1252.81,-285.554 1256.31,-282.054 1259.81,-285.554 1256.31,-289.054"/>
</g>
<!-- 524_31x524_30&#45;&gt;524_32 -->
<g id="edge39" class="edge"><title>524_31x524_30&#45;&gt;524_32</title>
<path fill="none" stroke="black" d="M1258.79,-284.085C1274.49,-281.105 1361.49,-264.358 1431.31,-246.054 1434.47,-245.225 1437.73,-244.328 1441,-243.397"/>
<polygon fill="black" stroke="black" points="1442.13,-246.712 1450.74,-240.542 1440.16,-239.995 1442.13,-246.712"/>
</g>
<!-- 524_34&#45;&gt;524_38x524_34 -->
<g id="edge43" class="edge"><title>524_34&#45;&gt;524_38x524_34</title>
<path fill="none" stroke="black" d="M1401.88,-107.527C1364.35,-95.5159 1302.32,-75.6664 1276.34,-67.3514"/>
<polygon fill="black" stroke="black" points="1277.14,-63.9326 1266.55,-64.2181 1275.01,-70.5996 1277.14,-63.9326"/>
</g>
<!-- 524_31 -->
<g id="node46" class="node"><title>524_31</title>
<polygon fill="#66cdaa" stroke="black" points="1197.81,-352.817 1140.81,-352.817 1140.81,-329.817 1197.81,-329.817 1197.81,-352.817"/>
<text text-anchor="middle" x="1169.31" y="-337.617" font-family="Times,serif" font-size="14.00">524_31</text>
</g>
<!-- 524_31&#45;&gt;524_31x524_30 -->
<g id="edge45" class="edge"><title>524_31&#45;&gt;524_31x524_30</title>
<path fill="none" stroke="black" d="M1186.49,-329.695C1204,-318.877 1230.61,-302.432 1245.41,-293.287"/>
<polygon fill="black" stroke="black" points="1247.68,-295.999 1254.35,-287.765 1244,-290.045 1247.68,-295.999"/>
</g>
<!-- 524_26 -->
<g id="node47" class="node"><title>524_26</title>
<polygon fill="#66cdaa" stroke="black" points="810.805,-464.344 753.805,-464.344 753.805,-441.344 810.805,-441.344 810.805,-464.344"/>
<text text-anchor="middle" x="782.305" y="-449.144" font-family="Times,serif" font-size="14.00">524_26</text>
</g>
<!-- 524_26&#45;&gt;524_26x524_27 -->
<g id="edge46" class="edge"><title>524_26&#45;&gt;524_26x524_27</title>
<path fill="none" stroke="black" d="M790.801,-441.222C798.625,-431.439 810.131,-417.054 817.67,-407.627"/>
<polygon fill="black" stroke="black" points="820.576,-409.597 824.089,-399.601 815.11,-405.225 820.576,-409.597"/>
</g>
<!-- 524_38&#45;&gt;524_38x524_34 -->
<g id="edge48" class="edge"><title>524_38&#45;&gt;524_38x524_34</title>
<path fill="none" stroke="black" d="M1120.84,-106.717C1124.98,-105.064 1129.24,-103.431 1133.31,-102 1176.5,-86.7924 1229.09,-72.6149 1252.31,-66.5712"/>
<polygon fill="black" stroke="black" points="1253.3,-69.9295 1262.12,-64.0504 1251.56,-63.1498 1253.3,-69.9295"/>
</g>
<!-- 524_30&#45;&gt;524_31x524_30 -->
<g id="edge50" class="edge"><title>524_30&#45;&gt;524_31x524_30</title>
<path fill="none" stroke="black" d="M1256.31,-324.767C1256.31,-316.661 1256.31,-306.872 1256.31,-299.232"/>
<polygon fill="black" stroke="black" points="1259.81,-299.077 1256.31,-289.077 1252.81,-299.077 1259.81,-299.077"/>
</g>
<!-- 524_27 -->
<g id="node50" class="node"><title>524_27</title>
<ellipse fill="#66cdaa" stroke="black" cx="869.305" cy="-452.844" rx="40.1111" ry="16.0303"/>
<text text-anchor="middle" x="869.305" y="-449.144" font-family="Times,serif" font-size="14.00">524_27</text>
</g>
<!-- 524_27&#45;&gt;524_26x524_27 -->
<g id="edge51" class="edge"><title>524_27&#45;&gt;524_26x524_27</title>
<path fill="none" stroke="black" d="M857.282,-437.153C849.553,-427.709 839.74,-415.719 833.036,-407.527"/>
<polygon fill="black" stroke="black" points="835.64,-405.183 826.598,-399.661 830.223,-409.616 835.64,-405.183"/>
</g>
<!-- 524_37&#45;&gt;524_10x524_37 -->
<g id="edge54" class="edge"><title>524_37&#45;&gt;524_10x524_37</title>
<path fill="none" stroke="black" d="M243.051,-214.945C230.256,-204.678 213.289,-191.063 202.843,-182.681"/>
<polygon fill="black" stroke="black" points="204.957,-179.89 194.968,-176.361 200.576,-185.349 204.957,-179.89"/>
</g>
</g>
</svg>
