<?xml version="1.0" encoding="UTF-8" standalone="no"?>
<!DOCTYPE svg PUBLIC "-//W3C//DTD SVG 1.1//EN"
 "http://www.w3.org/Graphics/SVG/1.1/DTD/svg11.dtd">
<!-- Generated by graphviz version 2.38.0 (20140413.2041)
 -->
<!-- Title: %3 Pages: 1 -->
<svg width="5019pt" height="477pt"
 viewBox="0.00 0.00 5019.26 477.11" xmlns="http://www.w3.org/2000/svg" xmlns:xlink="http://www.w3.org/1999/xlink">
<g id="graph0" class="graph" transform="scale(1 1) rotate(0) translate(4 473.108)">
<title>%3</title>
<polygon fill="white" stroke="none" points="-4,4 -4,-473.108 5015.26,-473.108 5015.26,4 -4,4"/>
<!-- 26_BCR_BCR18868 -->
<g id="node1" class="node"><title>26_BCR_BCR18868</title>
<ellipse fill="dimgrey" stroke="black" cx="701.631" cy="-118.263" rx="92.7622" ry="16.0303"/>
<text text-anchor="middle" x="701.631" y="-114.563" font-family="Times,serif" font-size="14.00">26_BCR_BCR18868</text>
</g>
<!-- 26_BCR_BCR18854x26_BCR_BCR18845 -->
<g id="node2" class="node"><title>26_BCR_BCR18854x26_BCR_BCR18845</title>
<polygon fill="none" stroke="black" points="877.631,-177.527 874.131,-174.027 877.631,-170.527 881.131,-174.027 877.631,-177.527"/>
</g>
<!-- 26_BCR_BCR18854x26_BCR_BCR18845&#45;&gt;26_BCR_BCR18868 -->
<g id="edge1" class="edge"><title>26_BCR_BCR18854x26_BCR_BCR18845&#45;&gt;26_BCR_BCR18868</title>
<path fill="none" stroke="black" d="M875.654,-172.423C863.878,-168.826 801.899,-149.893 755.234,-135.638"/>
<polygon fill="black" stroke="black" points="756.119,-132.248 745.533,-132.674 754.074,-138.943 756.119,-132.248"/>
</g>
<!-- 26_BCR_BCR18867 -->
<g id="node3" class="node"><title>26_BCR_BCR18867</title>
<polygon fill="white" stroke="black" points="943.131,-129.763 812.131,-129.763 812.131,-106.763 943.131,-106.763 943.131,-129.763"/>
<text text-anchor="middle" x="877.631" y="-114.563" font-family="Times,serif" font-size="14.00">26_BCR_BCR18867</text>
</g>
<!-- 26_BCR_BCR18854x26_BCR_BCR18845&#45;&gt;26_BCR_BCR18867 -->
<g id="edge2" class="edge"><title>26_BCR_BCR18854x26_BCR_BCR18845&#45;&gt;26_BCR_BCR18867</title>
<path fill="none" stroke="black" d="M877.631,-170.434C877.631,-164.966 877.631,-151.801 877.631,-140.194"/>
<polygon fill="black" stroke="black" points="881.131,-139.845 877.631,-129.845 874.131,-139.845 881.131,-139.845"/>
</g>
<!-- 26_BCR_BCR18853 -->
<g id="node17" class="node"><title>26_BCR_BCR18853</title>
<ellipse fill="dimgrey" stroke="black" cx="1053.63" cy="-118.263" rx="92.7622" ry="16.0303"/>
<text text-anchor="middle" x="1053.63" y="-114.563" font-family="Times,serif" font-size="14.00">26_BCR_BCR18853</text>
</g>
<!-- 26_BCR_BCR18854x26_BCR_BCR18845&#45;&gt;26_BCR_BCR18853 -->
<g id="edge13" class="edge"><title>26_BCR_BCR18854x26_BCR_BCR18845&#45;&gt;26_BCR_BCR18853</title>
<path fill="none" stroke="black" d="M879.608,-172.423C891.384,-168.826 953.363,-149.893 1000.03,-135.638"/>
<polygon fill="black" stroke="black" points="1001.19,-138.943 1009.73,-132.674 999.143,-132.248 1001.19,-138.943"/>
</g>
<!-- 26_BCR_BCR18846 -->
<g id="node4" class="node"><title>26_BCR_BCR18846</title>
<polygon fill="dimgrey" stroke="black" points="3197.13,-241.29 3066.13,-241.29 3066.13,-218.29 3197.13,-218.29 3197.13,-241.29"/>
<text text-anchor="middle" x="3131.63" y="-226.09" font-family="Times,serif" font-size="14.00">26_BCR_BCR18846</text>
</g>
<!-- 26_BCR_BCR18825x26_BCR_BCR18824 -->
<g id="node5" class="node"><title>26_BCR_BCR18825x26_BCR_BCR18824</title>
<polygon fill="none" stroke="black" points="2352.63,-289.054 2349.13,-285.554 2352.63,-282.054 2356.13,-285.554 2352.63,-289.054"/>
</g>
<!-- 26_BCR_BCR18825x26_BCR_BCR18824&#45;&gt;26_BCR_BCR18846 -->
<g id="edge3" class="edge"><title>26_BCR_BCR18825x26_BCR_BCR18824&#45;&gt;26_BCR_BCR18846</title>
<path fill="none" stroke="black" d="M2355.18,-284.562C2389.37,-284.636 2761.02,-284.525 3057.63,-246.054 3063.55,-245.286 3069.7,-244.31 3075.81,-243.223"/>
<polygon fill="black" stroke="black" points="3076.84,-246.591 3086.02,-241.306 3075.55,-239.712 3076.84,-246.591"/>
</g>
<!-- 26_BCR_BCR18844 -->
<g id="node6" class="node"><title>26_BCR_BCR18844</title>
<ellipse fill="white" stroke="black" cx="3307.63" cy="-229.79" rx="92.7622" ry="16.0303"/>
<text text-anchor="middle" x="3307.63" y="-226.09" font-family="Times,serif" font-size="14.00">26_BCR_BCR18844</text>
</g>
<!-- 26_BCR_BCR18825x26_BCR_BCR18824&#45;&gt;26_BCR_BCR18844 -->
<g id="edge4" class="edge"><title>26_BCR_BCR18825x26_BCR_BCR18824&#45;&gt;26_BCR_BCR18844</title>
<path fill="none" stroke="black" d="M2355.22,-284.541C2393.3,-284.334 2844.14,-281.164 3205.63,-246.054 3214.53,-245.189 3223.84,-244.081 3233.06,-242.858"/>
<polygon fill="black" stroke="black" points="3233.57,-246.32 3243.01,-241.491 3232.62,-239.385 3233.57,-246.32"/>
</g>
<!-- 26_BCR_BCR18804 -->
<g id="node8" class="node"><title>26_BCR_BCR18804</title>
<ellipse fill="dimgrey" stroke="black" cx="308.631" cy="-229.79" rx="92.7622" ry="16.0303"/>
<text text-anchor="middle" x="308.631" y="-226.09" font-family="Times,serif" font-size="14.00">26_BCR_BCR18804</text>
</g>
<!-- 26_BCR_BCR18825x26_BCR_BCR18824&#45;&gt;26_BCR_BCR18804 -->
<g id="edge6" class="edge"><title>26_BCR_BCR18825x26_BCR_BCR18824&#45;&gt;26_BCR_BCR18804</title>
<path fill="none" stroke="black" d="M2349.77,-284.542C2277.08,-284.234 840.292,-277.762 423.631,-246.054 411.429,-245.125 398.542,-243.778 385.981,-242.262"/>
<polygon fill="black" stroke="black" points="386.354,-238.782 375.997,-241.016 385.487,-245.728 386.354,-238.782"/>
</g>
<!-- 26_BCR_BCR18802 -->
<g id="node34" class="node"><title>26_BCR_BCR18802</title>
<ellipse fill="dimgrey" stroke="black" cx="681.631" cy="-229.79" rx="92.7622" ry="16.0303"/>
<text text-anchor="middle" x="681.631" y="-226.09" font-family="Times,serif" font-size="14.00">26_BCR_BCR18802</text>
</g>
<!-- 26_BCR_BCR18825x26_BCR_BCR18824&#45;&gt;26_BCR_BCR18802 -->
<g id="edge26" class="edge"><title>26_BCR_BCR18825x26_BCR_BCR18824&#45;&gt;26_BCR_BCR18802</title>
<path fill="none" stroke="black" d="M2349.94,-284.532C2286.74,-284 1126.42,-273.906 789.631,-246.054 779.083,-245.182 767.994,-243.963 757.101,-242.59"/>
<polygon fill="black" stroke="black" points="757.544,-239.118 747.174,-241.292 756.636,-246.059 757.544,-239.118"/>
</g>
<!-- 26_BCR_BCR18803 -->
<g id="node37" class="node"><title>26_BCR_BCR18803</title>
<ellipse fill="dimgrey" stroke="black" cx="1392.63" cy="-229.79" rx="92.7622" ry="16.0303"/>
<text text-anchor="middle" x="1392.63" y="-226.09" font-family="Times,serif" font-size="14.00">26_BCR_BCR18803</text>
</g>
<!-- 26_BCR_BCR18825x26_BCR_BCR18824&#45;&gt;26_BCR_BCR18803 -->
<g id="edge30" class="edge"><title>26_BCR_BCR18825x26_BCR_BCR18824&#45;&gt;26_BCR_BCR18803</title>
<path fill="none" stroke="black" d="M2350.03,-284.544C2311.68,-284.372 1857.64,-281.617 1493.63,-246.054 1484.98,-245.208 1475.93,-244.126 1466.96,-242.93"/>
<polygon fill="black" stroke="black" points="1467.28,-239.44 1456.89,-241.537 1466.32,-246.374 1467.28,-239.44"/>
</g>
<!-- 26_BCR_BCR18837 -->
<g id="node40" class="node"><title>26_BCR_BCR18837</title>
<polygon fill="white" stroke="black" points="1783.13,-241.29 1652.13,-241.29 1652.13,-218.29 1783.13,-218.29 1783.13,-241.29"/>
<text text-anchor="middle" x="1717.63" y="-226.09" font-family="Times,serif" font-size="14.00">26_BCR_BCR18837</text>
</g>
<!-- 26_BCR_BCR18825x26_BCR_BCR18824&#45;&gt;26_BCR_BCR18837 -->
<g id="edge34" class="edge"><title>26_BCR_BCR18825x26_BCR_BCR18824&#45;&gt;26_BCR_BCR18837</title>
<path fill="none" stroke="black" d="M2349.88,-284.508C2318.55,-283.961 2025.7,-278.077 1791.63,-246.054 1785.89,-245.268 1779.92,-244.298 1773.98,-243.232"/>
<polygon fill="black" stroke="black" points="1774.52,-239.773 1764.05,-241.361 1773.23,-246.652 1774.52,-239.773"/>
</g>
<!-- 26_BCR_BCR18845 -->
<g id="node47" class="node"><title>26_BCR_BCR18845</title>
<ellipse fill="dimgrey" stroke="black" cx="1040.63" cy="-229.79" rx="92.7622" ry="16.0303"/>
<text text-anchor="middle" x="1040.63" y="-226.09" font-family="Times,serif" font-size="14.00">26_BCR_BCR18845</text>
</g>
<!-- 26_BCR_BCR18825x26_BCR_BCR18824&#45;&gt;26_BCR_BCR18845 -->
<g id="edge42" class="edge"><title>26_BCR_BCR18825x26_BCR_BCR18824&#45;&gt;26_BCR_BCR18845</title>
<path fill="none" stroke="black" d="M2349.89,-284.593C2302.74,-285.242 1658,-293.114 1141.63,-246.054 1132.91,-245.259 1123.79,-244.202 1114.75,-243.014"/>
<polygon fill="black" stroke="black" points="1114.99,-239.514 1104.61,-241.624 1114.04,-246.45 1114.99,-239.514"/>
</g>
<!-- 26_BCR_BCR18838 -->
<g id="node50" class="node"><title>26_BCR_BCR18838</title>
<polygon fill="white" stroke="black" points="1634.13,-241.29 1503.13,-241.29 1503.13,-218.29 1634.13,-218.29 1634.13,-241.29"/>
<text text-anchor="middle" x="1568.63" y="-226.09" font-family="Times,serif" font-size="14.00">26_BCR_BCR18838</text>
</g>
<!-- 26_BCR_BCR18825x26_BCR_BCR18824&#45;&gt;26_BCR_BCR18838 -->
<g id="edge47" class="edge"><title>26_BCR_BCR18825x26_BCR_BCR18824&#45;&gt;26_BCR_BCR18838</title>
<path fill="none" stroke="black" d="M2350.07,-284.563C2315.63,-284.656 1941.34,-284.739 1642.63,-246.054 1636.71,-245.288 1630.56,-244.312 1624.45,-243.225"/>
<polygon fill="black" stroke="black" points="1624.72,-239.714 1614.24,-241.309 1623.42,-246.594 1624.72,-239.714"/>
</g>
<!-- 26_BCR_BCR18841 -->
<g id="node52" class="node"><title>26_BCR_BCR18841</title>
<ellipse fill="dimgrey" stroke="black" cx="2251.63" cy="-229.79" rx="92.7622" ry="16.0303"/>
<text text-anchor="middle" x="2251.63" y="-226.09" font-family="Times,serif" font-size="14.00">26_BCR_BCR18841</text>
</g>
<!-- 26_BCR_BCR18825x26_BCR_BCR18824&#45;&gt;26_BCR_BCR18841 -->
<g id="edge50" class="edge"><title>26_BCR_BCR18825x26_BCR_BCR18824&#45;&gt;26_BCR_BCR18841</title>
<path fill="none" stroke="black" d="M2350.88,-283.621C2343.37,-279.622 2313.13,-263.528 2287.99,-250.143"/>
<polygon fill="black" stroke="black" points="2289.48,-246.971 2279,-245.362 2286.19,-253.15 2289.48,-246.971"/>
</g>
<!-- 26_BCR_BCR18839 -->
<g id="node53" class="node"><title>26_BCR_BCR18839</title>
<ellipse fill="dimgrey" stroke="black" cx="2454.63" cy="-229.79" rx="92.7622" ry="16.0303"/>
<text text-anchor="middle" x="2454.63" y="-226.09" font-family="Times,serif" font-size="14.00">26_BCR_BCR18839</text>
</g>
<!-- 26_BCR_BCR18825x26_BCR_BCR18824&#45;&gt;26_BCR_BCR18839 -->
<g id="edge51" class="edge"><title>26_BCR_BCR18825x26_BCR_BCR18824&#45;&gt;26_BCR_BCR18839</title>
<path fill="none" stroke="black" d="M2354.4,-283.621C2361.99,-279.622 2392.52,-263.528 2417.92,-250.143"/>
<polygon fill="black" stroke="black" points="2419.77,-253.121 2426.99,-245.362 2416.51,-246.928 2419.77,-253.121"/>
</g>
<!-- 26_BCR_BCR18843 -->
<g id="node56" class="node"><title>26_BCR_BCR18843</title>
<polygon fill="white" stroke="black" points="2696.13,-241.29 2565.13,-241.29 2565.13,-218.29 2696.13,-218.29 2696.13,-241.29"/>
<text text-anchor="middle" x="2630.63" y="-226.09" font-family="Times,serif" font-size="14.00">26_BCR_BCR18843</text>
</g>
<!-- 26_BCR_BCR18825x26_BCR_BCR18824&#45;&gt;26_BCR_BCR18843 -->
<g id="edge54" class="edge"><title>26_BCR_BCR18825x26_BCR_BCR18824&#45;&gt;26_BCR_BCR18843</title>
<path fill="none" stroke="black" d="M2355.06,-284.112C2371.97,-281.029 2473.89,-262.393 2556.63,-246.054 2561.02,-245.187 2565.55,-244.28 2570.12,-243.359"/>
<polygon fill="black" stroke="black" points="2571,-246.752 2580.1,-241.332 2569.6,-239.892 2571,-246.752"/>
</g>
<!-- 26_BCR_BCR18842 -->
<g id="node57" class="node"><title>26_BCR_BCR18842</title>
<polygon fill="dimgrey" stroke="black" points="2845.13,-241.29 2714.13,-241.29 2714.13,-218.29 2845.13,-218.29 2845.13,-241.29"/>
<text text-anchor="middle" x="2779.63" y="-226.09" font-family="Times,serif" font-size="14.00">26_BCR_BCR18842</text>
</g>
<!-- 26_BCR_BCR18825x26_BCR_BCR18824&#45;&gt;26_BCR_BCR18842 -->
<g id="edge55" class="edge"><title>26_BCR_BCR18825x26_BCR_BCR18824&#45;&gt;26_BCR_BCR18842</title>
<path fill="none" stroke="black" d="M2355.16,-284.367C2378.55,-282.62 2559.46,-268.716 2704.63,-246.054 2710.05,-245.208 2715.66,-244.239 2721.28,-243.208"/>
<polygon fill="black" stroke="black" points="2722.16,-246.602 2731.33,-241.298 2720.86,-239.725 2722.16,-246.602"/>
</g>
<!-- 26_BCR_BCR18840 -->
<g id="node59" class="node"><title>26_BCR_BCR18840</title>
<ellipse fill="white" stroke="black" cx="2955.63" cy="-229.79" rx="92.7622" ry="16.0303"/>
<text text-anchor="middle" x="2955.63" y="-226.09" font-family="Times,serif" font-size="14.00">26_BCR_BCR18840</text>
</g>
<!-- 26_BCR_BCR18825x26_BCR_BCR18824&#45;&gt;26_BCR_BCR18840 -->
<g id="edge57" class="edge"><title>26_BCR_BCR18825x26_BCR_BCR18824&#45;&gt;26_BCR_BCR18840</title>
<path fill="none" stroke="black" d="M2355.08,-284.434C2382.99,-283.053 2643.86,-269.778 2853.63,-246.054 2862.23,-245.082 2871.21,-243.933 2880.13,-242.708"/>
<polygon fill="black" stroke="black" points="2880.74,-246.158 2890.15,-241.299 2879.76,-239.226 2880.74,-246.158"/>
</g>
<!-- 26_BCR_BCR18844cx26_BCR_BCR18844 -->
<g id="node7" class="node"><title>26_BCR_BCR18844cx26_BCR_BCR18844</title>
<polygon fill="none" stroke="black" points="2721.63,-177.527 2718.13,-174.027 2721.63,-170.527 2725.13,-174.027 2721.63,-177.527"/>
</g>
<!-- 26_BCR_BCR18844&#45;&gt;26_BCR_BCR18844cx26_BCR_BCR18844 -->
<g id="edge5" class="edge"><title>26_BCR_BCR18844&#45;&gt;26_BCR_BCR18844cx26_BCR_BCR18844</title>
<path fill="none" stroke="black" d="M3241.88,-218.268C3229.84,-216.536 3217.37,-214.871 3205.63,-213.527 3019.18,-192.186 2790.95,-178.845 2734.65,-175.731"/>
<polygon fill="black" stroke="black" points="2734.52,-172.219 2724.34,-175.17 2734.14,-179.208 2734.52,-172.219"/>
</g>
<!-- 26_BCR_BCR18863 -->
<g id="node60" class="node"><title>26_BCR_BCR18863</title>
<polygon fill="white" stroke="black" points="2787.13,-129.763 2656.13,-129.763 2656.13,-106.763 2787.13,-106.763 2787.13,-129.763"/>
<text text-anchor="middle" x="2721.63" y="-114.563" font-family="Times,serif" font-size="14.00">26_BCR_BCR18863</text>
</g>
<!-- 26_BCR_BCR18844cx26_BCR_BCR18844&#45;&gt;26_BCR_BCR18863 -->
<g id="edge58" class="edge"><title>26_BCR_BCR18844cx26_BCR_BCR18844&#45;&gt;26_BCR_BCR18863</title>
<path fill="none" stroke="black" d="M2721.63,-170.434C2721.63,-164.966 2721.63,-151.801 2721.63,-140.194"/>
<polygon fill="black" stroke="black" points="2725.13,-139.845 2721.63,-129.845 2718.13,-139.845 2725.13,-139.845"/>
</g>
<!-- 26_BCR_BCR18861x26_BCR_BCR18804 -->
<g id="node9" class="node"><title>26_BCR_BCR18861x26_BCR_BCR18804</title>
<polygon fill="none" stroke="black" points="105.631,-177.527 102.131,-174.027 105.631,-170.527 109.131,-174.027 105.631,-177.527"/>
</g>
<!-- 26_BCR_BCR18804&#45;&gt;26_BCR_BCR18861x26_BCR_BCR18804 -->
<g id="edge7" class="edge"><title>26_BCR_BCR18804&#45;&gt;26_BCR_BCR18861x26_BCR_BCR18804</title>
<path fill="none" stroke="black" d="M260.007,-215.913C212.832,-203.419 144.514,-185.325 117.379,-178.138"/>
<polygon fill="black" stroke="black" points="118.202,-174.736 107.639,-175.559 116.41,-181.502 118.202,-174.736"/>
</g>
<!-- 26_BCR_BCR18859 -->
<g id="node55" class="node"><title>26_BCR_BCR18859</title>
<ellipse fill="white" stroke="black" cx="92.631" cy="-118.263" rx="92.7622" ry="16.0303"/>
<text text-anchor="middle" x="92.631" y="-114.563" font-family="Times,serif" font-size="14.00">26_BCR_BCR18859</text>
</g>
<!-- 26_BCR_BCR18861x26_BCR_BCR18804&#45;&gt;26_BCR_BCR18859 -->
<g id="edge53" class="edge"><title>26_BCR_BCR18861x26_BCR_BCR18804&#45;&gt;26_BCR_BCR18859</title>
<path fill="none" stroke="black" d="M105.072,-170.717C103.953,-166.086 101.322,-155.206 98.7664,-144.637"/>
<polygon fill="black" stroke="black" points="102.143,-143.711 96.3911,-134.814 95.3395,-145.357 102.143,-143.711"/>
</g>
<!-- 26_BCR_BCR18864 -->
<g id="node10" class="node"><title>26_BCR_BCR18864</title>
<polygon fill="#66cdaa" stroke="black" points="1647.13,-129.763 1516.13,-129.763 1516.13,-106.763 1647.13,-106.763 1647.13,-129.763"/>
<text text-anchor="middle" x="1581.63" y="-114.563" font-family="Times,serif" font-size="14.00">26_BCR_BCR18864</text>
</g>
<!-- 26_BCR_BCR18851x26_BCR_BCR18803 -->
<g id="node11" class="node"><title>26_BCR_BCR18851x26_BCR_BCR18803</title>
<polygon fill="none" stroke="black" points="1392.63,-177.527 1389.13,-174.027 1392.63,-170.527 1396.13,-174.027 1392.63,-177.527"/>
</g>
<!-- 26_BCR_BCR18851x26_BCR_BCR18803&#45;&gt;26_BCR_BCR18864 -->
<g id="edge8" class="edge"><title>26_BCR_BCR18851x26_BCR_BCR18803&#45;&gt;26_BCR_BCR18864</title>
<path fill="none" stroke="black" d="M1394.75,-172.423C1408.33,-168.562 1484.01,-147.033 1534.8,-132.585"/>
<polygon fill="black" stroke="black" points="1535.94,-135.9 1544.6,-129.797 1534.02,-129.167 1535.94,-135.9"/>
</g>
<!-- 26_BCR_BCR18852 -->
<g id="node16" class="node"><title>26_BCR_BCR18852</title>
<ellipse fill="white" stroke="black" cx="1757.63" cy="-118.263" rx="92.7622" ry="16.0303"/>
<text text-anchor="middle" x="1757.63" y="-114.563" font-family="Times,serif" font-size="14.00">26_BCR_BCR18852</text>
</g>
<!-- 26_BCR_BCR18851x26_BCR_BCR18803&#45;&gt;26_BCR_BCR18852 -->
<g id="edge12" class="edge"><title>26_BCR_BCR18851x26_BCR_BCR18803&#45;&gt;26_BCR_BCR18852</title>
<path fill="none" stroke="black" d="M1395.22,-172.651C1415.29,-169.738 1547.9,-150.473 1655.63,-134.527 1663.5,-133.362 1671.71,-132.142 1679.91,-130.92"/>
<polygon fill="black" stroke="black" points="1680.5,-134.371 1689.88,-129.433 1679.47,-127.447 1680.5,-134.371"/>
</g>
<!-- 26_BCR_BCR18850 -->
<g id="node27" class="node"><title>26_BCR_BCR18850</title>
<ellipse fill="dimgrey" stroke="black" cx="1256.63" cy="-118.263" rx="92.7622" ry="16.0303"/>
<text text-anchor="middle" x="1256.63" y="-114.563" font-family="Times,serif" font-size="14.00">26_BCR_BCR18850</text>
</g>
<!-- 26_BCR_BCR18851x26_BCR_BCR18803&#45;&gt;26_BCR_BCR18850 -->
<g id="edge20" class="edge"><title>26_BCR_BCR18851x26_BCR_BCR18803&#45;&gt;26_BCR_BCR18850</title>
<path fill="none" stroke="black" d="M1390.71,-172.267C1381.06,-168.452 1336.98,-151.027 1301.96,-137.184"/>
<polygon fill="black" stroke="black" points="1302.95,-133.81 1292.36,-133.388 1300.37,-140.319 1302.95,-133.81"/>
</g>
<!-- 26_BCR_BCR18856 -->
<g id="node12" class="node"><title>26_BCR_BCR18856</title>
<ellipse fill="white" stroke="black" cx="295.631" cy="-118.263" rx="92.7622" ry="16.0303"/>
<text text-anchor="middle" x="295.631" y="-114.563" font-family="Times,serif" font-size="14.00">26_BCR_BCR18856</text>
</g>
<!-- 26_BCR_BCR18857x26_BCR_BCR18802 -->
<g id="node13" class="node"><title>26_BCR_BCR18857x26_BCR_BCR18802</title>
<polygon fill="none" stroke="black" points="498.631,-177.527 495.131,-174.027 498.631,-170.527 502.131,-174.027 498.631,-177.527"/>
</g>
<!-- 26_BCR_BCR18857x26_BCR_BCR18802&#45;&gt;26_BCR_BCR18856 -->
<g id="edge9" class="edge"><title>26_BCR_BCR18857x26_BCR_BCR18802&#45;&gt;26_BCR_BCR18856</title>
<path fill="none" stroke="black" d="M496.351,-172.423C482.491,-168.752 408.334,-149.112 354.179,-134.77"/>
<polygon fill="black" stroke="black" points="354.882,-131.335 344.319,-132.158 353.09,-138.102 354.882,-131.335"/>
</g>
<!-- 26_BCR_BCR18855 -->
<g id="node45" class="node"><title>26_BCR_BCR18855</title>
<ellipse fill="white" stroke="black" cx="498.631" cy="-118.263" rx="92.7622" ry="16.0303"/>
<text text-anchor="middle" x="498.631" y="-114.563" font-family="Times,serif" font-size="14.00">26_BCR_BCR18855</text>
</g>
<!-- 26_BCR_BCR18857x26_BCR_BCR18802&#45;&gt;26_BCR_BCR18855 -->
<g id="edge40" class="edge"><title>26_BCR_BCR18857x26_BCR_BCR18802&#45;&gt;26_BCR_BCR18855</title>
<path fill="none" stroke="black" d="M498.631,-170.434C498.631,-165.651 498.631,-154.981 498.631,-144.615"/>
<polygon fill="black" stroke="black" points="502.131,-144.58 498.631,-134.58 495.131,-144.58 502.131,-144.58"/>
</g>
<!-- 26_BCR_BCR18844c -->
<g id="node14" class="node"><title>26_BCR_BCR18844c</title>
<polygon fill="#66cdaa" stroke="black" points="2141.13,-241.29 2004.13,-241.29 2004.13,-218.29 2141.13,-218.29 2141.13,-241.29"/>
<text text-anchor="middle" x="2072.63" y="-226.09" font-family="Times,serif" font-size="14.00">26_BCR_BCR18844c</text>
</g>
<!-- 26_BCR_BCR18844c&#45;&gt;26_BCR_BCR18844cx26_BCR_BCR18844 -->
<g id="edge10" class="edge"><title>26_BCR_BCR18844c&#45;&gt;26_BCR_BCR18844cx26_BCR_BCR18844</title>
<path fill="none" stroke="black" d="M2120.94,-218.229C2130.42,-216.436 2140.31,-214.759 2149.63,-213.527 2372.09,-184.115 2646.37,-176.647 2708.65,-175.284"/>
<polygon fill="black" stroke="black" points="2708.9,-178.78 2718.83,-175.076 2708.76,-171.781 2708.9,-178.78"/>
</g>
<!-- 26_BCR_BCR18851 -->
<g id="node15" class="node"><title>26_BCR_BCR18851</title>
<polygon fill="white" stroke="black" points="1282.13,-241.29 1151.13,-241.29 1151.13,-218.29 1282.13,-218.29 1282.13,-241.29"/>
<text text-anchor="middle" x="1216.63" y="-226.09" font-family="Times,serif" font-size="14.00">26_BCR_BCR18851</text>
</g>
<!-- 26_BCR_BCR18851&#45;&gt;26_BCR_BCR18851x26_BCR_BCR18803 -->
<g id="edge11" class="edge"><title>26_BCR_BCR18851&#45;&gt;26_BCR_BCR18851x26_BCR_BCR18803</title>
<path fill="none" stroke="black" d="M1251.4,-218.168C1291.17,-206.021 1354.16,-186.779 1380.46,-178.744"/>
<polygon fill="black" stroke="black" points="1381.82,-181.988 1390.37,-175.719 1379.78,-175.293 1381.82,-181.988"/>
</g>
<!-- 26_BCR_BCR18854 -->
<g id="node18" class="node"><title>26_BCR_BCR18854</title>
<polygon fill="white" stroke="black" points="930.131,-241.29 799.131,-241.29 799.131,-218.29 930.131,-218.29 930.131,-241.29"/>
<text text-anchor="middle" x="864.631" y="-226.09" font-family="Times,serif" font-size="14.00">26_BCR_BCR18854</text>
</g>
<!-- 26_BCR_BCR18854&#45;&gt;26_BCR_BCR18854x26_BCR_BCR18845 -->
<g id="edge14" class="edge"><title>26_BCR_BCR18854&#45;&gt;26_BCR_BCR18854x26_BCR_BCR18845</title>
<path fill="none" stroke="black" d="M867.199,-218.168C869.356,-209.248 872.439,-196.501 874.693,-187.176"/>
<polygon fill="black" stroke="black" points="878.142,-187.805 877.09,-177.262 871.338,-186.16 878.142,-187.805"/>
</g>
<!-- 26_BCR_BCR18857 -->
<g id="node19" class="node"><title>26_BCR_BCR18857</title>
<polygon fill="white" stroke="black" points="564.131,-241.29 433.131,-241.29 433.131,-218.29 564.131,-218.29 564.131,-241.29"/>
<text text-anchor="middle" x="498.631" y="-226.09" font-family="Times,serif" font-size="14.00">26_BCR_BCR18857</text>
</g>
<!-- 26_BCR_BCR18857&#45;&gt;26_BCR_BCR18857x26_BCR_BCR18802 -->
<g id="edge15" class="edge"><title>26_BCR_BCR18857&#45;&gt;26_BCR_BCR18857x26_BCR_BCR18802</title>
<path fill="none" stroke="black" d="M498.631,-218.168C498.631,-209.416 498.631,-196.981 498.631,-187.707"/>
<polygon fill="black" stroke="black" points="502.131,-187.666 498.631,-177.666 495.131,-187.666 502.131,-187.666"/>
</g>
<!-- 26_BCR_BCR18860 -->
<g id="node20" class="node"><title>26_BCR_BCR18860</title>
<ellipse fill="white" stroke="black" cx="1893.63" cy="-229.79" rx="92.7622" ry="16.0303"/>
<text text-anchor="middle" x="1893.63" y="-226.09" font-family="Times,serif" font-size="14.00">26_BCR_BCR18860</text>
</g>
<!-- 26_BCR_BCR18838x26_BCR_BCR18860 -->
<g id="node21" class="node"><title>26_BCR_BCR18838x26_BCR_BCR18860</title>
<polygon fill="none" stroke="black" points="1893.63,-177.527 1890.13,-174.027 1893.63,-170.527 1897.13,-174.027 1893.63,-177.527"/>
</g>
<!-- 26_BCR_BCR18860&#45;&gt;26_BCR_BCR18838x26_BCR_BCR18860 -->
<g id="edge16" class="edge"><title>26_BCR_BCR18860&#45;&gt;26_BCR_BCR18838x26_BCR_BCR18860</title>
<path fill="none" stroke="black" d="M1893.63,-213.24C1893.63,-205.134 1893.63,-195.345 1893.63,-187.705"/>
<polygon fill="black" stroke="black" points="1897.13,-187.55 1893.63,-177.55 1890.13,-187.55 1897.13,-187.55"/>
</g>
<!-- 26_BCR_BCR18858 -->
<g id="node58" class="node"><title>26_BCR_BCR18858</title>
<ellipse fill="dimgrey" stroke="black" cx="1960.63" cy="-118.263" rx="92.7622" ry="16.0303"/>
<text text-anchor="middle" x="1960.63" y="-114.563" font-family="Times,serif" font-size="14.00">26_BCR_BCR18858</text>
</g>
<!-- 26_BCR_BCR18838x26_BCR_BCR18860&#45;&gt;26_BCR_BCR18858 -->
<g id="edge56" class="edge"><title>26_BCR_BCR18838x26_BCR_BCR18860&#45;&gt;26_BCR_BCR18858</title>
<path fill="none" stroke="black" d="M1895.29,-171.698C1900.68,-167.374 1918.26,-153.265 1933.83,-140.771"/>
<polygon fill="black" stroke="black" points="1936.1,-143.434 1941.71,-134.445 1931.72,-137.974 1936.1,-143.434"/>
</g>
<!-- 26_BCR_BCR18861 -->
<g id="node22" class="node"><title>26_BCR_BCR18861</title>
<polygon fill="dimgrey" stroke="black" points="171.131,-241.29 40.131,-241.29 40.131,-218.29 171.131,-218.29 171.131,-241.29"/>
<text text-anchor="middle" x="105.631" y="-226.09" font-family="Times,serif" font-size="14.00">26_BCR_BCR18861</text>
</g>
<!-- 26_BCR_BCR18861&#45;&gt;26_BCR_BCR18861x26_BCR_BCR18804 -->
<g id="edge17" class="edge"><title>26_BCR_BCR18861&#45;&gt;26_BCR_BCR18861x26_BCR_BCR18804</title>
<path fill="none" stroke="black" d="M105.631,-218.168C105.631,-209.416 105.631,-196.981 105.631,-187.707"/>
<polygon fill="black" stroke="black" points="109.131,-187.666 105.631,-177.666 102.131,-187.666 109.131,-187.666"/>
</g>
<!-- 26_BCR_BCR18865 -->
<g id="node23" class="node"><title>26_BCR_BCR18865</title>
<polygon fill="white" stroke="black" points="1498.13,-129.763 1367.13,-129.763 1367.13,-106.763 1498.13,-106.763 1498.13,-129.763"/>
<text text-anchor="middle" x="1432.63" y="-114.563" font-family="Times,serif" font-size="14.00">26_BCR_BCR18865</text>
</g>
<!-- 26_BCR_BCR18865x26_BCR_BCR18850 -->
<g id="node24" class="node"><title>26_BCR_BCR18865x26_BCR_BCR18850</title>
<polygon fill="none" stroke="black" points="1344.63,-66 1341.13,-62.5 1344.63,-59 1348.13,-62.5 1344.63,-66"/>
</g>
<!-- 26_BCR_BCR18865&#45;&gt;26_BCR_BCR18865x26_BCR_BCR18850 -->
<g id="edge18" class="edge"><title>26_BCR_BCR18865&#45;&gt;26_BCR_BCR18865x26_BCR_BCR18850</title>
<path fill="none" stroke="black" d="M1415.25,-106.642C1397.36,-95.7165 1370.09,-79.0523 1355.21,-69.9638"/>
<polygon fill="black" stroke="black" points="1356.97,-66.9379 1346.61,-64.7111 1353.32,-72.9113 1356.97,-66.9379"/>
</g>
<!-- 26_BCR_BCR18862 -->
<g id="node61" class="node"><title>26_BCR_BCR18862</title>
<polygon fill="white" stroke="black" points="1410.13,-23 1279.13,-23 1279.13,-0 1410.13,-0 1410.13,-23"/>
<text text-anchor="middle" x="1344.63" y="-7.8" font-family="Times,serif" font-size="14.00">26_BCR_BCR18862</text>
</g>
<!-- 26_BCR_BCR18865x26_BCR_BCR18850&#45;&gt;26_BCR_BCR18862 -->
<g id="edge59" class="edge"><title>26_BCR_BCR18865x26_BCR_BCR18850&#45;&gt;26_BCR_BCR18862</title>
<path fill="none" stroke="black" d="M1344.63,-58.8655C1344.63,-54.0189 1344.63,-43.2742 1344.63,-33.3477"/>
<polygon fill="black" stroke="black" points="1348.13,-33.2154 1344.63,-23.2154 1341.13,-33.2154 1348.13,-33.2154"/>
</g>
<!-- 26_BCR_BCR18866 -->
<g id="node25" class="node"><title>26_BCR_BCR18866</title>
<polygon fill="white" stroke="black" points="3948.13,-464.344 3817.13,-464.344 3817.13,-441.344 3948.13,-441.344 3948.13,-464.344"/>
<text text-anchor="middle" x="3882.63" y="-449.144" font-family="Times,serif" font-size="14.00">26_BCR_BCR18866</text>
</g>
<!-- 26_BCR_BCR18825 -->
<g id="node26" class="node"><title>26_BCR_BCR18825</title>
<polygon fill="white" stroke="black" points="2418.13,-352.817 2287.13,-352.817 2287.13,-329.817 2418.13,-329.817 2418.13,-352.817"/>
<text text-anchor="middle" x="2352.63" y="-337.617" font-family="Times,serif" font-size="14.00">26_BCR_BCR18825</text>
</g>
<!-- 26_BCR_BCR18825&#45;&gt;26_BCR_BCR18825x26_BCR_BCR18824 -->
<g id="edge19" class="edge"><title>26_BCR_BCR18825&#45;&gt;26_BCR_BCR18825x26_BCR_BCR18824</title>
<path fill="none" stroke="black" d="M2352.63,-329.695C2352.63,-320.943 2352.63,-308.507 2352.63,-299.234"/>
<polygon fill="black" stroke="black" points="2356.13,-299.192 2352.63,-289.192 2349.13,-299.193 2356.13,-299.192"/>
</g>
<!-- 26_BCR_BCR18850&#45;&gt;26_BCR_BCR18865x26_BCR_BCR18850 -->
<g id="edge21" class="edge"><title>26_BCR_BCR18850&#45;&gt;26_BCR_BCR18865x26_BCR_BCR18850</title>
<path fill="none" stroke="black" d="M1281.14,-102.287C1298.59,-91.6301 1321.15,-77.8443 1334.15,-69.9047"/>
<polygon fill="black" stroke="black" points="1336.26,-72.7144 1342.97,-64.5142 1332.61,-66.741 1336.26,-72.7144"/>
</g>
<!-- 26_BCR_BCR18826 -->
<g id="node28" class="node"><title>26_BCR_BCR18826</title>
<polygon fill="dimgrey" stroke="black" points="3711.13,-352.817 3580.13,-352.817 3580.13,-329.817 3711.13,-329.817 3711.13,-352.817"/>
<text text-anchor="middle" x="3645.63" y="-337.617" font-family="Times,serif" font-size="14.00">26_BCR_BCR18826</text>
</g>
<!-- 26_BCR_BCR18826x26_BCR_BCR18849 -->
<g id="node30" class="node"><title>26_BCR_BCR18826x26_BCR_BCR18849</title>
<polygon fill="none" stroke="black" points="3557.63,-289.054 3554.13,-285.554 3557.63,-282.054 3561.13,-285.554 3557.63,-289.054"/>
</g>
<!-- 26_BCR_BCR18826&#45;&gt;26_BCR_BCR18826x26_BCR_BCR18849 -->
<g id="edge23" class="edge"><title>26_BCR_BCR18826&#45;&gt;26_BCR_BCR18826x26_BCR_BCR18849</title>
<path fill="none" stroke="black" d="M3628.25,-329.695C3610.36,-318.77 3583.09,-302.106 3568.21,-293.018"/>
<polygon fill="black" stroke="black" points="3569.97,-289.992 3559.61,-287.765 3566.32,-295.965 3569.97,-289.992"/>
</g>
<!-- 26_BCR_BCR18818x26_BCR_BCR18817 -->
<g id="node29" class="node"><title>26_BCR_BCR18818x26_BCR_BCR18817</title>
<polygon fill="none" stroke="black" points="3645.63,-400.581 3642.13,-397.081 3645.63,-393.581 3649.13,-397.081 3645.63,-400.581"/>
</g>
<!-- 26_BCR_BCR18818x26_BCR_BCR18817&#45;&gt;26_BCR_BCR18826 -->
<g id="edge22" class="edge"><title>26_BCR_BCR18818x26_BCR_BCR18817&#45;&gt;26_BCR_BCR18826</title>
<path fill="none" stroke="black" d="M3645.63,-393.488C3645.63,-388.02 3645.63,-374.854 3645.63,-363.248"/>
<polygon fill="black" stroke="black" points="3649.13,-362.899 3645.63,-352.899 3642.13,-362.899 3649.13,-362.899"/>
</g>
<!-- 26_BCR_BCR18822 -->
<g id="node43" class="node"><title>26_BCR_BCR18822</title>
<polygon fill="dimgrey" stroke="black" points="4287.13,-352.817 4156.13,-352.817 4156.13,-329.817 4287.13,-329.817 4287.13,-352.817"/>
<text text-anchor="middle" x="4221.63" y="-337.617" font-family="Times,serif" font-size="14.00">26_BCR_BCR18822</text>
</g>
<!-- 26_BCR_BCR18818x26_BCR_BCR18817&#45;&gt;26_BCR_BCR18822 -->
<g id="edge37" class="edge"><title>26_BCR_BCR18818x26_BCR_BCR18817&#45;&gt;26_BCR_BCR18822</title>
<path fill="none" stroke="black" d="M3648.09,-396.013C3676.13,-395.213 3938.17,-387.093 4147.63,-357.581 4153.37,-356.772 4159.34,-355.787 4165.28,-354.711"/>
<polygon fill="black" stroke="black" points="4166.03,-358.131 4175.21,-352.83 4164.73,-351.253 4166.03,-358.131"/>
</g>
<!-- 26_BCR_BCR18824 -->
<g id="node48" class="node"><title>26_BCR_BCR18824</title>
<ellipse fill="white" stroke="black" cx="2928.63" cy="-341.317" rx="92.7622" ry="16.0303"/>
<text text-anchor="middle" x="2928.63" y="-337.617" font-family="Times,serif" font-size="14.00">26_BCR_BCR18824</text>
</g>
<!-- 26_BCR_BCR18818x26_BCR_BCR18817&#45;&gt;26_BCR_BCR18824 -->
<g id="edge44" class="edge"><title>26_BCR_BCR18818x26_BCR_BCR18817&#45;&gt;26_BCR_BCR18824</title>
<path fill="none" stroke="black" d="M3643.03,-395.886C3607.08,-393.19 3206.85,-363.179 3021.64,-349.292"/>
<polygon fill="black" stroke="black" points="3021.88,-345.8 3011.64,-348.542 3021.35,-352.78 3021.88,-345.8"/>
</g>
<!-- 26_BCR_BCR18848 -->
<g id="node31" class="node"><title>26_BCR_BCR18848</title>
<polygon fill="dimgrey" stroke="black" points="3549.13,-241.29 3418.13,-241.29 3418.13,-218.29 3549.13,-218.29 3549.13,-241.29"/>
<text text-anchor="middle" x="3483.63" y="-226.09" font-family="Times,serif" font-size="14.00">26_BCR_BCR18848</text>
</g>
<!-- 26_BCR_BCR18826x26_BCR_BCR18849&#45;&gt;26_BCR_BCR18848 -->
<g id="edge24" class="edge"><title>26_BCR_BCR18826x26_BCR_BCR18849&#45;&gt;26_BCR_BCR18848</title>
<path fill="none" stroke="black" d="M3556.09,-283.431C3549.75,-278.828 3525.22,-261.003 3506.43,-247.357"/>
<polygon fill="black" stroke="black" points="3508.44,-244.491 3498.3,-241.444 3504.33,-250.154 3508.44,-244.491"/>
</g>
<!-- 26_BCR_BCR18847 -->
<g id="node54" class="node"><title>26_BCR_BCR18847</title>
<polygon fill="white" stroke="black" points="3698.13,-241.29 3567.13,-241.29 3567.13,-218.29 3698.13,-218.29 3698.13,-241.29"/>
<text text-anchor="middle" x="3632.63" y="-226.09" font-family="Times,serif" font-size="14.00">26_BCR_BCR18847</text>
</g>
<!-- 26_BCR_BCR18826x26_BCR_BCR18849&#45;&gt;26_BCR_BCR18847 -->
<g id="edge52" class="edge"><title>26_BCR_BCR18826x26_BCR_BCR18849&#45;&gt;26_BCR_BCR18847</title>
<path fill="none" stroke="black" d="M3559.2,-283.431C3565.62,-278.828 3590.48,-261.003 3609.52,-247.357"/>
<polygon fill="black" stroke="black" points="3611.68,-250.115 3617.77,-241.444 3607.6,-244.426 3611.68,-250.115"/>
</g>
<!-- 26_BCR_BCR18835 -->
<g id="node32" class="node"><title>26_BCR_BCR18835</title>
<ellipse fill="white" stroke="black" cx="3808.63" cy="-229.79" rx="92.7622" ry="16.0303"/>
<text text-anchor="middle" x="3808.63" y="-226.09" font-family="Times,serif" font-size="14.00">26_BCR_BCR18835</text>
</g>
<!-- 26_BCR_BCR18822x26_BCR_BCR18823 -->
<g id="node33" class="node"><title>26_BCR_BCR18822x26_BCR_BCR18823</title>
<polygon fill="none" stroke="black" points="4221.63,-289.054 4218.13,-285.554 4221.63,-282.054 4225.13,-285.554 4221.63,-289.054"/>
</g>
<!-- 26_BCR_BCR18822x26_BCR_BCR18823&#45;&gt;26_BCR_BCR18835 -->
<g id="edge25" class="edge"><title>26_BCR_BCR18822x26_BCR_BCR18823&#45;&gt;26_BCR_BCR18835</title>
<path fill="none" stroke="black" d="M4219.13,-284.272C4197.4,-281.814 4038.32,-263.714 3909.63,-246.054 3901.76,-244.974 3893.55,-243.805 3885.37,-242.61"/>
<polygon fill="black" stroke="black" points="3885.82,-239.139 3875.42,-241.146 3884.8,-246.065 3885.82,-239.139"/>
</g>
<!-- 26_BCR_BCR18834 -->
<g id="node35" class="node"><title>26_BCR_BCR18834</title>
<polygon fill="white" stroke="black" points="4050.13,-241.29 3919.13,-241.29 3919.13,-218.29 4050.13,-218.29 4050.13,-241.29"/>
<text text-anchor="middle" x="3984.63" y="-226.09" font-family="Times,serif" font-size="14.00">26_BCR_BCR18834</text>
</g>
<!-- 26_BCR_BCR18822x26_BCR_BCR18823&#45;&gt;26_BCR_BCR18834 -->
<g id="edge28" class="edge"><title>26_BCR_BCR18822x26_BCR_BCR18823&#45;&gt;26_BCR_BCR18834</title>
<path fill="none" stroke="black" d="M4219.58,-284.089C4204.19,-280.596 4105.47,-258.202 4040.99,-243.574"/>
<polygon fill="black" stroke="black" points="4041.48,-240.097 4030.95,-241.298 4039.93,-246.923 4041.48,-240.097"/>
</g>
<!-- 26_BCR_BCR18832 -->
<g id="node41" class="node"><title>26_BCR_BCR18832</title>
<polygon fill="white" stroke="black" points="4199.13,-241.29 4068.13,-241.29 4068.13,-218.29 4199.13,-218.29 4199.13,-241.29"/>
<text text-anchor="middle" x="4133.63" y="-226.09" font-family="Times,serif" font-size="14.00">26_BCR_BCR18832</text>
</g>
<!-- 26_BCR_BCR18822x26_BCR_BCR18823&#45;&gt;26_BCR_BCR18832 -->
<g id="edge35" class="edge"><title>26_BCR_BCR18822x26_BCR_BCR18823&#45;&gt;26_BCR_BCR18832</title>
<path fill="none" stroke="black" d="M4219.79,-283.431C4212.16,-278.766 4182.29,-260.519 4159.85,-246.806"/>
<polygon fill="black" stroke="black" points="4161.43,-243.671 4151.07,-241.444 4157.78,-249.645 4161.43,-243.671"/>
</g>
<!-- 26_BCR_BCR18830 -->
<g id="node42" class="node"><title>26_BCR_BCR18830</title>
<ellipse fill="white" stroke="black" cx="4309.63" cy="-229.79" rx="92.7622" ry="16.0303"/>
<text text-anchor="middle" x="4309.63" y="-226.09" font-family="Times,serif" font-size="14.00">26_BCR_BCR18830</text>
</g>
<!-- 26_BCR_BCR18822x26_BCR_BCR18823&#45;&gt;26_BCR_BCR18830 -->
<g id="edge36" class="edge"><title>26_BCR_BCR18822x26_BCR_BCR18823&#45;&gt;26_BCR_BCR18830</title>
<path fill="none" stroke="black" d="M4223.47,-283.431C4230.37,-279.216 4255.41,-263.917 4276.73,-250.89"/>
<polygon fill="black" stroke="black" points="4278.57,-253.871 4285.28,-245.671 4274.92,-247.897 4278.57,-253.871"/>
</g>
<!-- 26_BCR_BCR18829 -->
<g id="node46" class="node"><title>26_BCR_BCR18829</title>
<ellipse fill="dimgrey" stroke="black" cx="4512.63" cy="-229.79" rx="92.7622" ry="16.0303"/>
<text text-anchor="middle" x="4512.63" y="-226.09" font-family="Times,serif" font-size="14.00">26_BCR_BCR18829</text>
</g>
<!-- 26_BCR_BCR18822x26_BCR_BCR18823&#45;&gt;26_BCR_BCR18829 -->
<g id="edge41" class="edge"><title>26_BCR_BCR18822x26_BCR_BCR18823&#45;&gt;26_BCR_BCR18829</title>
<path fill="none" stroke="black" d="M4223.81,-284.152C4241.41,-280.899 4362,-258.621 4441.69,-243.897"/>
<polygon fill="black" stroke="black" points="4442.48,-247.31 4451.68,-242.051 4441.21,-240.426 4442.48,-247.31"/>
</g>
<!-- 26_BCR_BCR18831 -->
<g id="node49" class="node"><title>26_BCR_BCR18831</title>
<ellipse fill="dimgrey" stroke="black" cx="4715.63" cy="-229.79" rx="92.7622" ry="16.0303"/>
<text text-anchor="middle" x="4715.63" y="-226.09" font-family="Times,serif" font-size="14.00">26_BCR_BCR18831</text>
</g>
<!-- 26_BCR_BCR18822x26_BCR_BCR18823&#45;&gt;26_BCR_BCR18831 -->
<g id="edge46" class="edge"><title>26_BCR_BCR18822x26_BCR_BCR18823&#45;&gt;26_BCR_BCR18831</title>
<path fill="none" stroke="black" d="M4224.13,-284.36C4248.81,-282.432 4451.36,-266.374 4614.63,-246.054 4622.79,-245.038 4631.31,-243.89 4639.78,-242.691"/>
<polygon fill="black" stroke="black" points="4640.29,-246.154 4649.69,-241.264 4639.29,-239.225 4640.29,-246.154"/>
</g>
<!-- 26_BCR_BCR18833 -->
<g id="node51" class="node"><title>26_BCR_BCR18833</title>
<ellipse fill="dimgrey" stroke="black" cx="4918.63" cy="-229.79" rx="92.7622" ry="16.0303"/>
<text text-anchor="middle" x="4918.63" y="-226.09" font-family="Times,serif" font-size="14.00">26_BCR_BCR18833</text>
</g>
<!-- 26_BCR_BCR18822x26_BCR_BCR18823&#45;&gt;26_BCR_BCR18833 -->
<g id="edge49" class="edge"><title>26_BCR_BCR18822x26_BCR_BCR18823&#45;&gt;26_BCR_BCR18833</title>
<path fill="none" stroke="black" d="M4224.15,-284.475C4255.18,-283.482 4567.12,-273.024 4817.63,-246.054 4826.15,-245.137 4835.05,-244.022 4843.89,-242.817"/>
<polygon fill="black" stroke="black" points="4844.39,-246.28 4853.81,-241.424 4843.42,-239.348 4844.39,-246.28"/>
</g>
<!-- 26_BCR_BCR18802&#45;&gt;26_BCR_BCR18857x26_BCR_BCR18802 -->
<g id="edge27" class="edge"><title>26_BCR_BCR18802&#45;&gt;26_BCR_BCR18857x26_BCR_BCR18802</title>
<path fill="none" stroke="black" d="M636.395,-215.501C594.574,-203.214 535.254,-185.786 510.352,-178.47"/>
<polygon fill="black" stroke="black" points="511.323,-175.108 500.741,-175.647 509.349,-181.824 511.323,-175.108"/>
</g>
<!-- 26_BCR_BCR18849 -->
<g id="node36" class="node"><title>26_BCR_BCR18849</title>
<ellipse fill="white" stroke="black" cx="3469.63" cy="-341.317" rx="92.7622" ry="16.0303"/>
<text text-anchor="middle" x="3469.63" y="-337.617" font-family="Times,serif" font-size="14.00">26_BCR_BCR18849</text>
</g>
<!-- 26_BCR_BCR18849&#45;&gt;26_BCR_BCR18826x26_BCR_BCR18849 -->
<g id="edge29" class="edge"><title>26_BCR_BCR18849&#45;&gt;26_BCR_BCR18826x26_BCR_BCR18849</title>
<path fill="none" stroke="black" d="M3494.14,-325.341C3511.59,-314.684 3534.15,-300.898 3547.15,-292.958"/>
<polygon fill="black" stroke="black" points="3549.26,-295.768 3555.97,-287.568 3545.61,-289.795 3549.26,-295.768"/>
</g>
<!-- 26_BCR_BCR18803&#45;&gt;26_BCR_BCR18851x26_BCR_BCR18803 -->
<g id="edge31" class="edge"><title>26_BCR_BCR18803&#45;&gt;26_BCR_BCR18851x26_BCR_BCR18803</title>
<path fill="none" stroke="black" d="M1392.63,-213.24C1392.63,-205.134 1392.63,-195.345 1392.63,-187.705"/>
<polygon fill="black" stroke="black" points="1396.13,-187.55 1392.63,-177.55 1389.13,-187.55 1396.13,-187.55"/>
</g>
<!-- 26_BCR_BCR18817 -->
<g id="node38" class="node"><title>26_BCR_BCR18817</title>
<ellipse fill="dimgrey" stroke="black" cx="3557.63" cy="-452.844" rx="92.7622" ry="16.0303"/>
<text text-anchor="middle" x="3557.63" y="-449.144" font-family="Times,serif" font-size="14.00">26_BCR_BCR18817</text>
</g>
<!-- 26_BCR_BCR18817&#45;&gt;26_BCR_BCR18818x26_BCR_BCR18817 -->
<g id="edge32" class="edge"><title>26_BCR_BCR18817&#45;&gt;26_BCR_BCR18818x26_BCR_BCR18817</title>
<path fill="none" stroke="black" d="M3582.14,-436.868C3599.59,-426.211 3622.15,-412.425 3635.15,-404.485"/>
<polygon fill="black" stroke="black" points="3637.26,-407.295 3643.97,-399.095 3633.61,-401.322 3637.26,-407.295"/>
</g>
<!-- 26_BCR_BCR18818 -->
<g id="node39" class="node"><title>26_BCR_BCR18818</title>
<polygon fill="white" stroke="black" points="3799.13,-464.344 3668.13,-464.344 3668.13,-441.344 3799.13,-441.344 3799.13,-464.344"/>
<text text-anchor="middle" x="3733.63" y="-449.144" font-family="Times,serif" font-size="14.00">26_BCR_BCR18818</text>
</g>
<!-- 26_BCR_BCR18818&#45;&gt;26_BCR_BCR18818x26_BCR_BCR18817 -->
<g id="edge33" class="edge"><title>26_BCR_BCR18818&#45;&gt;26_BCR_BCR18818x26_BCR_BCR18817</title>
<path fill="none" stroke="black" d="M3716.25,-441.222C3698.36,-430.297 3671.09,-413.633 3656.21,-404.545"/>
<polygon fill="black" stroke="black" points="3657.97,-401.519 3647.61,-399.292 3654.32,-407.492 3657.97,-401.519"/>
</g>
<!-- 26_BCR_BCR18822&#45;&gt;26_BCR_BCR18822x26_BCR_BCR18823 -->
<g id="edge38" class="edge"><title>26_BCR_BCR18822&#45;&gt;26_BCR_BCR18822x26_BCR_BCR18823</title>
<path fill="none" stroke="black" d="M4221.63,-329.695C4221.63,-320.943 4221.63,-308.507 4221.63,-299.234"/>
<polygon fill="black" stroke="black" points="4225.13,-299.192 4221.63,-289.192 4218.13,-299.193 4225.13,-299.192"/>
</g>
<!-- 26_BCR_BCR18823 -->
<g id="node44" class="node"><title>26_BCR_BCR18823</title>
<ellipse fill="white" stroke="black" cx="4045.63" cy="-341.317" rx="92.7622" ry="16.0303"/>
<text text-anchor="middle" x="4045.63" y="-337.617" font-family="Times,serif" font-size="14.00">26_BCR_BCR18823</text>
</g>
<!-- 26_BCR_BCR18823&#45;&gt;26_BCR_BCR18822x26_BCR_BCR18823 -->
<g id="edge39" class="edge"><title>26_BCR_BCR18823&#45;&gt;26_BCR_BCR18822x26_BCR_BCR18823</title>
<path fill="none" stroke="black" d="M4089.59,-326.889C4129.45,-314.713 4185.56,-297.574 4209.76,-290.181"/>
<polygon fill="black" stroke="black" points="4211.07,-293.439 4219.61,-287.17 4209.03,-286.745 4211.07,-293.439"/>
</g>
<!-- 26_BCR_BCR18845&#45;&gt;26_BCR_BCR18854x26_BCR_BCR18845 -->
<g id="edge43" class="edge"><title>26_BCR_BCR18845&#45;&gt;26_BCR_BCR18854x26_BCR_BCR18845</title>
<path fill="none" stroke="black" d="M999.077,-215.084C962.638,-203.065 912.045,-186.378 889.403,-178.91"/>
<polygon fill="black" stroke="black" points="890.385,-175.548 879.792,-175.74 888.192,-182.196 890.385,-175.548"/>
</g>
<!-- 26_BCR_BCR18824&#45;&gt;26_BCR_BCR18825x26_BCR_BCR18824 -->
<g id="edge45" class="edge"><title>26_BCR_BCR18824&#45;&gt;26_BCR_BCR18825x26_BCR_BCR18824</title>
<path fill="none" stroke="black" d="M2849.15,-332.898C2709.41,-319.855 2428.52,-293.638 2365.41,-287.747"/>
<polygon fill="black" stroke="black" points="2365.46,-284.236 2355.18,-286.792 2364.81,-291.206 2365.46,-284.236"/>
</g>
<!-- 26_BCR_BCR18838&#45;&gt;26_BCR_BCR18838x26_BCR_BCR18860 -->
<g id="edge48" class="edge"><title>26_BCR_BCR18838&#45;&gt;26_BCR_BCR18838x26_BCR_BCR18860</title>
<path fill="none" stroke="black" d="M1617.92,-218.257C1626.16,-216.602 1634.63,-214.965 1642.63,-213.527 1733.83,-197.138 1844.48,-181.708 1881.16,-176.71"/>
<polygon fill="black" stroke="black" points="1881.71,-180.167 1891.15,-175.358 1880.77,-173.23 1881.71,-180.167"/>
</g>
</g>
</svg>
