<?xml version="1.0" encoding="UTF-8" standalone="no"?>
<!DOCTYPE svg PUBLIC "-//W3C//DTD SVG 1.1//EN"
 "http://www.w3.org/Graphics/SVG/1.1/DTD/svg11.dtd">
<!-- Generated by graphviz version 2.38.0 (20140413.2041)
 -->
<!-- Title: %3 Pages: 1 -->
<svg width="622pt" height="264pt"
 viewBox="0.00 0.00 622.04 263.58" xmlns="http://www.w3.org/2000/svg" xmlns:xlink="http://www.w3.org/1999/xlink">
<g id="graph0" class="graph" transform="scale(1 1) rotate(0) translate(4 259.581)">
<title>%3</title>
<polygon fill="white" stroke="none" points="-4,4 -4,-259.581 618.037,-259.581 618.037,4 -4,4"/>
<!-- 25_75_2443 -->
<g id="node1" class="node"><title>25_75_2443</title>
<ellipse fill="#66cdaa" stroke="black" cx="59.397" cy="-239.317" rx="59.2941" ry="16.0303"/>
<text text-anchor="middle" x="59.397" y="-235.617" font-family="Times,serif" font-size="14.00">25_75_2443</text>
</g>
<!-- 25_75_2281 -->
<g id="node2" class="node"><title>25_75_2281</title>
<polygon fill="#66cdaa" stroke="black" points="220.397,-250.817 136.397,-250.817 136.397,-227.817 220.397,-227.817 220.397,-250.817"/>
<text text-anchor="middle" x="178.397" y="-235.617" font-family="Times,serif" font-size="14.00">25_75_2281</text>
</g>
<!-- 25_75_2281x25_75_2281a -->
<g id="node3" class="node"><title>25_75_2281x25_75_2281a</title>
<polygon fill="none" stroke="black" points="240.397,-187.054 236.897,-183.554 240.397,-180.054 243.897,-183.554 240.397,-187.054"/>
</g>
<!-- 25_75_2281&#45;&gt;25_75_2281x25_75_2281a -->
<g id="edge1" class="edge"><title>25_75_2281&#45;&gt;25_75_2281x25_75_2281a</title>
<path fill="none" stroke="black" d="M190.646,-227.695C202.627,-217.306 220.594,-201.726 231.34,-192.407"/>
<polygon fill="black" stroke="black" points="233.738,-194.961 239,-185.765 229.152,-189.672 233.738,-194.961"/>
</g>
<!-- 25_75_2277 -->
<g id="node5" class="node"><title>25_75_2277</title>
<ellipse fill="dimgrey" stroke="black" cx="62.397" cy="-127.79" rx="59.2941" ry="16.0303"/>
<text text-anchor="middle" x="62.397" y="-124.09" font-family="Times,serif" font-size="14.00">25_75_2277</text>
</g>
<!-- 25_75_2281x25_75_2281a&#45;&gt;25_75_2277 -->
<g id="edge3" class="edge"><title>25_75_2281x25_75_2281a&#45;&gt;25_75_2277</title>
<path fill="none" stroke="black" d="M238.398,-181.95C225.953,-178.191 158.072,-157.688 110.351,-143.274"/>
<polygon fill="black" stroke="black" points="111.085,-139.84 100.501,-140.299 109.061,-146.541 111.085,-139.84"/>
</g>
<!-- 25_75_2279 -->
<g id="node6" class="node"><title>25_75_2279</title>
<polygon fill="white" stroke="black" points="223.397,-139.29 139.397,-139.29 139.397,-116.29 223.397,-116.29 223.397,-139.29"/>
<text text-anchor="middle" x="181.397" y="-124.09" font-family="Times,serif" font-size="14.00">25_75_2279</text>
</g>
<!-- 25_75_2281x25_75_2281a&#45;&gt;25_75_2279 -->
<g id="edge4" class="edge"><title>25_75_2281x25_75_2281a&#45;&gt;25_75_2279</title>
<path fill="none" stroke="black" d="M238.939,-181.225C233.698,-176.45 215.36,-159.739 200.777,-146.45"/>
<polygon fill="black" stroke="black" points="202.917,-143.665 193.168,-139.517 198.202,-148.839 202.917,-143.665"/>
</g>
<!-- 25_75_2275 -->
<g id="node9" class="node"><title>25_75_2275</title>
<ellipse fill="dimgrey" stroke="black" cx="300.397" cy="-127.79" rx="59.2941" ry="16.0303"/>
<text text-anchor="middle" x="300.397" y="-124.09" font-family="Times,serif" font-size="14.00">25_75_2275</text>
</g>
<!-- 25_75_2281x25_75_2281a&#45;&gt;25_75_2275 -->
<g id="edge6" class="edge"><title>25_75_2281x25_75_2281a&#45;&gt;25_75_2275</title>
<path fill="none" stroke="black" d="M241.88,-181.225C246.722,-176.886 262.559,-162.695 276.538,-150.169"/>
<polygon fill="black" stroke="black" points="278.92,-152.735 284.031,-143.455 274.248,-147.522 278.92,-152.735"/>
</g>
<!-- 25_75_2278 -->
<g id="node10" class="node"><title>25_75_2278</title>
<ellipse fill="white" stroke="black" cx="437.397" cy="-127.79" rx="59.2941" ry="16.0303"/>
<text text-anchor="middle" x="437.397" y="-124.09" font-family="Times,serif" font-size="14.00">25_75_2278</text>
</g>
<!-- 25_75_2281x25_75_2281a&#45;&gt;25_75_2278 -->
<g id="edge8" class="edge"><title>25_75_2281x25_75_2281a&#45;&gt;25_75_2278</title>
<path fill="none" stroke="black" d="M242.609,-181.95C256.628,-178.124 334.205,-156.953 387.125,-142.51"/>
<polygon fill="black" stroke="black" points="388.3,-145.817 397.026,-139.808 386.457,-139.064 388.3,-145.817"/>
</g>
<!-- 25_75_2281a -->
<g id="node4" class="node"><title>25_75_2281a</title>
<ellipse fill="#66cdaa" stroke="black" cx="302.397" cy="-239.317" rx="63.7795" ry="16.0303"/>
<text text-anchor="middle" x="302.397" y="-235.617" font-family="Times,serif" font-size="14.00">25_75_2281a</text>
</g>
<!-- 25_75_2281a&#45;&gt;25_75_2281x25_75_2281a -->
<g id="edge2" class="edge"><title>25_75_2281a&#45;&gt;25_75_2281x25_75_2281a</title>
<path fill="none" stroke="black" d="M285.455,-223.626C273.87,-213.58 258.961,-200.652 249.539,-192.481"/>
<polygon fill="black" stroke="black" points="251.732,-189.75 241.884,-185.843 247.146,-195.039 251.732,-189.75"/>
</g>
<!-- 25_75_2280 -->
<g id="node7" class="node"><title>25_75_2280</title>
<ellipse fill="white" stroke="black" cx="361.397" cy="-16.2635" rx="59.2941" ry="16.0303"/>
<text text-anchor="middle" x="361.397" y="-12.5635" font-family="Times,serif" font-size="14.00">25_75_2280</text>
</g>
<!-- 25_75_2275ax25_75_2275 -->
<g id="node8" class="node"><title>25_75_2275ax25_75_2275</title>
<polygon fill="none" stroke="black" points="429.397,-75.5269 425.897,-72.0269 429.397,-68.5269 432.897,-72.0269 429.397,-75.5269"/>
</g>
<!-- 25_75_2275ax25_75_2275&#45;&gt;25_75_2280 -->
<g id="edge5" class="edge"><title>25_75_2275ax25_75_2275&#45;&gt;25_75_2280</title>
<path fill="none" stroke="black" d="M427.977,-69.904C422.779,-65.7949 404.255,-51.1485 388.061,-38.3452"/>
<polygon fill="black" stroke="black" points="389.904,-35.3401 379.888,-31.8835 385.562,-40.8312 389.904,-35.3401"/>
</g>
<!-- 25_75_2276 -->
<g id="node14" class="node"><title>25_75_2276</title>
<ellipse fill="white" stroke="black" cx="498.397" cy="-16.2635" rx="59.2941" ry="16.0303"/>
<text text-anchor="middle" x="498.397" y="-12.5635" font-family="Times,serif" font-size="14.00">25_75_2276</text>
</g>
<!-- 25_75_2275ax25_75_2275&#45;&gt;25_75_2276 -->
<g id="edge10" class="edge"><title>25_75_2275ax25_75_2275&#45;&gt;25_75_2276</title>
<path fill="none" stroke="black" d="M430.838,-69.904C436.112,-65.7949 454.909,-51.1485 471.341,-38.3452"/>
<polygon fill="black" stroke="black" points="473.897,-40.7907 479.634,-31.8835 469.594,-35.269 473.897,-40.7907"/>
</g>
<!-- 25_75_2275&#45;&gt;25_75_2275ax25_75_2275 -->
<g id="edge7" class="edge"><title>25_75_2275&#45;&gt;25_75_2275ax25_75_2275</title>
<path fill="none" stroke="black" d="M331.624,-113.776C359.517,-102.151 398.841,-85.7619 418.005,-77.7749"/>
<polygon fill="black" stroke="black" points="419.48,-80.9518 427.364,-73.8741 416.787,-74.4905 419.48,-80.9518"/>
</g>
<!-- 25_75_2425 -->
<g id="node11" class="node"><title>25_75_2425</title>
<polygon fill="#66cdaa" stroke="black" points="468.397,-250.817 384.397,-250.817 384.397,-227.817 468.397,-227.817 468.397,-250.817"/>
<text text-anchor="middle" x="426.397" y="-235.617" font-family="Times,serif" font-size="14.00">25_75_2425</text>
</g>
<!-- 25_75_2425a -->
<g id="node12" class="node"><title>25_75_2425a</title>
<ellipse fill="#66cdaa" stroke="black" cx="550.397" cy="-239.317" rx="63.7795" ry="16.0303"/>
<text text-anchor="middle" x="550.397" y="-235.617" font-family="Times,serif" font-size="14.00">25_75_2425a</text>
</g>
<!-- 25_75_2275a -->
<g id="node13" class="node"><title>25_75_2275a</title>
<polygon fill="#66cdaa" stroke="black" points="604.397,-139.29 514.397,-139.29 514.397,-116.29 604.397,-116.29 604.397,-139.29"/>
<text text-anchor="middle" x="559.397" y="-124.09" font-family="Times,serif" font-size="14.00">25_75_2275a</text>
</g>
<!-- 25_75_2275a&#45;&gt;25_75_2275ax25_75_2275 -->
<g id="edge9" class="edge"><title>25_75_2275a&#45;&gt;25_75_2275ax25_75_2275</title>
<path fill="none" stroke="black" d="M533.713,-116.168C505.525,-104.511 461.536,-86.3186 440.863,-77.7687"/>
<polygon fill="black" stroke="black" points="441.932,-74.4234 431.353,-73.8359 439.256,-80.892 441.932,-74.4234"/>
</g>
</g>
</svg>
