<?xml version="1.0" encoding="UTF-8" standalone="no"?>
<!DOCTYPE svg PUBLIC "-//W3C//DTD SVG 1.1//EN"
 "http://www.w3.org/Graphics/SVG/1.1/DTD/svg11.dtd">
<!-- Generated by graphviz version 2.38.0 (20140413.2041)
 -->
<!-- Title: %3 Pages: 1 -->
<svg width="1918pt" height="598pt"
 viewBox="0.00 0.00 1918.00 598.16" xmlns="http://www.w3.org/2000/svg" xmlns:xlink="http://www.w3.org/1999/xlink">
<g id="graph0" class="graph" transform="scale(1 1) rotate(0) translate(4 594.161)">
<title>%3</title>
<polygon fill="white" stroke="none" points="-4,4 -4,-594.161 1914,-594.161 1914,4 -4,4"/>
<!-- 27_40_83471 -->
<g id="node1" class="node"><title>27_40_83471</title>
<polygon fill="#66cdaa" stroke="black" points="886,-473.871 795,-473.871 795,-450.871 886,-450.871 886,-473.871"/>
<text text-anchor="middle" x="840.5" y="-458.671" font-family="Times,serif" font-size="14.00">27_40_83471</text>
</g>
<!-- 27_40_83471x27_40_82645 -->
<g id="node2" class="node"><title>27_40_83471x27_40_82645</title>
<polygon fill="none" stroke="black" points="849.5,-410.108 846,-406.608 849.5,-403.108 853,-406.608 849.5,-410.108"/>
</g>
<!-- 27_40_83471&#45;&gt;27_40_83471x27_40_82645 -->
<g id="edge1" class="edge"><title>27_40_83471&#45;&gt;27_40_83471x27_40_82645</title>
<path fill="none" stroke="black" d="M842.278,-450.749C843.771,-441.829 845.905,-429.082 847.466,-419.757"/>
<polygon fill="black" stroke="black" points="850.927,-420.284 849.126,-409.843 844.023,-419.128 850.927,-420.284"/>
</g>
<!-- 27_40_83488 -->
<g id="node30" class="node"><title>27_40_83488</title>
<polygon fill="dimgrey" stroke="black" points="895,-362.344 804,-362.344 804,-339.344 895,-339.344 895,-362.344"/>
<text text-anchor="middle" x="849.5" y="-347.144" font-family="Times,serif" font-size="14.00">27_40_83488</text>
</g>
<!-- 27_40_83471x27_40_82645&#45;&gt;27_40_83488 -->
<g id="edge28" class="edge"><title>27_40_83471x27_40_82645&#45;&gt;27_40_83488</title>
<path fill="none" stroke="black" d="M849.5,-403.015C849.5,-397.546 849.5,-384.381 849.5,-372.774"/>
<polygon fill="black" stroke="black" points="853,-372.426 849.5,-362.426 846,-372.426 853,-372.426"/>
</g>
<!-- 27_40_83571 -->
<g id="node3" class="node"><title>27_40_83571</title>
<ellipse fill="white" stroke="black" cx="218.5" cy="-16.2635" rx="64.1938" ry="16.0303"/>
<text text-anchor="middle" x="218.5" y="-12.5635" font-family="Times,serif" font-size="14.00">27_40_83571</text>
</g>
<!-- 27_40_72177x27_40_82669 -->
<g id="node4" class="node"><title>27_40_72177x27_40_82669</title>
<polygon fill="none" stroke="black" points="218.5,-75.5269 215,-72.0269 218.5,-68.5269 222,-72.0269 218.5,-75.5269"/>
</g>
<!-- 27_40_72177x27_40_82669&#45;&gt;27_40_83571 -->
<g id="edge2" class="edge"><title>27_40_72177x27_40_82669&#45;&gt;27_40_83571</title>
<path fill="none" stroke="black" d="M218.5,-68.4338C218.5,-63.6514 218.5,-52.9811 218.5,-42.6151"/>
<polygon fill="black" stroke="black" points="222,-42.5799 218.5,-32.58 215,-42.58 222,-42.5799"/>
</g>
<!-- 27_40_72177 -->
<g id="node5" class="node"><title>27_40_72177</title>
<polygon fill="#66cdaa" stroke="black" points="91,-139.29 0,-139.29 0,-116.29 91,-116.29 91,-139.29"/>
<text text-anchor="middle" x="45.5" y="-124.09" font-family="Times,serif" font-size="14.00">27_40_72177</text>
</g>
<!-- 27_40_72177&#45;&gt;27_40_72177x27_40_82669 -->
<g id="edge3" class="edge"><title>27_40_72177&#45;&gt;27_40_72177x27_40_82669</title>
<path fill="none" stroke="black" d="M79.6792,-116.168C118.766,-104.021 180.684,-84.7789 206.54,-76.7436"/>
<polygon fill="black" stroke="black" points="207.762,-80.029 216.273,-73.7189 205.685,-73.3444 207.762,-80.029"/>
</g>
<!-- 27_40_82655 -->
<g id="node6" class="node"><title>27_40_82655</title>
<ellipse fill="dimgrey" stroke="black" cx="1171.5" cy="-239.317" rx="64.1938" ry="16.0303"/>
<text text-anchor="middle" x="1171.5" y="-235.617" font-family="Times,serif" font-size="14.00">27_40_82655</text>
</g>
<!-- 27_40_82646x27_40_82647 -->
<g id="node7" class="node"><title>27_40_82646x27_40_82647</title>
<polygon fill="none" stroke="black" points="1024.5,-298.581 1021,-295.081 1024.5,-291.581 1028,-295.081 1024.5,-298.581"/>
</g>
<!-- 27_40_82646x27_40_82647&#45;&gt;27_40_82655 -->
<g id="edge4" class="edge"><title>27_40_82646x27_40_82647&#45;&gt;27_40_82655</title>
<path fill="none" stroke="black" d="M1026.58,-293.321C1037.45,-289.344 1088.77,-270.577 1127.27,-256.494"/>
<polygon fill="black" stroke="black" points="1128.56,-259.749 1136.75,-253.027 1126.16,-253.174 1128.56,-259.749"/>
</g>
<!-- 27_40_82649 -->
<g id="node22" class="node"><title>27_40_82649</title>
<polygon fill="#66cdaa" stroke="black" points="1345,-250.817 1254,-250.817 1254,-227.817 1345,-227.817 1345,-250.817"/>
<text text-anchor="middle" x="1299.5" y="-235.617" font-family="Times,serif" font-size="14.00">27_40_82649</text>
</g>
<!-- 27_40_82646x27_40_82647&#45;&gt;27_40_82649 -->
<g id="edge18" class="edge"><title>27_40_82646x27_40_82647&#45;&gt;27_40_82649</title>
<path fill="none" stroke="black" d="M1027.13,-293.719C1045.48,-291.181 1155.99,-275.556 1244.5,-255.581 1247.5,-254.904 1250.57,-254.168 1253.67,-253.396"/>
<polygon fill="black" stroke="black" points="1254.73,-256.736 1263.53,-250.84 1252.98,-249.96 1254.73,-256.736"/>
</g>
<!-- 27_40_82652 -->
<g id="node24" class="node"><title>27_40_82652</title>
<ellipse fill="dimgrey" stroke="black" cx="1427.5" cy="-239.317" rx="64.1938" ry="16.0303"/>
<text text-anchor="middle" x="1427.5" y="-235.617" font-family="Times,serif" font-size="14.00">27_40_82652</text>
</g>
<!-- 27_40_82646x27_40_82647&#45;&gt;27_40_82652 -->
<g id="edge21" class="edge"><title>27_40_82646x27_40_82647&#45;&gt;27_40_82652</title>
<path fill="none" stroke="black" d="M1026.87,-293.887C1048.8,-292.075 1218.43,-277.697 1354.5,-255.581 1359.93,-254.698 1365.57,-253.688 1371.2,-252.616"/>
<polygon fill="black" stroke="black" points="1372.14,-255.999 1381.28,-250.637 1370.79,-249.13 1372.14,-255.999"/>
</g>
<!-- 27_40_82653 -->
<g id="node25" class="node"><title>27_40_82653</title>
<polygon fill="#66cdaa" stroke="black" points="392,-250.817 301,-250.817 301,-227.817 392,-227.817 392,-250.817"/>
<text text-anchor="middle" x="346.5" y="-235.617" font-family="Times,serif" font-size="14.00">27_40_82653</text>
</g>
<!-- 27_40_82646x27_40_82647&#45;&gt;27_40_82653 -->
<g id="edge22" class="edge"><title>27_40_82646x27_40_82647&#45;&gt;27_40_82653</title>
<path fill="none" stroke="black" d="M1021.85,-294.135C989.142,-294.763 660.513,-299.825 400.5,-255.581 396.877,-254.964 393.15,-254.198 389.427,-253.34"/>
<polygon fill="black" stroke="black" points="390.211,-249.928 379.66,-250.892 388.509,-256.718 390.211,-249.928"/>
</g>
<!-- 27_40_82657 -->
<g id="node26" class="node"><title>27_40_82657</title>
<ellipse fill="dimgrey" stroke="black" cx="730.5" cy="-239.317" rx="64.1938" ry="16.0303"/>
<text text-anchor="middle" x="730.5" y="-235.617" font-family="Times,serif" font-size="14.00">27_40_82657</text>
</g>
<!-- 27_40_82646x27_40_82647&#45;&gt;27_40_82657 -->
<g id="edge24" class="edge"><title>27_40_82646x27_40_82647&#45;&gt;27_40_82657</title>
<path fill="none" stroke="black" d="M1022.33,-293.726C1005.51,-290.977 894.391,-272.713 804.5,-255.581 799.185,-254.568 793.661,-253.485 788.134,-252.381"/>
<polygon fill="black" stroke="black" points="788.721,-248.929 778.226,-250.382 787.336,-255.791 788.721,-248.929"/>
</g>
<!-- 27_40_82654 -->
<g id="node36" class="node"><title>27_40_82654</title>
<polygon fill="dimgrey" stroke="black" points="501,-250.817 410,-250.817 410,-227.817 501,-227.817 501,-250.817"/>
<text text-anchor="middle" x="455.5" y="-235.617" font-family="Times,serif" font-size="14.00">27_40_82654</text>
</g>
<!-- 27_40_82646x27_40_82647&#45;&gt;27_40_82654 -->
<g id="edge33" class="edge"><title>27_40_82646x27_40_82647&#45;&gt;27_40_82654</title>
<path fill="none" stroke="black" d="M1021.97,-294.082C993.152,-294.056 723.834,-292.802 510.5,-255.581 506.87,-254.947 503.134,-254.176 499.399,-253.32"/>
<polygon fill="black" stroke="black" points="500.138,-249.897 489.59,-250.893 498.457,-256.692 500.138,-249.897"/>
</g>
<!-- 27_40_40401 -->
<g id="node41" class="node"><title>27_40_40401</title>
<ellipse fill="dimgrey" stroke="black" cx="1024.5" cy="-239.317" rx="64.1938" ry="16.0303"/>
<text text-anchor="middle" x="1024.5" y="-235.617" font-family="Times,serif" font-size="14.00">27_40_40401</text>
</g>
<!-- 27_40_82646x27_40_82647&#45;&gt;27_40_40401 -->
<g id="edge39" class="edge"><title>27_40_82646x27_40_82647&#45;&gt;27_40_40401</title>
<path fill="none" stroke="black" d="M1024.5,-291.488C1024.5,-286.705 1024.5,-276.035 1024.5,-265.669"/>
<polygon fill="black" stroke="black" points="1028,-265.634 1024.5,-255.634 1021,-265.634 1028,-265.634"/>
</g>
<!-- 27_40_82671 -->
<g id="node8" class="node"><title>27_40_82671</title>
<ellipse fill="white" stroke="black" cx="549.5" cy="-127.79" rx="64.1938" ry="16.0303"/>
<text text-anchor="middle" x="549.5" y="-124.09" font-family="Times,serif" font-size="14.00">27_40_82671</text>
</g>
<!-- 27_40_82654x27_40_83606 -->
<g id="node9" class="node"><title>27_40_82654x27_40_83606</title>
<polygon fill="none" stroke="black" points="571.5,-187.054 568,-183.554 571.5,-180.054 575,-183.554 571.5,-187.054"/>
</g>
<!-- 27_40_82654x27_40_83606&#45;&gt;27_40_82671 -->
<g id="edge5" class="edge"><title>27_40_82654x27_40_83606&#45;&gt;27_40_82671</title>
<path fill="none" stroke="black" d="M570.768,-180.765C568.98,-176.396 564.203,-164.721 559.628,-153.541"/>
<polygon fill="black" stroke="black" points="562.767,-151.969 555.74,-144.04 556.288,-154.62 562.767,-151.969"/>
</g>
<!-- 27_40_82672 -->
<g id="node14" class="node"><title>27_40_82672</title>
<ellipse fill="white" stroke="black" cx="696.5" cy="-127.79" rx="64.1938" ry="16.0303"/>
<text text-anchor="middle" x="696.5" y="-124.09" font-family="Times,serif" font-size="14.00">27_40_82672</text>
</g>
<!-- 27_40_82654x27_40_83606&#45;&gt;27_40_82672 -->
<g id="edge9" class="edge"><title>27_40_82654x27_40_83606&#45;&gt;27_40_82672</title>
<path fill="none" stroke="black" d="M573.267,-181.794C582.261,-177.926 623.789,-160.064 656.182,-146.131"/>
<polygon fill="black" stroke="black" points="657.665,-149.304 665.468,-142.137 654.899,-142.873 657.665,-149.304"/>
</g>
<!-- 27_40_83466 -->
<g id="node10" class="node"><title>27_40_83466</title>
<ellipse fill="#66cdaa" stroke="black" cx="904.5" cy="-573.898" rx="64.1938" ry="16.0303"/>
<text text-anchor="middle" x="904.5" y="-570.198" font-family="Times,serif" font-size="14.00">27_40_83466</text>
</g>
<!-- 27_40_83467x27_40_83466 -->
<g id="node11" class="node"><title>27_40_83467x27_40_83466</title>
<polygon fill="none" stroke="black" points="968.5,-521.635 965,-518.135 968.5,-514.635 972,-518.135 968.5,-521.635"/>
</g>
<!-- 27_40_83466&#45;&gt;27_40_83467x27_40_83466 -->
<g id="edge6" class="edge"><title>27_40_83466&#45;&gt;27_40_83467x27_40_83466</title>
<path fill="none" stroke="black" d="M921.988,-558.207C933.947,-548.161 949.337,-535.233 959.064,-527.062"/>
<polygon fill="black" stroke="black" points="961.56,-529.536 966.965,-520.424 957.057,-524.176 961.56,-529.536"/>
</g>
<!-- 27_40_82645 -->
<g id="node18" class="node"><title>27_40_82645</title>
<ellipse fill="white" stroke="black" cx="968.5" cy="-462.371" rx="64.1938" ry="16.0303"/>
<text text-anchor="middle" x="968.5" y="-458.671" font-family="Times,serif" font-size="14.00">27_40_82645</text>
</g>
<!-- 27_40_83467x27_40_83466&#45;&gt;27_40_82645 -->
<g id="edge12" class="edge"><title>27_40_83467x27_40_83466&#45;&gt;27_40_82645</title>
<path fill="none" stroke="black" d="M968.5,-514.541C968.5,-509.759 968.5,-499.089 968.5,-488.723"/>
<polygon fill="black" stroke="black" points="972,-488.688 968.5,-478.688 965,-488.688 972,-488.688"/>
</g>
<!-- 27_40_82669 -->
<g id="node12" class="node"><title>27_40_82669</title>
<ellipse fill="dimgrey" stroke="black" cx="391.5" cy="-127.79" rx="64.1938" ry="16.0303"/>
<text text-anchor="middle" x="391.5" y="-124.09" font-family="Times,serif" font-size="14.00">27_40_82669</text>
</g>
<!-- 27_40_82669&#45;&gt;27_40_72177x27_40_82669 -->
<g id="edge8" class="edge"><title>27_40_82669&#45;&gt;27_40_72177x27_40_82669</title>
<path fill="none" stroke="black" d="M352.675,-114.725C313.493,-102.548 255.331,-84.4729 230.471,-76.7472"/>
<polygon fill="black" stroke="black" points="231.186,-73.3043 220.598,-73.6789 229.109,-79.989 231.186,-73.3043"/>
</g>
<!-- 27_40_82653x27_40_83526 -->
<g id="node13" class="node"><title>27_40_82653x27_40_83526</title>
<polygon fill="none" stroke="black" points="263.5,-187.054 260,-183.554 263.5,-180.054 267,-183.554 263.5,-187.054"/>
</g>
<!-- 27_40_82653x27_40_83526&#45;&gt;27_40_82669 -->
<g id="edge7" class="edge"><title>27_40_82653x27_40_83526&#45;&gt;27_40_82669</title>
<path fill="none" stroke="black" d="M265.309,-181.794C274.547,-177.914 317.3,-159.956 350.513,-146.006"/>
<polygon fill="black" stroke="black" points="352.165,-149.109 360.029,-142.009 349.454,-142.655 352.165,-149.109"/>
</g>
<!-- 27_40_83580 -->
<g id="node29" class="node"><title>27_40_83580</title>
<polygon fill="white" stroke="black" points="200,-139.29 109,-139.29 109,-116.29 200,-116.29 200,-139.29"/>
<text text-anchor="middle" x="154.5" y="-124.09" font-family="Times,serif" font-size="14.00">27_40_83580</text>
</g>
<!-- 27_40_82653x27_40_83526&#45;&gt;27_40_83580 -->
<g id="edge27" class="edge"><title>27_40_82653x27_40_83526&#45;&gt;27_40_83580</title>
<path fill="none" stroke="black" d="M261.608,-181.621C252.617,-177.186 213.466,-157.875 185.095,-143.881"/>
<polygon fill="black" stroke="black" points="186.462,-140.653 175.945,-139.368 183.366,-146.931 186.462,-140.653"/>
</g>
<!-- 27_40_83544 -->
<g id="node33" class="node"><title>27_40_83544</title>
<polygon fill="#66cdaa" stroke="black" points="309,-139.29 218,-139.29 218,-116.29 309,-116.29 309,-139.29"/>
<text text-anchor="middle" x="263.5" y="-124.09" font-family="Times,serif" font-size="14.00">27_40_83544</text>
</g>
<!-- 27_40_82653x27_40_83526&#45;&gt;27_40_83544 -->
<g id="edge30" class="edge"><title>27_40_82653x27_40_83526&#45;&gt;27_40_83544</title>
<path fill="none" stroke="black" d="M263.5,-179.961C263.5,-174.493 263.5,-161.327 263.5,-149.721"/>
<polygon fill="black" stroke="black" points="267,-149.372 263.5,-139.372 260,-149.372 267,-149.372"/>
</g>
<!-- 27_40_61084 -->
<g id="node15" class="node"><title>27_40_61084</title>
<ellipse fill="dimgrey" stroke="black" cx="1007.5" cy="-127.79" rx="64.1938" ry="16.0303"/>
<text text-anchor="middle" x="1007.5" y="-124.09" font-family="Times,serif" font-size="14.00">27_40_61084</text>
</g>
<!-- 27_40_82649x27_40_82650 -->
<g id="node16" class="node"><title>27_40_82649x27_40_82650</title>
<polygon fill="none" stroke="black" points="1135.5,-187.054 1132,-183.554 1135.5,-180.054 1139,-183.554 1135.5,-187.054"/>
</g>
<!-- 27_40_82649x27_40_82650&#45;&gt;27_40_61084 -->
<g id="edge10" class="edge"><title>27_40_82649x27_40_82650&#45;&gt;27_40_61084</title>
<path fill="none" stroke="black" d="M1133.69,-181.794C1124.45,-177.914 1081.7,-159.956 1048.49,-146.006"/>
<polygon fill="black" stroke="black" points="1049.55,-142.655 1038.97,-142.009 1046.84,-149.109 1049.55,-142.655"/>
</g>
<!-- 27_40_82489 -->
<g id="node17" class="node"><title>27_40_82489</title>
<polygon fill="dimgrey" stroke="black" points="1181,-139.29 1090,-139.29 1090,-116.29 1181,-116.29 1181,-139.29"/>
<text text-anchor="middle" x="1135.5" y="-124.09" font-family="Times,serif" font-size="14.00">27_40_82489</text>
</g>
<!-- 27_40_82649x27_40_82650&#45;&gt;27_40_82489 -->
<g id="edge11" class="edge"><title>27_40_82649x27_40_82650&#45;&gt;27_40_82489</title>
<path fill="none" stroke="black" d="M1135.5,-179.961C1135.5,-174.493 1135.5,-161.327 1135.5,-149.721"/>
<polygon fill="black" stroke="black" points="1139,-149.372 1135.5,-139.372 1132,-149.372 1139,-149.372"/>
</g>
<!-- 27_40_82659 -->
<g id="node34" class="node"><title>27_40_82659</title>
<ellipse fill="dimgrey" stroke="black" cx="1263.5" cy="-127.79" rx="64.1938" ry="16.0303"/>
<text text-anchor="middle" x="1263.5" y="-124.09" font-family="Times,serif" font-size="14.00">27_40_82659</text>
</g>
<!-- 27_40_82649x27_40_82650&#45;&gt;27_40_82659 -->
<g id="edge31" class="edge"><title>27_40_82649x27_40_82650&#45;&gt;27_40_82659</title>
<path fill="none" stroke="black" d="M1137.31,-181.794C1146.55,-177.914 1189.3,-159.956 1222.51,-146.006"/>
<polygon fill="black" stroke="black" points="1224.16,-149.109 1232.03,-142.009 1221.45,-142.655 1224.16,-149.109"/>
</g>
<!-- 27_40_82645&#45;&gt;27_40_83471x27_40_82645 -->
<g id="edge14" class="edge"><title>27_40_82645&#45;&gt;27_40_83471x27_40_82645</title>
<path fill="none" stroke="black" d="M938.778,-447.943C913.395,-436.475 878.27,-420.606 860.598,-412.622"/>
<polygon fill="black" stroke="black" points="861.898,-409.368 851.344,-408.441 859.016,-415.748 861.898,-409.368"/>
</g>
<!-- 27_40_82644x27_40_82645 -->
<g id="node19" class="node"><title>27_40_82644x27_40_82645</title>
<polygon fill="none" stroke="black" points="1093.5,-410.108 1090,-406.608 1093.5,-403.108 1097,-406.608 1093.5,-410.108"/>
</g>
<!-- 27_40_82645&#45;&gt;27_40_82644x27_40_82645 -->
<g id="edge13" class="edge"><title>27_40_82645&#45;&gt;27_40_82644x27_40_82645</title>
<path fill="none" stroke="black" d="M999.399,-448.081C1026.31,-436.505 1063.84,-420.365 1082.31,-412.418"/>
<polygon fill="black" stroke="black" points="1083.75,-415.612 1091.55,-408.445 1080.98,-409.181 1083.75,-415.612"/>
</g>
<!-- 27_40_82647 -->
<g id="node21" class="node"><title>27_40_82647</title>
<ellipse fill="white" stroke="black" cx="1088.5" cy="-350.844" rx="64.1938" ry="16.0303"/>
<text text-anchor="middle" x="1088.5" y="-347.144" font-family="Times,serif" font-size="14.00">27_40_82647</text>
</g>
<!-- 27_40_82644x27_40_82645&#45;&gt;27_40_82647 -->
<g id="edge16" class="edge"><title>27_40_82644x27_40_82645&#45;&gt;27_40_82647</title>
<path fill="none" stroke="black" d="M1093.29,-403.297C1092.86,-398.715 1091.86,-388.01 1090.89,-377.545"/>
<polygon fill="black" stroke="black" points="1094.36,-377.028 1089.95,-367.395 1087.39,-377.676 1094.36,-377.028"/>
</g>
<!-- 27_40_83493 -->
<g id="node44" class="node"><title>27_40_83493</title>
<polygon fill="dimgrey" stroke="black" points="1262,-362.344 1171,-362.344 1171,-339.344 1262,-339.344 1262,-362.344"/>
<text text-anchor="middle" x="1216.5" y="-347.144" font-family="Times,serif" font-size="14.00">27_40_83493</text>
</g>
<!-- 27_40_82644x27_40_82645&#45;&gt;27_40_83493 -->
<g id="edge42" class="edge"><title>27_40_82644x27_40_82645&#45;&gt;27_40_83493</title>
<path fill="none" stroke="black" d="M1095.63,-404.674C1105.87,-400.201 1150.73,-380.592 1182.81,-366.571"/>
<polygon fill="black" stroke="black" points="1184.54,-369.634 1192.3,-362.422 1181.74,-363.22 1184.54,-369.634"/>
</g>
<!-- 27_40_82646 -->
<g id="node20" class="node"><title>27_40_82646</title>
<polygon fill="white" stroke="black" points="1006,-362.344 915,-362.344 915,-339.344 1006,-339.344 1006,-362.344"/>
<text text-anchor="middle" x="960.5" y="-347.144" font-family="Times,serif" font-size="14.00">27_40_82646</text>
</g>
<!-- 27_40_82646&#45;&gt;27_40_82646x27_40_82647 -->
<g id="edge15" class="edge"><title>27_40_82646&#45;&gt;27_40_82646x27_40_82647</title>
<path fill="none" stroke="black" d="M973.144,-339.222C985.512,-328.833 1004.06,-313.253 1015.15,-303.934"/>
<polygon fill="black" stroke="black" points="1017.65,-306.404 1023.06,-297.292 1013.15,-301.044 1017.65,-306.404"/>
</g>
<!-- 27_40_82647&#45;&gt;27_40_82646x27_40_82647 -->
<g id="edge17" class="edge"><title>27_40_82647&#45;&gt;27_40_82646x27_40_82647</title>
<path fill="none" stroke="black" d="M1071.01,-335.153C1059.05,-325.107 1043.66,-312.179 1033.94,-304.008"/>
<polygon fill="black" stroke="black" points="1035.94,-301.122 1026.03,-297.37 1031.44,-306.482 1035.94,-301.122"/>
</g>
<!-- 27_40_82649&#45;&gt;27_40_82649x27_40_82650 -->
<g id="edge19" class="edge"><title>27_40_82649&#45;&gt;27_40_82649x27_40_82650</title>
<path fill="none" stroke="black" d="M1267.1,-227.695C1230.21,-215.604 1171.88,-196.481 1147.18,-188.381"/>
<polygon fill="black" stroke="black" points="1148.2,-185.035 1137.61,-185.246 1146.02,-191.687 1148.2,-185.035"/>
</g>
<!-- 27_40_82650 -->
<g id="node23" class="node"><title>27_40_82650</title>
<ellipse fill="#66cdaa" stroke="black" cx="877.5" cy="-239.317" rx="64.1938" ry="16.0303"/>
<text text-anchor="middle" x="877.5" y="-235.617" font-family="Times,serif" font-size="14.00">27_40_82650</text>
</g>
<!-- 27_40_82650&#45;&gt;27_40_82649x27_40_82650 -->
<g id="edge20" class="edge"><title>27_40_82650&#45;&gt;27_40_82649x27_40_82650</title>
<path fill="none" stroke="black" d="M925.423,-228.331C986.414,-215.621 1088.07,-194.438 1123.15,-187.127"/>
<polygon fill="black" stroke="black" points="1124.04,-190.518 1133.11,-185.051 1122.61,-183.665 1124.04,-190.518"/>
</g>
<!-- 27_40_82653&#45;&gt;27_40_82653x27_40_83526 -->
<g id="edge23" class="edge"><title>27_40_82653&#45;&gt;27_40_82653x27_40_83526</title>
<path fill="none" stroke="black" d="M330.102,-227.695C313.401,-216.877 288.013,-200.432 273.895,-191.287"/>
<polygon fill="black" stroke="black" points="275.666,-188.264 265.37,-185.765 271.86,-194.139 275.666,-188.264"/>
</g>
<!-- 27_40_83467 -->
<g id="node27" class="node"><title>27_40_83467</title>
<polygon fill="#66cdaa" stroke="black" points="1078,-585.398 987,-585.398 987,-562.398 1078,-562.398 1078,-585.398"/>
<text text-anchor="middle" x="1032.5" y="-570.198" font-family="Times,serif" font-size="14.00">27_40_83467</text>
</g>
<!-- 27_40_83467&#45;&gt;27_40_83467x27_40_83466 -->
<g id="edge25" class="edge"><title>27_40_83467&#45;&gt;27_40_83467x27_40_83466</title>
<path fill="none" stroke="black" d="M1019.86,-562.276C1007.49,-551.887 988.942,-536.307 977.849,-526.988"/>
<polygon fill="black" stroke="black" points="979.85,-524.098 969.942,-520.346 975.347,-529.458 979.85,-524.098"/>
</g>
<!-- 27_40_82644 -->
<g id="node28" class="node"><title>27_40_82644</title>
<polygon fill="white" stroke="black" points="1142,-473.871 1051,-473.871 1051,-450.871 1142,-450.871 1142,-473.871"/>
<text text-anchor="middle" x="1096.5" y="-458.671" font-family="Times,serif" font-size="14.00">27_40_82644</text>
</g>
<!-- 27_40_82644&#45;&gt;27_40_82644x27_40_82645 -->
<g id="edge26" class="edge"><title>27_40_82644&#45;&gt;27_40_82644x27_40_82645</title>
<path fill="none" stroke="black" d="M1095.91,-450.749C1095.42,-441.997 1094.73,-429.561 1094.21,-420.288"/>
<polygon fill="black" stroke="black" points="1097.7,-420.036 1093.65,-410.246 1090.71,-420.426 1097.7,-420.036"/>
</g>
<!-- 27_40_82656 -->
<g id="node31" class="node"><title>27_40_82656</title>
<polygon fill="#66cdaa" stroke="black" points="1535,-585.398 1444,-585.398 1444,-562.398 1535,-562.398 1535,-585.398"/>
<text text-anchor="middle" x="1489.5" y="-570.198" font-family="Times,serif" font-size="14.00">27_40_82656</text>
</g>
<!-- 27_40_82656x27_40_83605 -->
<g id="node32" class="node"><title>27_40_82656x27_40_83605</title>
<polygon fill="none" stroke="black" points="1553.5,-521.635 1550,-518.135 1553.5,-514.635 1557,-518.135 1553.5,-521.635"/>
</g>
<!-- 27_40_82656&#45;&gt;27_40_82656x27_40_83605 -->
<g id="edge29" class="edge"><title>27_40_82656&#45;&gt;27_40_82656x27_40_83605</title>
<path fill="none" stroke="black" d="M1502.14,-562.276C1514.51,-551.887 1533.06,-536.307 1544.15,-526.988"/>
<polygon fill="black" stroke="black" points="1546.65,-529.458 1552.06,-520.346 1542.15,-524.098 1546.65,-529.458"/>
</g>
<!-- 27_40_83616 -->
<g id="node35" class="node"><title>27_40_83616</title>
<ellipse fill="#66cdaa" stroke="black" cx="1224.5" cy="-462.371" rx="64.1938" ry="16.0303"/>
<text text-anchor="middle" x="1224.5" y="-458.671" font-family="Times,serif" font-size="14.00">27_40_83616</text>
</g>
<!-- 27_40_82656x27_40_83605&#45;&gt;27_40_83616 -->
<g id="edge32" class="edge"><title>27_40_82656x27_40_83605&#45;&gt;27_40_83616</title>
<path fill="none" stroke="black" d="M1550.98,-516.806C1531.47,-514.255 1402.52,-497.201 1298.5,-478.635 1293.09,-477.669 1287.47,-476.612 1281.86,-475.517"/>
<polygon fill="black" stroke="black" points="1282.29,-472.035 1271.8,-473.52 1280.93,-478.901 1282.29,-472.035"/>
</g>
<!-- 27_40_83618 -->
<g id="node37" class="node"><title>27_40_83618</title>
<ellipse fill="#66cdaa" stroke="black" cx="1371.5" cy="-462.371" rx="64.1938" ry="16.0303"/>
<text text-anchor="middle" x="1371.5" y="-458.671" font-family="Times,serif" font-size="14.00">27_40_83618</text>
</g>
<!-- 27_40_82656x27_40_83605&#45;&gt;27_40_83618 -->
<g id="edge35" class="edge"><title>27_40_82656x27_40_83605&#45;&gt;27_40_83618</title>
<path fill="none" stroke="black" d="M1551.46,-516.531C1538.81,-512.796 1470.23,-492.536 1421.49,-478.138"/>
<polygon fill="black" stroke="black" points="1422.3,-474.729 1411.72,-475.253 1420.32,-481.443 1422.3,-474.729"/>
</g>
<!-- 27_40_82674 -->
<g id="node38" class="node"><title>27_40_82674</title>
<polygon fill="#66cdaa" stroke="black" points="1545,-473.871 1454,-473.871 1454,-450.871 1545,-450.871 1545,-473.871"/>
<text text-anchor="middle" x="1499.5" y="-458.671" font-family="Times,serif" font-size="14.00">27_40_82674</text>
</g>
<!-- 27_40_82656x27_40_83605&#45;&gt;27_40_82674 -->
<g id="edge36" class="edge"><title>27_40_82656x27_40_83605&#45;&gt;27_40_82674</title>
<path fill="none" stroke="black" d="M1552.17,-515.806C1547.44,-511.102 1531.08,-494.816 1517.84,-481.628"/>
<polygon fill="black" stroke="black" points="1520.07,-478.907 1510.51,-474.332 1515.13,-483.868 1520.07,-478.907"/>
</g>
<!-- 27_40_83627 -->
<g id="node42" class="node"><title>27_40_83627</title>
<polygon fill="#66cdaa" stroke="black" points="1654,-473.871 1563,-473.871 1563,-450.871 1654,-450.871 1654,-473.871"/>
<text text-anchor="middle" x="1608.5" y="-458.671" font-family="Times,serif" font-size="14.00">27_40_83627</text>
</g>
<!-- 27_40_82656x27_40_83605&#45;&gt;27_40_83627 -->
<g id="edge40" class="edge"><title>27_40_82656x27_40_83605&#45;&gt;27_40_83627</title>
<path fill="none" stroke="black" d="M1554.86,-515.806C1559.67,-511.102 1576.33,-494.816 1589.82,-481.628"/>
<polygon fill="black" stroke="black" points="1592.58,-483.825 1597.29,-474.332 1587.69,-478.819 1592.58,-483.825"/>
</g>
<!-- 27_40_83632 -->
<g id="node43" class="node"><title>27_40_83632</title>
<ellipse fill="#66cdaa" stroke="black" cx="1736.5" cy="-462.371" rx="64.1938" ry="16.0303"/>
<text text-anchor="middle" x="1736.5" y="-458.671" font-family="Times,serif" font-size="14.00">27_40_83632</text>
</g>
<!-- 27_40_82656x27_40_83605&#45;&gt;27_40_83632 -->
<g id="edge41" class="edge"><title>27_40_82656x27_40_83605&#45;&gt;27_40_83632</title>
<path fill="none" stroke="black" d="M1555.56,-516.531C1568.3,-512.786 1637.63,-492.418 1686.66,-478.013"/>
<polygon fill="black" stroke="black" points="1687.87,-481.305 1696.48,-475.128 1685.9,-474.589 1687.87,-481.305"/>
</g>
<!-- 27_40_83637 -->
<g id="node46" class="node"><title>27_40_83637</title>
<polygon fill="#66cdaa" stroke="black" points="1910,-473.871 1819,-473.871 1819,-450.871 1910,-450.871 1910,-473.871"/>
<text text-anchor="middle" x="1864.5" y="-458.671" font-family="Times,serif" font-size="14.00">27_40_83637</text>
</g>
<!-- 27_40_82656x27_40_83605&#45;&gt;27_40_83637 -->
<g id="edge44" class="edge"><title>27_40_82656x27_40_83605&#45;&gt;27_40_83637</title>
<path fill="none" stroke="black" d="M1556.04,-516.871C1575.73,-514.809 1705.76,-500.744 1809.5,-478.635 1812.65,-477.963 1815.89,-477.216 1819.14,-476.424"/>
<polygon fill="black" stroke="black" points="1820.03,-479.807 1828.86,-473.94 1818.3,-473.025 1820.03,-479.807"/>
</g>
<!-- 27_40_82654&#45;&gt;27_40_82654x27_40_83606 -->
<g id="edge34" class="edge"><title>27_40_82654&#45;&gt;27_40_82654x27_40_83606</title>
<path fill="none" stroke="black" d="M478.418,-227.695C503.214,-216.203 541.714,-198.359 560.473,-189.664"/>
<polygon fill="black" stroke="black" points="562.153,-192.743 569.754,-185.363 559.21,-186.392 562.153,-192.743"/>
</g>
<!-- 27_40_83605 -->
<g id="node39" class="node"><title>27_40_83605</title>
<ellipse fill="#66cdaa" stroke="black" cx="1617.5" cy="-573.898" rx="64.1938" ry="16.0303"/>
<text text-anchor="middle" x="1617.5" y="-570.198" font-family="Times,serif" font-size="14.00">27_40_83605</text>
</g>
<!-- 27_40_83605&#45;&gt;27_40_82656x27_40_83605 -->
<g id="edge37" class="edge"><title>27_40_83605&#45;&gt;27_40_82656x27_40_83605</title>
<path fill="none" stroke="black" d="M1600.01,-558.207C1588.05,-548.161 1572.66,-535.233 1562.94,-527.062"/>
<polygon fill="black" stroke="black" points="1564.94,-524.176 1555.03,-520.424 1560.44,-529.536 1564.94,-524.176"/>
</g>
<!-- 27_40_83526 -->
<g id="node40" class="node"><title>27_40_83526</title>
<ellipse fill="#66cdaa" stroke="black" cx="218.5" cy="-239.317" rx="64.1938" ry="16.0303"/>
<text text-anchor="middle" x="218.5" y="-235.617" font-family="Times,serif" font-size="14.00">27_40_83526</text>
</g>
<!-- 27_40_83526&#45;&gt;27_40_82653x27_40_83526 -->
<g id="edge38" class="edge"><title>27_40_83526&#45;&gt;27_40_82653x27_40_83526</title>
<path fill="none" stroke="black" d="M231.035,-223.341C238.934,-213.903 248.887,-202.012 255.677,-193.9"/>
<polygon fill="black" stroke="black" points="258.458,-196.031 262.193,-186.116 253.09,-191.538 258.458,-196.031"/>
</g>
<!-- 27_40_83606 -->
<g id="node45" class="node"><title>27_40_83606</title>
<ellipse fill="#66cdaa" stroke="black" cx="583.5" cy="-239.317" rx="64.1938" ry="16.0303"/>
<text text-anchor="middle" x="583.5" y="-235.617" font-family="Times,serif" font-size="14.00">27_40_83606</text>
</g>
<!-- 27_40_83606&#45;&gt;27_40_82654x27_40_83606 -->
<g id="edge43" class="edge"><title>27_40_83606&#45;&gt;27_40_82654x27_40_83606</title>
<path fill="none" stroke="black" d="M580.093,-223.055C578.224,-214.68 575.939,-204.443 574.196,-196.631"/>
<polygon fill="black" stroke="black" points="577.583,-195.742 571.989,-186.745 570.752,-197.267 577.583,-195.742"/>
</g>
</g>
</svg>
