<?xml version="1.0" encoding="UTF-8" standalone="no"?>
<!DOCTYPE svg PUBLIC "-//W3C//DTD SVG 1.1//EN"
 "http://www.w3.org/Graphics/SVG/1.1/DTD/svg11.dtd">
<!-- Generated by graphviz version 2.38.0 (20140413.2041)
 -->
<!-- Title: %3 Pages: 1 -->
<svg width="777pt" height="152pt"
 viewBox="0.00 0.00 776.69 152.05" xmlns="http://www.w3.org/2000/svg" xmlns:xlink="http://www.w3.org/1999/xlink">
<g id="graph0" class="graph" transform="scale(1 1) rotate(0) translate(4 148.054)">
<title>%3</title>
<polygon fill="white" stroke="none" points="-4,4 -4,-148.054 772.693,-148.054 772.693,4 -4,4"/>
<!-- 7_113_90046 -->
<g id="node1" class="node"><title>7_113_90046</title>
<ellipse fill="#66cdaa" stroke="black" cx="64.3467" cy="-127.79" rx="64.1938" ry="16.0303"/>
<text text-anchor="middle" x="64.3467" y="-124.09" font-family="Times,serif" font-size="14.00">7_113_90046</text>
</g>
<!-- 7_113_90045x7_113_90046 -->
<g id="node2" class="node"><title>7_113_90045x7_113_90046</title>
<polygon fill="none" stroke="black" points="128.347,-75.5269 124.847,-72.0269 128.347,-68.5269 131.847,-72.0269 128.347,-75.5269"/>
</g>
<!-- 7_113_90046&#45;&gt;7_113_90045x7_113_90046 -->
<g id="edge1" class="edge"><title>7_113_90046&#45;&gt;7_113_90045x7_113_90046</title>
<path fill="none" stroke="black" d="M81.835,-112.099C93.7939,-102.053 109.183,-89.1251 118.91,-80.954"/>
<polygon fill="black" stroke="black" points="121.407,-83.4281 126.812,-74.316 116.904,-78.0683 121.407,-83.4281"/>
</g>
<!-- 7_113_10049 -->
<g id="node5" class="node"><title>7_113_10049</title>
<ellipse fill="white" stroke="black" cx="128.347" cy="-16.2635" rx="64.1938" ry="16.0303"/>
<text text-anchor="middle" x="128.347" y="-12.5635" font-family="Times,serif" font-size="14.00">7_113_10049</text>
</g>
<!-- 7_113_90045x7_113_90046&#45;&gt;7_113_10049 -->
<g id="edge2" class="edge"><title>7_113_90045x7_113_90046&#45;&gt;7_113_10049</title>
<path fill="none" stroke="black" d="M128.347,-68.4338C128.347,-63.6514 128.347,-52.9811 128.347,-42.6151"/>
<polygon fill="black" stroke="black" points="131.847,-42.5799 128.347,-32.58 124.847,-42.58 131.847,-42.5799"/>
</g>
<!-- 7_113_90063 -->
<g id="node3" class="node"><title>7_113_90063</title>
<polygon fill="white" stroke="black" points="346.847,-139.29 255.847,-139.29 255.847,-116.29 346.847,-116.29 346.847,-139.29"/>
<text text-anchor="middle" x="301.347" y="-124.09" font-family="Times,serif" font-size="14.00">7_113_90063</text>
</g>
<!-- 7_113_90064 -->
<g id="node4" class="node"><title>7_113_90064</title>
<ellipse fill="white" stroke="black" cx="429.347" cy="-127.79" rx="64.1938" ry="16.0303"/>
<text text-anchor="middle" x="429.347" y="-124.09" font-family="Times,serif" font-size="14.00">7_113_90064</text>
</g>
<!-- 7_113_10048 -->
<g id="node6" class="node"><title>7_113_10048</title>
<polygon fill="dimgrey" stroke="black" points="621.847,-27.7635 530.847,-27.7635 530.847,-4.76346 621.847,-4.76346 621.847,-27.7635"/>
<text text-anchor="middle" x="576.347" y="-12.5635" font-family="Times,serif" font-size="14.00">7_113_10048</text>
</g>
<!-- 7_113_90025x7_113_90026 -->
<g id="node7" class="node"><title>7_113_90025x7_113_90026</title>
<polygon fill="none" stroke="black" points="640.347,-75.5269 636.847,-72.0269 640.347,-68.5269 643.847,-72.0269 640.347,-75.5269"/>
</g>
<!-- 7_113_90025x7_113_90026&#45;&gt;7_113_10048 -->
<g id="edge3" class="edge"><title>7_113_90025x7_113_90026&#45;&gt;7_113_10048</title>
<path fill="none" stroke="black" d="M638.765,-69.6979C633.028,-64.8785 612.818,-47.9017 596.93,-34.5549"/>
<polygon fill="black" stroke="black" points="599.024,-31.7422 589.115,-27.9899 594.521,-37.102 599.024,-31.7422"/>
</g>
<!-- 7_113_10047 -->
<g id="node10" class="node"><title>7_113_10047</title>
<ellipse fill="dimgrey" stroke="black" cx="704.347" cy="-16.2635" rx="64.1938" ry="16.0303"/>
<text text-anchor="middle" x="704.347" y="-12.5635" font-family="Times,serif" font-size="14.00">7_113_10047</text>
</g>
<!-- 7_113_90025x7_113_90026&#45;&gt;7_113_10047 -->
<g id="edge6" class="edge"><title>7_113_90025x7_113_90026&#45;&gt;7_113_10047</title>
<path fill="none" stroke="black" d="M641.929,-69.6979C647.093,-65.3593 663.987,-51.1681 678.897,-38.6422"/>
<polygon fill="black" stroke="black" points="681.485,-41.04 686.89,-31.9279 676.982,-35.6802 681.485,-41.04"/>
</g>
<!-- 7_113_90045 -->
<g id="node8" class="node"><title>7_113_90045</title>
<polygon fill="#66cdaa" stroke="black" points="237.847,-139.29 146.847,-139.29 146.847,-116.29 237.847,-116.29 237.847,-139.29"/>
<text text-anchor="middle" x="192.347" y="-124.09" font-family="Times,serif" font-size="14.00">7_113_90045</text>
</g>
<!-- 7_113_90045&#45;&gt;7_113_90045x7_113_90046 -->
<g id="edge4" class="edge"><title>7_113_90045&#45;&gt;7_113_90045x7_113_90046</title>
<path fill="none" stroke="black" d="M179.702,-116.168C167.335,-105.779 148.789,-90.1991 137.695,-80.8803"/>
<polygon fill="black" stroke="black" points="139.697,-77.9903 129.788,-74.238 135.194,-83.3501 139.697,-77.9903"/>
</g>
<!-- 7_113_90026 -->
<g id="node9" class="node"><title>7_113_90026</title>
<ellipse fill="#66cdaa" stroke="black" cx="576.347" cy="-127.79" rx="64.1938" ry="16.0303"/>
<text text-anchor="middle" x="576.347" y="-124.09" font-family="Times,serif" font-size="14.00">7_113_90026</text>
</g>
<!-- 7_113_90026&#45;&gt;7_113_90025x7_113_90026 -->
<g id="edge5" class="edge"><title>7_113_90026&#45;&gt;7_113_90025x7_113_90026</title>
<path fill="none" stroke="black" d="M593.835,-112.099C605.794,-102.053 621.183,-89.1251 630.91,-80.954"/>
<polygon fill="black" stroke="black" points="633.407,-83.4281 638.812,-74.316 628.904,-78.0683 633.407,-83.4281"/>
</g>
<!-- 7_113_90025 -->
<g id="node11" class="node"><title>7_113_90025</title>
<polygon fill="white" stroke="black" points="749.847,-139.29 658.847,-139.29 658.847,-116.29 749.847,-116.29 749.847,-139.29"/>
<text text-anchor="middle" x="704.347" y="-124.09" font-family="Times,serif" font-size="14.00">7_113_90025</text>
</g>
<!-- 7_113_90025&#45;&gt;7_113_90025x7_113_90026 -->
<g id="edge7" class="edge"><title>7_113_90025&#45;&gt;7_113_90025x7_113_90026</title>
<path fill="none" stroke="black" d="M691.702,-116.168C679.335,-105.779 660.789,-90.1991 649.695,-80.8803"/>
<polygon fill="black" stroke="black" points="651.697,-77.9903 641.788,-74.238 647.194,-83.3501 651.697,-77.9903"/>
</g>
</g>
</svg>
