<?xml version="1.0" encoding="UTF-8" standalone="no"?>
<!DOCTYPE svg PUBLIC "-//W3C//DTD SVG 1.1//EN"
 "http://www.w3.org/Graphics/SVG/1.1/DTD/svg11.dtd">
<!-- Generated by graphviz version 2.38.0 (20140413.2041)
 -->
<!-- Title: %3 Pages: 1 -->
<svg width="4094pt" height="375pt"
 viewBox="0.00 0.00 4093.68 375.11" xmlns="http://www.w3.org/2000/svg" xmlns:xlink="http://www.w3.org/1999/xlink">
<g id="graph0" class="graph" transform="scale(1 1) rotate(0) translate(4 371.108)">
<title>%3</title>
<polygon fill="white" stroke="none" points="-4,4 -4,-371.108 4089.68,-371.108 4089.68,4 -4,4"/>
<!-- 10R_R114_9 -->
<g id="node1" class="node"><title>10R_R114_9</title>
<ellipse fill="#66cdaa" stroke="black" cx="600.175" cy="-239.317" rx="62.8651" ry="16.0303"/>
<text text-anchor="middle" x="600.175" y="-235.617" font-family="Times,serif" font-size="14.00">10R_R114_9</text>
</g>
<!-- 10R_R114_27x10R_R114_9 -->
<g id="node3" class="node"><title>10R_R114_27x10R_R114_9</title>
<polygon fill="none" stroke="black" points="705.175,-187.054 701.675,-183.554 705.175,-180.054 708.675,-183.554 705.175,-187.054"/>
</g>
<!-- 10R_R114_9&#45;&gt;10R_R114_27x10R_R114_9 -->
<g id="edge2" class="edge"><title>10R_R114_9&#45;&gt;10R_R114_27x10R_R114_9</title>
<path fill="none" stroke="black" d="M627.215,-224.472C648.908,-213.365 678.252,-198.339 694.031,-190.26"/>
<polygon fill="black" stroke="black" points="695.795,-193.289 703.101,-185.616 692.605,-187.058 695.795,-193.289"/>
</g>
<!-- 10R_R114_2x10R_R114_3 -->
<g id="node2" class="node"><title>10R_R114_2x10R_R114_3</title>
<polygon fill="none" stroke="black" points="1925.18,-298.581 1921.68,-295.081 1925.18,-291.581 1928.68,-295.081 1925.18,-298.581"/>
</g>
<!-- 10R_R114_2x10R_R114_3&#45;&gt;10R_R114_9 -->
<g id="edge1" class="edge"><title>10R_R114_2x10R_R114_3&#45;&gt;10R_R114_9</title>
<path fill="none" stroke="black" d="M1922.36,-294.066C1864.78,-293.753 939.279,-288.241 671.175,-255.581 665.7,-254.914 660.022,-254.029 654.371,-253.02"/>
<polygon fill="black" stroke="black" points="654.758,-249.531 644.278,-251.091 653.443,-256.406 654.758,-249.531"/>
</g>
<!-- 10R_R114_5 -->
<g id="node4" class="node"><title>10R_R114_5</title>
<ellipse fill="white" stroke="black" cx="2656.18" cy="-239.317" rx="62.8651" ry="16.0303"/>
<text text-anchor="middle" x="2656.18" y="-235.617" font-family="Times,serif" font-size="14.00">10R_R114_5</text>
</g>
<!-- 10R_R114_2x10R_R114_3&#45;&gt;10R_R114_5 -->
<g id="edge3" class="edge"><title>10R_R114_2x10R_R114_3&#45;&gt;10R_R114_5</title>
<path fill="none" stroke="black" d="M1927.97,-294.08C1962.37,-294.038 2308.17,-292.684 2584.18,-255.581 2589.72,-254.836 2595.47,-253.9 2601.19,-252.86"/>
<polygon fill="black" stroke="black" points="2602.26,-256.218 2611.42,-250.894 2600.94,-249.344 2602.26,-256.218"/>
</g>
<!-- 10R_R114_4 -->
<g id="node5" class="node"><title>10R_R114_4</title>
<ellipse fill="white" stroke="black" cx="2800.18" cy="-239.317" rx="62.8651" ry="16.0303"/>
<text text-anchor="middle" x="2800.18" y="-235.617" font-family="Times,serif" font-size="14.00">10R_R114_4</text>
</g>
<!-- 10R_R114_2x10R_R114_3&#45;&gt;10R_R114_4 -->
<g id="edge4" class="edge"><title>10R_R114_2x10R_R114_3&#45;&gt;10R_R114_4</title>
<path fill="none" stroke="black" d="M1928.08,-294.122C1967.03,-294.644 2390.43,-299.189 2728.18,-255.581 2733.94,-254.837 2739.93,-253.875 2745.88,-252.797"/>
<polygon fill="black" stroke="black" points="2746.65,-256.212 2755.81,-250.89 2745.33,-249.338 2746.65,-256.212"/>
</g>
<!-- 10R_R114_1 -->
<g id="node6" class="node"><title>10R_R114_1</title>
<ellipse fill="dimgrey" stroke="black" cx="2944.18" cy="-239.317" rx="62.8651" ry="16.0303"/>
<text text-anchor="middle" x="2944.18" y="-235.617" font-family="Times,serif" font-size="14.00">10R_R114_1</text>
</g>
<!-- 10R_R114_2x10R_R114_3&#45;&gt;10R_R114_1 -->
<g id="edge5" class="edge"><title>10R_R114_2x10R_R114_3&#45;&gt;10R_R114_1</title>
<path fill="none" stroke="black" d="M1927.86,-294.035C1976.41,-293.199 2670.54,-280.869 2872.18,-255.581 2877.94,-254.857 2883.93,-253.909 2889.88,-252.839"/>
<polygon fill="black" stroke="black" points="2890.66,-256.255 2899.82,-250.941 2889.34,-249.38 2890.66,-256.255"/>
</g>
<!-- 10R_R114_10 -->
<g id="node12" class="node"><title>10R_R114_10</title>
<ellipse fill="dimgrey" stroke="black" cx="3092.18" cy="-239.317" rx="67.3507" ry="16.0303"/>
<text text-anchor="middle" x="3092.18" y="-235.617" font-family="Times,serif" font-size="14.00">10R_R114_10</text>
</g>
<!-- 10R_R114_2x10R_R114_3&#45;&gt;10R_R114_10 -->
<g id="edge9" class="edge"><title>10R_R114_2x10R_R114_3&#45;&gt;10R_R114_10</title>
<path fill="none" stroke="black" d="M1927.93,-294.047C1980.95,-293.381 2783.23,-282.898 3016.18,-255.581 3022.32,-254.861 3028.7,-253.908 3035.04,-252.828"/>
<polygon fill="black" stroke="black" points="3035.71,-256.264 3044.93,-251.044 3034.47,-249.375 3035.71,-256.264"/>
</g>
<!-- 10R_R114_14 -->
<g id="node17" class="node"><title>10R_R114_14</title>
<ellipse fill="white" stroke="black" cx="3244.18" cy="-239.317" rx="67.3507" ry="16.0303"/>
<text text-anchor="middle" x="3244.18" y="-235.617" font-family="Times,serif" font-size="14.00">10R_R114_14</text>
</g>
<!-- 10R_R114_2x10R_R114_3&#45;&gt;10R_R114_14 -->
<g id="edge12" class="edge"><title>10R_R114_2x10R_R114_3&#45;&gt;10R_R114_14</title>
<path fill="none" stroke="black" d="M1927.96,-294.06C1985.03,-293.625 2902.21,-286.189 3168.18,-255.581 3174.4,-254.864 3180.88,-253.902 3187.32,-252.809"/>
<polygon fill="black" stroke="black" points="3188.12,-256.22 3197.34,-250.998 3186.88,-249.331 3188.12,-256.22"/>
</g>
<!-- 10R_R114_12 -->
<g id="node18" class="node"><title>10R_R114_12</title>
<ellipse fill="white" stroke="black" cx="67.1751" cy="-239.317" rx="67.3507" ry="16.0303"/>
<text text-anchor="middle" x="67.1751" y="-235.617" font-family="Times,serif" font-size="14.00">10R_R114_12</text>
</g>
<!-- 10R_R114_2x10R_R114_3&#45;&gt;10R_R114_12 -->
<g id="edge13" class="edge"><title>10R_R114_2x10R_R114_3&#45;&gt;10R_R114_12</title>
<path fill="none" stroke="black" d="M1922.53,-294.089C1855.32,-294.301 526.882,-297.921 143.175,-255.581 136.942,-254.893 130.461,-253.95 124.028,-252.867"/>
<polygon fill="black" stroke="black" points="124.461,-249.389 114,-251.068 123.225,-256.279 124.461,-249.389"/>
</g>
<!-- 10R_R114_11 -->
<g id="node20" class="node"><title>10R_R114_11</title>
<ellipse fill="dimgrey" stroke="black" cx="452.175" cy="-239.317" rx="67.3507" ry="16.0303"/>
<text text-anchor="middle" x="452.175" y="-235.617" font-family="Times,serif" font-size="14.00">10R_R114_11</text>
</g>
<!-- 10R_R114_2x10R_R114_3&#45;&gt;10R_R114_11 -->
<g id="edge15" class="edge"><title>10R_R114_2x10R_R114_3&#45;&gt;10R_R114_11</title>
<path fill="none" stroke="black" d="M1922.42,-294.071C1862.07,-293.848 827.721,-289.536 528.175,-255.581 521.945,-254.874 515.464,-253.92 509.032,-252.83"/>
<polygon fill="black" stroke="black" points="509.468,-249.352 499.005,-251.024 508.226,-256.241 509.468,-249.352"/>
</g>
<!-- 10R_R114_16 -->
<g id="node21" class="node"><title>10R_R114_16</title>
<polygon fill="#66cdaa" stroke="black" points="1041.68,-250.817 946.675,-250.817 946.675,-227.817 1041.68,-227.817 1041.68,-250.817"/>
<text text-anchor="middle" x="994.175" y="-235.617" font-family="Times,serif" font-size="14.00">10R_R114_16</text>
</g>
<!-- 10R_R114_2x10R_R114_3&#45;&gt;10R_R114_16 -->
<g id="edge17" class="edge"><title>10R_R114_2x10R_R114_3&#45;&gt;10R_R114_16</title>
<path fill="none" stroke="black" d="M1922.7,-294.047C1877.84,-293.429 1236.56,-284.137 1051.18,-255.581 1047.02,-254.94 1042.73,-254.113 1038.45,-253.174"/>
<polygon fill="black" stroke="black" points="1039.12,-249.736 1028.58,-250.82 1037.5,-256.545 1039.12,-249.736"/>
</g>
<!-- 10R_R114_15 -->
<g id="node37" class="node"><title>10R_R114_15</title>
<polygon fill="white" stroke="black" points="1307.68,-250.817 1212.68,-250.817 1212.68,-227.817 1307.68,-227.817 1307.68,-250.817"/>
<text text-anchor="middle" x="1260.18" y="-235.617" font-family="Times,serif" font-size="14.00">10R_R114_15</text>
</g>
<!-- 10R_R114_2x10R_R114_3&#45;&gt;10R_R114_15 -->
<g id="edge31" class="edge"><title>10R_R114_2x10R_R114_3&#45;&gt;10R_R114_15</title>
<path fill="none" stroke="black" d="M1922.59,-294.115C1890.75,-294.491 1570.81,-297.147 1317.18,-255.581 1313.25,-254.937 1309.2,-254.138 1305.16,-253.245"/>
<polygon fill="black" stroke="black" points="1305.75,-249.786 1295.21,-250.867 1304.12,-256.594 1305.75,-249.786"/>
</g>
<!-- 10R_R114_21 -->
<g id="node41" class="node"><title>10R_R114_21</title>
<ellipse fill="white" stroke="black" cx="1393.18" cy="-239.317" rx="67.3507" ry="16.0303"/>
<text text-anchor="middle" x="1393.18" y="-235.617" font-family="Times,serif" font-size="14.00">10R_R114_21</text>
</g>
<!-- 10R_R114_2x10R_R114_3&#45;&gt;10R_R114_21 -->
<g id="edge35" class="edge"><title>10R_R114_2x10R_R114_3&#45;&gt;10R_R114_21</title>
<path fill="none" stroke="black" d="M1922.61,-293.977C1895.52,-292.859 1658.74,-282.529 1469.18,-255.581 1463.37,-254.756 1457.34,-253.769 1451.33,-252.701"/>
<polygon fill="black" stroke="black" points="1451.75,-249.218 1441.28,-250.838 1450.47,-256.101 1451.75,-249.218"/>
</g>
<!-- 10R_R114_20 -->
<g id="node42" class="node"><title>10R_R114_20</title>
<ellipse fill="#66cdaa" stroke="black" cx="1545.18" cy="-239.317" rx="67.3507" ry="16.0303"/>
<text text-anchor="middle" x="1545.18" y="-235.617" font-family="Times,serif" font-size="14.00">10R_R114_20</text>
</g>
<!-- 10R_R114_2x10R_R114_3&#45;&gt;10R_R114_20 -->
<g id="edge36" class="edge"><title>10R_R114_2x10R_R114_3&#45;&gt;10R_R114_20</title>
<path fill="none" stroke="black" d="M1922.73,-293.84C1901.5,-291.73 1746.13,-276.013 1621.18,-255.581 1615.47,-254.649 1609.55,-253.6 1603.63,-252.5"/>
<polygon fill="black" stroke="black" points="1604.21,-249.047 1593.73,-250.612 1602.9,-255.923 1604.21,-249.047"/>
</g>
<!-- 10R_R114_18 -->
<g id="node44" class="node"><title>10R_R114_18</title>
<ellipse fill="white" stroke="black" cx="1697.18" cy="-239.317" rx="67.3507" ry="16.0303"/>
<text text-anchor="middle" x="1697.18" y="-235.617" font-family="Times,serif" font-size="14.00">10R_R114_18</text>
</g>
<!-- 10R_R114_2x10R_R114_3&#45;&gt;10R_R114_18 -->
<g id="edge38" class="edge"><title>10R_R114_2x10R_R114_3&#45;&gt;10R_R114_18</title>
<path fill="none" stroke="black" d="M1922.92,-293.549C1907.37,-289.881 1814.86,-268.068 1753.2,-253.528"/>
<polygon fill="black" stroke="black" points="1753.74,-250.06 1743.21,-251.171 1752.13,-256.873 1753.74,-250.06"/>
</g>
<!-- 10R_R114_42 -->
<g id="node45" class="node"><title>10R_R114_42</title>
<ellipse fill="white" stroke="black" cx="1849.18" cy="-239.317" rx="67.3507" ry="16.0303"/>
<text text-anchor="middle" x="1849.18" y="-235.617" font-family="Times,serif" font-size="14.00">10R_R114_42</text>
</g>
<!-- 10R_R114_2x10R_R114_3&#45;&gt;10R_R114_42 -->
<g id="edge39" class="edge"><title>10R_R114_2x10R_R114_3&#45;&gt;10R_R114_42</title>
<path fill="none" stroke="black" d="M1923.59,-292.958C1917.73,-288.811 1896.69,-273.933 1878.48,-261.047"/>
<polygon fill="black" stroke="black" points="1880.03,-257.855 1869.84,-254.937 1875.98,-263.57 1880.03,-257.855"/>
</g>
<!-- 10R_R114_13 -->
<g id="node46" class="node"><title>10R_R114_13</title>
<ellipse fill="white" stroke="black" cx="2001.18" cy="-239.317" rx="67.3507" ry="16.0303"/>
<text text-anchor="middle" x="2001.18" y="-235.617" font-family="Times,serif" font-size="14.00">10R_R114_13</text>
</g>
<!-- 10R_R114_2x10R_R114_3&#45;&gt;10R_R114_13 -->
<g id="edge40" class="edge"><title>10R_R114_2x10R_R114_3&#45;&gt;10R_R114_13</title>
<path fill="none" stroke="black" d="M1926.76,-292.958C1932.62,-288.811 1953.66,-273.933 1971.87,-261.047"/>
<polygon fill="black" stroke="black" points="1974.37,-263.57 1980.51,-254.937 1970.32,-257.855 1974.37,-263.57"/>
</g>
<!-- 10R_R114_7 -->
<g id="node48" class="node"><title>10R_R114_7</title>
<polygon fill="#66cdaa" stroke="black" points="2175.68,-250.817 2086.68,-250.817 2086.68,-227.817 2175.68,-227.817 2175.68,-250.817"/>
<text text-anchor="middle" x="2131.18" y="-235.617" font-family="Times,serif" font-size="14.00">10R_R114_7</text>
</g>
<!-- 10R_R114_2x10R_R114_3&#45;&gt;10R_R114_7 -->
<g id="edge41" class="edge"><title>10R_R114_2x10R_R114_3&#45;&gt;10R_R114_7</title>
<path fill="none" stroke="black" d="M1927.32,-293.56C1940.9,-290.265 2016.17,-271.925 2077.18,-255.581 2079.6,-254.93 2082.09,-254.255 2084.6,-253.568"/>
<polygon fill="black" stroke="black" points="2085.62,-256.919 2094.32,-250.88 2083.75,-250.173 2085.62,-256.919"/>
</g>
<!-- 10R_R114_6 -->
<g id="node53" class="node"><title>10R_R114_6</title>
<ellipse fill="dimgrey" stroke="black" cx="2256.18" cy="-239.317" rx="62.8651" ry="16.0303"/>
<text text-anchor="middle" x="2256.18" y="-235.617" font-family="Times,serif" font-size="14.00">10R_R114_6</text>
</g>
<!-- 10R_R114_2x10R_R114_3&#45;&gt;10R_R114_6 -->
<g id="edge46" class="edge"><title>10R_R114_2x10R_R114_3&#45;&gt;10R_R114_6</title>
<path fill="none" stroke="black" d="M1927.74,-293.761C1947.57,-291.272 2078.59,-274.601 2184.18,-255.581 2189.31,-254.656 2194.64,-253.638 2199.97,-252.58"/>
<polygon fill="black" stroke="black" points="2201.06,-255.929 2210.17,-250.51 2199.67,-249.069 2201.06,-255.929"/>
</g>
<!-- 10R_R114_8 -->
<g id="node55" class="node"><title>10R_R114_8</title>
<ellipse fill="dimgrey" stroke="black" cx="2400.18" cy="-239.317" rx="62.8651" ry="16.0303"/>
<text text-anchor="middle" x="2400.18" y="-235.617" font-family="Times,serif" font-size="14.00">10R_R114_8</text>
</g>
<!-- 10R_R114_2x10R_R114_3&#45;&gt;10R_R114_8 -->
<g id="edge48" class="edge"><title>10R_R114_2x10R_R114_3&#45;&gt;10R_R114_8</title>
<path fill="none" stroke="black" d="M1927.75,-293.948C1953.13,-292.613 2161.44,-281.134 2328.18,-255.581 2333.62,-254.746 2339.28,-253.759 2344.92,-252.696"/>
<polygon fill="black" stroke="black" points="2345.86,-256.077 2355,-250.714 2344.51,-249.208 2345.86,-256.077"/>
</g>
<!-- 10R_R114_37 -->
<g id="node40" class="node"><title>10R_R114_37</title>
<polygon fill="#66cdaa" stroke="black" points="819.675,-139.29 724.675,-139.29 724.675,-116.29 819.675,-116.29 819.675,-139.29"/>
<text text-anchor="middle" x="772.175" y="-124.09" font-family="Times,serif" font-size="14.00">10R_R114_37</text>
</g>
<!-- 10R_R114_27x10R_R114_9&#45;&gt;10R_R114_37 -->
<g id="edge34" class="edge"><title>10R_R114_27x10R_R114_9&#45;&gt;10R_R114_37</title>
<path fill="none" stroke="black" d="M706.831,-181.225C712.837,-176.405 733.994,-159.429 750.627,-146.082"/>
<polygon fill="black" stroke="black" points="753.199,-148.505 758.808,-139.517 748.818,-143.046 753.199,-148.505"/>
</g>
<!-- 10R_R114_36 -->
<g id="node52" class="node"><title>10R_R114_36</title>
<polygon fill="#66cdaa" stroke="black" points="706.675,-139.29 611.675,-139.29 611.675,-116.29 706.675,-116.29 706.675,-139.29"/>
<text text-anchor="middle" x="659.175" y="-124.09" font-family="Times,serif" font-size="14.00">10R_R114_36</text>
</g>
<!-- 10R_R114_27x10R_R114_9&#45;&gt;10R_R114_36 -->
<g id="edge44" class="edge"><title>10R_R114_27x10R_R114_9&#45;&gt;10R_R114_36</title>
<path fill="none" stroke="black" d="M703.645,-180.765C699.194,-175.564 685.882,-160.005 674.974,-147.256"/>
<polygon fill="black" stroke="black" points="677.431,-144.743 668.27,-139.42 672.112,-149.294 677.431,-144.743"/>
</g>
<!-- 10R_R114_22x10R_R114_1 -->
<g id="node7" class="node"><title>10R_R114_22x10R_R114_1</title>
<polygon fill="none" stroke="black" points="2736.18,-187.054 2732.68,-183.554 2736.18,-180.054 2739.68,-183.554 2736.18,-187.054"/>
</g>
<!-- 10R_R114_1&#45;&gt;10R_R114_22x10R_R114_1 -->
<g id="edge6" class="edge"><title>10R_R114_1&#45;&gt;10R_R114_22x10R_R114_1</title>
<path fill="none" stroke="black" d="M2901.58,-227.308C2853.35,-214.84 2777.65,-195.275 2748.34,-187.698"/>
<polygon fill="black" stroke="black" points="2748.96,-184.242 2738.4,-185.128 2747.2,-191.019 2748.96,-184.242"/>
</g>
<!-- 10R_R114_24 -->
<g id="node34" class="node"><title>10R_R114_24</title>
<polygon fill="#66cdaa" stroke="black" points="2839.68,-139.29 2744.68,-139.29 2744.68,-116.29 2839.68,-116.29 2839.68,-139.29"/>
<text text-anchor="middle" x="2792.18" y="-124.09" font-family="Times,serif" font-size="14.00">10R_R114_24</text>
</g>
<!-- 10R_R114_22x10R_R114_1&#45;&gt;10R_R114_24 -->
<g id="edge28" class="edge"><title>10R_R114_22x10R_R114_1&#45;&gt;10R_R114_24</title>
<path fill="none" stroke="black" d="M2737.56,-181.225C2742.5,-176.477 2759.74,-159.93 2773.54,-146.678"/>
<polygon fill="black" stroke="black" points="2775.97,-149.202 2780.76,-139.751 2771.12,-144.152 2775.97,-149.202"/>
</g>
<!-- 10R_R114_23 -->
<g id="node36" class="node"><title>10R_R114_23</title>
<polygon fill="#66cdaa" stroke="black" points="2726.68,-139.29 2631.68,-139.29 2631.68,-116.29 2726.68,-116.29 2726.68,-139.29"/>
<text text-anchor="middle" x="2679.18" y="-124.09" font-family="Times,serif" font-size="14.00">10R_R114_23</text>
</g>
<!-- 10R_R114_22x10R_R114_1&#45;&gt;10R_R114_23 -->
<g id="edge30" class="edge"><title>10R_R114_22x10R_R114_1&#45;&gt;10R_R114_23</title>
<path fill="none" stroke="black" d="M2734.77,-181.225C2729.7,-176.45 2711.99,-159.739 2697.9,-146.45"/>
<polygon fill="black" stroke="black" points="2700.22,-143.832 2690.55,-139.517 2695.42,-148.924 2700.22,-143.832"/>
</g>
<!-- 10R_R114_R12 -->
<g id="node8" class="node"><title>10R_R114_R12</title>
<ellipse fill="#66cdaa" stroke="black" cx="3324.18" cy="-350.844" rx="73.5782" ry="16.0303"/>
<text text-anchor="middle" x="3324.18" y="-347.144" font-family="Times,serif" font-size="14.00">10R_R114_R12</text>
</g>
<!-- 10R_R114_R28x10R_R114_R12 -->
<g id="node9" class="node"><title>10R_R114_R28x10R_R114_R12</title>
<polygon fill="none" stroke="black" points="3396.18,-298.581 3392.68,-295.081 3396.18,-291.581 3399.68,-295.081 3396.18,-298.581"/>
</g>
<!-- 10R_R114_R12&#45;&gt;10R_R114_R28x10R_R114_R12 -->
<g id="edge7" class="edge"><title>10R_R114_R12&#45;&gt;10R_R114_R28x10R_R114_R12</title>
<path fill="none" stroke="black" d="M3343.85,-335.153C3357.59,-324.893 3375.35,-311.627 3386.25,-303.493"/>
<polygon fill="black" stroke="black" points="3388.53,-306.157 3394.45,-297.37 3384.34,-300.549 3388.53,-306.157"/>
</g>
<!-- 10R_R114_49 -->
<g id="node30" class="node"><title>10R_R114_49</title>
<ellipse fill="#66cdaa" stroke="black" cx="3396.18" cy="-239.317" rx="67.3507" ry="16.0303"/>
<text text-anchor="middle" x="3396.18" y="-235.617" font-family="Times,serif" font-size="14.00">10R_R114_49</text>
</g>
<!-- 10R_R114_R28x10R_R114_R12&#45;&gt;10R_R114_49 -->
<g id="edge24" class="edge"><title>10R_R114_R28x10R_R114_R12&#45;&gt;10R_R114_49</title>
<path fill="none" stroke="black" d="M3396.18,-291.488C3396.18,-286.705 3396.18,-276.035 3396.18,-265.669"/>
<polygon fill="black" stroke="black" points="3399.68,-265.634 3396.18,-255.634 3392.68,-265.634 3399.68,-265.634"/>
</g>
<!-- 10R_R114_36c -->
<g id="node10" class="node"><title>10R_R114_36c</title>
<ellipse fill="#66cdaa" stroke="black" cx="1135.18" cy="-127.79" rx="71.3357" ry="16.0303"/>
<text text-anchor="middle" x="1135.18" y="-124.09" font-family="Times,serif" font-size="14.00">10R_R114_36c</text>
</g>
<!-- 10R_R114_36x10R_R114_36c -->
<g id="node11" class="node"><title>10R_R114_36x10R_R114_36c</title>
<polygon fill="none" stroke="black" points="897.175,-75.5269 893.675,-72.0269 897.175,-68.5269 900.675,-72.0269 897.175,-75.5269"/>
</g>
<!-- 10R_R114_36c&#45;&gt;10R_R114_36x10R_R114_36c -->
<g id="edge8" class="edge"><title>10R_R114_36c&#45;&gt;10R_R114_36x10R_R114_36c</title>
<path fill="none" stroke="black" d="M1086.44,-115.781C1030.27,-103.093 941.57,-83.0555 909.367,-75.7811"/>
<polygon fill="black" stroke="black" points="909.81,-72.293 899.285,-73.5035 908.268,-79.121 909.81,-72.293"/>
</g>
<!-- 10R_R114_48 -->
<g id="node43" class="node"><title>10R_R114_48</title>
<ellipse fill="#66cdaa" stroke="black" cx="897.175" cy="-16.2635" rx="67.3507" ry="16.0303"/>
<text text-anchor="middle" x="897.175" y="-12.5635" font-family="Times,serif" font-size="14.00">10R_R114_48</text>
</g>
<!-- 10R_R114_36x10R_R114_36c&#45;&gt;10R_R114_48 -->
<g id="edge37" class="edge"><title>10R_R114_36x10R_R114_36c&#45;&gt;10R_R114_48</title>
<path fill="none" stroke="black" d="M897.175,-68.4338C897.175,-63.6514 897.175,-52.9811 897.175,-42.6151"/>
<polygon fill="black" stroke="black" points="900.675,-42.5799 897.175,-32.58 893.675,-42.58 900.675,-42.5799"/>
</g>
<!-- 10R_R114_11c -->
<g id="node13" class="node"><title>10R_R114_11c</title>
<polygon fill="#66cdaa" stroke="black" points="366.675,-250.817 265.675,-250.817 265.675,-227.817 366.675,-227.817 366.675,-250.817"/>
<text text-anchor="middle" x="316.175" y="-235.617" font-family="Times,serif" font-size="14.00">10R_R114_11c</text>
</g>
<!-- 10R_R114_11cx10R_R114_11 -->
<g id="node14" class="node"><title>10R_R114_11cx10R_R114_11</title>
<polygon fill="none" stroke="black" points="393.175,-187.054 389.675,-183.554 393.175,-180.054 396.675,-183.554 393.175,-187.054"/>
</g>
<!-- 10R_R114_11c&#45;&gt;10R_R114_11cx10R_R114_11 -->
<g id="edge10" class="edge"><title>10R_R114_11c&#45;&gt;10R_R114_11cx10R_R114_11</title>
<path fill="none" stroke="black" d="M331.388,-227.695C346.728,-216.985 369.968,-200.757 383.14,-191.561"/>
<polygon fill="black" stroke="black" points="385.245,-194.36 391.441,-185.765 381.238,-188.62 385.245,-194.36"/>
</g>
<!-- 10R_R114_47 -->
<g id="node33" class="node"><title>10R_R114_47</title>
<polygon fill="#66cdaa" stroke="black" points="440.675,-139.29 345.675,-139.29 345.675,-116.29 440.675,-116.29 440.675,-139.29"/>
<text text-anchor="middle" x="393.175" y="-124.09" font-family="Times,serif" font-size="14.00">10R_R114_47</text>
</g>
<!-- 10R_R114_11cx10R_R114_11&#45;&gt;10R_R114_47 -->
<g id="edge27" class="edge"><title>10R_R114_11cx10R_R114_11&#45;&gt;10R_R114_47</title>
<path fill="none" stroke="black" d="M393.175,-179.961C393.175,-174.493 393.175,-161.327 393.175,-149.721"/>
<polygon fill="black" stroke="black" points="396.675,-149.372 393.175,-139.372 389.675,-149.372 396.675,-149.372"/>
</g>
<!-- 10R_R114_25 -->
<g id="node15" class="node"><title>10R_R114_25</title>
<polygon fill="#66cdaa" stroke="black" points="3633.68,-362.344 3538.68,-362.344 3538.68,-339.344 3633.68,-339.344 3633.68,-362.344"/>
<text text-anchor="middle" x="3586.18" y="-347.144" font-family="Times,serif" font-size="14.00">10R_R114_25</text>
</g>
<!-- 10R_R114_R28 -->
<g id="node16" class="node"><title>10R_R114_R28</title>
<polygon fill="#66cdaa" stroke="black" points="3520.18,-362.344 3416.18,-362.344 3416.18,-339.344 3520.18,-339.344 3520.18,-362.344"/>
<text text-anchor="middle" x="3468.18" y="-347.144" font-family="Times,serif" font-size="14.00">10R_R114_R28</text>
</g>
<!-- 10R_R114_R28&#45;&gt;10R_R114_R28x10R_R114_R12 -->
<g id="edge11" class="edge"><title>10R_R114_R28&#45;&gt;10R_R114_R28x10R_R114_R12</title>
<path fill="none" stroke="black" d="M3453.95,-339.222C3439.75,-328.619 3418.31,-312.608 3405.93,-303.366"/>
<polygon fill="black" stroke="black" points="3407.9,-300.471 3397.8,-297.292 3403.72,-306.079 3407.9,-300.471"/>
</g>
<!-- 10R_R114_28x10R_R114_12 -->
<g id="node19" class="node"><title>10R_R114_28x10R_R114_12</title>
<polygon fill="none" stroke="black" points="115.175,-187.054 111.675,-183.554 115.175,-180.054 118.675,-183.554 115.175,-187.054"/>
</g>
<!-- 10R_R114_12&#45;&gt;10R_R114_28x10R_R114_12 -->
<g id="edge14" class="edge"><title>10R_R114_12&#45;&gt;10R_R114_28x10R_R114_12</title>
<path fill="none" stroke="black" d="M80.5458,-223.341C89.0654,-213.799 99.8245,-201.748 107.071,-193.631"/>
<polygon fill="black" stroke="black" points="109.732,-195.906 113.781,-186.116 104.51,-191.244 109.732,-195.906"/>
</g>
<!-- 10R_R114_51 -->
<g id="node27" class="node"><title>10R_R114_51</title>
<ellipse fill="#66cdaa" stroke="black" cx="212.175" cy="-127.79" rx="67.3507" ry="16.0303"/>
<text text-anchor="middle" x="212.175" y="-124.09" font-family="Times,serif" font-size="14.00">10R_R114_51</text>
</g>
<!-- 10R_R114_28x10R_R114_12&#45;&gt;10R_R114_51 -->
<g id="edge22" class="edge"><title>10R_R114_28x10R_R114_12&#45;&gt;10R_R114_51</title>
<path fill="none" stroke="black" d="M116.859,-181.621C124.086,-177.615 153.214,-161.47 177.389,-148.071"/>
<polygon fill="black" stroke="black" points="179.306,-151.01 186.356,-143.101 175.913,-144.888 179.306,-151.01"/>
</g>
<!-- 10R_R114_50 -->
<g id="node29" class="node"><title>10R_R114_50</title>
<polygon fill="#66cdaa" stroke="black" points="126.675,-139.29 31.6751,-139.29 31.6751,-116.29 126.675,-116.29 126.675,-139.29"/>
<text text-anchor="middle" x="79.1751" y="-124.09" font-family="Times,serif" font-size="14.00">10R_R114_50</text>
</g>
<!-- 10R_R114_28x10R_R114_12&#45;&gt;10R_R114_50 -->
<g id="edge23" class="edge"><title>10R_R114_28x10R_R114_12&#45;&gt;10R_R114_50</title>
<path fill="none" stroke="black" d="M113.977,-180.765C110.561,-175.663 100.471,-160.594 92.0294,-147.987"/>
<polygon fill="black" stroke="black" points="94.7651,-145.782 86.293,-139.42 88.9486,-149.677 94.7651,-145.782"/>
</g>
<!-- 10R_R114_11&#45;&gt;10R_R114_11cx10R_R114_11 -->
<g id="edge16" class="edge"><title>10R_R114_11&#45;&gt;10R_R114_11cx10R_R114_11</title>
<path fill="none" stroke="black" d="M435.74,-223.341C424.84,-213.408 410.957,-200.758 402.066,-192.656"/>
<polygon fill="black" stroke="black" points="404.322,-189.977 394.574,-185.828 399.608,-195.151 404.322,-189.977"/>
</g>
<!-- 10R_R114_16x10R_R114_32 -->
<g id="node22" class="node"><title>10R_R114_16x10R_R114_32</title>
<polygon fill="none" stroke="black" points="885.175,-187.054 881.675,-183.554 885.175,-180.054 888.675,-183.554 885.175,-187.054"/>
</g>
<!-- 10R_R114_16&#45;&gt;10R_R114_16x10R_R114_32 -->
<g id="edge18" class="edge"><title>10R_R114_16&#45;&gt;10R_R114_16x10R_R114_32</title>
<path fill="none" stroke="black" d="M972.64,-227.695C949.653,-216.357 914.134,-198.838 896.257,-190.02"/>
<polygon fill="black" stroke="black" points="897.587,-186.773 887.07,-185.488 894.49,-193.051 897.587,-186.773"/>
</g>
<!-- 10R_R114_46 -->
<g id="node23" class="node"><title>10R_R114_46</title>
<polygon fill="#66cdaa" stroke="black" points="932.675,-139.29 837.675,-139.29 837.675,-116.29 932.675,-116.29 932.675,-139.29"/>
<text text-anchor="middle" x="885.175" y="-124.09" font-family="Times,serif" font-size="14.00">10R_R114_46</text>
</g>
<!-- 10R_R114_16x10R_R114_32&#45;&gt;10R_R114_46 -->
<g id="edge19" class="edge"><title>10R_R114_16x10R_R114_32&#45;&gt;10R_R114_46</title>
<path fill="none" stroke="black" d="M885.175,-179.961C885.175,-174.493 885.175,-161.327 885.175,-149.721"/>
<polygon fill="black" stroke="black" points="888.675,-149.372 885.175,-139.372 881.675,-149.372 888.675,-149.372"/>
</g>
<!-- 10R_R114_45 -->
<g id="node24" class="node"><title>10R_R114_45</title>
<ellipse fill="#66cdaa" stroke="black" cx="1292.18" cy="-127.79" rx="67.3507" ry="16.0303"/>
<text text-anchor="middle" x="1292.18" y="-124.09" font-family="Times,serif" font-size="14.00">10R_R114_45</text>
</g>
<!-- 10R_R114_15x10R_R114_31 -->
<g id="node25" class="node"><title>10R_R114_15x10R_R114_31</title>
<polygon fill="none" stroke="black" points="1193.18,-187.054 1189.68,-183.554 1193.18,-180.054 1196.68,-183.554 1193.18,-187.054"/>
</g>
<!-- 10R_R114_15x10R_R114_31&#45;&gt;10R_R114_45 -->
<g id="edge20" class="edge"><title>10R_R114_15x10R_R114_31&#45;&gt;10R_R114_45</title>
<path fill="none" stroke="black" d="M1194.89,-181.621C1202.35,-177.572 1232.63,-161.126 1257.46,-147.645"/>
<polygon fill="black" stroke="black" points="1259.18,-150.69 1266.3,-142.841 1255.84,-144.538 1259.18,-150.69"/>
</g>
<!-- 10R_R114_44 -->
<g id="node26" class="node"><title>10R_R114_44</title>
<polygon fill="#66cdaa" stroke="black" points="1045.68,-139.29 950.675,-139.29 950.675,-116.29 1045.68,-116.29 1045.68,-139.29"/>
<text text-anchor="middle" x="998.175" y="-124.09" font-family="Times,serif" font-size="14.00">10R_R114_44</text>
</g>
<!-- 10R_R114_15x10R_R114_31&#45;&gt;10R_R114_44 -->
<g id="edge21" class="edge"><title>10R_R114_15x10R_R114_31&#45;&gt;10R_R114_44</title>
<path fill="none" stroke="black" d="M1190.99,-181.95C1176.95,-178.081 1098.57,-156.471 1046.17,-142.022"/>
<polygon fill="black" stroke="black" points="1046.95,-138.608 1036.38,-139.324 1045.09,-145.356 1046.95,-138.608"/>
</g>
<!-- 10R_R114_30 -->
<g id="node28" class="node"><title>10R_R114_30</title>
<polygon fill="#66cdaa" stroke="black" points="3746.68,-362.344 3651.68,-362.344 3651.68,-339.344 3746.68,-339.344 3746.68,-362.344"/>
<text text-anchor="middle" x="3699.18" y="-347.144" font-family="Times,serif" font-size="14.00">10R_R114_30</text>
</g>
<!-- 10R_R114_2 -->
<g id="node31" class="node"><title>10R_R114_2</title>
<polygon fill="white" stroke="black" points="1907.68,-362.344 1818.68,-362.344 1818.68,-339.344 1907.68,-339.344 1907.68,-362.344"/>
<text text-anchor="middle" x="1863.18" y="-347.144" font-family="Times,serif" font-size="14.00">10R_R114_2</text>
</g>
<!-- 10R_R114_2&#45;&gt;10R_R114_2x10R_R114_3 -->
<g id="edge25" class="edge"><title>10R_R114_2&#45;&gt;10R_R114_2x10R_R114_3</title>
<path fill="none" stroke="black" d="M1875.42,-339.222C1887.41,-328.833 1905.37,-313.253 1916.12,-303.934"/>
<polygon fill="black" stroke="black" points="1918.52,-306.488 1923.78,-297.292 1913.93,-301.199 1918.52,-306.488"/>
</g>
<!-- 10R_R114_31 -->
<g id="node32" class="node"><title>10R_R114_31</title>
<ellipse fill="#66cdaa" stroke="black" cx="1127.18" cy="-239.317" rx="67.3507" ry="16.0303"/>
<text text-anchor="middle" x="1127.18" y="-235.617" font-family="Times,serif" font-size="14.00">10R_R114_31</text>
</g>
<!-- 10R_R114_31&#45;&gt;10R_R114_15x10R_R114_31 -->
<g id="edge26" class="edge"><title>10R_R114_31&#45;&gt;10R_R114_15x10R_R114_31</title>
<path fill="none" stroke="black" d="M1145.21,-223.626C1157.67,-213.473 1173.75,-200.377 1183.76,-192.222"/>
<polygon fill="black" stroke="black" points="1186.05,-194.872 1191.59,-185.843 1181.63,-189.445 1186.05,-194.872"/>
</g>
<!-- 10R_R114_32 -->
<g id="node35" class="node"><title>10R_R114_32</title>
<ellipse fill="#66cdaa" stroke="black" cx="861.175" cy="-239.317" rx="67.3507" ry="16.0303"/>
<text text-anchor="middle" x="861.175" y="-235.617" font-family="Times,serif" font-size="14.00">10R_R114_32</text>
</g>
<!-- 10R_R114_32&#45;&gt;10R_R114_16x10R_R114_32 -->
<g id="edge29" class="edge"><title>10R_R114_32&#45;&gt;10R_R114_16x10R_R114_32</title>
<path fill="none" stroke="black" d="M867.988,-223.055C871.89,-214.314 876.698,-203.543 880.236,-195.619"/>
<polygon fill="black" stroke="black" points="883.467,-196.967 884.347,-186.408 877.075,-194.113 883.467,-196.967"/>
</g>
<!-- 10R_R114_15&#45;&gt;10R_R114_15x10R_R114_31 -->
<g id="edge32" class="edge"><title>10R_R114_15&#45;&gt;10R_R114_15x10R_R114_31</title>
<path fill="none" stroke="black" d="M1246.94,-227.695C1233.86,-217.199 1214.17,-201.404 1202.61,-192.121"/>
<polygon fill="black" stroke="black" points="1204.67,-189.294 1194.68,-185.765 1200.29,-194.753 1204.67,-189.294"/>
</g>
<!-- 10R_R114_34 -->
<g id="node38" class="node"><title>10R_R114_34</title>
<polygon fill="#66cdaa" stroke="black" points="3859.68,-362.344 3764.68,-362.344 3764.68,-339.344 3859.68,-339.344 3859.68,-362.344"/>
<text text-anchor="middle" x="3812.18" y="-347.144" font-family="Times,serif" font-size="14.00">10R_R114_34</text>
</g>
<!-- 10R_R114_22 -->
<g id="node39" class="node"><title>10R_R114_22</title>
<polygon fill="#66cdaa" stroke="black" points="2575.68,-250.817 2480.68,-250.817 2480.68,-227.817 2575.68,-227.817 2575.68,-250.817"/>
<text text-anchor="middle" x="2528.18" y="-235.617" font-family="Times,serif" font-size="14.00">10R_R114_22</text>
</g>
<!-- 10R_R114_22&#45;&gt;10R_R114_22x10R_R114_1 -->
<g id="edge33" class="edge"><title>10R_R114_22&#45;&gt;10R_R114_22x10R_R114_1</title>
<path fill="none" stroke="black" d="M2566.41,-227.798C2572.35,-226.191 2578.43,-224.566 2584.18,-223.054 2636.19,-209.379 2698.45,-193.882 2724.16,-187.519"/>
<polygon fill="black" stroke="black" points="2725.16,-190.877 2734.03,-185.082 2723.48,-184.082 2725.16,-190.877"/>
</g>
<!-- 10R_R114_26 -->
<g id="node47" class="node"><title>10R_R114_26</title>
<polygon fill="#66cdaa" stroke="black" points="3972.68,-362.344 3877.68,-362.344 3877.68,-339.344 3972.68,-339.344 3972.68,-362.344"/>
<text text-anchor="middle" x="3925.18" y="-347.144" font-family="Times,serif" font-size="14.00">10R_R114_26</text>
</g>
<!-- 10R_R114_27 -->
<g id="node49" class="node"><title>10R_R114_27</title>
<polygon fill="dimgrey" stroke="black" points="775.675,-250.817 680.675,-250.817 680.675,-227.817 775.675,-227.817 775.675,-250.817"/>
<text text-anchor="middle" x="728.175" y="-235.617" font-family="Times,serif" font-size="14.00">10R_R114_27</text>
</g>
<!-- 10R_R114_27&#45;&gt;10R_R114_27x10R_R114_9 -->
<g id="edge42" class="edge"><title>10R_R114_27&#45;&gt;10R_R114_27x10R_R114_9</title>
<path fill="none" stroke="black" d="M723.631,-227.695C719.699,-218.503 714.028,-205.248 710.012,-195.861"/>
<polygon fill="black" stroke="black" points="713.123,-194.234 705.972,-186.416 706.687,-196.987 713.123,-194.234"/>
</g>
<!-- 10R_R114_29 -->
<g id="node50" class="node"><title>10R_R114_29</title>
<polygon fill="#66cdaa" stroke="black" points="4085.68,-362.344 3990.68,-362.344 3990.68,-339.344 4085.68,-339.344 4085.68,-362.344"/>
<text text-anchor="middle" x="4038.18" y="-347.144" font-family="Times,serif" font-size="14.00">10R_R114_29</text>
</g>
<!-- 10R_R114_3 -->
<g id="node51" class="node"><title>10R_R114_3</title>
<ellipse fill="dimgrey" stroke="black" cx="1988.18" cy="-350.844" rx="62.8651" ry="16.0303"/>
<text text-anchor="middle" x="1988.18" y="-347.144" font-family="Times,serif" font-size="14.00">10R_R114_3</text>
</g>
<!-- 10R_R114_3&#45;&gt;10R_R114_2x10R_R114_3 -->
<g id="edge43" class="edge"><title>10R_R114_3&#45;&gt;10R_R114_2x10R_R114_3</title>
<path fill="none" stroke="black" d="M1970.96,-335.153C1959.19,-325.107 1944.04,-312.179 1934.46,-304.008"/>
<polygon fill="black" stroke="black" points="1936.56,-301.199 1926.69,-297.37 1932.02,-306.524 1936.56,-301.199"/>
</g>
<!-- 10R_R114_36&#45;&gt;10R_R114_36x10R_R114_36c -->
<g id="edge45" class="edge"><title>10R_R114_36&#45;&gt;10R_R114_36x10R_R114_36c</title>
<path fill="none" stroke="black" d="M696.752,-116.229C702.894,-114.595 709.2,-112.972 715.175,-111.527 778.875,-96.1218 855.943,-80.9487 885.163,-75.319"/>
<polygon fill="black" stroke="black" points="885.837,-78.7537 895.001,-73.4375 884.522,-71.8783 885.837,-78.7537"/>
</g>
<!-- 10R_R114_28 -->
<g id="node54" class="node"><title>10R_R114_28</title>
<polygon fill="#66cdaa" stroke="black" points="247.675,-250.817 152.675,-250.817 152.675,-227.817 247.675,-227.817 247.675,-250.817"/>
<text text-anchor="middle" x="200.175" y="-235.617" font-family="Times,serif" font-size="14.00">10R_R114_28</text>
</g>
<!-- 10R_R114_28&#45;&gt;10R_R114_28x10R_R114_12 -->
<g id="edge47" class="edge"><title>10R_R114_28&#45;&gt;10R_R114_28x10R_R114_12</title>
<path fill="none" stroke="black" d="M183.382,-227.695C166.279,-216.877 140.279,-200.432 125.821,-191.287"/>
<polygon fill="black" stroke="black" points="127.412,-188.153 117.09,-185.765 123.67,-194.068 127.412,-188.153"/>
</g>
</g>
</svg>
