<?xml version="1.0" encoding="UTF-8" standalone="no"?>
<!DOCTYPE svg PUBLIC "-//W3C//DTD SVG 1.1//EN"
 "http://www.w3.org/Graphics/SVG/1.1/DTD/svg11.dtd">
<!-- Generated by graphviz version 2.38.0 (20140413.2041)
 -->
<!-- Title: %3 Pages: 1 -->
<svg width="361pt" height="254pt"
 viewBox="0.00 0.00 360.50 254.05" xmlns="http://www.w3.org/2000/svg" xmlns:xlink="http://www.w3.org/1999/xlink">
<g id="graph0" class="graph" transform="scale(1 1) rotate(0) translate(4 250.054)">
<title>%3</title>
<polygon fill="white" stroke="none" points="-4,4 -4,-250.054 356.5,-250.054 356.5,4 -4,4"/>
<!-- 2_19_6 -->
<g id="node1" class="node"><title>2_19_6</title>
<ellipse fill="dimgrey" stroke="black" cx="115.5" cy="-118.263" rx="40.1111" ry="16.0303"/>
<text text-anchor="middle" x="115.5" y="-114.563" font-family="Times,serif" font-size="14.00">2_19_6</text>
</g>
<!-- 2_19_2x2_19_3 -->
<g id="node2" class="node"><title>2_19_2x2_19_3</title>
<polygon fill="none" stroke="black" points="164.5,-177.527 161,-174.027 164.5,-170.527 168,-174.027 164.5,-177.527"/>
</g>
<!-- 2_19_2x2_19_3&#45;&gt;2_19_6 -->
<g id="edge1" class="edge"><title>2_19_2x2_19_3&#45;&gt;2_19_6</title>
<path fill="none" stroke="black" d="M163.289,-171.698C159.383,-167.413 146.719,-153.517 135.408,-141.107"/>
<polygon fill="black" stroke="black" points="137.954,-138.704 128.631,-133.671 132.78,-143.42 137.954,-138.704"/>
</g>
<!-- 2_19_1 -->
<g id="node9" class="node"><title>2_19_1</title>
<ellipse fill="#66cdaa" stroke="black" cx="214.5" cy="-118.263" rx="40.1111" ry="16.0303"/>
<text text-anchor="middle" x="214.5" y="-114.563" font-family="Times,serif" font-size="14.00">2_19_1</text>
</g>
<!-- 2_19_2x2_19_3&#45;&gt;2_19_1 -->
<g id="edge6" class="edge"><title>2_19_2x2_19_3&#45;&gt;2_19_1</title>
<path fill="none" stroke="black" d="M165.736,-171.698C169.721,-167.413 182.644,-153.517 194.186,-141.107"/>
<polygon fill="black" stroke="black" points="196.854,-143.377 201.101,-133.671 191.728,-138.61 196.854,-143.377"/>
</g>
<!-- 2_19_2 -->
<g id="node3" class="node"><title>2_19_2</title>
<polygon fill="#66cdaa" stroke="black" points="150,-241.29 93,-241.29 93,-218.29 150,-218.29 150,-241.29"/>
<text text-anchor="middle" x="121.5" y="-226.09" font-family="Times,serif" font-size="14.00">2_19_2</text>
</g>
<!-- 2_19_2&#45;&gt;2_19_2x2_19_3 -->
<g id="edge2" class="edge"><title>2_19_2&#45;&gt;2_19_2x2_19_3</title>
<path fill="none" stroke="black" d="M129.995,-218.168C137.82,-208.385 149.325,-194 156.865,-184.573"/>
<polygon fill="black" stroke="black" points="159.771,-186.543 163.284,-176.548 154.304,-182.171 159.771,-186.543"/>
</g>
<!-- 2_19_3 -->
<g id="node4" class="node"><title>2_19_3</title>
<ellipse fill="dimgrey" stroke="black" cx="208.5" cy="-229.79" rx="40.1111" ry="16.0303"/>
<text text-anchor="middle" x="208.5" y="-226.09" font-family="Times,serif" font-size="14.00">2_19_3</text>
</g>
<!-- 2_19_3&#45;&gt;2_19_2x2_19_3 -->
<g id="edge3" class="edge"><title>2_19_3&#45;&gt;2_19_2x2_19_3</title>
<path fill="none" stroke="black" d="M196.477,-214.099C188.748,-204.656 178.935,-192.665 172.231,-184.474"/>
<polygon fill="black" stroke="black" points="174.835,-182.129 165.793,-176.607 169.418,-186.562 174.835,-182.129"/>
</g>
<!-- 2_19_9 -->
<g id="node5" class="node"><title>2_19_9</title>
<polygon fill="#66cdaa" stroke="black" points="57,-129.763 0,-129.763 0,-106.763 57,-106.763 57,-129.763"/>
<text text-anchor="middle" x="28.5" y="-114.563" font-family="Times,serif" font-size="14.00">2_19_9</text>
</g>
<!-- 2_19_9x2_19_1 -->
<g id="node6" class="node"><title>2_19_9x2_19_1</title>
<polygon fill="none" stroke="black" points="121.5,-66 118,-62.5 121.5,-59 125,-62.5 121.5,-66"/>
</g>
<!-- 2_19_9&#45;&gt;2_19_9x2_19_1 -->
<g id="edge4" class="edge"><title>2_19_9&#45;&gt;2_19_9x2_19_1</title>
<path fill="none" stroke="black" d="M46.8738,-106.642C66.1093,-95.5215 95.6303,-78.4553 111.148,-69.4843"/>
<polygon fill="black" stroke="black" points="112.978,-72.4696 119.883,-64.4346 109.474,-66.4094 112.978,-72.4696"/>
</g>
<!-- 2_19_11 -->
<g id="node8" class="node"><title>2_19_11</title>
<polygon fill="white" stroke="black" points="153.5,-23 89.5,-23 89.5,-0 153.5,-0 153.5,-23"/>
<text text-anchor="middle" x="121.5" y="-7.8" font-family="Times,serif" font-size="14.00">2_19_11</text>
</g>
<!-- 2_19_9x2_19_1&#45;&gt;2_19_11 -->
<g id="edge5" class="edge"><title>2_19_9x2_19_1&#45;&gt;2_19_11</title>
<path fill="none" stroke="black" d="M121.5,-58.8655C121.5,-54.0189 121.5,-43.2742 121.5,-33.3477"/>
<polygon fill="black" stroke="black" points="125,-33.2154 121.5,-23.2154 118,-33.2154 125,-33.2154"/>
</g>
<!-- 2_19_B2003 -->
<g id="node7" class="node"><title>2_19_B2003</title>
<polygon fill="white" stroke="black" points="352.5,-241.29 266.5,-241.29 266.5,-218.29 352.5,-218.29 352.5,-241.29"/>
<text text-anchor="middle" x="309.5" y="-226.09" font-family="Times,serif" font-size="14.00">2_19_B2003</text>
</g>
<!-- 2_19_1&#45;&gt;2_19_9x2_19_1 -->
<g id="edge7" class="edge"><title>2_19_1&#45;&gt;2_19_9x2_19_1</title>
<path fill="none" stroke="black" d="M192.46,-104.522C173.473,-93.5454 146.878,-78.171 132.232,-69.7041"/>
<polygon fill="black" stroke="black" points="133.83,-66.5854 123.421,-64.6106 130.327,-72.6456 133.83,-66.5854"/>
</g>
</g>
</svg>
