<?xml version="1.0" encoding="UTF-8" standalone="no"?>
<!DOCTYPE svg PUBLIC "-//W3C//DTD SVG 1.1//EN"
 "http://www.w3.org/Graphics/SVG/1.1/DTD/svg11.dtd">
<!-- Generated by graphviz version 2.38.0 (20140413.2041)
 -->
<!-- Title: %3 Pages: 1 -->
<svg width="745pt" height="264pt"
 viewBox="0.00 0.00 745.00 263.58" xmlns="http://www.w3.org/2000/svg" xmlns:xlink="http://www.w3.org/1999/xlink">
<g id="graph0" class="graph" transform="scale(1 1) rotate(0) translate(4 259.581)">
<title>%3</title>
<polygon fill="white" stroke="none" points="-4,4 -4,-259.581 741,-259.581 741,4 -4,4"/>
<!-- 27_55_83833 -->
<g id="node1" class="node"><title>27_55_83833</title>
<ellipse fill="dimgrey" stroke="black" cx="173.5" cy="-127.79" rx="64.1938" ry="16.0303"/>
<text text-anchor="middle" x="173.5" y="-124.09" font-family="Times,serif" font-size="14.00">27_55_83833</text>
</g>
<!-- 27_55_84438x27_55_84437 -->
<g id="node2" class="node"><title>27_55_84438x27_55_84437</title>
<polygon fill="none" stroke="black" points="320.5,-187.054 317,-183.554 320.5,-180.054 324,-183.554 320.5,-187.054"/>
</g>
<!-- 27_55_84438x27_55_84437&#45;&gt;27_55_83833 -->
<g id="edge1" class="edge"><title>27_55_84438x27_55_84437&#45;&gt;27_55_83833</title>
<path fill="none" stroke="black" d="M318.422,-181.794C307.548,-177.817 256.235,-159.05 217.73,-144.967"/>
<polygon fill="black" stroke="black" points="218.843,-141.647 208.25,-141.5 216.439,-148.222 218.843,-141.647"/>
</g>
<!-- 27_55_84619 -->
<g id="node5" class="node"><title>27_55_84619</title>
<ellipse fill="dimgrey" stroke="black" cx="320.5" cy="-127.79" rx="64.1938" ry="16.0303"/>
<text text-anchor="middle" x="320.5" y="-124.09" font-family="Times,serif" font-size="14.00">27_55_84619</text>
</g>
<!-- 27_55_84438x27_55_84437&#45;&gt;27_55_84619 -->
<g id="edge3" class="edge"><title>27_55_84438x27_55_84437&#45;&gt;27_55_84619</title>
<path fill="none" stroke="black" d="M320.5,-179.961C320.5,-175.178 320.5,-164.508 320.5,-154.142"/>
<polygon fill="black" stroke="black" points="324,-154.107 320.5,-144.107 317,-154.107 324,-154.107"/>
</g>
<!-- 27_55_83832 -->
<g id="node6" class="node"><title>27_55_83832</title>
<ellipse fill="dimgrey" stroke="black" cx="467.5" cy="-127.79" rx="64.1938" ry="16.0303"/>
<text text-anchor="middle" x="467.5" y="-124.09" font-family="Times,serif" font-size="14.00">27_55_83832</text>
</g>
<!-- 27_55_84438x27_55_84437&#45;&gt;27_55_83832 -->
<g id="edge4" class="edge"><title>27_55_84438x27_55_84437&#45;&gt;27_55_83832</title>
<path fill="none" stroke="black" d="M322.578,-181.794C333.452,-177.817 384.765,-159.05 423.27,-144.967"/>
<polygon fill="black" stroke="black" points="424.561,-148.222 432.75,-141.5 422.157,-141.647 424.561,-148.222"/>
</g>
<!-- 27_55_84798 -->
<g id="node3" class="node"><title>27_55_84798</title>
<ellipse fill="white" stroke="black" cx="183.5" cy="-16.2635" rx="64.1938" ry="16.0303"/>
<text text-anchor="middle" x="183.5" y="-12.5635" font-family="Times,serif" font-size="14.00">27_55_84798</text>
</g>
<!-- 27_55_84966x27_55_83832 -->
<g id="node4" class="node"><title>27_55_84966x27_55_83832</title>
<polygon fill="none" stroke="black" points="256.5,-75.5269 253,-72.0269 256.5,-68.5269 260,-72.0269 256.5,-75.5269"/>
</g>
<!-- 27_55_84966x27_55_83832&#45;&gt;27_55_84798 -->
<g id="edge2" class="edge"><title>27_55_84966x27_55_83832&#45;&gt;27_55_84798</title>
<path fill="none" stroke="black" d="M254.975,-69.904C249.345,-65.7572 229.143,-50.8789 211.647,-37.9933"/>
<polygon fill="black" stroke="black" points="213.479,-34.9955 203.351,-31.8835 209.328,-40.6319 213.479,-34.9955"/>
</g>
<!-- 27_55_84834 -->
<g id="node13" class="node"><title>27_55_84834</title>
<ellipse fill="white" stroke="black" cx="330.5" cy="-16.2635" rx="64.1938" ry="16.0303"/>
<text text-anchor="middle" x="330.5" y="-12.5635" font-family="Times,serif" font-size="14.00">27_55_84834</text>
</g>
<!-- 27_55_84966x27_55_83832&#45;&gt;27_55_84834 -->
<g id="edge11" class="edge"><title>27_55_84966x27_55_83832&#45;&gt;27_55_84834</title>
<path fill="none" stroke="black" d="M258.046,-69.904C263.753,-65.7572 284.232,-50.8789 301.967,-37.9933"/>
<polygon fill="black" stroke="black" points="304.344,-40.593 310.377,-31.8835 300.229,-34.9298 304.344,-40.593"/>
</g>
<!-- 27_55_83832&#45;&gt;27_55_84966x27_55_83832 -->
<g id="edge5" class="edge"><title>27_55_83832&#45;&gt;27_55_84966x27_55_83832</title>
<path fill="none" stroke="black" d="M424.037,-115.716C375.076,-103.24 298.468,-83.7205 268.806,-76.1624"/>
<polygon fill="black" stroke="black" points="269.303,-72.6774 258.748,-73.5998 267.574,-79.4606 269.303,-72.6774"/>
</g>
<!-- 27_55_84435 -->
<g id="node7" class="node"><title>27_55_84435</title>
<ellipse fill="#66cdaa" stroke="black" cx="563.5" cy="-239.317" rx="64.1938" ry="16.0303"/>
<text text-anchor="middle" x="563.5" y="-235.617" font-family="Times,serif" font-size="14.00">27_55_84435</text>
</g>
<!-- 27_55_84436x27_55_84435 -->
<g id="node8" class="node"><title>27_55_84436x27_55_84435</title>
<polygon fill="none" stroke="black" points="614.5,-187.054 611,-183.554 614.5,-180.054 618,-183.554 614.5,-187.054"/>
</g>
<!-- 27_55_84435&#45;&gt;27_55_84436x27_55_84435 -->
<g id="edge6" class="edge"><title>27_55_84435&#45;&gt;27_55_84436x27_55_84435</title>
<path fill="none" stroke="black" d="M577.706,-223.341C586.758,-213.799 598.19,-201.748 605.889,-193.631"/>
<polygon fill="black" stroke="black" points="608.676,-195.78 613.018,-186.116 603.597,-190.962 608.676,-195.78"/>
</g>
<!-- 27_55_60181 -->
<g id="node9" class="node"><title>27_55_60181</title>
<ellipse fill="dimgrey" stroke="black" cx="614.5" cy="-127.79" rx="64.1938" ry="16.0303"/>
<text text-anchor="middle" x="614.5" y="-124.09" font-family="Times,serif" font-size="14.00">27_55_60181</text>
</g>
<!-- 27_55_84436x27_55_84435&#45;&gt;27_55_60181 -->
<g id="edge7" class="edge"><title>27_55_84436x27_55_84435&#45;&gt;27_55_60181</title>
<path fill="none" stroke="black" d="M614.5,-179.961C614.5,-175.178 614.5,-164.508 614.5,-154.142"/>
<polygon fill="black" stroke="black" points="618,-154.107 614.5,-144.107 611,-154.107 618,-154.107"/>
</g>
<!-- 27_55_84436 -->
<g id="node10" class="node"><title>27_55_84436</title>
<polygon fill="#66cdaa" stroke="black" points="737,-250.817 646,-250.817 646,-227.817 737,-227.817 737,-250.817"/>
<text text-anchor="middle" x="691.5" y="-235.617" font-family="Times,serif" font-size="14.00">27_55_84436</text>
</g>
<!-- 27_55_84436&#45;&gt;27_55_84436x27_55_84435 -->
<g id="edge8" class="edge"><title>27_55_84436&#45;&gt;27_55_84436x27_55_84435</title>
<path fill="none" stroke="black" d="M676.287,-227.695C660.947,-216.985 637.707,-200.757 624.536,-191.561"/>
<polygon fill="black" stroke="black" points="626.437,-188.62 616.235,-185.765 622.43,-194.36 626.437,-188.62"/>
</g>
<!-- 27_55_84437 -->
<g id="node11" class="node"><title>27_55_84437</title>
<ellipse fill="#66cdaa" stroke="black" cx="256.5" cy="-239.317" rx="64.1938" ry="16.0303"/>
<text text-anchor="middle" x="256.5" y="-235.617" font-family="Times,serif" font-size="14.00">27_55_84437</text>
</g>
<!-- 27_55_84437&#45;&gt;27_55_84438x27_55_84437 -->
<g id="edge9" class="edge"><title>27_55_84437&#45;&gt;27_55_84438x27_55_84437</title>
<path fill="none" stroke="black" d="M273.988,-223.626C285.947,-213.58 301.337,-200.652 311.064,-192.481"/>
<polygon fill="black" stroke="black" points="313.56,-194.955 318.965,-185.843 309.057,-189.595 313.56,-194.955"/>
</g>
<!-- 27_55_84438 -->
<g id="node12" class="node"><title>27_55_84438</title>
<polygon fill="#66cdaa" stroke="black" points="430,-250.817 339,-250.817 339,-227.817 430,-227.817 430,-250.817"/>
<text text-anchor="middle" x="384.5" y="-235.617" font-family="Times,serif" font-size="14.00">27_55_84438</text>
</g>
<!-- 27_55_84438&#45;&gt;27_55_84438x27_55_84437 -->
<g id="edge10" class="edge"><title>27_55_84438&#45;&gt;27_55_84438x27_55_84437</title>
<path fill="none" stroke="black" d="M371.856,-227.695C359.488,-217.306 340.942,-201.726 329.849,-192.407"/>
<polygon fill="black" stroke="black" points="331.85,-189.517 321.942,-185.765 327.347,-194.877 331.85,-189.517"/>
</g>
<!-- 27_55_84966 -->
<g id="node14" class="node"><title>27_55_84966</title>
<polygon fill="#66cdaa" stroke="black" points="91,-139.29 0,-139.29 0,-116.29 91,-116.29 91,-139.29"/>
<text text-anchor="middle" x="45.5" y="-124.09" font-family="Times,serif" font-size="14.00">27_55_84966</text>
</g>
<!-- 27_55_84966&#45;&gt;27_55_84966x27_55_83832 -->
<g id="edge12" class="edge"><title>27_55_84966&#45;&gt;27_55_84966x27_55_83832</title>
<path fill="none" stroke="black" d="M83.0351,-116.219C88.8744,-114.619 94.8444,-113.009 100.5,-111.527 154.056,-97.49 218.334,-82.0778 244.52,-75.8594"/>
<polygon fill="black" stroke="black" points="245.369,-79.2551 254.294,-73.546 243.757,-72.4433 245.369,-79.2551"/>
</g>
</g>
</svg>
