<?xml version="1.0" encoding="UTF-8" standalone="no"?>
<!DOCTYPE svg PUBLIC "-//W3C//DTD SVG 1.1//EN"
 "http://www.w3.org/Graphics/SVG/1.1/DTD/svg11.dtd">
<!-- Generated by graphviz version 2.38.0 (20140413.2041)
 -->
<!-- Title: %3 Pages: 1 -->
<svg width="680pt" height="264pt"
 viewBox="0.00 0.00 680.38 263.58" xmlns="http://www.w3.org/2000/svg" xmlns:xlink="http://www.w3.org/1999/xlink">
<g id="graph0" class="graph" transform="scale(1 1) rotate(0) translate(4 259.581)">
<title>%3</title>
<polygon fill="white" stroke="none" points="-4,4 -4,-259.581 676.38,-259.581 676.38,4 -4,4"/>
<!-- 25_22_491C -->
<g id="node1" class="node"><title>25_22_491C</title>
<ellipse fill="#66cdaa" stroke="black" cx="215.69" cy="-239.317" rx="60.623" ry="16.0303"/>
<text text-anchor="middle" x="215.69" y="-235.617" font-family="Times,serif" font-size="14.00">25_22_491C</text>
</g>
<!-- 25_22_488 -->
<g id="node2" class="node"><title>25_22_488</title>
<ellipse fill="white" stroke="black" cx="555.69" cy="-16.2635" rx="54.3945" ry="16.0303"/>
<text text-anchor="middle" x="555.69" y="-12.5635" font-family="Times,serif" font-size="14.00">25_22_488</text>
</g>
<!-- 25_22_477x25_22_490c -->
<g id="node3" class="node"><title>25_22_477x25_22_490c</title>
<polygon fill="none" stroke="black" points="555.69,-75.5269 552.19,-72.0269 555.69,-68.5269 559.19,-72.0269 555.69,-75.5269"/>
</g>
<!-- 25_22_477x25_22_490c&#45;&gt;25_22_488 -->
<g id="edge1" class="edge"><title>25_22_477x25_22_490c&#45;&gt;25_22_488</title>
<path fill="none" stroke="black" d="M555.69,-68.4338C555.69,-63.6514 555.69,-52.9811 555.69,-42.6151"/>
<polygon fill="black" stroke="black" points="559.19,-42.5799 555.69,-32.58 552.19,-42.58 559.19,-42.5799"/>
</g>
<!-- 25_22_480 -->
<g id="node4" class="node"><title>25_22_480</title>
<ellipse fill="dimgrey" stroke="black" cx="348.69" cy="-239.317" rx="54.3945" ry="16.0303"/>
<text text-anchor="middle" x="348.69" y="-235.617" font-family="Times,serif" font-size="14.00">25_22_480</text>
</g>
<!-- 25_22_479x25_22_480 -->
<g id="node5" class="node"><title>25_22_479x25_22_480</title>
<polygon fill="none" stroke="black" points="403.69,-187.054 400.19,-183.554 403.69,-180.054 407.19,-183.554 403.69,-187.054"/>
</g>
<!-- 25_22_480&#45;&gt;25_22_479x25_22_480 -->
<g id="edge2" class="edge"><title>25_22_480&#45;&gt;25_22_479x25_22_480</title>
<path fill="none" stroke="black" d="M363.719,-223.626C373.777,-213.794 386.66,-201.201 395.04,-193.009"/>
<polygon fill="black" stroke="black" points="397.667,-195.336 402.371,-185.843 392.773,-190.33 397.667,-195.336"/>
</g>
<!-- 25_22_475 -->
<g id="node7" class="node"><title>25_22_475</title>
<polygon fill="dimgrey" stroke="black" points="212.19,-139.29 135.19,-139.29 135.19,-116.29 212.19,-116.29 212.19,-139.29"/>
<text text-anchor="middle" x="173.69" y="-124.09" font-family="Times,serif" font-size="14.00">25_22_475</text>
</g>
<!-- 25_22_479x25_22_480&#45;&gt;25_22_475 -->
<g id="edge4" class="edge"><title>25_22_479x25_22_480&#45;&gt;25_22_475</title>
<path fill="none" stroke="black" d="M401.494,-182.184C386.205,-179.586 294.094,-163.635 220.69,-144.054 218.65,-143.51 216.568,-142.929 214.471,-142.324"/>
<polygon fill="black" stroke="black" points="215.232,-138.898 204.647,-139.36 213.21,-145.6 215.232,-138.898"/>
</g>
<!-- 25_22_477 -->
<g id="node9" class="node"><title>25_22_477</title>
<polygon fill="dimgrey" stroke="black" points="537.19,-139.29 460.19,-139.29 460.19,-116.29 537.19,-116.29 537.19,-139.29"/>
<text text-anchor="middle" x="498.69" y="-124.09" font-family="Times,serif" font-size="14.00">25_22_477</text>
</g>
<!-- 25_22_479x25_22_480&#45;&gt;25_22_477 -->
<g id="edge6" class="edge"><title>25_22_479x25_22_480&#45;&gt;25_22_477</title>
<path fill="none" stroke="black" d="M405.339,-181.621C413.073,-177.244 446.412,-158.376 471.052,-144.431"/>
<polygon fill="black" stroke="black" points="473.02,-147.34 479.999,-139.368 469.572,-141.247 473.02,-147.34"/>
</g>
<!-- 25_22_476 -->
<g id="node15" class="node"><title>25_22_476</title>
<polygon fill="dimgrey" stroke="black" points="442.19,-139.29 365.19,-139.29 365.19,-116.29 442.19,-116.29 442.19,-139.29"/>
<text text-anchor="middle" x="403.69" y="-124.09" font-family="Times,serif" font-size="14.00">25_22_476</text>
</g>
<!-- 25_22_479x25_22_480&#45;&gt;25_22_476 -->
<g id="edge12" class="edge"><title>25_22_479x25_22_480&#45;&gt;25_22_476</title>
<path fill="none" stroke="black" d="M403.69,-179.961C403.69,-174.493 403.69,-161.327 403.69,-149.721"/>
<polygon fill="black" stroke="black" points="407.19,-149.372 403.69,-139.372 400.19,-149.372 407.19,-149.372"/>
</g>
<!-- 25_22_479 -->
<g id="node6" class="node"><title>25_22_479</title>
<polygon fill="#66cdaa" stroke="black" points="498.19,-250.817 421.19,-250.817 421.19,-227.817 498.19,-227.817 498.19,-250.817"/>
<text text-anchor="middle" x="459.69" y="-235.617" font-family="Times,serif" font-size="14.00">25_22_479</text>
</g>
<!-- 25_22_479&#45;&gt;25_22_479x25_22_480 -->
<g id="edge3" class="edge"><title>25_22_479&#45;&gt;25_22_479x25_22_480</title>
<path fill="none" stroke="black" d="M448.626,-227.695C438.107,-217.597 422.48,-202.594 412.7,-193.204"/>
<polygon fill="black" stroke="black" points="414.911,-190.475 405.274,-186.074 410.063,-195.525 414.911,-190.475"/>
</g>
<!-- 25_22_475x25_22_475a -->
<g id="node8" class="node"><title>25_22_475x25_22_475a</title>
<polygon fill="none" stroke="black" points="115.69,-75.5269 112.19,-72.0269 115.69,-68.5269 119.19,-72.0269 115.69,-75.5269"/>
</g>
<!-- 25_22_475&#45;&gt;25_22_475x25_22_475a -->
<g id="edge5" class="edge"><title>25_22_475&#45;&gt;25_22_475x25_22_475a</title>
<path fill="none" stroke="black" d="M162.231,-116.168C151.138,-105.886 134.561,-90.5198 124.475,-81.1705"/>
<polygon fill="black" stroke="black" points="126.71,-78.4693 116.996,-74.238 121.951,-83.603 126.71,-78.4693"/>
</g>
<!-- 25_22_481 -->
<g id="node16" class="node"><title>25_22_481</title>
<polygon fill="white" stroke="black" points="154.19,-27.7635 77.1899,-27.7635 77.1899,-4.76346 154.19,-4.76346 154.19,-27.7635"/>
<text text-anchor="middle" x="115.69" y="-12.5635" font-family="Times,serif" font-size="14.00">25_22_481</text>
</g>
<!-- 25_22_475x25_22_475a&#45;&gt;25_22_481 -->
<g id="edge14" class="edge"><title>25_22_475x25_22_475a&#45;&gt;25_22_481</title>
<path fill="none" stroke="black" d="M115.69,-68.4338C115.69,-62.9657 115.69,-49.8005 115.69,-38.1938"/>
<polygon fill="black" stroke="black" points="119.19,-37.8452 115.69,-27.8453 112.19,-37.8453 119.19,-37.8452"/>
</g>
<!-- 25_22_477&#45;&gt;25_22_477x25_22_490c -->
<g id="edge7" class="edge"><title>25_22_477&#45;&gt;25_22_477x25_22_490c</title>
<path fill="none" stroke="black" d="M509.951,-116.168C520.658,-106.07 536.564,-91.067 546.519,-81.6771"/>
<polygon fill="black" stroke="black" points="549.205,-83.9552 554.078,-74.5476 544.402,-78.863 549.205,-83.9552"/>
</g>
<!-- 25_22_490c -->
<g id="node10" class="node"><title>25_22_490c</title>
<ellipse fill="white" stroke="black" cx="613.69" cy="-127.79" rx="58.8803" ry="16.0303"/>
<text text-anchor="middle" x="613.69" y="-124.09" font-family="Times,serif" font-size="14.00">25_22_490c</text>
</g>
<!-- 25_22_490c&#45;&gt;25_22_477x25_22_490c -->
<g id="edge8" class="edge"><title>25_22_490c&#45;&gt;25_22_477x25_22_490c</title>
<path fill="none" stroke="black" d="M597.841,-112.099C587.119,-102.16 573.353,-89.3998 564.525,-81.2164"/>
<polygon fill="black" stroke="black" points="566.794,-78.5474 557.081,-74.316 562.035,-83.6811 566.794,-78.5474"/>
</g>
<!-- 25_22_484 -->
<g id="node11" class="node"><title>25_22_484</title>
<ellipse fill="white" stroke="black" cx="329.69" cy="-16.2635" rx="54.3945" ry="16.0303"/>
<text text-anchor="middle" x="329.69" y="-12.5635" font-family="Times,serif" font-size="14.00">25_22_484</text>
</g>
<!-- 25_22_476x25_22_491c -->
<g id="node12" class="node"><title>25_22_476x25_22_491c</title>
<polygon fill="none" stroke="black" points="329.69,-75.5269 326.19,-72.0269 329.69,-68.5269 333.19,-72.0269 329.69,-75.5269"/>
</g>
<!-- 25_22_476x25_22_491c&#45;&gt;25_22_484 -->
<g id="edge9" class="edge"><title>25_22_476x25_22_491c&#45;&gt;25_22_484</title>
<path fill="none" stroke="black" d="M329.69,-68.4338C329.69,-63.6514 329.69,-52.9811 329.69,-42.6151"/>
<polygon fill="black" stroke="black" points="333.19,-42.5799 329.69,-32.58 326.19,-42.58 333.19,-42.5799"/>
</g>
<!-- 25_22_491c -->
<g id="node13" class="node"><title>25_22_491c</title>
<ellipse fill="white" stroke="black" cx="288.69" cy="-127.79" rx="58.8803" ry="16.0303"/>
<text text-anchor="middle" x="288.69" y="-124.09" font-family="Times,serif" font-size="14.00">25_22_491c</text>
</g>
<!-- 25_22_491c&#45;&gt;25_22_476x25_22_491c -->
<g id="edge10" class="edge"><title>25_22_491c&#45;&gt;25_22_476x25_22_491c</title>
<path fill="none" stroke="black" d="M300.111,-111.814C307.228,-102.481 316.175,-90.7493 322.355,-82.6452"/>
<polygon fill="black" stroke="black" points="325.218,-84.6628 328.499,-74.5888 319.652,-80.418 325.218,-84.6628"/>
</g>
<!-- 25_22_475a -->
<g id="node14" class="node"><title>25_22_475a</title>
<ellipse fill="#66cdaa" stroke="black" cx="58.6899" cy="-127.79" rx="58.8803" ry="16.0303"/>
<text text-anchor="middle" x="58.6899" y="-124.09" font-family="Times,serif" font-size="14.00">25_22_475a</text>
</g>
<!-- 25_22_475a&#45;&gt;25_22_475x25_22_475a -->
<g id="edge11" class="edge"><title>25_22_475a&#45;&gt;25_22_475x25_22_475a</title>
<path fill="none" stroke="black" d="M74.2654,-112.099C84.803,-102.16 98.3313,-89.3998 107.007,-81.2164"/>
<polygon fill="black" stroke="black" points="109.45,-83.7237 114.323,-74.316 104.647,-78.6315 109.45,-83.7237"/>
</g>
<!-- 25_22_476&#45;&gt;25_22_476x25_22_491c -->
<g id="edge13" class="edge"><title>25_22_476&#45;&gt;25_22_476x25_22_491c</title>
<path fill="none" stroke="black" d="M389.07,-116.168C374.475,-105.565 352.438,-89.5545 339.717,-80.312"/>
<polygon fill="black" stroke="black" points="341.504,-77.2843 331.357,-74.238 337.39,-82.9474 341.504,-77.2843"/>
</g>
</g>
</svg>
