<?xml version="1.0" encoding="UTF-8" standalone="no"?>
<!DOCTYPE svg PUBLIC "-//W3C//DTD SVG 1.1//EN"
 "http://www.w3.org/Graphics/SVG/1.1/DTD/svg11.dtd">
<!-- Generated by graphviz version 2.38.0 (20140413.2041)
 -->
<!-- Title: %3 Pages: 1 -->
<svg width="1320pt" height="375pt"
 viewBox="0.00 0.00 1319.81 375.11" xmlns="http://www.w3.org/2000/svg" xmlns:xlink="http://www.w3.org/1999/xlink">
<g id="graph0" class="graph" transform="scale(1 1) rotate(0) translate(4 371.108)">
<title>%3</title>
<polygon fill="white" stroke="none" points="-4,4 -4,-371.108 1315.81,-371.108 1315.81,4 -4,4"/>
<!-- 463_1 -->
<g id="node1" class="node"><title>463_1</title>
<polygon fill="#66cdaa" stroke="black" points="726.5,-250.817 676.5,-250.817 676.5,-227.817 726.5,-227.817 726.5,-250.817"/>
<text text-anchor="middle" x="701.5" y="-235.617" font-family="Times,serif" font-size="14.00">463_1</text>
</g>
<!-- 463_1x463_2 -->
<g id="node3" class="node"><title>463_1x463_2</title>
<polygon fill="none" stroke="black" points="701.5,-187.054 698,-183.554 701.5,-180.054 705,-183.554 701.5,-187.054"/>
</g>
<!-- 463_1&#45;&gt;463_1x463_2 -->
<g id="edge2" class="edge"><title>463_1&#45;&gt;463_1x463_2</title>
<path fill="none" stroke="black" d="M701.5,-227.695C701.5,-218.943 701.5,-206.507 701.5,-197.234"/>
<polygon fill="black" stroke="black" points="705,-197.192 701.5,-187.192 698,-197.193 705,-197.192"/>
</g>
<!-- 463_26x463_27 -->
<g id="node2" class="node"><title>463_26x463_27</title>
<polygon fill="none" stroke="black" points="737.5,-298.581 734,-295.081 737.5,-291.581 741,-295.081 737.5,-298.581"/>
</g>
<!-- 463_26x463_27&#45;&gt;463_1 -->
<g id="edge1" class="edge"><title>463_26x463_27&#45;&gt;463_1</title>
<path fill="none" stroke="black" d="M736.302,-292.292C732.886,-287.19 722.796,-272.121 714.354,-259.514"/>
<polygon fill="black" stroke="black" points="717.09,-257.309 708.618,-250.947 711.273,-261.204 717.09,-257.309"/>
</g>
<!-- 463_28 -->
<g id="node4" class="node"><title>463_28</title>
<polygon fill="#66cdaa" stroke="black" points="802,-250.817 745,-250.817 745,-227.817 802,-227.817 802,-250.817"/>
<text text-anchor="middle" x="773.5" y="-235.617" font-family="Times,serif" font-size="14.00">463_28</text>
</g>
<!-- 463_26x463_27&#45;&gt;463_28 -->
<g id="edge3" class="edge"><title>463_26x463_27&#45;&gt;463_28</title>
<path fill="none" stroke="black" d="M738.698,-292.292C742.114,-287.19 752.204,-272.121 760.646,-259.514"/>
<polygon fill="black" stroke="black" points="763.727,-261.204 766.382,-250.947 757.91,-257.309 763.727,-261.204"/>
</g>
<!-- 463_99 -->
<g id="node9" class="node"><title>463_99</title>
<ellipse fill="dimgrey" stroke="black" cx="701.5" cy="-127.79" rx="40.1111" ry="16.0303"/>
<text text-anchor="middle" x="701.5" y="-124.09" font-family="Times,serif" font-size="14.00">463_99</text>
</g>
<!-- 463_1x463_2&#45;&gt;463_99 -->
<g id="edge8" class="edge"><title>463_1x463_2&#45;&gt;463_99</title>
<path fill="none" stroke="black" d="M701.5,-179.961C701.5,-175.178 701.5,-164.508 701.5,-154.142"/>
<polygon fill="black" stroke="black" points="705,-154.107 701.5,-144.107 698,-154.107 705,-154.107"/>
</g>
<!-- 463_11 -->
<g id="node30" class="node"><title>463_11</title>
<ellipse fill="#66cdaa" stroke="black" cx="293.5" cy="-127.79" rx="40.1111" ry="16.0303"/>
<text text-anchor="middle" x="293.5" y="-124.09" font-family="Times,serif" font-size="14.00">463_11</text>
</g>
<!-- 463_1x463_2&#45;&gt;463_11 -->
<g id="edge28" class="edge"><title>463_1x463_2&#45;&gt;463_11</title>
<path fill="none" stroke="black" d="M698.902,-182.469C674.886,-181.649 489.195,-174.464 342.5,-144.054 339.316,-143.394 336.043,-142.612 332.772,-141.756"/>
<polygon fill="black" stroke="black" points="333.63,-138.361 323.056,-139.014 331.73,-145.098 333.63,-138.361"/>
</g>
<!-- 463_3 -->
<g id="node31" class="node"><title>463_3</title>
<ellipse fill="dimgrey" stroke="black" cx="110.5" cy="-127.79" rx="35.2113" ry="16.0303"/>
<text text-anchor="middle" x="110.5" y="-124.09" font-family="Times,serif" font-size="14.00">463_3</text>
</g>
<!-- 463_1x463_2&#45;&gt;463_3 -->
<g id="edge29" class="edge"><title>463_1x463_2&#45;&gt;463_3</title>
<path fill="none" stroke="black" d="M698.802,-182.628C668.072,-183.423 380.94,-189.449 155.5,-144.054 152.523,-143.454 149.471,-142.712 146.429,-141.879"/>
<polygon fill="black" stroke="black" points="147.426,-138.524 136.841,-138.981 145.4,-145.225 147.426,-138.524"/>
</g>
<!-- 463_8 -->
<g id="node32" class="node"><title>463_8</title>
<polygon fill="#66cdaa" stroke="black" points="401.5,-139.29 351.5,-139.29 351.5,-116.29 401.5,-116.29 401.5,-139.29"/>
<text text-anchor="middle" x="376.5" y="-124.09" font-family="Times,serif" font-size="14.00">463_8</text>
</g>
<!-- 463_1x463_2&#45;&gt;463_8 -->
<g id="edge32" class="edge"><title>463_1x463_2&#45;&gt;463_8</title>
<path fill="none" stroke="black" d="M698.849,-182.494C677.153,-181.95 526.682,-177.054 410.5,-144.054 409.275,-143.706 408.037,-143.321 406.795,-142.907"/>
<polygon fill="black" stroke="black" points="407.954,-139.603 397.364,-139.294 405.45,-146.14 407.954,-139.603"/>
</g>
<!-- 463_7 -->
<g id="node33" class="node"><title>463_7</title>
<polygon fill="#66cdaa" stroke="black" points="469.5,-139.29 419.5,-139.29 419.5,-116.29 469.5,-116.29 469.5,-139.29"/>
<text text-anchor="middle" x="444.5" y="-124.09" font-family="Times,serif" font-size="14.00">463_7</text>
</g>
<!-- 463_1x463_2&#45;&gt;463_7 -->
<g id="edge33" class="edge"><title>463_1x463_2&#45;&gt;463_7</title>
<path fill="none" stroke="black" d="M698.79,-182.345C679.931,-180.837 566.424,-170.911 478.5,-144.054 477.448,-143.732 476.386,-143.387 475.319,-143.021"/>
<polygon fill="black" stroke="black" points="476.359,-139.67 465.77,-139.316 473.827,-146.196 476.359,-139.67"/>
</g>
<!-- 463_13 -->
<g id="node34" class="node"><title>463_13</title>
<ellipse fill="#66cdaa" stroke="black" cx="527.5" cy="-127.79" rx="40.1111" ry="16.0303"/>
<text text-anchor="middle" x="527.5" y="-124.09" font-family="Times,serif" font-size="14.00">463_13</text>
</g>
<!-- 463_1x463_2&#45;&gt;463_13 -->
<g id="edge34" class="edge"><title>463_1x463_2&#45;&gt;463_13</title>
<path fill="none" stroke="black" d="M699.438,-181.921C687.532,-178.27 626.389,-159.507 576.5,-144.054 573.747,-143.201 570.908,-142.32 568.048,-141.432"/>
<polygon fill="black" stroke="black" points="568.927,-138.04 558.339,-138.413 566.849,-144.725 568.927,-138.04"/>
</g>
<!-- 463_10 -->
<g id="node35" class="node"><title>463_10</title>
<polygon fill="#66cdaa" stroke="black" points="817,-139.29 760,-139.29 760,-116.29 817,-116.29 817,-139.29"/>
<text text-anchor="middle" x="788.5" y="-124.09" font-family="Times,serif" font-size="14.00">463_10</text>
</g>
<!-- 463_1x463_2&#45;&gt;463_10 -->
<g id="edge35" class="edge"><title>463_1x463_2&#45;&gt;463_10</title>
<path fill="none" stroke="black" d="M703.317,-181.431C710.866,-176.766 740.394,-158.519 762.583,-144.806"/>
<polygon fill="black" stroke="black" points="764.593,-147.679 771.26,-139.444 760.913,-141.724 764.593,-147.679"/>
</g>
<!-- 463_12 -->
<g id="node36" class="node"><title>463_12</title>
<polygon fill="#66cdaa" stroke="black" points="892,-139.29 835,-139.29 835,-116.29 892,-116.29 892,-139.29"/>
<text text-anchor="middle" x="863.5" y="-124.09" font-family="Times,serif" font-size="14.00">463_12</text>
</g>
<!-- 463_1x463_2&#45;&gt;463_12 -->
<g id="edge36" class="edge"><title>463_1x463_2&#45;&gt;463_12</title>
<path fill="none" stroke="black" d="M703.566,-181.98C715.485,-178.657 776.648,-161.417 825.5,-144.054 826.379,-143.741 827.268,-143.421 828.164,-143.094"/>
<polygon fill="black" stroke="black" points="829.743,-146.238 837.852,-139.419 827.261,-139.693 829.743,-146.238"/>
</g>
<!-- 463_6 -->
<g id="node37" class="node"><title>463_6</title>
<ellipse fill="#66cdaa" stroke="black" cx="945.5" cy="-127.79" rx="35.2113" ry="16.0303"/>
<text text-anchor="middle" x="945.5" y="-124.09" font-family="Times,serif" font-size="14.00">463_6</text>
</g>
<!-- 463_1x463_2&#45;&gt;463_6 -->
<g id="edge37" class="edge"><title>463_1x463_2&#45;&gt;463_6</title>
<path fill="none" stroke="black" d="M703.907,-182.225C720.662,-179.905 821.583,-165.488 901.5,-144.054 903.96,-143.394 906.481,-142.666 909.01,-141.895"/>
<polygon fill="black" stroke="black" points="910.253,-145.172 918.698,-138.774 908.106,-138.509 910.253,-145.172"/>
</g>
<!-- 463_5 -->
<g id="node38" class="node"><title>463_5</title>
<polygon fill="#66cdaa" stroke="black" points="1048.5,-139.29 998.5,-139.29 998.5,-116.29 1048.5,-116.29 1048.5,-139.29"/>
<text text-anchor="middle" x="1023.5" y="-124.09" font-family="Times,serif" font-size="14.00">463_5</text>
</g>
<!-- 463_1x463_2&#45;&gt;463_5 -->
<g id="edge38" class="edge"><title>463_1x463_2&#45;&gt;463_5</title>
<path fill="none" stroke="black" d="M704.124,-182.49C725.596,-181.911 874.517,-176.797 989.5,-144.054 990.558,-143.753 991.625,-143.424 992.696,-143.073"/>
<polygon fill="black" stroke="black" points="994.158,-146.262 1002.27,-139.446 991.677,-139.716 994.158,-146.262"/>
</g>
<!-- 463_4 -->
<g id="node39" class="node"><title>463_4</title>
<ellipse fill="#66cdaa" stroke="black" cx="1177.5" cy="-127.79" rx="35.2113" ry="16.0303"/>
<text text-anchor="middle" x="1177.5" y="-124.09" font-family="Times,serif" font-size="14.00">463_4</text>
</g>
<!-- 463_1x463_2&#45;&gt;463_4 -->
<g id="edge39" class="edge"><title>463_1x463_2&#45;&gt;463_4</title>
<path fill="none" stroke="black" d="M704.281,-182.566C731.726,-182.632 956.809,-181.972 1133.5,-144.054 1136.15,-143.485 1138.86,-142.803 1141.57,-142.048"/>
<polygon fill="black" stroke="black" points="1142.75,-145.349 1151.27,-139.061 1140.69,-138.658 1142.75,-145.349"/>
</g>
<!-- 463_9 -->
<g id="node40" class="node"><title>463_9</title>
<ellipse fill="#66cdaa" stroke="black" cx="199.5" cy="-127.79" rx="35.2113" ry="16.0303"/>
<text text-anchor="middle" x="199.5" y="-124.09" font-family="Times,serif" font-size="14.00">463_9</text>
</g>
<!-- 463_1x463_2&#45;&gt;463_9 -->
<g id="edge40" class="edge"><title>463_1x463_2&#45;&gt;463_9</title>
<path fill="none" stroke="black" d="M698.912,-182.576C671.528,-182.763 432.349,-183.215 244.5,-144.054 241.527,-143.434 238.479,-142.677 235.438,-141.835"/>
<polygon fill="black" stroke="black" points="236.439,-138.481 225.853,-138.919 234.402,-145.178 236.439,-138.481"/>
</g>
<!-- 463_28x463_29 -->
<g id="node5" class="node"><title>463_28x463_29</title>
<polygon fill="none" stroke="black" points="949.5,-187.054 946,-183.554 949.5,-180.054 953,-183.554 949.5,-187.054"/>
</g>
<!-- 463_28&#45;&gt;463_28x463_29 -->
<g id="edge4" class="edge"><title>463_28&#45;&gt;463_28x463_29</title>
<path fill="none" stroke="black" d="M798.701,-227.745C802.944,-226.095 807.326,-224.47 811.5,-223.054 857.212,-207.549 912.921,-193.427 937.202,-187.502"/>
<polygon fill="black" stroke="black" points="938.292,-190.839 947.195,-185.096 936.654,-184.034 938.292,-190.839"/>
</g>
<!-- 463_30 -->
<g id="node8" class="node"><title>463_30</title>
<ellipse fill="dimgrey" stroke="black" cx="1271.5" cy="-127.79" rx="40.1111" ry="16.0303"/>
<text text-anchor="middle" x="1271.5" y="-124.09" font-family="Times,serif" font-size="14.00">463_30</text>
</g>
<!-- 463_28x463_29&#45;&gt;463_30 -->
<g id="edge7" class="edge"><title>463_28x463_29&#45;&gt;463_30</title>
<path fill="none" stroke="black" d="M951.949,-182.354C971.997,-180.687 1111.15,-168.549 1221.5,-144.054 1224.88,-143.303 1228.36,-142.437 1231.85,-141.507"/>
<polygon fill="black" stroke="black" points="1232.89,-144.849 1241.56,-138.758 1230.98,-138.113 1232.89,-144.849"/>
</g>
<!-- 463_2 -->
<g id="node6" class="node"><title>463_2</title>
<ellipse fill="#66cdaa" stroke="black" cx="855.5" cy="-239.317" rx="35.2113" ry="16.0303"/>
<text text-anchor="middle" x="855.5" y="-235.617" font-family="Times,serif" font-size="14.00">463_2</text>
</g>
<!-- 463_2&#45;&gt;463_1x463_2 -->
<g id="edge6" class="edge"><title>463_2&#45;&gt;463_1x463_2</title>
<path fill="none" stroke="black" d="M828.322,-228.829C794.361,-216.973 737.737,-197.205 713.31,-188.677"/>
<polygon fill="black" stroke="black" points="714.173,-185.271 703.579,-185.279 711.866,-191.88 714.173,-185.271"/>
</g>
<!-- 463_31x463_32 -->
<g id="node7" class="node"><title>463_31x463_32</title>
<polygon fill="none" stroke="black" points="887.5,-298.581 884,-295.081 887.5,-291.581 891,-295.081 887.5,-298.581"/>
</g>
<!-- 463_31x463_32&#45;&gt;463_2 -->
<g id="edge5" class="edge"><title>463_31x463_32&#45;&gt;463_2</title>
<path fill="none" stroke="black" d="M886.435,-292.292C883.765,-287.806 876.511,-275.618 869.698,-264.171"/>
<polygon fill="black" stroke="black" points="872.547,-262.114 864.424,-255.311 866.531,-265.694 872.547,-262.114"/>
</g>
<!-- 463_29 -->
<g id="node27" class="node"><title>463_29</title>
<ellipse fill="#66cdaa" stroke="black" cx="949.5" cy="-239.317" rx="40.1111" ry="16.0303"/>
<text text-anchor="middle" x="949.5" y="-235.617" font-family="Times,serif" font-size="14.00">463_29</text>
</g>
<!-- 463_31x463_32&#45;&gt;463_29 -->
<g id="edge24" class="edge"><title>463_31x463_32&#45;&gt;463_29</title>
<path fill="none" stroke="black" d="M889.033,-292.752C894.099,-288.359 910.815,-273.863 925.39,-261.224"/>
<polygon fill="black" stroke="black" points="927.918,-263.665 933.18,-254.469 923.332,-258.377 927.918,-263.665"/>
</g>
<!-- 463_14x463_99 -->
<g id="node10" class="node"><title>463_14x463_99</title>
<polygon fill="none" stroke="black" points="954.5,-75.5269 951,-72.0269 954.5,-68.5269 958,-72.0269 954.5,-75.5269"/>
</g>
<!-- 463_99&#45;&gt;463_14x463_99 -->
<g id="edge9" class="edge"><title>463_99&#45;&gt;463_14x463_99</title>
<path fill="none" stroke="black" d="M731.405,-116.874C737.676,-114.964 744.275,-113.078 750.5,-111.527 822.105,-93.6808 909.666,-79.7535 941.855,-74.8924"/>
<polygon fill="black" stroke="black" points="942.674,-78.3093 952.052,-73.3792 941.647,-71.3851 942.674,-78.3093"/>
</g>
<!-- 463_15 -->
<g id="node16" class="node"><title>463_15</title>
<polygon fill="#66cdaa" stroke="black" points="983,-27.7635 926,-27.7635 926,-4.76346 983,-4.76346 983,-27.7635"/>
<text text-anchor="middle" x="954.5" y="-12.5635" font-family="Times,serif" font-size="14.00">463_15</text>
</g>
<!-- 463_14x463_99&#45;&gt;463_15 -->
<g id="edge14" class="edge"><title>463_14x463_99&#45;&gt;463_15</title>
<path fill="none" stroke="black" d="M954.5,-68.4338C954.5,-62.9657 954.5,-49.8005 954.5,-38.1938"/>
<polygon fill="black" stroke="black" points="958,-37.8452 954.5,-27.8453 951,-37.8453 958,-37.8452"/>
</g>
<!-- 463_25 -->
<g id="node11" class="node"><title>463_25</title>
<ellipse fill="#66cdaa" stroke="black" cx="43.5" cy="-16.2635" rx="40.1111" ry="16.0303"/>
<text text-anchor="middle" x="43.5" y="-12.5635" font-family="Times,serif" font-size="14.00">463_25</text>
</g>
<!-- 463_23x463_3 -->
<g id="node12" class="node"><title>463_23x463_3</title>
<polygon fill="none" stroke="black" points="69.5,-75.5269 66,-72.0269 69.5,-68.5269 73,-72.0269 69.5,-75.5269"/>
</g>
<!-- 463_23x463_3&#45;&gt;463_25 -->
<g id="edge10" class="edge"><title>463_23x463_3&#45;&gt;463_25</title>
<path fill="none" stroke="black" d="M68.6349,-69.2381C66.5009,-64.8254 60.7619,-52.958 55.3057,-41.6757"/>
<polygon fill="black" stroke="black" points="58.3791,-39.9914 50.8745,-32.5126 52.0773,-43.039 58.3791,-39.9914"/>
</g>
<!-- 463_24 -->
<g id="node13" class="node"><title>463_24</title>
<ellipse fill="#66cdaa" stroke="black" cx="142.5" cy="-16.2635" rx="40.1111" ry="16.0303"/>
<text text-anchor="middle" x="142.5" y="-12.5635" font-family="Times,serif" font-size="14.00">463_24</text>
</g>
<!-- 463_23x463_3&#45;&gt;463_24 -->
<g id="edge11" class="edge"><title>463_23x463_3&#45;&gt;463_24</title>
<path fill="none" stroke="black" d="M71.0247,-69.904C76.796,-65.6535 97.8762,-50.1282 115.66,-37.0309"/>
<polygon fill="black" stroke="black" points="118.067,-39.6046 124.044,-30.8563 113.916,-33.9683 118.067,-39.6046"/>
</g>
<!-- 463_14 -->
<g id="node14" class="node"><title>463_14</title>
<polygon fill="#66cdaa" stroke="black" points="1124,-139.29 1067,-139.29 1067,-116.29 1124,-116.29 1124,-139.29"/>
<text text-anchor="middle" x="1095.5" y="-124.09" font-family="Times,serif" font-size="14.00">463_14</text>
</g>
<!-- 463_14&#45;&gt;463_14x463_99 -->
<g id="edge12" class="edge"><title>463_14&#45;&gt;463_14x463_99</title>
<path fill="none" stroke="black" d="M1069.37,-116.197C1065.4,-114.616 1061.34,-113.017 1057.5,-111.527 1024.37,-98.6827 984.962,-84.1622 965.922,-77.1938"/>
<polygon fill="black" stroke="black" points="967.064,-73.8848 956.471,-73.7433 964.664,-80.4603 967.064,-73.8848"/>
</g>
<!-- 463_27 -->
<g id="node15" class="node"><title>463_27</title>
<ellipse fill="#66cdaa" stroke="black" cx="677.5" cy="-350.844" rx="40.1111" ry="16.0303"/>
<text text-anchor="middle" x="677.5" y="-347.144" font-family="Times,serif" font-size="14.00">463_27</text>
</g>
<!-- 463_27&#45;&gt;463_26x463_27 -->
<g id="edge13" class="edge"><title>463_27&#45;&gt;463_26x463_27</title>
<path fill="none" stroke="black" d="M693.264,-335.718C704.483,-325.666 719.16,-312.514 728.462,-304.179"/>
<polygon fill="black" stroke="black" points="730.916,-306.68 736.028,-297.4 726.245,-301.467 730.916,-306.68"/>
</g>
<!-- 463_16 -->
<g id="node17" class="node"><title>463_16</title>
<polygon fill="#66cdaa" stroke="black" points="643,-139.29 586,-139.29 586,-116.29 643,-116.29 643,-139.29"/>
<text text-anchor="middle" x="614.5" y="-124.09" font-family="Times,serif" font-size="14.00">463_16</text>
</g>
<!-- 463_16x463_3 -->
<g id="node18" class="node"><title>463_16x463_3</title>
<polygon fill="none" stroke="black" points="527.5,-75.5269 524,-72.0269 527.5,-68.5269 531,-72.0269 527.5,-75.5269"/>
</g>
<!-- 463_16&#45;&gt;463_16x463_3 -->
<g id="edge15" class="edge"><title>463_16&#45;&gt;463_16x463_3</title>
<path fill="none" stroke="black" d="M597.312,-116.168C579.806,-105.351 553.195,-88.9054 538.396,-79.7602"/>
<polygon fill="black" stroke="black" points="539.806,-76.5176 529.46,-74.238 536.127,-82.4723 539.806,-76.5176"/>
</g>
<!-- 463_17 -->
<g id="node19" class="node"><title>463_17</title>
<polygon fill="#66cdaa" stroke="black" points="594,-27.7635 537,-27.7635 537,-4.76346 594,-4.76346 594,-27.7635"/>
<text text-anchor="middle" x="565.5" y="-12.5635" font-family="Times,serif" font-size="14.00">463_17</text>
</g>
<!-- 463_16x463_3&#45;&gt;463_17 -->
<g id="edge16" class="edge"><title>463_16x463_3&#45;&gt;463_17</title>
<path fill="none" stroke="black" d="M528.764,-69.2381C532.406,-64.0863 543.229,-48.7736 552.191,-36.0939"/>
<polygon fill="black" stroke="black" points="555.073,-38.0797 557.987,-27.8934 549.357,-34.0394 555.073,-38.0797"/>
</g>
<!-- 463_18 -->
<g id="node20" class="node"><title>463_18</title>
<polygon fill="#66cdaa" stroke="black" points="669,-27.7635 612,-27.7635 612,-4.76346 669,-4.76346 669,-27.7635"/>
<text text-anchor="middle" x="640.5" y="-12.5635" font-family="Times,serif" font-size="14.00">463_18</text>
</g>
<!-- 463_16x463_3&#45;&gt;463_18 -->
<g id="edge17" class="edge"><title>463_16x463_3&#45;&gt;463_18</title>
<path fill="none" stroke="black" d="M529.461,-70.0937C538.823,-65.6397 579.723,-46.1799 609.166,-32.1719"/>
<polygon fill="black" stroke="black" points="610.741,-35.2982 618.268,-27.8413 607.734,-28.9771 610.741,-35.2982"/>
</g>
<!-- 463_19 -->
<g id="node21" class="node"><title>463_19</title>
<ellipse fill="#66cdaa" stroke="black" cx="727.5" cy="-16.2635" rx="40.1111" ry="16.0303"/>
<text text-anchor="middle" x="727.5" y="-12.5635" font-family="Times,serif" font-size="14.00">463_19</text>
</g>
<!-- 463_16x463_3&#45;&gt;463_19 -->
<g id="edge18" class="edge"><title>463_16x463_3&#45;&gt;463_19</title>
<path fill="none" stroke="black" d="M529.624,-70.5199C543.047,-67.3084 617.448,-49.3904 677.5,-32.5269 680.646,-31.6436 683.895,-30.7068 687.158,-29.7491"/>
<polygon fill="black" stroke="black" points="688.309,-33.0583 696.891,-26.8459 686.308,-26.3504 688.309,-33.0583"/>
</g>
<!-- 463_20 -->
<g id="node22" class="node"><title>463_20</title>
<polygon fill="#66cdaa" stroke="black" points="345,-27.7635 288,-27.7635 288,-4.76346 345,-4.76346 345,-27.7635"/>
<text text-anchor="middle" x="316.5" y="-12.5635" font-family="Times,serif" font-size="14.00">463_20</text>
</g>
<!-- 463_16x463_3&#45;&gt;463_20 -->
<g id="edge19" class="edge"><title>463_16x463_3&#45;&gt;463_20</title>
<path fill="none" stroke="black" d="M525.021,-70.6323C509.368,-68.1079 422.687,-53.654 354.5,-32.5269 353.278,-32.1482 352.039,-31.7472 350.793,-31.3291"/>
<polygon fill="black" stroke="black" points="351.822,-27.9795 341.228,-27.8695 349.442,-34.5622 351.822,-27.9795"/>
</g>
<!-- 463_21 -->
<g id="node24" class="node"><title>463_21</title>
<ellipse fill="#66cdaa" stroke="black" cx="403.5" cy="-16.2635" rx="40.1111" ry="16.0303"/>
<text text-anchor="middle" x="403.5" y="-12.5635" font-family="Times,serif" font-size="14.00">463_21</text>
</g>
<!-- 463_16x463_3&#45;&gt;463_21 -->
<g id="edge21" class="edge"><title>463_16x463_3&#45;&gt;463_21</title>
<path fill="none" stroke="black" d="M525.747,-70.2669C516.424,-66.2244 471.852,-46.8994 439.212,-32.7471"/>
<polygon fill="black" stroke="black" points="440.507,-29.4939 429.94,-28.727 437.722,-35.9162 440.507,-29.4939"/>
</g>
<!-- 463_22 -->
<g id="node25" class="node"><title>463_22</title>
<polygon fill="#66cdaa" stroke="black" points="519,-27.7635 462,-27.7635 462,-4.76346 519,-4.76346 519,-27.7635"/>
<text text-anchor="middle" x="490.5" y="-12.5635" font-family="Times,serif" font-size="14.00">463_22</text>
</g>
<!-- 463_16x463_3&#45;&gt;463_22 -->
<g id="edge22" class="edge"><title>463_16x463_3&#45;&gt;463_22</title>
<path fill="none" stroke="black" d="M526.269,-69.2381C522.758,-64.1359 512.387,-49.0672 503.711,-36.4603"/>
<polygon fill="black" stroke="black" points="506.368,-34.1469 497.816,-27.8934 500.602,-38.1154 506.368,-34.1469"/>
</g>
<!-- 463_26 -->
<g id="node23" class="node"><title>463_26</title>
<polygon fill="#66cdaa" stroke="black" points="793,-362.344 736,-362.344 736,-339.344 793,-339.344 793,-362.344"/>
<text text-anchor="middle" x="764.5" y="-347.144" font-family="Times,serif" font-size="14.00">463_26</text>
</g>
<!-- 463_26&#45;&gt;463_26x463_27 -->
<g id="edge20" class="edge"><title>463_26&#45;&gt;463_26x463_27</title>
<path fill="none" stroke="black" d="M759.166,-339.222C754.498,-329.927 747.743,-316.477 743.02,-307.073"/>
<polygon fill="black" stroke="black" points="746.051,-305.309 738.435,-297.943 739.795,-308.45 746.051,-305.309"/>
</g>
<!-- 463_23 -->
<g id="node26" class="node"><title>463_23</title>
<polygon fill="#66cdaa" stroke="black" points="57,-139.29 0,-139.29 0,-116.29 57,-116.29 57,-139.29"/>
<text text-anchor="middle" x="28.5" y="-124.09" font-family="Times,serif" font-size="14.00">463_23</text>
</g>
<!-- 463_23&#45;&gt;463_23x463_3 -->
<g id="edge23" class="edge"><title>463_23&#45;&gt;463_23x463_3</title>
<path fill="none" stroke="black" d="M36.6003,-116.168C44.0609,-106.385 55.0312,-91.9999 62.2198,-82.5735"/>
<polygon fill="black" stroke="black" points="65.0595,-84.6216 68.3404,-74.5476 59.4933,-80.3768 65.0595,-84.6216"/>
</g>
<!-- 463_29&#45;&gt;463_28x463_29 -->
<g id="edge25" class="edge"><title>463_29&#45;&gt;463_28x463_29</title>
<path fill="none" stroke="black" d="M949.5,-222.767C949.5,-214.661 949.5,-204.872 949.5,-197.232"/>
<polygon fill="black" stroke="black" points="953,-197.077 949.5,-187.077 946,-197.077 953,-197.077"/>
</g>
<!-- 463_31 -->
<g id="node28" class="node"><title>463_31</title>
<polygon fill="#66cdaa" stroke="black" points="889,-362.344 832,-362.344 832,-339.344 889,-339.344 889,-362.344"/>
<text text-anchor="middle" x="860.5" y="-347.144" font-family="Times,serif" font-size="14.00">463_31</text>
</g>
<!-- 463_31&#45;&gt;463_31x463_32 -->
<g id="edge26" class="edge"><title>463_31&#45;&gt;463_31x463_32</title>
<path fill="none" stroke="black" d="M865.834,-339.222C870.502,-329.927 877.257,-316.477 881.98,-307.073"/>
<polygon fill="black" stroke="black" points="885.205,-308.45 886.565,-297.943 878.949,-305.309 885.205,-308.45"/>
</g>
<!-- 463_32 -->
<g id="node29" class="node"><title>463_32</title>
<ellipse fill="#66cdaa" stroke="black" cx="947.5" cy="-350.844" rx="40.1111" ry="16.0303"/>
<text text-anchor="middle" x="947.5" y="-347.144" font-family="Times,serif" font-size="14.00">463_32</text>
</g>
<!-- 463_32&#45;&gt;463_31x463_32 -->
<g id="edge27" class="edge"><title>463_32&#45;&gt;463_31x463_32</title>
<path fill="none" stroke="black" d="M931.736,-335.718C920.517,-325.666 905.84,-312.514 896.538,-304.179"/>
<polygon fill="black" stroke="black" points="898.755,-301.467 888.972,-297.4 894.084,-306.68 898.755,-301.467"/>
</g>
<!-- 463_3&#45;&gt;463_23x463_3 -->
<g id="edge30" class="edge"><title>463_3&#45;&gt;463_23x463_3</title>
<path fill="none" stroke="black" d="M99.2966,-112.099C92.1748,-102.76 83.1538,-90.9312 76.9133,-82.748"/>
<polygon fill="black" stroke="black" points="79.5519,-80.4361 70.7048,-74.6068 73.9857,-84.6809 79.5519,-80.4361"/>
</g>
<!-- 463_3&#45;&gt;463_16x463_3 -->
<g id="edge31" class="edge"><title>463_3&#45;&gt;463_16x463_3</title>
<path fill="none" stroke="black" d="M136.872,-116.748C142.92,-114.754 149.375,-112.865 155.5,-111.527 294.075,-81.2555 467.041,-74.6123 514.788,-73.3149"/>
<polygon fill="black" stroke="black" points="514.889,-76.8136 524.802,-73.0756 514.721,-69.8156 514.889,-76.8136"/>
</g>
</g>
</svg>
