<?xml version="1.0" encoding="UTF-8" standalone="no"?>
<!DOCTYPE svg PUBLIC "-//W3C//DTD SVG 1.1//EN"
 "http://www.w3.org/Graphics/SVG/1.1/DTD/svg11.dtd">
<!-- Generated by graphviz version 2.38.0 (20140413.2041)
 -->
<!-- Title: %3 Pages: 1 -->
<svg width="851pt" height="477pt"
 viewBox="0.00 0.00 850.84 477.11" xmlns="http://www.w3.org/2000/svg" xmlns:xlink="http://www.w3.org/1999/xlink">
<g id="graph0" class="graph" transform="scale(1 1) rotate(0) translate(4 473.108)">
<title>%3</title>
<polygon fill="white" stroke="none" points="-4,4 -4,-473.108 846.844,-473.108 846.844,4 -4,4"/>
<!-- 8_64036_3 -->
<g id="node1" class="node"><title>8_64036_3</title>
<ellipse fill="white" stroke="black" cx="54.4472" cy="-118.263" rx="54.3945" ry="16.0303"/>
<text text-anchor="middle" x="54.4472" y="-114.563" font-family="Times,serif" font-size="14.00">8_64036_3</text>
</g>
<!-- 8_64036_1x8_64036_2 -->
<g id="node2" class="node"><title>8_64036_1x8_64036_2</title>
<polygon fill="none" stroke="black" points="167.447,-177.527 163.947,-174.027 167.447,-170.527 170.947,-174.027 167.447,-177.527"/>
</g>
<!-- 8_64036_1x8_64036_2&#45;&gt;8_64036_3 -->
<g id="edge1" class="edge"><title>8_64036_1x8_64036_2&#45;&gt;8_64036_3</title>
<path fill="none" stroke="black" d="M165.486,-172.094C156.68,-167.904 119.965,-150.436 91.1334,-136.718"/>
<polygon fill="black" stroke="black" points="92.6284,-133.554 82.0947,-132.418 89.621,-139.875 92.6284,-133.554"/>
</g>
<!-- 8_64036_4 -->
<g id="node7" class="node"><title>8_64036_4</title>
<polygon fill="white" stroke="black" points="203.947,-129.763 126.947,-129.763 126.947,-106.763 203.947,-106.763 203.947,-129.763"/>
<text text-anchor="middle" x="165.447" y="-114.563" font-family="Times,serif" font-size="14.00">8_64036_4</text>
</g>
<!-- 8_64036_1x8_64036_2&#45;&gt;8_64036_4 -->
<g id="edge6" class="edge"><title>8_64036_1x8_64036_2&#45;&gt;8_64036_4</title>
<path fill="none" stroke="black" d="M167.351,-170.434C167.147,-164.966 166.658,-151.801 166.226,-140.194"/>
<polygon fill="black" stroke="black" points="169.71,-139.708 165.841,-129.845 162.715,-139.969 169.71,-139.708"/>
</g>
<!-- 8_64036_7 -->
<g id="node8" class="node"><title>8_64036_7</title>
<polygon fill="white" stroke="black" points="298.947,-129.763 221.947,-129.763 221.947,-106.763 298.947,-106.763 298.947,-129.763"/>
<text text-anchor="middle" x="260.447" y="-114.563" font-family="Times,serif" font-size="14.00">8_64036_7</text>
</g>
<!-- 8_64036_1x8_64036_2&#45;&gt;8_64036_7 -->
<g id="edge7" class="edge"><title>8_64036_1x8_64036_2&#45;&gt;8_64036_7</title>
<path fill="none" stroke="black" d="M169.061,-172.094C176.633,-167.717 209.27,-148.849 233.392,-134.904"/>
<polygon fill="black" stroke="black" points="235.244,-137.876 242.15,-129.841 231.741,-131.816 235.244,-137.876"/>
</g>
<!-- 8_64036_18 -->
<g id="node3" class="node"><title>8_64036_18</title>
<polygon fill="white" stroke="black" points="435.447,-241.29 351.447,-241.29 351.447,-218.29 435.447,-218.29 435.447,-241.29"/>
<text text-anchor="middle" x="393.447" y="-226.09" font-family="Times,serif" font-size="14.00">8_64036_18</text>
</g>
<!-- 8_64036_18x8_64036_19 -->
<g id="node5" class="node"><title>8_64036_18x8_64036_19</title>
<polygon fill="none" stroke="black" points="512.447,-177.527 508.947,-174.027 512.447,-170.527 515.947,-174.027 512.447,-177.527"/>
</g>
<!-- 8_64036_18&#45;&gt;8_64036_18x8_64036_19 -->
<g id="edge3" class="edge"><title>8_64036_18&#45;&gt;8_64036_18x8_64036_19</title>
<path fill="none" stroke="black" d="M416.958,-218.168C442.517,-206.621 482.269,-188.661 501.41,-180.013"/>
<polygon fill="black" stroke="black" points="502.985,-183.143 510.657,-175.836 500.102,-176.764 502.985,-183.143"/>
</g>
<!-- 8_64036_22x8_64036_23 -->
<g id="node4" class="node"><title>8_64036_22x8_64036_23</title>
<polygon fill="none" stroke="black" points="350.447,-289.054 346.947,-285.554 350.447,-282.054 353.947,-285.554 350.447,-289.054"/>
</g>
<!-- 8_64036_22x8_64036_23&#45;&gt;8_64036_18 -->
<g id="edge2" class="edge"><title>8_64036_22x8_64036_23&#45;&gt;8_64036_18</title>
<path fill="none" stroke="black" d="M351.878,-282.765C356.038,-277.564 368.482,-262.005 378.679,-249.256"/>
<polygon fill="black" stroke="black" points="381.433,-251.416 384.945,-241.42 375.966,-247.044 381.433,-251.416"/>
</g>
<!-- 8_64036_1 -->
<g id="node6" class="node"><title>8_64036_1</title>
<polygon fill="dimgrey" stroke="black" points="205.947,-241.29 128.947,-241.29 128.947,-218.29 205.947,-218.29 205.947,-241.29"/>
<text text-anchor="middle" x="167.447" y="-226.09" font-family="Times,serif" font-size="14.00">8_64036_1</text>
</g>
<!-- 8_64036_22x8_64036_23&#45;&gt;8_64036_1 -->
<g id="edge4" class="edge"><title>8_64036_22x8_64036_23&#45;&gt;8_64036_1</title>
<path fill="none" stroke="black" d="M348.213,-283.944C335.319,-280.418 269.116,-262.236 215.447,-246.054 213.595,-245.495 211.704,-244.919 209.796,-244.333"/>
<polygon fill="black" stroke="black" points="210.787,-240.976 200.198,-241.349 208.708,-247.66 210.787,-240.976"/>
</g>
<!-- 8_64036_20 -->
<g id="node26" class="node"><title>8_64036_20</title>
<ellipse fill="white" stroke="black" cx="513.447" cy="-118.263" rx="59.2941" ry="16.0303"/>
<text text-anchor="middle" x="513.447" y="-114.563" font-family="Times,serif" font-size="14.00">8_64036_20</text>
</g>
<!-- 8_64036_18x8_64036_19&#45;&gt;8_64036_20 -->
<g id="edge25" class="edge"><title>8_64036_18x8_64036_19&#45;&gt;8_64036_20</title>
<path fill="none" stroke="black" d="M512.495,-170.434C512.584,-165.651 512.783,-154.981 512.976,-144.615"/>
<polygon fill="black" stroke="black" points="516.476,-144.643 513.162,-134.58 509.477,-144.513 516.476,-144.643"/>
</g>
<!-- 8_64036_1&#45;&gt;8_64036_1x8_64036_2 -->
<g id="edge5" class="edge"><title>8_64036_1&#45;&gt;8_64036_1x8_64036_2</title>
<path fill="none" stroke="black" d="M167.447,-218.168C167.447,-209.416 167.447,-196.981 167.447,-187.707"/>
<polygon fill="black" stroke="black" points="170.947,-187.666 167.447,-177.666 163.947,-187.666 170.947,-187.666"/>
</g>
<!-- 8_64036_7x8_64036_38 -->
<g id="node9" class="node"><title>8_64036_7x8_64036_38</title>
<polygon fill="none" stroke="black" points="318.447,-66 314.947,-62.5 318.447,-59 321.947,-62.5 318.447,-66"/>
</g>
<!-- 8_64036_7&#45;&gt;8_64036_7x8_64036_38 -->
<g id="edge8" class="edge"><title>8_64036_7&#45;&gt;8_64036_7x8_64036_38</title>
<path fill="none" stroke="black" d="M271.906,-106.642C282.999,-96.3592 299.576,-80.9929 309.662,-71.6436"/>
<polygon fill="black" stroke="black" points="312.186,-74.0761 317.141,-64.7111 307.427,-68.9424 312.186,-74.0761"/>
</g>
<!-- 8_64036_39 -->
<g id="node17" class="node"><title>8_64036_39</title>
<polygon fill="#66cdaa" stroke="black" points="360.447,-23 276.447,-23 276.447,-0 360.447,-0 360.447,-23"/>
<text text-anchor="middle" x="318.447" y="-7.8" font-family="Times,serif" font-size="14.00">8_64036_39</text>
</g>
<!-- 8_64036_7x8_64036_38&#45;&gt;8_64036_39 -->
<g id="edge14" class="edge"><title>8_64036_7x8_64036_38&#45;&gt;8_64036_39</title>
<path fill="none" stroke="black" d="M318.447,-58.8655C318.447,-54.0189 318.447,-43.2742 318.447,-33.3477"/>
<polygon fill="black" stroke="black" points="321.947,-33.2154 318.447,-23.2154 314.947,-33.2154 321.947,-33.2154"/>
</g>
<!-- 8_64036_28 -->
<g id="node10" class="node"><title>8_64036_28</title>
<polygon fill="dimgrey" stroke="black" points="706.447,-241.29 622.447,-241.29 622.447,-218.29 706.447,-218.29 706.447,-241.29"/>
<text text-anchor="middle" x="664.447" y="-226.09" font-family="Times,serif" font-size="14.00">8_64036_28</text>
</g>
<!-- 8_64036_28x8_64036_29 -->
<g id="node12" class="node"><title>8_64036_28x8_64036_29</title>
<polygon fill="none" stroke="black" points="698.447,-177.527 694.947,-174.027 698.447,-170.527 701.947,-174.027 698.447,-177.527"/>
</g>
<!-- 8_64036_28&#45;&gt;8_64036_28x8_64036_29 -->
<g id="edge10" class="edge"><title>8_64036_28&#45;&gt;8_64036_28x8_64036_29</title>
<path fill="none" stroke="black" d="M671.165,-218.168C677.174,-208.666 685.928,-194.823 691.888,-185.398"/>
<polygon fill="black" stroke="black" points="694.883,-187.212 697.269,-176.889 688.966,-183.47 694.883,-187.212"/>
</g>
<!-- 8_64036_27x8_64036_26 -->
<g id="node11" class="node"><title>8_64036_27x8_64036_26</title>
<polygon fill="none" stroke="black" points="664.447,-289.054 660.947,-285.554 664.447,-282.054 667.947,-285.554 664.447,-289.054"/>
</g>
<!-- 8_64036_27x8_64036_26&#45;&gt;8_64036_28 -->
<g id="edge9" class="edge"><title>8_64036_27x8_64036_26&#45;&gt;8_64036_28</title>
<path fill="none" stroke="black" d="M664.447,-281.961C664.447,-276.493 664.447,-263.327 664.447,-251.721"/>
<polygon fill="black" stroke="black" points="667.947,-251.372 664.447,-241.372 660.947,-251.372 667.947,-251.372"/>
</g>
<!-- 8_64036_30 -->
<g id="node16" class="node"><title>8_64036_30</title>
<ellipse fill="white" stroke="black" cx="698.447" cy="-118.263" rx="59.2941" ry="16.0303"/>
<text text-anchor="middle" x="698.447" y="-114.563" font-family="Times,serif" font-size="14.00">8_64036_30</text>
</g>
<!-- 8_64036_28x8_64036_29&#45;&gt;8_64036_30 -->
<g id="edge13" class="edge"><title>8_64036_28x8_64036_29&#45;&gt;8_64036_30</title>
<path fill="none" stroke="black" d="M698.447,-170.434C698.447,-165.651 698.447,-154.981 698.447,-144.615"/>
<polygon fill="black" stroke="black" points="701.947,-144.58 698.447,-134.58 694.947,-144.58 701.947,-144.58"/>
</g>
<!-- 8_64036_2 -->
<g id="node13" class="node"><title>8_64036_2</title>
<ellipse fill="white" stroke="black" cx="278.447" cy="-229.79" rx="54.3945" ry="16.0303"/>
<text text-anchor="middle" x="278.447" y="-226.09" font-family="Times,serif" font-size="14.00">8_64036_2</text>
</g>
<!-- 8_64036_2&#45;&gt;8_64036_1x8_64036_2 -->
<g id="edge11" class="edge"><title>8_64036_2&#45;&gt;8_64036_1x8_64036_2</title>
<path fill="none" stroke="black" d="M251.294,-215.638C227.971,-204.342 195.52,-188.624 178.645,-180.451"/>
<polygon fill="black" stroke="black" points="179.712,-177.079 169.187,-175.869 176.661,-183.379 179.712,-177.079"/>
</g>
<!-- 8_64036_41 -->
<g id="node14" class="node"><title>8_64036_41</title>
<ellipse fill="#66cdaa" stroke="black" cx="328.447" cy="-452.844" rx="59.2941" ry="16.0303"/>
<text text-anchor="middle" x="328.447" y="-449.144" font-family="Times,serif" font-size="14.00">8_64036_41</text>
</g>
<!-- 8_64036_40x8_64036_41 -->
<g id="node15" class="node"><title>8_64036_40x8_64036_41</title>
<polygon fill="none" stroke="black" points="379.447,-400.581 375.947,-397.081 379.447,-393.581 382.947,-397.081 379.447,-400.581"/>
</g>
<!-- 8_64036_41&#45;&gt;8_64036_40x8_64036_41 -->
<g id="edge12" class="edge"><title>8_64036_41&#45;&gt;8_64036_40x8_64036_41</title>
<path fill="none" stroke="black" d="M342.654,-436.868C351.706,-427.326 363.137,-415.275 370.836,-407.158"/>
<polygon fill="black" stroke="black" points="373.623,-409.306 377.966,-399.643 368.544,-404.489 373.623,-409.306"/>
</g>
<!-- 8_64036_27 -->
<g id="node20" class="node"><title>8_64036_27</title>
<polygon fill="#66cdaa" stroke="black" points="472.447,-352.817 388.447,-352.817 388.447,-329.817 472.447,-329.817 472.447,-352.817"/>
<text text-anchor="middle" x="430.447" y="-337.617" font-family="Times,serif" font-size="14.00">8_64036_27</text>
</g>
<!-- 8_64036_40x8_64036_41&#45;&gt;8_64036_27 -->
<g id="edge17" class="edge"><title>8_64036_40x8_64036_41&#45;&gt;8_64036_27</title>
<path fill="none" stroke="black" d="M380.708,-394.752C385.17,-390.048 400.619,-373.762 413.129,-360.574"/>
<polygon fill="black" stroke="black" points="415.707,-362.942 420.05,-353.278 410.628,-358.124 415.707,-362.942"/>
</g>
<!-- 8_64036_22 -->
<g id="node25" class="node"><title>8_64036_22</title>
<polygon fill="#66cdaa" stroke="black" points="370.447,-352.817 286.447,-352.817 286.447,-329.817 370.447,-329.817 370.447,-352.817"/>
<text text-anchor="middle" x="328.447" y="-337.617" font-family="Times,serif" font-size="14.00">8_64036_22</text>
</g>
<!-- 8_64036_40x8_64036_41&#45;&gt;8_64036_22 -->
<g id="edge23" class="edge"><title>8_64036_40x8_64036_41&#45;&gt;8_64036_22</title>
<path fill="none" stroke="black" d="M378.187,-394.752C373.724,-390.048 358.276,-373.762 345.766,-360.574"/>
<polygon fill="black" stroke="black" points="348.266,-358.124 338.845,-353.278 343.188,-362.942 348.266,-358.124"/>
</g>
<!-- 8_64036_38 -->
<g id="node18" class="node"><title>8_64036_38</title>
<ellipse fill="white" stroke="black" cx="376.447" cy="-118.263" rx="59.2941" ry="16.0303"/>
<text text-anchor="middle" x="376.447" y="-114.563" font-family="Times,serif" font-size="14.00">8_64036_38</text>
</g>
<!-- 8_64036_38&#45;&gt;8_64036_7x8_64036_38 -->
<g id="edge15" class="edge"><title>8_64036_38&#45;&gt;8_64036_7x8_64036_38</title>
<path fill="none" stroke="black" d="M360.598,-102.572C349.876,-92.6331 336.11,-79.8729 327.282,-71.6895"/>
<polygon fill="black" stroke="black" points="329.551,-69.0205 319.838,-64.7891 324.792,-74.1542 329.551,-69.0205"/>
</g>
<!-- 8_64036_29 -->
<g id="node19" class="node"><title>8_64036_29</title>
<ellipse fill="white" stroke="black" cx="783.447" cy="-229.79" rx="59.2941" ry="16.0303"/>
<text text-anchor="middle" x="783.447" y="-226.09" font-family="Times,serif" font-size="14.00">8_64036_29</text>
</g>
<!-- 8_64036_29&#45;&gt;8_64036_28x8_64036_29 -->
<g id="edge16" class="edge"><title>8_64036_29&#45;&gt;8_64036_28x8_64036_29</title>
<path fill="none" stroke="black" d="M761.114,-214.665C744.243,-203.993 721.852,-189.831 708.908,-181.644"/>
<polygon fill="black" stroke="black" points="710.429,-178.464 700.107,-176.077 706.687,-184.38 710.429,-178.464"/>
</g>
<!-- 8_64036_27&#45;&gt;8_64036_27x8_64036_26 -->
<g id="edge18" class="edge"><title>8_64036_27&#45;&gt;8_64036_27x8_64036_26</title>
<path fill="none" stroke="black" d="M464.354,-329.74C470.039,-328.09 475.894,-326.466 481.447,-325.054 545.295,-308.813 622.905,-294.129 652.343,-288.738"/>
<polygon fill="black" stroke="black" points="653.04,-292.169 662.256,-286.943 651.793,-285.281 653.04,-292.169"/>
</g>
<!-- 8_64036_26 -->
<g id="node21" class="node"><title>8_64036_26</title>
<ellipse fill="#66cdaa" stroke="black" cx="686.447" cy="-341.317" rx="59.2941" ry="16.0303"/>
<text text-anchor="middle" x="686.447" y="-337.617" font-family="Times,serif" font-size="14.00">8_64036_26</text>
</g>
<!-- 8_64036_26&#45;&gt;8_64036_27x8_64036_26 -->
<g id="edge20" class="edge"><title>8_64036_26&#45;&gt;8_64036_27x8_64036_26</title>
<path fill="none" stroke="black" d="M680.202,-325.055C676.667,-316.416 672.321,-305.796 669.09,-297.899"/>
<polygon fill="black" stroke="black" points="672.233,-296.338 665.206,-288.408 665.754,-298.989 672.233,-296.338"/>
</g>
<!-- 8_64036_24x8_64036_25 -->
<g id="node22" class="node"><title>8_64036_24x8_64036_25</title>
<polygon fill="none" stroke="black" points="643.447,-400.581 639.947,-397.081 643.447,-393.581 646.947,-397.081 643.447,-400.581"/>
</g>
<!-- 8_64036_24x8_64036_25&#45;&gt;8_64036_26 -->
<g id="edge19" class="edge"><title>8_64036_24x8_64036_25&#45;&gt;8_64036_26</title>
<path fill="none" stroke="black" d="M644.878,-394.292C648.572,-389.673 658.798,-376.887 668.183,-365.153"/>
<polygon fill="black" stroke="black" points="670.942,-367.307 674.455,-357.311 665.476,-362.935 670.942,-367.307"/>
</g>
<!-- 8_64036_23 -->
<g id="node29" class="node"><title>8_64036_23</title>
<ellipse fill="dimgrey" stroke="black" cx="549.447" cy="-341.317" rx="59.2941" ry="16.0303"/>
<text text-anchor="middle" x="549.447" y="-337.617" font-family="Times,serif" font-size="14.00">8_64036_23</text>
</g>
<!-- 8_64036_24x8_64036_25&#45;&gt;8_64036_23 -->
<g id="edge28" class="edge"><title>8_64036_24x8_64036_25&#45;&gt;8_64036_23</title>
<path fill="none" stroke="black" d="M641.816,-395.148C634.768,-391.117 606.235,-374.797 582.724,-361.35"/>
<polygon fill="black" stroke="black" points="584.432,-358.295 574.014,-356.368 580.957,-364.371 584.432,-358.295"/>
</g>
<!-- 8_64036_25 -->
<g id="node23" class="node"><title>8_64036_25</title>
<ellipse fill="#66cdaa" stroke="black" cx="609.447" cy="-452.844" rx="59.2941" ry="16.0303"/>
<text text-anchor="middle" x="609.447" y="-449.144" font-family="Times,serif" font-size="14.00">8_64036_25</text>
</g>
<!-- 8_64036_25&#45;&gt;8_64036_24x8_64036_25 -->
<g id="edge21" class="edge"><title>8_64036_25&#45;&gt;8_64036_24x8_64036_25</title>
<path fill="none" stroke="black" d="M619.099,-436.582C624.864,-427.466 632.024,-416.143 637.084,-408.143"/>
<polygon fill="black" stroke="black" points="640.084,-409.947 642.471,-399.625 634.168,-406.206 640.084,-409.947"/>
</g>
<!-- 8_64036_24 -->
<g id="node24" class="node"><title>8_64036_24</title>
<polygon fill="dimgrey" stroke="black" points="770.447,-464.344 686.447,-464.344 686.447,-441.344 770.447,-441.344 770.447,-464.344"/>
<text text-anchor="middle" x="728.447" y="-449.144" font-family="Times,serif" font-size="14.00">8_64036_24</text>
</g>
<!-- 8_64036_24&#45;&gt;8_64036_24x8_64036_25 -->
<g id="edge22" class="edge"><title>8_64036_24&#45;&gt;8_64036_24x8_64036_25</title>
<path fill="none" stroke="black" d="M711.654,-441.222C694.551,-430.404 668.551,-413.959 654.093,-404.814"/>
<polygon fill="black" stroke="black" points="655.684,-401.679 645.362,-399.292 651.942,-407.595 655.684,-401.679"/>
</g>
<!-- 8_64036_22&#45;&gt;8_64036_22x8_64036_23 -->
<g id="edge24" class="edge"><title>8_64036_22&#45;&gt;8_64036_22x8_64036_23</title>
<path fill="none" stroke="black" d="M332.794,-329.695C336.555,-320.503 341.979,-307.248 345.82,-297.861"/>
<polygon fill="black" stroke="black" points="349.137,-298.997 349.685,-288.416 342.659,-296.346 349.137,-298.997"/>
</g>
<!-- 8_64036_19 -->
<g id="node27" class="node"><title>8_64036_19</title>
<ellipse fill="white" stroke="black" cx="512.447" cy="-229.79" rx="59.2941" ry="16.0303"/>
<text text-anchor="middle" x="512.447" y="-226.09" font-family="Times,serif" font-size="14.00">8_64036_19</text>
</g>
<!-- 8_64036_19&#45;&gt;8_64036_18x8_64036_19 -->
<g id="edge26" class="edge"><title>8_64036_19&#45;&gt;8_64036_18x8_64036_19</title>
<path fill="none" stroke="black" d="M512.447,-213.24C512.447,-205.134 512.447,-195.345 512.447,-187.705"/>
<polygon fill="black" stroke="black" points="515.947,-187.55 512.447,-177.55 508.947,-187.55 515.947,-187.55"/>
</g>
<!-- 8_64036_40 -->
<g id="node28" class="node"><title>8_64036_40</title>
<polygon fill="#66cdaa" stroke="black" points="489.447,-464.344 405.447,-464.344 405.447,-441.344 489.447,-441.344 489.447,-464.344"/>
<text text-anchor="middle" x="447.447" y="-449.144" font-family="Times,serif" font-size="14.00">8_64036_40</text>
</g>
<!-- 8_64036_40&#45;&gt;8_64036_40x8_64036_41 -->
<g id="edge27" class="edge"><title>8_64036_40&#45;&gt;8_64036_40x8_64036_41</title>
<path fill="none" stroke="black" d="M434.013,-441.222C420.737,-430.726 400.76,-414.931 389.018,-405.648"/>
<polygon fill="black" stroke="black" points="390.994,-402.748 380.979,-399.292 386.653,-408.239 390.994,-402.748"/>
</g>
<!-- 8_64036_23&#45;&gt;8_64036_22x8_64036_23 -->
<g id="edge29" class="edge"><title>8_64036_23&#45;&gt;8_64036_22x8_64036_23</title>
<path fill="none" stroke="black" d="M508.696,-329.308C462.755,-316.896 390.781,-297.451 362.465,-289.801"/>
<polygon fill="black" stroke="black" points="363.14,-286.358 352.573,-287.128 361.314,-293.115 363.14,-286.358"/>
</g>
</g>
</svg>
