<?xml version="1.0" encoding="UTF-8" standalone="no"?>
<!DOCTYPE svg PUBLIC "-//W3C//DTD SVG 1.1//EN"
 "http://www.w3.org/Graphics/SVG/1.1/DTD/svg11.dtd">
<!-- Generated by graphviz version 2.38.0 (20140413.2041)
 -->
<!-- Title: %3 Pages: 1 -->
<svg width="3569pt" height="264pt"
 viewBox="0.00 0.00 3568.81 263.58" xmlns="http://www.w3.org/2000/svg" xmlns:xlink="http://www.w3.org/1999/xlink">
<g id="graph0" class="graph" transform="scale(1 1) rotate(0) translate(4 259.581)">
<title>%3</title>
<polygon fill="white" stroke="none" points="-4,4 -4,-259.581 3564.81,-259.581 3564.81,4 -4,4"/>
<!-- 205_13 -->
<g id="node1" class="node"><title>205_13</title>
<ellipse fill="white" stroke="black" cx="3445.31" cy="-16.2635" rx="40.1111" ry="16.0303"/>
<text text-anchor="middle" x="3445.31" y="-12.5635" font-family="Times,serif" font-size="14.00">205_13</text>
</g>
<!-- 205_26x205_99 -->
<g id="node2" class="node"><title>205_26x205_99</title>
<polygon fill="none" stroke="black" points="2930.31,-75.5269 2926.81,-72.0269 2930.31,-68.5269 2933.81,-72.0269 2930.31,-75.5269"/>
</g>
<!-- 205_26x205_99&#45;&gt;205_13 -->
<g id="edge1" class="edge"><title>205_26x205_99&#45;&gt;205_13</title>
<path fill="none" stroke="black" d="M2932.93,-71.0245C2960.73,-70.9556 3203.57,-69.2902 3395.31,-32.5269 3398.75,-31.866 3402.3,-31.0564 3405.84,-30.1582"/>
<polygon fill="black" stroke="black" points="3406.98,-33.4734 3415.69,-27.4419 3405.12,-26.725 3406.98,-33.4734"/>
</g>
<!-- 205_16 -->
<g id="node31" class="node"><title>205_16</title>
<polygon fill="dimgrey" stroke="black" points="3560.81,-27.7635 3503.81,-27.7635 3503.81,-4.76346 3560.81,-4.76346 3560.81,-27.7635"/>
<text text-anchor="middle" x="3532.31" y="-12.5635" font-family="Times,serif" font-size="14.00">205_16</text>
</g>
<!-- 205_26x205_99&#45;&gt;205_16 -->
<g id="edge27" class="edge"><title>205_26x205_99&#45;&gt;205_16</title>
<path fill="none" stroke="black" d="M2933.14,-70.9572C2971,-70.0071 3377.59,-59.2468 3494.31,-32.5269 3496.02,-32.1342 3497.76,-31.6748 3499.5,-31.1653"/>
<polygon fill="black" stroke="black" points="3501.02,-34.3447 3509.37,-27.8136 3498.77,-27.7169 3501.02,-34.3447"/>
</g>
<!-- 205_21 -->
<g id="node32" class="node"><title>205_21</title>
<polygon fill="dimgrey" stroke="black" points="2492.81,-27.7635 2435.81,-27.7635 2435.81,-4.76346 2492.81,-4.76346 2492.81,-27.7635"/>
<text text-anchor="middle" x="2464.31" y="-12.5635" font-family="Times,serif" font-size="14.00">205_21</text>
</g>
<!-- 205_26x205_99&#45;&gt;205_21 -->
<g id="edge28" class="edge"><title>205_26x205_99&#45;&gt;205_21</title>
<path fill="none" stroke="black" d="M2927.54,-71.0848C2900.24,-71.5942 2676.4,-74.3625 2502.31,-32.5269 2500.64,-32.1272 2498.96,-31.6678 2497.26,-31.1634"/>
<polygon fill="black" stroke="black" points="2498.27,-27.807 2487.67,-27.8859 2496,-34.4311 2498.27,-27.807"/>
</g>
<!-- 205_25 -->
<g id="node52" class="node"><title>205_25</title>
<ellipse fill="white" stroke="black" cx="2551.31" cy="-16.2635" rx="40.1111" ry="16.0303"/>
<text text-anchor="middle" x="2551.31" y="-12.5635" font-family="Times,serif" font-size="14.00">205_25</text>
</g>
<!-- 205_26x205_99&#45;&gt;205_25 -->
<g id="edge50" class="edge"><title>205_26x205_99&#45;&gt;205_25</title>
<path fill="none" stroke="black" d="M2927.63,-70.9052C2904.41,-69.8097 2734.6,-61.0175 2600.31,-32.5269 2597.12,-31.852 2593.85,-31.0592 2590.58,-30.1959"/>
<polygon fill="black" stroke="black" points="2591.45,-26.8023 2580.87,-27.4419 2589.54,-33.5368 2591.45,-26.8023"/>
</g>
<!-- 205_24 -->
<g id="node53" class="node"><title>205_24</title>
<polygon fill="white" stroke="black" points="2666.81,-27.7635 2609.81,-27.7635 2609.81,-4.76346 2666.81,-4.76346 2666.81,-27.7635"/>
<text text-anchor="middle" x="2638.31" y="-12.5635" font-family="Times,serif" font-size="14.00">205_24</text>
</g>
<!-- 205_26x205_99&#45;&gt;205_24 -->
<g id="edge51" class="edge"><title>205_26x205_99&#45;&gt;205_24</title>
<path fill="none" stroke="black" d="M2927.74,-70.8758C2907.93,-69.6588 2777.12,-60.767 2675.31,-32.5269 2673.88,-32.1323 2672.44,-31.698 2670.99,-31.2333"/>
<polygon fill="black" stroke="black" points="2672.09,-27.9077 2661.49,-27.825 2669.72,-34.4965 2672.09,-27.9077"/>
</g>
<!-- 205_23 -->
<g id="node54" class="node"><title>205_23</title>
<polygon fill="white" stroke="black" points="2741.81,-27.7635 2684.81,-27.7635 2684.81,-4.76346 2741.81,-4.76346 2741.81,-27.7635"/>
<text text-anchor="middle" x="2713.31" y="-12.5635" font-family="Times,serif" font-size="14.00">205_23</text>
</g>
<!-- 205_26x205_99&#45;&gt;205_23 -->
<g id="edge52" class="edge"><title>205_26x205_99&#45;&gt;205_23</title>
<path fill="none" stroke="black" d="M2927.74,-70.6441C2911.54,-68.1918 2821.82,-54.1019 2751.31,-32.5269 2750.08,-32.1525 2748.84,-31.7553 2747.59,-31.3404"/>
<polygon fill="black" stroke="black" points="2748.62,-27.9895 2738.03,-27.8957 2746.25,-34.5758 2748.62,-27.9895"/>
</g>
<!-- 205_20 -->
<g id="node56" class="node"><title>205_20</title>
<ellipse fill="white" stroke="black" cx="2800.31" cy="-16.2635" rx="40.1111" ry="16.0303"/>
<text text-anchor="middle" x="2800.31" y="-12.5635" font-family="Times,serif" font-size="14.00">205_20</text>
</g>
<!-- 205_26x205_99&#45;&gt;205_20 -->
<g id="edge54" class="edge"><title>205_26x205_99&#45;&gt;205_20</title>
<path fill="none" stroke="black" d="M2928.47,-70.2669C2918.59,-66.1837 2871.02,-46.5089 2836.72,-32.3215"/>
<polygon fill="black" stroke="black" points="2838.01,-29.0704 2827.43,-28.4829 2835.34,-35.539 2838.01,-29.0704"/>
</g>
<!-- 205_19 -->
<g id="node57" class="node"><title>205_19</title>
<polygon fill="white" stroke="black" points="2915.81,-27.7635 2858.81,-27.7635 2858.81,-4.76346 2915.81,-4.76346 2915.81,-27.7635"/>
<text text-anchor="middle" x="2887.31" y="-12.5635" font-family="Times,serif" font-size="14.00">205_19</text>
</g>
<!-- 205_26x205_99&#45;&gt;205_19 -->
<g id="edge55" class="edge"><title>205_26x205_99&#45;&gt;205_19</title>
<path fill="none" stroke="black" d="M2928.87,-69.2381C2924.71,-64.0368 2912.27,-48.4782 2902.07,-35.7288"/>
<polygon fill="black" stroke="black" points="2904.79,-33.5168 2895.81,-27.8934 2899.32,-37.889 2904.79,-33.5168"/>
</g>
<!-- 205_18 -->
<g id="node58" class="node"><title>205_18</title>
<ellipse fill="#66cdaa" stroke="black" cx="2974.31" cy="-16.2635" rx="40.1111" ry="16.0303"/>
<text text-anchor="middle" x="2974.31" y="-12.5635" font-family="Times,serif" font-size="14.00">205_18</text>
</g>
<!-- 205_26x205_99&#45;&gt;205_18 -->
<g id="edge56" class="edge"><title>205_26x205_99&#45;&gt;205_18</title>
<path fill="none" stroke="black" d="M2931.77,-69.2381C2935.57,-64.5897 2946.15,-51.6688 2955.8,-39.8738"/>
<polygon fill="black" stroke="black" points="2958.62,-41.9589 2962.24,-32.0034 2953.2,-37.5255 2958.62,-41.9589"/>
</g>
<!-- 205_17 -->
<g id="node59" class="node"><title>205_17</title>
<ellipse fill="white" stroke="black" cx="3073.31" cy="-16.2635" rx="40.1111" ry="16.0303"/>
<text text-anchor="middle" x="3073.31" y="-12.5635" font-family="Times,serif" font-size="14.00">205_17</text>
</g>
<!-- 205_26x205_99&#45;&gt;205_17 -->
<g id="edge57" class="edge"><title>205_26x205_99&#45;&gt;205_17</title>
<path fill="none" stroke="black" d="M2932.33,-70.2669C2943.39,-66.1077 2997.48,-45.7708 3035.35,-31.5348"/>
<polygon fill="black" stroke="black" points="3036.94,-34.6757 3045.07,-27.8804 3034.47,-28.1235 3036.94,-34.6757"/>
</g>
<!-- 205_15 -->
<g id="node60" class="node"><title>205_15</title>
<ellipse fill="#66cdaa" stroke="black" cx="3172.31" cy="-16.2635" rx="40.1111" ry="16.0303"/>
<text text-anchor="middle" x="3172.31" y="-12.5635" font-family="Times,serif" font-size="14.00">205_15</text>
</g>
<!-- 205_26x205_99&#45;&gt;205_15 -->
<g id="edge58" class="edge"><title>205_26x205_99&#45;&gt;205_15</title>
<path fill="none" stroke="black" d="M2932.61,-70.6539C2948.63,-68.0383 3045.17,-51.9842 3122.31,-32.5269 3125.52,-31.7167 3128.83,-30.8272 3132.15,-29.8975"/>
<polygon fill="black" stroke="black" points="3133.4,-33.1774 3142.03,-27.0271 3131.45,-26.4552 3133.4,-33.1774"/>
</g>
<!-- 205_14 -->
<g id="node61" class="node"><title>205_14</title>
<polygon fill="white" stroke="black" points="3287.81,-27.7635 3230.81,-27.7635 3230.81,-4.76346 3287.81,-4.76346 3287.81,-27.7635"/>
<text text-anchor="middle" x="3259.31" y="-12.5635" font-family="Times,serif" font-size="14.00">205_14</text>
</g>
<!-- 205_26x205_99&#45;&gt;205_14 -->
<g id="edge59" class="edge"><title>205_26x205_99&#45;&gt;205_14</title>
<path fill="none" stroke="black" d="M2932.95,-70.929C2954.56,-70.0766 3104.49,-63.1961 3221.31,-32.5269 3222.77,-32.1433 3224.25,-31.7182 3225.73,-31.2611"/>
<polygon fill="black" stroke="black" points="3227.19,-34.4621 3235.49,-27.882 3224.89,-27.8476 3227.19,-34.4621"/>
</g>
<!-- 205_22 -->
<g id="node64" class="node"><title>205_22</title>
<ellipse fill="#66cdaa" stroke="black" cx="3346.31" cy="-16.2635" rx="40.1111" ry="16.0303"/>
<text text-anchor="middle" x="3346.31" y="-12.5635" font-family="Times,serif" font-size="14.00">205_22</text>
</g>
<!-- 205_26x205_99&#45;&gt;205_22 -->
<g id="edge62" class="edge"><title>205_26x205_99&#45;&gt;205_22</title>
<path fill="none" stroke="black" d="M2932.96,-70.949C2957.51,-70.1882 3147.34,-63.4334 3297.31,-32.5269 3300.49,-31.8705 3303.76,-31.0909 3307.03,-30.2367"/>
<polygon fill="black" stroke="black" points="3308.08,-33.5796 3316.75,-27.4986 3306.18,-26.842 3308.08,-33.5796"/>
</g>
<!-- 205_46 -->
<g id="node3" class="node"><title>205_46</title>
<polygon fill="#66cdaa" stroke="black" points="725.805,-27.7635 668.805,-27.7635 668.805,-4.76346 725.805,-4.76346 725.805,-27.7635"/>
<text text-anchor="middle" x="697.305" y="-12.5635" font-family="Times,serif" font-size="14.00">205_46</text>
</g>
<!-- 205_4x205_42 -->
<g id="node4" class="node"><title>205_4x205_42</title>
<polygon fill="none" stroke="black" points="772.305,-75.5269 768.805,-72.0269 772.305,-68.5269 775.805,-72.0269 772.305,-75.5269"/>
</g>
<!-- 205_4x205_42&#45;&gt;205_46 -->
<g id="edge2" class="edge"><title>205_4x205_42&#45;&gt;205_46</title>
<path fill="none" stroke="black" d="M770.739,-69.904C764.317,-65.301 739.451,-47.4758 720.416,-33.8304"/>
<polygon fill="black" stroke="black" points="722.334,-30.8991 712.167,-27.9175 718.256,-36.5883 722.334,-30.8991"/>
</g>
<!-- 205_45 -->
<g id="node5" class="node"><title>205_45</title>
<polygon fill="#66cdaa" stroke="black" points="800.805,-27.7635 743.805,-27.7635 743.805,-4.76346 800.805,-4.76346 800.805,-27.7635"/>
<text text-anchor="middle" x="772.305" y="-12.5635" font-family="Times,serif" font-size="14.00">205_45</text>
</g>
<!-- 205_4x205_42&#45;&gt;205_45 -->
<g id="edge3" class="edge"><title>205_4x205_42&#45;&gt;205_45</title>
<path fill="none" stroke="black" d="M772.305,-68.4338C772.305,-62.9657 772.305,-49.8005 772.305,-38.1938"/>
<polygon fill="black" stroke="black" points="775.805,-37.8452 772.305,-27.8453 768.805,-37.8453 775.805,-37.8452"/>
</g>
<!-- 205_44 -->
<g id="node6" class="node"><title>205_44</title>
<polygon fill="#66cdaa" stroke="black" points="875.805,-27.7635 818.805,-27.7635 818.805,-4.76346 875.805,-4.76346 875.805,-27.7635"/>
<text text-anchor="middle" x="847.305" y="-12.5635" font-family="Times,serif" font-size="14.00">205_44</text>
</g>
<!-- 205_4x205_42&#45;&gt;205_44 -->
<g id="edge4" class="edge"><title>205_4x205_42&#45;&gt;205_44</title>
<path fill="none" stroke="black" d="M773.872,-69.904C780.293,-65.301 805.159,-47.4758 824.194,-33.8304"/>
<polygon fill="black" stroke="black" points="826.354,-36.5883 832.443,-27.9175 822.276,-30.8991 826.354,-36.5883"/>
</g>
<!-- 205_43 -->
<g id="node7" class="node"><title>205_43</title>
<polygon fill="#66cdaa" stroke="black" points="950.805,-27.7635 893.805,-27.7635 893.805,-4.76346 950.805,-4.76346 950.805,-27.7635"/>
<text text-anchor="middle" x="922.305" y="-12.5635" font-family="Times,serif" font-size="14.00">205_43</text>
</g>
<!-- 205_4x205_42&#45;&gt;205_43 -->
<g id="edge5" class="edge"><title>205_4x205_42&#45;&gt;205_43</title>
<path fill="none" stroke="black" d="M774.455,-70.3331C785.855,-66.6447 840.373,-48.8886 884.305,-32.5269 885.18,-32.2012 886.064,-31.8688 886.956,-31.5313"/>
<polygon fill="black" stroke="black" points="888.559,-34.6636 896.619,-27.7865 886.03,-28.1366 888.559,-34.6636"/>
</g>
<!-- 205_47 -->
<g id="node16" class="node"><title>205_47</title>
<polygon fill="#66cdaa" stroke="black" points="1025.81,-27.7635 968.805,-27.7635 968.805,-4.76346 1025.81,-4.76346 1025.81,-27.7635"/>
<text text-anchor="middle" x="997.305" y="-12.5635" font-family="Times,serif" font-size="14.00">205_47</text>
</g>
<!-- 205_4x205_42&#45;&gt;205_47 -->
<g id="edge12" class="edge"><title>205_4x205_42&#45;&gt;205_47</title>
<path fill="none" stroke="black" d="M774.565,-70.7183C790.3,-68.5379 885.037,-54.8913 959.305,-32.5269 960.709,-32.1041 962.134,-31.6504 963.566,-31.1734"/>
<polygon fill="black" stroke="black" points="964.784,-34.4547 973.005,-27.7706 962.41,-27.8696 964.784,-34.4547"/>
</g>
<!-- 205_48 -->
<g id="node22" class="node"><title>205_48</title>
<polygon fill="#66cdaa" stroke="black" points="1100.81,-27.7635 1043.81,-27.7635 1043.81,-4.76346 1100.81,-4.76346 1100.81,-27.7635"/>
<text text-anchor="middle" x="1072.31" y="-12.5635" font-family="Times,serif" font-size="14.00">205_48</text>
</g>
<!-- 205_4x205_42&#45;&gt;205_48 -->
<g id="edge18" class="edge"><title>205_4x205_42&#45;&gt;205_48</title>
<path fill="none" stroke="black" d="M774.935,-70.8769C795.277,-69.6688 929.562,-60.8314 1034.31,-32.5269 1035.76,-32.1328 1037.24,-31.6989 1038.73,-31.2347"/>
<polygon fill="black" stroke="black" points="1040.19,-34.4309 1048.48,-27.8277 1037.88,-27.8228 1040.19,-34.4309"/>
</g>
<!-- 205_51 -->
<g id="node23" class="node"><title>205_51</title>
<ellipse fill="#66cdaa" stroke="black" cx="1159.31" cy="-16.2635" rx="40.1111" ry="16.0303"/>
<text text-anchor="middle" x="1159.31" y="-12.5635" font-family="Times,serif" font-size="14.00">205_51</text>
</g>
<!-- 205_4x205_42&#45;&gt;205_51 -->
<g id="edge19" class="edge"><title>205_4x205_42&#45;&gt;205_51</title>
<path fill="none" stroke="black" d="M774.743,-70.9192C797.276,-69.8888 971.511,-61.1795 1109.31,-32.5269 1112.74,-31.8124 1116.28,-30.9654 1119.81,-30.0423"/>
<polygon fill="black" stroke="black" points="1120.97,-33.3521 1129.66,-27.2861 1119.09,-26.6112 1120.97,-33.3521"/>
</g>
<!-- 205_50 -->
<g id="node24" class="node"><title>205_50</title>
<polygon fill="#66cdaa" stroke="black" points="1274.81,-27.7635 1217.81,-27.7635 1217.81,-4.76346 1274.81,-4.76346 1274.81,-27.7635"/>
<text text-anchor="middle" x="1246.31" y="-12.5635" font-family="Times,serif" font-size="14.00">205_50</text>
</g>
<!-- 205_4x205_42&#45;&gt;205_50 -->
<g id="edge20" class="edge"><title>205_4x205_42&#45;&gt;205_50</title>
<path fill="none" stroke="black" d="M775.123,-71.0922C802.932,-71.6731 1030.94,-74.993 1208.31,-32.5269 1209.97,-32.1286 1211.66,-31.6703 1213.35,-31.1668"/>
<polygon fill="black" stroke="black" points="1214.61,-34.4349 1222.94,-27.8921 1212.35,-27.8102 1214.61,-34.4349"/>
</g>
<!-- 205_58 -->
<g id="node33" class="node"><title>205_58</title>
<ellipse fill="#66cdaa" stroke="black" cx="1333.31" cy="-16.2635" rx="40.1111" ry="16.0303"/>
<text text-anchor="middle" x="1333.31" y="-12.5635" font-family="Times,serif" font-size="14.00">205_58</text>
</g>
<!-- 205_4x205_42&#45;&gt;205_58 -->
<g id="edge29" class="edge"><title>205_4x205_42&#45;&gt;205_58</title>
<path fill="none" stroke="black" d="M775.192,-71.0537C805.74,-71.2876 1072.58,-72.1232 1283.31,-32.5269 1286.75,-31.8787 1290.3,-31.0781 1293.84,-30.1858"/>
<polygon fill="black" stroke="black" points="1294.98,-33.5023 1303.7,-27.4791 1293.13,-26.7522 1294.98,-33.5023"/>
</g>
<!-- 205_57 -->
<g id="node34" class="node"><title>205_57</title>
<ellipse fill="#66cdaa" stroke="black" cx="40.3051" cy="-16.2635" rx="40.1111" ry="16.0303"/>
<text text-anchor="middle" x="40.3051" y="-12.5635" font-family="Times,serif" font-size="14.00">205_57</text>
</g>
<!-- 205_4x205_42&#45;&gt;205_57 -->
<g id="edge30" class="edge"><title>205_4x205_42&#45;&gt;205_57</title>
<path fill="none" stroke="black" d="M769.428,-70.9609C727.246,-69.9795 233.327,-58.0117 90.3051,-32.5269 86.6975,-31.8841 82.9841,-31.0643 79.2881,-30.1395"/>
<polygon fill="black" stroke="black" points="80.1989,-26.7601 69.6296,-27.4952 78.3504,-33.5117 80.1989,-26.7601"/>
</g>
<!-- 205_56 -->
<g id="node35" class="node"><title>205_56</title>
<ellipse fill="#66cdaa" stroke="black" cx="139.305" cy="-16.2635" rx="40.1111" ry="16.0303"/>
<text text-anchor="middle" x="139.305" y="-12.5635" font-family="Times,serif" font-size="14.00">205_56</text>
</g>
<!-- 205_4x205_42&#45;&gt;205_56 -->
<g id="edge31" class="edge"><title>205_4x205_42&#45;&gt;205_56</title>
<path fill="none" stroke="black" d="M769.431,-71.0908C736.693,-71.7672 430.765,-76.7429 189.305,-32.5269 185.701,-31.8669 181.989,-31.0353 178.295,-30.1029"/>
<polygon fill="black" stroke="black" points="179.208,-26.7243 168.638,-27.4472 177.352,-33.4737 179.208,-26.7243"/>
</g>
<!-- 205_55 -->
<g id="node36" class="node"><title>205_55</title>
<ellipse fill="#66cdaa" stroke="black" cx="238.305" cy="-16.2635" rx="40.1111" ry="16.0303"/>
<text text-anchor="middle" x="238.305" y="-12.5635" font-family="Times,serif" font-size="14.00">205_55</text>
</g>
<!-- 205_4x205_42&#45;&gt;205_55 -->
<g id="edge32" class="edge"><title>205_4x205_42&#45;&gt;205_55</title>
<path fill="none" stroke="black" d="M769.57,-71.0366C740.636,-71.0927 487.879,-70.4602 288.305,-32.5269 284.857,-31.8715 281.31,-31.0658 277.772,-30.1702"/>
<polygon fill="black" stroke="black" points="278.487,-26.7369 267.916,-27.4581 276.629,-33.486 278.487,-26.7369"/>
</g>
<!-- 205_54 -->
<g id="node37" class="node"><title>205_54</title>
<ellipse fill="#66cdaa" stroke="black" cx="337.305" cy="-16.2635" rx="40.1111" ry="16.0303"/>
<text text-anchor="middle" x="337.305" y="-12.5635" font-family="Times,serif" font-size="14.00">205_54</text>
</g>
<!-- 205_4x205_42&#45;&gt;205_54 -->
<g id="edge33" class="edge"><title>205_4x205_42&#45;&gt;205_54</title>
<path fill="none" stroke="black" d="M769.834,-70.9661C745.442,-70.3284 545.373,-64.2359 387.305,-32.5269 383.864,-31.8366 380.321,-31.0065 376.786,-30.0946"/>
<polygon fill="black" stroke="black" points="377.508,-26.6626 366.936,-27.3565 375.633,-33.4069 377.508,-26.6626"/>
</g>
<!-- 205_53 -->
<g id="node38" class="node"><title>205_53</title>
<ellipse fill="#66cdaa" stroke="black" cx="436.305" cy="-16.2635" rx="40.1111" ry="16.0303"/>
<text text-anchor="middle" x="436.305" y="-12.5635" font-family="Times,serif" font-size="14.00">205_53</text>
</g>
<!-- 205_4x205_42&#45;&gt;205_53 -->
<g id="edge34" class="edge"><title>205_4x205_42&#45;&gt;205_53</title>
<path fill="none" stroke="black" d="M769.73,-70.8409C748.647,-69.2853 602.309,-57.865 486.305,-32.5269 482.922,-31.7879 479.436,-30.9301 475.954,-30.0054"/>
<polygon fill="black" stroke="black" points="476.812,-26.6109 466.238,-27.265 474.912,-33.3481 476.812,-26.6109"/>
</g>
<!-- 205_52 -->
<g id="node39" class="node"><title>205_52</title>
<ellipse fill="#66cdaa" stroke="black" cx="535.305" cy="-16.2635" rx="40.1111" ry="16.0303"/>
<text text-anchor="middle" x="535.305" y="-12.5635" font-family="Times,serif" font-size="14.00">205_52</text>
</g>
<!-- 205_4x205_42&#45;&gt;205_52 -->
<g id="edge35" class="edge"><title>205_4x205_42&#45;&gt;205_52</title>
<path fill="none" stroke="black" d="M770.051,-70.6534C754.357,-68.0349 659.803,-51.9643 584.305,-32.5269 581.338,-31.7629 578.283,-30.9287 575.219,-30.057"/>
<polygon fill="black" stroke="black" points="576.072,-26.6597 565.49,-27.1849 574.09,-33.3732 576.072,-26.6597"/>
</g>
<!-- 205_49 -->
<g id="node41" class="node"><title>205_49</title>
<polygon fill="#66cdaa" stroke="black" points="650.805,-27.7635 593.805,-27.7635 593.805,-4.76346 650.805,-4.76346 650.805,-27.7635"/>
<text text-anchor="middle" x="622.305" y="-12.5635" font-family="Times,serif" font-size="14.00">205_49</text>
</g>
<!-- 205_4x205_42&#45;&gt;205_49 -->
<g id="edge37" class="edge"><title>205_4x205_42&#45;&gt;205_49</title>
<path fill="none" stroke="black" d="M770.133,-70.3431C758.613,-66.7052 703.533,-49.1651 659.305,-32.5269 658.451,-32.2058 657.588,-31.8775 656.718,-31.5435"/>
<polygon fill="black" stroke="black" points="657.885,-28.2412 647.298,-27.8231 655.313,-34.7518 657.885,-28.2412"/>
</g>
<!-- 205_42 -->
<g id="node8" class="node"><title>205_42</title>
<ellipse fill="#66cdaa" stroke="black" cx="772.305" cy="-127.79" rx="40.1111" ry="16.0303"/>
<text text-anchor="middle" x="772.305" y="-124.09" font-family="Times,serif" font-size="14.00">205_42</text>
</g>
<!-- 205_42&#45;&gt;205_4x205_42 -->
<g id="edge6" class="edge"><title>205_42&#45;&gt;205_4x205_42</title>
<path fill="none" stroke="black" d="M772.305,-111.24C772.305,-103.134 772.305,-93.3455 772.305,-85.7049"/>
<polygon fill="black" stroke="black" points="775.805,-85.5501 772.305,-75.5502 768.805,-85.5502 775.805,-85.5501"/>
</g>
<!-- 205_41 -->
<g id="node9" class="node"><title>205_41</title>
<polygon fill="#66cdaa" stroke="black" points="2093.81,-27.7635 2036.81,-27.7635 2036.81,-4.76346 2093.81,-4.76346 2093.81,-27.7635"/>
<text text-anchor="middle" x="2065.31" y="-12.5635" font-family="Times,serif" font-size="14.00">205_41</text>
</g>
<!-- 205_29x205_7 -->
<g id="node10" class="node"><title>205_29x205_7</title>
<polygon fill="none" stroke="black" points="1946.31,-75.5269 1942.81,-72.0269 1946.31,-68.5269 1949.81,-72.0269 1946.31,-75.5269"/>
</g>
<!-- 205_29x205_7&#45;&gt;205_41 -->
<g id="edge7" class="edge"><title>205_29x205_7&#45;&gt;205_41</title>
<path fill="none" stroke="black" d="M1948.37,-70.0937C1958.27,-65.6204 2001.67,-46.0112 2032.71,-31.9902"/>
<polygon fill="black" stroke="black" points="2034.22,-35.1481 2041.89,-27.8413 2031.34,-28.769 2034.22,-35.1481"/>
</g>
<!-- 205_40 -->
<g id="node11" class="node"><title>205_40</title>
<polygon fill="dimgrey" stroke="black" points="2168.81,-27.7635 2111.81,-27.7635 2111.81,-4.76346 2168.81,-4.76346 2168.81,-27.7635"/>
<text text-anchor="middle" x="2140.31" y="-12.5635" font-family="Times,serif" font-size="14.00">205_40</text>
</g>
<!-- 205_29x205_7&#45;&gt;205_40 -->
<g id="edge8" class="edge"><title>205_29x205_7&#45;&gt;205_40</title>
<path fill="none" stroke="black" d="M1948.54,-70.599C1962.63,-67.8709 2040.71,-52.3902 2102.31,-32.5269 2103.52,-32.1341 2104.76,-31.7212 2106,-31.2927"/>
<polygon fill="black" stroke="black" points="2107.37,-34.5184 2115.55,-27.7854 2104.96,-27.9475 2107.37,-34.5184"/>
</g>
<!-- 205_38 -->
<g id="node14" class="node"><title>205_38</title>
<polygon fill="#66cdaa" stroke="black" points="2243.81,-27.7635 2186.81,-27.7635 2186.81,-4.76346 2243.81,-4.76346 2243.81,-27.7635"/>
<text text-anchor="middle" x="2215.31" y="-12.5635" font-family="Times,serif" font-size="14.00">205_38</text>
</g>
<!-- 205_29x205_7&#45;&gt;205_38 -->
<g id="edge10" class="edge"><title>205_29x205_7&#45;&gt;205_38</title>
<path fill="none" stroke="black" d="M1948.62,-70.8333C1966.55,-69.2964 2084.92,-58.448 2177.31,-32.5269 2178.72,-32.1308 2180.15,-31.6994 2181.59,-31.241"/>
<polygon fill="black" stroke="black" points="2182.77,-34.5331 2191.05,-27.9117 2180.45,-27.93 2182.77,-34.5331"/>
</g>
<!-- 205_37 -->
<g id="node15" class="node"><title>205_37</title>
<polygon fill="#66cdaa" stroke="black" points="2318.81,-27.7635 2261.81,-27.7635 2261.81,-4.76346 2318.81,-4.76346 2318.81,-27.7635"/>
<text text-anchor="middle" x="2290.31" y="-12.5635" font-family="Times,serif" font-size="14.00">205_37</text>
</g>
<!-- 205_29x205_7&#45;&gt;205_37 -->
<g id="edge11" class="edge"><title>205_29x205_7&#45;&gt;205_37</title>
<path fill="none" stroke="black" d="M1948.8,-70.9568C1970.48,-70.2984 2128.95,-64.4931 2252.31,-32.5269 2253.77,-32.1479 2255.25,-31.7267 2256.74,-31.2729"/>
<polygon fill="black" stroke="black" points="2258.18,-34.476 2266.5,-27.9062 2255.9,-27.8586 2258.18,-34.476"/>
</g>
<!-- 205_35 -->
<g id="node17" class="node"><title>205_35</title>
<ellipse fill="white" stroke="black" cx="2377.31" cy="-16.2635" rx="40.1111" ry="16.0303"/>
<text text-anchor="middle" x="2377.31" y="-12.5635" font-family="Times,serif" font-size="14.00">205_35</text>
</g>
<!-- 205_29x205_7&#45;&gt;205_35 -->
<g id="edge13" class="edge"><title>205_29x205_7&#45;&gt;205_35</title>
<path fill="none" stroke="black" d="M1948.75,-70.9633C1972.89,-70.2978 2170.88,-63.991 2327.31,-32.5269 2330.75,-31.8348 2334.29,-31.0035 2337.82,-30.0908"/>
<polygon fill="black" stroke="black" points="2338.98,-33.4029 2347.67,-27.3513 2337.1,-26.6588 2338.98,-33.4029"/>
</g>
<!-- 205_34 -->
<g id="node18" class="node"><title>205_34</title>
<ellipse fill="white" stroke="black" cx="1432.31" cy="-16.2635" rx="40.1111" ry="16.0303"/>
<text text-anchor="middle" x="1432.31" y="-12.5635" font-family="Times,serif" font-size="14.00">205_34</text>
</g>
<!-- 205_29x205_7&#45;&gt;205_34 -->
<g id="edge14" class="edge"><title>205_29x205_7&#45;&gt;205_34</title>
<path fill="none" stroke="black" d="M1943.68,-71.0239C1915.94,-70.9484 1673.62,-69.2286 1482.31,-32.5269 1478.86,-31.8656 1475.31,-31.0559 1471.77,-30.1575"/>
<polygon fill="black" stroke="black" points="1472.49,-26.7244 1461.92,-27.441 1470.63,-33.4727 1472.49,-26.7244"/>
</g>
<!-- 205_33 -->
<g id="node19" class="node"><title>205_33</title>
<ellipse fill="white" stroke="black" cx="1531.31" cy="-16.2635" rx="40.1111" ry="16.0303"/>
<text text-anchor="middle" x="1531.31" y="-12.5635" font-family="Times,serif" font-size="14.00">205_33</text>
</g>
<!-- 205_29x205_7&#45;&gt;205_33 -->
<g id="edge15" class="edge"><title>205_29x205_7&#45;&gt;205_33</title>
<path fill="none" stroke="black" d="M1943.66,-70.9417C1919.26,-70.1153 1730.54,-62.8848 1581.31,-32.5269 1577.87,-31.8272 1574.32,-30.9907 1570.79,-30.0745"/>
<polygon fill="black" stroke="black" points="1571.51,-26.6428 1560.94,-27.3294 1569.63,-33.3858 1571.51,-26.6428"/>
</g>
<!-- 205_32 -->
<g id="node20" class="node"><title>205_32</title>
<ellipse fill="#66cdaa" stroke="black" cx="1630.31" cy="-16.2635" rx="40.1111" ry="16.0303"/>
<text text-anchor="middle" x="1630.31" y="-12.5635" font-family="Times,serif" font-size="14.00">205_32</text>
</g>
<!-- 205_29x205_7&#45;&gt;205_32 -->
<g id="edge16" class="edge"><title>205_29x205_7&#45;&gt;205_32</title>
<path fill="none" stroke="black" d="M1943.64,-70.8054C1923.06,-69.0587 1787.11,-56.9265 1679.31,-32.5269 1676.13,-31.809 1672.87,-30.9855 1669.61,-30.1011"/>
<polygon fill="black" stroke="black" points="1670.48,-26.71 1659.9,-27.3101 1668.54,-33.4374 1670.48,-26.71"/>
</g>
<!-- 205_39 -->
<g id="node21" class="node"><title>205_39</title>
<polygon fill="#66cdaa" stroke="black" points="1745.81,-27.7635 1688.81,-27.7635 1688.81,-4.76346 1745.81,-4.76346 1745.81,-27.7635"/>
<text text-anchor="middle" x="1717.31" y="-12.5635" font-family="Times,serif" font-size="14.00">205_39</text>
</g>
<!-- 205_29x205_7&#45;&gt;205_39 -->
<g id="edge17" class="edge"><title>205_29x205_7&#45;&gt;205_39</title>
<path fill="none" stroke="black" d="M1944,-70.725C1927.92,-68.5899 1831.14,-55.1935 1755.31,-32.5269 1753.9,-32.107 1752.47,-31.6557 1751.04,-31.1808"/>
<polygon fill="black" stroke="black" points="1752.2,-27.8761 1741.6,-27.786 1749.83,-34.4633 1752.2,-27.8761"/>
</g>
<!-- 205_31 -->
<g id="node40" class="node"><title>205_31</title>
<ellipse fill="#66cdaa" stroke="black" cx="1804.31" cy="-16.2635" rx="40.1111" ry="16.0303"/>
<text text-anchor="middle" x="1804.31" y="-12.5635" font-family="Times,serif" font-size="14.00">205_31</text>
</g>
<!-- 205_29x205_7&#45;&gt;205_31 -->
<g id="edge36" class="edge"><title>205_29x205_7&#45;&gt;205_31</title>
<path fill="none" stroke="black" d="M1944.3,-70.2669C1933.34,-66.1194 1879.9,-45.8852 1842.32,-31.6552"/>
<polygon fill="black" stroke="black" points="1843.25,-28.2677 1832.66,-28 1840.78,-34.8141 1843.25,-28.2677"/>
</g>
<!-- 205_30 -->
<g id="node42" class="node"><title>205_30</title>
<ellipse fill="#66cdaa" stroke="black" cx="1903.31" cy="-16.2635" rx="40.1111" ry="16.0303"/>
<text text-anchor="middle" x="1903.31" y="-12.5635" font-family="Times,serif" font-size="14.00">205_30</text>
</g>
<!-- 205_29x205_7&#45;&gt;205_30 -->
<g id="edge38" class="edge"><title>205_29x205_7&#45;&gt;205_30</title>
<path fill="none" stroke="black" d="M1944.87,-69.2381C1941.16,-64.5897 1930.82,-51.6688 1921.39,-39.8738"/>
<polygon fill="black" stroke="black" points="1924.07,-37.6268 1915.09,-32.0034 1918.61,-41.999 1924.07,-37.6268"/>
</g>
<!-- 205_36 -->
<g id="node43" class="node"><title>205_36</title>
<polygon fill="#66cdaa" stroke="black" points="2018.81,-27.7635 1961.81,-27.7635 1961.81,-4.76346 2018.81,-4.76346 2018.81,-27.7635"/>
<text text-anchor="middle" x="1990.31" y="-12.5635" font-family="Times,serif" font-size="14.00">205_36</text>
</g>
<!-- 205_29x205_7&#45;&gt;205_36 -->
<g id="edge39" class="edge"><title>205_29x205_7&#45;&gt;205_36</title>
<path fill="none" stroke="black" d="M1947.77,-69.2381C1952.03,-64.0368 1964.76,-48.4782 1975.19,-35.7288"/>
<polygon fill="black" stroke="black" points="1977.98,-37.8489 1981.61,-27.8934 1972.56,-33.4155 1977.98,-37.8489"/>
</g>
<!-- 205_12 -->
<g id="node12" class="node"><title>205_12</title>
<polygon fill="#66cdaa" stroke="black" points="1479.81,-139.29 1422.81,-139.29 1422.81,-116.29 1479.81,-116.29 1479.81,-139.29"/>
<text text-anchor="middle" x="1451.31" y="-124.09" font-family="Times,serif" font-size="14.00">205_12</text>
</g>
<!-- 205_27x205_2 -->
<g id="node13" class="node"><title>205_27x205_2</title>
<polygon fill="none" stroke="black" points="1538.31,-187.054 1534.81,-183.554 1538.31,-180.054 1541.81,-183.554 1538.31,-187.054"/>
</g>
<!-- 205_27x205_2&#45;&gt;205_12 -->
<g id="edge9" class="edge"><title>205_27x205_2&#45;&gt;205_12</title>
<path fill="none" stroke="black" d="M1536.49,-181.431C1528.94,-176.766 1499.41,-158.519 1477.22,-144.806"/>
<polygon fill="black" stroke="black" points="1478.89,-141.724 1468.55,-139.444 1475.21,-147.679 1478.89,-141.724"/>
</g>
<!-- 205_11 -->
<g id="node55" class="node"><title>205_11</title>
<ellipse fill="dimgrey" stroke="black" cx="1538.31" cy="-127.79" rx="40.1111" ry="16.0303"/>
<text text-anchor="middle" x="1538.31" y="-124.09" font-family="Times,serif" font-size="14.00">205_11</text>
</g>
<!-- 205_27x205_2&#45;&gt;205_11 -->
<g id="edge53" class="edge"><title>205_27x205_2&#45;&gt;205_11</title>
<path fill="none" stroke="black" d="M1538.31,-179.961C1538.31,-175.178 1538.31,-164.508 1538.31,-154.142"/>
<polygon fill="black" stroke="black" points="1541.81,-154.107 1538.31,-144.107 1534.81,-154.107 1541.81,-154.107"/>
</g>
<!-- 205_4 -->
<g id="node25" class="node"><title>205_4</title>
<polygon fill="dimgrey" stroke="black" points="1646.31,-139.29 1596.31,-139.29 1596.31,-116.29 1646.31,-116.29 1646.31,-139.29"/>
<text text-anchor="middle" x="1621.31" y="-124.09" font-family="Times,serif" font-size="14.00">205_4</text>
</g>
<!-- 205_4&#45;&gt;205_4x205_42 -->
<g id="edge22" class="edge"><title>205_4&#45;&gt;205_4x205_42</title>
<path fill="none" stroke="black" d="M1600.88,-116.148C1596.51,-114.291 1591.84,-112.61 1587.31,-111.527 1425.63,-72.8889 875.359,-72.7375 784.929,-72.9797"/>
<polygon fill="black" stroke="black" points="784.875,-69.4798 774.887,-73.0144 784.899,-76.4797 784.875,-69.4798"/>
</g>
<!-- 205_1x205_2 -->
<g id="node26" class="node"><title>205_1x205_2</title>
<polygon fill="none" stroke="black" points="1902.31,-187.054 1898.81,-183.554 1902.31,-180.054 1905.81,-183.554 1902.31,-187.054"/>
</g>
<!-- 205_1x205_2&#45;&gt;205_4 -->
<g id="edge21" class="edge"><title>205_1x205_2&#45;&gt;205_4</title>
<path fill="none" stroke="black" d="M1899.82,-182.419C1880.56,-181.323 1753.5,-173.174 1655.31,-144.054 1654.25,-143.741 1653.19,-143.403 1652.12,-143.043"/>
<polygon fill="black" stroke="black" points="1653.15,-139.69 1642.56,-139.371 1650.64,-146.224 1653.15,-139.69"/>
</g>
<!-- 205_5 -->
<g id="node27" class="node"><title>205_5</title>
<ellipse fill="dimgrey" stroke="black" cx="2118.31" cy="-127.79" rx="35.2113" ry="16.0303"/>
<text text-anchor="middle" x="2118.31" y="-124.09" font-family="Times,serif" font-size="14.00">205_5</text>
</g>
<!-- 205_1x205_2&#45;&gt;205_5 -->
<g id="edge23" class="edge"><title>205_1x205_2&#45;&gt;205_5</title>
<path fill="none" stroke="black" d="M1904.74,-182.106C1920.12,-179.258 2005.34,-163.173 2073.31,-144.054 2076.06,-143.279 2078.89,-142.434 2081.74,-141.552"/>
<polygon fill="black" stroke="black" points="2082.88,-144.86 2091.32,-138.458 2080.73,-138.198 2082.88,-144.86"/>
</g>
<!-- 205_6 -->
<g id="node28" class="node"><title>205_6</title>
<ellipse fill="dimgrey" stroke="black" cx="2207.31" cy="-127.79" rx="35.2113" ry="16.0303"/>
<text text-anchor="middle" x="2207.31" y="-124.09" font-family="Times,serif" font-size="14.00">205_6</text>
</g>
<!-- 205_1x205_2&#45;&gt;205_6 -->
<g id="edge24" class="edge"><title>205_1x205_2&#45;&gt;205_6</title>
<path fill="none" stroke="black" d="M1904.9,-182.349C1924.99,-180.724 2057.63,-169.339 2162.31,-144.054 2165.26,-143.341 2168.29,-142.517 2171.32,-141.63"/>
<polygon fill="black" stroke="black" points="2172.39,-144.962 2180.89,-138.633 2170.3,-138.282 2172.39,-144.962"/>
</g>
<!-- 205_7 -->
<g id="node29" class="node"><title>205_7</title>
<ellipse fill="dimgrey" stroke="black" cx="1855.31" cy="-127.79" rx="35.2113" ry="16.0303"/>
<text text-anchor="middle" x="1855.31" y="-124.09" font-family="Times,serif" font-size="14.00">205_7</text>
</g>
<!-- 205_1x205_2&#45;&gt;205_7 -->
<g id="edge25" class="edge"><title>205_1x205_2&#45;&gt;205_7</title>
<path fill="none" stroke="black" d="M1900.74,-180.765C1896.59,-176.012 1884.87,-162.611 1874.38,-150.607"/>
<polygon fill="black" stroke="black" points="1876.97,-148.251 1867.75,-143.026 1871.7,-152.858 1876.97,-148.251"/>
</g>
<!-- 205_3 -->
<g id="node44" class="node"><title>205_3</title>
<polygon fill="#66cdaa" stroke="black" points="2409.31,-139.29 2359.31,-139.29 2359.31,-116.29 2409.31,-116.29 2409.31,-139.29"/>
<text text-anchor="middle" x="2384.31" y="-124.09" font-family="Times,serif" font-size="14.00">205_3</text>
</g>
<!-- 205_1x205_2&#45;&gt;205_3 -->
<g id="edge40" class="edge"><title>205_1x205_2&#45;&gt;205_3</title>
<path fill="none" stroke="black" d="M1904.94,-182.45C1937.33,-181.162 2258.5,-167.873 2350.31,-144.054 2351.57,-143.725 2352.85,-143.352 2354.14,-142.945"/>
<polygon fill="black" stroke="black" points="2355.72,-146.09 2363.85,-139.298 2353.26,-139.537 2355.72,-146.09"/>
</g>
<!-- 205_8 -->
<g id="node46" class="node"><title>205_8</title>
<ellipse fill="#66cdaa" stroke="black" cx="1699.31" cy="-127.79" rx="35.2113" ry="16.0303"/>
<text text-anchor="middle" x="1699.31" y="-124.09" font-family="Times,serif" font-size="14.00">205_8</text>
</g>
<!-- 205_1x205_2&#45;&gt;205_8 -->
<g id="edge43" class="edge"><title>205_1x205_2&#45;&gt;205_8</title>
<path fill="none" stroke="black" d="M1900.04,-182.092C1885.74,-179.156 1806.53,-162.627 1743.31,-144.054 1740.86,-143.336 1738.35,-142.564 1735.83,-141.761"/>
<polygon fill="black" stroke="black" points="1736.76,-138.381 1726.17,-138.568 1734.56,-145.028 1736.76,-138.381"/>
</g>
<!-- 205_9 -->
<g id="node47" class="node"><title>205_9</title>
<polygon fill="#66cdaa" stroke="black" points="1802.31,-139.29 1752.31,-139.29 1752.31,-116.29 1802.31,-116.29 1802.31,-139.29"/>
<text text-anchor="middle" x="1777.31" y="-124.09" font-family="Times,serif" font-size="14.00">205_9</text>
</g>
<!-- 205_1x205_2&#45;&gt;205_9 -->
<g id="edge44" class="edge"><title>205_1x205_2&#45;&gt;205_9</title>
<path fill="none" stroke="black" d="M1900.05,-181.619C1889.78,-177.369 1846.53,-159.409 1811.31,-144.054 1810.88,-143.866 1810.44,-143.677 1810.01,-143.487"/>
<polygon fill="black" stroke="black" points="1811.25,-140.209 1800.69,-139.367 1808.42,-146.611 1811.25,-140.209"/>
</g>
<!-- 205_99 -->
<g id="node48" class="node"><title>205_99</title>
<ellipse fill="dimgrey" stroke="black" cx="2301.31" cy="-127.79" rx="40.1111" ry="16.0303"/>
<text text-anchor="middle" x="2301.31" y="-124.09" font-family="Times,serif" font-size="14.00">205_99</text>
</g>
<!-- 205_1x205_2&#45;&gt;205_99 -->
<g id="edge45" class="edge"><title>205_1x205_2&#45;&gt;205_99</title>
<path fill="none" stroke="black" d="M1904.83,-182.456C1928.17,-181.513 2108.61,-173.437 2251.31,-144.054 2254.74,-143.346 2258.28,-142.504 2261.82,-141.584"/>
<polygon fill="black" stroke="black" points="2262.97,-144.894 2271.66,-138.832 2261.09,-138.152 2262.97,-144.894"/>
</g>
<!-- 205_28 -->
<g id="node49" class="node"><title>205_28</title>
<ellipse fill="#66cdaa" stroke="black" cx="1949.31" cy="-127.79" rx="40.1111" ry="16.0303"/>
<text text-anchor="middle" x="1949.31" y="-124.09" font-family="Times,serif" font-size="14.00">205_28</text>
</g>
<!-- 205_1x205_2&#45;&gt;205_28 -->
<g id="edge47" class="edge"><title>205_1x205_2&#45;&gt;205_28</title>
<path fill="none" stroke="black" d="M1903.87,-180.765C1908,-176.042 1919.59,-162.779 1930.03,-150.834"/>
<polygon fill="black" stroke="black" points="1932.69,-153.11 1936.64,-143.278 1927.42,-148.503 1932.69,-153.11"/>
</g>
<!-- 205_7&#45;&gt;205_29x205_7 -->
<g id="edge26" class="edge"><title>205_7&#45;&gt;205_29x205_7</title>
<path fill="none" stroke="black" d="M1876.41,-114.321C1894.97,-103.355 1921.22,-87.8471 1935.69,-79.2962"/>
<polygon fill="black" stroke="black" points="1937.58,-82.2499 1944.4,-74.1498 1934.01,-76.2231 1937.58,-82.2499"/>
</g>
<!-- 205_502 -->
<g id="node30" class="node"><title>205_502</title>
<ellipse fill="#66cdaa" stroke="black" cx="1990.31" cy="-239.317" rx="45.011" ry="16.0303"/>
<text text-anchor="middle" x="1990.31" y="-235.617" font-family="Times,serif" font-size="14.00">205_502</text>
</g>
<!-- 205_2 -->
<g id="node45" class="node"><title>205_2</title>
<ellipse fill="#66cdaa" stroke="black" cx="1722.31" cy="-239.317" rx="35.2113" ry="16.0303"/>
<text text-anchor="middle" x="1722.31" y="-235.617" font-family="Times,serif" font-size="14.00">205_2</text>
</g>
<!-- 205_2&#45;&gt;205_27x205_2 -->
<g id="edge41" class="edge"><title>205_2&#45;&gt;205_27x205_2</title>
<path fill="none" stroke="black" d="M1693.15,-229.798C1652.02,-217.782 1578.8,-196.388 1550.21,-188.033"/>
<polygon fill="black" stroke="black" points="1551.07,-184.637 1540.49,-185.192 1549.11,-191.356 1551.07,-184.637"/>
</g>
<!-- 205_2&#45;&gt;205_1x205_2 -->
<g id="edge42" class="edge"><title>205_2&#45;&gt;205_1x205_2</title>
<path fill="none" stroke="black" d="M1751.23,-229.679C1791.38,-217.687 1862.23,-196.523 1890.34,-188.129"/>
<polygon fill="black" stroke="black" points="1891.6,-191.404 1900.18,-185.189 1889.6,-184.697 1891.6,-191.404"/>
</g>
<!-- 205_99&#45;&gt;205_26x205_99 -->
<g id="edge46" class="edge"><title>205_99&#45;&gt;205_26x205_99</title>
<path fill="none" stroke="black" d="M2330.56,-116.446C2336.99,-114.519 2343.82,-112.734 2350.31,-111.527 2573.98,-69.8701 2853.54,-71.7256 2917.06,-72.7613"/>
<polygon fill="black" stroke="black" points="2917.38,-76.268 2927.45,-72.9586 2917.51,-69.2692 2917.38,-76.268"/>
</g>
<!-- 205_27 -->
<g id="node50" class="node"><title>205_27</title>
<polygon fill="#66cdaa" stroke="black" points="1566.81,-250.817 1509.81,-250.817 1509.81,-227.817 1566.81,-227.817 1566.81,-250.817"/>
<text text-anchor="middle" x="1538.31" y="-235.617" font-family="Times,serif" font-size="14.00">205_27</text>
</g>
<!-- 205_27&#45;&gt;205_27x205_2 -->
<g id="edge48" class="edge"><title>205_27&#45;&gt;205_27x205_2</title>
<path fill="none" stroke="black" d="M1538.31,-227.695C1538.31,-218.943 1538.31,-206.507 1538.31,-197.234"/>
<polygon fill="black" stroke="black" points="1541.81,-197.192 1538.31,-187.192 1534.81,-197.193 1541.81,-197.192"/>
</g>
<!-- 205_26 -->
<g id="node51" class="node"><title>205_26</title>
<polygon fill="#66cdaa" stroke="black" points="2958.81,-139.29 2901.81,-139.29 2901.81,-116.29 2958.81,-116.29 2958.81,-139.29"/>
<text text-anchor="middle" x="2930.31" y="-124.09" font-family="Times,serif" font-size="14.00">205_26</text>
</g>
<!-- 205_26&#45;&gt;205_26x205_99 -->
<g id="edge49" class="edge"><title>205_26&#45;&gt;205_26x205_99</title>
<path fill="none" stroke="black" d="M2930.31,-116.168C2930.31,-107.416 2930.31,-94.9805 2930.31,-85.7075"/>
<polygon fill="black" stroke="black" points="2933.81,-85.6655 2930.31,-75.6656 2926.81,-85.6656 2933.81,-85.6655"/>
</g>
<!-- 205_29 -->
<g id="node62" class="node"><title>205_29</title>
<polygon fill="#66cdaa" stroke="black" points="2064.81,-139.29 2007.81,-139.29 2007.81,-116.29 2064.81,-116.29 2064.81,-139.29"/>
<text text-anchor="middle" x="2036.31" y="-124.09" font-family="Times,serif" font-size="14.00">205_29</text>
</g>
<!-- 205_29&#45;&gt;205_29x205_7 -->
<g id="edge60" class="edge"><title>205_29&#45;&gt;205_29x205_7</title>
<path fill="none" stroke="black" d="M2018.52,-116.168C2000.24,-105.243 1972.34,-88.5792 1957.13,-79.4907"/>
<polygon fill="black" stroke="black" points="1958.71,-76.3617 1948.33,-74.238 1955.12,-82.3711 1958.71,-76.3617"/>
</g>
<!-- 205_1 -->
<g id="node63" class="node"><title>205_1</title>
<polygon fill="#66cdaa" stroke="black" points="1927.31,-250.817 1877.31,-250.817 1877.31,-227.817 1927.31,-227.817 1927.31,-250.817"/>
<text text-anchor="middle" x="1902.31" y="-235.617" font-family="Times,serif" font-size="14.00">205_1</text>
</g>
<!-- 205_1&#45;&gt;205_1x205_2 -->
<g id="edge61" class="edge"><title>205_1&#45;&gt;205_1x205_2</title>
<path fill="none" stroke="black" d="M1902.31,-227.695C1902.31,-218.943 1902.31,-206.507 1902.31,-197.234"/>
<polygon fill="black" stroke="black" points="1905.81,-197.192 1902.31,-187.192 1898.81,-197.193 1905.81,-197.192"/>
</g>
</g>
</svg>
