<?xml version="1.0" encoding="UTF-8" standalone="no"?>
<!DOCTYPE svg PUBLIC "-//W3C//DTD SVG 1.1//EN"
 "http://www.w3.org/Graphics/SVG/1.1/DTD/svg11.dtd">
<!-- Generated by graphviz version 2.38.0 (20140413.2041)
 -->
<!-- Title: %3 Pages: 1 -->
<svg width="1179pt" height="375pt"
 viewBox="0.00 0.00 1178.81 375.11" xmlns="http://www.w3.org/2000/svg" xmlns:xlink="http://www.w3.org/1999/xlink">
<g id="graph0" class="graph" transform="scale(1 1) rotate(0) translate(4 371.108)">
<title>%3</title>
<polygon fill="white" stroke="none" points="-4,4 -4,-371.108 1174.81,-371.108 1174.81,4 -4,4"/>
<!-- 222_23 -->
<g id="node1" class="node"><title>222_23</title>
<ellipse fill="#66cdaa" stroke="black" cx="40.3051" cy="-16.2635" rx="40.1111" ry="16.0303"/>
<text text-anchor="middle" x="40.3051" y="-12.5635" font-family="Times,serif" font-size="14.00">222_23</text>
</g>
<!-- 222_16x222_21 -->
<g id="node2" class="node"><title>222_16x222_21</title>
<polygon fill="none" stroke="black" points="127.305,-75.5269 123.805,-72.0269 127.305,-68.5269 130.805,-72.0269 127.305,-75.5269"/>
</g>
<!-- 222_16x222_21&#45;&gt;222_23 -->
<g id="edge1" class="edge"><title>222_16x222_21&#45;&gt;222_23</title>
<path fill="none" stroke="black" d="M125.488,-69.904C118.368,-65.5039 91.6956,-49.0213 70.0702,-35.6574"/>
<polygon fill="black" stroke="black" points="71.8301,-32.6306 61.4834,-30.351 68.1502,-38.5854 71.8301,-32.6306"/>
</g>
<!-- 222_24 -->
<g id="node3" class="node"><title>222_24</title>
<polygon fill="white" stroke="black" points="155.805,-27.7635 98.8051,-27.7635 98.8051,-4.76346 155.805,-4.76346 155.805,-27.7635"/>
<text text-anchor="middle" x="127.305" y="-12.5635" font-family="Times,serif" font-size="14.00">222_24</text>
</g>
<!-- 222_16x222_21&#45;&gt;222_24 -->
<g id="edge2" class="edge"><title>222_16x222_21&#45;&gt;222_24</title>
<path fill="none" stroke="black" d="M127.305,-68.4338C127.305,-62.9657 127.305,-49.8005 127.305,-38.1938"/>
<polygon fill="black" stroke="black" points="130.805,-37.8452 127.305,-27.8453 123.805,-37.8453 130.805,-37.8452"/>
</g>
<!-- 222_22 -->
<g id="node4" class="node"><title>222_22</title>
<polygon fill="dimgrey" stroke="black" points="230.805,-27.7635 173.805,-27.7635 173.805,-4.76346 230.805,-4.76346 230.805,-27.7635"/>
<text text-anchor="middle" x="202.305" y="-12.5635" font-family="Times,serif" font-size="14.00">222_22</text>
</g>
<!-- 222_16x222_21&#45;&gt;222_22 -->
<g id="edge3" class="edge"><title>222_16x222_21&#45;&gt;222_22</title>
<path fill="none" stroke="black" d="M128.872,-69.904C135.293,-65.301 160.159,-47.4758 179.194,-33.8304"/>
<polygon fill="black" stroke="black" points="181.354,-36.5883 187.443,-27.9175 177.276,-30.8991 181.354,-36.5883"/>
</g>
<!-- 222_16 -->
<g id="node5" class="node"><title>222_16</title>
<polygon fill="dimgrey" stroke="black" points="115.805,-139.29 58.8051,-139.29 58.8051,-116.29 115.805,-116.29 115.805,-139.29"/>
<text text-anchor="middle" x="87.3051" y="-124.09" font-family="Times,serif" font-size="14.00">222_16</text>
</g>
<!-- 222_16&#45;&gt;222_16x222_21 -->
<g id="edge5" class="edge"><title>222_16&#45;&gt;222_16x222_21</title>
<path fill="none" stroke="black" d="M95.2078,-116.168C102.486,-106.385 113.189,-91.9999 120.202,-82.5735"/>
<polygon fill="black" stroke="black" points="123.013,-84.6598 126.174,-74.5476 117.396,-80.4814 123.013,-84.6598"/>
</g>
<!-- 222_11x222_10 -->
<g id="node6" class="node"><title>222_11x222_10</title>
<polygon fill="none" stroke="black" points="423.305,-187.054 419.805,-183.554 423.305,-180.054 426.805,-183.554 423.305,-187.054"/>
</g>
<!-- 222_11x222_10&#45;&gt;222_16 -->
<g id="edge4" class="edge"><title>222_11x222_10&#45;&gt;222_16</title>
<path fill="none" stroke="black" d="M420.874,-182.474C399.766,-181.738 245.439,-175.397 125.305,-144.054 123.843,-143.672 122.362,-143.249 120.875,-142.794"/>
<polygon fill="black" stroke="black" points="121.712,-139.38 111.118,-139.421 119.425,-145.996 121.712,-139.38"/>
</g>
<!-- 222_28 -->
<g id="node7" class="node"><title>222_28</title>
<polygon fill="#66cdaa" stroke="black" points="289.805,-139.29 232.805,-139.29 232.805,-116.29 289.805,-116.29 289.805,-139.29"/>
<text text-anchor="middle" x="261.305" y="-124.09" font-family="Times,serif" font-size="14.00">222_28</text>
</g>
<!-- 222_11x222_10&#45;&gt;222_28 -->
<g id="edge6" class="edge"><title>222_11x222_10&#45;&gt;222_28</title>
<path fill="none" stroke="black" d="M421.239,-181.98C409.32,-178.657 348.157,-161.417 299.305,-144.054 298.426,-143.741 297.537,-143.421 296.641,-143.094"/>
<polygon fill="black" stroke="black" points="297.544,-139.693 286.953,-139.419 295.062,-146.238 297.544,-139.693"/>
</g>
<!-- 222_27 -->
<g id="node8" class="node"><title>222_27</title>
<polygon fill="#66cdaa" stroke="black" points="364.805,-139.29 307.805,-139.29 307.805,-116.29 364.805,-116.29 364.805,-139.29"/>
<text text-anchor="middle" x="336.305" y="-124.09" font-family="Times,serif" font-size="14.00">222_27</text>
</g>
<!-- 222_11x222_10&#45;&gt;222_27 -->
<g id="edge7" class="edge"><title>222_11x222_10&#45;&gt;222_27</title>
<path fill="none" stroke="black" d="M421.488,-181.431C413.939,-176.766 384.411,-158.519 362.222,-144.806"/>
<polygon fill="black" stroke="black" points="363.892,-141.724 353.545,-139.444 360.212,-147.679 363.892,-141.724"/>
</g>
<!-- 222_26 -->
<g id="node9" class="node"><title>222_26</title>
<ellipse fill="dimgrey" stroke="black" cx="423.305" cy="-127.79" rx="40.1111" ry="16.0303"/>
<text text-anchor="middle" x="423.305" y="-124.09" font-family="Times,serif" font-size="14.00">222_26</text>
</g>
<!-- 222_11x222_10&#45;&gt;222_26 -->
<g id="edge8" class="edge"><title>222_11x222_10&#45;&gt;222_26</title>
<path fill="none" stroke="black" d="M423.305,-179.961C423.305,-175.178 423.305,-164.508 423.305,-154.142"/>
<polygon fill="black" stroke="black" points="426.805,-154.107 423.305,-144.107 419.805,-154.107 426.805,-154.107"/>
</g>
<!-- 222_25 -->
<g id="node12" class="node"><title>222_25</title>
<polygon fill="#66cdaa" stroke="black" points="613.805,-139.29 556.805,-139.29 556.805,-116.29 613.805,-116.29 613.805,-139.29"/>
<text text-anchor="middle" x="585.305" y="-124.09" font-family="Times,serif" font-size="14.00">222_25</text>
</g>
<!-- 222_11x222_10&#45;&gt;222_25 -->
<g id="edge11" class="edge"><title>222_11x222_10&#45;&gt;222_25</title>
<path fill="none" stroke="black" d="M425.39,-181.99C437.423,-178.719 499.156,-161.718 548.305,-144.054 549.319,-143.69 550.345,-143.313 551.379,-142.928"/>
<polygon fill="black" stroke="black" points="552.694,-146.173 560.75,-139.291 550.161,-139.647 552.694,-146.173"/>
</g>
<!-- 222_7 -->
<g id="node26" class="node"><title>222_7</title>
<polygon fill="dimgrey" stroke="black" points="682.305,-139.29 632.305,-139.29 632.305,-116.29 682.305,-116.29 682.305,-139.29"/>
<text text-anchor="middle" x="657.305" y="-124.09" font-family="Times,serif" font-size="14.00">222_7</text>
</g>
<!-- 222_11x222_10&#45;&gt;222_7 -->
<g id="edge24" class="edge"><title>222_11x222_10&#45;&gt;222_7</title>
<path fill="none" stroke="black" d="M425.734,-182.302C442.643,-180.506 544.409,-168.985 623.305,-144.054 624.196,-143.772 625.094,-143.474 625.997,-143.162"/>
<polygon fill="black" stroke="black" points="627.598,-146.295 635.648,-139.407 625.06,-139.771 627.598,-146.295"/>
</g>
<!-- 222_33x222_26 -->
<g id="node10" class="node"><title>222_33x222_26</title>
<polygon fill="none" stroke="black" points="423.305,-75.5269 419.805,-72.0269 423.305,-68.5269 426.805,-72.0269 423.305,-75.5269"/>
</g>
<!-- 222_26&#45;&gt;222_33x222_26 -->
<g id="edge9" class="edge"><title>222_26&#45;&gt;222_33x222_26</title>
<path fill="none" stroke="black" d="M423.305,-111.24C423.305,-103.134 423.305,-93.3455 423.305,-85.7049"/>
<polygon fill="black" stroke="black" points="426.805,-85.5501 423.305,-75.5502 419.805,-85.5502 426.805,-85.5501"/>
</g>
<!-- 222_32 -->
<g id="node11" class="node"><title>222_32</title>
<polygon fill="#66cdaa" stroke="black" points="345.805,-27.7635 288.805,-27.7635 288.805,-4.76346 345.805,-4.76346 345.805,-27.7635"/>
<text text-anchor="middle" x="317.305" y="-12.5635" font-family="Times,serif" font-size="14.00">222_32</text>
</g>
<!-- 222_33x222_26&#45;&gt;222_32 -->
<g id="edge10" class="edge"><title>222_33x222_26&#45;&gt;222_32</title>
<path fill="none" stroke="black" d="M421.465,-70.0937C412.76,-65.6782 374.979,-46.5158 347.418,-32.5369"/>
<polygon fill="black" stroke="black" points="348.662,-29.2433 338.16,-27.8413 345.496,-35.4862 348.662,-29.2433"/>
</g>
<!-- 222_31 -->
<g id="node13" class="node"><title>222_31</title>
<ellipse fill="#66cdaa" stroke="black" cx="404.305" cy="-16.2635" rx="40.1111" ry="16.0303"/>
<text text-anchor="middle" x="404.305" y="-12.5635" font-family="Times,serif" font-size="14.00">222_31</text>
</g>
<!-- 222_33x222_26&#45;&gt;222_31 -->
<g id="edge12" class="edge"><title>222_33x222_26&#45;&gt;222_31</title>
<path fill="none" stroke="black" d="M422.489,-68.7168C420.835,-64.0387 416.928,-52.9809 413.157,-42.3105"/>
<polygon fill="black" stroke="black" points="416.433,-41.0764 409.801,-32.8141 409.833,-43.4089 416.433,-41.0764"/>
</g>
<!-- 222_30 -->
<g id="node35" class="node"><title>222_30</title>
<ellipse fill="#66cdaa" stroke="black" cx="503.305" cy="-16.2635" rx="40.1111" ry="16.0303"/>
<text text-anchor="middle" x="503.305" y="-12.5635" font-family="Times,serif" font-size="14.00">222_30</text>
</g>
<!-- 222_33x222_26&#45;&gt;222_30 -->
<g id="edge35" class="edge"><title>222_33x222_26&#45;&gt;222_30</title>
<path fill="none" stroke="black" d="M424.976,-69.904C431.426,-65.5693 455.325,-49.5085 475.045,-36.2552"/>
<polygon fill="black" stroke="black" points="477.108,-39.0858 483.456,-30.6029 473.204,-33.2759 477.108,-39.0858"/>
</g>
<!-- 222_21 -->
<g id="node14" class="node"><title>222_21</title>
<ellipse fill="#66cdaa" stroke="black" cx="174.305" cy="-127.79" rx="40.1111" ry="16.0303"/>
<text text-anchor="middle" x="174.305" y="-124.09" font-family="Times,serif" font-size="14.00">222_21</text>
</g>
<!-- 222_21&#45;&gt;222_16x222_21 -->
<g id="edge13" class="edge"><title>222_21&#45;&gt;222_16x222_21</title>
<path fill="none" stroke="black" d="M161.462,-112.099C153.115,-102.551 142.491,-90.3983 135.326,-82.2019"/>
<polygon fill="black" stroke="black" points="137.903,-79.832 128.686,-74.6068 132.633,-84.4392 137.903,-79.832"/>
</g>
<!-- 222_33 -->
<g id="node15" class="node"><title>222_33</title>
<polygon fill="#66cdaa" stroke="black" points="538.805,-139.29 481.805,-139.29 481.805,-116.29 538.805,-116.29 538.805,-139.29"/>
<text text-anchor="middle" x="510.305" y="-124.09" font-family="Times,serif" font-size="14.00">222_33</text>
</g>
<!-- 222_33&#45;&gt;222_33x222_26 -->
<g id="edge14" class="edge"><title>222_33&#45;&gt;222_33x222_26</title>
<path fill="none" stroke="black" d="M493.117,-116.168C475.611,-105.351 449,-88.9054 434.201,-79.7602"/>
<polygon fill="black" stroke="black" points="435.612,-76.5176 425.265,-74.238 431.932,-82.4723 435.612,-76.5176"/>
</g>
<!-- 222_8 -->
<g id="node16" class="node"><title>222_8</title>
<polygon fill="#66cdaa" stroke="black" points="942.305,-362.344 892.305,-362.344 892.305,-339.344 942.305,-339.344 942.305,-362.344"/>
<text text-anchor="middle" x="917.305" y="-347.144" font-family="Times,serif" font-size="14.00">222_8</text>
</g>
<!-- 222_8x222_9 -->
<g id="node17" class="node"><title>222_8x222_9</title>
<polygon fill="none" stroke="black" points="956.305,-298.581 952.805,-295.081 956.305,-291.581 959.805,-295.081 956.305,-298.581"/>
</g>
<!-- 222_8&#45;&gt;222_8x222_9 -->
<g id="edge15" class="edge"><title>222_8&#45;&gt;222_8x222_9</title>
<path fill="none" stroke="black" d="M925.01,-339.222C932.031,-329.544 942.318,-315.363 949.158,-305.933"/>
<polygon fill="black" stroke="black" points="952.163,-307.751 955.202,-297.601 946.497,-303.641 952.163,-307.751"/>
</g>
<!-- 222_14 -->
<g id="node20" class="node"><title>222_14</title>
<ellipse fill="#66cdaa" stroke="black" cx="956.305" cy="-239.317" rx="40.1111" ry="16.0303"/>
<text text-anchor="middle" x="956.305" y="-235.617" font-family="Times,serif" font-size="14.00">222_14</text>
</g>
<!-- 222_8x222_9&#45;&gt;222_14 -->
<g id="edge17" class="edge"><title>222_8x222_9&#45;&gt;222_14</title>
<path fill="none" stroke="black" d="M956.305,-291.488C956.305,-286.705 956.305,-276.035 956.305,-265.669"/>
<polygon fill="black" stroke="black" points="959.805,-265.634 956.305,-255.634 952.805,-265.634 959.805,-265.634"/>
</g>
<!-- 222_13 -->
<g id="node21" class="node"><title>222_13</title>
<ellipse fill="#66cdaa" stroke="black" cx="1055.31" cy="-239.317" rx="40.1111" ry="16.0303"/>
<text text-anchor="middle" x="1055.31" y="-235.617" font-family="Times,serif" font-size="14.00">222_13</text>
</g>
<!-- 222_8x222_9&#45;&gt;222_13 -->
<g id="edge18" class="edge"><title>222_8x222_9&#45;&gt;222_13</title>
<path fill="none" stroke="black" d="M958.023,-293.148C965.753,-288.95 998.022,-271.426 1023.3,-257.697"/>
<polygon fill="black" stroke="black" points="1025.12,-260.69 1032.24,-252.842 1021.78,-254.539 1025.12,-260.69"/>
</g>
<!-- 222_12 -->
<g id="node22" class="node"><title>222_12</title>
<polygon fill="#66cdaa" stroke="black" points="1170.81,-250.817 1113.81,-250.817 1113.81,-227.817 1170.81,-227.817 1170.81,-250.817"/>
<text text-anchor="middle" x="1142.31" y="-235.617" font-family="Times,serif" font-size="14.00">222_12</text>
</g>
<!-- 222_8x222_9&#45;&gt;222_12 -->
<g id="edge19" class="edge"><title>222_8x222_9&#45;&gt;222_12</title>
<path fill="none" stroke="black" d="M958.421,-293.637C971.785,-290.814 1045.8,-274.852 1104.31,-255.581 1105.35,-255.236 1106.41,-254.877 1107.48,-254.507"/>
<polygon fill="black" stroke="black" points="1108.95,-257.694 1117.12,-250.953 1106.53,-251.125 1108.95,-257.694"/>
</g>
<!-- 222_10 -->
<g id="node24" class="node"><title>222_10</title>
<ellipse fill="#66cdaa" stroke="black" cx="606.305" cy="-239.317" rx="40.1111" ry="16.0303"/>
<text text-anchor="middle" x="606.305" y="-235.617" font-family="Times,serif" font-size="14.00">222_10</text>
</g>
<!-- 222_8x222_9&#45;&gt;222_10 -->
<g id="edge21" class="edge"><title>222_8x222_9&#45;&gt;222_10</title>
<path fill="none" stroke="black" d="M954.07,-293.737C931.45,-290.263 742.903,-261.3 653.279,-247.533"/>
<polygon fill="black" stroke="black" points="653.789,-244.07 643.373,-246.011 652.726,-250.989 653.789,-244.07"/>
</g>
<!-- 222_1 -->
<g id="node33" class="node"><title>222_1</title>
<polygon fill="#66cdaa" stroke="black" points="898.305,-250.817 848.305,-250.817 848.305,-227.817 898.305,-227.817 898.305,-250.817"/>
<text text-anchor="middle" x="873.305" y="-235.617" font-family="Times,serif" font-size="14.00">222_1</text>
</g>
<!-- 222_8x222_9&#45;&gt;222_1 -->
<g id="edge31" class="edge"><title>222_8x222_9&#45;&gt;222_1</title>
<path fill="none" stroke="black" d="M954.572,-292.958C947.401,-288.313 919.449,-270.207 898.313,-256.516"/>
<polygon fill="black" stroke="black" points="900.049,-253.47 889.753,-250.971 896.243,-259.346 900.049,-253.47"/>
</g>
<!-- 222_18 -->
<g id="node18" class="node"><title>222_18</title>
<polygon fill="#66cdaa" stroke="black" points="618.805,-27.7635 561.805,-27.7635 561.805,-4.76346 618.805,-4.76346 618.805,-27.7635"/>
<text text-anchor="middle" x="590.305" y="-12.5635" font-family="Times,serif" font-size="14.00">222_18</text>
</g>
<!-- 222_7x222_99 -->
<g id="node19" class="node"><title>222_7x222_99</title>
<polygon fill="none" stroke="black" points="740.305,-75.5269 736.805,-72.0269 740.305,-68.5269 743.805,-72.0269 740.305,-75.5269"/>
</g>
<!-- 222_7x222_99&#45;&gt;222_18 -->
<g id="edge16" class="edge"><title>222_7x222_99&#45;&gt;222_18</title>
<path fill="none" stroke="black" d="M738.155,-70.3331C726.755,-66.6447 672.237,-48.8886 628.305,-32.5269 627.431,-32.2012 626.546,-31.8688 625.654,-31.5313"/>
<polygon fill="black" stroke="black" points="626.581,-28.1366 615.992,-27.7865 624.051,-34.6636 626.581,-28.1366"/>
</g>
<!-- 222_29 -->
<g id="node36" class="node"><title>222_29</title>
<polygon fill="dimgrey" stroke="black" points="693.805,-27.7635 636.805,-27.7635 636.805,-4.76346 693.805,-4.76346 693.805,-27.7635"/>
<text text-anchor="middle" x="665.305" y="-12.5635" font-family="Times,serif" font-size="14.00">222_29</text>
</g>
<!-- 222_7x222_99&#45;&gt;222_29 -->
<g id="edge36" class="edge"><title>222_7x222_99&#45;&gt;222_29</title>
<path fill="none" stroke="black" d="M738.739,-69.904C732.317,-65.301 707.451,-47.4758 688.416,-33.8304"/>
<polygon fill="black" stroke="black" points="690.334,-30.8991 680.167,-27.9175 686.256,-36.5883 690.334,-30.8991"/>
</g>
<!-- 222_20 -->
<g id="node37" class="node"><title>222_20</title>
<polygon fill="white" stroke="black" points="768.805,-27.7635 711.805,-27.7635 711.805,-4.76346 768.805,-4.76346 768.805,-27.7635"/>
<text text-anchor="middle" x="740.305" y="-12.5635" font-family="Times,serif" font-size="14.00">222_20</text>
</g>
<!-- 222_7x222_99&#45;&gt;222_20 -->
<g id="edge37" class="edge"><title>222_7x222_99&#45;&gt;222_20</title>
<path fill="none" stroke="black" d="M740.305,-68.4338C740.305,-62.9657 740.305,-49.8005 740.305,-38.1938"/>
<polygon fill="black" stroke="black" points="743.805,-37.8452 740.305,-27.8453 736.805,-37.8453 743.805,-37.8452"/>
</g>
<!-- 222_19 -->
<g id="node38" class="node"><title>222_19</title>
<polygon fill="white" stroke="black" points="843.805,-27.7635 786.805,-27.7635 786.805,-4.76346 843.805,-4.76346 843.805,-27.7635"/>
<text text-anchor="middle" x="815.305" y="-12.5635" font-family="Times,serif" font-size="14.00">222_19</text>
</g>
<!-- 222_7x222_99&#45;&gt;222_19 -->
<g id="edge38" class="edge"><title>222_7x222_99&#45;&gt;222_19</title>
<path fill="none" stroke="black" d="M741.872,-69.904C748.293,-65.301 773.159,-47.4758 792.194,-33.8304"/>
<polygon fill="black" stroke="black" points="794.354,-36.5883 800.443,-27.9175 790.276,-30.8991 794.354,-36.5883"/>
</g>
<!-- 222_17 -->
<g id="node39" class="node"><title>222_17</title>
<ellipse fill="dimgrey" stroke="black" cx="902.305" cy="-16.2635" rx="40.1111" ry="16.0303"/>
<text text-anchor="middle" x="902.305" y="-12.5635" font-family="Times,serif" font-size="14.00">222_17</text>
</g>
<!-- 222_7x222_99&#45;&gt;222_17 -->
<g id="edge39" class="edge"><title>222_7x222_99&#45;&gt;222_17</title>
<path fill="none" stroke="black" d="M742.353,-70.3471C754.62,-66.2761 819.279,-44.8176 862.539,-30.4607"/>
<polygon fill="black" stroke="black" points="863.836,-33.7182 872.224,-27.2465 861.631,-27.0745 863.836,-33.7182"/>
</g>
<!-- 222_15 -->
<g id="node40" class="node"><title>222_15</title>
<ellipse fill="dimgrey" stroke="black" cx="1001.31" cy="-16.2635" rx="40.1111" ry="16.0303"/>
<text text-anchor="middle" x="1001.31" y="-12.5635" font-family="Times,serif" font-size="14.00">222_15</text>
</g>
<!-- 222_7x222_99&#45;&gt;222_15 -->
<g id="edge40" class="edge"><title>222_7x222_99&#45;&gt;222_15</title>
<path fill="none" stroke="black" d="M742.836,-70.6786C760.46,-68.2304 866.635,-53.1019 951.305,-32.5269 954.524,-31.7447 957.842,-30.8752 961.164,-29.9593"/>
<polygon fill="black" stroke="black" points="962.411,-33.2425 971.053,-27.113 960.475,-26.5156 962.411,-33.2425"/>
</g>
<!-- 222_11 -->
<g id="node23" class="node"><title>222_11</title>
<polygon fill="#66cdaa" stroke="black" points="451.805,-250.817 394.805,-250.817 394.805,-227.817 451.805,-227.817 451.805,-250.817"/>
<text text-anchor="middle" x="423.305" y="-235.617" font-family="Times,serif" font-size="14.00">222_11</text>
</g>
<!-- 222_11&#45;&gt;222_11x222_10 -->
<g id="edge20" class="edge"><title>222_11&#45;&gt;222_11x222_10</title>
<path fill="none" stroke="black" d="M423.305,-227.695C423.305,-218.943 423.305,-206.507 423.305,-197.234"/>
<polygon fill="black" stroke="black" points="426.805,-197.192 423.305,-187.192 419.805,-197.193 426.805,-197.192"/>
</g>
<!-- 222_10&#45;&gt;222_11x222_10 -->
<g id="edge22" class="edge"><title>222_10&#45;&gt;222_11x222_10</title>
<path fill="none" stroke="black" d="M574.846,-229.075C533.559,-216.945 463.071,-196.237 435.175,-188.041"/>
<polygon fill="black" stroke="black" points="435.992,-184.633 425.411,-185.172 434.019,-191.349 435.992,-184.633"/>
</g>
<!-- 222_9 -->
<g id="node25" class="node"><title>222_9</title>
<ellipse fill="#66cdaa" stroke="black" cx="995.305" cy="-350.844" rx="35.2113" ry="16.0303"/>
<text text-anchor="middle" x="995.305" y="-347.144" font-family="Times,serif" font-size="14.00">222_9</text>
</g>
<!-- 222_9&#45;&gt;222_8x222_9 -->
<g id="edge23" class="edge"><title>222_9&#45;&gt;222_8x222_9</title>
<path fill="none" stroke="black" d="M984.648,-335.153C977.874,-325.814 969.293,-313.985 963.357,-305.802"/>
<polygon fill="black" stroke="black" points="966.156,-303.7 957.451,-297.661 960.49,-307.81 966.156,-303.7"/>
</g>
<!-- 222_7&#45;&gt;222_7x222_99 -->
<g id="edge25" class="edge"><title>222_7&#45;&gt;222_7x222_99</title>
<path fill="none" stroke="black" d="M673.703,-116.168C690.404,-105.351 715.792,-88.9054 729.91,-79.7602"/>
<polygon fill="black" stroke="black" points="731.945,-82.6122 738.435,-74.238 728.14,-76.7371 731.945,-82.6122"/>
</g>
<!-- 222_6 -->
<g id="node27" class="node"><title>222_6</title>
<ellipse fill="#66cdaa" stroke="black" cx="834.305" cy="-127.79" rx="35.2113" ry="16.0303"/>
<text text-anchor="middle" x="834.305" y="-124.09" font-family="Times,serif" font-size="14.00">222_6</text>
</g>
<!-- 222_1x222_2 -->
<g id="node28" class="node"><title>222_1x222_2</title>
<polygon fill="none" stroke="black" points="873.305,-187.054 869.805,-183.554 873.305,-180.054 876.805,-183.554 873.305,-187.054"/>
</g>
<!-- 222_1x222_2&#45;&gt;222_6 -->
<g id="edge26" class="edge"><title>222_1x222_2&#45;&gt;222_6</title>
<path fill="none" stroke="black" d="M872.007,-180.765C868.668,-176.161 859.442,-163.443 850.954,-151.741"/>
<polygon fill="black" stroke="black" points="853.702,-149.57 844.997,-143.53 848.036,-153.68 853.702,-149.57"/>
</g>
<!-- 222_5 -->
<g id="node29" class="node"><title>222_5</title>
<polygon fill="#66cdaa" stroke="black" points="937.305,-139.29 887.305,-139.29 887.305,-116.29 937.305,-116.29 937.305,-139.29"/>
<text text-anchor="middle" x="912.305" y="-124.09" font-family="Times,serif" font-size="14.00">222_5</text>
</g>
<!-- 222_1x222_2&#45;&gt;222_5 -->
<g id="edge27" class="edge"><title>222_1x222_2&#45;&gt;222_5</title>
<path fill="none" stroke="black" d="M874.603,-180.765C878.34,-175.613 889.448,-160.301 898.646,-147.621"/>
<polygon fill="black" stroke="black" points="901.555,-149.57 904.594,-139.42 895.889,-145.46 901.555,-149.57"/>
</g>
<!-- 222_4 -->
<g id="node30" class="node"><title>222_4</title>
<polygon fill="#66cdaa" stroke="black" points="1005.31,-139.29 955.305,-139.29 955.305,-116.29 1005.31,-116.29 1005.31,-139.29"/>
<text text-anchor="middle" x="980.305" y="-124.09" font-family="Times,serif" font-size="14.00">222_4</text>
</g>
<!-- 222_1x222_2&#45;&gt;222_4 -->
<g id="edge28" class="edge"><title>222_1x222_2&#45;&gt;222_4</title>
<path fill="none" stroke="black" d="M875.162,-181.621C883.988,-177.186 922.421,-157.875 950.272,-143.881"/>
<polygon fill="black" stroke="black" points="951.889,-146.985 959.253,-139.368 948.746,-140.731 951.889,-146.985"/>
</g>
<!-- 222_3 -->
<g id="node31" class="node"><title>222_3</title>
<polygon fill="#66cdaa" stroke="black" points="1073.31,-139.29 1023.31,-139.29 1023.31,-116.29 1073.31,-116.29 1073.31,-139.29"/>
<text text-anchor="middle" x="1048.31" y="-124.09" font-family="Times,serif" font-size="14.00">222_3</text>
</g>
<!-- 222_1x222_2&#45;&gt;222_3 -->
<g id="edge29" class="edge"><title>222_1x222_2&#45;&gt;222_3</title>
<path fill="none" stroke="black" d="M875.673,-182.053C889.332,-179.132 959.366,-163.751 1014.31,-144.054 1015.16,-143.748 1016.02,-143.43 1016.88,-143.102"/>
<polygon fill="black" stroke="black" points="1018.25,-146.324 1026.2,-139.311 1015.61,-139.841 1018.25,-146.324"/>
</g>
<!-- 222_99 -->
<g id="node34" class="node"><title>222_99</title>
<ellipse fill="dimgrey" stroke="black" cx="740.305" cy="-127.79" rx="40.1111" ry="16.0303"/>
<text text-anchor="middle" x="740.305" y="-124.09" font-family="Times,serif" font-size="14.00">222_99</text>
</g>
<!-- 222_1x222_2&#45;&gt;222_99 -->
<g id="edge33" class="edge"><title>222_1x222_2&#45;&gt;222_99</title>
<path fill="none" stroke="black" d="M871.425,-181.794C861.295,-177.699 812.374,-157.923 777.255,-143.727"/>
<polygon fill="black" stroke="black" points="778.342,-140.391 767.759,-139.888 775.719,-146.881 778.342,-140.391"/>
</g>
<!-- 222_2 -->
<g id="node32" class="node"><title>222_2</title>
<ellipse fill="#66cdaa" stroke="black" cx="795.305" cy="-239.317" rx="35.2113" ry="16.0303"/>
<text text-anchor="middle" x="795.305" y="-235.617" font-family="Times,serif" font-size="14.00">222_2</text>
</g>
<!-- 222_2&#45;&gt;222_1x222_2 -->
<g id="edge30" class="edge"><title>222_2&#45;&gt;222_1x222_2</title>
<path fill="none" stroke="black" d="M814.187,-225.303C829.651,-214.643 850.928,-199.978 863.289,-191.458"/>
<polygon fill="black" stroke="black" points="865.464,-194.209 871.712,-185.652 861.492,-188.446 865.464,-194.209"/>
</g>
<!-- 222_1&#45;&gt;222_1x222_2 -->
<g id="edge32" class="edge"><title>222_1&#45;&gt;222_1x222_2</title>
<path fill="none" stroke="black" d="M873.305,-227.695C873.305,-218.943 873.305,-206.507 873.305,-197.234"/>
<polygon fill="black" stroke="black" points="876.805,-197.192 873.305,-187.192 869.805,-197.193 876.805,-197.192"/>
</g>
<!-- 222_99&#45;&gt;222_7x222_99 -->
<g id="edge34" class="edge"><title>222_99&#45;&gt;222_7x222_99</title>
<path fill="none" stroke="black" d="M740.305,-111.24C740.305,-103.134 740.305,-93.3455 740.305,-85.7049"/>
<polygon fill="black" stroke="black" points="743.805,-85.5501 740.305,-75.5502 736.805,-85.5502 743.805,-85.5501"/>
</g>
</g>
</svg>
