<?xml version="1.0" encoding="UTF-8" standalone="no"?>
<!DOCTYPE svg PUBLIC "-//W3C//DTD SVG 1.1//EN"
 "http://www.w3.org/Graphics/SVG/1.1/DTD/svg11.dtd">
<!-- Generated by graphviz version 2.38.0 (20140413.2041)
 -->
<!-- Title: %3 Pages: 1 -->
<svg width="2314pt" height="375pt"
 viewBox="0.00 0.00 2314.00 375.11" xmlns="http://www.w3.org/2000/svg" xmlns:xlink="http://www.w3.org/1999/xlink">
<g id="graph0" class="graph" transform="scale(1 1) rotate(0) translate(4 371.108)">
<title>%3</title>
<polygon fill="white" stroke="none" points="-4,4 -4,-371.108 2310,-371.108 2310,4 -4,4"/>
<!-- 4_589_6 -->
<g id="node1" class="node"><title>4_589_6</title>
<polygon fill="white" stroke="black" points="1051.5,-250.817 987.5,-250.817 987.5,-227.817 1051.5,-227.817 1051.5,-250.817"/>
<text text-anchor="middle" x="1019.5" y="-235.617" font-family="Times,serif" font-size="14.00">4_589_6</text>
</g>
<!-- 4_589_1x4_589_2 -->
<g id="node2" class="node"><title>4_589_1x4_589_2</title>
<polygon fill="none" stroke="black" points="1383.5,-298.581 1380,-295.081 1383.5,-291.581 1387,-295.081 1383.5,-298.581"/>
</g>
<!-- 4_589_1x4_589_2&#45;&gt;4_589_6 -->
<g id="edge1" class="edge"><title>4_589_1x4_589_2&#45;&gt;4_589_6</title>
<path fill="none" stroke="black" d="M1380.87,-294.006C1358.05,-293.304 1191.13,-287.204 1060.5,-255.581 1058.62,-255.125 1056.7,-254.609 1054.78,-254.048"/>
<polygon fill="black" stroke="black" points="1055.83,-250.708 1045.24,-250.956 1053.67,-257.367 1055.83,-250.708"/>
</g>
<!-- 4_589_3 -->
<g id="node11" class="node"><title>4_589_3</title>
<polygon fill="white" stroke="black" points="1215.5,-250.817 1151.5,-250.817 1151.5,-227.817 1215.5,-227.817 1215.5,-250.817"/>
<text text-anchor="middle" x="1183.5" y="-235.617" font-family="Times,serif" font-size="14.00">4_589_3</text>
</g>
<!-- 4_589_1x4_589_2&#45;&gt;4_589_3 -->
<g id="edge8" class="edge"><title>4_589_1x4_589_2&#45;&gt;4_589_3</title>
<path fill="none" stroke="black" d="M1381.23,-293.637C1366.9,-290.816 1287.51,-274.863 1224.5,-255.581 1223.09,-255.15 1221.66,-254.697 1220.22,-254.228"/>
<polygon fill="black" stroke="black" points="1221.29,-250.892 1210.69,-250.954 1219.01,-257.513 1221.29,-250.892"/>
</g>
<!-- 4_589_9 -->
<g id="node14" class="node"><title>4_589_9</title>
<ellipse fill="white" stroke="black" cx="1478.5" cy="-239.317" rx="45.011" ry="16.0303"/>
<text text-anchor="middle" x="1478.5" y="-235.617" font-family="Times,serif" font-size="14.00">4_589_9</text>
</g>
<!-- 4_589_1x4_589_2&#45;&gt;4_589_9 -->
<g id="edge10" class="edge"><title>4_589_1x4_589_2&#45;&gt;4_589_9</title>
<path fill="none" stroke="black" d="M1385.15,-293.148C1392.45,-289.018 1422.54,-271.989 1446.61,-258.365"/>
<polygon fill="black" stroke="black" points="1448.5,-261.316 1455.48,-253.345 1445.05,-255.224 1448.5,-261.316"/>
</g>
<!-- 4_589_10 -->
<g id="node21" class="node"><title>4_589_10</title>
<ellipse fill="white" stroke="black" cx="457.5" cy="-239.317" rx="50.41" ry="16.0303"/>
<text text-anchor="middle" x="457.5" y="-235.617" font-family="Times,serif" font-size="14.00">4_589_10</text>
</g>
<!-- 4_589_1x4_589_2&#45;&gt;4_589_10 -->
<g id="edge15" class="edge"><title>4_589_1x4_589_2&#45;&gt;4_589_10</title>
<path fill="none" stroke="black" d="M1380.77,-294.039C1333.98,-293.319 700.149,-283.105 516.5,-255.581 512.084,-254.919 507.521,-254.06 502.978,-253.088"/>
<polygon fill="black" stroke="black" points="503.666,-249.655 493.134,-250.81 502.087,-256.475 503.666,-249.655"/>
</g>
<!-- 4_589_8 -->
<g id="node23" class="node"><title>4_589_8</title>
<polygon fill="white" stroke="black" points="1133.5,-250.817 1069.5,-250.817 1069.5,-227.817 1133.5,-227.817 1133.5,-250.817"/>
<text text-anchor="middle" x="1101.5" y="-235.617" font-family="Times,serif" font-size="14.00">4_589_8</text>
</g>
<!-- 4_589_1x4_589_2&#45;&gt;4_589_8 -->
<g id="edge18" class="edge"><title>4_589_1x4_589_2&#45;&gt;4_589_8</title>
<path fill="none" stroke="black" d="M1381.09,-293.879C1362.42,-292.277 1239.2,-281.036 1142.5,-255.581 1140.83,-255.142 1139.14,-254.661 1137.44,-254.149"/>
<polygon fill="black" stroke="black" points="1138.31,-250.752 1127.72,-250.951 1136.12,-257.401 1138.31,-250.752"/>
</g>
<!-- 4_589_4 -->
<g id="node27" class="node"><title>4_589_4</title>
<ellipse fill="dimgrey" stroke="black" cx="2171.5" cy="-239.317" rx="45.011" ry="16.0303"/>
<text text-anchor="middle" x="2171.5" y="-235.617" font-family="Times,serif" font-size="14.00">4_589_4</text>
</g>
<!-- 4_589_1x4_589_2&#45;&gt;4_589_4 -->
<g id="edge22" class="edge"><title>4_589_1x4_589_2&#45;&gt;4_589_4</title>
<path fill="none" stroke="black" d="M1386.06,-294.026C1427.63,-293.133 1962.65,-281.196 2117.5,-255.581 2121.23,-254.964 2125.06,-254.184 2128.89,-253.304"/>
<polygon fill="black" stroke="black" points="2130.08,-256.615 2138.93,-250.786 2128.37,-249.826 2130.08,-256.615"/>
</g>
<!-- 4_589_99 -->
<g id="node32" class="node"><title>4_589_99</title>
<ellipse fill="dimgrey" stroke="black" cx="1681.5" cy="-239.317" rx="50.41" ry="16.0303"/>
<text text-anchor="middle" x="1681.5" y="-235.617" font-family="Times,serif" font-size="14.00">4_589_99</text>
</g>
<!-- 4_589_1x4_589_2&#45;&gt;4_589_99 -->
<g id="edge26" class="edge"><title>4_589_1x4_589_2&#45;&gt;4_589_99</title>
<path fill="none" stroke="black" d="M1385.87,-293.785C1404.22,-291.477 1525.42,-275.911 1622.5,-255.581 1626.41,-254.762 1630.45,-253.854 1634.49,-252.899"/>
<polygon fill="black" stroke="black" points="1635.6,-256.23 1644.49,-250.457 1633.94,-249.43 1635.6,-256.23"/>
</g>
<!-- 4_589_5 -->
<g id="node42" class="node"><title>4_589_5</title>
<polygon fill="dimgrey" stroke="black" points="1415.5,-250.817 1351.5,-250.817 1351.5,-227.817 1415.5,-227.817 1415.5,-250.817"/>
<text text-anchor="middle" x="1383.5" y="-235.617" font-family="Times,serif" font-size="14.00">4_589_5</text>
</g>
<!-- 4_589_1x4_589_2&#45;&gt;4_589_5 -->
<g id="edge36" class="edge"><title>4_589_1x4_589_2&#45;&gt;4_589_5</title>
<path fill="none" stroke="black" d="M1383.5,-291.488C1383.5,-286.02 1383.5,-272.854 1383.5,-261.248"/>
<polygon fill="black" stroke="black" points="1387,-260.899 1383.5,-250.899 1380,-260.899 1387,-260.899"/>
</g>
<!-- 4_589_7 -->
<g id="node45" class="node"><title>4_589_7</title>
<ellipse fill="dimgrey" stroke="black" cx="1884.5" cy="-239.317" rx="45.011" ry="16.0303"/>
<text text-anchor="middle" x="1884.5" y="-235.617" font-family="Times,serif" font-size="14.00">4_589_7</text>
</g>
<!-- 4_589_1x4_589_2&#45;&gt;4_589_7 -->
<g id="edge40" class="edge"><title>4_589_1x4_589_2&#45;&gt;4_589_7</title>
<path fill="none" stroke="black" d="M1386.02,-294.047C1412.71,-293.655 1645.84,-289.316 1830.5,-255.581 1834.22,-254.902 1838.05,-254.078 1841.87,-253.169"/>
<polygon fill="black" stroke="black" points="1843.07,-256.475 1851.89,-250.606 1841.34,-249.693 1843.07,-256.475"/>
</g>
<!-- 4_589_43 -->
<g id="node3" class="node"><title>4_589_43</title>
<polygon fill="white" stroke="black" points="327,-27.7635 256,-27.7635 256,-4.76346 327,-4.76346 327,-27.7635"/>
<text text-anchor="middle" x="291.5" y="-12.5635" font-family="Times,serif" font-size="14.00">4_589_43</text>
</g>
<!-- 4_589_23x4_589_42 -->
<g id="node4" class="node"><title>4_589_23x4_589_42</title>
<polygon fill="none" stroke="black" points="239.5,-75.5269 236,-72.0269 239.5,-68.5269 243,-72.0269 239.5,-75.5269"/>
</g>
<!-- 4_589_23x4_589_42&#45;&gt;4_589_43 -->
<g id="edge2" class="edge"><title>4_589_23x4_589_42&#45;&gt;4_589_43</title>
<path fill="none" stroke="black" d="M240.785,-69.6979C245.335,-64.9939 261.087,-48.7082 273.842,-35.5202"/>
<polygon fill="black" stroke="black" points="276.462,-37.8456 280.899,-28.2243 271.431,-32.979 276.462,-37.8456"/>
</g>
<!-- 4_589_45 -->
<g id="node5" class="node"><title>4_589_45</title>
<polygon fill="white" stroke="black" points="416,-27.7635 345,-27.7635 345,-4.76346 416,-4.76346 416,-27.7635"/>
<text text-anchor="middle" x="380.5" y="-12.5635" font-family="Times,serif" font-size="14.00">4_589_45</text>
</g>
<!-- 4_589_23x4_589_42&#45;&gt;4_589_45 -->
<g id="edge3" class="edge"><title>4_589_23x4_589_42&#45;&gt;4_589_45</title>
<path fill="none" stroke="black" d="M241.493,-70.2669C252.401,-66.1077 305.737,-45.7708 343.072,-31.5348"/>
<polygon fill="black" stroke="black" points="344.559,-34.7136 352.656,-27.8804 342.065,-28.1729 344.559,-34.7136"/>
</g>
<!-- 4_589_44 -->
<g id="node9" class="node"><title>4_589_44</title>
<polygon fill="white" stroke="black" points="119,-27.7635 48,-27.7635 48,-4.76346 119,-4.76346 119,-27.7635"/>
<text text-anchor="middle" x="83.5" y="-12.5635" font-family="Times,serif" font-size="14.00">4_589_44</text>
</g>
<!-- 4_589_23x4_589_42&#45;&gt;4_589_44 -->
<g id="edge6" class="edge"><title>4_589_23x4_589_42&#45;&gt;4_589_44</title>
<path fill="none" stroke="black" d="M237.528,-70.3471C225.903,-66.341 165.422,-45.4967 123.799,-31.1519"/>
<polygon fill="black" stroke="black" points="124.781,-27.7886 114.187,-27.8393 122.501,-34.4066 124.781,-27.7886"/>
</g>
<!-- 4_589_46 -->
<g id="node10" class="node"><title>4_589_46</title>
<ellipse fill="white" stroke="black" cx="187.5" cy="-16.2635" rx="50.41" ry="16.0303"/>
<text text-anchor="middle" x="187.5" y="-12.5635" font-family="Times,serif" font-size="14.00">4_589_46</text>
</g>
<!-- 4_589_23x4_589_42&#45;&gt;4_589_46 -->
<g id="edge7" class="edge"><title>4_589_23x4_589_42&#45;&gt;4_589_46</title>
<path fill="none" stroke="black" d="M238.215,-69.6979C234.096,-65.4396 220.798,-51.6903 208.852,-39.3397"/>
<polygon fill="black" stroke="black" points="211.151,-36.6826 201.683,-31.9279 206.12,-41.5492 211.151,-36.6826"/>
</g>
<!-- 4_589_41 -->
<g id="node6" class="node"><title>4_589_41</title>
<polygon fill="white" stroke="black" points="656,-27.7635 585,-27.7635 585,-4.76346 656,-4.76346 656,-27.7635"/>
<text text-anchor="middle" x="620.5" y="-12.5635" font-family="Times,serif" font-size="14.00">4_589_41</text>
</g>
<!-- 4_589_15x4_589_40 -->
<g id="node7" class="node"><title>4_589_15x4_589_40</title>
<polygon fill="none" stroke="black" points="620.5,-75.5269 617,-72.0269 620.5,-68.5269 624,-72.0269 620.5,-75.5269"/>
</g>
<!-- 4_589_15x4_589_40&#45;&gt;4_589_41 -->
<g id="edge4" class="edge"><title>4_589_15x4_589_40&#45;&gt;4_589_41</title>
<path fill="none" stroke="black" d="M620.5,-68.4338C620.5,-62.9657 620.5,-49.8005 620.5,-38.1938"/>
<polygon fill="black" stroke="black" points="624,-37.8452 620.5,-27.8453 617,-37.8453 624,-37.8452"/>
</g>
<!-- 4_589_42 -->
<g id="node8" class="node"><title>4_589_42</title>
<ellipse fill="white" stroke="black" cx="464.5" cy="-127.79" rx="50.41" ry="16.0303"/>
<text text-anchor="middle" x="464.5" y="-124.09" font-family="Times,serif" font-size="14.00">4_589_42</text>
</g>
<!-- 4_589_42&#45;&gt;4_589_23x4_589_42 -->
<g id="edge5" class="edge"><title>4_589_42&#45;&gt;4_589_23x4_589_42</title>
<path fill="none" stroke="black" d="M426.766,-116.877C419.707,-115.066 412.385,-113.216 405.5,-111.527 348.214,-97.4762 279.472,-81.9592 251.864,-75.7822"/>
<polygon fill="black" stroke="black" points="252.368,-72.3087 241.846,-73.5475 250.844,-79.1408 252.368,-72.3087"/>
</g>
<!-- 4_589_11 -->
<g id="node12" class="node"><title>4_589_11</title>
<polygon fill="white" stroke="black" points="1613,-250.817 1542,-250.817 1542,-227.817 1613,-227.817 1613,-250.817"/>
<text text-anchor="middle" x="1577.5" y="-235.617" font-family="Times,serif" font-size="14.00">4_589_11</text>
</g>
<!-- 4_589_11x4_589_99 -->
<g id="node13" class="node"><title>4_589_11x4_589_99</title>
<polygon fill="none" stroke="black" points="1627.5,-187.054 1624,-183.554 1627.5,-180.054 1631,-183.554 1627.5,-187.054"/>
</g>
<!-- 4_589_11&#45;&gt;4_589_11x4_589_99 -->
<g id="edge9" class="edge"><title>4_589_11&#45;&gt;4_589_11x4_589_99</title>
<path fill="none" stroke="black" d="M1587.38,-227.695C1596.67,-217.702 1610.43,-202.906 1619.18,-193.499"/>
<polygon fill="black" stroke="black" points="1621.84,-195.781 1626.09,-186.074 1616.71,-191.014 1621.84,-195.781"/>
</g>
<!-- 4_589_12 -->
<g id="node17" class="node"><title>4_589_12</title>
<polygon fill="white" stroke="black" points="1663,-139.29 1592,-139.29 1592,-116.29 1663,-116.29 1663,-139.29"/>
<text text-anchor="middle" x="1627.5" y="-124.09" font-family="Times,serif" font-size="14.00">4_589_12</text>
</g>
<!-- 4_589_11x4_589_99&#45;&gt;4_589_12 -->
<g id="edge12" class="edge"><title>4_589_11x4_589_99&#45;&gt;4_589_12</title>
<path fill="none" stroke="black" d="M1627.5,-179.961C1627.5,-174.493 1627.5,-161.327 1627.5,-149.721"/>
<polygon fill="black" stroke="black" points="1631,-149.372 1627.5,-139.372 1624,-149.372 1631,-149.372"/>
</g>
<!-- 4_589_13 -->
<g id="node15" class="node"><title>4_589_13</title>
<polygon fill="white" stroke="black" points="597,-250.817 526,-250.817 526,-227.817 597,-227.817 597,-250.817"/>
<text text-anchor="middle" x="561.5" y="-235.617" font-family="Times,serif" font-size="14.00">4_589_13</text>
</g>
<!-- 4_589_13x4_589_10 -->
<g id="node16" class="node"><title>4_589_13x4_589_10</title>
<polygon fill="none" stroke="black" points="457.5,-187.054 454,-183.554 457.5,-180.054 461,-183.554 457.5,-187.054"/>
</g>
<!-- 4_589_13&#45;&gt;4_589_13x4_589_10 -->
<g id="edge11" class="edge"><title>4_589_13&#45;&gt;4_589_13x4_589_10</title>
<path fill="none" stroke="black" d="M540.953,-227.695C519.126,-216.412 485.456,-199.006 468.321,-190.148"/>
<polygon fill="black" stroke="black" points="469.798,-186.972 459.308,-185.488 466.584,-193.19 469.798,-186.972"/>
</g>
<!-- 4_589_15 -->
<g id="node33" class="node"><title>4_589_15</title>
<polygon fill="white" stroke="black" points="604,-139.29 533,-139.29 533,-116.29 604,-116.29 604,-139.29"/>
<text text-anchor="middle" x="568.5" y="-124.09" font-family="Times,serif" font-size="14.00">4_589_15</text>
</g>
<!-- 4_589_13x4_589_10&#45;&gt;4_589_15 -->
<g id="edge28" class="edge"><title>4_589_13x4_589_10&#45;&gt;4_589_15</title>
<path fill="none" stroke="black" d="M459.427,-181.621C468.583,-177.186 508.452,-157.875 537.344,-143.881"/>
<polygon fill="black" stroke="black" points="539.187,-146.877 546.661,-139.368 536.135,-140.577 539.187,-146.877"/>
</g>
<!-- 4_589_21 -->
<g id="node36" class="node"><title>4_589_21</title>
<polygon fill="white" stroke="black" points="930,-139.29 859,-139.29 859,-116.29 930,-116.29 930,-139.29"/>
<text text-anchor="middle" x="894.5" y="-124.09" font-family="Times,serif" font-size="14.00">4_589_21</text>
</g>
<!-- 4_589_13x4_589_10&#45;&gt;4_589_21 -->
<g id="edge32" class="edge"><title>4_589_13x4_589_10&#45;&gt;4_589_21</title>
<path fill="none" stroke="black" d="M460.022,-182.527C484.915,-182.218 689.071,-178.66 849.5,-144.054 851.97,-143.521 854.492,-142.897 857.02,-142.212"/>
<polygon fill="black" stroke="black" points="858.112,-145.539 866.693,-139.326 856.11,-138.831 858.112,-145.539"/>
</g>
<!-- 4_589_20 -->
<g id="node43" class="node"><title>4_589_20</title>
<polygon fill="white" stroke="black" points="160,-139.29 89,-139.29 89,-116.29 160,-116.29 160,-139.29"/>
<text text-anchor="middle" x="124.5" y="-124.09" font-family="Times,serif" font-size="14.00">4_589_20</text>
</g>
<!-- 4_589_13x4_589_10&#45;&gt;4_589_20 -->
<g id="edge38" class="edge"><title>4_589_13x4_589_10&#45;&gt;4_589_20</title>
<path fill="none" stroke="black" d="M454.9,-182.399C433.616,-181.096 285.907,-171.304 169.5,-144.054 167.196,-143.514 164.843,-142.904 162.481,-142.246"/>
<polygon fill="black" stroke="black" points="163.409,-138.87 152.824,-139.326 161.384,-145.571 163.409,-138.87"/>
</g>
<!-- 4_589_24 -->
<g id="node47" class="node"><title>4_589_24</title>
<ellipse fill="dimgrey" stroke="black" cx="228.5" cy="-127.79" rx="50.41" ry="16.0303"/>
<text text-anchor="middle" x="228.5" y="-124.09" font-family="Times,serif" font-size="14.00">4_589_24</text>
</g>
<!-- 4_589_13x4_589_10&#45;&gt;4_589_24 -->
<g id="edge45" class="edge"><title>4_589_13x4_589_10&#45;&gt;4_589_24</title>
<path fill="none" stroke="black" d="M455.097,-182.038C439.912,-178.776 355.728,-160.601 287.5,-144.054 283.676,-143.126 279.719,-142.146 275.746,-141.149"/>
<polygon fill="black" stroke="black" points="276.464,-137.72 265.911,-138.652 274.742,-144.505 276.464,-137.72"/>
</g>
<!-- 4_589_25 -->
<g id="node48" class="node"><title>4_589_25</title>
<ellipse fill="white" stroke="black" cx="346.5" cy="-127.79" rx="50.41" ry="16.0303"/>
<text text-anchor="middle" x="346.5" y="-124.09" font-family="Times,serif" font-size="14.00">4_589_25</text>
</g>
<!-- 4_589_13x4_589_10&#45;&gt;4_589_25 -->
<g id="edge46" class="edge"><title>4_589_13x4_589_10&#45;&gt;4_589_25</title>
<path fill="none" stroke="black" d="M455.573,-181.621C446.909,-177.424 410.739,-159.905 382.397,-146.177"/>
<polygon fill="black" stroke="black" points="383.661,-142.901 373.136,-141.692 380.61,-149.201 383.661,-142.901"/>
</g>
<!-- 4_589_26 -->
<g id="node49" class="node"><title>4_589_26</title>
<ellipse fill="white" stroke="black" cx="790.5" cy="-127.79" rx="50.41" ry="16.0303"/>
<text text-anchor="middle" x="790.5" y="-124.09" font-family="Times,serif" font-size="14.00">4_589_26</text>
</g>
<!-- 4_589_13x4_589_10&#45;&gt;4_589_26 -->
<g id="edge47" class="edge"><title>4_589_13x4_589_10&#45;&gt;4_589_26</title>
<path fill="none" stroke="black" d="M459.959,-182.316C480.088,-180.348 619.841,-166.267 731.5,-144.054 735.586,-143.241 739.811,-142.317 744.035,-141.336"/>
<polygon fill="black" stroke="black" points="744.929,-144.72 753.825,-138.966 743.282,-137.917 744.929,-144.72"/>
</g>
<!-- 4_589_23 -->
<g id="node54" class="node"><title>4_589_23</title>
<polygon fill="dimgrey" stroke="black" points="71,-139.29 0,-139.29 0,-116.29 71,-116.29 71,-139.29"/>
<text text-anchor="middle" x="35.5" y="-124.09" font-family="Times,serif" font-size="14.00">4_589_23</text>
</g>
<!-- 4_589_13x4_589_10&#45;&gt;4_589_23 -->
<g id="edge51" class="edge"><title>4_589_13x4_589_10&#45;&gt;4_589_23</title>
<path fill="none" stroke="black" d="M454.757,-182.518C429.408,-182.133 233.434,-178.106 79.5,-144.054 77.1686,-143.538 74.7896,-142.938 72.405,-142.281"/>
<polygon fill="black" stroke="black" points="73.2639,-138.883 62.678,-139.318 71.2245,-145.58 73.2639,-138.883"/>
</g>
<!-- 4_589_40 -->
<g id="node18" class="node"><title>4_589_40</title>
<ellipse fill="white" stroke="black" cx="672.5" cy="-127.79" rx="50.41" ry="16.0303"/>
<text text-anchor="middle" x="672.5" y="-124.09" font-family="Times,serif" font-size="14.00">4_589_40</text>
</g>
<!-- 4_589_40&#45;&gt;4_589_15x4_589_40 -->
<g id="edge13" class="edge"><title>4_589_40&#45;&gt;4_589_15x4_589_40</title>
<path fill="none" stroke="black" d="M658.291,-112.099C648.884,-102.374 636.865,-89.9474 628.938,-81.7506"/>
<polygon fill="black" stroke="black" points="631.215,-79.0708 621.747,-74.316 626.183,-83.9373 631.215,-79.0708"/>
</g>
<!-- 4_589_29 -->
<g id="node19" class="node"><title>4_589_29</title>
<polygon fill="white" stroke="black" points="1821,-250.817 1750,-250.817 1750,-227.817 1821,-227.817 1821,-250.817"/>
<text text-anchor="middle" x="1785.5" y="-235.617" font-family="Times,serif" font-size="14.00">4_589_29</text>
</g>
<!-- 4_589_29x4_589_7 -->
<g id="node20" class="node"><title>4_589_29x4_589_7</title>
<polygon fill="none" stroke="black" points="1785.5,-187.054 1782,-183.554 1785.5,-180.054 1789,-183.554 1785.5,-187.054"/>
</g>
<!-- 4_589_29&#45;&gt;4_589_29x4_589_7 -->
<g id="edge14" class="edge"><title>4_589_29&#45;&gt;4_589_29x4_589_7</title>
<path fill="none" stroke="black" d="M1785.5,-227.695C1785.5,-218.943 1785.5,-206.507 1785.5,-197.234"/>
<polygon fill="black" stroke="black" points="1789,-197.192 1785.5,-187.192 1782,-197.193 1789,-197.192"/>
</g>
<!-- 4_589_32 -->
<g id="node41" class="node"><title>4_589_32</title>
<polygon fill="white" stroke="black" points="1801,-139.29 1730,-139.29 1730,-116.29 1801,-116.29 1801,-139.29"/>
<text text-anchor="middle" x="1765.5" y="-124.09" font-family="Times,serif" font-size="14.00">4_589_32</text>
</g>
<!-- 4_589_29x4_589_7&#45;&gt;4_589_32 -->
<g id="edge35" class="edge"><title>4_589_29x4_589_7&#45;&gt;4_589_32</title>
<path fill="none" stroke="black" d="M1784.64,-180.244C1782.63,-174.842 1777.46,-160.935 1773,-148.939"/>
<polygon fill="black" stroke="black" points="1776.27,-147.693 1769.5,-139.541 1769.71,-150.134 1776.27,-147.693"/>
</g>
<!-- 4_589_10&#45;&gt;4_589_13x4_589_10 -->
<g id="edge16" class="edge"><title>4_589_10&#45;&gt;4_589_13x4_589_10</title>
<path fill="none" stroke="black" d="M457.5,-222.767C457.5,-214.661 457.5,-204.872 457.5,-197.232"/>
<polygon fill="black" stroke="black" points="461,-197.077 457.5,-187.077 454,-197.077 461,-197.077"/>
</g>
<!-- 4_589_1 -->
<g id="node22" class="node"><title>4_589_1</title>
<polygon fill="white" stroke="black" points="1368.5,-362.344 1304.5,-362.344 1304.5,-339.344 1368.5,-339.344 1368.5,-362.344"/>
<text text-anchor="middle" x="1336.5" y="-347.144" font-family="Times,serif" font-size="14.00">4_589_1</text>
</g>
<!-- 4_589_1&#45;&gt;4_589_1x4_589_2 -->
<g id="edge17" class="edge"><title>4_589_1&#45;&gt;4_589_1x4_589_2</title>
<path fill="none" stroke="black" d="M1345.79,-339.222C1354.43,-329.334 1367.18,-314.744 1375.42,-305.325"/>
<polygon fill="black" stroke="black" points="1378.22,-307.434 1382.17,-297.601 1372.95,-302.827 1378.22,-307.434"/>
</g>
<!-- 4_589_8x4_589_36 -->
<g id="node24" class="node"><title>4_589_8x4_589_36</title>
<polygon fill="none" stroke="black" points="1101.5,-187.054 1098,-183.554 1101.5,-180.054 1105,-183.554 1101.5,-187.054"/>
</g>
<!-- 4_589_8&#45;&gt;4_589_8x4_589_36 -->
<g id="edge19" class="edge"><title>4_589_8&#45;&gt;4_589_8x4_589_36</title>
<path fill="none" stroke="black" d="M1101.5,-227.695C1101.5,-218.943 1101.5,-206.507 1101.5,-197.234"/>
<polygon fill="black" stroke="black" points="1105,-197.192 1101.5,-187.192 1098,-197.193 1105,-197.192"/>
</g>
<!-- 4_589_39 -->
<g id="node25" class="node"><title>4_589_39</title>
<ellipse fill="white" stroke="black" cx="998.5" cy="-127.79" rx="50.41" ry="16.0303"/>
<text text-anchor="middle" x="998.5" y="-124.09" font-family="Times,serif" font-size="14.00">4_589_39</text>
</g>
<!-- 4_589_8x4_589_36&#45;&gt;4_589_39 -->
<g id="edge20" class="edge"><title>4_589_8x4_589_36&#45;&gt;4_589_39</title>
<path fill="none" stroke="black" d="M1099.71,-181.621C1091.78,-177.48 1059,-160.368 1032.86,-146.725"/>
<polygon fill="black" stroke="black" points="1034.43,-143.596 1023.94,-142.072 1031.19,-149.802 1034.43,-143.596"/>
</g>
<!-- 4_589_38 -->
<g id="node26" class="node"><title>4_589_38</title>
<ellipse fill="white" stroke="black" cx="1116.5" cy="-127.79" rx="50.41" ry="16.0303"/>
<text text-anchor="middle" x="1116.5" y="-124.09" font-family="Times,serif" font-size="14.00">4_589_38</text>
</g>
<!-- 4_589_8x4_589_36&#45;&gt;4_589_38 -->
<g id="edge21" class="edge"><title>4_589_8x4_589_36&#45;&gt;4_589_38</title>
<path fill="none" stroke="black" d="M1102.14,-180.244C1103.44,-175.613 1106.47,-164.733 1109.42,-154.164"/>
<polygon fill="black" stroke="black" points="1112.85,-154.914 1112.16,-144.341 1106.1,-153.033 1112.85,-154.914"/>
</g>
<!-- 4_589_37 -->
<g id="node51" class="node"><title>4_589_37</title>
<ellipse fill="white" stroke="black" cx="1234.5" cy="-127.79" rx="50.41" ry="16.0303"/>
<text text-anchor="middle" x="1234.5" y="-124.09" font-family="Times,serif" font-size="14.00">4_589_37</text>
</g>
<!-- 4_589_8x4_589_36&#45;&gt;4_589_37 -->
<g id="edge48" class="edge"><title>4_589_8x4_589_36&#45;&gt;4_589_37</title>
<path fill="none" stroke="black" d="M1103.38,-181.794C1113.28,-177.792 1160.22,-158.817 1195.13,-144.706"/>
<polygon fill="black" stroke="black" points="1196.65,-147.864 1204.61,-140.872 1194.03,-141.375 1196.65,-147.864"/>
</g>
<!-- 4_589_16x4_589_4 -->
<g id="node28" class="node"><title>4_589_16x4_589_4</title>
<polygon fill="none" stroke="black" points="2232.5,-187.054 2229,-183.554 2232.5,-180.054 2236,-183.554 2232.5,-187.054"/>
</g>
<!-- 4_589_4&#45;&gt;4_589_16x4_589_4 -->
<g id="edge23" class="edge"><title>4_589_4&#45;&gt;4_589_16x4_589_4</title>
<path fill="none" stroke="black" d="M2187.85,-223.91C2199.25,-213.859 2214.05,-200.819 2223.41,-192.566"/>
<polygon fill="black" stroke="black" points="2225.83,-195.096 2231.02,-185.858 2221.2,-189.844 2225.83,-195.096"/>
</g>
<!-- 4_589_14 -->
<g id="node46" class="node"><title>4_589_14</title>
<ellipse fill="white" stroke="black" cx="2232.5" cy="-127.79" rx="50.41" ry="16.0303"/>
<text text-anchor="middle" x="2232.5" y="-124.09" font-family="Times,serif" font-size="14.00">4_589_14</text>
</g>
<!-- 4_589_16x4_589_4&#45;&gt;4_589_14 -->
<g id="edge44" class="edge"><title>4_589_16x4_589_4&#45;&gt;4_589_14</title>
<path fill="none" stroke="black" d="M2232.5,-179.961C2232.5,-175.178 2232.5,-164.508 2232.5,-154.142"/>
<polygon fill="black" stroke="black" points="2236,-154.107 2232.5,-144.107 2229,-154.107 2236,-154.107"/>
</g>
<!-- 4_589_18 -->
<g id="node29" class="node"><title>4_589_18</title>
<polygon fill="white" stroke="black" points="1389,-139.29 1318,-139.29 1318,-116.29 1389,-116.29 1389,-139.29"/>
<text text-anchor="middle" x="1353.5" y="-124.09" font-family="Times,serif" font-size="14.00">4_589_18</text>
</g>
<!-- 4_589_5x4_589_17 -->
<g id="node30" class="node"><title>4_589_5x4_589_17</title>
<polygon fill="none" stroke="black" points="1353.5,-187.054 1350,-183.554 1353.5,-180.054 1357,-183.554 1353.5,-187.054"/>
</g>
<!-- 4_589_5x4_589_17&#45;&gt;4_589_18 -->
<g id="edge24" class="edge"><title>4_589_5x4_589_17&#45;&gt;4_589_18</title>
<path fill="none" stroke="black" d="M1353.5,-179.961C1353.5,-174.493 1353.5,-161.327 1353.5,-149.721"/>
<polygon fill="black" stroke="black" points="1357,-149.372 1353.5,-139.372 1350,-149.372 1357,-149.372"/>
</g>
<!-- 4_589_16 -->
<g id="node31" class="node"><title>4_589_16</title>
<polygon fill="white" stroke="black" points="2306,-250.817 2235,-250.817 2235,-227.817 2306,-227.817 2306,-250.817"/>
<text text-anchor="middle" x="2270.5" y="-235.617" font-family="Times,serif" font-size="14.00">4_589_16</text>
</g>
<!-- 4_589_16&#45;&gt;4_589_16x4_589_4 -->
<g id="edge25" class="edge"><title>4_589_16&#45;&gt;4_589_16x4_589_4</title>
<path fill="none" stroke="black" d="M2262.99,-227.695C2256.15,-218.017 2246.13,-203.836 2239.46,-194.406"/>
<polygon fill="black" stroke="black" points="2242.2,-192.22 2233.57,-186.074 2236.49,-196.261 2242.2,-192.22"/>
</g>
<!-- 4_589_99&#45;&gt;4_589_11x4_589_99 -->
<g id="edge27" class="edge"><title>4_589_99&#45;&gt;4_589_11x4_589_99</title>
<path fill="none" stroke="black" d="M1666.74,-223.626C1656.87,-213.794 1644.22,-201.201 1635.99,-193.009"/>
<polygon fill="black" stroke="black" points="1638.35,-190.418 1628.79,-185.843 1633.41,-195.379 1638.35,-190.418"/>
</g>
<!-- 4_589_15&#45;&gt;4_589_15x4_589_40 -->
<g id="edge29" class="edge"><title>4_589_15&#45;&gt;4_589_15x4_589_40</title>
<path fill="none" stroke="black" d="M578.774,-116.168C588.439,-106.175 602.75,-91.379 611.848,-81.9723"/>
<polygon fill="black" stroke="black" points="614.593,-84.1688 619.029,-74.5476 609.561,-79.3023 614.593,-84.1688"/>
</g>
<!-- 4_589_2 -->
<g id="node34" class="node"><title>4_589_2</title>
<ellipse fill="white" stroke="black" cx="1431.5" cy="-350.844" rx="45.011" ry="16.0303"/>
<text text-anchor="middle" x="1431.5" y="-347.144" font-family="Times,serif" font-size="14.00">4_589_2</text>
</g>
<!-- 4_589_2&#45;&gt;4_589_1x4_589_2 -->
<g id="edge30" class="edge"><title>4_589_2&#45;&gt;4_589_1x4_589_2</title>
<path fill="none" stroke="black" d="M1418.38,-335.153C1409.86,-325.604 1399.01,-313.452 1391.69,-305.256"/>
<polygon fill="black" stroke="black" points="1394.18,-302.789 1384.91,-297.661 1388.96,-307.451 1394.18,-302.789"/>
</g>
<!-- 4_589_17 -->
<g id="node35" class="node"><title>4_589_17</title>
<ellipse fill="white" stroke="black" cx="1283.5" cy="-239.317" rx="50.41" ry="16.0303"/>
<text text-anchor="middle" x="1283.5" y="-235.617" font-family="Times,serif" font-size="14.00">4_589_17</text>
</g>
<!-- 4_589_17&#45;&gt;4_589_5x4_589_17 -->
<g id="edge31" class="edge"><title>4_589_17&#45;&gt;4_589_5x4_589_17</title>
<path fill="none" stroke="black" d="M1302.26,-223.91C1315.62,-213.645 1333.05,-200.263 1343.74,-192.046"/>
<polygon fill="black" stroke="black" points="1346,-194.725 1351.8,-185.858 1341.74,-189.173 1346,-194.725"/>
</g>
<!-- 4_589_28 -->
<g id="node37" class="node"><title>4_589_28</title>
<polygon fill="white" stroke="black" points="2019,-250.817 1948,-250.817 1948,-227.817 2019,-227.817 2019,-250.817"/>
<text text-anchor="middle" x="1983.5" y="-235.617" font-family="Times,serif" font-size="14.00">4_589_28</text>
</g>
<!-- 4_589_28x4_589_7 -->
<g id="node38" class="node"><title>4_589_28x4_589_7</title>
<polygon fill="none" stroke="black" points="1919.5,-187.054 1916,-183.554 1919.5,-180.054 1923,-183.554 1919.5,-187.054"/>
</g>
<!-- 4_589_28&#45;&gt;4_589_28x4_589_7 -->
<g id="edge33" class="edge"><title>4_589_28&#45;&gt;4_589_28x4_589_7</title>
<path fill="none" stroke="black" d="M1970.86,-227.695C1958.49,-217.306 1939.94,-201.726 1928.85,-192.407"/>
<polygon fill="black" stroke="black" points="1930.85,-189.517 1920.94,-185.765 1926.35,-194.877 1930.85,-189.517"/>
</g>
<!-- 4_589_35 -->
<g id="node53" class="node"><title>4_589_35</title>
<polygon fill="white" stroke="black" points="1890,-139.29 1819,-139.29 1819,-116.29 1890,-116.29 1890,-139.29"/>
<text text-anchor="middle" x="1854.5" y="-124.09" font-family="Times,serif" font-size="14.00">4_589_35</text>
</g>
<!-- 4_589_28x4_589_7&#45;&gt;4_589_35 -->
<g id="edge50" class="edge"><title>4_589_28x4_589_7&#45;&gt;4_589_35</title>
<path fill="none" stroke="black" d="M1917.89,-181.225C1912.07,-176.405 1891.54,-159.429 1875.41,-146.082"/>
<polygon fill="black" stroke="black" points="1877.4,-143.193 1867.47,-139.517 1872.94,-148.587 1877.4,-143.193"/>
</g>
<!-- 4_589_34 -->
<g id="node55" class="node"><title>4_589_34</title>
<ellipse fill="white" stroke="black" cx="1958.5" cy="-127.79" rx="50.41" ry="16.0303"/>
<text text-anchor="middle" x="1958.5" y="-124.09" font-family="Times,serif" font-size="14.00">4_589_34</text>
</g>
<!-- 4_589_28x4_589_7&#45;&gt;4_589_34 -->
<g id="edge53" class="edge"><title>4_589_28x4_589_7&#45;&gt;4_589_34</title>
<path fill="none" stroke="black" d="M1920.8,-180.765C1924.12,-176.191 1933.25,-163.605 1941.69,-151.965"/>
<polygon fill="black" stroke="black" points="1944.58,-153.934 1947.62,-143.784 1938.92,-149.824 1944.58,-153.934"/>
</g>
<!-- 4_589_30 -->
<g id="node39" class="node"><title>4_589_30</title>
<polygon fill="white" stroke="black" points="2108,-250.817 2037,-250.817 2037,-227.817 2108,-227.817 2108,-250.817"/>
<text text-anchor="middle" x="2072.5" y="-235.617" font-family="Times,serif" font-size="14.00">4_589_30</text>
</g>
<!-- 4_589_30x4_589_7 -->
<g id="node40" class="node"><title>4_589_30x4_589_7</title>
<polygon fill="none" stroke="black" points="2072.5,-187.054 2069,-183.554 2072.5,-180.054 2076,-183.554 2072.5,-187.054"/>
</g>
<!-- 4_589_30&#45;&gt;4_589_30x4_589_7 -->
<g id="edge34" class="edge"><title>4_589_30&#45;&gt;4_589_30x4_589_7</title>
<path fill="none" stroke="black" d="M2072.5,-227.695C2072.5,-218.943 2072.5,-206.507 2072.5,-197.234"/>
<polygon fill="black" stroke="black" points="2076,-197.192 2072.5,-187.192 2069,-197.193 2076,-197.192"/>
</g>
<!-- 4_589_33 -->
<g id="node44" class="node"><title>4_589_33</title>
<ellipse fill="white" stroke="black" cx="2076.5" cy="-127.79" rx="50.41" ry="16.0303"/>
<text text-anchor="middle" x="2076.5" y="-124.09" font-family="Times,serif" font-size="14.00">4_589_33</text>
</g>
<!-- 4_589_30x4_589_7&#45;&gt;4_589_33 -->
<g id="edge39" class="edge"><title>4_589_30x4_589_7&#45;&gt;4_589_33</title>
<path fill="none" stroke="black" d="M2072.69,-179.961C2073.05,-175.178 2073.84,-164.508 2074.61,-154.142"/>
<polygon fill="black" stroke="black" points="2078.11,-154.339 2075.36,-144.107 2071.13,-153.82 2078.11,-154.339"/>
</g>
<!-- 4_589_5&#45;&gt;4_589_5x4_589_17 -->
<g id="edge37" class="edge"><title>4_589_5&#45;&gt;4_589_5x4_589_17</title>
<path fill="none" stroke="black" d="M1377.57,-227.695C1372.33,-218.297 1364.71,-204.65 1359.46,-195.234"/>
<polygon fill="black" stroke="black" points="1362.47,-193.443 1354.54,-186.416 1356.36,-196.854 1362.47,-193.443"/>
</g>
<!-- 4_589_7&#45;&gt;4_589_29x4_589_7 -->
<g id="edge41" class="edge"><title>4_589_7&#45;&gt;4_589_29x4_589_7</title>
<path fill="none" stroke="black" d="M1860.79,-225.44C1840.37,-214.349 1811.82,-198.847 1796.41,-190.477"/>
<polygon fill="black" stroke="black" points="1797.99,-187.355 1787.53,-185.658 1794.65,-193.506 1797.99,-187.355"/>
</g>
<!-- 4_589_7&#45;&gt;4_589_28x4_589_7 -->
<g id="edge43" class="edge"><title>4_589_7&#45;&gt;4_589_28x4_589_7</title>
<path fill="none" stroke="black" d="M1894.25,-223.341C1900.19,-214.218 1907.62,-202.802 1912.88,-194.724"/>
<polygon fill="black" stroke="black" points="1915.96,-196.406 1918.48,-186.116 1910.09,-192.587 1915.96,-196.406"/>
</g>
<!-- 4_589_7&#45;&gt;4_589_30x4_589_7 -->
<g id="edge42" class="edge"><title>4_589_7&#45;&gt;4_589_30x4_589_7</title>
<path fill="none" stroke="black" d="M1918.55,-228.581C1961.3,-216.356 2032.44,-196.01 2060.55,-187.972"/>
<polygon fill="black" stroke="black" points="2061.73,-191.274 2070.38,-185.16 2059.8,-184.544 2061.73,-191.274"/>
</g>
<!-- 4_589_AAAA -->
<g id="node50" class="node"><title>4_589_AAAA</title>
<polygon fill="white" stroke="black" points="1590.5,-362.344 1494.5,-362.344 1494.5,-339.344 1590.5,-339.344 1590.5,-362.344"/>
<text text-anchor="middle" x="1542.5" y="-347.144" font-family="Times,serif" font-size="14.00">4_589_AAAA</text>
</g>
<!-- 4_589_36 -->
<g id="node52" class="node"><title>4_589_36</title>
<ellipse fill="white" stroke="black" cx="919.5" cy="-239.317" rx="50.41" ry="16.0303"/>
<text text-anchor="middle" x="919.5" y="-235.617" font-family="Times,serif" font-size="14.00">4_589_36</text>
</g>
<!-- 4_589_36&#45;&gt;4_589_8x4_589_36 -->
<g id="edge49" class="edge"><title>4_589_36&#45;&gt;4_589_8x4_589_36</title>
<path fill="none" stroke="black" d="M955.023,-227.824C996.629,-215.533 1063.25,-195.852 1089.92,-187.975"/>
<polygon fill="black" stroke="black" points="1090.91,-191.33 1099.51,-185.141 1088.93,-184.617 1090.91,-191.33"/>
</g>
<!-- 4_589_23&#45;&gt;4_589_23x4_589_42 -->
<g id="edge52" class="edge"><title>4_589_23&#45;&gt;4_589_23x4_589_42</title>
<path fill="none" stroke="black" d="M64.7195,-116.208C69.6279,-114.559 74.6893,-112.936 79.5,-111.527 133.916,-95.583 200.125,-81.2206 227.135,-75.5705"/>
<polygon fill="black" stroke="black" points="228.137,-78.9375 237.222,-73.4872 226.721,-72.0822 228.137,-78.9375"/>
</g>
</g>
</svg>
