<?xml version="1.0" encoding="UTF-8" standalone="no"?>
<!DOCTYPE svg PUBLIC "-//W3C//DTD SVG 1.1//EN"
 "http://www.w3.org/Graphics/SVG/1.1/DTD/svg11.dtd">
<!-- Generated by graphviz version 2.38.0 (20140413.2041)
 -->
<!-- Title: %3 Pages: 1 -->
<svg width="1829pt" height="375pt"
 viewBox="0.00 0.00 1829.00 375.11" xmlns="http://www.w3.org/2000/svg" xmlns:xlink="http://www.w3.org/1999/xlink">
<g id="graph0" class="graph" transform="scale(1 1) rotate(0) translate(4 371.108)">
<title>%3</title>
<polygon fill="white" stroke="none" points="-4,4 -4,-371.108 1825,-371.108 1825,4 -4,4"/>
<!-- 540_12 -->
<g id="node1" class="node"><title>540_12</title>
<ellipse fill="white" stroke="black" cx="1060.5" cy="-16.2635" rx="40.1111" ry="16.0303"/>
<text text-anchor="middle" x="1060.5" y="-12.5635" font-family="Times,serif" font-size="14.00">540_12</text>
</g>
<!-- 540_6x540_99 -->
<g id="node2" class="node"><title>540_6x540_99</title>
<polygon fill="none" stroke="black" points="795.5,-75.5269 792,-72.0269 795.5,-68.5269 799,-72.0269 795.5,-75.5269"/>
</g>
<!-- 540_6x540_99&#45;&gt;540_12 -->
<g id="edge1" class="edge"><title>540_6x540_99&#45;&gt;540_12</title>
<path fill="none" stroke="black" d="M798.079,-70.6839C816.04,-68.2709 924.242,-53.3377 1010.5,-32.5269 1013.72,-31.75 1017.04,-30.8843 1020.36,-29.971"/>
<polygon fill="black" stroke="black" points="1021.61,-33.2548 1030.25,-27.1292 1019.67,-26.527 1021.61,-33.2548"/>
</g>
<!-- 540_16 -->
<g id="node21" class="node"><title>540_16</title>
<ellipse fill="white" stroke="black" cx="1159.5" cy="-16.2635" rx="40.1111" ry="16.0303"/>
<text text-anchor="middle" x="1159.5" y="-12.5635" font-family="Times,serif" font-size="14.00">540_16</text>
</g>
<!-- 540_6x540_99&#45;&gt;540_16 -->
<g id="edge17" class="edge"><title>540_6x540_99&#45;&gt;540_16</title>
<path fill="none" stroke="black" d="M798.042,-70.8852C820.123,-69.6196 981.634,-59.6661 1109.5,-32.5269 1112.89,-31.8079 1116.38,-30.9641 1119.86,-30.0488"/>
<polygon fill="black" stroke="black" points="1120.9,-33.3934 1129.58,-27.3237 1119.01,-26.6533 1120.9,-33.3934"/>
</g>
<!-- 540_10 -->
<g id="node22" class="node"><title>540_10</title>
<polygon fill="white" stroke="black" points="1275,-27.7635 1218,-27.7635 1218,-4.76346 1275,-4.76346 1275,-27.7635"/>
<text text-anchor="middle" x="1246.5" y="-12.5635" font-family="Times,serif" font-size="14.00">540_10</text>
</g>
<!-- 540_6x540_99&#45;&gt;540_10 -->
<g id="edge18" class="edge"><title>540_6x540_99&#45;&gt;540_10</title>
<path fill="none" stroke="black" d="M798.17,-71.0709C824.514,-71.4465 1040.52,-73.1804 1208.5,-32.5269 1210.16,-32.1245 1211.85,-31.6629 1213.54,-31.1568"/>
<polygon fill="black" stroke="black" points="1214.8,-34.4235 1223.13,-27.8735 1212.54,-27.8008 1214.8,-34.4235"/>
</g>
<!-- 540_7 -->
<g id="node27" class="node"><title>540_7</title>
<polygon fill="#66cdaa" stroke="black" points="397.5,-27.7635 347.5,-27.7635 347.5,-4.76346 397.5,-4.76346 397.5,-27.7635"/>
<text text-anchor="middle" x="372.5" y="-12.5635" font-family="Times,serif" font-size="14.00">540_7</text>
</g>
<!-- 540_6x540_99&#45;&gt;540_7 -->
<g id="edge24" class="edge"><title>540_6x540_99&#45;&gt;540_7</title>
<path fill="none" stroke="black" d="M792.655,-71.0924C766.367,-71.6277 563.232,-74.2723 406.5,-32.5269 405.269,-32.1991 404.026,-31.8314 402.781,-31.4319"/>
<polygon fill="black" stroke="black" points="403.925,-28.1228 393.333,-27.8813 401.462,-34.6754 403.925,-28.1228"/>
</g>
<!-- 540_14 -->
<g id="node28" class="node"><title>540_14</title>
<ellipse fill="white" stroke="black" cx="455.5" cy="-16.2635" rx="40.1111" ry="16.0303"/>
<text text-anchor="middle" x="455.5" y="-12.5635" font-family="Times,serif" font-size="14.00">540_14</text>
</g>
<!-- 540_6x540_99&#45;&gt;540_14 -->
<g id="edge25" class="edge"><title>540_6x540_99&#45;&gt;540_14</title>
<path fill="none" stroke="black" d="M793.143,-70.8695C772.674,-69.4713 622.949,-58.6112 504.5,-32.5269 501.324,-31.8275 498.057,-31.0172 494.791,-30.142"/>
<polygon fill="black" stroke="black" points="495.658,-26.7497 485.081,-27.3669 493.734,-33.4802 495.658,-26.7497"/>
</g>
<!-- 540_8 -->
<g id="node30" class="node"><title>540_8</title>
<polygon fill="#66cdaa" stroke="black" points="563.5,-27.7635 513.5,-27.7635 513.5,-4.76346 563.5,-4.76346 563.5,-27.7635"/>
<text text-anchor="middle" x="538.5" y="-12.5635" font-family="Times,serif" font-size="14.00">540_8</text>
</g>
<!-- 540_6x540_99&#45;&gt;540_8 -->
<g id="edge28" class="edge"><title>540_6x540_99&#45;&gt;540_8</title>
<path fill="none" stroke="black" d="M792.79,-70.8178C773.931,-69.3102 660.424,-59.3842 572.5,-32.5269 571.448,-32.2056 570.386,-31.8596 569.319,-31.4937"/>
<polygon fill="black" stroke="black" points="570.359,-28.1427 559.77,-27.7886 567.827,-34.6688 570.359,-28.1427"/>
</g>
<!-- 540_13 -->
<g id="node31" class="node"><title>540_13</title>
<ellipse fill="#66cdaa" stroke="black" cx="621.5" cy="-16.2635" rx="40.1111" ry="16.0303"/>
<text text-anchor="middle" x="621.5" y="-12.5635" font-family="Times,serif" font-size="14.00">540_13</text>
</g>
<!-- 540_6x540_99&#45;&gt;540_13 -->
<g id="edge29" class="edge"><title>540_6x540_99&#45;&gt;540_13</title>
<path fill="none" stroke="black" d="M793.546,-70.4231C780.823,-66.492 708.827,-44.2461 662.091,-29.8056"/>
<polygon fill="black" stroke="black" points="663.12,-26.4602 652.532,-26.852 661.054,-33.1483 663.12,-26.4602"/>
</g>
<!-- 540_15 -->
<g id="node32" class="node"><title>540_15</title>
<polygon fill="white" stroke="black" points="737,-27.7635 680,-27.7635 680,-4.76346 737,-4.76346 737,-27.7635"/>
<text text-anchor="middle" x="708.5" y="-12.5635" font-family="Times,serif" font-size="14.00">540_15</text>
</g>
<!-- 540_6x540_99&#45;&gt;540_15 -->
<g id="edge30" class="edge"><title>540_6x540_99&#45;&gt;540_15</title>
<path fill="none" stroke="black" d="M793.683,-69.904C786.134,-65.2388 756.606,-46.9916 734.417,-33.2795"/>
<polygon fill="black" stroke="black" points="736.087,-30.1971 725.74,-27.9175 732.407,-36.1518 736.087,-30.1971"/>
</g>
<!-- 540_17 -->
<g id="node35" class="node"><title>540_17</title>
<ellipse fill="white" stroke="black" cx="795.5" cy="-16.2635" rx="40.1111" ry="16.0303"/>
<text text-anchor="middle" x="795.5" y="-12.5635" font-family="Times,serif" font-size="14.00">540_17</text>
</g>
<!-- 540_6x540_99&#45;&gt;540_17 -->
<g id="edge34" class="edge"><title>540_6x540_99&#45;&gt;540_17</title>
<path fill="none" stroke="black" d="M795.5,-68.4338C795.5,-63.6514 795.5,-52.9811 795.5,-42.6151"/>
<polygon fill="black" stroke="black" points="799,-42.5799 795.5,-32.58 792,-42.58 799,-42.5799"/>
</g>
<!-- 540_9 -->
<g id="node37" class="node"><title>540_9</title>
<polygon fill="dimgrey" stroke="black" points="903.5,-27.7635 853.5,-27.7635 853.5,-4.76346 903.5,-4.76346 903.5,-27.7635"/>
<text text-anchor="middle" x="878.5" y="-12.5635" font-family="Times,serif" font-size="14.00">540_9</text>
</g>
<!-- 540_6x540_99&#45;&gt;540_9 -->
<g id="edge37" class="edge"><title>540_6x540_99&#45;&gt;540_9</title>
<path fill="none" stroke="black" d="M797.234,-69.904C804.404,-65.2596 832.356,-47.1535 853.492,-33.4626"/>
<polygon fill="black" stroke="black" points="855.562,-36.2917 862.052,-27.9175 851.756,-30.4166 855.562,-36.2917"/>
</g>
<!-- 540_11 -->
<g id="node38" class="node"><title>540_11</title>
<ellipse fill="white" stroke="black" cx="961.5" cy="-16.2635" rx="40.1111" ry="16.0303"/>
<text text-anchor="middle" x="961.5" y="-12.5635" font-family="Times,serif" font-size="14.00">540_11</text>
</g>
<!-- 540_6x540_99&#45;&gt;540_11 -->
<g id="edge38" class="edge"><title>540_6x540_99&#45;&gt;540_11</title>
<path fill="none" stroke="black" d="M797.599,-70.3471C810.23,-66.2563 877.072,-44.6077 921.4,-30.2509"/>
<polygon fill="black" stroke="black" points="922.603,-33.5404 931.038,-27.1294 920.446,-26.8809 922.603,-33.5404"/>
</g>
<!-- 540_31 -->
<g id="node3" class="node"><title>540_31</title>
<polygon fill="#66cdaa" stroke="black" points="409,-250.817 352,-250.817 352,-227.817 409,-227.817 409,-250.817"/>
<text text-anchor="middle" x="380.5" y="-235.617" font-family="Times,serif" font-size="14.00">540_31</text>
</g>
<!-- 540_31x540_30 -->
<g id="node5" class="node"><title>540_31x540_30</title>
<polygon fill="none" stroke="black" points="380.5,-187.054 377,-183.554 380.5,-180.054 384,-183.554 380.5,-187.054"/>
</g>
<!-- 540_31&#45;&gt;540_31x540_30 -->
<g id="edge3" class="edge"><title>540_31&#45;&gt;540_31x540_30</title>
<path fill="none" stroke="black" d="M380.5,-227.695C380.5,-218.943 380.5,-206.507 380.5,-197.234"/>
<polygon fill="black" stroke="black" points="384,-197.192 380.5,-187.192 377,-197.193 384,-197.192"/>
</g>
<!-- 540_34x540_35 -->
<g id="node4" class="node"><title>540_34x540_35</title>
<polygon fill="none" stroke="black" points="413.5,-298.581 410,-295.081 413.5,-291.581 417,-295.081 413.5,-298.581"/>
</g>
<!-- 540_34x540_35&#45;&gt;540_31 -->
<g id="edge2" class="edge"><title>540_34x540_35&#45;&gt;540_31</title>
<path fill="none" stroke="black" d="M412.402,-292.292C409.27,-287.19 400.021,-272.121 392.283,-259.514"/>
<polygon fill="black" stroke="black" points="395.239,-257.639 387.025,-250.947 389.273,-261.301 395.239,-257.639"/>
</g>
<!-- 540_1 -->
<g id="node23" class="node"><title>540_1</title>
<polygon fill="#66cdaa" stroke="black" points="477.5,-250.817 427.5,-250.817 427.5,-227.817 477.5,-227.817 477.5,-250.817"/>
<text text-anchor="middle" x="452.5" y="-235.617" font-family="Times,serif" font-size="14.00">540_1</text>
</g>
<!-- 540_34x540_35&#45;&gt;540_1 -->
<g id="edge19" class="edge"><title>540_34x540_35&#45;&gt;540_1</title>
<path fill="none" stroke="black" d="M414.798,-292.292C418.535,-287.14 429.643,-271.827 438.84,-259.148"/>
<polygon fill="black" stroke="black" points="441.75,-261.097 444.789,-250.947 436.084,-256.987 441.75,-261.097"/>
</g>
<!-- 540_33 -->
<g id="node14" class="node"><title>540_33</title>
<polygon fill="#66cdaa" stroke="black" points="409,-139.29 352,-139.29 352,-116.29 409,-116.29 409,-139.29"/>
<text text-anchor="middle" x="380.5" y="-124.09" font-family="Times,serif" font-size="14.00">540_33</text>
</g>
<!-- 540_31x540_30&#45;&gt;540_33 -->
<g id="edge11" class="edge"><title>540_31x540_30&#45;&gt;540_33</title>
<path fill="none" stroke="black" d="M380.5,-179.961C380.5,-174.493 380.5,-161.327 380.5,-149.721"/>
<polygon fill="black" stroke="black" points="384,-149.372 380.5,-139.372 377,-149.372 384,-149.372"/>
</g>
<!-- 540_32 -->
<g id="node29" class="node"><title>540_32</title>
<ellipse fill="dimgrey" stroke="black" cx="202.5" cy="-127.79" rx="40.1111" ry="16.0303"/>
<text text-anchor="middle" x="202.5" y="-124.09" font-family="Times,serif" font-size="14.00">540_32</text>
</g>
<!-- 540_31x540_30&#45;&gt;540_32 -->
<g id="edge26" class="edge"><title>540_31x540_30&#45;&gt;540_32</title>
<path fill="none" stroke="black" d="M378.37,-181.928C366.072,-178.316 302.918,-159.734 251.5,-144.054 248.743,-143.213 245.901,-142.341 243.039,-141.46"/>
<polygon fill="black" stroke="black" points="243.914,-138.067 233.326,-138.454 241.845,-144.754 243.914,-138.067"/>
</g>
<!-- 540_37 -->
<g id="node6" class="node"><title>540_37</title>
<ellipse fill="dimgrey" stroke="black" cx="289.5" cy="-16.2635" rx="40.1111" ry="16.0303"/>
<text text-anchor="middle" x="289.5" y="-12.5635" font-family="Times,serif" font-size="14.00">540_37</text>
</g>
<!-- 540_36x540_32 -->
<g id="node7" class="node"><title>540_36x540_32</title>
<polygon fill="none" stroke="black" points="202.5,-75.5269 199,-72.0269 202.5,-68.5269 206,-72.0269 202.5,-75.5269"/>
</g>
<!-- 540_36x540_32&#45;&gt;540_37 -->
<g id="edge4" class="edge"><title>540_36x540_32&#45;&gt;540_37</title>
<path fill="none" stroke="black" d="M204.317,-69.904C211.437,-65.5039 238.109,-49.0213 259.735,-35.6574"/>
<polygon fill="black" stroke="black" points="261.655,-38.5854 268.322,-30.351 257.975,-32.6306 261.655,-38.5854"/>
</g>
<!-- 540_40 -->
<g id="node39" class="node"><title>540_40</title>
<polygon fill="#66cdaa" stroke="black" points="57,-27.7635 0,-27.7635 0,-4.76346 57,-4.76346 57,-27.7635"/>
<text text-anchor="middle" x="28.5" y="-12.5635" font-family="Times,serif" font-size="14.00">540_40</text>
</g>
<!-- 540_36x540_32&#45;&gt;540_40 -->
<g id="edge39" class="edge"><title>540_36x540_32&#45;&gt;540_40</title>
<path fill="none" stroke="black" d="M200.229,-70.4803C187.128,-67.3068 119.914,-50.7574 66.5,-32.5269 65.4571,-32.171 64.4012,-31.8022 63.3376,-31.4234"/>
<polygon fill="black" stroke="black" points="64.2984,-28.046 53.7059,-27.8218 61.8466,-34.6026 64.2984,-28.046"/>
</g>
<!-- 540_39 -->
<g id="node45" class="node"><title>540_39</title>
<ellipse fill="#66cdaa" stroke="black" cx="115.5" cy="-16.2635" rx="40.1111" ry="16.0303"/>
<text text-anchor="middle" x="115.5" y="-12.5635" font-family="Times,serif" font-size="14.00">540_39</text>
</g>
<!-- 540_36x540_32&#45;&gt;540_39 -->
<g id="edge45" class="edge"><title>540_36x540_32&#45;&gt;540_39</title>
<path fill="none" stroke="black" d="M200.683,-69.904C193.563,-65.5039 166.891,-49.0213 145.265,-35.6574"/>
<polygon fill="black" stroke="black" points="147.025,-32.6306 136.678,-30.351 143.345,-38.5854 147.025,-32.6306"/>
</g>
<!-- 540_38 -->
<g id="node46" class="node"><title>540_38</title>
<polygon fill="#66cdaa" stroke="black" points="231,-27.7635 174,-27.7635 174,-4.76346 231,-4.76346 231,-27.7635"/>
<text text-anchor="middle" x="202.5" y="-12.5635" font-family="Times,serif" font-size="14.00">540_38</text>
</g>
<!-- 540_36x540_32&#45;&gt;540_38 -->
<g id="edge46" class="edge"><title>540_36x540_32&#45;&gt;540_38</title>
<path fill="none" stroke="black" d="M202.5,-68.4338C202.5,-62.9657 202.5,-49.8005 202.5,-38.1938"/>
<polygon fill="black" stroke="black" points="206,-37.8452 202.5,-27.8453 199,-37.8453 206,-37.8452"/>
</g>
<!-- 540_30 -->
<g id="node8" class="node"><title>540_30</title>
<ellipse fill="#66cdaa" stroke="black" cx="535.5" cy="-239.317" rx="40.1111" ry="16.0303"/>
<text text-anchor="middle" x="535.5" y="-235.617" font-family="Times,serif" font-size="14.00">540_30</text>
</g>
<!-- 540_30&#45;&gt;540_31x540_30 -->
<g id="edge6" class="edge"><title>540_30&#45;&gt;540_31x540_30</title>
<path fill="none" stroke="black" d="M505.981,-228.078C471.434,-216.095 415.916,-196.838 392.033,-188.554"/>
<polygon fill="black" stroke="black" points="393.122,-185.227 382.527,-185.257 390.828,-191.841 393.122,-185.227"/>
</g>
<!-- 540_25x540_26 -->
<g id="node9" class="node"><title>540_25x540_26</title>
<polygon fill="none" stroke="black" points="697.5,-298.581 694,-295.081 697.5,-291.581 701,-295.081 697.5,-298.581"/>
</g>
<!-- 540_25x540_26&#45;&gt;540_30 -->
<g id="edge5" class="edge"><title>540_25x540_26&#45;&gt;540_30</title>
<path fill="none" stroke="black" d="M695.452,-293.401C683.185,-289.33 618.526,-267.871 575.266,-253.514"/>
<polygon fill="black" stroke="black" points="576.174,-250.128 565.581,-250.3 573.969,-256.772 576.174,-250.128"/>
</g>
<!-- 540_29 -->
<g id="node10" class="node"><title>540_29</title>
<ellipse fill="#66cdaa" stroke="black" cx="873.5" cy="-239.317" rx="40.1111" ry="16.0303"/>
<text text-anchor="middle" x="873.5" y="-235.617" font-family="Times,serif" font-size="14.00">540_29</text>
</g>
<!-- 540_25x540_26&#45;&gt;540_29 -->
<g id="edge7" class="edge"><title>540_25x540_26&#45;&gt;540_29</title>
<path fill="none" stroke="black" d="M699.477,-293.477C712.381,-289.535 785.569,-267.178 832.83,-252.741"/>
<polygon fill="black" stroke="black" points="833.949,-256.059 842.49,-249.79 831.904,-249.364 833.949,-256.059"/>
</g>
<!-- 540_27 -->
<g id="node12" class="node"><title>540_27</title>
<polygon fill="#66cdaa" stroke="black" points="651,-250.817 594,-250.817 594,-227.817 651,-227.817 651,-250.817"/>
<text text-anchor="middle" x="622.5" y="-235.617" font-family="Times,serif" font-size="14.00">540_27</text>
</g>
<!-- 540_25x540_26&#45;&gt;540_27 -->
<g id="edge9" class="edge"><title>540_25x540_26&#45;&gt;540_27</title>
<path fill="none" stroke="black" d="M695.934,-292.958C689.512,-288.355 664.646,-270.53 645.611,-256.884"/>
<polygon fill="black" stroke="black" points="647.529,-253.953 637.362,-250.971 643.451,-259.642 647.529,-253.953"/>
</g>
<!-- 540_28 -->
<g id="node18" class="node"><title>540_28</title>
<polygon fill="#66cdaa" stroke="black" points="726,-250.817 669,-250.817 669,-227.817 726,-227.817 726,-250.817"/>
<text text-anchor="middle" x="697.5" y="-235.617" font-family="Times,serif" font-size="14.00">540_28</text>
</g>
<!-- 540_25x540_26&#45;&gt;540_28 -->
<g id="edge14" class="edge"><title>540_25x540_26&#45;&gt;540_28</title>
<path fill="none" stroke="black" d="M697.5,-291.488C697.5,-286.02 697.5,-272.854 697.5,-261.248"/>
<polygon fill="black" stroke="black" points="701,-260.899 697.5,-250.899 694,-260.899 701,-260.899"/>
</g>
<!-- 540_2 -->
<g id="node33" class="node"><title>540_2</title>
<ellipse fill="#66cdaa" stroke="black" cx="779.5" cy="-239.317" rx="35.2113" ry="16.0303"/>
<text text-anchor="middle" x="779.5" y="-235.617" font-family="Times,serif" font-size="14.00">540_2</text>
</g>
<!-- 540_25x540_26&#45;&gt;540_2 -->
<g id="edge31" class="edge"><title>540_25x540_26&#45;&gt;540_2</title>
<path fill="none" stroke="black" d="M699.213,-292.958C705.934,-288.551 731.141,-272.024 751.54,-258.649"/>
<polygon fill="black" stroke="black" points="753.477,-261.564 759.921,-253.154 749.639,-255.711 753.477,-261.564"/>
</g>
<!-- 540_26 -->
<g id="node11" class="node"><title>540_26</title>
<ellipse fill="#66cdaa" stroke="black" cx="624.5" cy="-350.844" rx="40.1111" ry="16.0303"/>
<text text-anchor="middle" x="624.5" y="-347.144" font-family="Times,serif" font-size="14.00">540_26</text>
</g>
<!-- 540_26&#45;&gt;540_25x540_26 -->
<g id="edge8" class="edge"><title>540_26&#45;&gt;540_25x540_26</title>
<path fill="none" stroke="black" d="M642.921,-336.277C657.261,-325.716 676.581,-311.487 687.972,-303.098"/>
<polygon fill="black" stroke="black" points="690.065,-305.903 696.042,-297.155 685.914,-300.267 690.065,-305.903"/>
</g>
<!-- 540_25 -->
<g id="node13" class="node"><title>540_25</title>
<polygon fill="#66cdaa" stroke="black" points="740,-362.344 683,-362.344 683,-339.344 740,-339.344 740,-362.344"/>
<text text-anchor="middle" x="711.5" y="-347.144" font-family="Times,serif" font-size="14.00">540_25</text>
</g>
<!-- 540_25&#45;&gt;540_25x540_26 -->
<g id="edge10" class="edge"><title>540_25&#45;&gt;540_25x540_26</title>
<path fill="none" stroke="black" d="M708.734,-339.222C706.411,-330.302 703.092,-317.555 700.664,-308.23"/>
<polygon fill="black" stroke="black" points="703.989,-307.111 698.082,-298.316 697.215,-308.875 703.989,-307.111"/>
</g>
<!-- 540_23 -->
<g id="node15" class="node"><title>540_23</title>
<polygon fill="#66cdaa" stroke="black" points="1821,-27.7635 1764,-27.7635 1764,-4.76346 1821,-4.76346 1821,-27.7635"/>
<text text-anchor="middle" x="1792.5" y="-12.5635" font-family="Times,serif" font-size="14.00">540_23</text>
</g>
<!-- 540_18x540_5 -->
<g id="node16" class="node"><title>540_18x540_5</title>
<polygon fill="none" stroke="black" points="1507.5,-75.5269 1504,-72.0269 1507.5,-68.5269 1511,-72.0269 1507.5,-75.5269"/>
</g>
<!-- 540_18x540_5&#45;&gt;540_23 -->
<g id="edge12" class="edge"><title>540_18x540_5&#45;&gt;540_23</title>
<path fill="none" stroke="black" d="M1509.98,-70.8558C1529.16,-69.4885 1655.74,-59.6772 1754.5,-32.5269 1755.96,-32.1264 1757.43,-31.6873 1758.92,-31.2186"/>
<polygon fill="black" stroke="black" points="1760.39,-34.412 1768.66,-27.7948 1758.07,-27.8078 1760.39,-34.412"/>
</g>
<!-- 540_22 -->
<g id="node17" class="node"><title>540_22</title>
<polygon fill="#66cdaa" stroke="black" points="1350,-27.7635 1293,-27.7635 1293,-4.76346 1350,-4.76346 1350,-27.7635"/>
<text text-anchor="middle" x="1321.5" y="-12.5635" font-family="Times,serif" font-size="14.00">540_22</text>
</g>
<!-- 540_18x540_5&#45;&gt;540_22 -->
<g id="edge13" class="edge"><title>540_18x540_5&#45;&gt;540_22</title>
<path fill="none" stroke="black" d="M1505.38,-70.5834C1492.02,-67.76 1418,-51.7985 1359.5,-32.5269 1358.45,-32.1821 1357.39,-31.8231 1356.33,-31.4529"/>
<polygon fill="black" stroke="black" points="1357.27,-28.0715 1346.68,-27.8987 1354.85,-34.6399 1357.27,-28.0715"/>
</g>
<!-- 540_24 -->
<g id="node34" class="node"><title>540_24</title>
<ellipse fill="white" stroke="black" cx="1408.5" cy="-16.2635" rx="40.1111" ry="16.0303"/>
<text text-anchor="middle" x="1408.5" y="-12.5635" font-family="Times,serif" font-size="14.00">540_24</text>
</g>
<!-- 540_18x540_5&#45;&gt;540_24 -->
<g id="edge33" class="edge"><title>540_18x540_5&#45;&gt;540_24</title>
<path fill="none" stroke="black" d="M1505.78,-70.0937C1498.05,-65.8962 1465.78,-48.3718 1440.5,-34.6427"/>
<polygon fill="black" stroke="black" points="1442.02,-31.4847 1431.56,-29.788 1438.68,-37.6361 1442.02,-31.4847"/>
</g>
<!-- 540_19 -->
<g id="node41" class="node"><title>540_19</title>
<ellipse fill="dimgrey" stroke="black" cx="1507.5" cy="-16.2635" rx="40.1111" ry="16.0303"/>
<text text-anchor="middle" x="1507.5" y="-12.5635" font-family="Times,serif" font-size="14.00">540_19</text>
</g>
<!-- 540_18x540_5&#45;&gt;540_19 -->
<g id="edge41" class="edge"><title>540_18x540_5&#45;&gt;540_19</title>
<path fill="none" stroke="black" d="M1507.5,-68.4338C1507.5,-63.6514 1507.5,-52.9811 1507.5,-42.6151"/>
<polygon fill="black" stroke="black" points="1511,-42.5799 1507.5,-32.58 1504,-42.58 1511,-42.5799"/>
</g>
<!-- 540_20 -->
<g id="node42" class="node"><title>540_20</title>
<ellipse fill="white" stroke="black" cx="1606.5" cy="-16.2635" rx="40.1111" ry="16.0303"/>
<text text-anchor="middle" x="1606.5" y="-12.5635" font-family="Times,serif" font-size="14.00">540_20</text>
</g>
<!-- 540_18x540_5&#45;&gt;540_20 -->
<g id="edge42" class="edge"><title>540_18x540_5&#45;&gt;540_20</title>
<path fill="none" stroke="black" d="M1509.22,-70.0937C1516.95,-65.8962 1549.22,-48.3718 1574.5,-34.6427"/>
<polygon fill="black" stroke="black" points="1576.32,-37.6361 1583.44,-29.788 1572.98,-31.4847 1576.32,-37.6361"/>
</g>
<!-- 540_21 -->
<g id="node44" class="node"><title>540_21</title>
<ellipse fill="white" stroke="black" cx="1705.5" cy="-16.2635" rx="40.1111" ry="16.0303"/>
<text text-anchor="middle" x="1705.5" y="-12.5635" font-family="Times,serif" font-size="14.00">540_21</text>
</g>
<!-- 540_18x540_5&#45;&gt;540_21 -->
<g id="edge44" class="edge"><title>540_18x540_5&#45;&gt;540_21</title>
<path fill="none" stroke="black" d="M1509.6,-70.5168C1522.84,-67.287 1596.23,-49.2759 1655.5,-32.5269 1658.6,-31.6508 1661.8,-30.7241 1665.02,-29.7778"/>
<polygon fill="black" stroke="black" points="1666.04,-33.1258 1674.62,-26.9107 1664.04,-26.4184 1666.04,-33.1258"/>
</g>
<!-- 540_5 -->
<g id="node19" class="node"><title>540_5</title>
<ellipse fill="dimgrey" stroke="black" cx="940.5" cy="-127.79" rx="35.2113" ry="16.0303"/>
<text text-anchor="middle" x="940.5" y="-124.09" font-family="Times,serif" font-size="14.00">540_5</text>
</g>
<!-- 540_5&#45;&gt;540_18x540_5 -->
<g id="edge16" class="edge"><title>540_5&#45;&gt;540_18x540_5</title>
<path fill="none" stroke="black" d="M966.243,-116.608C972.159,-114.62 978.482,-112.77 984.5,-111.527 1184.68,-70.1781 1436,-71.7436 1494.79,-72.7543"/>
<polygon fill="black" stroke="black" points="1494.85,-76.256 1504.91,-72.9599 1494.99,-69.2574 1494.85,-76.256"/>
</g>
<!-- 540_1x540_2 -->
<g id="node20" class="node"><title>540_1x540_2</title>
<polygon fill="none" stroke="black" points="779.5,-187.054 776,-183.554 779.5,-180.054 783,-183.554 779.5,-187.054"/>
</g>
<!-- 540_1x540_2&#45;&gt;540_5 -->
<g id="edge15" class="edge"><title>540_1x540_2&#45;&gt;540_5</title>
<path fill="none" stroke="black" d="M781.434,-181.93C792.594,-178.329 849.906,-159.801 896.5,-144.054 898.762,-143.289 901.088,-142.498 903.432,-141.697"/>
<polygon fill="black" stroke="black" points="904.744,-144.947 913.062,-138.385 902.467,-138.327 904.744,-144.947"/>
</g>
<!-- 540_3 -->
<g id="node24" class="node"><title>540_3</title>
<polygon fill="#66cdaa" stroke="black" points="721.5,-139.29 671.5,-139.29 671.5,-116.29 721.5,-116.29 721.5,-139.29"/>
<text text-anchor="middle" x="696.5" y="-124.09" font-family="Times,serif" font-size="14.00">540_3</text>
</g>
<!-- 540_1x540_2&#45;&gt;540_3 -->
<g id="edge21" class="edge"><title>540_1x540_2&#45;&gt;540_3</title>
<path fill="none" stroke="black" d="M777.766,-181.431C770.596,-176.786 742.644,-158.68 721.508,-144.99"/>
<polygon fill="black" stroke="black" points="723.244,-141.944 712.948,-139.444 719.438,-147.819 723.244,-141.944"/>
</g>
<!-- 540_4 -->
<g id="node25" class="node"><title>540_4</title>
<polygon fill="#66cdaa" stroke="black" points="1043.5,-139.29 993.5,-139.29 993.5,-116.29 1043.5,-116.29 1043.5,-139.29"/>
<text text-anchor="middle" x="1018.5" y="-124.09" font-family="Times,serif" font-size="14.00">540_4</text>
</g>
<!-- 540_1x540_2&#45;&gt;540_4 -->
<g id="edge22" class="edge"><title>540_1x540_2&#45;&gt;540_4</title>
<path fill="none" stroke="black" d="M781.99,-182.311C799.323,-180.578 903.643,-169.403 984.5,-144.054 985.391,-143.774 986.29,-143.478 987.193,-143.167"/>
<polygon fill="black" stroke="black" points="988.791,-146.302 996.848,-139.422 986.259,-139.775 988.791,-146.302"/>
</g>
<!-- 540_99 -->
<g id="node36" class="node"><title>540_99</title>
<ellipse fill="dimgrey" stroke="black" cx="779.5" cy="-127.79" rx="40.1111" ry="16.0303"/>
<text text-anchor="middle" x="779.5" y="-124.09" font-family="Times,serif" font-size="14.00">540_99</text>
</g>
<!-- 540_1x540_2&#45;&gt;540_99 -->
<g id="edge35" class="edge"><title>540_1x540_2&#45;&gt;540_99</title>
<path fill="none" stroke="black" d="M779.5,-179.961C779.5,-175.178 779.5,-164.508 779.5,-154.142"/>
<polygon fill="black" stroke="black" points="783,-154.107 779.5,-144.107 776,-154.107 783,-154.107"/>
</g>
<!-- 540_1&#45;&gt;540_1x540_2 -->
<g id="edge20" class="edge"><title>540_1&#45;&gt;540_1x540_2</title>
<path fill="none" stroke="black" d="M473.363,-227.81C477.626,-225.99 482.143,-224.289 486.5,-223.054 591.829,-193.187 725.146,-186.361 766.606,-184.916"/>
<polygon fill="black" stroke="black" points="766.94,-188.408 776.831,-184.61 766.731,-181.411 766.94,-188.408"/>
</g>
<!-- 540_6 -->
<g id="node26" class="node"><title>540_6</title>
<polygon fill="#66cdaa" stroke="black" points="887.5,-139.29 837.5,-139.29 837.5,-116.29 887.5,-116.29 887.5,-139.29"/>
<text text-anchor="middle" x="862.5" y="-124.09" font-family="Times,serif" font-size="14.00">540_6</text>
</g>
<!-- 540_6&#45;&gt;540_6x540_99 -->
<g id="edge23" class="edge"><title>540_6&#45;&gt;540_6x540_99</title>
<path fill="none" stroke="black" d="M849.263,-116.168C836.182,-105.672 816.499,-89.8774 804.93,-80.5941"/>
<polygon fill="black" stroke="black" points="806.999,-77.7668 797.009,-74.238 802.618,-83.2264 806.999,-77.7668"/>
</g>
<!-- 540_32&#45;&gt;540_36x540_32 -->
<g id="edge27" class="edge"><title>540_32&#45;&gt;540_36x540_32</title>
<path fill="none" stroke="black" d="M202.5,-111.24C202.5,-103.134 202.5,-93.3455 202.5,-85.7049"/>
<polygon fill="black" stroke="black" points="206,-85.5501 202.5,-75.5502 199,-85.5502 206,-85.5501"/>
</g>
<!-- 540_2&#45;&gt;540_1x540_2 -->
<g id="edge32" class="edge"><title>540_2&#45;&gt;540_1x540_2</title>
<path fill="none" stroke="black" d="M779.5,-222.767C779.5,-214.661 779.5,-204.872 779.5,-197.232"/>
<polygon fill="black" stroke="black" points="783,-197.077 779.5,-187.077 776,-197.077 783,-197.077"/>
</g>
<!-- 540_99&#45;&gt;540_6x540_99 -->
<g id="edge36" class="edge"><title>540_99&#45;&gt;540_6x540_99</title>
<path fill="none" stroke="black" d="M784.042,-111.528C786.564,-103.053 789.654,-92.6694 791.99,-84.8224"/>
<polygon fill="black" stroke="black" points="795.35,-85.8008 794.848,-75.2179 788.641,-83.8041 795.35,-85.8008"/>
</g>
<!-- 540_36 -->
<g id="node40" class="node"><title>540_36</title>
<polygon fill="#66cdaa" stroke="black" points="318,-139.29 261,-139.29 261,-116.29 318,-116.29 318,-139.29"/>
<text text-anchor="middle" x="289.5" y="-124.09" font-family="Times,serif" font-size="14.00">540_36</text>
</g>
<!-- 540_36&#45;&gt;540_36x540_32 -->
<g id="edge40" class="edge"><title>540_36&#45;&gt;540_36x540_32</title>
<path fill="none" stroke="black" d="M272.312,-116.168C254.806,-105.351 228.195,-88.9054 213.396,-79.7602"/>
<polygon fill="black" stroke="black" points="214.806,-76.5176 204.46,-74.238 211.127,-82.4723 214.806,-76.5176"/>
</g>
<!-- 540_34 -->
<g id="node43" class="node"><title>540_34</title>
<polygon fill="#66cdaa" stroke="black" points="435,-362.344 378,-362.344 378,-339.344 435,-339.344 435,-362.344"/>
<text text-anchor="middle" x="406.5" y="-347.144" font-family="Times,serif" font-size="14.00">540_34</text>
</g>
<!-- 540_34&#45;&gt;540_34x540_35 -->
<g id="edge43" class="edge"><title>540_34&#45;&gt;540_34x540_35</title>
<path fill="none" stroke="black" d="M407.883,-339.222C409.031,-330.403 410.666,-317.844 411.877,-308.549"/>
<polygon fill="black" stroke="black" points="415.388,-308.684 413.209,-298.316 408.447,-307.78 415.388,-308.684"/>
</g>
<!-- 540_35 -->
<g id="node47" class="node"><title>540_35</title>
<ellipse fill="#66cdaa" stroke="black" cx="493.5" cy="-350.844" rx="40.1111" ry="16.0303"/>
<text text-anchor="middle" x="493.5" y="-347.144" font-family="Times,serif" font-size="14.00">540_35</text>
</g>
<!-- 540_35&#45;&gt;540_34x540_35 -->
<g id="edge47" class="edge"><title>540_35&#45;&gt;540_34x540_35</title>
<path fill="none" stroke="black" d="M473.725,-336.554C457.854,-325.889 436.219,-311.349 423.666,-302.913"/>
<polygon fill="black" stroke="black" points="425.368,-299.84 415.116,-297.167 421.464,-305.65 425.368,-299.84"/>
</g>
<!-- 540_18 -->
<g id="node48" class="node"><title>540_18</title>
<polygon fill="#66cdaa" stroke="black" points="1536,-139.29 1479,-139.29 1479,-116.29 1536,-116.29 1536,-139.29"/>
<text text-anchor="middle" x="1507.5" y="-124.09" font-family="Times,serif" font-size="14.00">540_18</text>
</g>
<!-- 540_18&#45;&gt;540_18x540_5 -->
<g id="edge48" class="edge"><title>540_18&#45;&gt;540_18x540_5</title>
<path fill="none" stroke="black" d="M1507.5,-116.168C1507.5,-107.416 1507.5,-94.9805 1507.5,-85.7075"/>
<polygon fill="black" stroke="black" points="1511,-85.6655 1507.5,-75.6656 1504,-85.6656 1511,-85.6655"/>
</g>
</g>
</svg>
