<?xml version="1.0" encoding="UTF-8" standalone="no"?>
<!DOCTYPE svg PUBLIC "-//W3C//DTD SVG 1.1//EN"
 "http://www.w3.org/Graphics/SVG/1.1/DTD/svg11.dtd">
<!-- Generated by graphviz version 2.38.0 (20140413.2041)
 -->
<!-- Title: %3 Pages: 1 -->
<svg width="1052pt" height="264pt"
 viewBox="0.00 0.00 1052.00 263.58" xmlns="http://www.w3.org/2000/svg" xmlns:xlink="http://www.w3.org/1999/xlink">
<g id="graph0" class="graph" transform="scale(1 1) rotate(0) translate(4 259.581)">
<title>%3</title>
<polygon fill="white" stroke="none" points="-4,4 -4,-259.581 1048,-259.581 1048,4 -4,4"/>
<!-- 26_ERC_ERC38801 -->
<g id="node1" class="node"><title>26_ERC_ERC38801</title>
<ellipse fill="dimgrey" stroke="black" cx="246" cy="-127.79" rx="91.8478" ry="16.0303"/>
<text text-anchor="middle" x="246" y="-124.09" font-family="Times,serif" font-size="14.00">26_ERC_ERC38801</text>
</g>
<!-- 26_ERC_ERC38801cx26_ERC_ERC38801 -->
<g id="node3" class="node"><title>26_ERC_ERC38801cx26_ERC_ERC38801</title>
<polygon fill="none" stroke="black" points="157,-75.5269 153.5,-72.0269 157,-68.5269 160.5,-72.0269 157,-75.5269"/>
</g>
<!-- 26_ERC_ERC38801&#45;&gt;26_ERC_ERC38801cx26_ERC_ERC38801 -->
<g id="edge2" class="edge"><title>26_ERC_ERC38801&#45;&gt;26_ERC_ERC38801cx26_ERC_ERC38801</title>
<path fill="none" stroke="black" d="M221.68,-112.099C203.847,-101.326 180.528,-87.2396 167.315,-79.2583"/>
<polygon fill="black" stroke="black" points="169.068,-76.2278 158.698,-74.0529 165.448,-82.2194 169.068,-76.2278"/>
</g>
<!-- 26_ERC_ERC38803x26_ERC_ERC38804 -->
<g id="node2" class="node"><title>26_ERC_ERC38803x26_ERC_ERC38804</title>
<polygon fill="none" stroke="black" points="703,-187.054 699.5,-183.554 703,-180.054 706.5,-183.554 703,-187.054"/>
</g>
<!-- 26_ERC_ERC38803x26_ERC_ERC38804&#45;&gt;26_ERC_ERC38801 -->
<g id="edge1" class="edge"><title>26_ERC_ERC38803x26_ERC_ERC38804&#45;&gt;26_ERC_ERC38801</title>
<path fill="none" stroke="black" d="M700.448,-182.32C676.858,-180.146 494.345,-163.146 347,-144.054 338.847,-142.997 330.334,-141.823 321.86,-140.608"/>
<polygon fill="black" stroke="black" points="322.353,-137.143 311.954,-139.168 321.346,-144.07 322.353,-137.143"/>
</g>
<!-- 26_ERC_ERC38807 -->
<g id="node5" class="node"><title>26_ERC_ERC38807</title>
<ellipse fill="white" stroke="black" cx="602" cy="-127.79" rx="91.8478" ry="16.0303"/>
<text text-anchor="middle" x="602" y="-124.09" font-family="Times,serif" font-size="14.00">26_ERC_ERC38807</text>
</g>
<!-- 26_ERC_ERC38803x26_ERC_ERC38804&#45;&gt;26_ERC_ERC38807 -->
<g id="edge4" class="edge"><title>26_ERC_ERC38803x26_ERC_ERC38804&#45;&gt;26_ERC_ERC38807</title>
<path fill="none" stroke="black" d="M701.247,-181.621C693.735,-177.622 663.501,-161.528 638.356,-148.143"/>
<polygon fill="black" stroke="black" points="639.846,-144.971 629.374,-143.362 636.556,-151.15 639.846,-144.971"/>
</g>
<!-- 26_ERC_ERC38802 -->
<g id="node6" class="node"><title>26_ERC_ERC38802</title>
<ellipse fill="dimgrey" stroke="black" cx="804" cy="-127.79" rx="91.8478" ry="16.0303"/>
<text text-anchor="middle" x="804" y="-124.09" font-family="Times,serif" font-size="14.00">26_ERC_ERC38802</text>
</g>
<!-- 26_ERC_ERC38803x26_ERC_ERC38804&#45;&gt;26_ERC_ERC38802 -->
<g id="edge5" class="edge"><title>26_ERC_ERC38803x26_ERC_ERC38804&#45;&gt;26_ERC_ERC38802</title>
<path fill="none" stroke="black" d="M704.753,-181.621C712.265,-177.622 742.499,-161.528 767.644,-148.143"/>
<polygon fill="black" stroke="black" points="769.444,-151.15 776.626,-143.362 766.154,-144.971 769.444,-151.15"/>
</g>
<!-- 26_ERC_ERC38805 -->
<g id="node13" class="node"><title>26_ERC_ERC38805</title>
<polygon fill="dimgrey" stroke="black" points="1044,-139.29 914,-139.29 914,-116.29 1044,-116.29 1044,-139.29"/>
<text text-anchor="middle" x="979" y="-124.09" font-family="Times,serif" font-size="14.00">26_ERC_ERC38805</text>
</g>
<!-- 26_ERC_ERC38803x26_ERC_ERC38804&#45;&gt;26_ERC_ERC38805 -->
<g id="edge12" class="edge"><title>26_ERC_ERC38803x26_ERC_ERC38804&#45;&gt;26_ERC_ERC38805</title>
<path fill="none" stroke="black" d="M705.404,-182.11C722.143,-179.015 823.058,-160.313 905,-144.054 909.389,-143.183 913.922,-142.273 918.483,-141.35"/>
<polygon fill="black" stroke="black" points="919.365,-144.743 928.466,-139.319 917.969,-137.883 919.365,-144.743"/>
</g>
<!-- 26_ERC_ERC38808 -->
<g id="node4" class="node"><title>26_ERC_ERC38808</title>
<ellipse fill="#66cdaa" stroke="black" cx="157" cy="-16.2635" rx="91.8478" ry="16.0303"/>
<text text-anchor="middle" x="157" y="-12.5635" font-family="Times,serif" font-size="14.00">26_ERC_ERC38808</text>
</g>
<!-- 26_ERC_ERC38801cx26_ERC_ERC38801&#45;&gt;26_ERC_ERC38808 -->
<g id="edge3" class="edge"><title>26_ERC_ERC38801cx26_ERC_ERC38801&#45;&gt;26_ERC_ERC38808</title>
<path fill="none" stroke="black" d="M157,-68.4338C157,-63.6514 157,-52.9811 157,-42.6151"/>
<polygon fill="black" stroke="black" points="160.5,-42.5799 157,-32.58 153.5,-42.58 160.5,-42.5799"/>
</g>
<!-- 26_ERC_ERC38802cx26_ERC_ERC38802 -->
<g id="node7" class="node"><title>26_ERC_ERC38802cx26_ERC_ERC38802</title>
<polygon fill="none" stroke="black" points="614,-75.5269 610.5,-72.0269 614,-68.5269 617.5,-72.0269 614,-75.5269"/>
</g>
<!-- 26_ERC_ERC38802&#45;&gt;26_ERC_ERC38802cx26_ERC_ERC38802 -->
<g id="edge6" class="edge"><title>26_ERC_ERC38802&#45;&gt;26_ERC_ERC38802cx26_ERC_ERC38802</title>
<path fill="none" stroke="black" d="M757.521,-113.638C713.913,-101.299 651.659,-83.683 625.88,-76.3886"/>
<polygon fill="black" stroke="black" points="626.779,-73.0055 616.204,-73.6505 624.873,-79.7411 626.779,-73.0055"/>
</g>
<!-- 26_ERC_ERC38809 -->
<g id="node8" class="node"><title>26_ERC_ERC38809</title>
<polygon fill="#66cdaa" stroke="black" points="679,-27.7635 549,-27.7635 549,-4.76346 679,-4.76346 679,-27.7635"/>
<text text-anchor="middle" x="614" y="-12.5635" font-family="Times,serif" font-size="14.00">26_ERC_ERC38809</text>
</g>
<!-- 26_ERC_ERC38802cx26_ERC_ERC38802&#45;&gt;26_ERC_ERC38809 -->
<g id="edge7" class="edge"><title>26_ERC_ERC38802cx26_ERC_ERC38802&#45;&gt;26_ERC_ERC38809</title>
<path fill="none" stroke="black" d="M614,-68.4338C614,-62.9657 614,-49.8005 614,-38.1938"/>
<polygon fill="black" stroke="black" points="617.5,-37.8452 614,-27.8453 610.5,-37.8453 617.5,-37.8452"/>
</g>
<!-- 26_ERC_ERC38803 -->
<g id="node9" class="node"><title>26_ERC_ERC38803</title>
<polygon fill="white" stroke="black" points="681,-250.817 551,-250.817 551,-227.817 681,-227.817 681,-250.817"/>
<text text-anchor="middle" x="616" y="-235.617" font-family="Times,serif" font-size="14.00">26_ERC_ERC38803</text>
</g>
<!-- 26_ERC_ERC38803&#45;&gt;26_ERC_ERC38803x26_ERC_ERC38804 -->
<g id="edge8" class="edge"><title>26_ERC_ERC38803&#45;&gt;26_ERC_ERC38803x26_ERC_ERC38804</title>
<path fill="none" stroke="black" d="M633.188,-227.695C650.694,-216.877 677.305,-200.432 692.104,-191.287"/>
<polygon fill="black" stroke="black" points="694.373,-193.999 701.04,-185.765 690.694,-188.045 694.373,-193.999"/>
</g>
<!-- 26_ERC_ERC38804 -->
<g id="node10" class="node"><title>26_ERC_ERC38804</title>
<ellipse fill="white" stroke="black" cx="791" cy="-239.317" rx="91.8478" ry="16.0303"/>
<text text-anchor="middle" x="791" y="-235.617" font-family="Times,serif" font-size="14.00">26_ERC_ERC38804</text>
</g>
<!-- 26_ERC_ERC38804&#45;&gt;26_ERC_ERC38803x26_ERC_ERC38804 -->
<g id="edge9" class="edge"><title>26_ERC_ERC38804&#45;&gt;26_ERC_ERC38803x26_ERC_ERC38804</title>
<path fill="none" stroke="black" d="M766.487,-223.341C749.043,-212.684 726.479,-198.898 713.483,-190.958"/>
<polygon fill="black" stroke="black" points="715.018,-187.795 704.66,-185.568 711.369,-193.768 715.018,-187.795"/>
</g>
<!-- 26_ERC_ERC38801c -->
<g id="node11" class="node"><title>26_ERC_ERC38801c</title>
<polygon fill="#66cdaa" stroke="black" points="136,-139.29 0,-139.29 0,-116.29 136,-116.29 136,-139.29"/>
<text text-anchor="middle" x="68" y="-124.09" font-family="Times,serif" font-size="14.00">26_ERC_ERC38801c</text>
</g>
<!-- 26_ERC_ERC38801c&#45;&gt;26_ERC_ERC38801cx26_ERC_ERC38801 -->
<g id="edge10" class="edge"><title>26_ERC_ERC38801c&#45;&gt;26_ERC_ERC38801cx26_ERC_ERC38801</title>
<path fill="none" stroke="black" d="M85.5835,-116.168C103.669,-105.243 131.255,-88.5792 146.3,-79.4907"/>
<polygon fill="black" stroke="black" points="148.245,-82.4045 154.995,-74.238 144.626,-76.4129 148.245,-82.4045"/>
</g>
<!-- 26_ERC_ERC38802c -->
<g id="node12" class="node"><title>26_ERC_ERC38802c</title>
<polygon fill="#66cdaa" stroke="black" points="492,-139.29 356,-139.29 356,-116.29 492,-116.29 492,-139.29"/>
<text text-anchor="middle" x="424" y="-124.09" font-family="Times,serif" font-size="14.00">26_ERC_ERC38802c</text>
</g>
<!-- 26_ERC_ERC38802c&#45;&gt;26_ERC_ERC38802cx26_ERC_ERC38802 -->
<g id="edge11" class="edge"><title>26_ERC_ERC38802c&#45;&gt;26_ERC_ERC38802cx26_ERC_ERC38802</title>
<path fill="none" stroke="black" d="M461.538,-116.168C505.034,-103.861 574.272,-84.2687 601.971,-76.4307"/>
<polygon fill="black" stroke="black" points="603.268,-79.7013 611.937,-73.6107 601.362,-72.9657 603.268,-79.7013"/>
</g>
</g>
</svg>
