<?xml version="1.0" encoding="UTF-8" standalone="no"?>
<!DOCTYPE svg PUBLIC "-//W3C//DTD SVG 1.1//EN"
 "http://www.w3.org/Graphics/SVG/1.1/DTD/svg11.dtd">
<!-- Generated by graphviz version 2.38.0 (20140413.2041)
 -->
<!-- Title: %3 Pages: 1 -->
<svg width="2839pt" height="264pt"
 viewBox="0.00 0.00 2839.33 263.58" xmlns="http://www.w3.org/2000/svg" xmlns:xlink="http://www.w3.org/1999/xlink">
<g id="graph0" class="graph" transform="scale(1 1) rotate(0) translate(4 259.581)">
<title>%3</title>
<polygon fill="white" stroke="none" points="-4,4 -4,-259.581 2835.33,-259.581 2835.33,4 -4,4"/>
<!-- 26_NOA_NOA87614 -->
<g id="node1" class="node"><title>26_NOA_NOA87614</title>
<ellipse fill="white" stroke="black" cx="460.167" cy="-127.79" rx="96.3333" ry="16.0303"/>
<text text-anchor="middle" x="460.167" y="-124.09" font-family="Times,serif" font-size="14.00">26_NOA_NOA87614</text>
</g>
<!-- 26_NOA_NOA87605x26_NOA_NOA87614 -->
<g id="node2" class="node"><title>26_NOA_NOA87605x26_NOA_NOA87614</title>
<polygon fill="none" stroke="black" points="551.167,-75.5269 547.667,-72.0269 551.167,-68.5269 554.667,-72.0269 551.167,-75.5269"/>
</g>
<!-- 26_NOA_NOA87614&#45;&gt;26_NOA_NOA87605x26_NOA_NOA87614 -->
<g id="edge1" class="edge"><title>26_NOA_NOA87614&#45;&gt;26_NOA_NOA87605x26_NOA_NOA87614</title>
<path fill="none" stroke="black" d="M485.515,-111.814C503.738,-101.048 527.364,-87.0896 540.734,-79.1904"/>
<polygon fill="black" stroke="black" points="542.621,-82.1411 549.45,-74.0411 539.06,-76.1144 542.621,-82.1411"/>
</g>
<!-- 26_NOA_NOA87624 -->
<g id="node12" class="node"><title>26_NOA_NOA87624</title>
<polygon fill="dimgrey" stroke="black" points="696.167,-27.7635 560.167,-27.7635 560.167,-4.76346 696.167,-4.76346 696.167,-27.7635"/>
<text text-anchor="middle" x="628.167" y="-12.5635" font-family="Times,serif" font-size="14.00">26_NOA_NOA87624</text>
</g>
<!-- 26_NOA_NOA87605x26_NOA_NOA87614&#45;&gt;26_NOA_NOA87624 -->
<g id="edge7" class="edge"><title>26_NOA_NOA87605x26_NOA_NOA87614&#45;&gt;26_NOA_NOA87624</title>
<path fill="none" stroke="black" d="M552.775,-69.904C559.397,-65.2803 585.127,-47.3149 604.703,-33.6462"/>
<polygon fill="black" stroke="black" points="606.712,-36.5121 612.908,-27.9175 602.705,-30.7727 606.712,-36.5121"/>
</g>
<!-- 26_NOA_NOA87625 -->
<g id="node15" class="node"><title>26_NOA_NOA87625</title>
<polygon fill="white" stroke="black" points="542.167,-27.7635 406.167,-27.7635 406.167,-4.76346 542.167,-4.76346 542.167,-27.7635"/>
<text text-anchor="middle" x="474.167" y="-12.5635" font-family="Times,serif" font-size="14.00">26_NOA_NOA87625</text>
</g>
<!-- 26_NOA_NOA87605x26_NOA_NOA87614&#45;&gt;26_NOA_NOA87625 -->
<g id="edge10" class="edge"><title>26_NOA_NOA87605x26_NOA_NOA87614&#45;&gt;26_NOA_NOA87625</title>
<path fill="none" stroke="black" d="M549.558,-69.904C542.936,-65.2803 517.206,-47.3149 497.63,-33.6462"/>
<polygon fill="black" stroke="black" points="499.628,-30.7727 489.425,-27.9175 495.621,-36.5121 499.628,-30.7727"/>
</g>
<!-- 26_NOA_NOA87609 -->
<g id="node3" class="node"><title>26_NOA_NOA87609</title>
<polygon fill="dimgrey" stroke="black" points="1956.17,-139.29 1820.17,-139.29 1820.17,-116.29 1956.17,-116.29 1956.17,-139.29"/>
<text text-anchor="middle" x="1888.17" y="-124.09" font-family="Times,serif" font-size="14.00">26_NOA_NOA87609</text>
</g>
<!-- 26_NOA_NOA87603x26_NOA_NOA87604 -->
<g id="node4" class="node"><title>26_NOA_NOA87603x26_NOA_NOA87604</title>
<polygon fill="none" stroke="black" points="1461.17,-187.054 1457.67,-183.554 1461.17,-180.054 1464.67,-183.554 1461.17,-187.054"/>
</g>
<!-- 26_NOA_NOA87603x26_NOA_NOA87604&#45;&gt;26_NOA_NOA87609 -->
<g id="edge2" class="edge"><title>26_NOA_NOA87603x26_NOA_NOA87604&#45;&gt;26_NOA_NOA87609</title>
<path fill="none" stroke="black" d="M1463.68,-182.361C1486.93,-180.56 1666.76,-166.266 1811.17,-144.054 1816.64,-143.212 1822.31,-142.253 1827.99,-141.235"/>
<polygon fill="black" stroke="black" points="1828.96,-144.614 1838.16,-139.352 1827.69,-137.731 1828.96,-144.614"/>
</g>
<!-- 26_NOA_NOA87612 -->
<g id="node5" class="node"><title>26_NOA_NOA87612</title>
<ellipse fill="dimgrey" stroke="black" cx="2070.17" cy="-127.79" rx="96.3333" ry="16.0303"/>
<text text-anchor="middle" x="2070.17" y="-124.09" font-family="Times,serif" font-size="14.00">26_NOA_NOA87612</text>
</g>
<!-- 26_NOA_NOA87603x26_NOA_NOA87604&#45;&gt;26_NOA_NOA87612 -->
<g id="edge3" class="edge"><title>26_NOA_NOA87603x26_NOA_NOA87604&#45;&gt;26_NOA_NOA87612</title>
<path fill="none" stroke="black" d="M1463.63,-182.431C1491.7,-181.015 1754.09,-167.43 1965.17,-144.054 1973.88,-143.089 1982.98,-141.955 1992.03,-140.749"/>
<polygon fill="black" stroke="black" points="1992.76,-144.182 2002.19,-139.361 1991.81,-137.246 1992.76,-144.182"/>
</g>
<!-- 26_NOA_NOA87613 -->
<g id="node16" class="node"><title>26_NOA_NOA87613</title>
<ellipse fill="dimgrey" stroke="black" cx="2280.17" cy="-127.79" rx="96.3333" ry="16.0303"/>
<text text-anchor="middle" x="2280.17" y="-124.09" font-family="Times,serif" font-size="14.00">26_NOA_NOA87613</text>
</g>
<!-- 26_NOA_NOA87603x26_NOA_NOA87604&#45;&gt;26_NOA_NOA87613 -->
<g id="edge11" class="edge"><title>26_NOA_NOA87603x26_NOA_NOA87604&#45;&gt;26_NOA_NOA87613</title>
<path fill="none" stroke="black" d="M1463.74,-182.506C1498.28,-181.839 1873.76,-174.026 2175.17,-144.054 2184.19,-143.157 2193.62,-142.041 2202.97,-140.823"/>
<polygon fill="black" stroke="black" points="2203.62,-144.268 2213.06,-139.468 2202.68,-137.33 2203.62,-144.268"/>
</g>
<!-- 26_NOA_NOA87610 -->
<g id="node18" class="node"><title>26_NOA_NOA87610</title>
<polygon fill="white" stroke="black" points="2530.17,-139.29 2394.17,-139.29 2394.17,-116.29 2530.17,-116.29 2530.17,-139.29"/>
<text text-anchor="middle" x="2462.17" y="-124.09" font-family="Times,serif" font-size="14.00">26_NOA_NOA87610</text>
</g>
<!-- 26_NOA_NOA87603x26_NOA_NOA87604&#45;&gt;26_NOA_NOA87610 -->
<g id="edge13" class="edge"><title>26_NOA_NOA87603x26_NOA_NOA87604&#45;&gt;26_NOA_NOA87610</title>
<path fill="none" stroke="black" d="M1463.97,-182.605C1505.3,-183.318 1994.57,-190.623 2385.17,-144.054 2391.56,-143.291 2398.22,-142.291 2404.82,-141.165"/>
<polygon fill="black" stroke="black" points="2405.89,-144.529 2415.11,-139.311 2404.65,-137.64 2405.89,-144.529"/>
</g>
<!-- 26_NOA_NOA87611 -->
<g id="node20" class="node"><title>26_NOA_NOA87611</title>
<polygon fill="white" stroke="black" points="864.167,-139.29 728.167,-139.29 728.167,-116.29 864.167,-116.29 864.167,-139.29"/>
<text text-anchor="middle" x="796.167" y="-124.09" font-family="Times,serif" font-size="14.00">26_NOA_NOA87611</text>
</g>
<!-- 26_NOA_NOA87603x26_NOA_NOA87604&#45;&gt;26_NOA_NOA87611 -->
<g id="edge15" class="edge"><title>26_NOA_NOA87603x26_NOA_NOA87604&#45;&gt;26_NOA_NOA87611</title>
<path fill="none" stroke="black" d="M1458.68,-182.516C1428,-182.029 1119.65,-176.412 873.167,-144.054 867.048,-143.251 860.685,-142.254 854.355,-141.157"/>
<polygon fill="black" stroke="black" points="854.94,-137.707 844.476,-139.366 853.691,-144.594 854.94,-137.707"/>
</g>
<!-- 26_NOA_NOA87608 -->
<g id="node21" class="node"><title>26_NOA_NOA87608</title>
<ellipse fill="white" stroke="black" cx="96.1665" cy="-127.79" rx="96.3333" ry="16.0303"/>
<text text-anchor="middle" x="96.1665" y="-124.09" font-family="Times,serif" font-size="14.00">26_NOA_NOA87608</text>
</g>
<!-- 26_NOA_NOA87603x26_NOA_NOA87604&#45;&gt;26_NOA_NOA87608 -->
<g id="edge16" class="edge"><title>26_NOA_NOA87603x26_NOA_NOA87604&#45;&gt;26_NOA_NOA87608</title>
<path fill="none" stroke="black" d="M1458.6,-182.589C1411.99,-183.214 739.665,-191.266 201.167,-144.054 191.837,-143.236 182.072,-142.141 172.413,-140.911"/>
<polygon fill="black" stroke="black" points="172.78,-137.429 162.407,-139.587 171.861,-144.369 172.78,-137.429"/>
</g>
<!-- 26_NOA_NOA87602 -->
<g id="node24" class="node"><title>26_NOA_NOA87602</title>
<ellipse fill="dimgrey" stroke="black" cx="1188.17" cy="-127.79" rx="96.3333" ry="16.0303"/>
<text text-anchor="middle" x="1188.17" y="-124.09" font-family="Times,serif" font-size="14.00">26_NOA_NOA87602</text>
</g>
<!-- 26_NOA_NOA87603x26_NOA_NOA87604&#45;&gt;26_NOA_NOA87602 -->
<g id="edge19" class="edge"><title>26_NOA_NOA87603x26_NOA_NOA87604&#45;&gt;26_NOA_NOA87602</title>
<path fill="none" stroke="black" d="M1458.81,-182.089C1441.49,-178.678 1332.6,-157.235 1258.34,-142.609"/>
<polygon fill="black" stroke="black" points="1258.59,-139.091 1248.1,-140.593 1257.23,-145.96 1258.59,-139.091"/>
</g>
<!-- 26_NOA_NOA87605 -->
<g id="node29" class="node"><title>26_NOA_NOA87605</title>
<polygon fill="white" stroke="black" points="710.167,-139.29 574.167,-139.29 574.167,-116.29 710.167,-116.29 710.167,-139.29"/>
<text text-anchor="middle" x="642.167" y="-124.09" font-family="Times,serif" font-size="14.00">26_NOA_NOA87605</text>
</g>
<!-- 26_NOA_NOA87603x26_NOA_NOA87604&#45;&gt;26_NOA_NOA87605 -->
<g id="edge24" class="edge"><title>26_NOA_NOA87603x26_NOA_NOA87604&#45;&gt;26_NOA_NOA87605</title>
<path fill="none" stroke="black" d="M1458.49,-182.564C1422.52,-182.672 1031.5,-182.909 719.167,-144.054 712.865,-143.27 706.307,-142.266 699.794,-141.147"/>
<polygon fill="black" stroke="black" points="700.103,-137.647 689.64,-139.311 698.858,-144.535 700.103,-137.647"/>
</g>
<!-- 26_NOA_NOA87606 -->
<g id="node30" class="node"><title>26_NOA_NOA87606</title>
<ellipse fill="dimgrey" stroke="black" cx="978.167" cy="-127.79" rx="96.3333" ry="16.0303"/>
<text text-anchor="middle" x="978.167" y="-124.09" font-family="Times,serif" font-size="14.00">26_NOA_NOA87606</text>
</g>
<!-- 26_NOA_NOA87603x26_NOA_NOA87604&#45;&gt;26_NOA_NOA87606 -->
<g id="edge26" class="edge"><title>26_NOA_NOA87603x26_NOA_NOA87604&#45;&gt;26_NOA_NOA87606</title>
<path fill="none" stroke="black" d="M1458.76,-182.349C1435.03,-180.318 1240.29,-163.466 1083.17,-144.054 1074.67,-143.004 1065.79,-141.831 1056.95,-140.616"/>
<polygon fill="black" stroke="black" points="1057.4,-137.145 1047.02,-139.229 1056.44,-144.078 1057.4,-137.145"/>
</g>
<!-- 26_NOA_NOA87607 -->
<g id="node31" class="node"><title>26_NOA_NOA87607</title>
<polygon fill="white" stroke="black" points="1802.17,-139.29 1666.17,-139.29 1666.17,-116.29 1802.17,-116.29 1802.17,-139.29"/>
<text text-anchor="middle" x="1734.17" y="-124.09" font-family="Times,serif" font-size="14.00">26_NOA_NOA87607</text>
</g>
<!-- 26_NOA_NOA87603x26_NOA_NOA87604&#45;&gt;26_NOA_NOA87607 -->
<g id="edge28" class="edge"><title>26_NOA_NOA87603x26_NOA_NOA87604&#45;&gt;26_NOA_NOA87607</title>
<path fill="none" stroke="black" d="M1463.5,-182.098C1479.72,-178.921 1577.56,-159.763 1657.17,-144.054 1661.77,-143.145 1666.53,-142.205 1671.32,-141.258"/>
<polygon fill="black" stroke="black" points="1672.02,-144.687 1681.15,-139.312 1670.66,-137.82 1672.02,-144.687"/>
</g>
<!-- 26_NOA_NOA87628 -->
<g id="node6" class="node"><title>26_NOA_NOA87628</title>
<polygon fill="white" stroke="black" points="1756.17,-27.7635 1620.17,-27.7635 1620.17,-4.76346 1756.17,-4.76346 1756.17,-27.7635"/>
<text text-anchor="middle" x="1688.17" y="-12.5635" font-family="Times,serif" font-size="14.00">26_NOA_NOA87628</text>
</g>
<!-- 26_NOA_NOA87607x26_NOA_NOA87617 -->
<g id="node7" class="node"><title>26_NOA_NOA87607x26_NOA_NOA87617</title>
<polygon fill="none" stroke="black" points="1597.17,-75.5269 1593.67,-72.0269 1597.17,-68.5269 1600.67,-72.0269 1597.17,-75.5269"/>
</g>
<!-- 26_NOA_NOA87607x26_NOA_NOA87617&#45;&gt;26_NOA_NOA87628 -->
<g id="edge4" class="edge"><title>26_NOA_NOA87607x26_NOA_NOA87617&#45;&gt;26_NOA_NOA87628</title>
<path fill="none" stroke="black" d="M1598.75,-70.0937C1606.12,-65.7361 1637.81,-47.0153 1661.38,-33.0889"/>
<polygon fill="black" stroke="black" points="1663.43,-35.9413 1670.26,-27.8413 1659.87,-29.9146 1663.43,-35.9413"/>
</g>
<!-- 26_NOA_NOA87629 -->
<g id="node14" class="node"><title>26_NOA_NOA87629</title>
<ellipse fill="dimgrey" stroke="black" cx="1506.17" cy="-16.2635" rx="96.3333" ry="16.0303"/>
<text text-anchor="middle" x="1506.17" y="-12.5635" font-family="Times,serif" font-size="14.00">26_NOA_NOA87629</text>
</g>
<!-- 26_NOA_NOA87607x26_NOA_NOA87617&#45;&gt;26_NOA_NOA87629 -->
<g id="edge9" class="edge"><title>26_NOA_NOA87607x26_NOA_NOA87617&#45;&gt;26_NOA_NOA87629</title>
<path fill="none" stroke="black" d="M1595.59,-70.0937C1588.92,-66.1546 1562.39,-50.4789 1539.94,-37.2173"/>
<polygon fill="black" stroke="black" points="1541.66,-34.1702 1531.27,-32.0969 1538.1,-40.197 1541.66,-34.1702"/>
</g>
<!-- 26_NOA_NOA87615 -->
<g id="node8" class="node"><title>26_NOA_NOA87615</title>
<polygon fill="white" stroke="black" points="1438.17,-139.29 1302.17,-139.29 1302.17,-116.29 1438.17,-116.29 1438.17,-139.29"/>
<text text-anchor="middle" x="1370.17" y="-124.09" font-family="Times,serif" font-size="14.00">26_NOA_NOA87615</text>
</g>
<!-- 26_NOA_NOA87615x26_NOA_NOA87606 -->
<g id="node9" class="node"><title>26_NOA_NOA87615x26_NOA_NOA87606</title>
<polygon fill="none" stroke="black" points="1106.17,-75.5269 1102.67,-72.0269 1106.17,-68.5269 1109.67,-72.0269 1106.17,-75.5269"/>
</g>
<!-- 26_NOA_NOA87615&#45;&gt;26_NOA_NOA87615x26_NOA_NOA87606 -->
<g id="edge5" class="edge"><title>26_NOA_NOA87615&#45;&gt;26_NOA_NOA87615x26_NOA_NOA87606</title>
<path fill="none" stroke="black" d="M1318.32,-116.233C1255.48,-103.434 1153.61,-82.6889 1118.51,-75.5413"/>
<polygon fill="black" stroke="black" points="1119.05,-72.0785 1108.55,-73.5125 1117.65,-78.9377 1119.05,-72.0785"/>
</g>
<!-- 26_NOA_NOA87626 -->
<g id="node13" class="node"><title>26_NOA_NOA87626</title>
<polygon fill="white" stroke="black" points="1265.17,-27.7635 1129.17,-27.7635 1129.17,-4.76346 1265.17,-4.76346 1265.17,-27.7635"/>
<text text-anchor="middle" x="1197.17" y="-12.5635" font-family="Times,serif" font-size="14.00">26_NOA_NOA87626</text>
</g>
<!-- 26_NOA_NOA87615x26_NOA_NOA87606&#45;&gt;26_NOA_NOA87626 -->
<g id="edge8" class="edge"><title>26_NOA_NOA87615x26_NOA_NOA87606&#45;&gt;26_NOA_NOA87626</title>
<path fill="none" stroke="black" d="M1107.75,-70.0937C1115.12,-65.7361 1146.81,-47.0153 1170.38,-33.0889"/>
<polygon fill="black" stroke="black" points="1172.43,-35.9413 1179.26,-27.8413 1168.87,-29.9146 1172.43,-35.9413"/>
</g>
<!-- 26_NOA_NOA87601 -->
<g id="node26" class="node"><title>26_NOA_NOA87601</title>
<ellipse fill="dimgrey" stroke="black" cx="1015.17" cy="-16.2635" rx="96.3333" ry="16.0303"/>
<text text-anchor="middle" x="1015.17" y="-12.5635" font-family="Times,serif" font-size="14.00">26_NOA_NOA87601</text>
</g>
<!-- 26_NOA_NOA87615x26_NOA_NOA87606&#45;&gt;26_NOA_NOA87601 -->
<g id="edge21" class="edge"><title>26_NOA_NOA87615x26_NOA_NOA87606&#45;&gt;26_NOA_NOA87601</title>
<path fill="none" stroke="black" d="M1104.59,-70.0937C1097.92,-66.1546 1071.39,-50.4789 1048.94,-37.2173"/>
<polygon fill="black" stroke="black" points="1050.66,-34.1702 1040.27,-32.0969 1047.1,-40.197 1050.66,-34.1702"/>
</g>
<!-- 26_NOA_NOA87631 -->
<g id="node10" class="node"><title>26_NOA_NOA87631</title>
<ellipse fill="white" stroke="black" cx="2644.17" cy="-127.79" rx="96.3333" ry="16.0303"/>
<text text-anchor="middle" x="2644.17" y="-124.09" font-family="Times,serif" font-size="14.00">26_NOA_NOA87631</text>
</g>
<!-- 26_NOA_NOA97618x26_NOA_NOA97608 -->
<g id="node11" class="node"><title>26_NOA_NOA97618x26_NOA_NOA97608</title>
<polygon fill="none" stroke="black" points="2644.17,-187.054 2640.67,-183.554 2644.17,-180.054 2647.67,-183.554 2644.17,-187.054"/>
</g>
<!-- 26_NOA_NOA97618x26_NOA_NOA97608&#45;&gt;26_NOA_NOA87631 -->
<g id="edge6" class="edge"><title>26_NOA_NOA97618x26_NOA_NOA97608&#45;&gt;26_NOA_NOA87631</title>
<path fill="none" stroke="black" d="M2644.17,-179.961C2644.17,-175.178 2644.17,-164.508 2644.17,-154.142"/>
<polygon fill="black" stroke="black" points="2647.67,-154.107 2644.17,-144.107 2640.67,-154.107 2647.67,-154.107"/>
</g>
<!-- 26_NOA_NOA97618 -->
<g id="node17" class="node"><title>26_NOA_NOA97618</title>
<polygon fill="#66cdaa" stroke="black" points="2621.17,-250.817 2485.17,-250.817 2485.17,-227.817 2621.17,-227.817 2621.17,-250.817"/>
<text text-anchor="middle" x="2553.17" y="-235.617" font-family="Times,serif" font-size="14.00">26_NOA_NOA97618</text>
</g>
<!-- 26_NOA_NOA97618&#45;&gt;26_NOA_NOA97618x26_NOA_NOA97608 -->
<g id="edge12" class="edge"><title>26_NOA_NOA97618&#45;&gt;26_NOA_NOA97618x26_NOA_NOA97608</title>
<path fill="none" stroke="black" d="M2571.15,-227.695C2589.78,-216.684 2618.29,-199.843 2633.59,-190.804"/>
<polygon fill="black" stroke="black" points="2635.76,-193.588 2642.58,-185.488 2632.19,-187.562 2635.76,-193.588"/>
</g>
<!-- 26_NOA_NOA97608 -->
<g id="node19" class="node"><title>26_NOA_NOA97608</title>
<ellipse fill="#66cdaa" stroke="black" cx="2735.17" cy="-239.317" rx="96.3333" ry="16.0303"/>
<text text-anchor="middle" x="2735.17" y="-235.617" font-family="Times,serif" font-size="14.00">26_NOA_NOA97608</text>
</g>
<!-- 26_NOA_NOA97608&#45;&gt;26_NOA_NOA97618x26_NOA_NOA97608 -->
<g id="edge14" class="edge"><title>26_NOA_NOA97608&#45;&gt;26_NOA_NOA97618x26_NOA_NOA97608</title>
<path fill="none" stroke="black" d="M2709.82,-223.341C2691.6,-212.575 2667.97,-198.616 2654.6,-190.717"/>
<polygon fill="black" stroke="black" points="2656.27,-187.641 2645.88,-185.568 2652.71,-193.668 2656.27,-187.641"/>
</g>
<!-- 26_NOA_NOA87618x26_NOA_NOA87608 -->
<g id="node22" class="node"><title>26_NOA_NOA87618x26_NOA_NOA87608</title>
<polygon fill="none" stroke="black" points="187.167,-75.5269 183.667,-72.0269 187.167,-68.5269 190.667,-72.0269 187.167,-75.5269"/>
</g>
<!-- 26_NOA_NOA87608&#45;&gt;26_NOA_NOA87618x26_NOA_NOA87608 -->
<g id="edge17" class="edge"><title>26_NOA_NOA87608&#45;&gt;26_NOA_NOA87618x26_NOA_NOA87608</title>
<path fill="none" stroke="black" d="M121.515,-111.814C139.738,-101.048 163.364,-87.0896 176.734,-79.1904"/>
<polygon fill="black" stroke="black" points="178.621,-82.1411 185.45,-74.0411 175.06,-76.1144 178.621,-82.1411"/>
</g>
<!-- 26_NOA_NOA87632 -->
<g id="node28" class="node"><title>26_NOA_NOA87632</title>
<ellipse fill="white" stroke="black" cx="187.167" cy="-16.2635" rx="96.3333" ry="16.0303"/>
<text text-anchor="middle" x="187.167" y="-12.5635" font-family="Times,serif" font-size="14.00">26_NOA_NOA87632</text>
</g>
<!-- 26_NOA_NOA87618x26_NOA_NOA87608&#45;&gt;26_NOA_NOA87632 -->
<g id="edge23" class="edge"><title>26_NOA_NOA87618x26_NOA_NOA87608&#45;&gt;26_NOA_NOA87632</title>
<path fill="none" stroke="black" d="M187.167,-68.4338C187.167,-63.6514 187.167,-52.9811 187.167,-42.6151"/>
<polygon fill="black" stroke="black" points="190.667,-42.5799 187.167,-32.58 183.667,-42.58 190.667,-42.5799"/>
</g>
<!-- 26_NOA_NOA87618 -->
<g id="node23" class="node"><title>26_NOA_NOA87618</title>
<polygon fill="white" stroke="black" points="346.167,-139.29 210.167,-139.29 210.167,-116.29 346.167,-116.29 346.167,-139.29"/>
<text text-anchor="middle" x="278.167" y="-124.09" font-family="Times,serif" font-size="14.00">26_NOA_NOA87618</text>
</g>
<!-- 26_NOA_NOA87618&#45;&gt;26_NOA_NOA87618x26_NOA_NOA87608 -->
<g id="edge18" class="edge"><title>26_NOA_NOA87618&#45;&gt;26_NOA_NOA87618x26_NOA_NOA87608</title>
<path fill="none" stroke="black" d="M260.188,-116.168C241.551,-105.157 213.045,-88.3163 197.746,-79.2774"/>
<polygon fill="black" stroke="black" points="199.138,-76.0348 188.748,-73.9615 195.578,-82.0616 199.138,-76.0348"/>
</g>
<!-- 26_NOA_NOA87617 -->
<g id="node25" class="node"><title>26_NOA_NOA87617</title>
<ellipse fill="white" stroke="black" cx="1552.17" cy="-127.79" rx="96.3333" ry="16.0303"/>
<text text-anchor="middle" x="1552.17" y="-124.09" font-family="Times,serif" font-size="14.00">26_NOA_NOA87617</text>
</g>
<!-- 26_NOA_NOA87617&#45;&gt;26_NOA_NOA87607x26_NOA_NOA87617 -->
<g id="edge20" class="edge"><title>26_NOA_NOA87617&#45;&gt;26_NOA_NOA87607x26_NOA_NOA87617</title>
<path fill="none" stroke="black" d="M1564.94,-111.528C1572.83,-102.098 1582.7,-90.3061 1589.43,-82.2737"/>
<polygon fill="black" stroke="black" points="1592.14,-84.4856 1595.87,-74.5708 1586.77,-79.9927 1592.14,-84.4856"/>
</g>
<!-- 26_NOA_NOA87603 -->
<g id="node27" class="node"><title>26_NOA_NOA87603</title>
<polygon fill="#66cdaa" stroke="black" points="1438.17,-250.817 1302.17,-250.817 1302.17,-227.817 1438.17,-227.817 1438.17,-250.817"/>
<text text-anchor="middle" x="1370.17" y="-235.617" font-family="Times,serif" font-size="14.00">26_NOA_NOA87603</text>
</g>
<!-- 26_NOA_NOA87603&#45;&gt;26_NOA_NOA87603x26_NOA_NOA87604 -->
<g id="edge22" class="edge"><title>26_NOA_NOA87603&#45;&gt;26_NOA_NOA87603x26_NOA_NOA87604</title>
<path fill="none" stroke="black" d="M1388.15,-227.695C1406.78,-216.684 1435.29,-199.843 1450.59,-190.804"/>
<polygon fill="black" stroke="black" points="1452.76,-193.588 1459.58,-185.488 1449.19,-187.562 1452.76,-193.588"/>
</g>
<!-- 26_NOA_NOA87605&#45;&gt;26_NOA_NOA87605x26_NOA_NOA87614 -->
<g id="edge25" class="edge"><title>26_NOA_NOA87605&#45;&gt;26_NOA_NOA87605x26_NOA_NOA87614</title>
<path fill="none" stroke="black" d="M624.188,-116.168C605.551,-105.157 577.045,-88.3163 561.746,-79.2774"/>
<polygon fill="black" stroke="black" points="563.138,-76.0348 552.748,-73.9615 559.578,-82.0616 563.138,-76.0348"/>
</g>
<!-- 26_NOA_NOA87606&#45;&gt;26_NOA_NOA87615x26_NOA_NOA87606 -->
<g id="edge27" class="edge"><title>26_NOA_NOA87606&#45;&gt;26_NOA_NOA87615x26_NOA_NOA87606</title>
<path fill="none" stroke="black" d="M1012.13,-112.524C1039.57,-100.998 1076.54,-85.4708 1094.88,-77.7687"/>
<polygon fill="black" stroke="black" points="1096.39,-80.9315 1104.25,-73.8319 1093.67,-74.4776 1096.39,-80.9315"/>
</g>
<!-- 26_NOA_NOA87607&#45;&gt;26_NOA_NOA87607x26_NOA_NOA87617 -->
<g id="edge29" class="edge"><title>26_NOA_NOA87607&#45;&gt;26_NOA_NOA87607x26_NOA_NOA87617</title>
<path fill="none" stroke="black" d="M1707.1,-116.168C1677.11,-104.401 1630.16,-85.9748 1608.64,-77.5294"/>
<polygon fill="black" stroke="black" points="1609.82,-74.231 1599.23,-73.8359 1607.26,-80.7472 1609.82,-74.231"/>
</g>
<!-- 26_NOA_NOA87604 -->
<g id="node32" class="node"><title>26_NOA_NOA87604</title>
<ellipse fill="#66cdaa" stroke="black" cx="1552.17" cy="-239.317" rx="96.3333" ry="16.0303"/>
<text text-anchor="middle" x="1552.17" y="-235.617" font-family="Times,serif" font-size="14.00">26_NOA_NOA87604</text>
</g>
<!-- 26_NOA_NOA87604&#45;&gt;26_NOA_NOA87603x26_NOA_NOA87604 -->
<g id="edge30" class="edge"><title>26_NOA_NOA87604&#45;&gt;26_NOA_NOA87603x26_NOA_NOA87604</title>
<path fill="none" stroke="black" d="M1526.82,-223.341C1508.6,-212.575 1484.97,-198.616 1471.6,-190.717"/>
<polygon fill="black" stroke="black" points="1473.27,-187.641 1462.88,-185.568 1469.71,-193.668 1473.27,-187.641"/>
</g>
</g>
</svg>
