<?xml version="1.0" encoding="UTF-8" standalone="no"?>
<!DOCTYPE svg PUBLIC "-//W3C//DTD SVG 1.1//EN"
 "http://www.w3.org/Graphics/SVG/1.1/DTD/svg11.dtd">
<!-- Generated by graphviz version 2.38.0 (20140413.2041)
 -->
<!-- Title: %3 Pages: 1 -->
<svg width="2047pt" height="375pt"
 viewBox="0.00 0.00 2047.43 375.11" xmlns="http://www.w3.org/2000/svg" xmlns:xlink="http://www.w3.org/1999/xlink">
<g id="graph0" class="graph" transform="scale(1 1) rotate(0) translate(4 371.108)">
<title>%3</title>
<polygon fill="white" stroke="none" points="-4,4 -4,-371.108 2043.43,-371.108 2043.43,4 -4,4"/>
<!-- 10R_R64_39 -->
<g id="node1" class="node"><title>10R_R64_39</title>
<polygon fill="white" stroke="black" points="89,-139.29 7.10543e-15,-139.29 7.10543e-15,-116.29 89,-116.29 89,-139.29"/>
<text text-anchor="middle" x="44.5" y="-124.09" font-family="Times,serif" font-size="14.00">10R_R64_39</text>
</g>
<!-- 10R_R64_39x10R_R64_22 -->
<g id="node2" class="node"><title>10R_R64_39x10R_R64_22</title>
<polygon fill="none" stroke="black" points="89.5,-75.5269 86,-72.0269 89.5,-68.5269 93,-72.0269 89.5,-75.5269"/>
</g>
<!-- 10R_R64_39&#45;&gt;10R_R64_39x10R_R64_22 -->
<g id="edge1" class="edge"><title>10R_R64_39&#45;&gt;10R_R64_39x10R_R64_22</title>
<path fill="none" stroke="black" d="M53.3906,-116.168C61.6671,-106.28 73.879,-91.69 81.7626,-82.2712"/>
<polygon fill="black" stroke="black" points="84.4927,-84.4624 88.2272,-74.5476 79.1248,-79.9695 84.4927,-84.4624"/>
</g>
<!-- 10R_R64_40 -->
<g id="node22" class="node"><title>10R_R64_40</title>
<ellipse fill="white" stroke="black" cx="178.5" cy="-16.2635" rx="62.8651" ry="16.0303"/>
<text text-anchor="middle" x="178.5" y="-12.5635" font-family="Times,serif" font-size="14.00">10R_R64_40</text>
</g>
<!-- 10R_R64_39x10R_R64_22&#45;&gt;10R_R64_40 -->
<g id="edge20" class="edge"><title>10R_R64_39x10R_R64_22&#45;&gt;10R_R64_40</title>
<path fill="none" stroke="black" d="M91.3589,-69.904C98.4673,-65.6099 124.625,-49.8086 146.443,-36.6287"/>
<polygon fill="black" stroke="black" points="148.403,-39.5337 155.153,-31.3672 144.783,-33.5421 148.403,-39.5337"/>
</g>
<!-- 10R_R64_42 -->
<g id="node31" class="node"><title>10R_R64_42</title>
<polygon fill="white" stroke="black" points="98,-27.7635 9,-27.7635 9,-4.76346 98,-4.76346 98,-27.7635"/>
<text text-anchor="middle" x="53.5" y="-12.5635" font-family="Times,serif" font-size="14.00">10R_R64_42</text>
</g>
<!-- 10R_R64_39x10R_R64_22&#45;&gt;10R_R64_42 -->
<g id="edge31" class="edge"><title>10R_R64_39x10R_R64_22&#45;&gt;10R_R64_42</title>
<path fill="none" stroke="black" d="M88.3022,-69.2381C84.8858,-64.1359 74.7958,-49.0672 66.3542,-36.4603"/>
<polygon fill="black" stroke="black" points="69.09,-34.2553 60.6178,-27.8934 63.2735,-38.15 69.09,-34.2553"/>
</g>
<!-- 10R_R64_18 -->
<g id="node3" class="node"><title>10R_R64_18</title>
<ellipse fill="dimgrey" stroke="black" cx="1227.5" cy="-239.317" rx="62.8651" ry="16.0303"/>
<text text-anchor="middle" x="1227.5" y="-235.617" font-family="Times,serif" font-size="14.00">10R_R64_18</text>
</g>
<!-- 10R_R64_19x10R_R64_18 -->
<g id="node5" class="node"><title>10R_R64_19x10R_R64_18</title>
<polygon fill="none" stroke="black" points="1297.5,-187.054 1294,-183.554 1297.5,-180.054 1301,-183.554 1297.5,-187.054"/>
</g>
<!-- 10R_R64_18&#45;&gt;10R_R64_19x10R_R64_18 -->
<g id="edge3" class="edge"><title>10R_R64_18&#45;&gt;10R_R64_19x10R_R64_18</title>
<path fill="none" stroke="black" d="M1246.63,-223.626C1259.99,-213.366 1277.26,-200.101 1287.85,-191.966"/>
<polygon fill="black" stroke="black" points="1290.02,-194.71 1295.82,-185.843 1285.76,-189.158 1290.02,-194.71"/>
</g>
<!-- 10R_R64_36x10R_R64_35 -->
<g id="node4" class="node"><title>10R_R64_36x10R_R64_35</title>
<polygon fill="none" stroke="black" points="1066.5,-298.581 1063,-295.081 1066.5,-291.581 1070,-295.081 1066.5,-298.581"/>
</g>
<!-- 10R_R64_36x10R_R64_35&#45;&gt;10R_R64_18 -->
<g id="edge2" class="edge"><title>10R_R64_36x10R_R64_35&#45;&gt;10R_R64_18</title>
<path fill="none" stroke="black" d="M1068.54,-293.401C1080.09,-289.544 1138.37,-270.082 1181.03,-255.837"/>
<polygon fill="black" stroke="black" points="1182.3,-259.1 1190.68,-252.613 1180.09,-252.46 1182.3,-259.1"/>
</g>
<!-- 10R_R64_34 -->
<g id="node16" class="node"><title>10R_R64_34</title>
<ellipse fill="white" stroke="black" cx="783.5" cy="-239.317" rx="62.8651" ry="16.0303"/>
<text text-anchor="middle" x="783.5" y="-235.617" font-family="Times,serif" font-size="14.00">10R_R64_34</text>
</g>
<!-- 10R_R64_36x10R_R64_35&#45;&gt;10R_R64_34 -->
<g id="edge14" class="edge"><title>10R_R64_36x10R_R64_35&#45;&gt;10R_R64_34</title>
<path fill="none" stroke="black" d="M1064.38,-293.679C1046.5,-290.281 919.33,-266.122 842.368,-251.501"/>
<polygon fill="black" stroke="black" points="842.797,-248.02 832.319,-249.592 841.49,-254.897 842.797,-248.02"/>
</g>
<!-- 10R_R64_2 -->
<g id="node10" class="node"><title>10R_R64_2</title>
<ellipse fill="white" stroke="black" cx="952.5" cy="-127.79" rx="57.9655" ry="16.0303"/>
<text text-anchor="middle" x="952.5" y="-124.09" font-family="Times,serif" font-size="14.00">10R_R64_2</text>
</g>
<!-- 10R_R64_19x10R_R64_18&#45;&gt;10R_R64_2 -->
<g id="edge7" class="edge"><title>10R_R64_19x10R_R64_18&#45;&gt;10R_R64_2</title>
<path fill="none" stroke="black" d="M1295.01,-182.292C1274.63,-180.133 1133.09,-164.819 1019.5,-144.054 1014.76,-143.188 1009.85,-142.215 1004.94,-141.191"/>
<polygon fill="black" stroke="black" points="1005.43,-137.716 994.918,-139.035 1003.96,-144.56 1005.43,-137.716"/>
</g>
<!-- 10R_R64_17 -->
<g id="node12" class="node"><title>10R_R64_17</title>
<ellipse fill="white" stroke="black" cx="1091.5" cy="-127.79" rx="62.8651" ry="16.0303"/>
<text text-anchor="middle" x="1091.5" y="-124.09" font-family="Times,serif" font-size="14.00">10R_R64_17</text>
</g>
<!-- 10R_R64_19x10R_R64_18&#45;&gt;10R_R64_17 -->
<g id="edge9" class="edge"><title>10R_R64_19x10R_R64_18&#45;&gt;10R_R64_17</title>
<path fill="none" stroke="black" d="M1295.19,-181.95C1280.54,-178.127 1199.53,-156.985 1144.19,-142.543"/>
<polygon fill="black" stroke="black" points="1144.74,-139.069 1134.18,-139.93 1142.98,-145.842 1144.74,-139.069"/>
</g>
<!-- 10R_R64_13 -->
<g id="node13" class="node"><title>10R_R64_13</title>
<ellipse fill="white" stroke="black" cx="1235.5" cy="-127.79" rx="62.8651" ry="16.0303"/>
<text text-anchor="middle" x="1235.5" y="-124.09" font-family="Times,serif" font-size="14.00">10R_R64_13</text>
</g>
<!-- 10R_R64_19x10R_R64_18&#45;&gt;10R_R64_13 -->
<g id="edge10" class="edge"><title>10R_R64_19x10R_R64_18&#45;&gt;10R_R64_13</title>
<path fill="none" stroke="black" d="M1295.97,-181.225C1291,-176.913 1274.8,-162.873 1260.43,-150.406"/>
<polygon fill="black" stroke="black" points="1262.56,-147.62 1252.71,-143.713 1257.97,-152.909 1262.56,-147.62"/>
</g>
<!-- 10R_R64_29 -->
<g id="node15" class="node"><title>10R_R64_29</title>
<polygon fill="white" stroke="black" points="1405,-139.29 1316,-139.29 1316,-116.29 1405,-116.29 1405,-139.29"/>
<text text-anchor="middle" x="1360.5" y="-124.09" font-family="Times,serif" font-size="14.00">10R_R64_29</text>
</g>
<!-- 10R_R64_19x10R_R64_18&#45;&gt;10R_R64_29 -->
<g id="edge13" class="edge"><title>10R_R64_19x10R_R64_18&#45;&gt;10R_R64_29</title>
<path fill="none" stroke="black" d="M1299.06,-181.225C1304.7,-176.405 1324.6,-159.429 1340.24,-146.082"/>
<polygon fill="black" stroke="black" points="1342.6,-148.671 1347.93,-139.517 1338.05,-143.346 1342.6,-148.671"/>
</g>
<!-- 10R_R64_16 -->
<g id="node18" class="node"><title>10R_R64_16</title>
<ellipse fill="white" stroke="black" cx="1485.5" cy="-127.79" rx="62.8651" ry="16.0303"/>
<text text-anchor="middle" x="1485.5" y="-124.09" font-family="Times,serif" font-size="14.00">10R_R64_16</text>
</g>
<!-- 10R_R64_19x10R_R64_18&#45;&gt;10R_R64_16 -->
<g id="edge17" class="edge"><title>10R_R64_19x10R_R64_18&#45;&gt;10R_R64_16</title>
<path fill="none" stroke="black" d="M1299.61,-181.95C1312.81,-178.175 1385.05,-157.516 1435.48,-143.094"/>
<polygon fill="black" stroke="black" points="1436.6,-146.414 1445.26,-140.299 1434.68,-139.684 1436.6,-146.414"/>
</g>
<!-- 10R_R64_11 -->
<g id="node25" class="node"><title>10R_R64_11</title>
<polygon fill="dimgrey" stroke="black" points="1655,-139.29 1566,-139.29 1566,-116.29 1655,-116.29 1655,-139.29"/>
<text text-anchor="middle" x="1610.5" y="-124.09" font-family="Times,serif" font-size="14.00">10R_R64_11</text>
</g>
<!-- 10R_R64_19x10R_R64_18&#45;&gt;10R_R64_11 -->
<g id="edge25" class="edge"><title>10R_R64_19x10R_R64_18&#45;&gt;10R_R64_11</title>
<path fill="none" stroke="black" d="M1300.09,-182.304C1320.09,-180.342 1452.26,-166.893 1557.5,-144.054 1560.49,-143.405 1563.56,-142.68 1566.65,-141.908"/>
<polygon fill="black" stroke="black" points="1567.68,-145.254 1576.46,-139.318 1565.9,-138.486 1567.68,-145.254"/>
</g>
<!-- 10R_R64_10 -->
<g id="node28" class="node"><title>10R_R64_10</title>
<polygon fill="dimgrey" stroke="black" points="1762,-139.29 1673,-139.29 1673,-116.29 1762,-116.29 1762,-139.29"/>
<text text-anchor="middle" x="1717.5" y="-124.09" font-family="Times,serif" font-size="14.00">10R_R64_10</text>
</g>
<!-- 10R_R64_19x10R_R64_18&#45;&gt;10R_R64_10 -->
<g id="edge28" class="edge"><title>10R_R64_19x10R_R64_18&#45;&gt;10R_R64_10</title>
<path fill="none" stroke="black" d="M1300.15,-182.454C1324.66,-181.5 1514.21,-173.341 1664.5,-144.054 1667.74,-143.422 1671.07,-142.683 1674.41,-141.878"/>
<polygon fill="black" stroke="black" points="1675.55,-145.197 1684.36,-139.302 1673.8,-138.421 1675.55,-145.197"/>
</g>
<!-- 10R_R64_1 -->
<g id="node32" class="node"><title>10R_R64_1</title>
<ellipse fill="dimgrey" stroke="black" cx="1837.5" cy="-127.79" rx="57.9655" ry="16.0303"/>
<text text-anchor="middle" x="1837.5" y="-124.09" font-family="Times,serif" font-size="14.00">10R_R64_1</text>
</g>
<!-- 10R_R64_19x10R_R64_18&#45;&gt;10R_R64_1 -->
<g id="edge32" class="edge"><title>10R_R64_19x10R_R64_18&#45;&gt;10R_R64_1</title>
<path fill="none" stroke="black" d="M1300.17,-182.487C1328.38,-181.755 1574.88,-174.606 1771.5,-144.054 1776.26,-143.314 1781.19,-142.42 1786.11,-141.44"/>
<polygon fill="black" stroke="black" points="1787.07,-144.814 1796.14,-139.33 1785.63,-137.964 1787.07,-144.814"/>
</g>
<!-- 10R_R64_19 -->
<g id="node6" class="node"><title>10R_R64_19</title>
<polygon fill="#66cdaa" stroke="black" points="989,-250.817 900,-250.817 900,-227.817 989,-227.817 989,-250.817"/>
<text text-anchor="middle" x="944.5" y="-235.617" font-family="Times,serif" font-size="14.00">10R_R64_19</text>
</g>
<!-- 10R_R64_19&#45;&gt;10R_R64_19x10R_R64_18 -->
<g id="edge4" class="edge"><title>10R_R64_19&#45;&gt;10R_R64_19x10R_R64_18</title>
<path fill="none" stroke="black" d="M989.208,-231.508C1070.43,-219.137 1238.17,-193.59 1285.07,-186.446"/>
<polygon fill="black" stroke="black" points="1285.72,-189.888 1295.08,-184.922 1284.67,-182.968 1285.72,-189.888"/>
</g>
<!-- 10R_R64_19x10R_R64_34 -->
<g id="node7" class="node"><title>10R_R64_19x10R_R64_34</title>
<polygon fill="none" stroke="black" points="704.5,-187.054 701,-183.554 704.5,-180.054 708,-183.554 704.5,-187.054"/>
</g>
<!-- 10R_R64_19&#45;&gt;10R_R64_19x10R_R64_34 -->
<g id="edge5" class="edge"><title>10R_R64_19&#45;&gt;10R_R64_19x10R_R64_34</title>
<path fill="none" stroke="black" d="M899.92,-228.331C843.685,-215.733 750.286,-194.811 716.865,-187.324"/>
<polygon fill="black" stroke="black" points="717.244,-183.822 706.72,-185.051 715.713,-190.653 717.244,-183.822"/>
</g>
<!-- 10R_R64_22 -->
<g id="node14" class="node"><title>10R_R64_22</title>
<ellipse fill="dimgrey" stroke="black" cx="169.5" cy="-127.79" rx="62.8651" ry="16.0303"/>
<text text-anchor="middle" x="169.5" y="-124.09" font-family="Times,serif" font-size="14.00">10R_R64_22</text>
</g>
<!-- 10R_R64_19x10R_R64_34&#45;&gt;10R_R64_22 -->
<g id="edge11" class="edge"><title>10R_R64_19x10R_R64_34&#45;&gt;10R_R64_22</title>
<path fill="none" stroke="black" d="M701.892,-182.467C674.3,-181.524 433.197,-172.639 240.5,-144.054 235.332,-143.287 229.977,-142.369 224.631,-141.368"/>
<polygon fill="black" stroke="black" points="224.899,-137.854 214.412,-139.36 223.549,-144.722 224.899,-137.854"/>
</g>
<!-- 10R_R64_25 -->
<g id="node23" class="node"><title>10R_R64_25</title>
<ellipse fill="dimgrey" stroke="black" cx="419.5" cy="-127.79" rx="62.8651" ry="16.0303"/>
<text text-anchor="middle" x="419.5" y="-124.09" font-family="Times,serif" font-size="14.00">10R_R64_25</text>
</g>
<!-- 10R_R64_19x10R_R64_34&#45;&gt;10R_R64_25 -->
<g id="edge21" class="edge"><title>10R_R64_19x10R_R64_34&#45;&gt;10R_R64_25</title>
<path fill="none" stroke="black" d="M701.95,-182.129C684.194,-179.161 577.161,-161.159 490.5,-144.054 485.726,-143.112 480.778,-142.106 475.817,-141.079"/>
<polygon fill="black" stroke="black" points="476.171,-137.577 465.666,-138.951 474.735,-144.428 476.171,-137.577"/>
</g>
<!-- 10R_R64_21 -->
<g id="node24" class="node"><title>10R_R64_21</title>
<ellipse fill="dimgrey" stroke="black" cx="669.5" cy="-127.79" rx="62.8651" ry="16.0303"/>
<text text-anchor="middle" x="669.5" y="-124.09" font-family="Times,serif" font-size="14.00">10R_R64_21</text>
</g>
<!-- 10R_R64_19x10R_R64_34&#45;&gt;10R_R64_21 -->
<g id="edge23" class="edge"><title>10R_R64_19x10R_R64_34&#45;&gt;10R_R64_21</title>
<path fill="none" stroke="black" d="M703.335,-180.765C700.405,-176.264 692.426,-164.007 684.952,-152.526"/>
<polygon fill="black" stroke="black" points="687.816,-150.511 679.427,-144.04 681.95,-154.33 687.816,-150.511"/>
</g>
<!-- 10R_R64_27 -->
<g id="node27" class="node"><title>10R_R64_27</title>
<ellipse fill="dimgrey" stroke="black" cx="813.5" cy="-127.79" rx="62.8651" ry="16.0303"/>
<text text-anchor="middle" x="813.5" y="-124.09" font-family="Times,serif" font-size="14.00">10R_R64_27</text>
</g>
<!-- 10R_R64_19x10R_R64_34&#45;&gt;10R_R64_27 -->
<g id="edge27" class="edge"><title>10R_R64_19x10R_R64_34&#45;&gt;10R_R64_27</title>
<path fill="none" stroke="black" d="M706.392,-181.621C714.748,-177.499 749.154,-160.528 776.747,-146.918"/>
<polygon fill="black" stroke="black" points="778.376,-150.018 785.796,-142.455 775.28,-143.74 778.376,-150.018"/>
</g>
<!-- 10R_R64_37 -->
<g id="node8" class="node"><title>10R_R64_37</title>
<polygon fill="white" stroke="black" points="339,-139.29 250,-139.29 250,-116.29 339,-116.29 339,-139.29"/>
<text text-anchor="middle" x="294.5" y="-124.09" font-family="Times,serif" font-size="14.00">10R_R64_37</text>
</g>
<!-- 10R_R64_37x10R_R64_25 -->
<g id="node9" class="node"><title>10R_R64_37x10R_R64_25</title>
<polygon fill="none" stroke="black" points="366.5,-75.5269 363,-72.0269 366.5,-68.5269 370,-72.0269 366.5,-75.5269"/>
</g>
<!-- 10R_R64_37&#45;&gt;10R_R64_37x10R_R64_25 -->
<g id="edge6" class="edge"><title>10R_R64_37&#45;&gt;10R_R64_37x10R_R64_25</title>
<path fill="none" stroke="black" d="M308.725,-116.168C322.925,-105.565 344.366,-89.5545 356.744,-80.312"/>
<polygon fill="black" stroke="black" points="358.96,-83.0256 364.878,-74.238 354.771,-77.4168 358.96,-83.0256"/>
</g>
<!-- 10R_R64_38 -->
<g id="node21" class="node"><title>10R_R64_38</title>
<ellipse fill="white" stroke="black" cx="366.5" cy="-16.2635" rx="62.8651" ry="16.0303"/>
<text text-anchor="middle" x="366.5" y="-12.5635" font-family="Times,serif" font-size="14.00">10R_R64_38</text>
</g>
<!-- 10R_R64_37x10R_R64_25&#45;&gt;10R_R64_38 -->
<g id="edge19" class="edge"><title>10R_R64_37x10R_R64_25&#45;&gt;10R_R64_38</title>
<path fill="none" stroke="black" d="M366.5,-68.4338C366.5,-63.6514 366.5,-52.9811 366.5,-42.6151"/>
<polygon fill="black" stroke="black" points="370,-42.5799 366.5,-32.58 363,-42.58 370,-42.5799"/>
</g>
<!-- 10R_R64_36 -->
<g id="node11" class="node"><title>10R_R64_36</title>
<polygon fill="white" stroke="black" points="1049,-362.344 960,-362.344 960,-339.344 1049,-339.344 1049,-362.344"/>
<text text-anchor="middle" x="1004.5" y="-347.144" font-family="Times,serif" font-size="14.00">10R_R64_36</text>
</g>
<!-- 10R_R64_36&#45;&gt;10R_R64_36x10R_R64_35 -->
<g id="edge8" class="edge"><title>10R_R64_36&#45;&gt;10R_R64_36x10R_R64_35</title>
<path fill="none" stroke="black" d="M1016.75,-339.222C1028.73,-328.833 1046.7,-313.253 1057.44,-303.934"/>
<polygon fill="black" stroke="black" points="1059.84,-306.488 1065.1,-297.292 1055.26,-301.199 1059.84,-306.488"/>
</g>
<!-- 10R_R64_22&#45;&gt;10R_R64_39x10R_R64_22 -->
<g id="edge12" class="edge"><title>10R_R64_22&#45;&gt;10R_R64_39x10R_R64_22</title>
<path fill="none" stroke="black" d="M148.061,-112.383C132.348,-101.823 111.725,-87.9631 99.6121,-79.8227"/>
<polygon fill="black" stroke="black" points="101.296,-76.7377 91.0444,-74.0648 97.392,-82.5476 101.296,-76.7377"/>
</g>
<!-- 10R_R64_34&#45;&gt;10R_R64_19x10R_R64_34 -->
<g id="edge15" class="edge"><title>10R_R64_34&#45;&gt;10R_R64_19x10R_R64_34</title>
<path fill="none" stroke="black" d="M762.329,-223.91C746.813,-213.35 726.447,-199.49 714.486,-191.35"/>
<polygon fill="black" stroke="black" points="716.261,-188.324 706.025,-185.592 712.323,-194.111 716.261,-188.324"/>
</g>
<!-- 10R_R64_35 -->
<g id="node17" class="node"><title>10R_R64_35</title>
<ellipse fill="white" stroke="black" cx="1129.5" cy="-350.844" rx="62.8651" ry="16.0303"/>
<text text-anchor="middle" x="1129.5" y="-347.144" font-family="Times,serif" font-size="14.00">10R_R64_35</text>
</g>
<!-- 10R_R64_35&#45;&gt;10R_R64_36x10R_R64_35 -->
<g id="edge16" class="edge"><title>10R_R64_35&#45;&gt;10R_R64_36x10R_R64_35</title>
<path fill="none" stroke="black" d="M1112.28,-335.153C1100.51,-325.107 1085.36,-312.179 1075.79,-304.008"/>
<polygon fill="black" stroke="black" points="1077.89,-301.199 1068.01,-297.37 1073.35,-306.524 1077.89,-301.199"/>
</g>
<!-- 10R_R64_43 -->
<g id="node19" class="node"><title>10R_R64_43</title>
<polygon fill="white" stroke="black" points="589,-139.29 500,-139.29 500,-116.29 589,-116.29 589,-139.29"/>
<text text-anchor="middle" x="544.5" y="-124.09" font-family="Times,serif" font-size="14.00">10R_R64_43</text>
</g>
<!-- 10R_R64_43x10R_R64_21 -->
<g id="node20" class="node"><title>10R_R64_43x10R_R64_21</title>
<polygon fill="none" stroke="black" points="607.5,-75.5269 604,-72.0269 607.5,-68.5269 611,-72.0269 607.5,-75.5269"/>
</g>
<!-- 10R_R64_43&#45;&gt;10R_R64_43x10R_R64_21 -->
<g id="edge18" class="edge"><title>10R_R64_43&#45;&gt;10R_R64_43x10R_R64_21</title>
<path fill="none" stroke="black" d="M556.947,-116.168C569.121,-105.779 587.378,-90.1991 598.297,-80.8803"/>
<polygon fill="black" stroke="black" points="600.746,-83.3918 606.081,-74.238 596.202,-78.0671 600.746,-83.3918"/>
</g>
<!-- 10R_R64_44 -->
<g id="node29" class="node"><title>10R_R64_44</title>
<polygon fill="white" stroke="black" points="652,-27.7635 563,-27.7635 563,-4.76346 652,-4.76346 652,-27.7635"/>
<text text-anchor="middle" x="607.5" y="-12.5635" font-family="Times,serif" font-size="14.00">10R_R64_44</text>
</g>
<!-- 10R_R64_43x10R_R64_21&#45;&gt;10R_R64_44 -->
<g id="edge29" class="edge"><title>10R_R64_43x10R_R64_21&#45;&gt;10R_R64_44</title>
<path fill="none" stroke="black" d="M607.5,-68.4338C607.5,-62.9657 607.5,-49.8005 607.5,-38.1938"/>
<polygon fill="black" stroke="black" points="611,-37.8452 607.5,-27.8453 604,-37.8453 611,-37.8452"/>
</g>
<!-- 10R_R64_25&#45;&gt;10R_R64_37x10R_R64_25 -->
<g id="edge22" class="edge"><title>10R_R64_25&#45;&gt;10R_R64_37x10R_R64_25</title>
<path fill="none" stroke="black" d="M404.737,-111.814C395.155,-102.095 383.009,-89.7736 375.008,-81.6576"/>
<polygon fill="black" stroke="black" points="377.269,-78.9656 367.756,-74.3012 372.284,-83.8798 377.269,-78.9656"/>
</g>
<!-- 10R_R64_21&#45;&gt;10R_R64_43x10R_R64_21 -->
<g id="edge24" class="edge"><title>10R_R64_21&#45;&gt;10R_R64_43x10R_R64_21</title>
<path fill="none" stroke="black" d="M652.558,-112.099C640.973,-102.053 626.064,-89.1251 616.642,-80.954"/>
<polygon fill="black" stroke="black" points="618.835,-78.2232 608.987,-74.316 614.249,-83.5118 618.835,-78.2232"/>
</g>
<!-- 10R_R64_11x10R_R64_47 -->
<g id="node26" class="node"><title>10R_R64_11x10R_R64_47</title>
<polygon fill="none" stroke="black" points="1793.5,-75.5269 1790,-72.0269 1793.5,-68.5269 1797,-72.0269 1793.5,-75.5269"/>
</g>
<!-- 10R_R64_11&#45;&gt;10R_R64_11x10R_R64_47 -->
<g id="edge26" class="edge"><title>10R_R64_11&#45;&gt;10R_R64_11x10R_R64_47</title>
<path fill="none" stroke="black" d="M1646.65,-116.168C1688.55,-103.861 1755.24,-84.2687 1781.91,-76.4307"/>
<polygon fill="black" stroke="black" points="1782.91,-79.7876 1791.51,-73.6107 1780.93,-73.0714 1782.91,-79.7876"/>
</g>
<!-- 10R_R64_46 -->
<g id="node30" class="node"><title>10R_R64_46</title>
<polygon fill="white" stroke="black" points="1838,-27.7635 1749,-27.7635 1749,-4.76346 1838,-4.76346 1838,-27.7635"/>
<text text-anchor="middle" x="1793.5" y="-12.5635" font-family="Times,serif" font-size="14.00">10R_R64_46</text>
</g>
<!-- 10R_R64_11x10R_R64_47&#45;&gt;10R_R64_46 -->
<g id="edge30" class="edge"><title>10R_R64_11x10R_R64_47&#45;&gt;10R_R64_46</title>
<path fill="none" stroke="black" d="M1793.5,-68.4338C1793.5,-62.9657 1793.5,-49.8005 1793.5,-38.1938"/>
<polygon fill="black" stroke="black" points="1797,-37.8452 1793.5,-27.8453 1790,-37.8453 1797,-37.8452"/>
</g>
<!-- 10R_R64_47 -->
<g id="node33" class="node"><title>10R_R64_47</title>
<ellipse fill="white" stroke="black" cx="1976.5" cy="-127.79" rx="62.8651" ry="16.0303"/>
<text text-anchor="middle" x="1976.5" y="-124.09" font-family="Times,serif" font-size="14.00">10R_R64_47</text>
</g>
<!-- 10R_R64_47&#45;&gt;10R_R64_11x10R_R64_47 -->
<g id="edge33" class="edge"><title>10R_R64_47&#45;&gt;10R_R64_11x10R_R64_47</title>
<path fill="none" stroke="black" d="M1936.79,-115.124C1895.07,-102.866 1831.91,-84.3123 1805.64,-76.5923"/>
<polygon fill="black" stroke="black" points="1806.34,-73.1504 1795.76,-73.6897 1804.36,-79.8666 1806.34,-73.1504"/>
</g>
</g>
</svg>
