<?xml version="1.0" encoding="UTF-8" standalone="no"?>
<!DOCTYPE svg PUBLIC "-//W3C//DTD SVG 1.1//EN"
 "http://www.w3.org/Graphics/SVG/1.1/DTD/svg11.dtd">
<!-- Generated by graphviz version 2.38.0 (20140413.2041)
 -->
<!-- Title: %3 Pages: 1 -->
<svg width="1796pt" height="375pt"
 viewBox="0.00 0.00 1795.81 375.11" xmlns="http://www.w3.org/2000/svg" xmlns:xlink="http://www.w3.org/1999/xlink">
<g id="graph0" class="graph" transform="scale(1 1) rotate(0) translate(4 371.108)">
<title>%3</title>
<polygon fill="white" stroke="none" points="-4,4 -4,-371.108 1791.81,-371.108 1791.81,4 -4,4"/>
<!-- 168_14 -->
<g id="node1" class="node"><title>168_14</title>
<ellipse fill="white" stroke="black" cx="115.5" cy="-16.2635" rx="40.1111" ry="16.0303"/>
<text text-anchor="middle" x="115.5" y="-12.5635" font-family="Times,serif" font-size="14.00">168_14</text>
</g>
<!-- 168_24x168_99 -->
<g id="node2" class="node"><title>168_24x168_99</title>
<polygon fill="none" stroke="black" points="434.5,-75.5269 431,-72.0269 434.5,-68.5269 438,-72.0269 434.5,-75.5269"/>
</g>
<!-- 168_24x168_99&#45;&gt;168_14 -->
<g id="edge1" class="edge"><title>168_24x168_99&#45;&gt;168_14</title>
<path fill="none" stroke="black" d="M432.068,-70.8301C412.158,-69.1886 273.968,-57.2138 164.5,-32.5269 161.327,-31.8115 158.064,-30.9897 154.799,-30.1066"/>
<polygon fill="black" stroke="black" points="155.67,-26.7154 145.092,-27.3178 153.737,-33.4432 155.67,-26.7154"/>
</g>
<!-- 168_8 -->
<g id="node23" class="node"><title>168_8</title>
<polygon fill="#66cdaa" stroke="black" points="223.5,-27.7635 173.5,-27.7635 173.5,-4.76346 223.5,-4.76346 223.5,-27.7635"/>
<text text-anchor="middle" x="198.5" y="-12.5635" font-family="Times,serif" font-size="14.00">168_8</text>
</g>
<!-- 168_24x168_99&#45;&gt;168_8 -->
<g id="edge21" class="edge"><title>168_24x168_99&#45;&gt;168_8</title>
<path fill="none" stroke="black" d="M432.046,-70.7789C414.968,-69.0078 312.18,-57.6251 232.5,-32.5269 231.609,-32.2463 230.71,-31.9487 229.808,-31.6371"/>
<polygon fill="black" stroke="black" points="230.743,-28.2457 220.155,-27.8863 228.208,-34.7705 230.743,-28.2457"/>
</g>
<!-- 168_13 -->
<g id="node24" class="node"><title>168_13</title>
<polygon fill="white" stroke="black" points="299,-27.7635 242,-27.7635 242,-4.76346 299,-4.76346 299,-27.7635"/>
<text text-anchor="middle" x="270.5" y="-12.5635" font-family="Times,serif" font-size="14.00">168_13</text>
</g>
<!-- 168_24x168_99&#45;&gt;168_13 -->
<g id="edge22" class="edge"><title>168_24x168_99&#45;&gt;168_13</title>
<path fill="none" stroke="black" d="M432.38,-70.4674C420.151,-67.2217 357.408,-50.3385 307.5,-32.5269 306.486,-32.1649 305.458,-31.7907 304.424,-31.4073"/>
<polygon fill="black" stroke="black" points="305.639,-28.1248 295.05,-27.7799 303.113,-34.653 305.639,-28.1248"/>
</g>
<!-- 168_16 -->
<g id="node27" class="node"><title>168_16</title>
<polygon fill="#66cdaa" stroke="black" points="374,-27.7635 317,-27.7635 317,-4.76346 374,-4.76346 374,-27.7635"/>
<text text-anchor="middle" x="345.5" y="-12.5635" font-family="Times,serif" font-size="14.00">168_16</text>
</g>
<!-- 168_24x168_99&#45;&gt;168_16 -->
<g id="edge25" class="edge"><title>168_24x168_99&#45;&gt;168_16</title>
<path fill="none" stroke="black" d="M432.641,-69.904C424.884,-65.2181 394.443,-46.8291 371.711,-33.097"/>
<polygon fill="black" stroke="black" points="373.506,-30.0924 363.137,-27.9175 369.886,-36.084 373.506,-30.0924"/>
</g>
<!-- 168_9 -->
<g id="node28" class="node"><title>168_9</title>
<ellipse fill="white" stroke="black" cx="427.5" cy="-16.2635" rx="35.2113" ry="16.0303"/>
<text text-anchor="middle" x="427.5" y="-12.5635" font-family="Times,serif" font-size="14.00">168_9</text>
</g>
<!-- 168_24x168_99&#45;&gt;168_9 -->
<g id="edge26" class="edge"><title>168_24x168_99&#45;&gt;168_9</title>
<path fill="none" stroke="black" d="M434.199,-68.7168C433.603,-64.1342 432.209,-53.4296 430.846,-42.9642"/>
<polygon fill="black" stroke="black" points="434.287,-42.2785 429.525,-32.8141 427.345,-43.1823 434.287,-42.2785"/>
</g>
<!-- 168_12 -->
<g id="node29" class="node"><title>168_12</title>
<polygon fill="#66cdaa" stroke="black" points="538,-27.7635 481,-27.7635 481,-4.76346 538,-4.76346 538,-27.7635"/>
<text text-anchor="middle" x="509.5" y="-12.5635" font-family="Times,serif" font-size="14.00">168_12</text>
</g>
<!-- 168_24x168_99&#45;&gt;168_12 -->
<g id="edge27" class="edge"><title>168_24x168_99&#45;&gt;168_12</title>
<path fill="none" stroke="black" d="M436.066,-69.904C442.488,-65.301 467.354,-47.4758 486.389,-33.8304"/>
<polygon fill="black" stroke="black" points="488.549,-36.5883 494.638,-27.9175 484.471,-30.8991 488.549,-36.5883"/>
</g>
<!-- 168_11 -->
<g id="node30" class="node"><title>168_11</title>
<ellipse fill="#66cdaa" stroke="black" cx="596.5" cy="-16.2635" rx="40.1111" ry="16.0303"/>
<text text-anchor="middle" x="596.5" y="-12.5635" font-family="Times,serif" font-size="14.00">168_11</text>
</g>
<!-- 168_24x168_99&#45;&gt;168_11 -->
<g id="edge28" class="edge"><title>168_24x168_99&#45;&gt;168_11</title>
<path fill="none" stroke="black" d="M436.548,-70.3471C448.815,-66.2761 513.474,-44.8176 556.734,-30.4607"/>
<polygon fill="black" stroke="black" points="558.031,-33.7182 566.419,-27.2465 555.826,-27.0745 558.031,-33.7182"/>
</g>
<!-- 168_10 -->
<g id="node35" class="node"><title>168_10</title>
<polygon fill="#66cdaa" stroke="black" points="712,-27.7635 655,-27.7635 655,-4.76346 712,-4.76346 712,-27.7635"/>
<text text-anchor="middle" x="683.5" y="-12.5635" font-family="Times,serif" font-size="14.00">168_10</text>
</g>
<!-- 168_24x168_99&#45;&gt;168_10 -->
<g id="edge33" class="edge"><title>168_24x168_99&#45;&gt;168_10</title>
<path fill="none" stroke="black" d="M437.052,-70.7585C454.819,-68.8502 561.789,-56.7084 645.5,-32.5269 646.909,-32.12 648.337,-31.6795 649.773,-31.2136"/>
<polygon fill="black" stroke="black" points="650.974,-34.5013 659.224,-27.8545 648.63,-27.9055 650.974,-34.5013"/>
</g>
<!-- 168_7 -->
<g id="node36" class="node"><title>168_7</title>
<polygon fill="dimgrey" stroke="black" points="780.5,-27.7635 730.5,-27.7635 730.5,-4.76346 780.5,-4.76346 780.5,-27.7635"/>
<text text-anchor="middle" x="755.5" y="-12.5635" font-family="Times,serif" font-size="14.00">168_7</text>
</g>
<!-- 168_24x168_99&#45;&gt;168_7 -->
<g id="edge34" class="edge"><title>168_24x168_99&#45;&gt;168_7</title>
<path fill="none" stroke="black" d="M437.103,-70.9503C458.403,-70.2682 606.144,-64.4868 720.5,-32.5269 721.721,-32.1857 722.955,-31.8102 724.193,-31.4076"/>
<polygon fill="black" stroke="black" points="725.465,-34.6687 733.621,-27.9052 723.028,-28.1069 725.465,-34.6687"/>
</g>
<!-- 168_15 -->
<g id="node43" class="node"><title>168_15</title>
<polygon fill="#66cdaa" stroke="black" points="57,-27.7635 0,-27.7635 0,-4.76346 57,-4.76346 57,-27.7635"/>
<text text-anchor="middle" x="28.5" y="-12.5635" font-family="Times,serif" font-size="14.00">168_15</text>
</g>
<!-- 168_24x168_99&#45;&gt;168_15 -->
<g id="edge41" class="edge"><title>168_24x168_99&#45;&gt;168_15</title>
<path fill="none" stroke="black" d="M431.818,-71.029C407.039,-70.9915 215.514,-69.4819 66.5,-32.5269 64.8396,-32.1151 63.1556,-31.6459 61.4671,-31.1337"/>
<polygon fill="black" stroke="black" points="62.4752,-27.7792 51.8805,-27.8303 60.1946,-34.3973 62.4752,-27.7792"/>
</g>
<!-- 168_18 -->
<g id="node3" class="node"><title>168_18</title>
<ellipse fill="dimgrey" stroke="black" cx="1162.5" cy="-16.2635" rx="40.1111" ry="16.0303"/>
<text text-anchor="middle" x="1162.5" y="-12.5635" font-family="Times,serif" font-size="14.00">168_18</text>
</g>
<!-- 168_19x168_3 -->
<g id="node4" class="node"><title>168_19x168_3</title>
<polygon fill="none" stroke="black" points="1162.5,-75.5269 1159,-72.0269 1162.5,-68.5269 1166,-72.0269 1162.5,-75.5269"/>
</g>
<!-- 168_19x168_3&#45;&gt;168_18 -->
<g id="edge2" class="edge"><title>168_19x168_3&#45;&gt;168_18</title>
<path fill="none" stroke="black" d="M1162.5,-68.4338C1162.5,-63.6514 1162.5,-52.9811 1162.5,-42.6151"/>
<polygon fill="black" stroke="black" points="1166,-42.5799 1162.5,-32.58 1159,-42.58 1166,-42.5799"/>
</g>
<!-- 168_42 -->
<g id="node46" class="node"><title>168_42</title>
<polygon fill="#66cdaa" stroke="black" points="1278,-27.7635 1221,-27.7635 1221,-4.76346 1278,-4.76346 1278,-27.7635"/>
<text text-anchor="middle" x="1249.5" y="-12.5635" font-family="Times,serif" font-size="14.00">168_42</text>
</g>
<!-- 168_19x168_3&#45;&gt;168_42 -->
<g id="edge43" class="edge"><title>168_19x168_3&#45;&gt;168_42</title>
<path fill="none" stroke="black" d="M1164.32,-69.904C1171.87,-65.2388 1201.39,-46.9916 1223.58,-33.2795"/>
<polygon fill="black" stroke="black" points="1225.59,-36.1518 1232.26,-27.9175 1221.91,-30.1971 1225.59,-36.1518"/>
</g>
<!-- 168_43 -->
<g id="node47" class="node"><title>168_43</title>
<polygon fill="#66cdaa" stroke="black" points="1353,-27.7635 1296,-27.7635 1296,-4.76346 1353,-4.76346 1353,-27.7635"/>
<text text-anchor="middle" x="1324.5" y="-12.5635" font-family="Times,serif" font-size="14.00">168_43</text>
</g>
<!-- 168_19x168_3&#45;&gt;168_43 -->
<g id="edge44" class="edge"><title>168_19x168_3&#45;&gt;168_43</title>
<path fill="none" stroke="black" d="M1164.57,-70.4535C1176.49,-67.1306 1237.65,-49.8898 1286.5,-32.5269 1287.38,-32.2144 1288.27,-31.8938 1289.16,-31.5668"/>
<polygon fill="black" stroke="black" points="1290.74,-34.7111 1298.85,-27.8924 1288.26,-28.166 1290.74,-34.7111"/>
</g>
<!-- 168_44 -->
<g id="node48" class="node"><title>168_44</title>
<ellipse fill="#66cdaa" stroke="black" cx="1411.5" cy="-16.2635" rx="40.1111" ry="16.0303"/>
<text text-anchor="middle" x="1411.5" y="-12.5635" font-family="Times,serif" font-size="14.00">168_44</text>
</g>
<!-- 168_19x168_3&#45;&gt;168_44 -->
<g id="edge45" class="edge"><title>168_19x168_3&#45;&gt;168_44</title>
<path fill="none" stroke="black" d="M1164.89,-70.663C1181.5,-68.109 1281.59,-52.3954 1361.5,-32.5269 1364.71,-31.7276 1368.03,-30.8459 1371.35,-29.9216"/>
<polygon fill="black" stroke="black" points="1372.6,-33.2028 1381.24,-27.0606 1370.66,-26.4787 1372.6,-33.2028"/>
</g>
<!-- 168_41 -->
<g id="node50" class="node"><title>168_41</title>
<polygon fill="#66cdaa" stroke="black" points="1527,-27.7635 1470,-27.7635 1470,-4.76346 1527,-4.76346 1527,-27.7635"/>
<text text-anchor="middle" x="1498.5" y="-12.5635" font-family="Times,serif" font-size="14.00">168_41</text>
</g>
<!-- 168_19x168_3&#45;&gt;168_41 -->
<g id="edge48" class="edge"><title>168_19x168_3&#45;&gt;168_41</title>
<path fill="none" stroke="black" d="M1164.93,-70.9475C1186.04,-70.2108 1340.37,-63.8702 1460.5,-32.5269 1461.96,-32.1455 1463.44,-31.7223 1464.93,-31.2667"/>
<polygon fill="black" stroke="black" points="1466.38,-34.4687 1474.69,-27.8936 1464.09,-27.8529 1466.38,-34.4687"/>
</g>
<!-- 168_39 -->
<g id="node52" class="node"><title>168_39</title>
<polygon fill="#66cdaa" stroke="black" points="1029,-27.7635 972,-27.7635 972,-4.76346 1029,-4.76346 1029,-27.7635"/>
<text text-anchor="middle" x="1000.5" y="-12.5635" font-family="Times,serif" font-size="14.00">168_39</text>
</g>
<!-- 168_19x168_3&#45;&gt;168_39 -->
<g id="edge51" class="edge"><title>168_19x168_3&#45;&gt;168_39</title>
<path fill="none" stroke="black" d="M1160.41,-70.4628C1148.38,-67.1917 1086.65,-50.1909 1037.5,-32.5269 1036.49,-32.1626 1035.46,-31.7865 1034.43,-31.4013"/>
<polygon fill="black" stroke="black" points="1035.64,-28.12 1025.06,-27.7644 1033.11,-34.6457 1035.64,-28.12"/>
</g>
<!-- 168_40 -->
<g id="node54" class="node"><title>168_40</title>
<polygon fill="#66cdaa" stroke="black" points="1104,-27.7635 1047,-27.7635 1047,-4.76346 1104,-4.76346 1104,-27.7635"/>
<text text-anchor="middle" x="1075.5" y="-12.5635" font-family="Times,serif" font-size="14.00">168_40</text>
</g>
<!-- 168_19x168_3&#45;&gt;168_40 -->
<g id="edge54" class="edge"><title>168_19x168_3&#45;&gt;168_40</title>
<path fill="none" stroke="black" d="M1160.68,-69.904C1153.13,-65.2388 1123.61,-46.9916 1101.42,-33.2795"/>
<polygon fill="black" stroke="black" points="1103.09,-30.1971 1092.74,-27.9175 1099.41,-36.1518 1103.09,-30.1971"/>
</g>
<!-- 168_25 -->
<g id="node5" class="node"><title>168_25</title>
<ellipse fill="#66cdaa" stroke="black" cx="1345.5" cy="-239.317" rx="40.1111" ry="16.0303"/>
<text text-anchor="middle" x="1345.5" y="-235.617" font-family="Times,serif" font-size="14.00">168_25</text>
</g>
<!-- 168_1x168_25 -->
<g id="node6" class="node"><title>168_1x168_25</title>
<polygon fill="none" stroke="black" points="1387.5,-187.054 1384,-183.554 1387.5,-180.054 1391,-183.554 1387.5,-187.054"/>
</g>
<!-- 168_25&#45;&gt;168_1x168_25 -->
<g id="edge3" class="edge"><title>168_25&#45;&gt;168_1x168_25</title>
<path fill="none" stroke="black" d="M1356.98,-223.626C1364.27,-214.287 1373.51,-202.458 1379.91,-194.275"/>
<polygon fill="black" stroke="black" points="1382.87,-196.169 1386.27,-186.134 1377.35,-191.86 1382.87,-196.169"/>
</g>
<!-- 168_26 -->
<g id="node31" class="node"><title>168_26</title>
<ellipse fill="#66cdaa" stroke="black" cx="1474.5" cy="-127.79" rx="40.1111" ry="16.0303"/>
<text text-anchor="middle" x="1474.5" y="-124.09" font-family="Times,serif" font-size="14.00">168_26</text>
</g>
<!-- 168_1x168_25&#45;&gt;168_26 -->
<g id="edge29" class="edge"><title>168_1x168_25&#45;&gt;168_26</title>
<path fill="none" stroke="black" d="M1389.32,-181.431C1396.44,-177.031 1423.11,-160.548 1444.73,-147.184"/>
<polygon fill="black" stroke="black" points="1446.65,-150.112 1453.32,-141.878 1442.98,-144.158 1446.65,-150.112"/>
</g>
<!-- 168_27 -->
<g id="node32" class="node"><title>168_27</title>
<ellipse fill="#66cdaa" stroke="black" cx="1573.5" cy="-127.79" rx="40.1111" ry="16.0303"/>
<text text-anchor="middle" x="1573.5" y="-124.09" font-family="Times,serif" font-size="14.00">168_27</text>
</g>
<!-- 168_1x168_25&#45;&gt;168_27 -->
<g id="edge30" class="edge"><title>168_1x168_25&#45;&gt;168_27</title>
<path fill="none" stroke="black" d="M1389.75,-181.936C1402.72,-178.366 1469.35,-159.981 1523.5,-144.054 1526.59,-143.145 1529.79,-142.194 1533,-141.231"/>
<polygon fill="black" stroke="black" points="1534.03,-144.576 1542.59,-138.334 1532.01,-137.875 1534.03,-144.576"/>
</g>
<!-- 168_28 -->
<g id="node33" class="node"><title>168_28</title>
<polygon fill="#66cdaa" stroke="black" points="1266,-139.29 1209,-139.29 1209,-116.29 1266,-116.29 1266,-139.29"/>
<text text-anchor="middle" x="1237.5" y="-124.09" font-family="Times,serif" font-size="14.00">168_28</text>
</g>
<!-- 168_1x168_25&#45;&gt;168_28 -->
<g id="edge31" class="edge"><title>168_1x168_25&#45;&gt;168_28</title>
<path fill="none" stroke="black" d="M1385.33,-181.87C1373.81,-178.232 1318.73,-160.692 1274.5,-144.054 1273.65,-143.733 1272.78,-143.404 1271.91,-143.07"/>
<polygon fill="black" stroke="black" points="1273.08,-139.768 1262.49,-139.35 1270.51,-146.279 1273.08,-139.768"/>
</g>
<!-- 168_29 -->
<g id="node34" class="node"><title>168_29</title>
<polygon fill="#66cdaa" stroke="black" points="1341,-139.29 1284,-139.29 1284,-116.29 1341,-116.29 1341,-139.29"/>
<text text-anchor="middle" x="1312.5" y="-124.09" font-family="Times,serif" font-size="14.00">168_29</text>
</g>
<!-- 168_1x168_25&#45;&gt;168_29 -->
<g id="edge32" class="edge"><title>168_1x168_25&#45;&gt;168_29</title>
<path fill="none" stroke="black" d="M1385.93,-181.431C1379.51,-176.828 1354.65,-159.003 1335.61,-145.357"/>
<polygon fill="black" stroke="black" points="1337.53,-142.426 1327.36,-139.444 1333.45,-148.115 1337.53,-142.426"/>
</g>
<!-- 168_30 -->
<g id="node39" class="node"><title>168_30</title>
<polygon fill="#66cdaa" stroke="black" points="1416,-139.29 1359,-139.29 1359,-116.29 1416,-116.29 1416,-139.29"/>
<text text-anchor="middle" x="1387.5" y="-124.09" font-family="Times,serif" font-size="14.00">168_30</text>
</g>
<!-- 168_1x168_25&#45;&gt;168_30 -->
<g id="edge37" class="edge"><title>168_1x168_25&#45;&gt;168_30</title>
<path fill="none" stroke="black" d="M1387.5,-179.961C1387.5,-174.493 1387.5,-161.327 1387.5,-149.721"/>
<polygon fill="black" stroke="black" points="1391,-149.372 1387.5,-139.372 1384,-149.372 1391,-149.372"/>
</g>
<!-- 168_34 -->
<g id="node7" class="node"><title>168_34</title>
<polygon fill="#66cdaa" stroke="black" points="1732,-27.7635 1675,-27.7635 1675,-4.76346 1732,-4.76346 1732,-27.7635"/>
<text text-anchor="middle" x="1703.5" y="-12.5635" font-family="Times,serif" font-size="14.00">168_34</text>
</g>
<!-- 168_32x168_33 -->
<g id="node8" class="node"><title>168_32x168_33</title>
<polygon fill="none" stroke="black" points="1703.5,-75.5269 1700,-72.0269 1703.5,-68.5269 1707,-72.0269 1703.5,-75.5269"/>
</g>
<!-- 168_32x168_33&#45;&gt;168_34 -->
<g id="edge4" class="edge"><title>168_32x168_33&#45;&gt;168_34</title>
<path fill="none" stroke="black" d="M1703.5,-68.4338C1703.5,-62.9657 1703.5,-49.8005 1703.5,-38.1938"/>
<polygon fill="black" stroke="black" points="1707,-37.8452 1703.5,-27.8453 1700,-37.8453 1707,-37.8452"/>
</g>
<!-- 168_6 -->
<g id="node9" class="node"><title>168_6</title>
<ellipse fill="#66cdaa" stroke="black" cx="661.5" cy="-127.79" rx="35.2113" ry="16.0303"/>
<text text-anchor="middle" x="661.5" y="-124.09" font-family="Times,serif" font-size="14.00">168_6</text>
</g>
<!-- 168_1x168_2 -->
<g id="node10" class="node"><title>168_1x168_2</title>
<polygon fill="none" stroke="black" points="838.5,-187.054 835,-183.554 838.5,-180.054 842,-183.554 838.5,-187.054"/>
</g>
<!-- 168_1x168_2&#45;&gt;168_6 -->
<g id="edge5" class="edge"><title>168_1x168_2&#45;&gt;168_6</title>
<path fill="none" stroke="black" d="M836.312,-181.954C823.685,-178.484 758.864,-160.562 706.5,-144.054 703.933,-143.245 701.29,-142.394 698.631,-141.525"/>
<polygon fill="black" stroke="black" points="699.637,-138.171 689.044,-138.343 697.432,-144.815 699.637,-138.171"/>
</g>
<!-- 168_5 -->
<g id="node11" class="node"><title>168_5</title>
<polygon fill="#66cdaa" stroke="black" points="863.5,-139.29 813.5,-139.29 813.5,-116.29 863.5,-116.29 863.5,-139.29"/>
<text text-anchor="middle" x="838.5" y="-124.09" font-family="Times,serif" font-size="14.00">168_5</text>
</g>
<!-- 168_1x168_2&#45;&gt;168_5 -->
<g id="edge6" class="edge"><title>168_1x168_2&#45;&gt;168_5</title>
<path fill="none" stroke="black" d="M838.5,-179.961C838.5,-174.493 838.5,-161.327 838.5,-149.721"/>
<polygon fill="black" stroke="black" points="842,-149.372 838.5,-139.372 835,-149.372 842,-149.372"/>
</g>
<!-- 168_4 -->
<g id="node13" class="node"><title>168_4</title>
<ellipse fill="#66cdaa" stroke="black" cx="916.5" cy="-127.79" rx="35.2113" ry="16.0303"/>
<text text-anchor="middle" x="916.5" y="-124.09" font-family="Times,serif" font-size="14.00">168_4</text>
</g>
<!-- 168_1x168_2&#45;&gt;168_4 -->
<g id="edge8" class="edge"><title>168_1x168_2&#45;&gt;168_4</title>
<path fill="none" stroke="black" d="M840.129,-181.431C846.466,-177.063 870.073,-160.791 889.384,-147.481"/>
<polygon fill="black" stroke="black" points="891.629,-150.184 897.876,-141.627 887.656,-144.421 891.629,-150.184"/>
</g>
<!-- 168_3 -->
<g id="node15" class="node"><title>168_3</title>
<ellipse fill="dimgrey" stroke="black" cx="1080.5" cy="-127.79" rx="35.2113" ry="16.0303"/>
<text text-anchor="middle" x="1080.5" y="-124.09" font-family="Times,serif" font-size="14.00">168_3</text>
</g>
<!-- 168_1x168_2&#45;&gt;168_3 -->
<g id="edge10" class="edge"><title>168_1x168_2&#45;&gt;168_3</title>
<path fill="none" stroke="black" d="M840.869,-182.214C857.36,-179.824 956.696,-165.018 1035.5,-144.054 1038.27,-143.318 1041.11,-142.502 1043.96,-141.64"/>
<polygon fill="black" stroke="black" points="1045.08,-144.953 1053.55,-138.585 1042.96,-138.283 1045.08,-144.953"/>
</g>
<!-- 168_99 -->
<g id="node51" class="node"><title>168_99</title>
<ellipse fill="dimgrey" stroke="black" cx="560.5" cy="-127.79" rx="40.1111" ry="16.0303"/>
<text text-anchor="middle" x="560.5" y="-124.09" font-family="Times,serif" font-size="14.00">168_99</text>
</g>
<!-- 168_1x168_2&#45;&gt;168_99 -->
<g id="edge49" class="edge"><title>168_1x168_2&#45;&gt;168_99</title>
<path fill="none" stroke="black" d="M835.856,-182.185C817.444,-179.594 706.495,-163.68 617.5,-144.054 612.501,-142.951 607.282,-141.698 602.119,-140.394"/>
<polygon fill="black" stroke="black" points="602.891,-136.979 592.333,-137.852 601.131,-143.754 602.891,-136.979"/>
</g>
<!-- 168_5x168_37 -->
<g id="node12" class="node"><title>168_5x168_37</title>
<polygon fill="none" stroke="black" points="838.5,-75.5269 835,-72.0269 838.5,-68.5269 842,-72.0269 838.5,-75.5269"/>
</g>
<!-- 168_5&#45;&gt;168_5x168_37 -->
<g id="edge7" class="edge"><title>168_5&#45;&gt;168_5x168_37</title>
<path fill="none" stroke="black" d="M838.5,-116.168C838.5,-107.416 838.5,-94.9805 838.5,-85.7075"/>
<polygon fill="black" stroke="black" points="842,-85.6655 838.5,-75.6656 835,-85.6656 842,-85.6655"/>
</g>
<!-- 168_38 -->
<g id="node37" class="node"><title>168_38</title>
<ellipse fill="#66cdaa" stroke="black" cx="838.5" cy="-16.2635" rx="40.1111" ry="16.0303"/>
<text text-anchor="middle" x="838.5" y="-12.5635" font-family="Times,serif" font-size="14.00">168_38</text>
</g>
<!-- 168_5x168_37&#45;&gt;168_38 -->
<g id="edge35" class="edge"><title>168_5x168_37&#45;&gt;168_38</title>
<path fill="none" stroke="black" d="M838.5,-68.4338C838.5,-63.6514 838.5,-52.9811 838.5,-42.6151"/>
<polygon fill="black" stroke="black" points="842,-42.5799 838.5,-32.58 835,-42.58 842,-42.5799"/>
</g>
<!-- 168_35x168_4 -->
<g id="node14" class="node"><title>168_35x168_4</title>
<polygon fill="none" stroke="black" points="925.5,-75.5269 922,-72.0269 925.5,-68.5269 929,-72.0269 925.5,-75.5269"/>
</g>
<!-- 168_4&#45;&gt;168_35x168_4 -->
<g id="edge9" class="edge"><title>168_4&#45;&gt;168_35x168_4</title>
<path fill="none" stroke="black" d="M919.055,-111.528C920.457,-103.153 922.171,-92.9163 923.478,-85.1037"/>
<polygon fill="black" stroke="black" points="926.934,-85.6585 925.133,-75.2179 920.03,-84.5028 926.934,-85.6585"/>
</g>
<!-- 168_36 -->
<g id="node40" class="node"><title>168_36</title>
<polygon fill="#66cdaa" stroke="black" points="954,-27.7635 897,-27.7635 897,-4.76346 954,-4.76346 954,-27.7635"/>
<text text-anchor="middle" x="925.5" y="-12.5635" font-family="Times,serif" font-size="14.00">168_36</text>
</g>
<!-- 168_35x168_4&#45;&gt;168_36 -->
<g id="edge38" class="edge"><title>168_35x168_4&#45;&gt;168_36</title>
<path fill="none" stroke="black" d="M925.5,-68.4338C925.5,-62.9657 925.5,-49.8005 925.5,-38.1938"/>
<polygon fill="black" stroke="black" points="929,-37.8452 925.5,-27.8453 922,-37.8453 929,-37.8452"/>
</g>
<!-- 168_3&#45;&gt;168_19x168_3 -->
<g id="edge11" class="edge"><title>168_3&#45;&gt;168_19x168_3</title>
<path fill="none" stroke="black" d="M1099.93,-114.049C1116.34,-103.29 1139.2,-88.3051 1152.26,-79.742"/>
<polygon fill="black" stroke="black" points="1154.36,-82.5476 1160.81,-74.1375 1150.52,-76.6936 1154.36,-82.5476"/>
</g>
<!-- 168_2 -->
<g id="node16" class="node"><title>168_2</title>
<ellipse fill="#66cdaa" stroke="black" cx="717.5" cy="-239.317" rx="35.2113" ry="16.0303"/>
<text text-anchor="middle" x="717.5" y="-235.617" font-family="Times,serif" font-size="14.00">168_2</text>
</g>
<!-- 168_2&#45;&gt;168_1x168_2 -->
<g id="edge13" class="edge"><title>168_2&#45;&gt;168_1x168_2</title>
<path fill="none" stroke="black" d="M741.986,-227.437C768.044,-215.859 808.116,-198.054 827.391,-189.49"/>
<polygon fill="black" stroke="black" points="828.981,-192.613 836.699,-185.354 826.139,-186.216 828.981,-192.613"/>
</g>
<!-- 168_20x168_21 -->
<g id="node17" class="node"><title>168_20x168_21</title>
<polygon fill="none" stroke="black" points="665.5,-298.581 662,-295.081 665.5,-291.581 669,-295.081 665.5,-298.581"/>
</g>
<!-- 168_20x168_21&#45;&gt;168_2 -->
<g id="edge12" class="edge"><title>168_20x168_21&#45;&gt;168_2</title>
<path fill="none" stroke="black" d="M666.785,-292.752C670.956,-288.44 684.538,-274.397 696.598,-261.928"/>
<polygon fill="black" stroke="black" points="699.376,-264.091 703.812,-254.469 694.344,-259.224 699.376,-264.091"/>
</g>
<!-- 168_22 -->
<g id="node49" class="node"><title>168_22</title>
<polygon fill="#66cdaa" stroke="black" points="642,-250.817 585,-250.817 585,-227.817 642,-227.817 642,-250.817"/>
<text text-anchor="middle" x="613.5" y="-235.617" font-family="Times,serif" font-size="14.00">168_22</text>
</g>
<!-- 168_20x168_21&#45;&gt;168_22 -->
<g id="edge46" class="edge"><title>168_20x168_21&#45;&gt;168_22</title>
<path fill="none" stroke="black" d="M664.215,-292.752C659.665,-288.048 643.913,-271.762 631.158,-258.574"/>
<polygon fill="black" stroke="black" points="633.569,-256.033 624.101,-251.278 628.538,-260.899 633.569,-256.033"/>
</g>
<!-- 168_1 -->
<g id="node18" class="node"><title>168_1</title>
<polygon fill="#66cdaa" stroke="black" points="1453.5,-250.817 1403.5,-250.817 1403.5,-227.817 1453.5,-227.817 1453.5,-250.817"/>
<text text-anchor="middle" x="1428.5" y="-235.617" font-family="Times,serif" font-size="14.00">168_1</text>
</g>
<!-- 168_1&#45;&gt;168_1x168_25 -->
<g id="edge16" class="edge"><title>168_1&#45;&gt;168_1x168_25</title>
<path fill="none" stroke="black" d="M1420.4,-227.695C1412.94,-217.912 1401.97,-203.527 1394.78,-194.1"/>
<polygon fill="black" stroke="black" points="1397.51,-191.904 1388.66,-186.074 1391.94,-196.149 1397.51,-191.904"/>
</g>
<!-- 168_1&#45;&gt;168_1x168_2 -->
<g id="edge14" class="edge"><title>168_1&#45;&gt;168_1x168_2</title>
<path fill="none" stroke="black" d="M1408.06,-227.752C1403.69,-225.889 1399.02,-224.186 1394.5,-223.054 1286.7,-196.04 924.714,-186.507 851.483,-184.834"/>
<polygon fill="black" stroke="black" points="851.37,-181.331 841.296,-184.611 851.217,-188.329 851.37,-181.331"/>
</g>
<!-- 168_1x168_31 -->
<g id="node19" class="node"><title>168_1x168_31</title>
<polygon fill="none" stroke="black" points="1606.5,-187.054 1603,-183.554 1606.5,-180.054 1610,-183.554 1606.5,-187.054"/>
</g>
<!-- 168_1&#45;&gt;168_1x168_31 -->
<g id="edge15" class="edge"><title>168_1&#45;&gt;168_1x168_31</title>
<path fill="none" stroke="black" d="M1453.63,-230.728C1492.52,-218.981 1565.81,-196.845 1594.53,-188.171"/>
<polygon fill="black" stroke="black" points="1595.74,-191.46 1604.3,-185.218 1593.72,-184.759 1595.74,-191.46"/>
</g>
<!-- 168_32 -->
<g id="node20" class="node"><title>168_32</title>
<polygon fill="#66cdaa" stroke="black" points="1689,-139.29 1632,-139.29 1632,-116.29 1689,-116.29 1689,-139.29"/>
<text text-anchor="middle" x="1660.5" y="-124.09" font-family="Times,serif" font-size="14.00">168_32</text>
</g>
<!-- 168_1x168_31&#45;&gt;168_32 -->
<g id="edge17" class="edge"><title>168_1x168_31&#45;&gt;168_32</title>
<path fill="none" stroke="black" d="M1607.83,-181.225C1612.56,-176.521 1628.92,-160.235 1642.16,-147.047"/>
<polygon fill="black" stroke="black" points="1644.87,-149.287 1649.49,-139.751 1639.93,-144.326 1644.87,-149.287"/>
</g>
<!-- 168_32&#45;&gt;168_32x168_33 -->
<g id="edge18" class="edge"><title>168_32&#45;&gt;168_32x168_33</title>
<path fill="none" stroke="black" d="M1669,-116.168C1676.82,-106.385 1688.33,-91.9999 1695.86,-82.5735"/>
<polygon fill="black" stroke="black" points="1698.77,-84.5431 1702.28,-74.5476 1693.3,-80.1709 1698.77,-84.5431"/>
</g>
<!-- 168_31 -->
<g id="node21" class="node"><title>168_31</title>
<ellipse fill="#66cdaa" stroke="black" cx="1606.5" cy="-239.317" rx="40.1111" ry="16.0303"/>
<text text-anchor="middle" x="1606.5" y="-235.617" font-family="Times,serif" font-size="14.00">168_31</text>
</g>
<!-- 168_31&#45;&gt;168_1x168_31 -->
<g id="edge19" class="edge"><title>168_31&#45;&gt;168_1x168_31</title>
<path fill="none" stroke="black" d="M1606.5,-222.767C1606.5,-214.661 1606.5,-204.872 1606.5,-197.232"/>
<polygon fill="black" stroke="black" points="1610,-197.077 1606.5,-187.077 1603,-197.077 1610,-197.077"/>
</g>
<!-- 168_33 -->
<g id="node22" class="node"><title>168_33</title>
<ellipse fill="#66cdaa" stroke="black" cx="1747.5" cy="-127.79" rx="40.1111" ry="16.0303"/>
<text text-anchor="middle" x="1747.5" y="-124.09" font-family="Times,serif" font-size="14.00">168_33</text>
</g>
<!-- 168_33&#45;&gt;168_32x168_33 -->
<g id="edge20" class="edge"><title>168_33&#45;&gt;168_32x168_33</title>
<path fill="none" stroke="black" d="M1735.48,-112.099C1727.75,-102.656 1717.94,-90.6651 1711.23,-82.4735"/>
<polygon fill="black" stroke="black" points="1713.84,-80.1289 1704.79,-74.6068 1708.42,-84.5623 1713.84,-80.1289"/>
</g>
<!-- 168_35 -->
<g id="node25" class="node"><title>168_35</title>
<polygon fill="#66cdaa" stroke="black" points="1027,-139.29 970,-139.29 970,-116.29 1027,-116.29 1027,-139.29"/>
<text text-anchor="middle" x="998.5" y="-124.09" font-family="Times,serif" font-size="14.00">168_35</text>
</g>
<!-- 168_35&#45;&gt;168_35x168_4 -->
<g id="edge23" class="edge"><title>168_35&#45;&gt;168_35x168_4</title>
<path fill="none" stroke="black" d="M984.078,-116.168C969.68,-105.565 947.941,-89.5545 935.392,-80.312"/>
<polygon fill="black" stroke="black" points="937.272,-77.35 927.144,-74.238 933.121,-82.9864 937.272,-77.35"/>
</g>
<!-- 168_19 -->
<g id="node26" class="node"><title>168_19</title>
<polygon fill="#66cdaa" stroke="black" points="1191,-139.29 1134,-139.29 1134,-116.29 1191,-116.29 1191,-139.29"/>
<text text-anchor="middle" x="1162.5" y="-124.09" font-family="Times,serif" font-size="14.00">168_19</text>
</g>
<!-- 168_19&#45;&gt;168_19x168_3 -->
<g id="edge24" class="edge"><title>168_19&#45;&gt;168_19x168_3</title>
<path fill="none" stroke="black" d="M1162.5,-116.168C1162.5,-107.416 1162.5,-94.9805 1162.5,-85.7075"/>
<polygon fill="black" stroke="black" points="1166,-85.6655 1162.5,-75.6656 1159,-85.6656 1166,-85.6655"/>
</g>
<!-- 168_37 -->
<g id="node38" class="node"><title>168_37</title>
<ellipse fill="#66cdaa" stroke="black" cx="755.5" cy="-127.79" rx="40.1111" ry="16.0303"/>
<text text-anchor="middle" x="755.5" y="-124.09" font-family="Times,serif" font-size="14.00">168_37</text>
</g>
<!-- 168_37&#45;&gt;168_5x168_37 -->
<g id="edge36" class="edge"><title>168_37&#45;&gt;168_5x168_37</title>
<path fill="none" stroke="black" d="M776.017,-113.501C792.651,-102.726 815.388,-87.998 828.349,-79.6023"/>
<polygon fill="black" stroke="black" points="830.333,-82.4872 836.823,-74.113 826.527,-76.6121 830.333,-82.4872"/>
</g>
<!-- 168_20 -->
<g id="node41" class="node"><title>168_20</title>
<polygon fill="#66cdaa" stroke="black" points="651,-362.344 594,-362.344 594,-339.344 651,-339.344 651,-362.344"/>
<text text-anchor="middle" x="622.5" y="-347.144" font-family="Times,serif" font-size="14.00">168_20</text>
</g>
<!-- 168_20&#45;&gt;168_20x168_21 -->
<g id="edge39" class="edge"><title>168_20&#45;&gt;168_20x168_21</title>
<path fill="none" stroke="black" d="M630.995,-339.222C638.82,-329.439 650.325,-315.054 657.865,-305.627"/>
<polygon fill="black" stroke="black" points="660.771,-307.597 664.284,-297.601 655.304,-303.225 660.771,-307.597"/>
</g>
<!-- 168_21 -->
<g id="node42" class="node"><title>168_21</title>
<ellipse fill="#66cdaa" stroke="black" cx="709.5" cy="-350.844" rx="40.1111" ry="16.0303"/>
<text text-anchor="middle" x="709.5" y="-347.144" font-family="Times,serif" font-size="14.00">168_21</text>
</g>
<!-- 168_21&#45;&gt;168_20x168_21 -->
<g id="edge40" class="edge"><title>168_21&#45;&gt;168_20x168_21</title>
<path fill="none" stroke="black" d="M697.477,-335.153C689.748,-325.709 679.935,-313.719 673.231,-305.527"/>
<polygon fill="black" stroke="black" points="675.835,-303.183 666.793,-297.661 670.418,-307.616 675.835,-303.183"/>
</g>
<!-- 168_23 -->
<g id="node44" class="node"><title>168_23</title>
<ellipse fill="#66cdaa" stroke="black" cx="482.5" cy="-239.317" rx="40.1111" ry="16.0303"/>
<text text-anchor="middle" x="482.5" y="-235.617" font-family="Times,serif" font-size="14.00">168_23</text>
</g>
<!-- 168_22x168_23 -->
<g id="node45" class="node"><title>168_22x168_23</title>
<polygon fill="none" stroke="black" points="482.5,-187.054 479,-183.554 482.5,-180.054 486,-183.554 482.5,-187.054"/>
</g>
<!-- 168_23&#45;&gt;168_22x168_23 -->
<g id="edge42" class="edge"><title>168_23&#45;&gt;168_22x168_23</title>
<path fill="none" stroke="black" d="M482.5,-222.767C482.5,-214.661 482.5,-204.872 482.5,-197.232"/>
<polygon fill="black" stroke="black" points="486,-197.077 482.5,-187.077 479,-197.077 486,-197.077"/>
</g>
<!-- 168_24 -->
<g id="node53" class="node"><title>168_24</title>
<polygon fill="#66cdaa" stroke="black" points="489,-139.29 432,-139.29 432,-116.29 489,-116.29 489,-139.29"/>
<text text-anchor="middle" x="460.5" y="-124.09" font-family="Times,serif" font-size="14.00">168_24</text>
</g>
<!-- 168_22x168_23&#45;&gt;168_24 -->
<g id="edge52" class="edge"><title>168_22x168_23&#45;&gt;168_24</title>
<path fill="none" stroke="black" d="M481.768,-180.765C479.721,-175.762 473.752,-161.176 468.657,-148.724"/>
<polygon fill="black" stroke="black" points="471.876,-147.35 464.85,-139.42 465.398,-150.001 471.876,-147.35"/>
</g>
<!-- 168_22&#45;&gt;168_22x168_23 -->
<g id="edge47" class="edge"><title>168_22&#45;&gt;168_22x168_23</title>
<path fill="none" stroke="black" d="M587.619,-227.695C559.08,-215.983 514.468,-197.674 493.761,-189.175"/>
<polygon fill="black" stroke="black" points="495.051,-185.922 484.471,-185.363 492.394,-192.398 495.051,-185.922"/>
</g>
<!-- 168_99&#45;&gt;168_24x168_99 -->
<g id="edge50" class="edge"><title>168_99&#45;&gt;168_24x168_99</title>
<path fill="none" stroke="black" d="M533.779,-115.389C506.39,-103.702 465.125,-86.0943 445.553,-77.7431"/>
<polygon fill="black" stroke="black" points="446.907,-74.5157 436.336,-73.8103 444.16,-80.9541 446.907,-74.5157"/>
</g>
<!-- 168_24&#45;&gt;168_24x168_99 -->
<g id="edge53" class="edge"><title>168_24&#45;&gt;168_24x168_99</title>
<path fill="none" stroke="black" d="M455.363,-116.168C450.868,-106.873 444.363,-93.4228 439.816,-84.0191"/>
<polygon fill="black" stroke="black" points="442.905,-82.368 435.401,-74.8893 436.603,-85.4156 442.905,-82.368"/>
</g>
</g>
</svg>
