<?xml version="1.0" encoding="UTF-8" standalone="no"?>
<!DOCTYPE svg PUBLIC "-//W3C//DTD SVG 1.1//EN"
 "http://www.w3.org/Graphics/SVG/1.1/DTD/svg11.dtd">
<!-- Generated by graphviz version 2.38.0 (20140413.2041)
 -->
<!-- Title: %3 Pages: 1 -->
<svg width="1606pt" height="614pt"
 viewBox="0.00 0.00 1606.11 614.16" xmlns="http://www.w3.org/2000/svg" xmlns:xlink="http://www.w3.org/1999/xlink">
<g id="graph0" class="graph" transform="scale(1 1) rotate(0) translate(4 610.161)">
<title>%3</title>
<polygon fill="white" stroke="none" points="-4,4 -4,-610.161 1602.11,-610.161 1602.11,4 -4,4"/>
<!-- 8_7 -->
<g id="node1" class="node"><title>8_7</title>
<ellipse fill="white" stroke="black" cx="286" cy="-118.263" rx="26.3269" ry="16.0303"/>
<text text-anchor="middle" x="286" y="-114.563" font-family="Times,serif" font-size="14.00">8_7</text>
</g>
<!-- 8_9x8_99 -->
<g id="node2" class="node"><title>8_9x8_99</title>
<polygon fill="none" stroke="black" points="306,-177.527 302.5,-174.027 306,-170.527 309.5,-174.027 306,-177.527"/>
</g>
<!-- 8_9x8_99&#45;&gt;8_7 -->
<g id="edge1" class="edge"><title>8_9x8_99&#45;&gt;8_7</title>
<path fill="none" stroke="black" d="M305.141,-170.717C303.378,-165.977 299.178,-154.689 295.161,-143.889"/>
<polygon fill="black" stroke="black" points="298.365,-142.463 291.598,-134.311 291.804,-144.904 298.365,-142.463"/>
</g>
<!-- 8_8 -->
<g id="node11" class="node"><title>8_8</title>
<ellipse fill="white" stroke="black" cx="356" cy="-118.263" rx="26.3269" ry="16.0303"/>
<text text-anchor="middle" x="356" y="-114.563" font-family="Times,serif" font-size="14.00">8_8</text>
</g>
<!-- 8_9x8_99&#45;&gt;8_8 -->
<g id="edge9" class="edge"><title>8_9x8_99&#45;&gt;8_8</title>
<path fill="none" stroke="black" d="M307.236,-171.698C311.321,-167.306 324.796,-152.816 336.548,-140.179"/>
<polygon fill="black" stroke="black" points="339.297,-142.363 343.544,-132.657 334.171,-137.596 339.297,-142.363"/>
</g>
<!-- 8_5 -->
<g id="node42" class="node"><title>8_5</title>
<polygon fill="dimgrey" stroke="black" points="186.5,-129.763 149.5,-129.763 149.5,-106.763 186.5,-106.763 186.5,-129.763"/>
<text text-anchor="middle" x="168" y="-114.563" font-family="Times,serif" font-size="14.00">8_5</text>
</g>
<!-- 8_9x8_99&#45;&gt;8_5 -->
<g id="edge38" class="edge"><title>8_9x8_99&#45;&gt;8_5</title>
<path fill="none" stroke="black" d="M303.828,-172.433C292.318,-169.253 237.384,-153.668 195,-134.527 194.905,-134.484 194.81,-134.441 194.714,-134.397"/>
<polygon fill="black" stroke="black" points="196.281,-131.268 185.774,-129.907 193.14,-137.523 196.281,-131.268"/>
</g>
<!-- 8_6 -->
<g id="node51" class="node"><title>8_6</title>
<polygon fill="white" stroke="black" points="241.5,-129.763 204.5,-129.763 204.5,-106.763 241.5,-106.763 241.5,-129.763"/>
<text text-anchor="middle" x="223" y="-114.563" font-family="Times,serif" font-size="14.00">8_6</text>
</g>
<!-- 8_9x8_99&#45;&gt;8_6 -->
<g id="edge48" class="edge"><title>8_9x8_99&#45;&gt;8_6</title>
<path fill="none" stroke="black" d="M304.266,-171.904C297.096,-167.26 269.144,-149.154 248.008,-135.463"/>
<polygon fill="black" stroke="black" points="249.744,-132.417 239.448,-129.918 245.938,-138.292 249.744,-132.417"/>
</g>
<!-- 8_17 -->
<g id="node3" class="node"><title>8_17</title>
<polygon fill="#66cdaa" stroke="black" points="994,-241.29 950,-241.29 950,-218.29 994,-218.29 994,-241.29"/>
<text text-anchor="middle" x="972" y="-226.09" font-family="Times,serif" font-size="14.00">8_17</text>
</g>
<!-- 8_29x8_30 -->
<g id="node4" class="node"><title>8_29x8_30</title>
<polygon fill="none" stroke="black" points="901,-301.817 897.5,-298.317 901,-294.817 904.5,-298.317 901,-301.817"/>
</g>
<!-- 8_29x8_30&#45;&gt;8_17 -->
<g id="edge2" class="edge"><title>8_29x8_30&#45;&gt;8_17</title>
<path fill="none" stroke="black" d="M902.483,-295.928C908.872,-289.941 934.555,-265.877 952.84,-248.743"/>
<polygon fill="black" stroke="black" points="955.721,-250.841 960.625,-241.449 950.934,-245.733 955.721,-250.841"/>
</g>
<!-- 8_11 -->
<g id="node8" class="node"><title>8_11</title>
<ellipse fill="dimgrey" stroke="black" cx="1043" cy="-229.79" rx="31.2258" ry="16.0303"/>
<text text-anchor="middle" x="1043" y="-226.09" font-family="Times,serif" font-size="14.00">8_11</text>
</g>
<!-- 8_29x8_30&#45;&gt;8_11 -->
<g id="edge6" class="edge"><title>8_29x8_30&#45;&gt;8_11</title>
<path fill="none" stroke="black" d="M903.007,-296.377C914.581,-290.955 973.578,-263.314 1011.2,-245.69"/>
<polygon fill="black" stroke="black" points="1013.15,-248.641 1020.72,-241.229 1010.18,-242.302 1013.15,-248.641"/>
</g>
<!-- 8_10 -->
<g id="node9" class="node"><title>8_10</title>
<polygon fill="dimgrey" stroke="black" points="710,-241.29 666,-241.29 666,-218.29 710,-218.29 710,-241.29"/>
<text text-anchor="middle" x="688" y="-226.09" font-family="Times,serif" font-size="14.00">8_10</text>
</g>
<!-- 8_29x8_30&#45;&gt;8_10 -->
<g id="edge7" class="edge"><title>8_29x8_30&#45;&gt;8_10</title>
<path fill="none" stroke="black" d="M898.788,-296.856C883.391,-293.61 790.726,-273.547 719,-246.054 718.44,-245.839 717.876,-245.618 717.31,-245.391"/>
<polygon fill="black" stroke="black" points="718.67,-242.166 708.107,-241.35 715.856,-248.575 718.67,-242.166"/>
</g>
<!-- 8_9 -->
<g id="node22" class="node"><title>8_9</title>
<polygon fill="#66cdaa" stroke="black" points="422.5,-241.29 385.5,-241.29 385.5,-218.29 422.5,-218.29 422.5,-241.29"/>
<text text-anchor="middle" x="404" y="-226.09" font-family="Times,serif" font-size="14.00">8_9</text>
</g>
<!-- 8_29x8_30&#45;&gt;8_9 -->
<g id="edge20" class="edge"><title>8_29x8_30&#45;&gt;8_9</title>
<path fill="none" stroke="black" d="M898.703,-297.074C874.396,-294.494 661.965,-271.723 491,-246.054 471.409,-243.112 449.435,-239.253 432.473,-236.151"/>
<polygon fill="black" stroke="black" points="433.094,-232.706 422.625,-234.332 431.823,-239.59 433.094,-232.706"/>
</g>
<!-- 8_16 -->
<g id="node41" class="node"><title>8_16</title>
<ellipse fill="#66cdaa" stroke="black" cx="1265" cy="-229.79" rx="31.2258" ry="16.0303"/>
<text text-anchor="middle" x="1265" y="-226.09" font-family="Times,serif" font-size="14.00">8_16</text>
</g>
<!-- 8_29x8_30&#45;&gt;8_16 -->
<g id="edge37" class="edge"><title>8_29x8_30&#45;&gt;8_16</title>
<path fill="none" stroke="black" d="M903.357,-297.133C925.136,-295.395 1093.49,-281.141 1225,-246.054 1227.3,-245.439 1229.66,-244.74 1232.01,-243.985"/>
<polygon fill="black" stroke="black" points="1233.28,-247.248 1241.58,-240.657 1230.98,-240.637 1233.28,-247.248"/>
</g>
<!-- 8_15 -->
<g id="node50" class="node"><title>8_15</title>
<ellipse fill="dimgrey" stroke="black" cx="1185" cy="-229.79" rx="31.2258" ry="16.0303"/>
<text text-anchor="middle" x="1185" y="-226.09" font-family="Times,serif" font-size="14.00">8_15</text>
</g>
<!-- 8_29x8_30&#45;&gt;8_15 -->
<g id="edge46" class="edge"><title>8_29x8_30&#45;&gt;8_15</title>
<path fill="none" stroke="black" d="M903.44,-296.955C922.322,-294.12 1046.99,-274.855 1145,-246.054 1147.14,-245.424 1149.34,-244.731 1151.53,-244"/>
<polygon fill="black" stroke="black" points="1152.84,-247.251 1161.1,-240.614 1150.5,-240.653 1152.84,-247.251"/>
</g>
<!-- 8_18 -->
<g id="node53" class="node"><title>8_18</title>
<ellipse fill="dimgrey" stroke="black" cx="1351" cy="-229.79" rx="31.2258" ry="16.0303"/>
<text text-anchor="middle" x="1351" y="-226.09" font-family="Times,serif" font-size="14.00">8_18</text>
</g>
<!-- 8_29x8_30&#45;&gt;8_18 -->
<g id="edge50" class="edge"><title>8_29x8_30&#45;&gt;8_18</title>
<path fill="none" stroke="black" d="M903.598,-297.182C929.238,-295.807 1139.53,-283.63 1305,-246.054 1308.86,-245.177 1312.85,-244.108 1316.8,-242.946"/>
<polygon fill="black" stroke="black" points="1317.93,-246.26 1326.42,-239.924 1315.83,-239.582 1317.93,-246.26"/>
</g>
<!-- 8_14 -->
<g id="node70" class="node"><title>8_14</title>
<polygon fill="#66cdaa" stroke="black" points="772,-241.29 728,-241.29 728,-218.29 772,-218.29 772,-241.29"/>
<text text-anchor="middle" x="750" y="-226.09" font-family="Times,serif" font-size="14.00">8_14</text>
</g>
<!-- 8_29x8_30&#45;&gt;8_14 -->
<g id="edge69" class="edge"><title>8_29x8_30&#45;&gt;8_14</title>
<path fill="none" stroke="black" d="M899.003,-296.511C887.481,-291.851 828.349,-267.805 781,-246.054 780.802,-245.963 780.604,-245.872 780.405,-245.78"/>
<polygon fill="black" stroke="black" points="781.809,-242.572 771.273,-241.452 778.811,-248.897 781.809,-242.572"/>
</g>
<!-- 8_13 -->
<g id="node71" class="node"><title>8_13</title>
<ellipse fill="#66cdaa" stroke="black" cx="604" cy="-229.79" rx="31.2258" ry="16.0303"/>
<text text-anchor="middle" x="604" y="-226.09" font-family="Times,serif" font-size="14.00">8_13</text>
</g>
<!-- 8_29x8_30&#45;&gt;8_13 -->
<g id="edge70" class="edge"><title>8_29x8_30&#45;&gt;8_13</title>
<path fill="none" stroke="black" d="M898.58,-296.879C879.854,-293.472 756.135,-270.708 657,-246.054 651.483,-244.682 645.674,-243.125 640.005,-241.543"/>
<polygon fill="black" stroke="black" points="640.623,-238.08 630.046,-238.703 638.703,-244.812 640.623,-238.08"/>
</g>
<!-- 8_12 -->
<g id="node72" class="node"><title>8_12</title>
<ellipse fill="#66cdaa" stroke="black" cx="901" cy="-229.79" rx="31.2258" ry="16.0303"/>
<text text-anchor="middle" x="901" y="-226.09" font-family="Times,serif" font-size="14.00">8_12</text>
</g>
<!-- 8_29x8_30&#45;&gt;8_12 -->
<g id="edge72" class="edge"><title>8_29x8_30&#45;&gt;8_12</title>
<path fill="none" stroke="black" d="M901,-294.791C901,-288.488 901,-271.507 901,-256.62"/>
<polygon fill="black" stroke="black" points="904.5,-256.333 901,-246.333 897.5,-256.333 904.5,-256.333"/>
</g>
<!-- 8_30 -->
<g id="node5" class="node"><title>8_30</title>
<ellipse fill="#66cdaa" stroke="black" cx="814" cy="-366.844" rx="31.2258" ry="16.0303"/>
<text text-anchor="middle" x="814" y="-363.144" font-family="Times,serif" font-size="14.00">8_30</text>
</g>
<!-- 8_30&#45;&gt;8_29x8_30 -->
<g id="edge4" class="edge"><title>8_30&#45;&gt;8_29x8_30</title>
<path fill="none" stroke="black" d="M830.774,-353.017C848.717,-339.297 876.564,-318.003 891.219,-306.797"/>
<polygon fill="black" stroke="black" points="893.654,-309.341 899.472,-300.486 889.402,-303.78 893.654,-309.341"/>
</g>
<!-- 8_32x8_31 -->
<g id="node6" class="node"><title>8_32x8_31</title>
<polygon fill="none" stroke="black" points="755,-426.108 751.5,-422.608 755,-419.108 758.5,-422.608 755,-426.108"/>
</g>
<!-- 8_32x8_31&#45;&gt;8_30 -->
<g id="edge3" class="edge"><title>8_32x8_31&#45;&gt;8_30</title>
<path fill="none" stroke="black" d="M756.458,-420.279C761.369,-415.804 777.783,-400.847 791.83,-388.047"/>
<polygon fill="black" stroke="black" points="794.268,-390.56 799.302,-381.238 789.553,-385.386 794.268,-390.56"/>
</g>
<!-- 8_29 -->
<g id="node7" class="node"><title>8_29</title>
<polygon fill="#66cdaa" stroke="black" points="923,-378.344 879,-378.344 879,-355.344 923,-355.344 923,-378.344"/>
<text text-anchor="middle" x="901" y="-363.144" font-family="Times,serif" font-size="14.00">8_29</text>
</g>
<!-- 8_29&#45;&gt;8_29x8_30 -->
<g id="edge5" class="edge"><title>8_29&#45;&gt;8_29x8_30</title>
<path fill="none" stroke="black" d="M901,-355.155C901,-343.379 901,-324.455 901,-311.953"/>
<polygon fill="black" stroke="black" points="904.5,-311.819 901,-301.819 897.5,-311.819 904.5,-311.819"/>
</g>
<!-- 8_10x8_28 -->
<g id="node10" class="node"><title>8_10x8_28</title>
<polygon fill="none" stroke="black" points="821,-177.527 817.5,-174.027 821,-170.527 824.5,-174.027 821,-177.527"/>
</g>
<!-- 8_10&#45;&gt;8_10x8_28 -->
<g id="edge8" class="edge"><title>8_10&#45;&gt;8_10x8_28</title>
<path fill="none" stroke="black" d="M708.883,-218.168C712.241,-216.558 715.698,-214.959 719,-213.527 751.169,-199.575 790.192,-185.655 809.305,-179.026"/>
<polygon fill="black" stroke="black" points="810.704,-182.247 819.027,-175.692 808.433,-175.626 810.704,-182.247"/>
</g>
<!-- 8_27 -->
<g id="node47" class="node"><title>8_27</title>
<ellipse fill="dimgrey" stroke="black" cx="919" cy="-118.263" rx="31.2258" ry="16.0303"/>
<text text-anchor="middle" x="919" y="-114.563" font-family="Times,serif" font-size="14.00">8_27</text>
</g>
<!-- 8_10x8_28&#45;&gt;8_27 -->
<g id="edge43" class="edge"><title>8_10x8_28&#45;&gt;8_27</title>
<path fill="none" stroke="black" d="M822.701,-172.094C830.579,-167.772 864.207,-149.323 889.523,-135.435"/>
<polygon fill="black" stroke="black" points="891.327,-138.437 898.411,-130.559 887.96,-132.3 891.327,-138.437"/>
</g>
<!-- 8_24 -->
<g id="node48" class="node"><title>8_24</title>
<polygon fill="dimgrey" stroke="black" points="1012,-129.763 968,-129.763 968,-106.763 1012,-106.763 1012,-129.763"/>
<text text-anchor="middle" x="990" y="-114.563" font-family="Times,serif" font-size="14.00">8_24</text>
</g>
<!-- 8_10x8_28&#45;&gt;8_24 -->
<g id="edge44" class="edge"><title>8_10x8_28&#45;&gt;8_24</title>
<path fill="none" stroke="black" d="M823.327,-172.548C836.752,-169.749 905.556,-154.937 959,-134.527 959.56,-134.313 960.124,-134.092 960.691,-133.866"/>
<polygon fill="black" stroke="black" points="962.143,-137.051 969.896,-129.831 959.332,-130.64 962.143,-137.051"/>
</g>
<!-- 8_25 -->
<g id="node49" class="node"><title>8_25</title>
<polygon fill="dimgrey" stroke="black" points="666,-129.763 622,-129.763 622,-106.763 666,-106.763 666,-129.763"/>
<text text-anchor="middle" x="644" y="-114.563" font-family="Times,serif" font-size="14.00">8_25</text>
</g>
<!-- 8_10x8_28&#45;&gt;8_25 -->
<g id="edge45" class="edge"><title>8_10x8_28&#45;&gt;8_25</title>
<path fill="none" stroke="black" d="M818.536,-172.569C804.321,-169.891 731.476,-155.635 675,-134.527 674.438,-134.317 673.873,-134.1 673.305,-133.877"/>
<polygon fill="black" stroke="black" points="674.654,-130.647 664.087,-129.874 671.865,-137.068 674.654,-130.647"/>
</g>
<!-- 8_23 -->
<g id="node52" class="node"><title>8_23</title>
<polygon fill="dimgrey" stroke="black" points="728,-129.763 684,-129.763 684,-106.763 728,-106.763 728,-129.763"/>
<text text-anchor="middle" x="706" y="-114.563" font-family="Times,serif" font-size="14.00">8_23</text>
</g>
<!-- 8_10x8_28&#45;&gt;8_23 -->
<g id="edge49" class="edge"><title>8_10x8_28&#45;&gt;8_23</title>
<path fill="none" stroke="black" d="M818.912,-172.096C809.426,-167.86 769.456,-149.951 737,-134.527 736.804,-134.434 736.607,-134.34 736.409,-134.246"/>
<polygon fill="black" stroke="black" points="737.835,-131.048 727.308,-129.851 734.791,-137.351 737.835,-131.048"/>
</g>
<!-- 8_26 -->
<g id="node68" class="node"><title>8_26</title>
<polygon fill="dimgrey" stroke="black" points="870,-129.763 826,-129.763 826,-106.763 870,-106.763 870,-129.763"/>
<text text-anchor="middle" x="848" y="-114.563" font-family="Times,serif" font-size="14.00">8_26</text>
</g>
<!-- 8_10x8_28&#45;&gt;8_26 -->
<g id="edge66" class="edge"><title>8_10x8_28&#45;&gt;8_26</title>
<path fill="none" stroke="black" d="M821.898,-171.238C824.411,-166.235 831.736,-151.649 837.989,-139.197"/>
<polygon fill="black" stroke="black" points="841.301,-140.401 842.662,-129.893 835.046,-137.259 841.301,-140.401"/>
</g>
<!-- 8_4 -->
<g id="node12" class="node"><title>8_4</title>
<ellipse fill="dimgrey" stroke="black" cx="612" cy="-366.844" rx="26.3269" ry="16.0303"/>
<text text-anchor="middle" x="612" y="-363.144" font-family="Times,serif" font-size="14.00">8_4</text>
</g>
<!-- 8_1x8_2 -->
<g id="node13" class="node"><title>8_1x8_2</title>
<polygon fill="none" stroke="black" points="484,-426.108 480.5,-422.608 484,-419.108 487.5,-422.608 484,-426.108"/>
</g>
<!-- 8_1x8_2&#45;&gt;8_4 -->
<g id="edge10" class="edge"><title>8_1x8_2&#45;&gt;8_4</title>
<path fill="none" stroke="black" d="M486.307,-420.671C496.791,-416.412 540.975,-398.418 577,-383.108 578.594,-382.43 580.227,-381.732 581.875,-381.025"/>
<polygon fill="black" stroke="black" points="583.511,-384.13 591.3,-376.948 580.732,-377.706 583.511,-384.13"/>
</g>
<!-- 8_3 -->
<g id="node14" class="node"><title>8_3</title>
<polygon fill="#66cdaa" stroke="black" points="693.5,-378.344 656.5,-378.344 656.5,-355.344 693.5,-355.344 693.5,-378.344"/>
<text text-anchor="middle" x="675" y="-363.144" font-family="Times,serif" font-size="14.00">8_3</text>
</g>
<!-- 8_1x8_2&#45;&gt;8_3 -->
<g id="edge11" class="edge"><title>8_1x8_2&#45;&gt;8_3</title>
<path fill="none" stroke="black" d="M486.368,-421.292C501.317,-419.248 583.997,-407.22 647,-383.108 647.32,-382.985 647.641,-382.86 647.962,-382.732"/>
<polygon fill="black" stroke="black" points="649.657,-385.804 657.263,-378.429 646.718,-379.451 649.657,-385.804"/>
</g>
<!-- 8_99 -->
<g id="node20" class="node"><title>8_99</title>
<ellipse fill="dimgrey" stroke="black" cx="549" cy="-298.317" rx="31.2258" ry="16.0303"/>
<text text-anchor="middle" x="549" y="-294.617" font-family="Times,serif" font-size="14.00">8_99</text>
</g>
<!-- 8_1x8_2&#45;&gt;8_99 -->
<g id="edge17" class="edge"><title>8_1x8_2&#45;&gt;8_99</title>
<path fill="none" stroke="black" d="M486.658,-421.585C509.56,-421.332 673.462,-418.291 703,-383.108 738.743,-340.533 645.108,-316.06 588.503,-305.528"/>
<polygon fill="black" stroke="black" points="588.864,-302.037 578.404,-303.723 587.632,-308.928 588.864,-302.037"/>
</g>
<!-- 8_35 -->
<g id="node23" class="node"><title>8_35</title>
<ellipse fill="#66cdaa" stroke="black" cx="93" cy="-366.844" rx="31.2258" ry="16.0303"/>
<text text-anchor="middle" x="93" y="-363.144" font-family="Times,serif" font-size="14.00">8_35</text>
</g>
<!-- 8_1x8_2&#45;&gt;8_35 -->
<g id="edge22" class="edge"><title>8_1x8_2&#45;&gt;8_35</title>
<path fill="none" stroke="black" d="M481.446,-421.576C457.846,-421.231 275.422,-417.492 133,-383.108 130.683,-382.548 128.32,-381.89 125.957,-381.165"/>
<polygon fill="black" stroke="black" points="126.967,-377.812 116.373,-377.904 124.712,-384.439 126.967,-377.812"/>
</g>
<!-- 8_38 -->
<g id="node24" class="node"><title>8_38</title>
<polygon fill="#66cdaa" stroke="black" points="44,-378.344 3.55271e-15,-378.344 3.55271e-15,-355.344 44,-355.344 44,-378.344"/>
<text text-anchor="middle" x="22" y="-363.144" font-family="Times,serif" font-size="14.00">8_38</text>
</g>
<!-- 8_1x8_2&#45;&gt;8_38 -->
<g id="edge23" class="edge"><title>8_1x8_2&#45;&gt;8_38</title>
<path fill="none" stroke="black" d="M481.458,-421.51C450.264,-420.299 140.888,-407.745 53,-383.108 51.9603,-382.816 50.9135,-382.49 49.8658,-382.136"/>
<polygon fill="black" stroke="black" points="51.1591,-378.884 40.5774,-378.358 48.5216,-385.368 51.1591,-378.884"/>
</g>
<!-- 8_39 -->
<g id="node26" class="node"><title>8_39</title>
<ellipse fill="#66cdaa" stroke="black" cx="253" cy="-366.844" rx="31.2258" ry="16.0303"/>
<text text-anchor="middle" x="253" y="-363.144" font-family="Times,serif" font-size="14.00">8_39</text>
</g>
<!-- 8_1x8_2&#45;&gt;8_39 -->
<g id="edge25" class="edge"><title>8_1x8_2&#45;&gt;8_39</title>
<path fill="none" stroke="black" d="M481.695,-421.291C465.651,-419.057 369.034,-405.113 293,-383.108 290.711,-382.445 288.368,-381.709 286.02,-380.928"/>
<polygon fill="black" stroke="black" points="287.064,-377.585 276.469,-377.541 284.724,-384.183 287.064,-377.585"/>
</g>
<!-- 8_33 -->
<g id="node27" class="node"><title>8_33</title>
<ellipse fill="#66cdaa" stroke="black" cx="333" cy="-366.844" rx="31.2258" ry="16.0303"/>
<text text-anchor="middle" x="333" y="-363.144" font-family="Times,serif" font-size="14.00">8_33</text>
</g>
<!-- 8_1x8_2&#45;&gt;8_33 -->
<g id="edge26" class="edge"><title>8_1x8_2&#45;&gt;8_33</title>
<path fill="none" stroke="black" d="M481.875,-420.898C470.606,-417.127 416.699,-399.019 373,-383.108 370.9,-382.343 368.742,-381.548 366.568,-380.739"/>
<polygon fill="black" stroke="black" points="367.661,-377.411 357.069,-377.165 365.196,-383.962 367.661,-377.411"/>
</g>
<!-- 8_36 -->
<g id="node28" class="node"><title>8_36</title>
<ellipse fill="#66cdaa" stroke="black" cx="413" cy="-366.844" rx="31.2258" ry="16.0303"/>
<text text-anchor="middle" x="413" y="-363.144" font-family="Times,serif" font-size="14.00">8_36</text>
</g>
<!-- 8_1x8_2&#45;&gt;8_36 -->
<g id="edge27" class="edge"><title>8_1x8_2&#45;&gt;8_36</title>
<path fill="none" stroke="black" d="M482.517,-420.485C476.801,-416.156 455.646,-400.137 438.159,-386.895"/>
<polygon fill="black" stroke="black" points="440.038,-383.928 429.953,-380.681 435.812,-389.508 440.038,-383.928"/>
</g>
<!-- 8_34 -->
<g id="node29" class="node"><title>8_34</title>
<polygon fill="#66cdaa" stroke="black" points="506,-378.344 462,-378.344 462,-355.344 506,-355.344 506,-378.344"/>
<text text-anchor="middle" x="484" y="-363.144" font-family="Times,serif" font-size="14.00">8_34</text>
</g>
<!-- 8_1x8_2&#45;&gt;8_34 -->
<g id="edge28" class="edge"><title>8_1x8_2&#45;&gt;8_34</title>
<path fill="none" stroke="black" d="M484,-419.015C484,-413.546 484,-400.381 484,-388.774"/>
<polygon fill="black" stroke="black" points="487.5,-388.426 484,-378.426 480.5,-388.426 487.5,-388.426"/>
</g>
<!-- 8_37 -->
<g id="node30" class="node"><title>8_37</title>
<polygon fill="#66cdaa" stroke="black" points="568,-378.344 524,-378.344 524,-355.344 568,-355.344 568,-378.344"/>
<text text-anchor="middle" x="546" y="-363.144" font-family="Times,serif" font-size="14.00">8_37</text>
</g>
<!-- 8_1x8_2&#45;&gt;8_37 -->
<g id="edge29" class="edge"><title>8_1x8_2&#45;&gt;8_37</title>
<path fill="none" stroke="black" d="M485.533,-420.279C491.09,-415.459 510.668,-398.482 526.059,-385.136"/>
<polygon fill="black" stroke="black" points="528.368,-387.766 533.63,-378.571 523.782,-382.478 528.368,-387.766"/>
</g>
<!-- 8_2 -->
<g id="node15" class="node"><title>8_2</title>
<ellipse fill="#66cdaa" stroke="black" cx="484" cy="-478.371" rx="26.3269" ry="16.0303"/>
<text text-anchor="middle" x="484" y="-474.671" font-family="Times,serif" font-size="14.00">8_2</text>
</g>
<!-- 8_2&#45;&gt;8_1x8_2 -->
<g id="edge12" class="edge"><title>8_2&#45;&gt;8_1x8_2</title>
<path fill="none" stroke="black" d="M484,-461.82C484,-453.715 484,-443.926 484,-436.286"/>
<polygon fill="black" stroke="black" points="487.5,-436.131 484,-426.131 480.5,-436.131 487.5,-436.131"/>
</g>
<!-- 8_31 -->
<g id="node16" class="node"><title>8_31</title>
<ellipse fill="#66cdaa" stroke="black" cx="755" cy="-478.371" rx="31.2258" ry="16.0303"/>
<text text-anchor="middle" x="755" y="-474.671" font-family="Times,serif" font-size="14.00">8_31</text>
</g>
<!-- 8_31&#45;&gt;8_32x8_31 -->
<g id="edge14" class="edge"><title>8_31&#45;&gt;8_32x8_31</title>
<path fill="none" stroke="black" d="M755,-461.82C755,-453.715 755,-443.926 755,-436.286"/>
<polygon fill="black" stroke="black" points="758.5,-436.131 755,-426.131 751.5,-436.131 758.5,-436.131"/>
</g>
<!-- 8_40x8_41 -->
<g id="node17" class="node"><title>8_40x8_41</title>
<polygon fill="none" stroke="black" points="638,-537.635 634.5,-534.135 638,-530.635 641.5,-534.135 638,-537.635"/>
</g>
<!-- 8_40x8_41&#45;&gt;8_31 -->
<g id="edge13" class="edge"><title>8_40x8_41&#45;&gt;8_31</title>
<path fill="none" stroke="black" d="M640.031,-532.201C649.778,-527.722 692.552,-508.067 723.072,-494.043"/>
<polygon fill="black" stroke="black" points="724.868,-497.069 732.493,-489.713 721.945,-490.709 724.868,-497.069"/>
</g>
<!-- 8_1 -->
<g id="node69" class="node"><title>8_1</title>
<polygon fill="#66cdaa" stroke="black" points="591.5,-489.871 554.5,-489.871 554.5,-466.871 591.5,-466.871 591.5,-489.871"/>
<text text-anchor="middle" x="573" y="-474.671" font-family="Times,serif" font-size="14.00">8_1</text>
</g>
<!-- 8_40x8_41&#45;&gt;8_1 -->
<g id="edge67" class="edge"><title>8_40x8_41&#45;&gt;8_1</title>
<path fill="none" stroke="black" d="M636.393,-531.806C630.567,-526.986 610.042,-510.009 593.905,-496.663"/>
<polygon fill="black" stroke="black" points="595.905,-493.774 585.968,-490.098 591.443,-499.168 595.905,-493.774"/>
</g>
<!-- 8_32 -->
<g id="node18" class="node"><title>8_32</title>
<polygon fill="#66cdaa" stroke="black" points="706,-489.871 662,-489.871 662,-466.871 706,-466.871 706,-489.871"/>
<text text-anchor="middle" x="684" y="-474.671" font-family="Times,serif" font-size="14.00">8_32</text>
</g>
<!-- 8_32&#45;&gt;8_32x8_31 -->
<g id="edge15" class="edge"><title>8_32&#45;&gt;8_32x8_31</title>
<path fill="none" stroke="black" d="M698.027,-466.749C712.03,-456.146 733.174,-440.135 745.379,-430.893"/>
<polygon fill="black" stroke="black" points="747.541,-433.646 753.401,-424.819 743.315,-428.065 747.541,-433.646"/>
</g>
<!-- 8_41 -->
<g id="node19" class="node"><title>8_41</title>
<ellipse fill="#66cdaa" stroke="black" cx="603" cy="-589.898" rx="31.2258" ry="16.0303"/>
<text text-anchor="middle" x="603" y="-586.198" font-family="Times,serif" font-size="14.00">8_41</text>
</g>
<!-- 8_41&#45;&gt;8_40x8_41 -->
<g id="edge16" class="edge"><title>8_41&#45;&gt;8_40x8_41</title>
<path fill="none" stroke="black" d="M612.564,-574.207C618.575,-564.973 626.171,-553.304 631.491,-545.133"/>
<polygon fill="black" stroke="black" points="634.449,-547.005 636.971,-536.714 628.582,-543.186 634.449,-547.005"/>
</g>
<!-- 8_99&#45;&gt;8_9x8_99 -->
<g id="edge18" class="edge"><title>8_99&#45;&gt;8_9x8_99</title>
<path fill="none" stroke="black" d="M519.324,-293.177C483.332,-287.147 421.8,-273.531 376,-246.054 348.762,-229.712 324.612,-200.313 313.114,-184.965"/>
<polygon fill="black" stroke="black" points="315.808,-182.717 307.114,-176.661 310.133,-186.817 315.808,-182.717"/>
</g>
<!-- 8_40 -->
<g id="node21" class="node"><title>8_40</title>
<polygon fill="#66cdaa" stroke="black" points="696,-601.398 652,-601.398 652,-578.398 696,-578.398 696,-601.398"/>
<text text-anchor="middle" x="674" y="-586.198" font-family="Times,serif" font-size="14.00">8_40</text>
</g>
<!-- 8_40&#45;&gt;8_40x8_41 -->
<g id="edge19" class="edge"><title>8_40&#45;&gt;8_40x8_41</title>
<path fill="none" stroke="black" d="M666.888,-578.276C660.407,-568.598 650.911,-554.416 644.597,-544.987"/>
<polygon fill="black" stroke="black" points="647.49,-543.017 639.018,-536.655 641.674,-546.912 647.49,-543.017"/>
</g>
<!-- 8_9&#45;&gt;8_9x8_99 -->
<g id="edge21" class="edge"><title>8_9&#45;&gt;8_9x8_99</title>
<path fill="none" stroke="black" d="M385.105,-218.424C364.695,-207.228 332.91,-189.79 316.537,-180.807"/>
<polygon fill="black" stroke="black" points="318.172,-177.713 307.722,-175.971 314.806,-183.85 318.172,-177.713"/>
</g>
<!-- 8_38x8_49 -->
<g id="node25" class="node"><title>8_38x8_49</title>
<polygon fill="none" stroke="black" points="134,-301.817 130.5,-298.317 134,-294.817 137.5,-298.317 134,-301.817"/>
</g>
<!-- 8_38&#45;&gt;8_38x8_49 -->
<g id="edge24" class="edge"><title>8_38&#45;&gt;8_38x8_49</title>
<path fill="none" stroke="black" d="M39.9947,-355.155C63.5502,-341.164 104.092,-317.082 123.305,-305.67"/>
<polygon fill="black" stroke="black" points="125.358,-308.521 132.168,-300.405 121.783,-302.503 125.358,-308.521"/>
</g>
<!-- 8_47 -->
<g id="node58" class="node"><title>8_47</title>
<ellipse fill="#66cdaa" stroke="black" cx="206" cy="-229.79" rx="31.2258" ry="16.0303"/>
<text text-anchor="middle" x="206" y="-226.09" font-family="Times,serif" font-size="14.00">8_47</text>
</g>
<!-- 8_38x8_49&#45;&gt;8_47 -->
<g id="edge56" class="edge"><title>8_38x8_49&#45;&gt;8_47</title>
<path fill="none" stroke="black" d="M135.504,-295.928C141.688,-290.213 165.696,-268.03 183.993,-251.125"/>
<polygon fill="black" stroke="black" points="186.447,-253.623 191.416,-244.266 181.696,-248.481 186.447,-253.623"/>
</g>
<!-- 8_46 -->
<g id="node59" class="node"><title>8_46</title>
<ellipse fill="#66cdaa" stroke="black" cx="126" cy="-229.79" rx="31.2258" ry="16.0303"/>
<text text-anchor="middle" x="126" y="-226.09" font-family="Times,serif" font-size="14.00">8_46</text>
</g>
<!-- 8_38x8_49&#45;&gt;8_46 -->
<g id="edge57" class="edge"><title>8_38x8_49&#45;&gt;8_46</title>
<path fill="none" stroke="black" d="M133.696,-294.791C132.934,-288.45 130.872,-271.301 129.074,-256.35"/>
<polygon fill="black" stroke="black" points="132.502,-255.548 127.833,-246.037 125.553,-256.384 132.502,-255.548"/>
</g>
<!-- 8_19 -->
<g id="node31" class="node"><title>8_19</title>
<polygon fill="#66cdaa" stroke="black" points="1447,-241.29 1403,-241.29 1403,-218.29 1447,-218.29 1447,-241.29"/>
<text text-anchor="middle" x="1425" y="-226.09" font-family="Times,serif" font-size="14.00">8_19</text>
</g>
<!-- 8_19x8_18 -->
<g id="node32" class="node"><title>8_19x8_18</title>
<polygon fill="none" stroke="black" points="1425,-177.527 1421.5,-174.027 1425,-170.527 1428.5,-174.027 1425,-177.527"/>
</g>
<!-- 8_19&#45;&gt;8_19x8_18 -->
<g id="edge30" class="edge"><title>8_19&#45;&gt;8_19x8_18</title>
<path fill="none" stroke="black" d="M1425,-218.168C1425,-209.416 1425,-196.981 1425,-187.707"/>
<polygon fill="black" stroke="black" points="1428.5,-187.666 1425,-177.666 1421.5,-187.666 1428.5,-187.666"/>
</g>
<!-- 8_21 -->
<g id="node33" class="node"><title>8_21</title>
<ellipse fill="#66cdaa" stroke="black" cx="1567" cy="-118.263" rx="31.2258" ry="16.0303"/>
<text text-anchor="middle" x="1567" y="-114.563" font-family="Times,serif" font-size="14.00">8_21</text>
</g>
<!-- 8_19x8_18&#45;&gt;8_21 -->
<g id="edge31" class="edge"><title>8_19x8_18&#45;&gt;8_21</title>
<path fill="none" stroke="black" d="M1426.95,-172.295C1437.27,-168.415 1486.65,-149.839 1527,-134.527 1528.88,-133.815 1530.8,-133.083 1532.75,-132.344"/>
<polygon fill="black" stroke="black" points="1534.37,-135.471 1542.47,-128.641 1531.88,-128.93 1534.37,-135.471"/>
</g>
<!-- 8_22 -->
<g id="node34" class="node"><title>8_22</title>
<ellipse fill="#66cdaa" stroke="black" cx="1407" cy="-118.263" rx="31.2258" ry="16.0303"/>
<text text-anchor="middle" x="1407" y="-114.563" font-family="Times,serif" font-size="14.00">8_22</text>
</g>
<!-- 8_19x8_18&#45;&gt;8_22 -->
<g id="edge32" class="edge"><title>8_19x8_18&#45;&gt;8_22</title>
<path fill="none" stroke="black" d="M1424.23,-170.717C1422.66,-166.039 1418.96,-154.981 1415.39,-144.31"/>
<polygon fill="black" stroke="black" points="1418.7,-143.186 1412.21,-134.814 1412.06,-145.408 1418.7,-143.186"/>
</g>
<!-- 8_20 -->
<g id="node36" class="node"><title>8_20</title>
<ellipse fill="#66cdaa" stroke="black" cx="1487" cy="-118.263" rx="31.2258" ry="16.0303"/>
<text text-anchor="middle" x="1487" y="-114.563" font-family="Times,serif" font-size="14.00">8_20</text>
</g>
<!-- 8_19x8_18&#45;&gt;8_20 -->
<g id="edge34" class="edge"><title>8_19x8_18&#45;&gt;8_20</title>
<path fill="none" stroke="black" d="M1426.53,-171.698C1431.69,-167.223 1448.94,-152.266 1463.7,-139.466"/>
<polygon fill="black" stroke="black" points="1466.29,-141.853 1471.55,-132.657 1461.71,-136.564 1466.29,-141.853"/>
</g>
<!-- 8_28 -->
<g id="node35" class="node"><title>8_28</title>
<ellipse fill="#66cdaa" stroke="black" cx="821" cy="-229.79" rx="31.2258" ry="16.0303"/>
<text text-anchor="middle" x="821" y="-226.09" font-family="Times,serif" font-size="14.00">8_28</text>
</g>
<!-- 8_28&#45;&gt;8_10x8_28 -->
<g id="edge33" class="edge"><title>8_28&#45;&gt;8_10x8_28</title>
<path fill="none" stroke="black" d="M821,-213.24C821,-205.134 821,-195.345 821,-187.705"/>
<polygon fill="black" stroke="black" points="824.5,-187.55 821,-177.55 817.5,-187.55 824.5,-187.55"/>
</g>
<!-- 8_42 -->
<g id="node37" class="node"><title>8_42</title>
<polygon fill="#66cdaa" stroke="black" points="544,-241.29 500,-241.29 500,-218.29 544,-218.29 544,-241.29"/>
<text text-anchor="middle" x="522" y="-226.09" font-family="Times,serif" font-size="14.00">8_42</text>
</g>
<!-- 8_42x8_13 -->
<g id="node38" class="node"><title>8_42x8_13</title>
<polygon fill="none" stroke="black" points="522,-177.527 518.5,-174.027 522,-170.527 525.5,-174.027 522,-177.527"/>
</g>
<!-- 8_42&#45;&gt;8_42x8_13 -->
<g id="edge35" class="edge"><title>8_42&#45;&gt;8_42x8_13</title>
<path fill="none" stroke="black" d="M522,-218.168C522,-209.416 522,-196.981 522,-187.707"/>
<polygon fill="black" stroke="black" points="525.5,-187.666 522,-177.666 518.5,-187.666 525.5,-187.666"/>
</g>
<!-- 8_43 -->
<g id="node54" class="node"><title>8_43</title>
<ellipse fill="white" stroke="black" cx="431" cy="-118.263" rx="31.2258" ry="16.0303"/>
<text text-anchor="middle" x="431" y="-114.563" font-family="Times,serif" font-size="14.00">8_43</text>
</g>
<!-- 8_42x8_13&#45;&gt;8_43 -->
<g id="edge52" class="edge"><title>8_42x8_13&#45;&gt;8_43</title>
<path fill="none" stroke="black" d="M520.421,-172.094C513.253,-167.859 483.129,-150.062 459.802,-136.28"/>
<polygon fill="black" stroke="black" points="461.332,-133.119 450.942,-131.045 457.772,-139.146 461.332,-133.119"/>
</g>
<!-- 8_56 -->
<g id="node56" class="node"><title>8_56</title>
<ellipse fill="white" stroke="black" cx="511" cy="-118.263" rx="31.2258" ry="16.0303"/>
<text text-anchor="middle" x="511" y="-114.563" font-family="Times,serif" font-size="14.00">8_56</text>
</g>
<!-- 8_42x8_13&#45;&gt;8_56 -->
<g id="edge54" class="edge"><title>8_42x8_13&#45;&gt;8_56</title>
<path fill="none" stroke="black" d="M521.527,-170.717C520.58,-166.086 518.354,-155.206 516.191,-144.637"/>
<polygon fill="black" stroke="black" points="519.615,-143.91 514.182,-134.814 512.757,-145.313 519.615,-143.91"/>
</g>
<!-- 8_55 -->
<g id="node57" class="node"><title>8_55</title>
<polygon fill="white" stroke="black" points="604,-129.763 560,-129.763 560,-106.763 604,-106.763 604,-129.763"/>
<text text-anchor="middle" x="582" y="-114.563" font-family="Times,serif" font-size="14.00">8_55</text>
</g>
<!-- 8_42x8_13&#45;&gt;8_55 -->
<g id="edge55" class="edge"><title>8_42x8_13&#45;&gt;8_55</title>
<path fill="none" stroke="black" d="M523.483,-171.698C528.812,-166.923 547.461,-150.212 562.292,-136.923"/>
<polygon fill="black" stroke="black" points="564.917,-139.27 570.029,-129.99 560.246,-134.057 564.917,-139.27"/>
</g>
<!-- 8_44 -->
<g id="node39" class="node"><title>8_44</title>
<ellipse fill="#66cdaa" stroke="black" cx="100" cy="-118.263" rx="31.2258" ry="16.0303"/>
<text text-anchor="middle" x="100" y="-114.563" font-family="Times,serif" font-size="14.00">8_44</text>
</g>
<!-- 8_5x8_44 -->
<g id="node40" class="node"><title>8_5x8_44</title>
<polygon fill="none" stroke="black" points="134,-66 130.5,-62.5 134,-59 137.5,-62.5 134,-66"/>
</g>
<!-- 8_44&#45;&gt;8_5x8_44 -->
<g id="edge36" class="edge"><title>8_44&#45;&gt;8_5x8_44</title>
<path fill="none" stroke="black" d="M109.291,-102.572C115.064,-93.4434 122.342,-81.9347 127.5,-73.7782"/>
<polygon fill="black" stroke="black" points="130.614,-75.4024 133.001,-65.0799 124.698,-71.661 130.614,-75.4024"/>
</g>
<!-- 8_58 -->
<g id="node43" class="node"><title>8_58</title>
<polygon fill="white" stroke="black" points="187,-23 143,-23 143,-0 187,-0 187,-23"/>
<text text-anchor="middle" x="165" y="-7.8" font-family="Times,serif" font-size="14.00">8_58</text>
</g>
<!-- 8_5x8_44&#45;&gt;8_58 -->
<g id="edge40" class="edge"><title>8_5x8_44&#45;&gt;8_58</title>
<path fill="none" stroke="black" d="M135.031,-59.8697C137.822,-55.4587 145.783,-42.8749 152.799,-31.7856"/>
<polygon fill="black" stroke="black" points="155.947,-33.3564 158.335,-23.0343 150.031,-29.6138 155.947,-33.3564"/>
</g>
<!-- 8_45 -->
<g id="node66" class="node"><title>8_45</title>
<polygon fill="white" stroke="black" points="125,-23 81,-23 81,-0 125,-0 125,-23"/>
<text text-anchor="middle" x="103" y="-7.8" font-family="Times,serif" font-size="14.00">8_45</text>
</g>
<!-- 8_5x8_44&#45;&gt;8_45 -->
<g id="edge64" class="edge"><title>8_5x8_44&#45;&gt;8_45</title>
<path fill="none" stroke="black" d="M132.969,-59.8697C130.178,-55.4587 122.217,-42.8749 115.201,-31.7856"/>
<polygon fill="black" stroke="black" points="117.969,-29.6138 109.665,-23.0343 112.053,-33.3564 117.969,-29.6138"/>
</g>
<!-- 8_5&#45;&gt;8_5x8_44 -->
<g id="edge39" class="edge"><title>8_5&#45;&gt;8_5x8_44</title>
<path fill="none" stroke="black" d="M161.283,-106.642C155.274,-97.1396 146.519,-83.296 140.559,-73.8714"/>
<polygon fill="black" stroke="black" points="143.481,-71.9434 135.178,-65.3624 137.565,-75.6849 143.481,-71.9434"/>
</g>
<!-- 8_48 -->
<g id="node44" class="node"><title>8_48</title>
<polygon fill="white" stroke="black" points="1296,-129.763 1252,-129.763 1252,-106.763 1296,-106.763 1296,-129.763"/>
<text text-anchor="middle" x="1274" y="-114.563" font-family="Times,serif" font-size="14.00">8_48</text>
</g>
<!-- 8_48x8_57 -->
<g id="node46" class="node"><title>8_48x8_57</title>
<polygon fill="none" stroke="black" points="1025,-66 1021.5,-62.5 1025,-59 1028.5,-62.5 1025,-66"/>
</g>
<!-- 8_48&#45;&gt;8_48x8_57 -->
<g id="edge42" class="edge"><title>8_48&#45;&gt;8_48x8_57</title>
<path fill="none" stroke="black" d="M1254.67,-106.711C1250.88,-104.94 1246.88,-103.268 1243,-102 1167.54,-77.3146 1071.91,-67.399 1037.8,-64.4906"/>
<polygon fill="black" stroke="black" points="1037.91,-60.988 1027.66,-63.6846 1037.35,-67.966 1037.91,-60.988"/>
</g>
<!-- 8_53x8_15 -->
<g id="node45" class="node"><title>8_53x8_15</title>
<polygon fill="none" stroke="black" points="1185,-177.527 1181.5,-174.027 1185,-170.527 1188.5,-174.027 1185,-177.527"/>
</g>
<!-- 8_53x8_15&#45;&gt;8_48 -->
<g id="edge41" class="edge"><title>8_53x8_15&#45;&gt;8_48</title>
<path fill="none" stroke="black" d="M1186.86,-171.904C1194.62,-167.218 1225.06,-148.829 1247.79,-135.097"/>
<polygon fill="black" stroke="black" points="1249.61,-138.084 1256.36,-129.918 1245.99,-132.092 1249.61,-138.084"/>
</g>
<!-- 8_51 -->
<g id="node61" class="node"><title>8_51</title>
<polygon fill="white" stroke="black" points="1358,-129.763 1314,-129.763 1314,-106.763 1358,-106.763 1358,-129.763"/>
<text text-anchor="middle" x="1336" y="-114.563" font-family="Times,serif" font-size="14.00">8_51</text>
</g>
<!-- 8_53x8_15&#45;&gt;8_51 -->
<g id="edge59" class="edge"><title>8_53x8_15&#45;&gt;8_51</title>
<path fill="none" stroke="black" d="M1187.02,-172.5C1198.66,-169.433 1258.34,-153.379 1305,-134.527 1305.43,-134.353 1305.86,-134.175 1306.3,-133.994"/>
<polygon fill="black" stroke="black" points="1307.81,-137.151 1315.52,-129.874 1304.96,-130.761 1307.81,-137.151"/>
</g>
<!-- 8_50 -->
<g id="node62" class="node"><title>8_50</title>
<polygon fill="#66cdaa" stroke="black" points="1074,-129.763 1030,-129.763 1030,-106.763 1074,-106.763 1074,-129.763"/>
<text text-anchor="middle" x="1052" y="-114.563" font-family="Times,serif" font-size="14.00">8_50</text>
</g>
<!-- 8_53x8_15&#45;&gt;8_50 -->
<g id="edge60" class="edge"><title>8_53x8_15&#45;&gt;8_50</title>
<path fill="none" stroke="black" d="M1183.03,-172.362C1172.57,-168.822 1122.59,-151.698 1083,-134.527 1082.69,-134.393 1082.38,-134.257 1082.07,-134.12"/>
<polygon fill="black" stroke="black" points="1083.43,-130.894 1072.88,-129.886 1080.5,-137.251 1083.43,-130.894"/>
</g>
<!-- 8_52 -->
<g id="node63" class="node"><title>8_52</title>
<ellipse fill="white" stroke="black" cx="1123" cy="-118.263" rx="31.2258" ry="16.0303"/>
<text text-anchor="middle" x="1123" y="-114.563" font-family="Times,serif" font-size="14.00">8_52</text>
</g>
<!-- 8_53x8_15&#45;&gt;8_52 -->
<g id="edge61" class="edge"><title>8_53x8_15&#45;&gt;8_52</title>
<path fill="none" stroke="black" d="M1183.47,-171.698C1178.31,-167.223 1161.06,-152.266 1146.3,-139.466"/>
<polygon fill="black" stroke="black" points="1148.29,-136.564 1138.45,-132.657 1143.71,-141.853 1148.29,-136.564"/>
</g>
<!-- 8_54 -->
<g id="node64" class="node"><title>8_54</title>
<ellipse fill="#66cdaa" stroke="black" cx="1203" cy="-118.263" rx="31.2258" ry="16.0303"/>
<text text-anchor="middle" x="1203" y="-114.563" font-family="Times,serif" font-size="14.00">8_54</text>
</g>
<!-- 8_53x8_15&#45;&gt;8_54 -->
<g id="edge62" class="edge"><title>8_53x8_15&#45;&gt;8_54</title>
<path fill="none" stroke="black" d="M1185.77,-170.717C1187.34,-166.039 1191.04,-154.981 1194.61,-144.31"/>
<polygon fill="black" stroke="black" points="1197.94,-145.408 1197.79,-134.814 1191.3,-143.186 1197.94,-145.408"/>
</g>
<!-- 8_DCH48.57 -->
<g id="node55" class="node"><title>8_DCH48.57</title>
<polygon fill="#66cdaa" stroke="black" points="1069.5,-23 980.5,-23 980.5,-0 1069.5,-0 1069.5,-23"/>
<text text-anchor="middle" x="1025" y="-7.8" font-family="Times,serif" font-size="14.00">8_DCH48.57</text>
</g>
<!-- 8_48x8_57&#45;&gt;8_DCH48.57 -->
<g id="edge53" class="edge"><title>8_48x8_57&#45;&gt;8_DCH48.57</title>
<path fill="none" stroke="black" d="M1025,-58.8655C1025,-54.0189 1025,-43.2742 1025,-33.3477"/>
<polygon fill="black" stroke="black" points="1028.5,-33.2154 1025,-23.2154 1021.5,-33.2154 1028.5,-33.2154"/>
</g>
<!-- 8_15&#45;&gt;8_53x8_15 -->
<g id="edge47" class="edge"><title>8_15&#45;&gt;8_53x8_15</title>
<path fill="none" stroke="black" d="M1185,-213.24C1185,-205.134 1185,-195.345 1185,-187.705"/>
<polygon fill="black" stroke="black" points="1188.5,-187.55 1185,-177.55 1181.5,-187.55 1188.5,-187.55"/>
</g>
<!-- 8_18&#45;&gt;8_19x8_18 -->
<g id="edge51" class="edge"><title>8_18&#45;&gt;8_19x8_18</title>
<path fill="none" stroke="black" d="M1368.54,-216.049C1383.05,-205.507 1403.14,-190.909 1415.03,-182.269"/>
<polygon fill="black" stroke="black" points="1417.44,-184.847 1423.47,-176.137 1413.32,-179.184 1417.44,-184.847"/>
</g>
<!-- 8_49 -->
<g id="node60" class="node"><title>8_49</title>
<ellipse fill="#66cdaa" stroke="black" cx="173" cy="-366.844" rx="31.2258" ry="16.0303"/>
<text text-anchor="middle" x="173" y="-363.144" font-family="Times,serif" font-size="14.00">8_49</text>
</g>
<!-- 8_49&#45;&gt;8_38x8_49 -->
<g id="edge58" class="edge"><title>8_49&#45;&gt;8_38x8_49</title>
<path fill="none" stroke="black" d="M164.345,-351.08C157.016,-338.579 146.692,-320.967 140.174,-309.849"/>
<polygon fill="black" stroke="black" points="143.122,-307.958 135.046,-301.101 137.084,-311.498 143.122,-307.958"/>
</g>
<!-- 8_53 -->
<g id="node65" class="node"><title>8_53</title>
<polygon fill="#66cdaa" stroke="black" points="1136,-241.29 1092,-241.29 1092,-218.29 1136,-218.29 1136,-241.29"/>
<text text-anchor="middle" x="1114" y="-226.09" font-family="Times,serif" font-size="14.00">8_53</text>
</g>
<!-- 8_53&#45;&gt;8_53x8_15 -->
<g id="edge63" class="edge"><title>8_53&#45;&gt;8_53x8_15</title>
<path fill="none" stroke="black" d="M1128.03,-218.168C1142.03,-207.565 1163.17,-191.554 1175.38,-182.312"/>
<polygon fill="black" stroke="black" points="1177.54,-185.065 1183.4,-176.238 1173.32,-179.485 1177.54,-185.065"/>
</g>
<!-- 8_57 -->
<g id="node67" class="node"><title>8_57</title>
<ellipse fill="#66cdaa" stroke="black" cx="777" cy="-118.263" rx="31.2258" ry="16.0303"/>
<text text-anchor="middle" x="777" y="-114.563" font-family="Times,serif" font-size="14.00">8_57</text>
</g>
<!-- 8_57&#45;&gt;8_48x8_57 -->
<g id="edge65" class="edge"><title>8_57&#45;&gt;8_48x8_57</title>
<path fill="none" stroke="black" d="M800.451,-107.502C805.827,-105.493 811.561,-103.527 817,-102 889.716,-81.5791 979.841,-69.1211 1012.47,-65.0115"/>
<polygon fill="black" stroke="black" points="1012.99,-68.4748 1022.49,-63.7894 1012.14,-61.5263 1012.99,-68.4748"/>
</g>
<!-- 8_1&#45;&gt;8_1x8_2 -->
<g id="edge68" class="edge"><title>8_1&#45;&gt;8_1x8_2</title>
<path fill="none" stroke="black" d="M555.416,-466.749C537.331,-455.824 509.745,-439.16 494.7,-430.071"/>
<polygon fill="black" stroke="black" points="496.374,-426.994 486.005,-424.819 492.755,-432.985 496.374,-426.994"/>
</g>
<!-- 8_13&#45;&gt;8_42x8_13 -->
<g id="edge71" class="edge"><title>8_13&#45;&gt;8_42x8_13</title>
<path fill="none" stroke="black" d="M585.393,-216.591C569.02,-205.856 545.774,-190.614 532.457,-181.883"/>
<polygon fill="black" stroke="black" points="534.013,-178.718 523.732,-176.162 530.175,-184.572 534.013,-178.718"/>
</g>
</g>
</svg>
