<?xml version="1.0" encoding="UTF-8" standalone="no"?>
<!DOCTYPE svg PUBLIC "-//W3C//DTD SVG 1.1//EN"
 "http://www.w3.org/Graphics/SVG/1.1/DTD/svg11.dtd">
<!-- Generated by graphviz version 2.38.0 (20140413.2041)
 -->
<!-- Title: %3 Pages: 1 -->
<svg width="991pt" height="264pt"
 viewBox="0.00 0.00 991.25 263.58" xmlns="http://www.w3.org/2000/svg" xmlns:xlink="http://www.w3.org/1999/xlink">
<g id="graph0" class="graph" transform="scale(1 1) rotate(0) translate(4 259.581)">
<title>%3</title>
<polygon fill="white" stroke="none" points="-4,4 -4,-259.581 987.255,-259.581 987.255,4 -4,4"/>
<!-- 2_20_1 -->
<g id="node1" class="node"><title>2_20_1</title>
<ellipse fill="dimgrey" stroke="black" cx="122" cy="-127.79" rx="40.1111" ry="16.0303"/>
<text text-anchor="middle" x="122" y="-124.09" font-family="Times,serif" font-size="14.00">2_20_1</text>
</g>
<!-- 2_20_22x2_20_1 -->
<g id="node3" class="node"><title>2_20_22x2_20_1</title>
<polygon fill="none" stroke="black" points="77,-75.5269 73.5,-72.0269 77,-68.5269 80.5,-72.0269 77,-75.5269"/>
</g>
<!-- 2_20_1&#45;&gt;2_20_22x2_20_1 -->
<g id="edge2" class="edge"><title>2_20_1&#45;&gt;2_20_22x2_20_1</title>
<path fill="none" stroke="black" d="M109.704,-112.099C101.799,-102.656 91.7632,-90.6651 84.9068,-82.4735"/>
<polygon fill="black" stroke="black" points="87.4248,-80.0288 78.3224,-74.6068 82.0569,-84.5217 87.4248,-80.0288"/>
</g>
<!-- 2_20_2x2_20_3 -->
<g id="node2" class="node"><title>2_20_2x2_20_3</title>
<polygon fill="none" stroke="black" points="546,-187.054 542.5,-183.554 546,-180.054 549.5,-183.554 546,-187.054"/>
</g>
<!-- 2_20_2x2_20_3&#45;&gt;2_20_1 -->
<g id="edge1" class="edge"><title>2_20_2x2_20_3&#45;&gt;2_20_1</title>
<path fill="none" stroke="black" d="M543.286,-182.482C518.2,-181.781 324.232,-175.457 171,-144.054 167.814,-143.401 164.54,-142.624 161.269,-141.771"/>
<polygon fill="black" stroke="black" points="162.125,-138.376 151.551,-139.036 160.229,-145.115 162.125,-138.376"/>
</g>
<!-- 2_20_10 -->
<g id="node4" class="node"><title>2_20_10</title>
<ellipse fill="#66cdaa" stroke="black" cx="307" cy="-127.79" rx="45.011" ry="16.0303"/>
<text text-anchor="middle" x="307" y="-124.09" font-family="Times,serif" font-size="14.00">2_20_10</text>
</g>
<!-- 2_20_2x2_20_3&#45;&gt;2_20_10 -->
<g id="edge3" class="edge"><title>2_20_2x2_20_3&#45;&gt;2_20_10</title>
<path fill="none" stroke="black" d="M543.801,-182.149C528.488,-179.322 436.207,-162.094 362,-144.054 358.368,-143.171 354.612,-142.217 350.848,-141.232"/>
<polygon fill="black" stroke="black" points="351.509,-137.785 340.944,-138.579 349.698,-144.547 351.509,-137.785"/>
</g>
<!-- 2_20_9 -->
<g id="node9" class="node"><title>2_20_9</title>
<ellipse fill="dimgrey" stroke="black" cx="677" cy="-127.79" rx="40.1111" ry="16.0303"/>
<text text-anchor="middle" x="677" y="-124.09" font-family="Times,serif" font-size="14.00">2_20_9</text>
</g>
<!-- 2_20_2x2_20_3&#45;&gt;2_20_9 -->
<g id="edge7" class="edge"><title>2_20_2x2_20_3&#45;&gt;2_20_9</title>
<path fill="none" stroke="black" d="M547.852,-181.794C557.829,-177.699 606.015,-157.923 640.606,-143.727"/>
<polygon fill="black" stroke="black" points="642.036,-146.923 649.959,-139.888 639.378,-140.447 642.036,-146.923"/>
</g>
<!-- 2_20_5 -->
<g id="node11" class="node"><title>2_20_5</title>
<polygon fill="white" stroke="black" points="874.5,-139.29 817.5,-139.29 817.5,-116.29 874.5,-116.29 874.5,-139.29"/>
<text text-anchor="middle" x="846" y="-124.09" font-family="Times,serif" font-size="14.00">2_20_5</text>
</g>
<!-- 2_20_2x2_20_3&#45;&gt;2_20_5 -->
<g id="edge9" class="edge"><title>2_20_2x2_20_3&#45;&gt;2_20_5</title>
<path fill="none" stroke="black" d="M548.63,-182.404C568.972,-181.196 703.257,-172.358 808,-144.054 809.458,-143.66 810.937,-143.226 812.421,-142.762"/>
<polygon fill="black" stroke="black" points="813.885,-145.958 822.17,-139.355 811.575,-139.35 813.885,-145.958"/>
</g>
<!-- 2_20_11 -->
<g id="node17" class="node"><title>2_20_11</title>
<ellipse fill="white" stroke="black" cx="938" cy="-127.79" rx="45.011" ry="16.0303"/>
<text text-anchor="middle" x="938" y="-124.09" font-family="Times,serif" font-size="14.00">2_20_11</text>
</g>
<!-- 2_20_2x2_20_3&#45;&gt;2_20_11 -->
<g id="edge14" class="edge"><title>2_20_2x2_20_3&#45;&gt;2_20_11</title>
<path fill="none" stroke="black" d="M548.441,-182.428C571.006,-181.233 745.507,-171.328 884,-144.054 887.656,-143.334 891.425,-142.488 895.192,-141.571"/>
<polygon fill="black" stroke="black" points="896.275,-144.906 905.078,-139.01 894.52,-138.129 896.275,-144.906"/>
</g>
<!-- 2_20_23 -->
<g id="node27" class="node"><title>2_20_23</title>
<ellipse fill="dimgrey" stroke="black" cx="416" cy="-127.79" rx="45.011" ry="16.0303"/>
<text text-anchor="middle" x="416" y="-124.09" font-family="Times,serif" font-size="14.00">2_20_23</text>
</g>
<!-- 2_20_2x2_20_3&#45;&gt;2_20_23 -->
<g id="edge24" class="edge"><title>2_20_2x2_20_3&#45;&gt;2_20_23</title>
<path fill="none" stroke="black" d="M544.162,-181.794C534.402,-177.757 487.798,-158.483 453.592,-144.337"/>
<polygon fill="black" stroke="black" points="454.892,-141.087 444.313,-140.5 452.217,-147.556 454.892,-141.087"/>
</g>
<!-- 2_20_16 -->
<g id="node25" class="node"><title>2_20_16</title>
<polygon fill="white" stroke="black" points="109,-27.7635 45,-27.7635 45,-4.76346 109,-4.76346 109,-27.7635"/>
<text text-anchor="middle" x="77" y="-12.5635" font-family="Times,serif" font-size="14.00">2_20_16</text>
</g>
<!-- 2_20_22x2_20_1&#45;&gt;2_20_16 -->
<g id="edge22" class="edge"><title>2_20_22x2_20_1&#45;&gt;2_20_16</title>
<path fill="none" stroke="black" d="M77,-68.4338C77,-62.9657 77,-49.8005 77,-38.1938"/>
<polygon fill="black" stroke="black" points="80.5001,-37.8452 77,-27.8453 73.5001,-37.8453 80.5001,-37.8452"/>
</g>
<!-- 2_20_25x2_20_10 -->
<g id="node5" class="node"><title>2_20_25x2_20_10</title>
<polygon fill="none" stroke="black" points="260,-75.5269 256.5,-72.0269 260,-68.5269 263.5,-72.0269 260,-75.5269"/>
</g>
<!-- 2_20_10&#45;&gt;2_20_25x2_20_10 -->
<g id="edge4" class="edge"><title>2_20_10&#45;&gt;2_20_25x2_20_10</title>
<path fill="none" stroke="black" d="M294.157,-112.099C285.81,-102.551 275.186,-90.3983 268.021,-82.2019"/>
<polygon fill="black" stroke="black" points="270.598,-79.832 261.381,-74.6068 265.328,-84.4392 270.598,-79.832"/>
</g>
<!-- 2_20_21 -->
<g id="node6" class="node"><title>2_20_21</title>
<polygon fill="white" stroke="black" points="292,-27.7635 228,-27.7635 228,-4.76346 292,-4.76346 292,-27.7635"/>
<text text-anchor="middle" x="260" y="-12.5635" font-family="Times,serif" font-size="14.00">2_20_21</text>
</g>
<!-- 2_20_25x2_20_10&#45;&gt;2_20_21 -->
<g id="edge5" class="edge"><title>2_20_25x2_20_10&#45;&gt;2_20_21</title>
<path fill="none" stroke="black" d="M260,-68.4338C260,-62.9657 260,-49.8005 260,-38.1938"/>
<polygon fill="black" stroke="black" points="263.5,-37.8452 260,-27.8453 256.5,-37.8453 263.5,-37.8452"/>
</g>
<!-- 2_20_14 -->
<g id="node7" class="node"><title>2_20_14</title>
<polygon fill="white" stroke="black" points="708,-27.7635 644,-27.7635 644,-4.76346 708,-4.76346 708,-27.7635"/>
<text text-anchor="middle" x="676" y="-12.5635" font-family="Times,serif" font-size="14.00">2_20_14</text>
</g>
<!-- 2_20_13x2_20_9 -->
<g id="node8" class="node"><title>2_20_13x2_20_9</title>
<polygon fill="none" stroke="black" points="624,-75.5269 620.5,-72.0269 624,-68.5269 627.5,-72.0269 624,-75.5269"/>
</g>
<!-- 2_20_13x2_20_9&#45;&gt;2_20_14 -->
<g id="edge6" class="edge"><title>2_20_13x2_20_9&#45;&gt;2_20_14</title>
<path fill="none" stroke="black" d="M625.285,-69.6979C629.835,-64.9939 645.587,-48.7082 658.342,-35.5202"/>
<polygon fill="black" stroke="black" points="660.962,-37.8456 665.399,-28.2243 655.931,-32.979 660.962,-37.8456"/>
</g>
<!-- 2_20_15 -->
<g id="node26" class="node"><title>2_20_15</title>
<ellipse fill="white" stroke="black" cx="581" cy="-16.2635" rx="45.011" ry="16.0303"/>
<text text-anchor="middle" x="581" y="-12.5635" font-family="Times,serif" font-size="14.00">2_20_15</text>
</g>
<!-- 2_20_13x2_20_9&#45;&gt;2_20_15 -->
<g id="edge23" class="edge"><title>2_20_13x2_20_9&#45;&gt;2_20_15</title>
<path fill="none" stroke="black" d="M622.569,-69.2381C618.851,-64.5897 608.517,-51.6688 599.084,-39.8738"/>
<polygon fill="black" stroke="black" points="601.768,-37.6268 592.789,-32.0034 596.302,-41.999 601.768,-37.6268"/>
</g>
<!-- 2_20_9&#45;&gt;2_20_13x2_20_9 -->
<g id="edge8" class="edge"><title>2_20_9&#45;&gt;2_20_13x2_20_9</title>
<path fill="none" stroke="black" d="M662.797,-112.383C653.1,-102.546 640.58,-89.8459 632.424,-81.5727"/>
<polygon fill="black" stroke="black" points="634.798,-78.9953 625.285,-74.3309 629.813,-83.9095 634.798,-78.9953"/>
</g>
<!-- 2_20_B2004 -->
<g id="node10" class="node"><title>2_20_B2004</title>
<polygon fill="white" stroke="black" points="723,-250.817 637,-250.817 637,-227.817 723,-227.817 723,-250.817"/>
<text text-anchor="middle" x="680" y="-235.617" font-family="Times,serif" font-size="14.00">2_20_B2004</text>
</g>
<!-- 2_20_4 -->
<g id="node12" class="node"><title>2_20_4</title>
<polygon fill="#66cdaa" stroke="black" points="536.5,-139.29 479.5,-139.29 479.5,-116.29 536.5,-116.29 536.5,-139.29"/>
<text text-anchor="middle" x="508" y="-124.09" font-family="Times,serif" font-size="14.00">2_20_4</text>
</g>
<!-- 2_20_4x2_20_23 -->
<g id="node13" class="node"><title>2_20_4x2_20_23</title>
<polygon fill="none" stroke="black" points="456,-75.5269 452.5,-72.0269 456,-68.5269 459.5,-72.0269 456,-75.5269"/>
</g>
<!-- 2_20_4&#45;&gt;2_20_4x2_20_23 -->
<g id="edge10" class="edge"><title>2_20_4&#45;&gt;2_20_4x2_20_23</title>
<path fill="none" stroke="black" d="M497.726,-116.168C488.061,-106.175 473.75,-91.379 464.652,-81.9723"/>
<polygon fill="black" stroke="black" points="466.939,-79.3023 457.471,-74.5476 461.907,-84.1688 466.939,-79.3023"/>
</g>
<!-- 2_20_19 -->
<g id="node23" class="node"><title>2_20_19</title>
<polygon fill="white" stroke="black" points="416,-27.7635 352,-27.7635 352,-4.76346 416,-4.76346 416,-27.7635"/>
<text text-anchor="middle" x="384" y="-12.5635" font-family="Times,serif" font-size="14.00">2_20_19</text>
</g>
<!-- 2_20_4x2_20_23&#45;&gt;2_20_19 -->
<g id="edge20" class="edge"><title>2_20_4x2_20_23&#45;&gt;2_20_19</title>
<path fill="none" stroke="black" d="M454.496,-69.904C448.387,-65.3425 424.889,-47.7959 406.682,-34.2002"/>
<polygon fill="black" stroke="black" points="408.375,-31.0963 398.268,-27.9175 404.186,-36.7051 408.375,-31.0963"/>
</g>
<!-- 2_20_18 -->
<g id="node24" class="node"><title>2_20_18</title>
<polygon fill="white" stroke="black" points="498,-27.7635 434,-27.7635 434,-4.76346 498,-4.76346 498,-27.7635"/>
<text text-anchor="middle" x="466" y="-12.5635" font-family="Times,serif" font-size="14.00">2_20_18</text>
</g>
<!-- 2_20_4x2_20_23&#45;&gt;2_20_18 -->
<g id="edge21" class="edge"><title>2_20_4x2_20_23&#45;&gt;2_20_18</title>
<path fill="none" stroke="black" d="M456.43,-68.7168C457.414,-63.4232 459.918,-49.9606 462.118,-38.134"/>
<polygon fill="black" stroke="black" points="465.613,-38.4855 464,-28.0141 458.731,-37.2054 465.613,-38.4855"/>
</g>
<!-- 2_20_3 -->
<g id="node14" class="node"><title>2_20_3</title>
<ellipse fill="#66cdaa" stroke="black" cx="503" cy="-239.317" rx="40.1111" ry="16.0303"/>
<text text-anchor="middle" x="503" y="-235.617" font-family="Times,serif" font-size="14.00">2_20_3</text>
</g>
<!-- 2_20_3&#45;&gt;2_20_2x2_20_3 -->
<g id="edge11" class="edge"><title>2_20_3&#45;&gt;2_20_2x2_20_3</title>
<path fill="none" stroke="black" d="M514.75,-223.626C522.303,-214.182 531.893,-202.192 538.445,-194"/>
<polygon fill="black" stroke="black" points="541.224,-196.129 544.736,-186.134 535.757,-191.757 541.224,-196.129"/>
</g>
<!-- 2_20_25 -->
<g id="node15" class="node"><title>2_20_25</title>
<polygon fill="#66cdaa" stroke="black" points="244,-139.29 180,-139.29 180,-116.29 244,-116.29 244,-139.29"/>
<text text-anchor="middle" x="212" y="-124.09" font-family="Times,serif" font-size="14.00">2_20_25</text>
</g>
<!-- 2_20_25&#45;&gt;2_20_25x2_20_10 -->
<g id="edge12" class="edge"><title>2_20_25&#45;&gt;2_20_25x2_20_10</title>
<path fill="none" stroke="black" d="M221.483,-116.168C230.312,-106.28 243.338,-91.69 251.747,-82.2712"/>
<polygon fill="black" stroke="black" points="254.593,-84.3382 258.642,-74.5476 249.372,-79.6762 254.593,-84.3382"/>
</g>
<!-- 2_20_13 -->
<g id="node16" class="node"><title>2_20_13</title>
<polygon fill="#66cdaa" stroke="black" points="619,-139.29 555,-139.29 555,-116.29 619,-116.29 619,-139.29"/>
<text text-anchor="middle" x="587" y="-124.09" font-family="Times,serif" font-size="14.00">2_20_13</text>
</g>
<!-- 2_20_13&#45;&gt;2_20_13x2_20_9 -->
<g id="edge13" class="edge"><title>2_20_13&#45;&gt;2_20_13x2_20_9</title>
<path fill="none" stroke="black" d="M594.31,-116.168C600.97,-106.49 610.73,-92.3087 617.22,-82.8793"/>
<polygon fill="black" stroke="black" points="620.167,-84.7695 622.953,-74.5476 614.401,-80.8011 620.167,-84.7695"/>
</g>
<!-- 2_20_24x2_20_11 -->
<g id="node18" class="node"><title>2_20_24x2_20_11</title>
<polygon fill="none" stroke="black" points="768,-75.5269 764.5,-72.0269 768,-68.5269 771.5,-72.0269 768,-75.5269"/>
</g>
<!-- 2_20_11&#45;&gt;2_20_24x2_20_11 -->
<g id="edge15" class="edge"><title>2_20_11&#45;&gt;2_20_24x2_20_11</title>
<path fill="none" stroke="black" d="M905.222,-116.424C866.924,-104.312 805.532,-84.8967 779.873,-76.7819"/>
<polygon fill="black" stroke="black" points="780.802,-73.4047 770.212,-73.7263 778.691,-80.0789 780.802,-73.4047"/>
</g>
<!-- 2_20_20 -->
<g id="node21" class="node"><title>2_20_20</title>
<polygon fill="white" stroke="black" points="800,-27.7635 736,-27.7635 736,-4.76346 800,-4.76346 800,-27.7635"/>
<text text-anchor="middle" x="768" y="-12.5635" font-family="Times,serif" font-size="14.00">2_20_20</text>
</g>
<!-- 2_20_24x2_20_11&#45;&gt;2_20_20 -->
<g id="edge18" class="edge"><title>2_20_24x2_20_11&#45;&gt;2_20_20</title>
<path fill="none" stroke="black" d="M768,-68.4338C768,-62.9657 768,-49.8005 768,-38.1938"/>
<polygon fill="black" stroke="black" points="771.5,-37.8452 768,-27.8453 764.5,-37.8453 771.5,-37.8452"/>
</g>
<!-- 2_20_24 -->
<g id="node19" class="node"><title>2_20_24</title>
<polygon fill="#66cdaa" stroke="black" points="799,-139.29 735,-139.29 735,-116.29 799,-116.29 799,-139.29"/>
<text text-anchor="middle" x="767" y="-124.09" font-family="Times,serif" font-size="14.00">2_20_24</text>
</g>
<!-- 2_20_24&#45;&gt;2_20_24x2_20_11 -->
<g id="edge16" class="edge"><title>2_20_24&#45;&gt;2_20_24x2_20_11</title>
<path fill="none" stroke="black" d="M767.198,-116.168C767.36,-107.416 767.592,-94.9805 767.764,-85.7075"/>
<polygon fill="black" stroke="black" points="771.264,-85.729 767.951,-75.6656 764.265,-85.5987 771.264,-85.729"/>
</g>
<!-- 2_20_22 -->
<g id="node20" class="node"><title>2_20_22</title>
<polygon fill="#66cdaa" stroke="black" points="64,-139.29 0,-139.29 0,-116.29 64,-116.29 64,-139.29"/>
<text text-anchor="middle" x="32" y="-124.09" font-family="Times,serif" font-size="14.00">2_20_22</text>
</g>
<!-- 2_20_22&#45;&gt;2_20_22x2_20_1 -->
<g id="edge17" class="edge"><title>2_20_22&#45;&gt;2_20_22x2_20_1</title>
<path fill="none" stroke="black" d="M40.8906,-116.168C49.1671,-106.28 61.379,-91.69 69.2626,-82.2712"/>
<polygon fill="black" stroke="black" points="71.9927,-84.4624 75.7272,-74.5476 66.6248,-79.9695 71.9927,-84.4624"/>
</g>
<!-- 2_20_2 -->
<g id="node22" class="node"><title>2_20_2</title>
<polygon fill="#66cdaa" stroke="black" points="618.5,-250.817 561.5,-250.817 561.5,-227.817 618.5,-227.817 618.5,-250.817"/>
<text text-anchor="middle" x="590" y="-235.617" font-family="Times,serif" font-size="14.00">2_20_2</text>
</g>
<!-- 2_20_2&#45;&gt;2_20_2x2_20_3 -->
<g id="edge19" class="edge"><title>2_20_2&#45;&gt;2_20_2x2_20_3</title>
<path fill="none" stroke="black" d="M581.307,-227.695C573.301,-217.912 561.527,-203.527 553.813,-194.1"/>
<polygon fill="black" stroke="black" points="556.286,-191.597 547.245,-186.074 550.869,-196.03 556.286,-191.597"/>
</g>
<!-- 2_20_23&#45;&gt;2_20_4x2_20_23 -->
<g id="edge25" class="edge"><title>2_20_23&#45;&gt;2_20_4x2_20_23</title>
<path fill="none" stroke="black" d="M427.142,-111.814C434.086,-102.481 442.815,-90.7493 448.844,-82.6452"/>
<polygon fill="black" stroke="black" points="451.677,-84.701 454.838,-74.5888 446.061,-80.5226 451.677,-84.701"/>
</g>
</g>
</svg>
