<?xml version="1.0" encoding="UTF-8" standalone="no"?>
<!DOCTYPE svg PUBLIC "-//W3C//DTD SVG 1.1//EN"
 "http://www.w3.org/Graphics/SVG/1.1/DTD/svg11.dtd">
<!-- Generated by graphviz version 2.38.0 (20140413.2041)
 -->
<!-- Title: %3 Pages: 1 -->
<svg width="558pt" height="477pt"
 viewBox="0.00 0.00 558.00 477.11" xmlns="http://www.w3.org/2000/svg" xmlns:xlink="http://www.w3.org/1999/xlink">
<g id="graph0" class="graph" transform="scale(1 1) rotate(0) translate(4 473.108)">
<title>%3</title>
<polygon fill="white" stroke="none" points="-4,4 -4,-473.108 554,-473.108 554,4 -4,4"/>
<!-- 585_99 -->
<g id="node1" class="node"><title>585_99</title>
<ellipse fill="dimgrey" stroke="black" cx="108" cy="-118.263" rx="40.1111" ry="16.0303"/>
<text text-anchor="middle" x="108" y="-114.563" font-family="Times,serif" font-size="14.00">585_99</text>
</g>
<!-- 585_8x585_99 -->
<g id="node3" class="node"><title>585_8x585_99</title>
<polygon fill="none" stroke="black" points="66,-66 62.5,-62.5 66,-59 69.5,-62.5 66,-66"/>
</g>
<!-- 585_99&#45;&gt;585_8x585_99 -->
<g id="edge2" class="edge"><title>585_99&#45;&gt;585_8x585_99</title>
<path fill="none" stroke="black" d="M96.5233,-102.572C89.2278,-93.2335 79.9869,-81.4043 73.5941,-73.2211"/>
<polygon fill="black" stroke="black" points="76.1486,-70.8057 67.2342,-65.0799 70.6323,-75.1151 76.1486,-70.8057"/>
</g>
<!-- 585_1x585_2 -->
<g id="node2" class="node"><title>585_1x585_2</title>
<polygon fill="none" stroke="black" points="330,-177.527 326.5,-174.027 330,-170.527 333.5,-174.027 330,-177.527"/>
</g>
<!-- 585_1x585_2&#45;&gt;585_99 -->
<g id="edge1" class="edge"><title>585_1x585_2&#45;&gt;585_99</title>
<path fill="none" stroke="black" d="M327.558,-172.553C312.131,-169.546 226.638,-152.657 158,-134.527 154.841,-133.692 151.582,-132.791 148.313,-131.858"/>
<polygon fill="black" stroke="black" points="149.149,-128.455 138.568,-128.998 147.177,-135.172 149.149,-128.455"/>
</g>
<!-- 585_6 -->
<g id="node14" class="node"><title>585_6</title>
<ellipse fill="#66cdaa" stroke="black" cx="202" cy="-118.263" rx="35.2113" ry="16.0303"/>
<text text-anchor="middle" x="202" y="-114.563" font-family="Times,serif" font-size="14.00">585_6</text>
</g>
<!-- 585_1x585_2&#45;&gt;585_6 -->
<g id="edge14" class="edge"><title>585_1x585_2&#45;&gt;585_6</title>
<path fill="none" stroke="black" d="M328.191,-172.267C318.373,-168.143 270.692,-148.116 236.846,-133.9"/>
<polygon fill="black" stroke="black" points="237.852,-130.526 227.277,-129.88 235.141,-136.98 237.852,-130.526"/>
</g>
<!-- 585_5 -->
<g id="node16" class="node"><title>585_5</title>
<ellipse fill="dimgrey" stroke="black" cx="291" cy="-118.263" rx="35.2113" ry="16.0303"/>
<text text-anchor="middle" x="291" y="-114.563" font-family="Times,serif" font-size="14.00">585_5</text>
</g>
<!-- 585_1x585_2&#45;&gt;585_5 -->
<g id="edge16" class="edge"><title>585_1x585_2&#45;&gt;585_5</title>
<path fill="none" stroke="black" d="M328.702,-171.238C325.363,-166.634 316.137,-153.916 307.649,-142.214"/>
<polygon fill="black" stroke="black" points="310.397,-140.043 301.692,-134.003 304.731,-144.153 310.397,-140.043"/>
</g>
<!-- 585_3 -->
<g id="node18" class="node"><title>585_3</title>
<polygon fill="white" stroke="black" points="394,-129.763 344,-129.763 344,-106.763 394,-106.763 394,-129.763"/>
<text text-anchor="middle" x="369" y="-114.563" font-family="Times,serif" font-size="14.00">585_3</text>
</g>
<!-- 585_1x585_2&#45;&gt;585_3 -->
<g id="edge18" class="edge"><title>585_1x585_2&#45;&gt;585_3</title>
<path fill="none" stroke="black" d="M331.298,-171.238C335.035,-166.086 346.143,-150.774 355.34,-138.094"/>
<polygon fill="black" stroke="black" points="358.25,-140.043 361.289,-129.893 352.584,-135.933 358.25,-140.043"/>
</g>
<!-- 585_7 -->
<g id="node20" class="node"><title>585_7</title>
<ellipse fill="dimgrey" stroke="black" cx="447" cy="-118.263" rx="35.2113" ry="16.0303"/>
<text text-anchor="middle" x="447" y="-114.563" font-family="Times,serif" font-size="14.00">585_7</text>
</g>
<!-- 585_1x585_2&#45;&gt;585_7 -->
<g id="edge20" class="edge"><title>585_1x585_2&#45;&gt;585_7</title>
<path fill="none" stroke="black" d="M332.031,-172.094C341.614,-167.69 383.119,-148.618 413.519,-134.649"/>
<polygon fill="black" stroke="black" points="415.319,-137.674 422.944,-130.318 412.396,-131.313 415.319,-137.674"/>
</g>
<!-- 585_4 -->
<g id="node21" class="node"><title>585_4</title>
<polygon fill="white" stroke="black" points="550,-129.763 500,-129.763 500,-106.763 550,-106.763 550,-129.763"/>
<text text-anchor="middle" x="525" y="-114.563" font-family="Times,serif" font-size="14.00">585_4</text>
</g>
<!-- 585_1x585_2&#45;&gt;585_4 -->
<g id="edge21" class="edge"><title>585_1x585_2&#45;&gt;585_4</title>
<path fill="none" stroke="black" d="M332.316,-172.642C346.939,-170.178 427.886,-156.028 491,-134.527 491.857,-134.235 492.723,-133.929 493.593,-133.612"/>
<polygon fill="black" stroke="black" points="494.935,-136.844 502.927,-129.889 492.342,-130.343 494.935,-136.844"/>
</g>
<!-- 585_9 -->
<g id="node19" class="node"><title>585_9</title>
<polygon fill="#66cdaa" stroke="black" points="91,-23 41,-23 41,-0 91,-0 91,-23"/>
<text text-anchor="middle" x="66" y="-7.8" font-family="Times,serif" font-size="14.00">585_9</text>
</g>
<!-- 585_8x585_99&#45;&gt;585_9 -->
<g id="edge19" class="edge"><title>585_8x585_99&#45;&gt;585_9</title>
<path fill="none" stroke="black" d="M66,-58.8655C66,-54.0189 66,-43.2742 66,-33.3477"/>
<polygon fill="black" stroke="black" points="69.5001,-33.2154 66,-23.2154 62.5001,-33.2154 69.5001,-33.2154"/>
</g>
<!-- 585_2 -->
<g id="node4" class="node"><title>585_2</title>
<ellipse fill="dimgrey" stroke="black" cx="290" cy="-229.79" rx="35.2113" ry="16.0303"/>
<text text-anchor="middle" x="290" y="-226.09" font-family="Times,serif" font-size="14.00">585_2</text>
</g>
<!-- 585_2&#45;&gt;585_1x585_2 -->
<g id="edge4" class="edge"><title>585_2&#45;&gt;585_1x585_2</title>
<path fill="none" stroke="black" d="M300.93,-214.099C307.878,-204.76 316.679,-192.931 322.768,-184.748"/>
<polygon fill="black" stroke="black" points="325.663,-186.719 328.825,-176.607 320.047,-182.541 325.663,-186.719"/>
</g>
<!-- 585_10x585_11 -->
<g id="node5" class="node"><title>585_10x585_11</title>
<polygon fill="none" stroke="black" points="286,-289.054 282.5,-285.554 286,-282.054 289.5,-285.554 286,-289.054"/>
</g>
<!-- 585_10x585_11&#45;&gt;585_2 -->
<g id="edge3" class="edge"><title>585_10x585_11&#45;&gt;585_2</title>
<path fill="none" stroke="black" d="M286.193,-281.961C286.549,-277.178 287.343,-266.508 288.114,-256.142"/>
<polygon fill="black" stroke="black" points="291.609,-256.339 288.86,-246.107 284.628,-255.82 291.609,-256.339"/>
</g>
<!-- 585_11 -->
<g id="node6" class="node"><title>585_11</title>
<ellipse fill="#66cdaa" stroke="black" cx="199" cy="-341.317" rx="40.1111" ry="16.0303"/>
<text text-anchor="middle" x="199" y="-337.617" font-family="Times,serif" font-size="14.00">585_11</text>
</g>
<!-- 585_11&#45;&gt;585_10x585_11 -->
<g id="edge5" class="edge"><title>585_11&#45;&gt;585_10x585_11</title>
<path fill="none" stroke="black" d="M220.06,-327.303C237.661,-316.426 262.012,-301.378 275.659,-292.944"/>
<polygon fill="black" stroke="black" points="277.556,-295.886 284.223,-287.652 273.876,-289.932 277.556,-295.886"/>
</g>
<!-- 585_15 -->
<g id="node7" class="node"><title>585_15</title>
<ellipse fill="#66cdaa" stroke="black" cx="373" cy="-341.317" rx="40.1111" ry="16.0303"/>
<text text-anchor="middle" x="373" y="-337.617" font-family="Times,serif" font-size="14.00">585_15</text>
</g>
<!-- 585_12x585_15 -->
<g id="node8" class="node"><title>585_12x585_15</title>
<polygon fill="none" stroke="black" points="373,-289.054 369.5,-285.554 373,-282.054 376.5,-285.554 373,-289.054"/>
</g>
<!-- 585_15&#45;&gt;585_12x585_15 -->
<g id="edge6" class="edge"><title>585_15&#45;&gt;585_12x585_15</title>
<path fill="none" stroke="black" d="M373,-324.767C373,-316.661 373,-306.872 373,-299.232"/>
<polygon fill="black" stroke="black" points="376.5,-299.077 373,-289.077 369.5,-299.077 376.5,-299.077"/>
</g>
<!-- 585_1 -->
<g id="node13" class="node"><title>585_1</title>
<polygon fill="#66cdaa" stroke="black" points="395,-241.29 345,-241.29 345,-218.29 395,-218.29 395,-241.29"/>
<text text-anchor="middle" x="370" y="-226.09" font-family="Times,serif" font-size="14.00">585_1</text>
</g>
<!-- 585_12x585_15&#45;&gt;585_1 -->
<g id="edge12" class="edge"><title>585_12x585_15&#45;&gt;585_1</title>
<path fill="none" stroke="black" d="M372.855,-281.961C372.547,-276.436 371.8,-263.055 371.148,-251.362"/>
<polygon fill="black" stroke="black" points="374.642,-251.162 370.59,-241.372 367.653,-251.552 374.642,-251.162"/>
</g>
<!-- 585_12 -->
<g id="node9" class="node"><title>585_12</title>
<polygon fill="#66cdaa" stroke="black" points="488.5,-352.817 431.5,-352.817 431.5,-329.817 488.5,-329.817 488.5,-352.817"/>
<text text-anchor="middle" x="460" y="-337.617" font-family="Times,serif" font-size="14.00">585_12</text>
</g>
<!-- 585_12&#45;&gt;585_12x585_15 -->
<g id="edge8" class="edge"><title>585_12&#45;&gt;585_12x585_15</title>
<path fill="none" stroke="black" d="M442.812,-329.695C425.306,-318.877 398.695,-302.432 383.896,-293.287"/>
<polygon fill="black" stroke="black" points="385.306,-290.045 374.96,-287.765 381.627,-295.999 385.306,-290.045"/>
</g>
<!-- 585_13x585_14 -->
<g id="node10" class="node"><title>585_13x585_14</title>
<polygon fill="none" stroke="black" points="373,-400.581 369.5,-397.081 373,-393.581 376.5,-397.081 373,-400.581"/>
</g>
<!-- 585_13x585_14&#45;&gt;585_12 -->
<g id="edge7" class="edge"><title>585_13x585_14&#45;&gt;585_12</title>
<path fill="none" stroke="black" d="M374.817,-394.958C382.366,-390.293 411.894,-372.045 434.083,-358.333"/>
<polygon fill="black" stroke="black" points="436.093,-361.206 442.76,-352.971 432.413,-355.251 436.093,-361.206"/>
</g>
<!-- 585_10 -->
<g id="node12" class="node"><title>585_10</title>
<polygon fill="#66cdaa" stroke="black" points="314.5,-352.817 257.5,-352.817 257.5,-329.817 314.5,-329.817 314.5,-352.817"/>
<text text-anchor="middle" x="286" y="-337.617" font-family="Times,serif" font-size="14.00">585_10</text>
</g>
<!-- 585_13x585_14&#45;&gt;585_10 -->
<g id="edge10" class="edge"><title>585_13x585_14&#45;&gt;585_10</title>
<path fill="none" stroke="black" d="M371.183,-394.958C363.634,-390.293 334.106,-372.045 311.917,-358.333"/>
<polygon fill="black" stroke="black" points="313.587,-355.251 303.24,-352.971 309.907,-361.206 313.587,-355.251"/>
</g>
<!-- 585_14 -->
<g id="node11" class="node"><title>585_14</title>
<ellipse fill="#66cdaa" stroke="black" cx="330" cy="-452.844" rx="40.1111" ry="16.0303"/>
<text text-anchor="middle" x="330" y="-449.144" font-family="Times,serif" font-size="14.00">585_14</text>
</g>
<!-- 585_14&#45;&gt;585_13x585_14 -->
<g id="edge9" class="edge"><title>585_14&#45;&gt;585_13x585_14</title>
<path fill="none" stroke="black" d="M341.75,-437.153C349.303,-427.709 358.893,-415.719 365.445,-407.527"/>
<polygon fill="black" stroke="black" points="368.224,-409.656 371.736,-399.661 362.757,-405.284 368.224,-409.656"/>
</g>
<!-- 585_10&#45;&gt;585_10x585_11 -->
<g id="edge11" class="edge"><title>585_10&#45;&gt;585_10x585_11</title>
<path fill="none" stroke="black" d="M286,-329.695C286,-320.943 286,-308.507 286,-299.234"/>
<polygon fill="black" stroke="black" points="289.5,-299.192 286,-289.192 282.5,-299.193 289.5,-299.192"/>
</g>
<!-- 585_1&#45;&gt;585_1x585_2 -->
<g id="edge13" class="edge"><title>585_1&#45;&gt;585_1x585_2</title>
<path fill="none" stroke="black" d="M362.097,-218.168C354.819,-208.385 344.116,-194 337.103,-184.573"/>
<polygon fill="black" stroke="black" points="339.909,-182.481 331.131,-176.548 334.292,-186.66 339.909,-182.481"/>
</g>
<!-- 585_13 -->
<g id="node15" class="node"><title>585_13</title>
<polygon fill="#66cdaa" stroke="black" points="445.5,-464.344 388.5,-464.344 388.5,-441.344 445.5,-441.344 445.5,-464.344"/>
<text text-anchor="middle" x="417" y="-449.144" font-family="Times,serif" font-size="14.00">585_13</text>
</g>
<!-- 585_13&#45;&gt;585_13x585_14 -->
<g id="edge15" class="edge"><title>585_13&#45;&gt;585_13x585_14</title>
<path fill="none" stroke="black" d="M408.307,-441.222C400.301,-431.439 388.527,-417.054 380.813,-407.627"/>
<polygon fill="black" stroke="black" points="383.286,-405.123 374.245,-399.601 377.869,-409.557 383.286,-405.123"/>
</g>
<!-- 585_8 -->
<g id="node17" class="node"><title>585_8</title>
<polygon fill="#66cdaa" stroke="black" points="50,-129.763 0,-129.763 0,-106.763 50,-106.763 50,-129.763"/>
<text text-anchor="middle" x="25" y="-114.563" font-family="Times,serif" font-size="14.00">585_8</text>
</g>
<!-- 585_8&#45;&gt;585_8x585_99 -->
<g id="edge17" class="edge"><title>585_8&#45;&gt;585_8x585_99</title>
<path fill="none" stroke="black" d="M33.1003,-106.642C40.5609,-96.8584 51.5312,-82.473 58.7198,-73.0466"/>
<polygon fill="black" stroke="black" points="61.5595,-75.0947 64.8404,-65.0207 55.9933,-70.8499 61.5595,-75.0947"/>
</g>
</g>
</svg>
