<?xml version="1.0" encoding="UTF-8" standalone="no"?>
<!DOCTYPE svg PUBLIC "-//W3C//DTD SVG 1.1//EN"
 "http://www.w3.org/Graphics/SVG/1.1/DTD/svg11.dtd">
<!-- Generated by graphviz version 2.38.0 (20140413.2041)
 -->
<!-- Title: %3 Pages: 1 -->
<svg width="2252pt" height="375pt"
 viewBox="0.00 0.00 2251.81 375.11" xmlns="http://www.w3.org/2000/svg" xmlns:xlink="http://www.w3.org/1999/xlink">
<g id="graph0" class="graph" transform="scale(1 1) rotate(0) translate(4 371.108)">
<title>%3</title>
<polygon fill="white" stroke="none" points="-4,4 -4,-371.108 2247.81,-371.108 2247.81,4 -4,4"/>
<!-- 756_10 -->
<g id="node1" class="node"><title>756_10</title>
<ellipse fill="#66cdaa" stroke="black" cx="1350.5" cy="-127.79" rx="40.1111" ry="16.0303"/>
<text text-anchor="middle" x="1350.5" y="-124.09" font-family="Times,serif" font-size="14.00">756_10</text>
</g>
<!-- 756_1x756_2 -->
<g id="node2" class="node"><title>756_1x756_2</title>
<polygon fill="none" stroke="black" points="1399.5,-187.054 1396,-183.554 1399.5,-180.054 1403,-183.554 1399.5,-187.054"/>
</g>
<!-- 756_1x756_2&#45;&gt;756_10 -->
<g id="edge1" class="edge"><title>756_1x756_2&#45;&gt;756_10</title>
<path fill="none" stroke="black" d="M1398.29,-181.225C1394.38,-176.94 1381.72,-163.044 1370.41,-150.634"/>
<polygon fill="black" stroke="black" points="1372.95,-148.231 1363.63,-143.198 1367.78,-152.947 1372.95,-148.231"/>
</g>
<!-- 756_22 -->
<g id="node3" class="node"><title>756_22</title>
<ellipse fill="#66cdaa" stroke="black" cx="1449.5" cy="-127.79" rx="40.1111" ry="16.0303"/>
<text text-anchor="middle" x="1449.5" y="-124.09" font-family="Times,serif" font-size="14.00">756_22</text>
</g>
<!-- 756_1x756_2&#45;&gt;756_22 -->
<g id="edge2" class="edge"><title>756_1x756_2&#45;&gt;756_22</title>
<path fill="none" stroke="black" d="M1400.74,-181.225C1404.72,-176.94 1417.64,-163.044 1429.19,-150.634"/>
<polygon fill="black" stroke="black" points="1431.85,-152.904 1436.1,-143.198 1426.73,-148.137 1431.85,-152.904"/>
</g>
<!-- 756_12 -->
<g id="node6" class="node"><title>756_12</title>
<polygon fill="#66cdaa" stroke="black" points="1565,-139.29 1508,-139.29 1508,-116.29 1565,-116.29 1565,-139.29"/>
<text text-anchor="middle" x="1536.5" y="-124.09" font-family="Times,serif" font-size="14.00">756_12</text>
</g>
<!-- 756_1x756_2&#45;&gt;756_12 -->
<g id="edge5" class="edge"><title>756_1x756_2&#45;&gt;756_12</title>
<path fill="none" stroke="black" d="M1401.39,-181.828C1411.42,-177.974 1459.4,-159.51 1498.5,-144.054 1499.34,-143.722 1500.19,-143.386 1501.04,-143.046"/>
<polygon fill="black" stroke="black" points="1502.36,-146.291 1510.35,-139.338 1499.76,-139.789 1502.36,-146.291"/>
</g>
<!-- 756_15 -->
<g id="node7" class="node"><title>756_15</title>
<polygon fill="#66cdaa" stroke="black" points="1640,-139.29 1583,-139.29 1583,-116.29 1640,-116.29 1640,-139.29"/>
<text text-anchor="middle" x="1611.5" y="-124.09" font-family="Times,serif" font-size="14.00">756_15</text>
</g>
<!-- 756_1x756_2&#45;&gt;756_15 -->
<g id="edge6" class="edge"><title>756_1x756_2&#45;&gt;756_15</title>
<path fill="none" stroke="black" d="M1402.01,-182.172C1417.86,-179.723 1505.64,-165.651 1574.5,-144.054 1575.56,-143.721 1576.63,-143.37 1577.71,-143.005"/>
<polygon fill="black" stroke="black" points="1579.27,-146.163 1587.44,-139.423 1576.85,-139.594 1579.27,-146.163"/>
</g>
<!-- 756_9 -->
<g id="node25" class="node"><title>756_9</title>
<polygon fill="#66cdaa" stroke="black" points="1708.5,-139.29 1658.5,-139.29 1658.5,-116.29 1708.5,-116.29 1708.5,-139.29"/>
<text text-anchor="middle" x="1683.5" y="-124.09" font-family="Times,serif" font-size="14.00">756_9</text>
</g>
<!-- 756_1x756_2&#45;&gt;756_9 -->
<g id="edge20" class="edge"><title>756_1x756_2&#45;&gt;756_9</title>
<path fill="none" stroke="black" d="M1402.02,-182.423C1421.51,-181.363 1550.11,-173.429 1649.5,-144.054 1650.55,-143.742 1651.62,-143.404 1652.69,-143.046"/>
<polygon fill="black" stroke="black" points="1654.17,-146.227 1662.25,-139.377 1651.66,-139.692 1654.17,-146.227"/>
</g>
<!-- 756_8 -->
<g id="node31" class="node"><title>756_8</title>
<polygon fill="#66cdaa" stroke="black" points="1776.5,-139.29 1726.5,-139.29 1726.5,-116.29 1776.5,-116.29 1776.5,-139.29"/>
<text text-anchor="middle" x="1751.5" y="-124.09" font-family="Times,serif" font-size="14.00">756_8</text>
</g>
<!-- 756_1x756_2&#45;&gt;756_8 -->
<g id="edge24" class="edge"><title>756_1x756_2&#45;&gt;756_8</title>
<path fill="none" stroke="black" d="M1402.1,-182.535C1424.71,-182.317 1589.98,-179.513 1717.5,-144.054 1718.73,-143.713 1719.97,-143.333 1721.21,-142.924"/>
<polygon fill="black" stroke="black" points="1722.55,-146.161 1730.65,-139.333 1720.06,-139.619 1722.55,-146.161"/>
</g>
<!-- 756_13 -->
<g id="node32" class="node"><title>756_13</title>
<polygon fill="dimgrey" stroke="black" points="663,-139.29 606,-139.29 606,-116.29 663,-116.29 663,-139.29"/>
<text text-anchor="middle" x="634.5" y="-124.09" font-family="Times,serif" font-size="14.00">756_13</text>
</g>
<!-- 756_1x756_2&#45;&gt;756_13 -->
<g id="edge25" class="edge"><title>756_1x756_2&#45;&gt;756_13</title>
<path fill="none" stroke="black" d="M1396.95,-182.536C1355.67,-182.225 824.302,-177.59 672.5,-144.054 670.782,-143.674 669.041,-143.225 667.297,-142.724"/>
<polygon fill="black" stroke="black" points="668.021,-139.275 657.427,-139.4 665.786,-145.909 668.021,-139.275"/>
</g>
<!-- 756_99 -->
<g id="node36" class="node"><title>756_99</title>
<ellipse fill="dimgrey" stroke="black" cx="1077.5" cy="-127.79" rx="40.1111" ry="16.0303"/>
<text text-anchor="middle" x="1077.5" y="-124.09" font-family="Times,serif" font-size="14.00">756_99</text>
</g>
<!-- 756_1x756_2&#45;&gt;756_99 -->
<g id="edge31" class="edge"><title>756_1x756_2&#45;&gt;756_99</title>
<path fill="none" stroke="black" d="M1397.04,-182.36C1376.91,-180.743 1237.18,-168.925 1126.5,-144.054 1123.33,-143.341 1120.06,-142.521 1116.8,-141.639"/>
<polygon fill="black" stroke="black" points="1117.67,-138.248 1107.09,-138.852 1115.74,-144.976 1117.67,-138.248"/>
</g>
<!-- 756_14 -->
<g id="node55" class="node"><title>756_14</title>
<polygon fill="dimgrey" stroke="black" points="1193,-139.29 1136,-139.29 1136,-116.29 1193,-116.29 1193,-139.29"/>
<text text-anchor="middle" x="1164.5" y="-124.09" font-family="Times,serif" font-size="14.00">756_14</text>
</g>
<!-- 756_1x756_2&#45;&gt;756_14 -->
<g id="edge53" class="edge"><title>756_1x756_2&#45;&gt;756_14</title>
<path fill="none" stroke="black" d="M1397.12,-182.262C1380.54,-180.195 1280.7,-167.174 1202.5,-144.054 1201.09,-143.638 1199.67,-143.19 1198.23,-142.718"/>
<polygon fill="black" stroke="black" points="1199.38,-139.412 1188.79,-139.335 1197.02,-146.002 1199.38,-139.412"/>
</g>
<!-- 756_1 -->
<g id="node4" class="node"><title>756_1</title>
<polygon fill="#66cdaa" stroke="black" points="998.5,-250.817 948.5,-250.817 948.5,-227.817 998.5,-227.817 998.5,-250.817"/>
<text text-anchor="middle" x="973.5" y="-235.617" font-family="Times,serif" font-size="14.00">756_1</text>
</g>
<!-- 756_1&#45;&gt;756_1x756_2 -->
<g id="edge4" class="edge"><title>756_1&#45;&gt;756_1x756_2</title>
<path fill="none" stroke="black" d="M998.558,-235.155C1078.97,-225.006 1328.69,-193.491 1387.16,-186.111"/>
<polygon fill="black" stroke="black" points="1387.69,-189.572 1397.17,-184.847 1386.81,-182.627 1387.69,-189.572"/>
</g>
<!-- 756_3x756_4 -->
<g id="node5" class="node"><title>756_3x756_4</title>
<polygon fill="none" stroke="black" points="493.5,-298.581 490,-295.081 493.5,-291.581 497,-295.081 493.5,-298.581"/>
</g>
<!-- 756_3x756_4&#45;&gt;756_1 -->
<g id="edge3" class="edge"><title>756_3x756_4&#45;&gt;756_1</title>
<path fill="none" stroke="black" d="M496.083,-293.791C527.33,-290.292 833.461,-256.003 938.408,-244.248"/>
<polygon fill="black" stroke="black" points="938.941,-247.71 948.49,-243.119 938.162,-240.754 938.941,-247.71"/>
</g>
<!-- 756_5 -->
<g id="node37" class="node"><title>756_5</title>
<polygon fill="#66cdaa" stroke="black" points="359.5,-250.817 309.5,-250.817 309.5,-227.817 359.5,-227.817 359.5,-250.817"/>
<text text-anchor="middle" x="334.5" y="-235.617" font-family="Times,serif" font-size="14.00">756_5</text>
</g>
<!-- 756_3x756_4&#45;&gt;756_5 -->
<g id="edge33" class="edge"><title>756_3x756_4&#45;&gt;756_5</title>
<path fill="none" stroke="black" d="M491.406,-293.54C479.326,-290.398 417.372,-273.997 368.5,-255.581 367.796,-255.316 367.086,-255.043 366.372,-254.764"/>
<polygon fill="black" stroke="black" points="367.594,-251.482 357.016,-250.891 364.917,-257.95 367.594,-251.482"/>
</g>
<!-- 756_39 -->
<g id="node39" class="node"><title>756_39</title>
<ellipse fill="#66cdaa" stroke="black" cx="493.5" cy="-239.317" rx="40.1111" ry="16.0303"/>
<text text-anchor="middle" x="493.5" y="-235.617" font-family="Times,serif" font-size="14.00">756_39</text>
</g>
<!-- 756_3x756_4&#45;&gt;756_39 -->
<g id="edge36" class="edge"><title>756_3x756_4&#45;&gt;756_39</title>
<path fill="none" stroke="black" d="M493.5,-291.488C493.5,-286.705 493.5,-276.035 493.5,-265.669"/>
<polygon fill="black" stroke="black" points="497,-265.634 493.5,-255.634 490,-265.634 497,-265.634"/>
</g>
<!-- 756_27 -->
<g id="node8" class="node"><title>756_27</title>
<ellipse fill="white" stroke="black" cx="1780.5" cy="-16.2635" rx="40.1111" ry="16.0303"/>
<text text-anchor="middle" x="1780.5" y="-12.5635" font-family="Times,serif" font-size="14.00">756_27</text>
</g>
<!-- 756_14x756_24 -->
<g id="node9" class="node"><title>756_14x756_24</title>
<polygon fill="none" stroke="black" points="1730.5,-75.5269 1727,-72.0269 1730.5,-68.5269 1734,-72.0269 1730.5,-75.5269"/>
</g>
<!-- 756_14x756_24&#45;&gt;756_27 -->
<g id="edge7" class="edge"><title>756_14x756_24&#45;&gt;756_27</title>
<path fill="none" stroke="black" d="M1731.74,-69.6979C1735.72,-65.4128 1748.64,-51.517 1760.19,-39.1069"/>
<polygon fill="black" stroke="black" points="1762.85,-41.3774 1767.1,-31.6711 1757.73,-36.6103 1762.85,-41.3774"/>
</g>
<!-- 756_32 -->
<g id="node19" class="node"><title>756_32</title>
<polygon fill="white" stroke="black" points="1896,-27.7635 1839,-27.7635 1839,-4.76346 1896,-4.76346 1896,-27.7635"/>
<text text-anchor="middle" x="1867.5" y="-12.5635" font-family="Times,serif" font-size="14.00">756_32</text>
</g>
<!-- 756_14x756_24&#45;&gt;756_32 -->
<g id="edge15" class="edge"><title>756_14x756_24&#45;&gt;756_32</title>
<path fill="none" stroke="black" d="M1732.39,-70.3006C1742.42,-66.4466 1790.4,-47.9828 1829.5,-32.5269 1830.34,-32.1953 1831.19,-31.8591 1832.04,-31.5196"/>
<polygon fill="black" stroke="black" points="1833.36,-34.7645 1841.35,-27.8112 1830.76,-28.2618 1833.36,-34.7645"/>
</g>
<!-- 756_28 -->
<g id="node21" class="node"><title>756_28</title>
<polygon fill="#66cdaa" stroke="black" points="1971,-27.7635 1914,-27.7635 1914,-4.76346 1971,-4.76346 1971,-27.7635"/>
<text text-anchor="middle" x="1942.5" y="-12.5635" font-family="Times,serif" font-size="14.00">756_28</text>
</g>
<!-- 756_14x756_24&#45;&gt;756_28 -->
<g id="edge17" class="edge"><title>756_14x756_24&#45;&gt;756_28</title>
<path fill="none" stroke="black" d="M1733.01,-70.6447C1748.86,-68.196 1836.64,-54.1241 1905.5,-32.5269 1906.56,-32.1942 1907.63,-31.8435 1908.71,-31.4783"/>
<polygon fill="black" stroke="black" points="1910.27,-34.6357 1918.44,-27.8963 1907.85,-28.0668 1910.27,-34.6357"/>
</g>
<!-- 756_31 -->
<g id="node22" class="node"><title>756_31</title>
<polygon fill="#66cdaa" stroke="black" points="2046,-27.7635 1989,-27.7635 1989,-4.76346 2046,-4.76346 2046,-27.7635"/>
<text text-anchor="middle" x="2017.5" y="-12.5635" font-family="Times,serif" font-size="14.00">756_31</text>
</g>
<!-- 756_14x756_24&#45;&gt;756_31 -->
<g id="edge18" class="edge"><title>756_14x756_24&#45;&gt;756_31</title>
<path fill="none" stroke="black" d="M1733.01,-70.8685C1752.44,-69.5972 1880.67,-60.373 1980.5,-32.5269 1981.92,-32.1302 1983.36,-31.6941 1984.81,-31.228"/>
<polygon fill="black" stroke="black" points="1986.08,-34.4903 1994.31,-27.8141 1983.71,-27.9029 1986.08,-34.4903"/>
</g>
<!-- 756_25 -->
<g id="node44" class="node"><title>756_25</title>
<ellipse fill="white" stroke="black" cx="2104.5" cy="-16.2635" rx="40.1111" ry="16.0303"/>
<text text-anchor="middle" x="2104.5" y="-12.5635" font-family="Times,serif" font-size="14.00">756_25</text>
</g>
<!-- 756_14x756_24&#45;&gt;756_25 -->
<g id="edge42" class="edge"><title>756_14x756_24&#45;&gt;756_25</title>
<path fill="none" stroke="black" d="M1733.13,-70.9006C1756,-69.7663 1923.24,-60.7087 2055.5,-32.5269 2058.68,-31.8491 2061.95,-31.0544 2065.22,-30.1897"/>
<polygon fill="black" stroke="black" points="2066.27,-33.5303 2074.93,-27.4333 2064.36,-26.7962 2066.27,-33.5303"/>
</g>
<!-- 756_29 -->
<g id="node45" class="node"><title>756_29</title>
<ellipse fill="dimgrey" stroke="black" cx="2203.5" cy="-16.2635" rx="40.1111" ry="16.0303"/>
<text text-anchor="middle" x="2203.5" y="-12.5635" font-family="Times,serif" font-size="14.00">756_29</text>
</g>
<!-- 756_14x756_24&#45;&gt;756_29 -->
<g id="edge43" class="edge"><title>756_14x756_24&#45;&gt;756_29</title>
<path fill="none" stroke="black" d="M1733.22,-70.9934C1760.01,-70.6194 1979.83,-66.5633 2153.5,-32.5269 2156.94,-31.8519 2160.49,-31.0325 2164.03,-30.1278"/>
<polygon fill="black" stroke="black" points="2165.17,-33.4416 2173.88,-27.4011 2163.31,-26.6952 2165.17,-33.4416"/>
</g>
<!-- 756_26 -->
<g id="node46" class="node"><title>756_26</title>
<ellipse fill="dimgrey" stroke="black" cx="1432.5" cy="-16.2635" rx="40.1111" ry="16.0303"/>
<text text-anchor="middle" x="1432.5" y="-12.5635" font-family="Times,serif" font-size="14.00">756_26</text>
</g>
<!-- 756_14x756_24&#45;&gt;756_26 -->
<g id="edge44" class="edge"><title>756_14x756_24&#45;&gt;756_26</title>
<path fill="none" stroke="black" d="M1728.03,-70.779C1708.93,-68.8332 1582.73,-55.4834 1482.5,-32.5269 1479.12,-31.7538 1475.64,-30.872 1472.17,-29.9312"/>
<polygon fill="black" stroke="black" points="1473.03,-26.5386 1462.45,-27.1646 1471.11,-33.2707 1473.03,-26.5386"/>
</g>
<!-- 756_30 -->
<g id="node47" class="node"><title>756_30</title>
<polygon fill="dimgrey" stroke="black" points="1548,-27.7635 1491,-27.7635 1491,-4.76346 1548,-4.76346 1548,-27.7635"/>
<text text-anchor="middle" x="1519.5" y="-12.5635" font-family="Times,serif" font-size="14.00">756_30</text>
</g>
<!-- 756_14x756_24&#45;&gt;756_30 -->
<g id="edge45" class="edge"><title>756_14x756_24&#45;&gt;756_30</title>
<path fill="none" stroke="black" d="M1728.02,-70.6323C1712.37,-68.1079 1625.69,-53.654 1557.5,-32.5269 1556.28,-32.1482 1555.04,-31.7472 1553.79,-31.3291"/>
<polygon fill="black" stroke="black" points="1554.82,-27.9795 1544.23,-27.8695 1552.44,-34.5622 1554.82,-27.9795"/>
</g>
<!-- 756_33 -->
<g id="node52" class="node"><title>756_33</title>
<polygon fill="dimgrey" stroke="black" points="1623,-27.7635 1566,-27.7635 1566,-4.76346 1623,-4.76346 1623,-27.7635"/>
<text text-anchor="middle" x="1594.5" y="-12.5635" font-family="Times,serif" font-size="14.00">756_33</text>
</g>
<!-- 756_14x756_24&#45;&gt;756_33 -->
<g id="edge50" class="edge"><title>756_14x756_24&#45;&gt;756_33</title>
<path fill="none" stroke="black" d="M1728.63,-70.2982C1718.71,-66.4315 1671.23,-47.914 1632.5,-32.5269 1631.66,-32.1939 1630.81,-31.8564 1629.96,-31.5157"/>
<polygon fill="black" stroke="black" points="1631.24,-28.259 1620.65,-27.7994 1628.64,-34.7595 1631.24,-28.259"/>
</g>
<!-- 756_34 -->
<g id="node56" class="node"><title>756_34</title>
<ellipse fill="white" stroke="black" cx="1681.5" cy="-16.2635" rx="40.1111" ry="16.0303"/>
<text text-anchor="middle" x="1681.5" y="-12.5635" font-family="Times,serif" font-size="14.00">756_34</text>
</g>
<!-- 756_14x756_24&#45;&gt;756_34 -->
<g id="edge55" class="edge"><title>756_14x756_24&#45;&gt;756_34</title>
<path fill="none" stroke="black" d="M1729.29,-69.6979C1725.38,-65.4128 1712.72,-51.517 1701.41,-39.1069"/>
<polygon fill="black" stroke="black" points="1703.95,-36.7044 1694.63,-31.6711 1698.78,-41.4196 1703.95,-36.7044"/>
</g>
<!-- 756_24 -->
<g id="node10" class="node"><title>756_24</title>
<ellipse fill="#66cdaa" stroke="black" cx="1251.5" cy="-127.79" rx="40.1111" ry="16.0303"/>
<text text-anchor="middle" x="1251.5" y="-124.09" font-family="Times,serif" font-size="14.00">756_24</text>
</g>
<!-- 756_24&#45;&gt;756_14x756_24 -->
<g id="edge8" class="edge"><title>756_24&#45;&gt;756_14x756_24</title>
<path fill="none" stroke="black" d="M1281.12,-116.646C1287.76,-114.682 1294.82,-112.832 1301.5,-111.527 1463.53,-79.8779 1665.16,-74.1833 1717.58,-73.2154"/>
<polygon fill="black" stroke="black" points="1717.8,-76.7124 1727.75,-73.0561 1717.69,-69.7133 1717.8,-76.7124"/>
</g>
<!-- 756_23 -->
<g id="node11" class="node"><title>756_23</title>
<polygon fill="#66cdaa" stroke="black" points="1299,-27.7635 1242,-27.7635 1242,-4.76346 1299,-4.76346 1299,-27.7635"/>
<text text-anchor="middle" x="1270.5" y="-12.5635" font-family="Times,serif" font-size="14.00">756_23</text>
</g>
<!-- 756_16x756_99 -->
<g id="node12" class="node"><title>756_16x756_99</title>
<polygon fill="none" stroke="black" points="1034.5,-75.5269 1031,-72.0269 1034.5,-68.5269 1038,-72.0269 1034.5,-75.5269"/>
</g>
<!-- 756_16x756_99&#45;&gt;756_23 -->
<g id="edge9" class="edge"><title>756_16x756_99&#45;&gt;756_23</title>
<path fill="none" stroke="black" d="M1036.89,-70.7367C1053.56,-68.6809 1153.91,-55.723 1232.5,-32.5269 1233.91,-32.1118 1235.33,-31.6646 1236.77,-31.193"/>
<polygon fill="black" stroke="black" points="1237.98,-34.4774 1246.21,-27.8115 1235.62,-27.887 1237.98,-34.4774"/>
</g>
<!-- 756_20 -->
<g id="node13" class="node"><title>756_20</title>
<polygon fill="#66cdaa" stroke="black" points="1374,-27.7635 1317,-27.7635 1317,-4.76346 1374,-4.76346 1374,-27.7635"/>
<text text-anchor="middle" x="1345.5" y="-12.5635" font-family="Times,serif" font-size="14.00">756_20</text>
</g>
<!-- 756_16x756_99&#45;&gt;756_20 -->
<g id="edge10" class="edge"><title>756_16x756_99&#45;&gt;756_20</title>
<path fill="none" stroke="black" d="M1036.98,-70.906C1057.25,-69.8697 1197.9,-61.8022 1307.5,-32.5269 1308.96,-32.137 1310.44,-31.7067 1311.92,-31.2453"/>
<polygon fill="black" stroke="black" points="1313.38,-34.4435 1321.68,-27.8497 1311.08,-27.8328 1313.38,-34.4435"/>
</g>
<!-- 756_19 -->
<g id="node14" class="node"><title>756_19</title>
<ellipse fill="#66cdaa" stroke="black" cx="736.5" cy="-16.2635" rx="40.1111" ry="16.0303"/>
<text text-anchor="middle" x="736.5" y="-12.5635" font-family="Times,serif" font-size="14.00">756_19</text>
</g>
<!-- 756_16x756_99&#45;&gt;756_19 -->
<g id="edge11" class="edge"><title>756_16x756_99&#45;&gt;756_19</title>
<path fill="none" stroke="black" d="M1032.02,-70.7854C1012.83,-68.8873 886.069,-55.8293 785.5,-32.5269 782.473,-31.8255 779.361,-31.0319 776.244,-30.1843"/>
<polygon fill="black" stroke="black" points="776.945,-26.7439 766.366,-27.3397 775.007,-33.4705 776.945,-26.7439"/>
</g>
<!-- 756_18 -->
<g id="node15" class="node"><title>756_18</title>
<polygon fill="#66cdaa" stroke="black" points="852,-27.7635 795,-27.7635 795,-4.76346 852,-4.76346 852,-27.7635"/>
<text text-anchor="middle" x="823.5" y="-12.5635" font-family="Times,serif" font-size="14.00">756_18</text>
</g>
<!-- 756_16x756_99&#45;&gt;756_18 -->
<g id="edge12" class="edge"><title>756_16x756_99&#45;&gt;756_18</title>
<path fill="none" stroke="black" d="M1032,-70.6427C1016.24,-68.1817 928.976,-54.0477 860.5,-32.5269 859.439,-32.1936 858.367,-31.8423 857.288,-31.4766"/>
<polygon fill="black" stroke="black" points="858.153,-28.0653 847.559,-27.8919 855.733,-34.6336 858.153,-28.0653"/>
</g>
<!-- 756_48 -->
<g id="node42" class="node"><title>756_48</title>
<polygon fill="#66cdaa" stroke="black" points="927,-27.7635 870,-27.7635 870,-4.76346 927,-4.76346 927,-27.7635"/>
<text text-anchor="middle" x="898.5" y="-12.5635" font-family="Times,serif" font-size="14.00">756_48</text>
</g>
<!-- 756_16x756_99&#45;&gt;756_48 -->
<g id="edge40" class="edge"><title>756_16x756_99&#45;&gt;756_48</title>
<path fill="none" stroke="black" d="M1032.63,-70.2982C1022.71,-66.4315 975.233,-47.914 936.5,-32.5269 935.662,-32.1939 934.813,-31.8564 933.957,-31.5157"/>
<polygon fill="black" stroke="black" points="935.24,-28.259 924.655,-27.7994 932.643,-34.7595 935.24,-28.259"/>
</g>
<!-- 756_11 -->
<g id="node48" class="node"><title>756_11</title>
<ellipse fill="dimgrey" stroke="black" cx="985.5" cy="-16.2635" rx="40.1111" ry="16.0303"/>
<text text-anchor="middle" x="985.5" y="-12.5635" font-family="Times,serif" font-size="14.00">756_11</text>
</g>
<!-- 756_16x756_99&#45;&gt;756_11 -->
<g id="edge46" class="edge"><title>756_16x756_99&#45;&gt;756_11</title>
<path fill="none" stroke="black" d="M1033.29,-69.6979C1029.38,-65.4128 1016.72,-51.517 1005.41,-39.1069"/>
<polygon fill="black" stroke="black" points="1007.95,-36.7044 998.631,-31.6711 1002.78,-41.4196 1007.95,-36.7044"/>
</g>
<!-- 756_21 -->
<g id="node51" class="node"><title>756_21</title>
<ellipse fill="white" stroke="black" cx="1084.5" cy="-16.2635" rx="40.1111" ry="16.0303"/>
<text text-anchor="middle" x="1084.5" y="-12.5635" font-family="Times,serif" font-size="14.00">756_21</text>
</g>
<!-- 756_16x756_99&#45;&gt;756_21 -->
<g id="edge49" class="edge"><title>756_16x756_99&#45;&gt;756_21</title>
<path fill="none" stroke="black" d="M1035.74,-69.6979C1039.72,-65.4128 1052.64,-51.517 1064.19,-39.1069"/>
<polygon fill="black" stroke="black" points="1066.85,-41.3774 1071.1,-31.6711 1061.73,-36.6103 1066.85,-41.3774"/>
</g>
<!-- 756_17 -->
<g id="node57" class="node"><title>756_17</title>
<ellipse fill="#66cdaa" stroke="black" cx="1183.5" cy="-16.2635" rx="40.1111" ry="16.0303"/>
<text text-anchor="middle" x="1183.5" y="-12.5635" font-family="Times,serif" font-size="14.00">756_17</text>
</g>
<!-- 756_16x756_99&#45;&gt;756_17 -->
<g id="edge56" class="edge"><title>756_16x756_99&#45;&gt;756_17</title>
<path fill="none" stroke="black" d="M1036.61,-70.2669C1048.21,-66.0782 1105.3,-45.4818 1144.78,-31.2332"/>
<polygon fill="black" stroke="black" points="1146.19,-34.4476 1154.41,-27.7612 1143.81,-27.8631 1146.19,-34.4476"/>
</g>
<!-- 756_2 -->
<g id="node16" class="node"><title>756_2</title>
<ellipse fill="#66cdaa" stroke="black" cx="1399.5" cy="-239.317" rx="35.2113" ry="16.0303"/>
<text text-anchor="middle" x="1399.5" y="-235.617" font-family="Times,serif" font-size="14.00">756_2</text>
</g>
<!-- 756_2&#45;&gt;756_1x756_2 -->
<g id="edge13" class="edge"><title>756_2&#45;&gt;756_1x756_2</title>
<path fill="none" stroke="black" d="M1399.5,-222.767C1399.5,-214.661 1399.5,-204.872 1399.5,-197.232"/>
<polygon fill="black" stroke="black" points="1403,-197.077 1399.5,-187.077 1396,-197.077 1403,-197.077"/>
</g>
<!-- 756_40 -->
<g id="node17" class="node"><title>756_40</title>
<polygon fill="#66cdaa" stroke="black" points="435,-250.817 378,-250.817 378,-227.817 435,-227.817 435,-250.817"/>
<text text-anchor="middle" x="406.5" y="-235.617" font-family="Times,serif" font-size="14.00">756_40</text>
</g>
<!-- 756_40x756_39 -->
<g id="node18" class="node"><title>756_40x756_39</title>
<polygon fill="none" stroke="black" points="406.5,-187.054 403,-183.554 406.5,-180.054 410,-183.554 406.5,-187.054"/>
</g>
<!-- 756_40&#45;&gt;756_40x756_39 -->
<g id="edge14" class="edge"><title>756_40&#45;&gt;756_40x756_39</title>
<path fill="none" stroke="black" d="M406.5,-227.695C406.5,-218.943 406.5,-206.507 406.5,-197.234"/>
<polygon fill="black" stroke="black" points="410,-197.192 406.5,-187.192 403,-197.193 410,-197.192"/>
</g>
<!-- 756_41 -->
<g id="node33" class="node"><title>756_41</title>
<ellipse fill="dimgrey" stroke="black" cx="389.5" cy="-127.79" rx="40.1111" ry="16.0303"/>
<text text-anchor="middle" x="389.5" y="-124.09" font-family="Times,serif" font-size="14.00">756_41</text>
</g>
<!-- 756_40x756_39&#45;&gt;756_41 -->
<g id="edge28" class="edge"><title>756_40x756_39&#45;&gt;756_41</title>
<path fill="none" stroke="black" d="M405.77,-180.244C404.305,-175.613 400.865,-164.733 397.523,-154.164"/>
<polygon fill="black" stroke="black" points="400.769,-152.82 394.417,-144.341 394.095,-154.931 400.769,-152.82"/>
</g>
<!-- 756_4 -->
<g id="node20" class="node"><title>756_4</title>
<ellipse fill="#66cdaa" stroke="black" cx="454.5" cy="-350.844" rx="35.2113" ry="16.0303"/>
<text text-anchor="middle" x="454.5" y="-347.144" font-family="Times,serif" font-size="14.00">756_4</text>
</g>
<!-- 756_4&#45;&gt;756_3x756_4 -->
<g id="edge16" class="edge"><title>756_4&#45;&gt;756_3x756_4</title>
<path fill="none" stroke="black" d="M465.157,-335.153C471.931,-325.814 480.512,-313.985 486.448,-305.802"/>
<polygon fill="black" stroke="black" points="489.315,-307.81 492.354,-297.661 483.649,-303.7 489.315,-307.81"/>
</g>
<!-- 756_35 -->
<g id="node23" class="node"><title>756_35</title>
<ellipse fill="#66cdaa" stroke="black" cx="541.5" cy="-127.79" rx="40.1111" ry="16.0303"/>
<text text-anchor="middle" x="541.5" y="-124.09" font-family="Times,serif" font-size="14.00">756_35</text>
</g>
<!-- 756_13x756_35 -->
<g id="node24" class="node"><title>756_13x756_35</title>
<polygon fill="none" stroke="black" points="541.5,-75.5269 538,-72.0269 541.5,-68.5269 545,-72.0269 541.5,-75.5269"/>
</g>
<!-- 756_35&#45;&gt;756_13x756_35 -->
<g id="edge19" class="edge"><title>756_35&#45;&gt;756_13x756_35</title>
<path fill="none" stroke="black" d="M541.5,-111.24C541.5,-103.134 541.5,-93.3455 541.5,-85.7049"/>
<polygon fill="black" stroke="black" points="545,-85.5501 541.5,-75.5502 538,-85.5502 545,-85.5501"/>
</g>
<!-- 756_36 -->
<g id="node40" class="node"><title>756_36</title>
<ellipse fill="white" stroke="black" cx="538.5" cy="-16.2635" rx="40.1111" ry="16.0303"/>
<text text-anchor="middle" x="538.5" y="-12.5635" font-family="Times,serif" font-size="14.00">756_36</text>
</g>
<!-- 756_13x756_35&#45;&gt;756_36 -->
<g id="edge38" class="edge"><title>756_13x756_35&#45;&gt;756_36</title>
<path fill="none" stroke="black" d="M541.355,-68.4338C541.088,-63.6514 540.493,-52.9811 539.915,-42.6151"/>
<polygon fill="black" stroke="black" points="543.406,-42.3694 539.355,-32.58 536.417,-42.7595 543.406,-42.3694"/>
</g>
<!-- 756_37 -->
<g id="node26" class="node"><title>756_37</title>
<ellipse fill="#66cdaa" stroke="black" cx="721.5" cy="-127.79" rx="40.1111" ry="16.0303"/>
<text text-anchor="middle" x="721.5" y="-124.09" font-family="Times,serif" font-size="14.00">756_37</text>
</g>
<!-- 756_13x756_37 -->
<g id="node27" class="node"><title>756_13x756_37</title>
<polygon fill="none" stroke="black" points="637.5,-75.5269 634,-72.0269 637.5,-68.5269 641,-72.0269 637.5,-75.5269"/>
</g>
<!-- 756_37&#45;&gt;756_13x756_37 -->
<g id="edge21" class="edge"><title>756_37&#45;&gt;756_13x756_37</title>
<path fill="none" stroke="black" d="M700.736,-113.501C683.902,-102.726 660.891,-87.998 647.773,-79.6023"/>
<polygon fill="black" stroke="black" points="649.506,-76.5559 639.197,-74.113 645.733,-82.4517 649.506,-76.5559"/>
</g>
<!-- 756_38 -->
<g id="node28" class="node"><title>756_38</title>
<ellipse fill="#66cdaa" stroke="black" cx="637.5" cy="-16.2635" rx="40.1111" ry="16.0303"/>
<text text-anchor="middle" x="637.5" y="-12.5635" font-family="Times,serif" font-size="14.00">756_38</text>
</g>
<!-- 756_13x756_37&#45;&gt;756_38 -->
<g id="edge22" class="edge"><title>756_13x756_37&#45;&gt;756_38</title>
<path fill="none" stroke="black" d="M637.5,-68.4338C637.5,-63.6514 637.5,-52.9811 637.5,-42.6151"/>
<polygon fill="black" stroke="black" points="641,-42.5799 637.5,-32.58 634,-42.58 641,-42.5799"/>
</g>
<!-- 756_43 -->
<g id="node29" class="node"><title>756_43</title>
<ellipse fill="#66cdaa" stroke="black" cx="190.5" cy="-16.2635" rx="40.1111" ry="16.0303"/>
<text text-anchor="middle" x="190.5" y="-12.5635" font-family="Times,serif" font-size="14.00">756_43</text>
</g>
<!-- 756_7x756_41 -->
<g id="node30" class="node"><title>756_7x756_41</title>
<polygon fill="none" stroke="black" points="289.5,-75.5269 286,-72.0269 289.5,-68.5269 293,-72.0269 289.5,-75.5269"/>
</g>
<!-- 756_7x756_41&#45;&gt;756_43 -->
<g id="edge23" class="edge"><title>756_7x756_41&#45;&gt;756_43</title>
<path fill="none" stroke="black" d="M287.782,-70.0937C280.052,-65.8962 247.783,-48.3718 222.502,-34.6427"/>
<polygon fill="black" stroke="black" points="224.021,-31.4847 213.563,-29.788 220.68,-37.6361 224.021,-31.4847"/>
</g>
<!-- 756_46 -->
<g id="node41" class="node"><title>756_46</title>
<ellipse fill="#66cdaa" stroke="black" cx="289.5" cy="-16.2635" rx="40.1111" ry="16.0303"/>
<text text-anchor="middle" x="289.5" y="-12.5635" font-family="Times,serif" font-size="14.00">756_46</text>
</g>
<!-- 756_7x756_41&#45;&gt;756_46 -->
<g id="edge39" class="edge"><title>756_7x756_41&#45;&gt;756_46</title>
<path fill="none" stroke="black" d="M289.5,-68.4338C289.5,-63.6514 289.5,-52.9811 289.5,-42.6151"/>
<polygon fill="black" stroke="black" points="293,-42.5799 289.5,-32.58 286,-42.58 293,-42.5799"/>
</g>
<!-- 756_47 -->
<g id="node43" class="node"><title>756_47</title>
<polygon fill="#66cdaa" stroke="black" points="405,-27.7635 348,-27.7635 348,-4.76346 405,-4.76346 405,-27.7635"/>
<text text-anchor="middle" x="376.5" y="-12.5635" font-family="Times,serif" font-size="14.00">756_47</text>
</g>
<!-- 756_7x756_41&#45;&gt;756_47 -->
<g id="edge41" class="edge"><title>756_7x756_41&#45;&gt;756_47</title>
<path fill="none" stroke="black" d="M291.317,-69.904C298.866,-65.2388 328.394,-46.9916 350.583,-33.2795"/>
<polygon fill="black" stroke="black" points="352.593,-36.1518 359.26,-27.9175 348.913,-30.1971 352.593,-36.1518"/>
</g>
<!-- 756_45 -->
<g id="node49" class="node"><title>756_45</title>
<polygon fill="#66cdaa" stroke="black" points="480,-27.7635 423,-27.7635 423,-4.76346 480,-4.76346 480,-27.7635"/>
<text text-anchor="middle" x="451.5" y="-12.5635" font-family="Times,serif" font-size="14.00">756_45</text>
</g>
<!-- 756_7x756_41&#45;&gt;756_45 -->
<g id="edge47" class="edge"><title>756_7x756_41&#45;&gt;756_45</title>
<path fill="none" stroke="black" d="M291.566,-70.4535C303.485,-67.1306 364.648,-49.8898 413.5,-32.5269 414.379,-32.2144 415.268,-31.8938 416.164,-31.5668"/>
<polygon fill="black" stroke="black" points="417.743,-34.7111 425.852,-27.8924 415.261,-28.166 417.743,-34.7111"/>
</g>
<!-- 756_44 -->
<g id="node50" class="node"><title>756_44</title>
<polygon fill="#66cdaa" stroke="black" points="57,-27.7635 0,-27.7635 0,-4.76346 57,-4.76346 57,-27.7635"/>
<text text-anchor="middle" x="28.5" y="-12.5635" font-family="Times,serif" font-size="14.00">756_44</text>
</g>
<!-- 756_7x756_41&#45;&gt;756_44 -->
<g id="edge48" class="edge"><title>756_7x756_41&#45;&gt;756_44</title>
<path fill="none" stroke="black" d="M286.787,-70.7896C267.903,-69.091 154.22,-58.1092 65.5,-32.5269 64.2606,-32.1695 63.0065,-31.7837 61.7462,-31.3755"/>
<polygon fill="black" stroke="black" points="62.7026,-28 52.1081,-27.9067 60.332,-34.5864 62.7026,-28"/>
</g>
<!-- 756_42 -->
<g id="node54" class="node"><title>756_42</title>
<polygon fill="#66cdaa" stroke="black" points="132,-27.7635 75,-27.7635 75,-4.76346 132,-4.76346 132,-27.7635"/>
<text text-anchor="middle" x="103.5" y="-12.5635" font-family="Times,serif" font-size="14.00">756_42</text>
</g>
<!-- 756_7x756_41&#45;&gt;756_42 -->
<g id="edge52" class="edge"><title>756_7x756_41&#45;&gt;756_42</title>
<path fill="none" stroke="black" d="M287.384,-70.5834C274.02,-67.76 200.003,-51.7985 141.5,-32.5269 140.453,-32.1821 139.394,-31.8231 138.328,-31.4529"/>
<polygon fill="black" stroke="black" points="139.274,-28.0715 128.68,-27.8987 136.854,-34.6399 139.274,-28.0715"/>
</g>
<!-- 756_13&#45;&gt;756_13x756_35 -->
<g id="edge27" class="edge"><title>756_13&#45;&gt;756_13x756_35</title>
<path fill="none" stroke="black" d="M616.126,-116.168C596.891,-105.048 567.37,-87.9822 551.852,-79.0112"/>
<polygon fill="black" stroke="black" points="553.526,-75.9363 543.117,-73.9615 550.022,-81.9965 553.526,-75.9363"/>
</g>
<!-- 756_13&#45;&gt;756_13x756_37 -->
<g id="edge26" class="edge"><title>756_13&#45;&gt;756_13x756_37</title>
<path fill="none" stroke="black" d="M635.093,-116.168C635.581,-107.416 636.275,-94.9805 636.792,-85.7075"/>
<polygon fill="black" stroke="black" points="640.29,-85.8451 637.353,-75.6656 633.301,-85.455 640.29,-85.8451"/>
</g>
<!-- 756_41&#45;&gt;756_7x756_41 -->
<g id="edge29" class="edge"><title>756_41&#45;&gt;756_7x756_41</title>
<path fill="none" stroke="black" d="M366.307,-114.321C345.709,-103.247 316.493,-87.5395 300.692,-79.0443"/>
<polygon fill="black" stroke="black" points="302.054,-75.8025 291.589,-74.1498 298.739,-81.968 302.054,-75.8025"/>
</g>
<!-- 756_6 -->
<g id="node34" class="node"><title>756_6</title>
<ellipse fill="#66cdaa" stroke="black" cx="256.5" cy="-239.317" rx="35.2113" ry="16.0303"/>
<text text-anchor="middle" x="256.5" y="-235.617" font-family="Times,serif" font-size="14.00">756_6</text>
</g>
<!-- 756_5x756_6 -->
<g id="node35" class="node"><title>756_5x756_6</title>
<polygon fill="none" stroke="black" points="289.5,-187.054 286,-183.554 289.5,-180.054 293,-183.554 289.5,-187.054"/>
</g>
<!-- 756_6&#45;&gt;756_5x756_6 -->
<g id="edge30" class="edge"><title>756_6&#45;&gt;756_5x756_6</title>
<path fill="none" stroke="black" d="M265.692,-223.341C271.292,-214.218 278.299,-202.802 283.258,-194.724"/>
<polygon fill="black" stroke="black" points="286.293,-196.469 288.541,-186.116 280.327,-192.807 286.293,-196.469"/>
</g>
<!-- 756_7 -->
<g id="node58" class="node"><title>756_7</title>
<polygon fill="dimgrey" stroke="black" points="314.5,-139.29 264.5,-139.29 264.5,-116.29 314.5,-116.29 314.5,-139.29"/>
<text text-anchor="middle" x="289.5" y="-124.09" font-family="Times,serif" font-size="14.00">756_7</text>
</g>
<!-- 756_5x756_6&#45;&gt;756_7 -->
<g id="edge57" class="edge"><title>756_5x756_6&#45;&gt;756_7</title>
<path fill="none" stroke="black" d="M289.5,-179.961C289.5,-174.493 289.5,-161.327 289.5,-149.721"/>
<polygon fill="black" stroke="black" points="293,-149.372 289.5,-139.372 286,-149.372 293,-149.372"/>
</g>
<!-- 756_99&#45;&gt;756_16x756_99 -->
<g id="edge32" class="edge"><title>756_99&#45;&gt;756_16x756_99</title>
<path fill="none" stroke="black" d="M1065.75,-112.099C1058.2,-102.656 1048.61,-90.6651 1042.06,-82.4735"/>
<polygon fill="black" stroke="black" points="1044.74,-80.2302 1035.76,-74.6068 1039.28,-84.6024 1044.74,-80.2302"/>
</g>
<!-- 756_5&#45;&gt;756_5x756_6 -->
<g id="edge34" class="edge"><title>756_5&#45;&gt;756_5x756_6</title>
<path fill="none" stroke="black" d="M325.609,-227.695C317.333,-217.807 305.121,-203.217 297.237,-193.798"/>
<polygon fill="black" stroke="black" points="299.875,-191.496 290.773,-186.074 294.507,-195.989 299.875,-191.496"/>
</g>
<!-- 756_3 -->
<g id="node38" class="node"><title>756_3</title>
<polygon fill="#66cdaa" stroke="black" points="557.5,-362.344 507.5,-362.344 507.5,-339.344 557.5,-339.344 557.5,-362.344"/>
<text text-anchor="middle" x="532.5" y="-347.144" font-family="Times,serif" font-size="14.00">756_3</text>
</g>
<!-- 756_3&#45;&gt;756_3x756_4 -->
<g id="edge35" class="edge"><title>756_3&#45;&gt;756_3x756_4</title>
<path fill="none" stroke="black" d="M524.795,-339.222C517.774,-329.544 507.487,-315.363 500.647,-305.933"/>
<polygon fill="black" stroke="black" points="503.308,-303.641 494.603,-297.601 497.642,-307.751 503.308,-303.641"/>
</g>
<!-- 756_39&#45;&gt;756_40x756_39 -->
<g id="edge37" class="edge"><title>756_39&#45;&gt;756_40x756_39</title>
<path fill="none" stroke="black" d="M472.44,-225.303C454.839,-214.426 430.488,-199.378 416.841,-190.944"/>
<polygon fill="black" stroke="black" points="418.624,-187.932 408.277,-185.652 414.944,-193.886 418.624,-187.932"/>
</g>
<!-- 756_16 -->
<g id="node53" class="node"><title>756_16</title>
<polygon fill="#66cdaa" stroke="black" points="1019,-139.29 962,-139.29 962,-116.29 1019,-116.29 1019,-139.29"/>
<text text-anchor="middle" x="990.5" y="-124.09" font-family="Times,serif" font-size="14.00">756_16</text>
</g>
<!-- 756_16&#45;&gt;756_16x756_99 -->
<g id="edge51" class="edge"><title>756_16&#45;&gt;756_16x756_99</title>
<path fill="none" stroke="black" d="M999.193,-116.168C1007.2,-106.385 1018.97,-91.9999 1026.69,-82.5735"/>
<polygon fill="black" stroke="black" points="1029.63,-84.503 1033.26,-74.5476 1024.21,-80.0696 1029.63,-84.503"/>
</g>
<!-- 756_14&#45;&gt;756_14x756_24 -->
<g id="edge54" class="edge"><title>756_14&#45;&gt;756_14x756_24</title>
<path fill="none" stroke="black" d="M1187.44,-116.258C1192.33,-114.393 1197.51,-112.681 1202.5,-111.527 1305.13,-87.7817 1647.3,-75.692 1717.75,-73.423"/>
<polygon fill="black" stroke="black" points="1717.96,-76.9181 1727.85,-73.1062 1717.74,-69.9216 1717.96,-76.9181"/>
</g>
<!-- 756_7&#45;&gt;756_7x756_41 -->
<g id="edge58" class="edge"><title>756_7&#45;&gt;756_7x756_41</title>
<path fill="none" stroke="black" d="M289.5,-116.168C289.5,-107.416 289.5,-94.9805 289.5,-85.7075"/>
<polygon fill="black" stroke="black" points="293,-85.6655 289.5,-75.6656 286,-85.6656 293,-85.6655"/>
</g>
</g>
</svg>
