<?xml version="1.0" encoding="UTF-8" standalone="no"?>
<!DOCTYPE svg PUBLIC "-//W3C//DTD SVG 1.1//EN"
 "http://www.w3.org/Graphics/SVG/1.1/DTD/svg11.dtd">
<!-- Generated by graphviz version 2.38.0 (20140413.2041)
 -->
<!-- Title: %3 Pages: 1 -->
<svg width="3344pt" height="375pt"
 viewBox="0.00 0.00 3343.81 375.11" xmlns="http://www.w3.org/2000/svg" xmlns:xlink="http://www.w3.org/1999/xlink">
<g id="graph0" class="graph" transform="scale(1 1) rotate(0) translate(4 371.108)">
<title>%3</title>
<polygon fill="white" stroke="none" points="-4,4 -4,-371.108 3339.81,-371.108 3339.81,4 -4,4"/>
<!-- 264_63 -->
<g id="node1" class="node"><title>264_63</title>
<polygon fill="#66cdaa" stroke="black" points="1495.81,-362.344 1438.81,-362.344 1438.81,-339.344 1495.81,-339.344 1495.81,-362.344"/>
<text text-anchor="middle" x="1467.31" y="-347.144" font-family="Times,serif" font-size="14.00">264_63</text>
</g>
<!-- 264_41 -->
<g id="node2" class="node"><title>264_41</title>
<polygon fill="white" stroke="black" points="998.805,-27.7635 941.805,-27.7635 941.805,-4.76346 998.805,-4.76346 998.805,-27.7635"/>
<text text-anchor="middle" x="970.305" y="-12.5635" font-family="Times,serif" font-size="14.00">264_41</text>
</g>
<!-- 264_38x264_4 -->
<g id="node3" class="node"><title>264_38x264_4</title>
<polygon fill="none" stroke="black" points="586.305,-75.5269 582.805,-72.0269 586.305,-68.5269 589.805,-72.0269 586.305,-75.5269"/>
</g>
<!-- 264_38x264_4&#45;&gt;264_41 -->
<g id="edge1" class="edge"><title>264_38x264_4&#45;&gt;264_41</title>
<path fill="none" stroke="black" d="M588.827,-71.0062C612.127,-70.7625 792.215,-67.7581 932.305,-32.5269 933.964,-32.1097 935.647,-31.636 937.335,-31.1202"/>
<polygon fill="black" stroke="black" points="938.612,-34.382 946.918,-27.8051 936.324,-27.7666 938.612,-34.382"/>
</g>
<!-- 264_40 -->
<g id="node11" class="node"><title>264_40</title>
<polygon fill="white" stroke="black" points="1073.81,-27.7635 1016.81,-27.7635 1016.81,-4.76346 1073.81,-4.76346 1073.81,-27.7635"/>
<text text-anchor="middle" x="1045.31" y="-12.5635" font-family="Times,serif" font-size="14.00">264_40</text>
</g>
<!-- 264_38x264_4&#45;&gt;264_40 -->
<g id="edge8" class="edge"><title>264_38x264_4&#45;&gt;264_40</title>
<path fill="none" stroke="black" d="M589.026,-71.0783C615.88,-71.5253 836.063,-73.8108 1007.31,-32.5269 1008.97,-32.126 1010.65,-31.6655 1012.34,-31.1604"/>
<polygon fill="black" stroke="black" points="1013.61,-34.4276 1021.94,-27.8802 1011.34,-27.8042 1013.61,-34.4276"/>
</g>
<!-- 264_39 -->
<g id="node14" class="node"><title>264_39</title>
<ellipse fill="white" stroke="black" cx="40.3051" cy="-16.2635" rx="40.1111" ry="16.0303"/>
<text text-anchor="middle" x="40.3051" y="-12.5635" font-family="Times,serif" font-size="14.00">264_39</text>
</g>
<!-- 264_38x264_4&#45;&gt;264_39 -->
<g id="edge11" class="edge"><title>264_38x264_4&#45;&gt;264_39</title>
<path fill="none" stroke="black" d="M583.496,-71.0508C553.773,-71.2548 294.135,-71.8436 89.3051,-32.5269 86.0674,-31.9055 82.7421,-31.1448 79.4221,-30.2981"/>
<polygon fill="black" stroke="black" points="80.1433,-26.8658 69.5708,-27.5535 78.2645,-33.609 80.1433,-26.8658"/>
</g>
<!-- 264_42 -->
<g id="node24" class="node"><title>264_42</title>
<polygon fill="#66cdaa" stroke="black" points="155.805,-27.7635 98.8051,-27.7635 98.8051,-4.76346 155.805,-4.76346 155.805,-27.7635"/>
<text text-anchor="middle" x="127.305" y="-12.5635" font-family="Times,serif" font-size="14.00">264_42</text>
</g>
<!-- 264_38x264_4&#45;&gt;264_42 -->
<g id="edge19" class="edge"><title>264_38x264_4&#45;&gt;264_42</title>
<path fill="none" stroke="black" d="M583.575,-71.0886C556.636,-71.635 335.761,-74.6884 164.305,-32.5269 162.829,-32.1639 161.335,-31.7516 159.837,-31.3009"/>
<polygon fill="black" stroke="black" points="160.633,-27.872 150.038,-27.8879 158.331,-34.4825 160.633,-27.872"/>
</g>
<!-- 264_43 -->
<g id="node49" class="node"><title>264_43</title>
<polygon fill="#66cdaa" stroke="black" points="230.805,-27.7635 173.805,-27.7635 173.805,-4.76346 230.805,-4.76346 230.805,-27.7635"/>
<text text-anchor="middle" x="202.305" y="-12.5635" font-family="Times,serif" font-size="14.00">264_43</text>
</g>
<!-- 264_38x264_4&#45;&gt;264_43 -->
<g id="edge44" class="edge"><title>264_38x264_4&#45;&gt;264_43</title>
<path fill="none" stroke="black" d="M583.784,-71.0062C560.483,-70.7625 380.395,-67.7581 240.305,-32.5269 238.646,-32.1097 236.963,-31.636 235.275,-31.1202"/>
<polygon fill="black" stroke="black" points="236.287,-27.7666 225.692,-27.8051 233.998,-34.382 236.287,-27.7666"/>
</g>
<!-- 264_44 -->
<g id="node52" class="node"><title>264_44</title>
<ellipse fill="#66cdaa" stroke="black" cx="289.305" cy="-16.2635" rx="40.1111" ry="16.0303"/>
<text text-anchor="middle" x="289.305" y="-12.5635" font-family="Times,serif" font-size="14.00">264_44</text>
</g>
<!-- 264_38x264_4&#45;&gt;264_44 -->
<g id="edge47" class="edge"><title>264_38x264_4&#45;&gt;264_44</title>
<path fill="none" stroke="black" d="M583.846,-70.7779C564.818,-68.8239 439.136,-55.4236 339.305,-32.5269 335.93,-31.7527 332.45,-30.8703 328.971,-29.929"/>
<polygon fill="black" stroke="black" points="329.837,-26.5364 319.261,-27.1615 327.919,-33.2684 329.837,-26.5364"/>
</g>
<!-- 264_45 -->
<g id="node53" class="node"><title>264_45</title>
<ellipse fill="#66cdaa" stroke="black" cx="388.305" cy="-16.2635" rx="40.1111" ry="16.0303"/>
<text text-anchor="middle" x="388.305" y="-12.5635" font-family="Times,serif" font-size="14.00">264_45</text>
</g>
<!-- 264_38x264_4&#45;&gt;264_45 -->
<g id="edge48" class="edge"><title>264_38x264_4&#45;&gt;264_45</title>
<path fill="none" stroke="black" d="M584.21,-70.5168C570.97,-67.287 497.579,-49.2759 438.305,-32.5269 435.205,-31.6508 432.002,-30.7241 428.786,-29.7778"/>
<polygon fill="black" stroke="black" points="429.769,-26.4184 419.185,-26.9107 427.766,-33.1258 429.769,-26.4184"/>
</g>
<!-- 264_46 -->
<g id="node55" class="node"><title>264_46</title>
<ellipse fill="#66cdaa" stroke="black" cx="487.305" cy="-16.2635" rx="40.1111" ry="16.0303"/>
<text text-anchor="middle" x="487.305" y="-12.5635" font-family="Times,serif" font-size="14.00">264_46</text>
</g>
<!-- 264_38x264_4&#45;&gt;264_46 -->
<g id="edge51" class="edge"><title>264_38x264_4&#45;&gt;264_46</title>
<path fill="none" stroke="black" d="M584.587,-70.0937C576.857,-65.8962 544.588,-48.3718 519.307,-34.6427"/>
<polygon fill="black" stroke="black" points="520.826,-31.4847 510.368,-29.788 517.485,-37.6361 520.826,-31.4847"/>
</g>
<!-- 264_47 -->
<g id="node56" class="node"><title>264_47</title>
<ellipse fill="white" stroke="black" cx="586.305" cy="-16.2635" rx="40.1111" ry="16.0303"/>
<text text-anchor="middle" x="586.305" y="-12.5635" font-family="Times,serif" font-size="14.00">264_47</text>
</g>
<!-- 264_38x264_4&#45;&gt;264_47 -->
<g id="edge52" class="edge"><title>264_38x264_4&#45;&gt;264_47</title>
<path fill="none" stroke="black" d="M586.305,-68.4338C586.305,-63.6514 586.305,-52.9811 586.305,-42.6151"/>
<polygon fill="black" stroke="black" points="589.805,-42.5799 586.305,-32.58 582.805,-42.58 589.805,-42.5799"/>
</g>
<!-- 264_48 -->
<g id="node57" class="node"><title>264_48</title>
<ellipse fill="dimgrey" stroke="black" cx="685.305" cy="-16.2635" rx="40.1111" ry="16.0303"/>
<text text-anchor="middle" x="685.305" y="-12.5635" font-family="Times,serif" font-size="14.00">264_48</text>
</g>
<!-- 264_38x264_4&#45;&gt;264_48 -->
<g id="edge53" class="edge"><title>264_38x264_4&#45;&gt;264_48</title>
<path fill="none" stroke="black" d="M588.023,-70.0937C595.753,-65.8962 628.022,-48.3718 653.303,-34.6427"/>
<polygon fill="black" stroke="black" points="655.125,-37.6361 662.242,-29.788 651.784,-31.4847 655.125,-37.6361"/>
</g>
<!-- 264_49 -->
<g id="node58" class="node"><title>264_49</title>
<ellipse fill="#66cdaa" stroke="black" cx="784.305" cy="-16.2635" rx="40.1111" ry="16.0303"/>
<text text-anchor="middle" x="784.305" y="-12.5635" font-family="Times,serif" font-size="14.00">264_49</text>
</g>
<!-- 264_38x264_4&#45;&gt;264_49 -->
<g id="edge54" class="edge"><title>264_38x264_4&#45;&gt;264_49</title>
<path fill="none" stroke="black" d="M588.401,-70.5168C601.64,-67.287 675.031,-49.2759 734.305,-32.5269 737.406,-31.6508 740.608,-30.7241 743.824,-29.7778"/>
<polygon fill="black" stroke="black" points="744.845,-33.1258 753.425,-26.9107 742.842,-26.4184 744.845,-33.1258"/>
</g>
<!-- 264_50 -->
<g id="node60" class="node"><title>264_50</title>
<ellipse fill="white" stroke="black" cx="883.305" cy="-16.2635" rx="40.1111" ry="16.0303"/>
<text text-anchor="middle" x="883.305" y="-12.5635" font-family="Times,serif" font-size="14.00">264_50</text>
</g>
<!-- 264_38x264_4&#45;&gt;264_50 -->
<g id="edge56" class="edge"><title>264_38x264_4&#45;&gt;264_50</title>
<path fill="none" stroke="black" d="M588.764,-70.7779C607.793,-68.8239 733.474,-55.4236 833.305,-32.5269 836.681,-31.7527 840.161,-30.8703 843.639,-29.929"/>
<polygon fill="black" stroke="black" points="844.692,-33.2684 853.349,-27.1615 842.773,-26.5364 844.692,-33.2684"/>
</g>
<!-- 264_9 -->
<g id="node4" class="node"><title>264_9</title>
<ellipse fill="dimgrey" stroke="black" cx="1453.31" cy="-127.79" rx="35.2113" ry="16.0303"/>
<text text-anchor="middle" x="1453.31" y="-124.09" font-family="Times,serif" font-size="14.00">264_9</text>
</g>
<!-- 264_29x264_9 -->
<g id="node6" class="node"><title>264_29x264_9</title>
<polygon fill="none" stroke="black" points="1371.31,-75.5269 1367.81,-72.0269 1371.31,-68.5269 1374.81,-72.0269 1371.31,-75.5269"/>
</g>
<!-- 264_9&#45;&gt;264_29x264_9 -->
<g id="edge3" class="edge"><title>264_9&#45;&gt;264_29x264_9</title>
<path fill="none" stroke="black" d="M1433.87,-114.049C1417.46,-103.29 1394.61,-88.3051 1381.55,-79.742"/>
<polygon fill="black" stroke="black" points="1383.28,-76.6936 1373,-74.1375 1379.44,-82.5476 1383.28,-76.6936"/>
</g>
<!-- 264_1x264_2 -->
<g id="node5" class="node"><title>264_1x264_2</title>
<polygon fill="none" stroke="black" points="1789.31,-187.054 1785.81,-183.554 1789.31,-180.054 1792.81,-183.554 1789.31,-187.054"/>
</g>
<!-- 264_1x264_2&#45;&gt;264_9 -->
<g id="edge2" class="edge"><title>264_1x264_2&#45;&gt;264_9</title>
<path fill="none" stroke="black" d="M1786.68,-182.403C1765.17,-181.126 1615.92,-171.503 1498.31,-144.054 1495.35,-143.364 1492.31,-142.556 1489.28,-141.68"/>
<polygon fill="black" stroke="black" points="1490.29,-138.331 1479.71,-138.703 1488.22,-145.015 1490.29,-138.331"/>
</g>
<!-- 264_6 -->
<g id="node7" class="node"><title>264_6</title>
<polygon fill="white" stroke="black" points="1655.31,-139.29 1605.31,-139.29 1605.31,-116.29 1655.31,-116.29 1655.31,-139.29"/>
<text text-anchor="middle" x="1630.31" y="-124.09" font-family="Times,serif" font-size="14.00">264_6</text>
</g>
<!-- 264_1x264_2&#45;&gt;264_6 -->
<g id="edge4" class="edge"><title>264_1x264_2&#45;&gt;264_6</title>
<path fill="none" stroke="black" d="M1787.21,-182.013C1775.13,-178.871 1713.18,-162.47 1664.31,-144.054 1663.6,-143.789 1662.89,-143.516 1662.18,-143.237"/>
<polygon fill="black" stroke="black" points="1663.4,-139.955 1652.82,-139.365 1660.72,-146.423 1663.4,-139.955"/>
</g>
<!-- 264_3 -->
<g id="node9" class="node"><title>264_3</title>
<ellipse fill="dimgrey" stroke="black" cx="1883.31" cy="-127.79" rx="35.2113" ry="16.0303"/>
<text text-anchor="middle" x="1883.31" y="-124.09" font-family="Times,serif" font-size="14.00">264_3</text>
</g>
<!-- 264_1x264_2&#45;&gt;264_3 -->
<g id="edge6" class="edge"><title>264_1x264_2&#45;&gt;264_3</title>
<path fill="none" stroke="black" d="M1790.94,-181.621C1798.29,-177.417 1829.01,-159.846 1853.03,-146.108"/>
<polygon fill="black" stroke="black" points="1854.9,-149.069 1861.84,-141.066 1851.42,-142.993 1854.9,-149.069"/>
</g>
<!-- 264_99 -->
<g id="node25" class="node"><title>264_99</title>
<ellipse fill="dimgrey" stroke="black" cx="2173.31" cy="-127.79" rx="40.1111" ry="16.0303"/>
<text text-anchor="middle" x="2173.31" y="-124.09" font-family="Times,serif" font-size="14.00">264_99</text>
</g>
<!-- 264_1x264_2&#45;&gt;264_99 -->
<g id="edge20" class="edge"><title>264_1x264_2&#45;&gt;264_99</title>
<path fill="none" stroke="black" d="M1791.73,-182.45C1814.14,-181.451 1987.41,-172.974 2124.31,-144.054 2127.49,-143.382 2130.76,-142.591 2134.03,-141.729"/>
<polygon fill="black" stroke="black" points="2135.07,-145.07 2143.74,-138.977 2133.17,-138.335 2135.07,-145.07"/>
</g>
<!-- 264_8 -->
<g id="node47" class="node"><title>264_8</title>
<ellipse fill="dimgrey" stroke="black" cx="2334.31" cy="-127.79" rx="35.2113" ry="16.0303"/>
<text text-anchor="middle" x="2334.31" y="-124.09" font-family="Times,serif" font-size="14.00">264_8</text>
</g>
<!-- 264_1x264_2&#45;&gt;264_8 -->
<g id="edge42" class="edge"><title>264_1x264_2&#45;&gt;264_8</title>
<path fill="none" stroke="black" d="M1792.14,-182.614C1822.18,-183.197 2084.48,-186.913 2290.31,-144.054 2293.13,-143.467 2296.01,-142.747 2298.89,-141.944"/>
<polygon fill="black" stroke="black" points="2300.04,-145.254 2308.56,-138.959 2297.97,-138.566 2300.04,-145.254"/>
</g>
<!-- 264_5 -->
<g id="node62" class="node"><title>264_5</title>
<polygon fill="dimgrey" stroke="black" points="2281.31,-139.29 2231.31,-139.29 2231.31,-116.29 2281.31,-116.29 2281.31,-139.29"/>
<text text-anchor="middle" x="2256.31" y="-124.09" font-family="Times,serif" font-size="14.00">264_5</text>
</g>
<!-- 264_1x264_2&#45;&gt;264_5 -->
<g id="edge58" class="edge"><title>264_1x264_2&#45;&gt;264_5</title>
<path fill="none" stroke="black" d="M1792.11,-182.658C1819.83,-183.61 2047.05,-189.799 2222.31,-144.054 2223.54,-143.732 2224.78,-143.37 2226.03,-142.974"/>
<polygon fill="black" stroke="black" points="2227.34,-146.221 2235.48,-139.443 2224.89,-139.664 2227.34,-146.221"/>
</g>
<!-- 264_7 -->
<g id="node63" class="node"><title>264_7</title>
<polygon fill="#66cdaa" stroke="black" points="2786.31,-139.29 2736.31,-139.29 2736.31,-116.29 2786.31,-116.29 2786.31,-139.29"/>
<text text-anchor="middle" x="2761.31" y="-124.09" font-family="Times,serif" font-size="14.00">264_7</text>
</g>
<!-- 264_1x264_2&#45;&gt;264_7 -->
<g id="edge60" class="edge"><title>264_1x264_2&#45;&gt;264_7</title>
<path fill="none" stroke="black" d="M1791.98,-182.586C1840.32,-183.141 2531.39,-190.235 2727.31,-144.054 2728.76,-143.711 2730.23,-143.305 2731.7,-142.85"/>
<polygon fill="black" stroke="black" points="2733.1,-146.065 2741.25,-139.299 2730.66,-139.504 2733.1,-146.065"/>
</g>
<!-- 264_24 -->
<g id="node64" class="node"><title>264_24</title>
<polygon fill="white" stroke="black" points="1730.81,-139.29 1673.81,-139.29 1673.81,-116.29 1730.81,-116.29 1730.81,-139.29"/>
<text text-anchor="middle" x="1702.31" y="-124.09" font-family="Times,serif" font-size="14.00">264_24</text>
</g>
<!-- 264_1x264_2&#45;&gt;264_24 -->
<g id="edge61" class="edge"><title>264_1x264_2&#45;&gt;264_24</title>
<path fill="none" stroke="black" d="M1787.49,-181.431C1779.94,-176.766 1750.41,-158.519 1728.22,-144.806"/>
<polygon fill="black" stroke="black" points="1729.89,-141.724 1719.55,-139.444 1726.21,-147.679 1729.89,-141.724"/>
</g>
<!-- 264_11 -->
<g id="node65" class="node"><title>264_11</title>
<ellipse fill="#66cdaa" stroke="black" cx="1789.31" cy="-127.79" rx="40.1111" ry="16.0303"/>
<text text-anchor="middle" x="1789.31" y="-124.09" font-family="Times,serif" font-size="14.00">264_11</text>
</g>
<!-- 264_1x264_2&#45;&gt;264_11 -->
<g id="edge62" class="edge"><title>264_1x264_2&#45;&gt;264_11</title>
<path fill="none" stroke="black" d="M1789.31,-179.961C1789.31,-175.178 1789.31,-164.508 1789.31,-154.142"/>
<polygon fill="black" stroke="black" points="1792.81,-154.107 1789.31,-144.107 1785.81,-154.107 1792.81,-154.107"/>
</g>
<!-- 264_4 -->
<g id="node71" class="node"><title>264_4</title>
<ellipse fill="dimgrey" stroke="black" cx="1289.31" cy="-127.79" rx="35.2113" ry="16.0303"/>
<text text-anchor="middle" x="1289.31" y="-124.09" font-family="Times,serif" font-size="14.00">264_4</text>
</g>
<!-- 264_1x264_2&#45;&gt;264_4 -->
<g id="edge68" class="edge"><title>264_1x264_2&#45;&gt;264_4</title>
<path fill="none" stroke="black" d="M1786.72,-182.582C1759.38,-182.831 1520.61,-183.793 1333.31,-144.054 1330.65,-143.491 1327.94,-142.814 1325.23,-142.062"/>
<polygon fill="black" stroke="black" points="1326.11,-138.672 1315.53,-139.082 1324.06,-145.364 1326.11,-138.672"/>
</g>
<!-- 264_26 -->
<g id="node44" class="node"><title>264_26</title>
<ellipse fill="white" stroke="black" cx="1132.31" cy="-16.2635" rx="40.1111" ry="16.0303"/>
<text text-anchor="middle" x="1132.31" y="-12.5635" font-family="Times,serif" font-size="14.00">264_26</text>
</g>
<!-- 264_29x264_9&#45;&gt;264_26 -->
<g id="edge39" class="edge"><title>264_29x264_9&#45;&gt;264_26</title>
<path fill="none" stroke="black" d="M1369.04,-70.65C1353.27,-68.008 1258.25,-51.8081 1182.31,-32.5269 1179.09,-31.7118 1175.78,-30.8188 1172.46,-29.8867"/>
<polygon fill="black" stroke="black" points="1173.16,-26.4447 1162.58,-27.0121 1171.21,-33.166 1173.16,-26.4447"/>
</g>
<!-- 264_6x264_30 -->
<g id="node8" class="node"><title>264_6x264_30</title>
<polygon fill="none" stroke="black" points="1547.31,-75.5269 1543.81,-72.0269 1547.31,-68.5269 1550.81,-72.0269 1547.31,-75.5269"/>
</g>
<!-- 264_6&#45;&gt;264_6x264_30 -->
<g id="edge5" class="edge"><title>264_6&#45;&gt;264_6x264_30</title>
<path fill="none" stroke="black" d="M1613.91,-116.168C1597.21,-105.351 1571.82,-88.9054 1557.7,-79.7602"/>
<polygon fill="black" stroke="black" points="1559.47,-76.7371 1549.17,-74.238 1555.66,-82.6122 1559.47,-76.7371"/>
</g>
<!-- 264_35 -->
<g id="node12" class="node"><title>264_35</title>
<polygon fill="#66cdaa" stroke="black" points="1619.81,-27.7635 1562.81,-27.7635 1562.81,-4.76346 1619.81,-4.76346 1619.81,-27.7635"/>
<text text-anchor="middle" x="1591.31" y="-12.5635" font-family="Times,serif" font-size="14.00">264_35</text>
</g>
<!-- 264_6x264_30&#45;&gt;264_35 -->
<g id="edge9" class="edge"><title>264_6x264_30&#45;&gt;264_35</title>
<path fill="none" stroke="black" d="M1548.77,-69.2381C1553.03,-64.0368 1565.76,-48.4782 1576.19,-35.7288"/>
<polygon fill="black" stroke="black" points="1578.98,-37.8489 1582.61,-27.8934 1573.56,-33.4155 1578.98,-37.8489"/>
</g>
<!-- 264_33 -->
<g id="node13" class="node"><title>264_33</title>
<polygon fill="#66cdaa" stroke="black" points="1694.81,-27.7635 1637.81,-27.7635 1637.81,-4.76346 1694.81,-4.76346 1694.81,-27.7635"/>
<text text-anchor="middle" x="1666.31" y="-12.5635" font-family="Times,serif" font-size="14.00">264_33</text>
</g>
<!-- 264_6x264_30&#45;&gt;264_33 -->
<g id="edge10" class="edge"><title>264_6x264_30&#45;&gt;264_33</title>
<path fill="none" stroke="black" d="M1549.37,-70.0937C1559.27,-65.6204 1602.67,-46.0112 1633.71,-31.9902"/>
<polygon fill="black" stroke="black" points="1635.22,-35.1481 1642.89,-27.8413 1632.34,-28.769 1635.22,-35.1481"/>
</g>
<!-- 264_37 -->
<g id="node20" class="node"><title>264_37</title>
<polygon fill="#66cdaa" stroke="black" points="1769.81,-27.7635 1712.81,-27.7635 1712.81,-4.76346 1769.81,-4.76346 1769.81,-27.7635"/>
<text text-anchor="middle" x="1741.31" y="-12.5635" font-family="Times,serif" font-size="14.00">264_37</text>
</g>
<!-- 264_6x264_30&#45;&gt;264_37 -->
<g id="edge15" class="edge"><title>264_6x264_30&#45;&gt;264_37</title>
<path fill="none" stroke="black" d="M1549.54,-70.599C1563.63,-67.8709 1641.71,-52.3902 1703.31,-32.5269 1704.52,-32.1341 1705.76,-31.7212 1707,-31.2927"/>
<polygon fill="black" stroke="black" points="1708.37,-34.5184 1716.55,-27.7854 1705.96,-27.9475 1708.37,-34.5184"/>
</g>
<!-- 264_36 -->
<g id="node21" class="node"><title>264_36</title>
<ellipse fill="white" stroke="black" cx="1231.31" cy="-16.2635" rx="40.1111" ry="16.0303"/>
<text text-anchor="middle" x="1231.31" y="-12.5635" font-family="Times,serif" font-size="14.00">264_36</text>
</g>
<!-- 264_6x264_30&#45;&gt;264_36 -->
<g id="edge16" class="edge"><title>264_6x264_30&#45;&gt;264_36</title>
<path fill="none" stroke="black" d="M1544.64,-70.8054C1524.06,-69.0587 1388.11,-56.9265 1280.31,-32.5269 1277.13,-31.809 1273.87,-30.9855 1270.61,-30.1011"/>
<polygon fill="black" stroke="black" points="1271.48,-26.71 1260.9,-27.3101 1269.54,-33.4374 1271.48,-26.71"/>
</g>
<!-- 264_34 -->
<g id="node23" class="node"><title>264_34</title>
<polygon fill="#66cdaa" stroke="black" points="1346.81,-27.7635 1289.81,-27.7635 1289.81,-4.76346 1346.81,-4.76346 1346.81,-27.7635"/>
<text text-anchor="middle" x="1318.31" y="-12.5635" font-family="Times,serif" font-size="14.00">264_34</text>
</g>
<!-- 264_6x264_30&#45;&gt;264_34 -->
<g id="edge18" class="edge"><title>264_6x264_30&#45;&gt;264_34</title>
<path fill="none" stroke="black" d="M1545,-70.725C1528.92,-68.5899 1432.14,-55.1935 1356.31,-32.5269 1354.9,-32.107 1353.47,-31.6557 1352.04,-31.1808"/>
<polygon fill="black" stroke="black" points="1353.2,-27.8761 1342.6,-27.786 1350.83,-34.4633 1353.2,-27.8761"/>
</g>
<!-- 264_27 -->
<g id="node46" class="node"><title>264_27</title>
<ellipse fill="white" stroke="black" cx="1405.31" cy="-16.2635" rx="40.1111" ry="16.0303"/>
<text text-anchor="middle" x="1405.31" y="-12.5635" font-family="Times,serif" font-size="14.00">264_27</text>
</g>
<!-- 264_6x264_30&#45;&gt;264_27 -->
<g id="edge41" class="edge"><title>264_6x264_30&#45;&gt;264_27</title>
<path fill="none" stroke="black" d="M1545.3,-70.2669C1534.34,-66.1194 1480.9,-45.8852 1443.32,-31.6552"/>
<polygon fill="black" stroke="black" points="1444.25,-28.2677 1433.66,-28 1441.78,-34.8141 1444.25,-28.2677"/>
</g>
<!-- 264_32 -->
<g id="node61" class="node"><title>264_32</title>
<ellipse fill="white" stroke="black" cx="1504.31" cy="-16.2635" rx="40.1111" ry="16.0303"/>
<text text-anchor="middle" x="1504.31" y="-12.5635" font-family="Times,serif" font-size="14.00">264_32</text>
</g>
<!-- 264_6x264_30&#45;&gt;264_32 -->
<g id="edge57" class="edge"><title>264_6x264_30&#45;&gt;264_32</title>
<path fill="none" stroke="black" d="M1545.87,-69.2381C1542.16,-64.5897 1531.82,-51.6688 1522.39,-39.8738"/>
<polygon fill="black" stroke="black" points="1525.07,-37.6268 1516.09,-32.0034 1519.61,-41.999 1525.07,-37.6268"/>
</g>
<!-- 264_20x264_3 -->
<g id="node10" class="node"><title>264_20x264_3</title>
<polygon fill="none" stroke="black" points="1883.31,-75.5269 1879.81,-72.0269 1883.31,-68.5269 1886.81,-72.0269 1883.31,-75.5269"/>
</g>
<!-- 264_3&#45;&gt;264_20x264_3 -->
<g id="edge7" class="edge"><title>264_3&#45;&gt;264_20x264_3</title>
<path fill="none" stroke="black" d="M1883.31,-111.24C1883.31,-103.134 1883.31,-93.3455 1883.31,-85.7049"/>
<polygon fill="black" stroke="black" points="1886.81,-85.5501 1883.31,-75.5502 1879.81,-85.5502 1886.81,-85.5501"/>
</g>
<!-- 264_31 -->
<g id="node26" class="node"><title>264_31</title>
<ellipse fill="white" stroke="black" cx="1828.31" cy="-16.2635" rx="40.1111" ry="16.0303"/>
<text text-anchor="middle" x="1828.31" y="-12.5635" font-family="Times,serif" font-size="14.00">264_31</text>
</g>
<!-- 264_20x264_3&#45;&gt;264_31 -->
<g id="edge22" class="edge"><title>264_20x264_3&#45;&gt;264_31</title>
<path fill="none" stroke="black" d="M1881.95,-69.6979C1877.52,-65.3724 1863.08,-51.2539 1850.29,-38.7561"/>
<polygon fill="black" stroke="black" points="1852.64,-36.1585 1843.04,-31.6711 1847.75,-41.1642 1852.64,-36.1585"/>
</g>
<!-- 264_38 -->
<g id="node15" class="node"><title>264_38</title>
<polygon fill="#66cdaa" stroke="black" points="614.805,-139.29 557.805,-139.29 557.805,-116.29 614.805,-116.29 614.805,-139.29"/>
<text text-anchor="middle" x="586.305" y="-124.09" font-family="Times,serif" font-size="14.00">264_38</text>
</g>
<!-- 264_38&#45;&gt;264_38x264_4 -->
<g id="edge12" class="edge"><title>264_38&#45;&gt;264_38x264_4</title>
<path fill="none" stroke="black" d="M586.305,-116.168C586.305,-107.416 586.305,-94.9805 586.305,-85.7075"/>
<polygon fill="black" stroke="black" points="589.805,-85.6655 586.305,-75.6656 582.805,-85.6656 589.805,-85.6655"/>
</g>
<!-- 264_25 -->
<g id="node16" class="node"><title>264_25</title>
<ellipse fill="white" stroke="black" cx="2077.31" cy="-16.2635" rx="40.1111" ry="16.0303"/>
<text text-anchor="middle" x="2077.31" y="-12.5635" font-family="Times,serif" font-size="14.00">264_25</text>
</g>
<!-- 264_19x264_99 -->
<g id="node17" class="node"><title>264_19x264_99</title>
<polygon fill="none" stroke="black" points="2219.31,-75.5269 2215.81,-72.0269 2219.31,-68.5269 2222.81,-72.0269 2219.31,-75.5269"/>
</g>
<!-- 264_19x264_99&#45;&gt;264_25 -->
<g id="edge13" class="edge"><title>264_19x264_99&#45;&gt;264_25</title>
<path fill="none" stroke="black" d="M2217.3,-70.2669C2206.34,-66.1194 2152.9,-45.8852 2115.32,-31.6552"/>
<polygon fill="black" stroke="black" points="2116.25,-28.2677 2105.66,-28 2113.78,-34.8141 2116.25,-28.2677"/>
</g>
<!-- 264_13 -->
<g id="node22" class="node"><title>264_13</title>
<ellipse fill="white" stroke="black" cx="2176.31" cy="-16.2635" rx="40.1111" ry="16.0303"/>
<text text-anchor="middle" x="2176.31" y="-12.5635" font-family="Times,serif" font-size="14.00">264_13</text>
</g>
<!-- 264_19x264_99&#45;&gt;264_13 -->
<g id="edge17" class="edge"><title>264_19x264_99&#45;&gt;264_13</title>
<path fill="none" stroke="black" d="M2217.87,-69.2381C2214.16,-64.5897 2203.82,-51.6688 2194.39,-39.8738"/>
<polygon fill="black" stroke="black" points="2197.07,-37.6268 2188.09,-32.0034 2191.61,-41.999 2197.07,-37.6268"/>
</g>
<!-- 264_22 -->
<g id="node27" class="node"><title>264_22</title>
<polygon fill="#66cdaa" stroke="black" points="2291.81,-27.7635 2234.81,-27.7635 2234.81,-4.76346 2291.81,-4.76346 2291.81,-27.7635"/>
<text text-anchor="middle" x="2263.31" y="-12.5635" font-family="Times,serif" font-size="14.00">264_22</text>
</g>
<!-- 264_19x264_99&#45;&gt;264_22 -->
<g id="edge23" class="edge"><title>264_19x264_99&#45;&gt;264_22</title>
<path fill="none" stroke="black" d="M2220.77,-69.2381C2225.03,-64.0368 2237.76,-48.4782 2248.19,-35.7288"/>
<polygon fill="black" stroke="black" points="2250.98,-37.8489 2254.61,-27.8934 2245.56,-33.4155 2250.98,-37.8489"/>
</g>
<!-- 264_23 -->
<g id="node28" class="node"><title>264_23</title>
<ellipse fill="#66cdaa" stroke="black" cx="2350.31" cy="-16.2635" rx="40.1111" ry="16.0303"/>
<text text-anchor="middle" x="2350.31" y="-12.5635" font-family="Times,serif" font-size="14.00">264_23</text>
</g>
<!-- 264_19x264_99&#45;&gt;264_23 -->
<g id="edge24" class="edge"><title>264_19x264_99&#45;&gt;264_23</title>
<path fill="none" stroke="black" d="M2221.16,-70.2669C2231.13,-66.1721 2279.32,-46.3964 2313.91,-32.2"/>
<polygon fill="black" stroke="black" points="2315.34,-35.3962 2323.26,-28.3615 2312.68,-28.9204 2315.34,-35.3962"/>
</g>
<!-- 264_17 -->
<g id="node51" class="node"><title>264_17</title>
<ellipse fill="#66cdaa" stroke="black" cx="2449.31" cy="-16.2635" rx="40.1111" ry="16.0303"/>
<text text-anchor="middle" x="2449.31" y="-12.5635" font-family="Times,serif" font-size="14.00">264_17</text>
</g>
<!-- 264_19x264_99&#45;&gt;264_17 -->
<g id="edge46" class="edge"><title>264_19x264_99&#45;&gt;264_17</title>
<path fill="none" stroke="black" d="M2221.46,-70.6383C2236.47,-67.9174 2326.92,-51.2809 2399.31,-32.5269 2402.47,-31.7075 2405.73,-30.8167 2409,-29.8908"/>
<polygon fill="black" stroke="black" points="2410.13,-33.2069 2418.75,-27.044 2408.17,-26.4875 2410.13,-33.2069"/>
</g>
<!-- 264_12 -->
<g id="node66" class="node"><title>264_12</title>
<polygon fill="#66cdaa" stroke="black" points="2564.81,-27.7635 2507.81,-27.7635 2507.81,-4.76346 2564.81,-4.76346 2564.81,-27.7635"/>
<text text-anchor="middle" x="2536.31" y="-12.5635" font-family="Times,serif" font-size="14.00">264_12</text>
</g>
<!-- 264_19x264_99&#45;&gt;264_12 -->
<g id="edge63" class="edge"><title>264_19x264_99&#45;&gt;264_12</title>
<path fill="none" stroke="black" d="M2221.84,-70.9136C2242.56,-69.9386 2386.3,-62.2666 2498.31,-32.5269 2499.77,-32.1392 2501.24,-31.7107 2502.73,-31.2508"/>
<polygon fill="black" stroke="black" points="2504.19,-34.4499 2512.48,-27.8609 2501.89,-27.8379 2504.19,-34.4499"/>
</g>
<!-- 264_14 -->
<g id="node67" class="node"><title>264_14</title>
<ellipse fill="#66cdaa" stroke="black" cx="2623.31" cy="-16.2635" rx="40.1111" ry="16.0303"/>
<text text-anchor="middle" x="2623.31" y="-12.5635" font-family="Times,serif" font-size="14.00">264_14</text>
</g>
<!-- 264_19x264_99&#45;&gt;264_14 -->
<g id="edge64" class="edge"><title>264_19x264_99&#45;&gt;264_14</title>
<path fill="none" stroke="black" d="M2221.87,-70.9391C2245.62,-70.0892 2429.24,-62.6883 2574.31,-32.5269 2577.49,-31.8649 2580.76,-31.0813 2584.03,-30.2244"/>
<polygon fill="black" stroke="black" points="2585.08,-33.5667 2593.75,-27.4815 2583.17,-26.83 2585.08,-33.5667"/>
</g>
<!-- 264_15 -->
<g id="node68" class="node"><title>264_15</title>
<ellipse fill="#66cdaa" stroke="black" cx="2722.31" cy="-16.2635" rx="40.1111" ry="16.0303"/>
<text text-anchor="middle" x="2722.31" y="-12.5635" font-family="Times,serif" font-size="14.00">264_15</text>
</g>
<!-- 264_19x264_99&#45;&gt;264_15 -->
<g id="edge65" class="edge"><title>264_19x264_99&#45;&gt;264_15</title>
<path fill="none" stroke="black" d="M2221.86,-71.0169C2248.95,-70.869 2485.53,-68.5514 2672.31,-32.5269 2675.75,-31.8622 2679.3,-31.05 2682.83,-30.1501"/>
<polygon fill="black" stroke="black" points="2683.98,-33.4649 2692.69,-27.431 2682.12,-26.7171 2683.98,-33.4649"/>
</g>
<!-- 264_16 -->
<g id="node69" class="node"><title>264_16</title>
<polygon fill="#66cdaa" stroke="black" points="1943.81,-27.7635 1886.81,-27.7635 1886.81,-4.76346 1943.81,-4.76346 1943.81,-27.7635"/>
<text text-anchor="middle" x="1915.31" y="-12.5635" font-family="Times,serif" font-size="14.00">264_16</text>
</g>
<!-- 264_19x264_99&#45;&gt;264_16 -->
<g id="edge66" class="edge"><title>264_19x264_99&#45;&gt;264_16</title>
<path fill="none" stroke="black" d="M2216.89,-70.897C2197.14,-69.7893 2060.1,-61.2606 1953.31,-32.5269 1951.85,-32.1344 1950.37,-31.7018 1948.88,-31.2386"/>
<polygon fill="black" stroke="black" points="1949.73,-27.8265 1939.13,-27.8359 1947.42,-34.4356 1949.73,-27.8265"/>
</g>
<!-- 264_18 -->
<g id="node70" class="node"><title>264_18</title>
<polygon fill="#66cdaa" stroke="black" points="2018.81,-27.7635 1961.81,-27.7635 1961.81,-4.76346 2018.81,-4.76346 2018.81,-27.7635"/>
<text text-anchor="middle" x="1990.31" y="-12.5635" font-family="Times,serif" font-size="14.00">264_18</text>
</g>
<!-- 264_19x264_99&#45;&gt;264_18 -->
<g id="edge67" class="edge"><title>264_19x264_99&#45;&gt;264_18</title>
<path fill="none" stroke="black" d="M2217,-70.725C2200.92,-68.5899 2104.14,-55.1935 2028.31,-32.5269 2026.9,-32.107 2025.47,-31.6557 2024.04,-31.1808"/>
<polygon fill="black" stroke="black" points="2025.2,-27.8761 2014.6,-27.786 2022.83,-34.4633 2025.2,-27.8761"/>
</g>
<!-- 264_62 -->
<g id="node18" class="node"><title>264_62</title>
<ellipse fill="#66cdaa" stroke="black" cx="3145.31" cy="-16.2635" rx="40.1111" ry="16.0303"/>
<text text-anchor="middle" x="3145.31" y="-12.5635" font-family="Times,serif" font-size="14.00">264_62</text>
</g>
<!-- 264_5x264_55 -->
<g id="node19" class="node"><title>264_5x264_55</title>
<polygon fill="none" stroke="black" points="2971.31,-75.5269 2967.81,-72.0269 2971.31,-68.5269 2974.81,-72.0269 2971.31,-75.5269"/>
</g>
<!-- 264_5x264_55&#45;&gt;264_62 -->
<g id="edge14" class="edge"><title>264_5x264_55&#45;&gt;264_62</title>
<path fill="none" stroke="black" d="M2973.37,-70.3944C2985.27,-66.7426 3046.42,-47.9798 3096.31,-32.5269 3099.06,-31.6742 3101.9,-30.7934 3104.76,-29.905"/>
<polygon fill="black" stroke="black" points="3105.96,-33.1977 3114.47,-26.8862 3103.88,-26.5133 3105.96,-33.1977"/>
</g>
<!-- 264_61 -->
<g id="node35" class="node"><title>264_61</title>
<polygon fill="#66cdaa" stroke="black" points="3260.81,-27.7635 3203.81,-27.7635 3203.81,-4.76346 3260.81,-4.76346 3260.81,-27.7635"/>
<text text-anchor="middle" x="3232.31" y="-12.5635" font-family="Times,serif" font-size="14.00">264_61</text>
</g>
<!-- 264_5x264_55&#45;&gt;264_61 -->
<g id="edge30" class="edge"><title>264_5x264_55&#45;&gt;264_61</title>
<path fill="none" stroke="black" d="M2974,-70.7787C2992.79,-69.0069 3105.86,-57.6198 3194.31,-32.5269 3195.72,-32.1267 3197.15,-31.6919 3198.58,-31.2306"/>
<polygon fill="black" stroke="black" points="3199.78,-34.521 3208.04,-27.89 3197.44,-27.9207 3199.78,-34.521"/>
</g>
<!-- 264_60 -->
<g id="node36" class="node"><title>264_60</title>
<polygon fill="#66cdaa" stroke="black" points="3335.81,-27.7635 3278.81,-27.7635 3278.81,-4.76346 3335.81,-4.76346 3335.81,-27.7635"/>
<text text-anchor="middle" x="3307.31" y="-12.5635" font-family="Times,serif" font-size="14.00">264_60</text>
</g>
<!-- 264_5x264_55&#45;&gt;264_60 -->
<g id="edge31" class="edge"><title>264_5x264_55&#45;&gt;264_60</title>
<path fill="none" stroke="black" d="M2973.75,-70.957C2994.94,-70.3007 3149.92,-64.509 3270.31,-32.5269 3271.73,-32.1478 3273.18,-31.7264 3274.63,-31.2725"/>
<polygon fill="black" stroke="black" points="3275.88,-34.5421 3284.14,-27.9054 3273.54,-27.9434 3275.88,-34.5421"/>
</g>
<!-- 264_59 -->
<g id="node37" class="node"><title>264_59</title>
<polygon fill="#66cdaa" stroke="black" points="2837.81,-27.7635 2780.81,-27.7635 2780.81,-4.76346 2837.81,-4.76346 2837.81,-27.7635"/>
<text text-anchor="middle" x="2809.31" y="-12.5635" font-family="Times,serif" font-size="14.00">264_59</text>
</g>
<!-- 264_5x264_55&#45;&gt;264_59 -->
<g id="edge32" class="edge"><title>264_5x264_55&#45;&gt;264_59</title>
<path fill="none" stroke="black" d="M2969.24,-70.4535C2957.32,-67.1306 2896.16,-49.8898 2847.31,-32.5269 2846.43,-32.2144 2845.54,-31.8938 2844.64,-31.5668"/>
<polygon fill="black" stroke="black" points="2845.54,-28.166 2834.95,-27.8924 2843.06,-34.7111 2845.54,-28.166"/>
</g>
<!-- 264_58 -->
<g id="node38" class="node"><title>264_58</title>
<polygon fill="#66cdaa" stroke="black" points="2912.81,-27.7635 2855.81,-27.7635 2855.81,-4.76346 2912.81,-4.76346 2912.81,-27.7635"/>
<text text-anchor="middle" x="2884.31" y="-12.5635" font-family="Times,serif" font-size="14.00">264_58</text>
</g>
<!-- 264_5x264_55&#45;&gt;264_58 -->
<g id="edge33" class="edge"><title>264_5x264_55&#45;&gt;264_58</title>
<path fill="none" stroke="black" d="M2969.49,-69.904C2961.94,-65.2388 2932.41,-46.9916 2910.22,-33.2795"/>
<polygon fill="black" stroke="black" points="2911.89,-30.1971 2901.55,-27.9175 2908.21,-36.1518 2911.89,-30.1971"/>
</g>
<!-- 264_57 -->
<g id="node39" class="node"><title>264_57</title>
<ellipse fill="#66cdaa" stroke="black" cx="2971.31" cy="-16.2635" rx="40.1111" ry="16.0303"/>
<text text-anchor="middle" x="2971.31" y="-12.5635" font-family="Times,serif" font-size="14.00">264_57</text>
</g>
<!-- 264_5x264_55&#45;&gt;264_57 -->
<g id="edge34" class="edge"><title>264_5x264_55&#45;&gt;264_57</title>
<path fill="none" stroke="black" d="M2971.31,-68.4338C2971.31,-63.6514 2971.31,-52.9811 2971.31,-42.6151"/>
<polygon fill="black" stroke="black" points="2974.81,-42.5799 2971.31,-32.58 2967.81,-42.58 2974.81,-42.5799"/>
</g>
<!-- 264_56 -->
<g id="node41" class="node"><title>264_56</title>
<polygon fill="#66cdaa" stroke="black" points="3086.81,-27.7635 3029.81,-27.7635 3029.81,-4.76346 3086.81,-4.76346 3086.81,-27.7635"/>
<text text-anchor="middle" x="3058.31" y="-12.5635" font-family="Times,serif" font-size="14.00">264_56</text>
</g>
<!-- 264_5x264_55&#45;&gt;264_56 -->
<g id="edge36" class="edge"><title>264_5x264_55&#45;&gt;264_56</title>
<path fill="none" stroke="black" d="M2973.12,-69.904C2980.67,-65.2388 3010.2,-46.9916 3032.39,-33.2795"/>
<polygon fill="black" stroke="black" points="3034.4,-36.1518 3041.06,-27.9175 3030.72,-30.1971 3034.4,-36.1518"/>
</g>
<!-- 264_99&#45;&gt;264_19x264_99 -->
<g id="edge21" class="edge"><title>264_99&#45;&gt;264_19x264_99</title>
<path fill="none" stroke="black" d="M2185.87,-112.099C2193.95,-102.656 2204.21,-90.6651 2211.22,-82.4735"/>
<polygon fill="black" stroke="black" points="2214.11,-84.4806 2217.95,-74.6068 2208.79,-79.9298 2214.11,-84.4806"/>
</g>
<!-- 264_51 -->
<g id="node29" class="node"><title>264_51</title>
<polygon fill="#66cdaa" stroke="black" points="1570.81,-362.344 1513.81,-362.344 1513.81,-339.344 1570.81,-339.344 1570.81,-362.344"/>
<text text-anchor="middle" x="1542.31" y="-347.144" font-family="Times,serif" font-size="14.00">264_51</text>
</g>
<!-- 264_51x264_52 -->
<g id="node30" class="node"><title>264_51x264_52</title>
<polygon fill="none" stroke="black" points="1585.31,-298.581 1581.81,-295.081 1585.31,-291.581 1588.81,-295.081 1585.31,-298.581"/>
</g>
<!-- 264_51&#45;&gt;264_51x264_52 -->
<g id="edge25" class="edge"><title>264_51&#45;&gt;264_51x264_52</title>
<path fill="none" stroke="black" d="M1550.8,-339.222C1558.63,-329.439 1570.13,-315.054 1577.67,-305.627"/>
<polygon fill="black" stroke="black" points="1580.58,-307.597 1584.09,-297.601 1575.11,-303.225 1580.58,-307.597"/>
</g>
<!-- 264_53 -->
<g id="node32" class="node"><title>264_53</title>
<polygon fill="#66cdaa" stroke="black" points="1533.81,-250.817 1476.81,-250.817 1476.81,-227.817 1533.81,-227.817 1533.81,-250.817"/>
<text text-anchor="middle" x="1505.31" y="-235.617" font-family="Times,serif" font-size="14.00">264_53</text>
</g>
<!-- 264_51x264_52&#45;&gt;264_53 -->
<g id="edge27" class="edge"><title>264_51x264_52&#45;&gt;264_53</title>
<path fill="none" stroke="black" d="M1583.63,-292.958C1576.75,-288.334 1550.02,-270.369 1529.68,-256.7"/>
<polygon fill="black" stroke="black" points="1531.41,-253.644 1521.16,-250.971 1527.51,-259.454 1531.41,-253.644"/>
</g>
<!-- 264_1 -->
<g id="node54" class="node"><title>264_1</title>
<polygon fill="#66cdaa" stroke="black" points="1691.31,-250.817 1641.31,-250.817 1641.31,-227.817 1691.31,-227.817 1691.31,-250.817"/>
<text text-anchor="middle" x="1666.31" y="-235.617" font-family="Times,serif" font-size="14.00">264_1</text>
</g>
<!-- 264_51x264_52&#45;&gt;264_1 -->
<g id="edge49" class="edge"><title>264_51x264_52&#45;&gt;264_1</title>
<path fill="none" stroke="black" d="M1587,-292.958C1593.99,-288.313 1621.27,-270.207 1641.9,-256.516"/>
<polygon fill="black" stroke="black" points="1643.86,-259.418 1650.25,-250.971 1639.99,-253.585 1643.86,-259.418"/>
</g>
<!-- 264_52 -->
<g id="node31" class="node"><title>264_52</title>
<ellipse fill="#66cdaa" stroke="black" cx="1629.31" cy="-350.844" rx="40.1111" ry="16.0303"/>
<text text-anchor="middle" x="1629.31" y="-347.144" font-family="Times,serif" font-size="14.00">264_52</text>
</g>
<!-- 264_52&#45;&gt;264_51x264_52 -->
<g id="edge26" class="edge"><title>264_52&#45;&gt;264_51x264_52</title>
<path fill="none" stroke="black" d="M1617.28,-335.153C1609.55,-325.709 1599.74,-313.719 1593.04,-305.527"/>
<polygon fill="black" stroke="black" points="1595.64,-303.183 1586.6,-297.661 1590.22,-307.616 1595.64,-303.183"/>
</g>
<!-- 264_53x264_54 -->
<g id="node33" class="node"><title>264_53x264_54</title>
<polygon fill="none" stroke="black" points="1240.31,-187.054 1236.81,-183.554 1240.31,-180.054 1243.81,-183.554 1240.31,-187.054"/>
</g>
<!-- 264_53&#45;&gt;264_53x264_54 -->
<g id="edge28" class="edge"><title>264_53&#45;&gt;264_53x264_54</title>
<path fill="none" stroke="black" d="M1476.69,-232.513C1419.22,-220.852 1291.85,-195.011 1252.28,-186.982"/>
<polygon fill="black" stroke="black" points="1252.94,-183.547 1242.45,-184.988 1251.55,-190.407 1252.94,-183.547"/>
</g>
<!-- 264_28 -->
<g id="node40" class="node"><title>264_28</title>
<ellipse fill="#66cdaa" stroke="black" cx="1195.31" cy="-127.79" rx="40.1111" ry="16.0303"/>
<text text-anchor="middle" x="1195.31" y="-124.09" font-family="Times,serif" font-size="14.00">264_28</text>
</g>
<!-- 264_53x264_54&#45;&gt;264_28 -->
<g id="edge35" class="edge"><title>264_53x264_54&#45;&gt;264_28</title>
<path fill="none" stroke="black" d="M1238.81,-180.765C1234.92,-176.117 1224.1,-163.196 1214.23,-151.401"/>
<polygon fill="black" stroke="black" points="1216.74,-148.952 1207.64,-143.53 1211.38,-153.445 1216.74,-148.952"/>
</g>
<!-- 264_54 -->
<g id="node34" class="node"><title>264_54</title>
<ellipse fill="#66cdaa" stroke="black" cx="1240.31" cy="-239.317" rx="40.1111" ry="16.0303"/>
<text text-anchor="middle" x="1240.31" y="-235.617" font-family="Times,serif" font-size="14.00">264_54</text>
</g>
<!-- 264_54&#45;&gt;264_53x264_54 -->
<g id="edge29" class="edge"><title>264_54&#45;&gt;264_53x264_54</title>
<path fill="none" stroke="black" d="M1240.31,-222.767C1240.31,-214.661 1240.31,-204.872 1240.31,-197.232"/>
<polygon fill="black" stroke="black" points="1243.81,-197.077 1240.31,-187.077 1236.81,-197.077 1243.81,-197.077"/>
</g>
<!-- 264_55 -->
<g id="node42" class="node"><title>264_55</title>
<ellipse fill="#66cdaa" stroke="black" cx="2678.31" cy="-127.79" rx="40.1111" ry="16.0303"/>
<text text-anchor="middle" x="2678.31" y="-124.09" font-family="Times,serif" font-size="14.00">264_55</text>
</g>
<!-- 264_55&#45;&gt;264_5x264_55 -->
<g id="edge37" class="edge"><title>264_55&#45;&gt;264_5x264_55</title>
<path fill="none" stroke="black" d="M2708.18,-116.729C2714.45,-114.83 2721.06,-112.985 2727.31,-111.527 2814.7,-91.1342 2922.26,-78.355 2958.62,-74.3688"/>
<polygon fill="black" stroke="black" points="2959.3,-77.8156 2968.87,-73.274 2958.56,-70.8551 2959.3,-77.8156"/>
</g>
<!-- 264_30 -->
<g id="node43" class="node"><title>264_30</title>
<ellipse fill="white" stroke="black" cx="1547.31" cy="-127.79" rx="40.1111" ry="16.0303"/>
<text text-anchor="middle" x="1547.31" y="-124.09" font-family="Times,serif" font-size="14.00">264_30</text>
</g>
<!-- 264_30&#45;&gt;264_6x264_30 -->
<g id="edge38" class="edge"><title>264_30&#45;&gt;264_6x264_30</title>
<path fill="none" stroke="black" d="M1547.31,-111.24C1547.31,-103.134 1547.31,-93.3455 1547.31,-85.7049"/>
<polygon fill="black" stroke="black" points="1550.81,-85.5501 1547.31,-75.5502 1543.81,-85.5502 1550.81,-85.5501"/>
</g>
<!-- 264_29 -->
<g id="node45" class="node"><title>264_29</title>
<polygon fill="#66cdaa" stroke="black" points="1399.81,-139.29 1342.81,-139.29 1342.81,-116.29 1399.81,-116.29 1399.81,-139.29"/>
<text text-anchor="middle" x="1371.31" y="-124.09" font-family="Times,serif" font-size="14.00">264_29</text>
</g>
<!-- 264_29&#45;&gt;264_29x264_9 -->
<g id="edge40" class="edge"><title>264_29&#45;&gt;264_29x264_9</title>
<path fill="none" stroke="black" d="M1371.31,-116.168C1371.31,-107.416 1371.31,-94.9805 1371.31,-85.7075"/>
<polygon fill="black" stroke="black" points="1374.81,-85.6655 1371.31,-75.6656 1367.81,-85.6656 1374.81,-85.6655"/>
</g>
<!-- 264_20 -->
<g id="node48" class="node"><title>264_20</title>
<polygon fill="#66cdaa" stroke="black" points="1993.81,-139.29 1936.81,-139.29 1936.81,-116.29 1993.81,-116.29 1993.81,-139.29"/>
<text text-anchor="middle" x="1965.31" y="-124.09" font-family="Times,serif" font-size="14.00">264_20</text>
</g>
<!-- 264_20&#45;&gt;264_20x264_3 -->
<g id="edge43" class="edge"><title>264_20&#45;&gt;264_20x264_3</title>
<path fill="none" stroke="black" d="M1949.1,-116.168C1932.61,-105.351 1907.52,-88.9054 1893.57,-79.7602"/>
<polygon fill="black" stroke="black" points="1895.43,-76.7941 1885.15,-74.238 1891.6,-82.6481 1895.43,-76.7941"/>
</g>
<!-- 264_19 -->
<g id="node50" class="node"><title>264_19</title>
<polygon fill="#66cdaa" stroke="black" points="2114.81,-139.29 2057.81,-139.29 2057.81,-116.29 2114.81,-116.29 2114.81,-139.29"/>
<text text-anchor="middle" x="2086.31" y="-124.09" font-family="Times,serif" font-size="14.00">264_19</text>
</g>
<!-- 264_19&#45;&gt;264_19x264_99 -->
<g id="edge45" class="edge"><title>264_19&#45;&gt;264_19x264_99</title>
<path fill="none" stroke="black" d="M2112.58,-116.168C2141.56,-104.456 2186.85,-86.1469 2207.87,-77.6484"/>
<polygon fill="black" stroke="black" points="2209.34,-80.8286 2217.3,-73.8359 2206.72,-74.3388 2209.34,-80.8286"/>
</g>
<!-- 264_1&#45;&gt;264_1x264_2 -->
<g id="edge50" class="edge"><title>264_1&#45;&gt;264_1x264_2</title>
<path fill="none" stroke="black" d="M1690.61,-227.695C1717.15,-216.093 1758.5,-198.017 1778.18,-189.417"/>
<polygon fill="black" stroke="black" points="1779.69,-192.575 1787.45,-185.363 1776.89,-186.161 1779.69,-192.575"/>
</g>
<!-- 264_2 -->
<g id="node59" class="node"><title>264_2</title>
<ellipse fill="#66cdaa" stroke="black" cx="1789.31" cy="-239.317" rx="35.2113" ry="16.0303"/>
<text text-anchor="middle" x="1789.31" y="-235.617" font-family="Times,serif" font-size="14.00">264_2</text>
</g>
<!-- 264_2&#45;&gt;264_1x264_2 -->
<g id="edge55" class="edge"><title>264_2&#45;&gt;264_1x264_2</title>
<path fill="none" stroke="black" d="M1789.31,-222.767C1789.31,-214.661 1789.31,-204.872 1789.31,-197.232"/>
<polygon fill="black" stroke="black" points="1792.81,-197.077 1789.31,-187.077 1785.81,-197.077 1792.81,-197.077"/>
</g>
<!-- 264_5&#45;&gt;264_5x264_55 -->
<g id="edge59" class="edge"><title>264_5&#45;&gt;264_5x264_55</title>
<path fill="none" stroke="black" d="M2276.74,-116.181C2281.11,-114.321 2285.78,-112.631 2290.31,-111.527 2423.94,-78.9346 2875.87,-73.7904 2958.33,-73.1176"/>
<polygon fill="black" stroke="black" points="2958.45,-76.617 2968.42,-73.0437 2958.4,-69.6172 2958.45,-76.617"/>
</g>
<!-- 264_4&#45;&gt;264_38x264_4 -->
<g id="edge69" class="edge"><title>264_4&#45;&gt;264_38x264_4</title>
<path fill="none" stroke="black" d="M1262.98,-116.545C1256.92,-114.561 1250.46,-112.728 1244.31,-111.527 1114.25,-86.1459 680.961,-75.1779 599.552,-73.3177"/>
<polygon fill="black" stroke="black" points="599.158,-69.8082 589.083,-73.0853 599.003,-76.8065 599.158,-69.8082"/>
</g>
</g>
</svg>
