<?xml version="1.0" encoding="UTF-8" standalone="no"?>
<!DOCTYPE svg PUBLIC "-//W3C//DTD SVG 1.1//EN"
 "http://www.w3.org/Graphics/SVG/1.1/DTD/svg11.dtd">
<!-- Generated by graphviz version 2.38.0 (20140413.2041)
 -->
<!-- Title: %3 Pages: 1 -->
<svg width="2141pt" height="598pt"
 viewBox="0.00 0.00 2140.61 598.16" xmlns="http://www.w3.org/2000/svg" xmlns:xlink="http://www.w3.org/1999/xlink">
<g id="graph0" class="graph" transform="scale(1 1) rotate(0) translate(4 594.161)">
<title>%3</title>
<polygon fill="white" stroke="none" points="-4,4 -4,-594.161 2136.61,-594.161 2136.61,4 -4,4"/>
<!-- 591_15 -->
<g id="node1" class="node"><title>591_15</title>
<polygon fill="#66cdaa" stroke="black" points="1196.81,-362.344 1139.81,-362.344 1139.81,-339.344 1196.81,-339.344 1196.81,-362.344"/>
<text text-anchor="middle" x="1168.31" y="-347.144" font-family="Times,serif" font-size="14.00">591_15</text>
</g>
<!-- 591_15x591_16 -->
<g id="node3" class="node"><title>591_15x591_16</title>
<polygon fill="none" stroke="black" points="1168.31,-298.581 1164.81,-295.081 1168.31,-291.581 1171.81,-295.081 1168.31,-298.581"/>
</g>
<!-- 591_15&#45;&gt;591_15x591_16 -->
<g id="edge2" class="edge"><title>591_15&#45;&gt;591_15x591_16</title>
<path fill="none" stroke="black" d="M1168.31,-339.222C1168.31,-330.47 1168.31,-318.034 1168.31,-308.761"/>
<polygon fill="black" stroke="black" points="1171.81,-308.719 1168.31,-298.719 1164.81,-308.719 1171.81,-308.719"/>
</g>
<!-- 591_42x591_44 -->
<g id="node2" class="node"><title>591_42x591_44</title>
<polygon fill="none" stroke="black" points="1168.31,-410.108 1164.81,-406.608 1168.31,-403.108 1171.81,-406.608 1168.31,-410.108"/>
</g>
<!-- 591_42x591_44&#45;&gt;591_15 -->
<g id="edge1" class="edge"><title>591_42x591_44&#45;&gt;591_15</title>
<path fill="none" stroke="black" d="M1168.31,-403.015C1168.31,-397.546 1168.31,-384.381 1168.31,-372.774"/>
<polygon fill="black" stroke="black" points="1171.81,-372.426 1168.31,-362.426 1164.81,-372.426 1171.81,-372.426"/>
</g>
<!-- 591_13 -->
<g id="node31" class="node"><title>591_13</title>
<ellipse fill="#66cdaa" stroke="black" cx="908.305" cy="-239.317" rx="40.1111" ry="16.0303"/>
<text text-anchor="middle" x="908.305" y="-235.617" font-family="Times,serif" font-size="14.00">591_13</text>
</g>
<!-- 591_15x591_16&#45;&gt;591_13 -->
<g id="edge28" class="edge"><title>591_15x591_16&#45;&gt;591_13</title>
<path fill="none" stroke="black" d="M1165.77,-293.738C1148.14,-291.326 1041.92,-276.396 957.305,-255.581 954.288,-254.838 951.183,-254.015 948.071,-253.147"/>
<polygon fill="black" stroke="black" points="948.783,-249.708 938.203,-250.263 946.819,-256.427 948.783,-249.708"/>
</g>
<!-- 591_14 -->
<g id="node36" class="node"><title>591_14</title>
<ellipse fill="#66cdaa" stroke="black" cx="1074.31" cy="-239.317" rx="40.1111" ry="16.0303"/>
<text text-anchor="middle" x="1074.31" y="-235.617" font-family="Times,serif" font-size="14.00">591_14</text>
</g>
<!-- 591_15x591_16&#45;&gt;591_14 -->
<g id="edge32" class="edge"><title>591_15x591_16&#45;&gt;591_14</title>
<path fill="none" stroke="black" d="M1166.67,-293.148C1159.41,-288.993 1129.32,-271.784 1105.43,-258.121"/>
<polygon fill="black" stroke="black" points="1107.06,-255.019 1096.64,-253.093 1103.58,-261.096 1107.06,-255.019"/>
</g>
<!-- 591_2 -->
<g id="node46" class="node"><title>591_2</title>
<ellipse fill="#66cdaa" stroke="black" cx="1168.31" cy="-239.317" rx="35.2113" ry="16.0303"/>
<text text-anchor="middle" x="1168.31" y="-235.617" font-family="Times,serif" font-size="14.00">591_2</text>
</g>
<!-- 591_15x591_16&#45;&gt;591_2 -->
<g id="edge41" class="edge"><title>591_15x591_16&#45;&gt;591_2</title>
<path fill="none" stroke="black" d="M1168.31,-291.488C1168.31,-286.705 1168.31,-276.035 1168.31,-265.669"/>
<polygon fill="black" stroke="black" points="1171.81,-265.634 1168.31,-255.634 1164.81,-265.634 1171.81,-265.634"/>
</g>
<!-- 591_10 -->
<g id="node59" class="node"><title>591_10</title>
<ellipse fill="#66cdaa" stroke="black" cx="1429.31" cy="-239.317" rx="40.1111" ry="16.0303"/>
<text text-anchor="middle" x="1429.31" y="-235.617" font-family="Times,serif" font-size="14.00">591_10</text>
</g>
<!-- 591_15x591_16&#45;&gt;591_10 -->
<g id="edge56" class="edge"><title>591_15x591_16&#45;&gt;591_10</title>
<path fill="none" stroke="black" d="M1170.69,-293.673C1187.32,-290.819 1287.52,-273.45 1368.31,-255.581 1374.18,-254.282 1380.35,-252.835 1386.42,-251.364"/>
<polygon fill="black" stroke="black" points="1387.59,-254.68 1396.46,-248.888 1385.91,-247.884 1387.59,-254.68"/>
</g>
<!-- 591_12 -->
<g id="node66" class="node"><title>591_12</title>
<ellipse fill="#66cdaa" stroke="black" cx="809.305" cy="-239.317" rx="40.1111" ry="16.0303"/>
<text text-anchor="middle" x="809.305" y="-235.617" font-family="Times,serif" font-size="14.00">591_12</text>
</g>
<!-- 591_15x591_16&#45;&gt;591_12 -->
<g id="edge66" class="edge"><title>591_15x591_16&#45;&gt;591_12</title>
<path fill="none" stroke="black" d="M1165.8,-293.935C1144.08,-292.631 985.14,-282.417 859.305,-255.581 855.918,-254.858 852.43,-254.012 848.946,-253.095"/>
<polygon fill="black" stroke="black" points="849.801,-249.7 839.227,-250.368 847.909,-256.44 849.801,-249.7"/>
</g>
<!-- 591_5 -->
<g id="node68" class="node"><title>591_5</title>
<polygon fill="#66cdaa" stroke="black" points="1271.31,-250.817 1221.31,-250.817 1221.31,-227.817 1271.31,-227.817 1271.31,-250.817"/>
<text text-anchor="middle" x="1246.31" y="-235.617" font-family="Times,serif" font-size="14.00">591_5</text>
</g>
<!-- 591_15x591_16&#45;&gt;591_5 -->
<g id="edge68" class="edge"><title>591_15x591_16&#45;&gt;591_5</title>
<path fill="none" stroke="black" d="M1169.93,-292.958C1176.64,-288.334 1202.71,-270.369 1222.54,-256.7"/>
<polygon fill="black" stroke="black" points="1224.6,-259.528 1230.85,-250.971 1220.63,-253.765 1224.6,-259.528"/>
</g>
<!-- 591_7 -->
<g id="node4" class="node"><title>591_7</title>
<polygon fill="#66cdaa" stroke="black" points="1966.31,-139.29 1916.31,-139.29 1916.31,-116.29 1966.31,-116.29 1966.31,-139.29"/>
<text text-anchor="middle" x="1941.31" y="-124.09" font-family="Times,serif" font-size="14.00">591_7</text>
</g>
<!-- 591_7x591_48 -->
<g id="node6" class="node"><title>591_7x591_48</title>
<polygon fill="none" stroke="black" points="2016.31,-75.5269 2012.81,-72.0269 2016.31,-68.5269 2019.81,-72.0269 2016.31,-75.5269"/>
</g>
<!-- 591_7&#45;&gt;591_7x591_48 -->
<g id="edge4" class="edge"><title>591_7&#45;&gt;591_7x591_48</title>
<path fill="none" stroke="black" d="M1956.12,-116.168C1970.91,-105.565 1993.25,-89.5545 2006.14,-80.312"/>
<polygon fill="black" stroke="black" points="2008.53,-82.9088 2014.62,-74.238 2004.45,-77.2196 2008.53,-82.9088"/>
</g>
<!-- 591_11x591_10 -->
<g id="node5" class="node"><title>591_11x591_10</title>
<polygon fill="none" stroke="black" points="1695.31,-187.054 1691.81,-183.554 1695.31,-180.054 1698.81,-183.554 1695.31,-187.054"/>
</g>
<!-- 591_11x591_10&#45;&gt;591_7 -->
<g id="edge3" class="edge"><title>591_11x591_10&#45;&gt;591_7</title>
<path fill="none" stroke="black" d="M1697.88,-182.324C1715.81,-180.679 1823.7,-169.989 1907.31,-144.054 1908.2,-143.777 1909.1,-143.483 1910,-143.174"/>
<polygon fill="black" stroke="black" points="1911.59,-146.311 1919.66,-139.442 1909.07,-139.782 1911.59,-146.311"/>
</g>
<!-- 591_33 -->
<g id="node29" class="node"><title>591_33</title>
<polygon fill="dimgrey" stroke="black" points="1559.81,-139.29 1502.81,-139.29 1502.81,-116.29 1559.81,-116.29 1559.81,-139.29"/>
<text text-anchor="middle" x="1531.31" y="-124.09" font-family="Times,serif" font-size="14.00">591_33</text>
</g>
<!-- 591_11x591_10&#45;&gt;591_33 -->
<g id="edge25" class="edge"><title>591_11x591_10&#45;&gt;591_33</title>
<path fill="none" stroke="black" d="M1693.21,-181.985C1681.09,-178.687 1618.92,-161.561 1569.31,-144.054 1568.43,-143.743 1567.54,-143.425 1566.64,-143.099"/>
<polygon fill="black" stroke="black" points="1567.54,-139.697 1556.95,-139.435 1565.06,-146.245 1567.54,-139.697"/>
</g>
<!-- 591_9 -->
<g id="node52" class="node"><title>591_9</title>
<ellipse fill="dimgrey" stroke="black" cx="1613.31" cy="-127.79" rx="35.2113" ry="16.0303"/>
<text text-anchor="middle" x="1613.31" y="-124.09" font-family="Times,serif" font-size="14.00">591_9</text>
</g>
<!-- 591_11x591_10&#45;&gt;591_9 -->
<g id="edge48" class="edge"><title>591_11x591_10&#45;&gt;591_9</title>
<path fill="none" stroke="black" d="M1693.59,-181.431C1686.87,-177.024 1661.66,-160.497 1641.26,-147.122"/>
<polygon fill="black" stroke="black" points="1643.17,-144.184 1632.88,-141.627 1639.33,-150.038 1643.17,-144.184"/>
</g>
<!-- 591_31 -->
<g id="node54" class="node"><title>591_31</title>
<polygon fill="dimgrey" stroke="black" points="1723.81,-139.29 1666.81,-139.29 1666.81,-116.29 1723.81,-116.29 1723.81,-139.29"/>
<text text-anchor="middle" x="1695.31" y="-124.09" font-family="Times,serif" font-size="14.00">591_31</text>
</g>
<!-- 591_11x591_10&#45;&gt;591_31 -->
<g id="edge50" class="edge"><title>591_11x591_10&#45;&gt;591_31</title>
<path fill="none" stroke="black" d="M1695.31,-179.961C1695.31,-174.493 1695.31,-161.327 1695.31,-149.721"/>
<polygon fill="black" stroke="black" points="1698.81,-149.372 1695.31,-139.372 1691.81,-149.372 1698.81,-149.372"/>
</g>
<!-- 591_32 -->
<g id="node57" class="node"><title>591_32</title>
<ellipse fill="dimgrey" stroke="black" cx="1782.31" cy="-127.79" rx="40.1111" ry="16.0303"/>
<text text-anchor="middle" x="1782.31" y="-124.09" font-family="Times,serif" font-size="14.00">591_32</text>
</g>
<!-- 591_11x591_10&#45;&gt;591_32 -->
<g id="edge53" class="edge"><title>591_11x591_10&#45;&gt;591_32</title>
<path fill="none" stroke="black" d="M1697.12,-181.431C1704.24,-177.031 1730.91,-160.548 1752.54,-147.184"/>
<polygon fill="black" stroke="black" points="1754.46,-150.112 1761.13,-141.878 1750.78,-144.158 1754.46,-150.112"/>
</g>
<!-- 591_47 -->
<g id="node60" class="node"><title>591_47</title>
<polygon fill="#66cdaa" stroke="black" points="1897.81,-139.29 1840.81,-139.29 1840.81,-116.29 1897.81,-116.29 1897.81,-139.29"/>
<text text-anchor="middle" x="1869.31" y="-124.09" font-family="Times,serif" font-size="14.00">591_47</text>
</g>
<!-- 591_11x591_10&#45;&gt;591_47 -->
<g id="edge58" class="edge"><title>591_11x591_10&#45;&gt;591_47</title>
<path fill="none" stroke="black" d="M1697.58,-182.007C1710.68,-178.834 1777.89,-162.284 1831.31,-144.054 1832.35,-143.698 1833.4,-143.329 1834.47,-142.95"/>
<polygon fill="black" stroke="black" points="1835.96,-146.13 1844.1,-139.349 1833.51,-139.573 1835.96,-146.13"/>
</g>
<!-- 591_8 -->
<g id="node61" class="node"><title>591_8</title>
<polygon fill="#66cdaa" stroke="black" points="2034.31,-139.29 1984.31,-139.29 1984.31,-116.29 2034.31,-116.29 2034.31,-139.29"/>
<text text-anchor="middle" x="2009.31" y="-124.09" font-family="Times,serif" font-size="14.00">591_8</text>
</g>
<!-- 591_11x591_10&#45;&gt;591_8 -->
<g id="edge59" class="edge"><title>591_11x591_10&#45;&gt;591_8</title>
<path fill="none" stroke="black" d="M1697.86,-182.479C1718.73,-181.81 1863.52,-176.114 1975.31,-144.054 1976.36,-143.751 1977.43,-143.42 1978.5,-143.068"/>
<polygon fill="black" stroke="black" points="1979.96,-146.256 1988.07,-139.433 1977.48,-139.712 1979.96,-146.256"/>
</g>
<!-- 591_DCH7.48 -->
<g id="node10" class="node"><title>591_DCH7.48</title>
<polygon fill="#66cdaa" stroke="black" points="2064.31,-27.7635 1968.31,-27.7635 1968.31,-4.76346 2064.31,-4.76346 2064.31,-27.7635"/>
<text text-anchor="middle" x="2016.31" y="-12.5635" font-family="Times,serif" font-size="14.00">591_DCH7.48</text>
</g>
<!-- 591_7x591_48&#45;&gt;591_DCH7.48 -->
<g id="edge7" class="edge"><title>591_7x591_48&#45;&gt;591_DCH7.48</title>
<path fill="none" stroke="black" d="M2016.31,-68.4338C2016.31,-62.9657 2016.31,-49.8005 2016.31,-38.1938"/>
<polygon fill="black" stroke="black" points="2019.81,-37.8452 2016.31,-27.8453 2012.81,-37.8453 2019.81,-37.8452"/>
</g>
<!-- 591_28 -->
<g id="node7" class="node"><title>591_28</title>
<polygon fill="#66cdaa" stroke="black" points="578.805,-27.7635 521.805,-27.7635 521.805,-4.76346 578.805,-4.76346 578.805,-27.7635"/>
<text text-anchor="middle" x="550.305" y="-12.5635" font-family="Times,serif" font-size="14.00">591_28</text>
</g>
<!-- 591_17x591_99 -->
<g id="node8" class="node"><title>591_17x591_99</title>
<polygon fill="none" stroke="black" points="594.305,-75.5269 590.805,-72.0269 594.305,-68.5269 597.805,-72.0269 594.305,-75.5269"/>
</g>
<!-- 591_17x591_99&#45;&gt;591_28 -->
<g id="edge5" class="edge"><title>591_17x591_99&#45;&gt;591_28</title>
<path fill="none" stroke="black" d="M592.841,-69.2381C588.584,-64.0368 575.851,-48.4782 565.417,-35.7288"/>
<polygon fill="black" stroke="black" points="568.047,-33.4155 559.005,-27.8934 562.629,-37.8489 568.047,-33.4155"/>
</g>
<!-- 591_27 -->
<g id="node9" class="node"><title>591_27</title>
<ellipse fill="#66cdaa" stroke="black" cx="637.305" cy="-16.2635" rx="40.1111" ry="16.0303"/>
<text text-anchor="middle" x="637.305" y="-12.5635" font-family="Times,serif" font-size="14.00">591_27</text>
</g>
<!-- 591_17x591_99&#45;&gt;591_27 -->
<g id="edge6" class="edge"><title>591_17x591_99&#45;&gt;591_27</title>
<path fill="none" stroke="black" d="M595.736,-69.2381C599.454,-64.5897 609.788,-51.6688 619.221,-39.8738"/>
<polygon fill="black" stroke="black" points="622.003,-41.999 625.516,-32.0034 616.537,-37.6268 622.003,-41.999"/>
</g>
<!-- 591_25 -->
<g id="node13" class="node"><title>591_25</title>
<polygon fill="white" stroke="black" points="752.805,-27.7635 695.805,-27.7635 695.805,-4.76346 752.805,-4.76346 752.805,-27.7635"/>
<text text-anchor="middle" x="724.305" y="-12.5635" font-family="Times,serif" font-size="14.00">591_25</text>
</g>
<!-- 591_17x591_99&#45;&gt;591_25 -->
<g id="edge10" class="edge"><title>591_17x591_99&#45;&gt;591_25</title>
<path fill="none" stroke="black" d="M596.143,-70.2669C606.157,-66.1254 654.957,-45.9436 689.357,-31.7168"/>
<polygon fill="black" stroke="black" points="690.73,-34.9365 698.633,-27.8804 688.055,-28.4678 690.73,-34.9365"/>
</g>
<!-- 591_24 -->
<g id="node14" class="node"><title>591_24</title>
<ellipse fill="white" stroke="black" cx="811.305" cy="-16.2635" rx="40.1111" ry="16.0303"/>
<text text-anchor="middle" x="811.305" y="-12.5635" font-family="Times,serif" font-size="14.00">591_24</text>
</g>
<!-- 591_17x591_99&#45;&gt;591_24 -->
<g id="edge11" class="edge"><title>591_17x591_99&#45;&gt;591_24</title>
<path fill="none" stroke="black" d="M596.675,-70.5456C611.647,-67.4918 694.622,-50.3682 761.305,-32.5269 764.461,-31.6824 767.719,-30.7736 770.986,-29.8352"/>
<polygon fill="black" stroke="black" points="772.125,-33.1486 780.729,-26.9664 770.148,-26.4337 772.125,-33.1486"/>
</g>
<!-- 591_23 -->
<g id="node15" class="node"><title>591_23</title>
<ellipse fill="white" stroke="black" cx="910.305" cy="-16.2635" rx="40.1111" ry="16.0303"/>
<text text-anchor="middle" x="910.305" y="-12.5635" font-family="Times,serif" font-size="14.00">591_23</text>
</g>
<!-- 591_17x591_99&#45;&gt;591_23 -->
<g id="edge12" class="edge"><title>591_17x591_99&#45;&gt;591_23</title>
<path fill="none" stroke="black" d="M596.954,-70.7987C617.452,-69.0014 752.838,-56.5599 860.305,-32.5269 863.685,-31.7711 867.168,-30.9016 870.648,-29.9689"/>
<polygon fill="black" stroke="black" points="871.695,-33.31 880.362,-27.2156 869.786,-26.5754 871.695,-33.31"/>
</g>
<!-- 591_22 -->
<g id="node16" class="node"><title>591_22</title>
<ellipse fill="white" stroke="black" cx="1009.31" cy="-16.2635" rx="40.1111" ry="16.0303"/>
<text text-anchor="middle" x="1009.31" y="-12.5635" font-family="Times,serif" font-size="14.00">591_22</text>
</g>
<!-- 591_17x591_99&#45;&gt;591_22 -->
<g id="edge13" class="edge"><title>591_17x591_99&#45;&gt;591_22</title>
<path fill="none" stroke="black" d="M596.946,-70.9417C621.352,-70.1153 810.072,-62.8848 959.305,-32.5269 962.745,-31.8272 966.286,-30.9907 969.82,-30.0745"/>
<polygon fill="black" stroke="black" points="970.975,-33.3858 979.669,-27.3294 969.096,-26.6428 970.975,-33.3858"/>
</g>
<!-- 591_21 -->
<g id="node17" class="node"><title>591_21</title>
<polygon fill="white" stroke="black" points="1124.81,-27.7635 1067.81,-27.7635 1067.81,-4.76346 1124.81,-4.76346 1124.81,-27.7635"/>
<text text-anchor="middle" x="1096.31" y="-12.5635" font-family="Times,serif" font-size="14.00">591_21</text>
</g>
<!-- 591_17x591_99&#45;&gt;591_21 -->
<g id="edge14" class="edge"><title>591_17x591_99&#45;&gt;591_21</title>
<path fill="none" stroke="black" d="M596.945,-71.1079C624.872,-71.9044 868.735,-77.3867 1058.31,-32.5269 1059.97,-32.133 1061.66,-31.6782 1063.35,-31.1776"/>
<polygon fill="black" stroke="black" points="1064.61,-34.4472 1072.94,-27.9124 1062.35,-27.8204 1064.61,-34.4472"/>
</g>
<!-- 591_20 -->
<g id="node18" class="node"><title>591_20</title>
<ellipse fill="#66cdaa" stroke="black" cx="40.3051" cy="-16.2635" rx="40.1111" ry="16.0303"/>
<text text-anchor="middle" x="40.3051" y="-12.5635" font-family="Times,serif" font-size="14.00">591_20</text>
</g>
<!-- 591_17x591_99&#45;&gt;591_20 -->
<g id="edge15" class="edge"><title>591_17x591_99&#45;&gt;591_20</title>
<path fill="none" stroke="black" d="M591.451,-71.056C561.25,-71.3136 297.437,-72.3458 89.3051,-32.5269 86.0671,-31.9074 82.7415,-31.1482 79.4212,-30.3025"/>
<polygon fill="black" stroke="black" points="80.142,-26.8701 69.5696,-27.5595 78.2644,-33.6136 80.142,-26.8701"/>
</g>
<!-- 591_18 -->
<g id="node19" class="node"><title>591_18</title>
<polygon fill="#66cdaa" stroke="black" points="155.805,-27.7635 98.8051,-27.7635 98.8051,-4.76346 155.805,-4.76346 155.805,-27.7635"/>
<text text-anchor="middle" x="127.305" y="-12.5635" font-family="Times,serif" font-size="14.00">591_18</text>
</g>
<!-- 591_17x591_99&#45;&gt;591_18 -->
<g id="edge16" class="edge"><title>591_17x591_99&#45;&gt;591_18</title>
<path fill="none" stroke="black" d="M591.523,-71.0962C564.074,-71.7157 339.021,-75.3341 164.305,-32.5269 162.829,-32.1652 161.335,-31.7538 159.836,-31.304"/>
<polygon fill="black" stroke="black" points="160.632,-27.875 150.037,-27.8942 158.331,-34.4862 160.632,-27.875"/>
</g>
<!-- 591_30 -->
<g id="node20" class="node"><title>591_30</title>
<polygon fill="#66cdaa" stroke="black" points="230.805,-27.7635 173.805,-27.7635 173.805,-4.76346 230.805,-4.76346 230.805,-27.7635"/>
<text text-anchor="middle" x="202.305" y="-12.5635" font-family="Times,serif" font-size="14.00">591_30</text>
</g>
<!-- 591_17x591_99&#45;&gt;591_30 -->
<g id="edge17" class="edge"><title>591_17x591_99&#45;&gt;591_30</title>
<path fill="none" stroke="black" d="M591.725,-71.0145C567.887,-70.8458 383.639,-68.3848 240.305,-32.5269 238.646,-32.1117 236.962,-31.6398 235.274,-31.1253"/>
<polygon fill="black" stroke="black" points="236.284,-27.7713 225.689,-27.8146 233.999,-34.3877 236.284,-27.7713"/>
</g>
<!-- 591_26 -->
<g id="node22" class="node"><title>591_26</title>
<ellipse fill="white" stroke="black" cx="289.305" cy="-16.2635" rx="40.1111" ry="16.0303"/>
<text text-anchor="middle" x="289.305" y="-12.5635" font-family="Times,serif" font-size="14.00">591_26</text>
</g>
<!-- 591_17x591_99&#45;&gt;591_26 -->
<g id="edge19" class="edge"><title>591_17x591_99&#45;&gt;591_26</title>
<path fill="none" stroke="black" d="M591.766,-70.7867C572.119,-68.8986 442.35,-55.9018 339.305,-32.5269 335.928,-31.7608 332.447,-30.884 328.967,-29.9465"/>
<polygon fill="black" stroke="black" points="329.831,-26.5535 319.255,-27.1852 327.917,-33.2867 329.831,-26.5535"/>
</g>
<!-- 591_29 -->
<g id="node39" class="node"><title>591_29</title>
<ellipse fill="#66cdaa" stroke="black" cx="388.305" cy="-16.2635" rx="40.1111" ry="16.0303"/>
<text text-anchor="middle" x="388.305" y="-12.5635" font-family="Times,serif" font-size="14.00">591_29</text>
</g>
<!-- 591_17x591_99&#45;&gt;591_29 -->
<g id="edge35" class="edge"><title>591_17x591_99&#45;&gt;591_29</title>
<path fill="none" stroke="black" d="M592.078,-70.5352C578.009,-67.4172 500.035,-49.9706 437.305,-32.5269 434.394,-31.7175 431.395,-30.8548 428.382,-29.967"/>
<polygon fill="black" stroke="black" points="429.386,-26.6141 418.801,-27.081 427.367,-33.3166 429.386,-26.6141"/>
</g>
<!-- 591_19 -->
<g id="node53" class="node"><title>591_19</title>
<polygon fill="white" stroke="black" points="503.805,-27.7635 446.805,-27.7635 446.805,-4.76346 503.805,-4.76346 503.805,-27.7635"/>
<text text-anchor="middle" x="475.305" y="-12.5635" font-family="Times,serif" font-size="14.00">591_19</text>
</g>
<!-- 591_17x591_99&#45;&gt;591_19 -->
<g id="edge49" class="edge"><title>591_17x591_99&#45;&gt;591_19</title>
<path fill="none" stroke="black" d="M592.24,-70.0937C582.338,-65.6204 538.935,-46.0112 507.901,-31.9902"/>
<polygon fill="black" stroke="black" points="509.272,-28.769 498.718,-27.8413 506.39,-35.1481 509.272,-28.769"/>
</g>
<!-- 591_16 -->
<g id="node11" class="node"><title>591_16</title>
<ellipse fill="#66cdaa" stroke="black" cx="1255.31" cy="-350.844" rx="40.1111" ry="16.0303"/>
<text text-anchor="middle" x="1255.31" y="-347.144" font-family="Times,serif" font-size="14.00">591_16</text>
</g>
<!-- 591_16&#45;&gt;591_15x591_16 -->
<g id="edge9" class="edge"><title>591_16&#45;&gt;591_15x591_16</title>
<path fill="none" stroke="black" d="M1234.24,-336.83C1216.64,-325.953 1192.29,-310.905 1178.65,-302.471"/>
<polygon fill="black" stroke="black" points="1180.43,-299.459 1170.08,-297.179 1176.75,-305.413 1180.43,-299.459"/>
</g>
<!-- 591_41x591_43 -->
<g id="node12" class="node"><title>591_41x591_43</title>
<polygon fill="none" stroke="black" points="1429.31,-410.108 1425.81,-406.608 1429.31,-403.108 1432.81,-406.608 1429.31,-410.108"/>
</g>
<!-- 591_41x591_43&#45;&gt;591_16 -->
<g id="edge8" class="edge"><title>591_41x591_43&#45;&gt;591_16</title>
<path fill="none" stroke="black" d="M1427.35,-405.004C1414.63,-401.073 1342.63,-378.827 1295.9,-364.386"/>
<polygon fill="black" stroke="black" points="1296.93,-361.041 1286.34,-361.433 1294.86,-367.729 1296.93,-361.041"/>
</g>
<!-- 591_37 -->
<g id="node25" class="node"><title>591_37</title>
<polygon fill="#66cdaa" stroke="black" points="1544.81,-362.344 1487.81,-362.344 1487.81,-339.344 1544.81,-339.344 1544.81,-362.344"/>
<text text-anchor="middle" x="1516.31" y="-347.144" font-family="Times,serif" font-size="14.00">591_37</text>
</g>
<!-- 591_41x591_43&#45;&gt;591_37 -->
<g id="edge22" class="edge"><title>591_41x591_43&#45;&gt;591_37</title>
<path fill="none" stroke="black" d="M1431.12,-404.485C1438.67,-399.82 1468.2,-381.572 1490.39,-367.86"/>
<polygon fill="black" stroke="black" points="1492.4,-370.733 1499.06,-362.498 1488.72,-364.778 1492.4,-370.733"/>
</g>
<!-- 591_39 -->
<g id="node30" class="node"><title>591_39</title>
<ellipse fill="#66cdaa" stroke="black" cx="1429.31" cy="-350.844" rx="40.1111" ry="16.0303"/>
<text text-anchor="middle" x="1429.31" y="-347.144" font-family="Times,serif" font-size="14.00">591_39</text>
</g>
<!-- 591_41x591_43&#45;&gt;591_39 -->
<g id="edge26" class="edge"><title>591_41x591_43&#45;&gt;591_39</title>
<path fill="none" stroke="black" d="M1429.31,-403.015C1429.31,-398.232 1429.31,-387.562 1429.31,-377.196"/>
<polygon fill="black" stroke="black" points="1432.81,-377.161 1429.31,-367.161 1425.81,-377.161 1432.81,-377.161"/>
</g>
<!-- 591_17 -->
<g id="node21" class="node"><title>591_17</title>
<polygon fill="#66cdaa" stroke="black" points="709.805,-139.29 652.805,-139.29 652.805,-116.29 709.805,-116.29 709.805,-139.29"/>
<text text-anchor="middle" x="681.305" y="-124.09" font-family="Times,serif" font-size="14.00">591_17</text>
</g>
<!-- 591_17&#45;&gt;591_17x591_99 -->
<g id="edge18" class="edge"><title>591_17&#45;&gt;591_17x591_99</title>
<path fill="none" stroke="black" d="M664.117,-116.168C646.611,-105.351 620,-88.9054 605.201,-79.7602"/>
<polygon fill="black" stroke="black" points="606.612,-76.5176 596.265,-74.238 602.932,-82.4723 606.612,-76.5176"/>
</g>
<!-- 591_41 -->
<g id="node23" class="node"><title>591_41</title>
<polygon fill="#66cdaa" stroke="black" points="1370.81,-473.871 1313.81,-473.871 1313.81,-450.871 1370.81,-450.871 1370.81,-473.871"/>
<text text-anchor="middle" x="1342.31" y="-458.671" font-family="Times,serif" font-size="14.00">591_41</text>
</g>
<!-- 591_41&#45;&gt;591_41x591_43 -->
<g id="edge21" class="edge"><title>591_41&#45;&gt;591_41x591_43</title>
<path fill="none" stroke="black" d="M1359.49,-450.749C1377,-439.931 1403.61,-423.486 1418.41,-414.341"/>
<polygon fill="black" stroke="black" points="1420.68,-417.053 1427.35,-408.819 1417,-411.098 1420.68,-417.053"/>
</g>
<!-- 591_45x591_46 -->
<g id="node24" class="node"><title>591_45x591_46</title>
<polygon fill="none" stroke="black" points="1255.31,-521.635 1251.81,-518.135 1255.31,-514.635 1258.81,-518.135 1255.31,-521.635"/>
</g>
<!-- 591_45x591_46&#45;&gt;591_41 -->
<g id="edge20" class="edge"><title>591_45x591_46&#45;&gt;591_41</title>
<path fill="none" stroke="black" d="M1257.12,-516.012C1264.67,-511.346 1294.2,-493.099 1316.39,-479.387"/>
<polygon fill="black" stroke="black" points="1318.4,-482.259 1325.06,-474.025 1314.72,-476.305 1318.4,-482.259"/>
</g>
<!-- 591_42 -->
<g id="node49" class="node"><title>591_42</title>
<polygon fill="#66cdaa" stroke="black" points="1196.81,-473.871 1139.81,-473.871 1139.81,-450.871 1196.81,-450.871 1196.81,-473.871"/>
<text text-anchor="middle" x="1168.31" y="-458.671" font-family="Times,serif" font-size="14.00">591_42</text>
</g>
<!-- 591_45x591_46&#45;&gt;591_42 -->
<g id="edge44" class="edge"><title>591_45x591_46&#45;&gt;591_42</title>
<path fill="none" stroke="black" d="M1253.49,-516.012C1245.94,-511.346 1216.41,-493.099 1194.22,-479.387"/>
<polygon fill="black" stroke="black" points="1195.89,-476.305 1185.55,-474.025 1192.21,-482.259 1195.89,-476.305"/>
</g>
<!-- 591_37x591_38 -->
<g id="node26" class="node"><title>591_37x591_38</title>
<polygon fill="none" stroke="black" points="1600.31,-298.581 1596.81,-295.081 1600.31,-291.581 1603.81,-295.081 1600.31,-298.581"/>
</g>
<!-- 591_37&#45;&gt;591_37x591_38 -->
<g id="edge23" class="edge"><title>591_37&#45;&gt;591_37x591_38</title>
<path fill="none" stroke="black" d="M1532.9,-339.222C1549.8,-328.404 1575.5,-311.959 1589.78,-302.814"/>
<polygon fill="black" stroke="black" points="1591.88,-305.631 1598.41,-297.292 1588.1,-299.735 1591.88,-305.631"/>
</g>
<!-- 591_36 -->
<g id="node37" class="node"><title>591_36</title>
<polygon fill="#66cdaa" stroke="black" points="1628.81,-250.817 1571.81,-250.817 1571.81,-227.817 1628.81,-227.817 1628.81,-250.817"/>
<text text-anchor="middle" x="1600.31" y="-235.617" font-family="Times,serif" font-size="14.00">591_36</text>
</g>
<!-- 591_37x591_38&#45;&gt;591_36 -->
<g id="edge33" class="edge"><title>591_37x591_38&#45;&gt;591_36</title>
<path fill="none" stroke="black" d="M1600.31,-291.488C1600.31,-286.02 1600.31,-272.854 1600.31,-261.248"/>
<polygon fill="black" stroke="black" points="1603.81,-260.899 1600.31,-250.899 1596.81,-260.899 1603.81,-260.899"/>
</g>
<!-- 591_40 -->
<g id="node27" class="node"><title>591_40</title>
<polygon fill="#66cdaa" stroke="black" points="1370.81,-362.344 1313.81,-362.344 1313.81,-339.344 1370.81,-339.344 1370.81,-362.344"/>
<text text-anchor="middle" x="1342.31" y="-347.144" font-family="Times,serif" font-size="14.00">591_40</text>
</g>
<!-- 591_40x591_39 -->
<g id="node28" class="node"><title>591_40x591_39</title>
<polygon fill="none" stroke="black" points="1429.31,-298.581 1425.81,-295.081 1429.31,-291.581 1432.81,-295.081 1429.31,-298.581"/>
</g>
<!-- 591_40&#45;&gt;591_40x591_39 -->
<g id="edge24" class="edge"><title>591_40&#45;&gt;591_40x591_39</title>
<path fill="none" stroke="black" d="M1359.49,-339.222C1377,-328.404 1403.61,-311.959 1418.41,-302.814"/>
<polygon fill="black" stroke="black" points="1420.68,-305.526 1427.35,-297.292 1417,-299.571 1420.68,-305.526"/>
</g>
<!-- 591_11 -->
<g id="node63" class="node"><title>591_11</title>
<polygon fill="#66cdaa" stroke="black" points="1550.81,-250.817 1493.81,-250.817 1493.81,-227.817 1550.81,-227.817 1550.81,-250.817"/>
<text text-anchor="middle" x="1522.31" y="-235.617" font-family="Times,serif" font-size="14.00">591_11</text>
</g>
<!-- 591_40x591_39&#45;&gt;591_11 -->
<g id="edge62" class="edge"><title>591_40x591_39&#45;&gt;591_11</title>
<path fill="none" stroke="black" d="M1430.92,-293.148C1438.49,-288.771 1471.13,-269.903 1495.25,-255.958"/>
<polygon fill="black" stroke="black" points="1497.1,-258.93 1504.01,-250.895 1493.6,-252.87 1497.1,-258.93"/>
</g>
<!-- 591_39&#45;&gt;591_40x591_39 -->
<g id="edge27" class="edge"><title>591_39&#45;&gt;591_40x591_39</title>
<path fill="none" stroke="black" d="M1429.31,-334.294C1429.31,-326.188 1429.31,-316.399 1429.31,-308.759"/>
<polygon fill="black" stroke="black" points="1432.81,-308.604 1429.31,-298.604 1425.81,-308.604 1432.81,-308.604"/>
</g>
<!-- 591_56 -->
<g id="node32" class="node"><title>591_56</title>
<polygon fill="#66cdaa" stroke="black" points="1598.81,-27.7635 1541.81,-27.7635 1541.81,-4.76346 1598.81,-4.76346 1598.81,-27.7635"/>
<text text-anchor="middle" x="1570.31" y="-12.5635" font-family="Times,serif" font-size="14.00">591_56</text>
</g>
<!-- 591_3x591_50 -->
<g id="node33" class="node"><title>591_3x591_50</title>
<polygon fill="none" stroke="black" points="1345.31,-75.5269 1341.81,-72.0269 1345.31,-68.5269 1348.81,-72.0269 1345.31,-75.5269"/>
</g>
<!-- 591_3x591_50&#45;&gt;591_56 -->
<g id="edge29" class="edge"><title>591_3x591_50&#45;&gt;591_56</title>
<path fill="none" stroke="black" d="M1347.58,-70.7277C1363.41,-68.6106 1458.75,-55.3143 1533.31,-32.5269 1534.54,-32.1499 1535.79,-31.7473 1537.04,-31.3248"/>
<polygon fill="black" stroke="black" points="1538.48,-34.5249 1546.66,-27.7912 1536.07,-27.9543 1538.48,-34.5249"/>
</g>
<!-- 591_55 -->
<g id="node34" class="node"><title>591_55</title>
<ellipse fill="#66cdaa" stroke="black" cx="1183.31" cy="-16.2635" rx="40.1111" ry="16.0303"/>
<text text-anchor="middle" x="1183.31" y="-12.5635" font-family="Times,serif" font-size="14.00">591_55</text>
</g>
<!-- 591_3x591_50&#45;&gt;591_55 -->
<g id="edge30" class="edge"><title>591_3x591_50&#45;&gt;591_55</title>
<path fill="none" stroke="black" d="M1343.26,-70.3471C1330.99,-66.2761 1266.33,-44.8176 1223.07,-30.4607"/>
<polygon fill="black" stroke="black" points="1223.98,-27.0745 1213.39,-27.2465 1221.77,-33.7182 1223.98,-27.0745"/>
</g>
<!-- 591_54 -->
<g id="node35" class="node"><title>591_54</title>
<polygon fill="#66cdaa" stroke="black" points="1298.81,-27.7635 1241.81,-27.7635 1241.81,-4.76346 1298.81,-4.76346 1298.81,-27.7635"/>
<text text-anchor="middle" x="1270.31" y="-12.5635" font-family="Times,serif" font-size="14.00">591_54</text>
</g>
<!-- 591_3x591_50&#45;&gt;591_54 -->
<g id="edge31" class="edge"><title>591_3x591_50&#45;&gt;591_54</title>
<path fill="none" stroke="black" d="M1343.74,-69.904C1337.32,-65.301 1312.45,-47.4758 1293.42,-33.8304"/>
<polygon fill="black" stroke="black" points="1295.33,-30.8991 1285.17,-27.9175 1291.26,-36.5883 1295.33,-30.8991"/>
</g>
<!-- 591_53 -->
<g id="node40" class="node"><title>591_53</title>
<polygon fill="#66cdaa" stroke="black" points="1373.81,-27.7635 1316.81,-27.7635 1316.81,-4.76346 1373.81,-4.76346 1373.81,-27.7635"/>
<text text-anchor="middle" x="1345.31" y="-12.5635" font-family="Times,serif" font-size="14.00">591_53</text>
</g>
<!-- 591_3x591_50&#45;&gt;591_53 -->
<g id="edge36" class="edge"><title>591_3x591_50&#45;&gt;591_53</title>
<path fill="none" stroke="black" d="M1345.31,-68.4338C1345.31,-62.9657 1345.31,-49.8005 1345.31,-38.1938"/>
<polygon fill="black" stroke="black" points="1348.81,-37.8452 1345.31,-27.8453 1341.81,-37.8453 1348.81,-37.8452"/>
</g>
<!-- 591_51 -->
<g id="node43" class="node"><title>591_51</title>
<polygon fill="#66cdaa" stroke="black" points="1448.81,-27.7635 1391.81,-27.7635 1391.81,-4.76346 1448.81,-4.76346 1448.81,-27.7635"/>
<text text-anchor="middle" x="1420.31" y="-12.5635" font-family="Times,serif" font-size="14.00">591_51</text>
</g>
<!-- 591_3x591_50&#45;&gt;591_51 -->
<g id="edge39" class="edge"><title>591_3x591_50&#45;&gt;591_51</title>
<path fill="none" stroke="black" d="M1346.87,-69.904C1353.29,-65.301 1378.16,-47.4758 1397.19,-33.8304"/>
<polygon fill="black" stroke="black" points="1399.35,-36.5883 1405.44,-27.9175 1395.28,-30.8991 1399.35,-36.5883"/>
</g>
<!-- 591_52 -->
<g id="node50" class="node"><title>591_52</title>
<polygon fill="#66cdaa" stroke="black" points="1523.81,-27.7635 1466.81,-27.7635 1466.81,-4.76346 1523.81,-4.76346 1523.81,-27.7635"/>
<text text-anchor="middle" x="1495.31" y="-12.5635" font-family="Times,serif" font-size="14.00">591_52</text>
</g>
<!-- 591_3x591_50&#45;&gt;591_52 -->
<g id="edge46" class="edge"><title>591_3x591_50&#45;&gt;591_52</title>
<path fill="none" stroke="black" d="M1347.48,-70.3431C1359,-66.7052 1414.08,-49.1651 1458.31,-32.5269 1459.16,-32.2058 1460.02,-31.8775 1460.89,-31.5435"/>
<polygon fill="black" stroke="black" points="1462.3,-34.7518 1470.31,-27.8231 1459.73,-28.2412 1462.3,-34.7518"/>
</g>
<!-- 591_45 -->
<g id="node38" class="node"><title>591_45</title>
<polygon fill="#66cdaa" stroke="black" points="1240.81,-585.398 1183.81,-585.398 1183.81,-562.398 1240.81,-562.398 1240.81,-585.398"/>
<text text-anchor="middle" x="1212.31" y="-570.198" font-family="Times,serif" font-size="14.00">591_45</text>
</g>
<!-- 591_45&#45;&gt;591_45x591_46 -->
<g id="edge34" class="edge"><title>591_45&#45;&gt;591_45x591_46</title>
<path fill="none" stroke="black" d="M1220.8,-562.276C1228.63,-552.493 1240.13,-538.108 1247.67,-528.681"/>
<polygon fill="black" stroke="black" points="1250.58,-530.651 1254.09,-520.655 1245.11,-526.279 1250.58,-530.651"/>
</g>
<!-- 591_46 -->
<g id="node41" class="node"><title>591_46</title>
<ellipse fill="#66cdaa" stroke="black" cx="1299.31" cy="-573.898" rx="40.1111" ry="16.0303"/>
<text text-anchor="middle" x="1299.31" y="-570.198" font-family="Times,serif" font-size="14.00">591_46</text>
</g>
<!-- 591_46&#45;&gt;591_45x591_46 -->
<g id="edge37" class="edge"><title>591_46&#45;&gt;591_45x591_46</title>
<path fill="none" stroke="black" d="M1287.28,-558.207C1279.55,-548.763 1269.74,-536.773 1263.04,-528.581"/>
<polygon fill="black" stroke="black" points="1265.64,-526.237 1256.6,-520.714 1260.22,-530.67 1265.64,-526.237"/>
</g>
<!-- 591_50 -->
<g id="node42" class="node"><title>591_50</title>
<ellipse fill="#66cdaa" stroke="black" cx="1345.31" cy="-127.79" rx="40.1111" ry="16.0303"/>
<text text-anchor="middle" x="1345.31" y="-124.09" font-family="Times,serif" font-size="14.00">591_50</text>
</g>
<!-- 591_50&#45;&gt;591_3x591_50 -->
<g id="edge38" class="edge"><title>591_50&#45;&gt;591_3x591_50</title>
<path fill="none" stroke="black" d="M1345.31,-111.24C1345.31,-103.134 1345.31,-93.3455 1345.31,-85.7049"/>
<polygon fill="black" stroke="black" points="1348.81,-85.5501 1345.31,-75.5502 1341.81,-85.5502 1348.81,-85.5501"/>
</g>
<!-- 591_1 -->
<g id="node44" class="node"><title>591_1</title>
<polygon fill="#66cdaa" stroke="black" points="1016.31,-250.817 966.305,-250.817 966.305,-227.817 1016.31,-227.817 1016.31,-250.817"/>
<text text-anchor="middle" x="991.305" y="-235.617" font-family="Times,serif" font-size="14.00">591_1</text>
</g>
<!-- 591_1x591_2 -->
<g id="node45" class="node"><title>591_1x591_2</title>
<polygon fill="none" stroke="black" points="991.305,-187.054 987.805,-183.554 991.305,-180.054 994.805,-183.554 991.305,-187.054"/>
</g>
<!-- 591_1&#45;&gt;591_1x591_2 -->
<g id="edge40" class="edge"><title>591_1&#45;&gt;591_1x591_2</title>
<path fill="none" stroke="black" d="M991.305,-227.695C991.305,-218.943 991.305,-206.507 991.305,-197.234"/>
<polygon fill="black" stroke="black" points="994.805,-197.192 991.305,-187.192 987.805,-197.193 994.805,-197.192"/>
</g>
<!-- 591_99 -->
<g id="node58" class="node"><title>591_99</title>
<ellipse fill="dimgrey" stroke="black" cx="594.305" cy="-127.79" rx="40.1111" ry="16.0303"/>
<text text-anchor="middle" x="594.305" y="-124.09" font-family="Times,serif" font-size="14.00">591_99</text>
</g>
<!-- 591_1x591_2&#45;&gt;591_99 -->
<g id="edge54" class="edge"><title>591_1x591_2&#45;&gt;591_99</title>
<path fill="none" stroke="black" d="M988.786,-182.46C965.507,-181.558 785.508,-173.781 643.305,-144.054 640.122,-143.388 636.85,-142.602 633.58,-141.744"/>
<polygon fill="black" stroke="black" points="634.439,-138.35 623.864,-138.998 632.535,-145.086 634.439,-138.35"/>
</g>
<!-- 591_2&#45;&gt;591_1x591_2 -->
<g id="edge42" class="edge"><title>591_2&#45;&gt;591_1x591_2</title>
<path fill="none" stroke="black" d="M1140.76,-228.765C1135.01,-226.828 1128.97,-224.84 1123.31,-223.054 1079.33,-209.189 1026.56,-194.328 1003.31,-187.868"/>
<polygon fill="black" stroke="black" points="1004.06,-184.445 993.493,-185.154 1002.2,-191.192 1004.06,-184.445"/>
</g>
<!-- 591_4 -->
<g id="node47" class="node"><title>591_4</title>
<ellipse fill="dimgrey" stroke="black" cx="1085.31" cy="-127.79" rx="35.2113" ry="16.0303"/>
<text text-anchor="middle" x="1085.31" y="-124.09" font-family="Times,serif" font-size="14.00">591_4</text>
</g>
<!-- 591_5x591_6 -->
<g id="node48" class="node"><title>591_5x591_6</title>
<polygon fill="none" stroke="black" points="1246.31,-187.054 1242.81,-183.554 1246.31,-180.054 1249.81,-183.554 1246.31,-187.054"/>
</g>
<!-- 591_5x591_6&#45;&gt;591_4 -->
<g id="edge43" class="edge"><title>591_5x591_6&#45;&gt;591_4</title>
<path fill="none" stroke="black" d="M1244.37,-181.93C1233.21,-178.329 1175.9,-159.801 1129.31,-144.054 1127.04,-143.289 1124.72,-142.498 1122.37,-141.697"/>
<polygon fill="black" stroke="black" points="1123.34,-138.327 1112.74,-138.385 1121.06,-144.947 1123.34,-138.327"/>
</g>
<!-- 591_34 -->
<g id="node51" class="node"><title>591_34</title>
<ellipse fill="dimgrey" stroke="black" cx="1246.31" cy="-127.79" rx="40.1111" ry="16.0303"/>
<text text-anchor="middle" x="1246.31" y="-124.09" font-family="Times,serif" font-size="14.00">591_34</text>
</g>
<!-- 591_5x591_6&#45;&gt;591_34 -->
<g id="edge47" class="edge"><title>591_5x591_6&#45;&gt;591_34</title>
<path fill="none" stroke="black" d="M1246.31,-179.961C1246.31,-175.178 1246.31,-164.508 1246.31,-154.142"/>
<polygon fill="black" stroke="black" points="1249.81,-154.107 1246.31,-144.107 1242.81,-154.107 1249.81,-154.107"/>
</g>
<!-- 591_3 -->
<g id="node62" class="node"><title>591_3</title>
<polygon fill="#66cdaa" stroke="black" points="1188.31,-139.29 1138.31,-139.29 1138.31,-116.29 1188.31,-116.29 1188.31,-139.29"/>
<text text-anchor="middle" x="1163.31" y="-124.09" font-family="Times,serif" font-size="14.00">591_3</text>
</g>
<!-- 591_5x591_6&#45;&gt;591_3 -->
<g id="edge60" class="edge"><title>591_5x591_6&#45;&gt;591_3</title>
<path fill="none" stroke="black" d="M1244.57,-181.431C1237.4,-176.786 1209.45,-158.68 1188.31,-144.99"/>
<polygon fill="black" stroke="black" points="1190.05,-141.944 1179.75,-139.444 1186.24,-147.819 1190.05,-141.944"/>
</g>
<!-- 591_35 -->
<g id="node65" class="node"><title>591_35</title>
<ellipse fill="white" stroke="black" cx="1444.31" cy="-127.79" rx="40.1111" ry="16.0303"/>
<text text-anchor="middle" x="1444.31" y="-124.09" font-family="Times,serif" font-size="14.00">591_35</text>
</g>
<!-- 591_5x591_6&#45;&gt;591_35 -->
<g id="edge65" class="edge"><title>591_5x591_6&#45;&gt;591_35</title>
<path fill="none" stroke="black" d="M1248.4,-182.044C1261.64,-178.814 1335.03,-160.803 1394.31,-144.054 1397.41,-143.178 1400.61,-142.251 1403.82,-141.305"/>
<polygon fill="black" stroke="black" points="1404.84,-144.653 1413.43,-138.438 1402.84,-137.945 1404.84,-144.653"/>
</g>
<!-- 591_42&#45;&gt;591_42x591_44 -->
<g id="edge45" class="edge"><title>591_42&#45;&gt;591_42x591_44</title>
<path fill="none" stroke="black" d="M1168.31,-450.749C1168.31,-441.997 1168.31,-429.561 1168.31,-420.288"/>
<polygon fill="black" stroke="black" points="1171.81,-420.246 1168.31,-410.246 1164.81,-420.246 1171.81,-420.246"/>
</g>
<!-- 591_43 -->
<g id="node55" class="node"><title>591_43</title>
<ellipse fill="#66cdaa" stroke="black" cx="1429.31" cy="-462.371" rx="40.1111" ry="16.0303"/>
<text text-anchor="middle" x="1429.31" y="-458.671" font-family="Times,serif" font-size="14.00">591_43</text>
</g>
<!-- 591_43&#45;&gt;591_41x591_43 -->
<g id="edge51" class="edge"><title>591_43&#45;&gt;591_41x591_43</title>
<path fill="none" stroke="black" d="M1429.31,-445.82C1429.31,-437.715 1429.31,-427.926 1429.31,-420.286"/>
<polygon fill="black" stroke="black" points="1432.81,-420.131 1429.31,-410.131 1425.81,-420.131 1432.81,-420.131"/>
</g>
<!-- 591_48 -->
<g id="node56" class="node"><title>591_48</title>
<ellipse fill="#66cdaa" stroke="black" cx="2092.31" cy="-127.79" rx="40.1111" ry="16.0303"/>
<text text-anchor="middle" x="2092.31" y="-124.09" font-family="Times,serif" font-size="14.00">591_48</text>
</g>
<!-- 591_48&#45;&gt;591_7x591_48 -->
<g id="edge52" class="edge"><title>591_48&#45;&gt;591_7x591_48</title>
<path fill="none" stroke="black" d="M2073.13,-113.224C2058.2,-102.663 2038.08,-88.4335 2026.22,-80.0443"/>
<polygon fill="black" stroke="black" points="2028.01,-77.0187 2017.82,-74.1009 2023.97,-82.7334 2028.01,-77.0187"/>
</g>
<!-- 591_99&#45;&gt;591_17x591_99 -->
<g id="edge55" class="edge"><title>591_99&#45;&gt;591_17x591_99</title>
<path fill="none" stroke="black" d="M594.305,-111.24C594.305,-103.134 594.305,-93.3455 594.305,-85.7049"/>
<polygon fill="black" stroke="black" points="597.805,-85.5501 594.305,-75.5502 590.805,-85.5502 597.805,-85.5501"/>
</g>
<!-- 591_10&#45;&gt;591_11x591_10 -->
<g id="edge57" class="edge"><title>591_10&#45;&gt;591_11x591_10</title>
<path fill="none" stroke="black" d="M1461.17,-229.13C1469.03,-227.003 1477.44,-224.842 1485.31,-223.054 1559.64,-206.142 1650.07,-191.555 1682.76,-186.472"/>
<polygon fill="black" stroke="black" points="1683.44,-189.909 1692.79,-184.932 1682.38,-182.991 1683.44,-189.909"/>
</g>
<!-- 591_3&#45;&gt;591_3x591_50 -->
<g id="edge61" class="edge"><title>591_3&#45;&gt;591_3x591_50</title>
<path fill="none" stroke="black" d="M1185.4,-116.231C1189.32,-114.542 1193.4,-112.901 1197.31,-111.527 1246.56,-94.2024 1307.48,-80.7755 1333.07,-75.4814"/>
<polygon fill="black" stroke="black" points="1334.07,-78.8509 1343.18,-73.4397 1332.68,-71.9895 1334.07,-78.8509"/>
</g>
<!-- 591_11&#45;&gt;591_11x591_10 -->
<g id="edge63" class="edge"><title>591_11&#45;&gt;591_11x591_10</title>
<path fill="none" stroke="black" d="M1550,-227.698C1554.43,-226.088 1558.98,-224.488 1563.31,-223.054 1607.07,-208.545 1659.94,-194.012 1683.26,-187.751"/>
<polygon fill="black" stroke="black" points="1684.35,-191.085 1693.11,-185.13 1682.55,-184.32 1684.35,-191.085"/>
</g>
<!-- 591_44 -->
<g id="node64" class="node"><title>591_44</title>
<ellipse fill="#66cdaa" stroke="black" cx="1255.31" cy="-462.371" rx="40.1111" ry="16.0303"/>
<text text-anchor="middle" x="1255.31" y="-458.671" font-family="Times,serif" font-size="14.00">591_44</text>
</g>
<!-- 591_44&#45;&gt;591_42x591_44 -->
<g id="edge64" class="edge"><title>591_44&#45;&gt;591_42x591_44</title>
<path fill="none" stroke="black" d="M1234.24,-448.356C1216.64,-437.48 1192.29,-422.431 1178.65,-413.998"/>
<polygon fill="black" stroke="black" points="1180.43,-410.986 1170.08,-408.706 1176.75,-416.94 1180.43,-410.986"/>
</g>
<!-- 591_6 -->
<g id="node67" class="node"><title>591_6</title>
<ellipse fill="#66cdaa" stroke="black" cx="1324.31" cy="-239.317" rx="35.2113" ry="16.0303"/>
<text text-anchor="middle" x="1324.31" y="-235.617" font-family="Times,serif" font-size="14.00">591_6</text>
</g>
<!-- 591_6&#45;&gt;591_5x591_6 -->
<g id="edge67" class="edge"><title>591_6&#45;&gt;591_5x591_6</title>
<path fill="none" stroke="black" d="M1305.42,-225.303C1289.96,-214.643 1268.68,-199.978 1256.32,-191.458"/>
<polygon fill="black" stroke="black" points="1258.12,-188.446 1247.9,-185.652 1254.15,-194.209 1258.12,-188.446"/>
</g>
<!-- 591_5&#45;&gt;591_5x591_6 -->
<g id="edge69" class="edge"><title>591_5&#45;&gt;591_5x591_6</title>
<path fill="none" stroke="black" d="M1246.31,-227.695C1246.31,-218.943 1246.31,-206.507 1246.31,-197.234"/>
<polygon fill="black" stroke="black" points="1249.81,-197.192 1246.31,-187.192 1242.81,-197.193 1249.81,-197.192"/>
</g>
<!-- 591_38 -->
<g id="node69" class="node"><title>591_38</title>
<ellipse fill="#66cdaa" stroke="black" cx="1603.31" cy="-350.844" rx="40.1111" ry="16.0303"/>
<text text-anchor="middle" x="1603.31" y="-347.144" font-family="Times,serif" font-size="14.00">591_38</text>
</g>
<!-- 591_38&#45;&gt;591_37x591_38 -->
<g id="edge70" class="edge"><title>591_38&#45;&gt;591_37x591_38</title>
<path fill="none" stroke="black" d="M1602.45,-334.582C1602,-326.467 1601.45,-316.604 1601.02,-308.892"/>
<polygon fill="black" stroke="black" points="1604.5,-308.423 1600.45,-298.633 1597.51,-308.813 1604.5,-308.423"/>
</g>
</g>
</svg>
