<?xml version="1.0" encoding="UTF-8" standalone="no"?>
<!DOCTYPE svg PUBLIC "-//W3C//DTD SVG 1.1//EN"
 "http://www.w3.org/Graphics/SVG/1.1/DTD/svg11.dtd">
<!-- Generated by graphviz version 2.38.0 (20140413.2041)
 -->
<!-- Title: %3 Pages: 1 -->
<svg width="307pt" height="152pt"
 viewBox="0.00 0.00 306.81 152.05" xmlns="http://www.w3.org/2000/svg" xmlns:xlink="http://www.w3.org/1999/xlink">
<g id="graph0" class="graph" transform="scale(1 1) rotate(0) translate(4 148.054)">
<title>%3</title>
<polygon fill="white" stroke="none" points="-4,4 -4,-148.054 302.805,-148.054 302.805,4 -4,4"/>
<!-- 1227_4 -->
<g id="node1" class="node"><title>1227_4</title>
<ellipse fill="dimgrey" stroke="black" cx="40.3051" cy="-16.2635" rx="40.1111" ry="16.0303"/>
<text text-anchor="middle" x="40.3051" y="-12.5635" font-family="Times,serif" font-size="14.00">1227_4</text>
</g>
<!-- 1227_1x1227_2 -->
<g id="node2" class="node"><title>1227_1x1227_2</title>
<polygon fill="none" stroke="black" points="139.305,-75.5269 135.805,-72.0269 139.305,-68.5269 142.805,-72.0269 139.305,-75.5269"/>
</g>
<!-- 1227_1x1227_2&#45;&gt;1227_4 -->
<g id="edge1" class="edge"><title>1227_1x1227_2&#45;&gt;1227_4</title>
<path fill="none" stroke="black" d="M137.587,-70.0937C129.857,-65.8962 97.588,-48.3718 72.3072,-34.6427"/>
<polygon fill="black" stroke="black" points="73.826,-31.4847 63.3678,-29.788 70.4853,-37.6361 73.826,-31.4847"/>
</g>
<!-- 1227_3 -->
<g id="node3" class="node"><title>1227_3</title>
<ellipse fill="white" stroke="black" cx="139.305" cy="-16.2635" rx="40.1111" ry="16.0303"/>
<text text-anchor="middle" x="139.305" y="-12.5635" font-family="Times,serif" font-size="14.00">1227_3</text>
</g>
<!-- 1227_1x1227_2&#45;&gt;1227_3 -->
<g id="edge2" class="edge"><title>1227_1x1227_2&#45;&gt;1227_3</title>
<path fill="none" stroke="black" d="M139.305,-68.4338C139.305,-63.6514 139.305,-52.9811 139.305,-42.6151"/>
<polygon fill="black" stroke="black" points="142.805,-42.5799 139.305,-32.58 135.805,-42.58 142.805,-42.5799"/>
</g>
<!-- 1227_99 -->
<g id="node4" class="node"><title>1227_99</title>
<ellipse fill="dimgrey" stroke="black" cx="243.305" cy="-16.2635" rx="45.011" ry="16.0303"/>
<text text-anchor="middle" x="243.305" y="-12.5635" font-family="Times,serif" font-size="14.00">1227_99</text>
</g>
<!-- 1227_1x1227_2&#45;&gt;1227_99 -->
<g id="edge3" class="edge"><title>1227_1x1227_2&#45;&gt;1227_99</title>
<path fill="none" stroke="black" d="M141.11,-70.0937C149.217,-65.9028 183.024,-48.4264 209.563,-34.7069"/>
<polygon fill="black" stroke="black" points="211.317,-37.7401 218.593,-30.0387 208.102,-31.5219 211.317,-37.7401"/>
</g>
<!-- 1227_5 -->
<g id="node5" class="node"><title>1227_5</title>
<polygon fill="#66cdaa" stroke="black" points="298.805,-139.29 241.805,-139.29 241.805,-116.29 298.805,-116.29 298.805,-139.29"/>
<text text-anchor="middle" x="270.305" y="-124.09" font-family="Times,serif" font-size="14.00">1227_5</text>
</g>
<!-- 1227_1 -->
<g id="node6" class="node"><title>1227_1</title>
<polygon fill="#66cdaa" stroke="black" points="124.805,-139.29 67.8051,-139.29 67.8051,-116.29 124.805,-116.29 124.805,-139.29"/>
<text text-anchor="middle" x="96.3051" y="-124.09" font-family="Times,serif" font-size="14.00">1227_1</text>
</g>
<!-- 1227_1&#45;&gt;1227_1x1227_2 -->
<g id="edge4" class="edge"><title>1227_1&#45;&gt;1227_1x1227_2</title>
<path fill="none" stroke="black" d="M104.801,-116.168C112.625,-106.385 124.131,-91.9999 131.67,-82.5735"/>
<polygon fill="black" stroke="black" points="134.576,-84.5431 138.089,-74.5476 129.11,-80.1709 134.576,-84.5431"/>
</g>
<!-- 1227_2 -->
<g id="node7" class="node"><title>1227_2</title>
<ellipse fill="#66cdaa" stroke="black" cx="183.305" cy="-127.79" rx="40.1111" ry="16.0303"/>
<text text-anchor="middle" x="183.305" y="-124.09" font-family="Times,serif" font-size="14.00">1227_2</text>
</g>
<!-- 1227_2&#45;&gt;1227_1x1227_2 -->
<g id="edge5" class="edge"><title>1227_2&#45;&gt;1227_1x1227_2</title>
<path fill="none" stroke="black" d="M171.282,-112.099C163.553,-102.656 153.74,-90.6651 147.036,-82.4735"/>
<polygon fill="black" stroke="black" points="149.64,-80.1289 140.598,-74.6068 144.223,-84.5623 149.64,-80.1289"/>
</g>
</g>
</svg>
