<?xml version="1.0" encoding="UTF-8" standalone="no"?>
<!DOCTYPE svg PUBLIC "-//W3C//DTD SVG 1.1//EN"
 "http://www.w3.org/Graphics/SVG/1.1/DTD/svg11.dtd">
<!-- Generated by graphviz version 2.38.0 (20140413.2041)
 -->
<!-- Title: %3 Pages: 1 -->
<svg width="2308pt" height="477pt"
 viewBox="0.00 0.00 2308.25 477.11" xmlns="http://www.w3.org/2000/svg" xmlns:xlink="http://www.w3.org/1999/xlink">
<g id="graph0" class="graph" transform="scale(1 1) rotate(0) translate(4 473.108)">
<title>%3</title>
<polygon fill="white" stroke="none" points="-4,4 -4,-473.108 2304.25,-473.108 2304.25,4 -4,4"/>
<!-- 1403_11 -->
<g id="node1" class="node"><title>1403_11</title>
<ellipse fill="#66cdaa" stroke="black" cx="1573.25" cy="-341.317" rx="45.011" ry="16.0303"/>
<text text-anchor="middle" x="1573.25" y="-337.617" font-family="Times,serif" font-size="14.00">1403_11</text>
</g>
<!-- 1403_1x1403_2 -->
<g id="node2" class="node"><title>1403_1x1403_2</title>
<polygon fill="none" stroke="black" points="1226.25,-400.581 1222.75,-397.081 1226.25,-393.581 1229.75,-397.081 1226.25,-400.581"/>
</g>
<!-- 1403_1x1403_2&#45;&gt;1403_11 -->
<g id="edge1" class="edge"><title>1403_1x1403_2&#45;&gt;1403_11</title>
<path fill="none" stroke="black" d="M1228.62,-395.902C1249.19,-394.32 1399.66,-382.206 1519.25,-357.581 1522.85,-356.84 1526.56,-355.986 1530.28,-355.068"/>
<polygon fill="black" stroke="black" points="1531.23,-358.436 1540.03,-352.524 1529.47,-351.662 1531.23,-358.436"/>
</g>
<!-- 1403_10 -->
<g id="node15" class="node"><title>1403_10</title>
<ellipse fill="#66cdaa" stroke="black" cx="1682.25" cy="-341.317" rx="45.011" ry="16.0303"/>
<text text-anchor="middle" x="1682.25" y="-337.617" font-family="Times,serif" font-size="14.00">1403_10</text>
</g>
<!-- 1403_1x1403_2&#45;&gt;1403_10 -->
<g id="edge11" class="edge"><title>1403_1x1403_2&#45;&gt;1403_10</title>
<path fill="none" stroke="black" d="M1228.82,-396.007C1254.18,-395.241 1462.21,-388.161 1627.25,-357.581 1631.14,-356.86 1635.16,-355.993 1639.16,-355.043"/>
<polygon fill="black" stroke="black" points="1640.19,-358.393 1649.03,-352.545 1638.47,-351.607 1640.19,-358.393"/>
</g>
<!-- 1403_99 -->
<g id="node17" class="node"><title>1403_99</title>
<ellipse fill="dimgrey" stroke="black" cx="382.255" cy="-341.317" rx="45.011" ry="16.0303"/>
<text text-anchor="middle" x="382.255" y="-337.617" font-family="Times,serif" font-size="14.00">1403_99</text>
</g>
<!-- 1403_1x1403_2&#45;&gt;1403_99 -->
<g id="edge13" class="edge"><title>1403_1x1403_2&#45;&gt;1403_99</title>
<path fill="none" stroke="black" d="M1223.77,-396.037C1181.17,-395.272 604.131,-384.465 437.255,-357.581 433.127,-356.916 428.867,-356.056 424.629,-355.082"/>
<polygon fill="black" stroke="black" points="425.405,-351.669 414.855,-352.645 423.711,-358.461 425.405,-351.669"/>
</g>
<!-- 1403_4 -->
<g id="node26" class="node"><title>1403_4</title>
<ellipse fill="dimgrey" stroke="black" cx="874.255" cy="-341.317" rx="40.1111" ry="16.0303"/>
<text text-anchor="middle" x="874.255" y="-337.617" font-family="Times,serif" font-size="14.00">1403_4</text>
</g>
<!-- 1403_1x1403_2&#45;&gt;1403_4 -->
<g id="edge21" class="edge"><title>1403_1x1403_2&#45;&gt;1403_4</title>
<path fill="none" stroke="black" d="M1223.8,-395.934C1202.49,-394.629 1046.58,-384.405 923.255,-357.581 920.077,-356.889 916.809,-356.085 913.542,-355.214"/>
<polygon fill="black" stroke="black" points="914.407,-351.821 903.831,-352.446 912.488,-358.553 914.407,-351.821"/>
</g>
<!-- 1403_3 -->
<g id="node45" class="node"><title>1403_3</title>
<ellipse fill="dimgrey" stroke="black" cx="676.255" cy="-341.317" rx="40.1111" ry="16.0303"/>
<text text-anchor="middle" x="676.255" y="-337.617" font-family="Times,serif" font-size="14.00">1403_3</text>
</g>
<!-- 1403_1x1403_2&#45;&gt;1403_3 -->
<g id="edge42" class="edge"><title>1403_1x1403_2&#45;&gt;1403_3</title>
<path fill="none" stroke="black" d="M1223.43,-396.101C1193.54,-396.262 932.434,-396.499 726.255,-357.581 722.806,-356.93 719.258,-356.127 715.72,-355.233"/>
<polygon fill="black" stroke="black" points="716.434,-351.8 705.864,-352.525 714.578,-358.55 716.434,-351.8"/>
</g>
<!-- 1403_5 -->
<g id="node46" class="node"><title>1403_5</title>
<ellipse fill="#66cdaa" stroke="black" cx="775.255" cy="-341.317" rx="40.1111" ry="16.0303"/>
<text text-anchor="middle" x="775.255" y="-337.617" font-family="Times,serif" font-size="14.00">1403_5</text>
</g>
<!-- 1403_1x1403_2&#45;&gt;1403_5 -->
<g id="edge43" class="edge"><title>1403_1x1403_2&#45;&gt;1403_5</title>
<path fill="none" stroke="black" d="M1223.68,-396.031C1198.28,-395.505 989.893,-390.269 825.255,-357.581 821.812,-356.897 818.269,-356.072 814.733,-355.163"/>
<polygon fill="black" stroke="black" points="815.454,-351.731 804.882,-352.43 813.582,-358.476 815.454,-351.731"/>
</g>
<!-- 1403_6 -->
<g id="node50" class="node"><title>1403_6</title>
<polygon fill="#66cdaa" stroke="black" points="1329.75,-352.817 1272.75,-352.817 1272.75,-329.817 1329.75,-329.817 1329.75,-352.817"/>
<text text-anchor="middle" x="1301.25" y="-337.617" font-family="Times,serif" font-size="14.00">1403_6</text>
</g>
<!-- 1403_1x1403_2&#45;&gt;1403_6 -->
<g id="edge47" class="edge"><title>1403_1x1403_2&#45;&gt;1403_6</title>
<path fill="none" stroke="black" d="M1227.82,-394.958C1234.24,-390.355 1259.11,-372.53 1278.14,-358.884"/>
<polygon fill="black" stroke="black" points="1280.3,-361.642 1286.39,-352.971 1276.23,-355.953 1280.3,-361.642"/>
</g>
<!-- 1403_7 -->
<g id="node51" class="node"><title>1403_7</title>
<polygon fill="#66cdaa" stroke="black" points="1179.75,-352.817 1122.75,-352.817 1122.75,-329.817 1179.75,-329.817 1179.75,-352.817"/>
<text text-anchor="middle" x="1151.25" y="-337.617" font-family="Times,serif" font-size="14.00">1403_7</text>
</g>
<!-- 1403_1x1403_2&#45;&gt;1403_7 -->
<g id="edge49" class="edge"><title>1403_1x1403_2&#45;&gt;1403_7</title>
<path fill="none" stroke="black" d="M1224.69,-394.958C1218.27,-390.355 1193.4,-372.53 1174.37,-358.884"/>
<polygon fill="black" stroke="black" points="1176.28,-355.953 1166.12,-352.971 1172.21,-361.642 1176.28,-355.953"/>
</g>
<!-- 1403_8 -->
<g id="node52" class="node"><title>1403_8</title>
<polygon fill="#66cdaa" stroke="black" points="1254.75,-352.817 1197.75,-352.817 1197.75,-329.817 1254.75,-329.817 1254.75,-352.817"/>
<text text-anchor="middle" x="1226.25" y="-337.617" font-family="Times,serif" font-size="14.00">1403_8</text>
</g>
<!-- 1403_1x1403_2&#45;&gt;1403_8 -->
<g id="edge50" class="edge"><title>1403_1x1403_2&#45;&gt;1403_8</title>
<path fill="none" stroke="black" d="M1226.25,-393.488C1226.25,-388.02 1226.25,-374.854 1226.25,-363.248"/>
<polygon fill="black" stroke="black" points="1229.75,-362.899 1226.25,-352.899 1222.75,-362.899 1229.75,-362.899"/>
</g>
<!-- 1403_9 -->
<g id="node54" class="node"><title>1403_9</title>
<ellipse fill="#66cdaa" stroke="black" cx="1388.25" cy="-341.317" rx="40.1111" ry="16.0303"/>
<text text-anchor="middle" x="1388.25" y="-337.617" font-family="Times,serif" font-size="14.00">1403_9</text>
</g>
<!-- 1403_1x1403_2&#45;&gt;1403_9 -->
<g id="edge52" class="edge"><title>1403_1x1403_2&#45;&gt;1403_9</title>
<path fill="none" stroke="black" d="M1228.3,-395.401C1240.57,-391.33 1305.23,-369.871 1348.49,-355.514"/>
<polygon fill="black" stroke="black" points="1349.79,-358.772 1358.17,-352.3 1347.58,-352.128 1349.79,-358.772"/>
</g>
<!-- 1403_12 -->
<g id="node56" class="node"><title>1403_12</title>
<ellipse fill="#66cdaa" stroke="black" cx="1791.25" cy="-341.317" rx="45.011" ry="16.0303"/>
<text text-anchor="middle" x="1791.25" y="-337.617" font-family="Times,serif" font-size="14.00">1403_12</text>
</g>
<!-- 1403_1x1403_2&#45;&gt;1403_12 -->
<g id="edge55" class="edge"><title>1403_1x1403_2&#45;&gt;1403_12</title>
<path fill="none" stroke="black" d="M1228.76,-396.08C1257.36,-396.031 1524.58,-394.575 1736.25,-357.581 1740.21,-356.89 1744.28,-356.037 1748.34,-355.089"/>
<polygon fill="black" stroke="black" points="1749.49,-358.409 1758.34,-352.578 1747.79,-351.62 1749.49,-358.409"/>
</g>
<!-- 1403_2 -->
<g id="node3" class="node"><title>1403_2</title>
<ellipse fill="#66cdaa" stroke="black" cx="1183.25" cy="-452.844" rx="40.1111" ry="16.0303"/>
<text text-anchor="middle" x="1183.25" y="-449.144" font-family="Times,serif" font-size="14.00">1403_2</text>
</g>
<!-- 1403_2&#45;&gt;1403_1x1403_2 -->
<g id="edge2" class="edge"><title>1403_2&#45;&gt;1403_1x1403_2</title>
<path fill="none" stroke="black" d="M1195,-437.153C1202.56,-427.709 1212.15,-415.719 1218.7,-407.527"/>
<polygon fill="black" stroke="black" points="1221.48,-409.656 1224.99,-399.661 1216.01,-405.284 1221.48,-409.656"/>
</g>
<!-- 1403_41 -->
<g id="node4" class="node"><title>1403_41</title>
<polygon fill="#66cdaa" stroke="black" points="2300.25,-129.763 2236.25,-129.763 2236.25,-106.763 2300.25,-106.763 2300.25,-129.763"/>
<text text-anchor="middle" x="2268.25" y="-114.563" font-family="Times,serif" font-size="14.00">1403_41</text>
</g>
<!-- 1403_45x1403_25 -->
<g id="node5" class="node"><title>1403_45x1403_25</title>
<polygon fill="none" stroke="black" points="2087.25,-177.527 2083.75,-174.027 2087.25,-170.527 2090.75,-174.027 2087.25,-177.527"/>
</g>
<!-- 1403_45x1403_25&#45;&gt;1403_41 -->
<g id="edge3" class="edge"><title>1403_45x1403_25&#45;&gt;1403_41</title>
<path fill="none" stroke="black" d="M2089.59,-172.468C2103.04,-169.223 2172.08,-152.345 2227.25,-134.527 2228.66,-134.075 2230.08,-133.603 2231.51,-133.119"/>
<polygon fill="black" stroke="black" points="2232.75,-136.395 2241.02,-129.781 2230.43,-129.79 2232.75,-136.395"/>
</g>
<!-- 1403_40 -->
<g id="node10" class="node"><title>1403_40</title>
<ellipse fill="#66cdaa" stroke="black" cx="2064.25" cy="-118.263" rx="45.011" ry="16.0303"/>
<text text-anchor="middle" x="2064.25" y="-114.563" font-family="Times,serif" font-size="14.00">1403_40</text>
</g>
<!-- 1403_45x1403_25&#45;&gt;1403_40 -->
<g id="edge6" class="edge"><title>1403_45x1403_25&#45;&gt;1403_40</title>
<path fill="none" stroke="black" d="M2086.49,-171.238C2084.62,-166.87 2079.63,-155.195 2074.84,-144.014"/>
<polygon fill="black" stroke="black" points="2077.93,-142.33 2070.78,-134.513 2071.49,-145.083 2077.93,-142.33"/>
</g>
<!-- 1403_39 -->
<g id="node11" class="node"><title>1403_39</title>
<ellipse fill="#66cdaa" stroke="black" cx="2173.25" cy="-118.263" rx="45.011" ry="16.0303"/>
<text text-anchor="middle" x="2173.25" y="-114.563" font-family="Times,serif" font-size="14.00">1403_39</text>
</g>
<!-- 1403_45x1403_25&#45;&gt;1403_39 -->
<g id="edge7" class="edge"><title>1403_45x1403_25&#45;&gt;1403_39</title>
<path fill="none" stroke="black" d="M2089.05,-171.904C2095.97,-167.576 2121.59,-151.56 2142.77,-138.319"/>
<polygon fill="black" stroke="black" points="2144.89,-141.125 2151.51,-132.856 2141.18,-135.189 2144.89,-141.125"/>
</g>
<!-- 1403_42 -->
<g id="node6" class="node"><title>1403_42</title>
<polygon fill="#66cdaa" stroke="black" points="2103.25,-23 2039.25,-23 2039.25,-0 2103.25,-0 2103.25,-23"/>
<text text-anchor="middle" x="2071.25" y="-7.8" font-family="Times,serif" font-size="14.00">1403_42</text>
</g>
<!-- 1403_38x1403_39 -->
<g id="node7" class="node"><title>1403_38x1403_39</title>
<polygon fill="none" stroke="black" points="2071.25,-66 2067.75,-62.5 2071.25,-59 2074.75,-62.5 2071.25,-66"/>
</g>
<!-- 1403_38x1403_39&#45;&gt;1403_42 -->
<g id="edge4" class="edge"><title>1403_38x1403_39&#45;&gt;1403_42</title>
<path fill="none" stroke="black" d="M2071.25,-58.8655C2071.25,-54.0189 2071.25,-43.2742 2071.25,-33.3477"/>
<polygon fill="black" stroke="black" points="2074.75,-33.2154 2071.25,-23.2154 2067.75,-33.2154 2074.75,-33.2154"/>
</g>
<!-- 1403_50 -->
<g id="node8" class="node"><title>1403_50</title>
<polygon fill="#66cdaa" stroke="black" points="996.255,-352.817 932.255,-352.817 932.255,-329.817 996.255,-329.817 996.255,-352.817"/>
<text text-anchor="middle" x="964.255" y="-337.617" font-family="Times,serif" font-size="14.00">1403_50</text>
</g>
<!-- 1403_50x1403_4 -->
<g id="node9" class="node"><title>1403_50x1403_4</title>
<polygon fill="none" stroke="black" points="904.255,-289.054 900.755,-285.554 904.255,-282.054 907.755,-285.554 904.255,-289.054"/>
</g>
<!-- 1403_50&#45;&gt;1403_50x1403_4 -->
<g id="edge5" class="edge"><title>1403_50&#45;&gt;1403_50x1403_4</title>
<path fill="none" stroke="black" d="M952.401,-329.695C940.926,-319.413 923.777,-304.047 913.343,-294.697"/>
<polygon fill="black" stroke="black" points="915.39,-291.832 905.606,-287.765 910.718,-297.045 915.39,-291.832"/>
</g>
<!-- 1403_51 -->
<g id="node14" class="node"><title>1403_51</title>
<polygon fill="#66cdaa" stroke="black" points="936.255,-241.29 872.255,-241.29 872.255,-218.29 936.255,-218.29 936.255,-241.29"/>
<text text-anchor="middle" x="904.255" y="-226.09" font-family="Times,serif" font-size="14.00">1403_51</text>
</g>
<!-- 1403_50x1403_4&#45;&gt;1403_51 -->
<g id="edge10" class="edge"><title>1403_50x1403_4&#45;&gt;1403_51</title>
<path fill="none" stroke="black" d="M904.255,-281.961C904.255,-276.493 904.255,-263.327 904.255,-251.721"/>
<polygon fill="black" stroke="black" points="907.755,-251.372 904.255,-241.372 900.755,-251.372 907.755,-251.372"/>
</g>
<!-- 1403_39&#45;&gt;1403_38x1403_39 -->
<g id="edge8" class="edge"><title>1403_39&#45;&gt;1403_38x1403_39</title>
<path fill="none" stroke="black" d="M2148.82,-104.386C2127.78,-93.2955 2098.37,-77.7931 2082.49,-69.4233"/>
<polygon fill="black" stroke="black" points="2083.83,-66.1711 2073.35,-64.6044 2080.56,-72.3636 2083.83,-66.1711"/>
</g>
<!-- 1403_37 -->
<g id="node12" class="node"><title>1403_37</title>
<polygon fill="#66cdaa" stroke="black" points="1294.25,-129.763 1230.25,-129.763 1230.25,-106.763 1294.25,-106.763 1294.25,-129.763"/>
<text text-anchor="middle" x="1262.25" y="-114.563" font-family="Times,serif" font-size="14.00">1403_37</text>
</g>
<!-- 1403_32x1403_24 -->
<g id="node13" class="node"><title>1403_32x1403_24</title>
<polygon fill="none" stroke="black" points="1616.25,-177.527 1612.75,-174.027 1616.25,-170.527 1619.75,-174.027 1616.25,-177.527"/>
</g>
<!-- 1403_32x1403_24&#45;&gt;1403_37 -->
<g id="edge9" class="edge"><title>1403_32x1403_24&#45;&gt;1403_37</title>
<path fill="none" stroke="black" d="M1613.71,-172.941C1591.59,-172.148 1429.84,-165.423 1303.25,-134.527 1301.37,-134.068 1299.46,-133.548 1297.54,-132.986"/>
<polygon fill="black" stroke="black" points="1298.59,-129.646 1288,-129.887 1296.43,-136.304 1298.59,-129.646"/>
</g>
<!-- 1403_38 -->
<g id="node28" class="node"><title>1403_38</title>
<polygon fill="#66cdaa" stroke="black" points="2001.25,-129.763 1937.25,-129.763 1937.25,-106.763 2001.25,-106.763 2001.25,-129.763"/>
<text text-anchor="middle" x="1969.25" y="-114.563" font-family="Times,serif" font-size="14.00">1403_38</text>
</g>
<!-- 1403_32x1403_24&#45;&gt;1403_38 -->
<g id="edge24" class="edge"><title>1403_32x1403_24&#45;&gt;1403_38</title>
<path fill="none" stroke="black" d="M1618.79,-172.94C1640.84,-172.138 1802.07,-165.35 1928.25,-134.527 1930.14,-134.067 1932.05,-133.548 1933.97,-132.985"/>
<polygon fill="black" stroke="black" points="1935.08,-136.303 1943.51,-129.885 1932.92,-129.646 1935.08,-136.303"/>
</g>
<!-- 1403_49 -->
<g id="node30" class="node"><title>1403_49</title>
<ellipse fill="#66cdaa" stroke="black" cx="1357.25" cy="-118.263" rx="45.011" ry="16.0303"/>
<text text-anchor="middle" x="1357.25" y="-114.563" font-family="Times,serif" font-size="14.00">1403_49</text>
</g>
<!-- 1403_32x1403_24&#45;&gt;1403_49 -->
<g id="edge27" class="edge"><title>1403_32x1403_24&#45;&gt;1403_49</title>
<path fill="none" stroke="black" d="M1613.8,-172.652C1596.71,-170.022 1493.75,-153.891 1411.25,-134.527 1407.83,-133.723 1404.3,-132.843 1400.76,-131.923"/>
<polygon fill="black" stroke="black" points="1401.4,-128.472 1390.84,-129.259 1399.59,-135.233 1401.4,-128.472"/>
</g>
<!-- 1403_36 -->
<g id="node57" class="node"><title>1403_36</title>
<polygon fill="#66cdaa" stroke="black" points="1484.25,-129.763 1420.25,-129.763 1420.25,-106.763 1484.25,-106.763 1484.25,-129.763"/>
<text text-anchor="middle" x="1452.25" y="-114.563" font-family="Times,serif" font-size="14.00">1403_36</text>
</g>
<!-- 1403_32x1403_24&#45;&gt;1403_36 -->
<g id="edge57" class="edge"><title>1403_32x1403_24&#45;&gt;1403_36</title>
<path fill="none" stroke="black" d="M1614.21,-172.432C1602.43,-168.99 1541.94,-151.197 1493.25,-134.527 1492.04,-134.112 1490.81,-133.685 1489.57,-133.25"/>
<polygon fill="black" stroke="black" points="1490.57,-129.889 1479.97,-129.809 1488.2,-136.478 1490.57,-129.889"/>
</g>
<!-- 1403_48 -->
<g id="node61" class="node"><title>1403_48</title>
<ellipse fill="#66cdaa" stroke="black" cx="1547.25" cy="-118.263" rx="45.011" ry="16.0303"/>
<text text-anchor="middle" x="1547.25" y="-114.563" font-family="Times,serif" font-size="14.00">1403_48</text>
</g>
<!-- 1403_32x1403_24&#45;&gt;1403_48 -->
<g id="edge61" class="edge"><title>1403_32x1403_24&#45;&gt;1403_48</title>
<path fill="none" stroke="black" d="M1614.81,-171.904C1609.47,-167.744 1590.27,-152.781 1573.7,-139.866"/>
<polygon fill="black" stroke="black" points="1575.39,-136.753 1565.36,-133.367 1571.09,-142.274 1575.39,-136.753"/>
</g>
<!-- 1403_47 -->
<g id="node62" class="node"><title>1403_47</title>
<ellipse fill="#66cdaa" stroke="black" cx="1656.25" cy="-118.263" rx="45.011" ry="16.0303"/>
<text text-anchor="middle" x="1656.25" y="-114.563" font-family="Times,serif" font-size="14.00">1403_47</text>
</g>
<!-- 1403_32x1403_24&#45;&gt;1403_47 -->
<g id="edge62" class="edge"><title>1403_32x1403_24&#45;&gt;1403_47</title>
<path fill="none" stroke="black" d="M1617.59,-171.238C1620.99,-166.664 1630.35,-154.078 1639.01,-142.438"/>
<polygon fill="black" stroke="black" points="1641.94,-144.37 1645.1,-134.257 1636.32,-140.191 1641.94,-144.37"/>
</g>
<!-- 1403_46 -->
<g id="node63" class="node"><title>1403_46</title>
<ellipse fill="#66cdaa" stroke="black" cx="1765.25" cy="-118.263" rx="45.011" ry="16.0303"/>
<text text-anchor="middle" x="1765.25" y="-114.563" font-family="Times,serif" font-size="14.00">1403_46</text>
</g>
<!-- 1403_32x1403_24&#45;&gt;1403_46 -->
<g id="edge63" class="edge"><title>1403_32x1403_24&#45;&gt;1403_46</title>
<path fill="none" stroke="black" d="M1618.36,-172.267C1629.81,-168.137 1685.46,-148.057 1724.87,-133.837"/>
<polygon fill="black" stroke="black" points="1726.28,-137.048 1734.5,-130.362 1723.9,-130.463 1726.28,-137.048"/>
</g>
<!-- 1403_35 -->
<g id="node64" class="node"><title>1403_35</title>
<ellipse fill="#66cdaa" stroke="black" cx="1874.25" cy="-118.263" rx="45.011" ry="16.0303"/>
<text text-anchor="middle" x="1874.25" y="-114.563" font-family="Times,serif" font-size="14.00">1403_35</text>
</g>
<!-- 1403_32x1403_24&#45;&gt;1403_35 -->
<g id="edge64" class="edge"><title>1403_32x1403_24&#45;&gt;1403_35</title>
<path fill="none" stroke="black" d="M1618.68,-172.645C1635.6,-169.97 1737.51,-153.587 1819.25,-134.527 1822.89,-133.678 1826.66,-132.748 1830.42,-131.779"/>
<polygon fill="black" stroke="black" points="1831.57,-135.098 1840.33,-129.153 1829.77,-128.332 1831.57,-135.098"/>
</g>
<!-- 1403_1 -->
<g id="node16" class="node"><title>1403_1</title>
<polygon fill="#66cdaa" stroke="black" points="1298.75,-464.344 1241.75,-464.344 1241.75,-441.344 1298.75,-441.344 1298.75,-464.344"/>
<text text-anchor="middle" x="1270.25" y="-449.144" font-family="Times,serif" font-size="14.00">1403_1</text>
</g>
<!-- 1403_1&#45;&gt;1403_1x1403_2 -->
<g id="edge12" class="edge"><title>1403_1&#45;&gt;1403_1x1403_2</title>
<path fill="none" stroke="black" d="M1261.56,-441.222C1253.56,-431.439 1241.78,-417.054 1234.07,-407.627"/>
<polygon fill="black" stroke="black" points="1236.54,-405.123 1227.5,-399.601 1231.12,-409.557 1236.54,-405.123"/>
</g>
<!-- 1403_27x1403_99 -->
<g id="node18" class="node"><title>1403_27x1403_99</title>
<polygon fill="none" stroke="black" points="300.255,-289.054 296.755,-285.554 300.255,-282.054 303.755,-285.554 300.255,-289.054"/>
</g>
<!-- 1403_99&#45;&gt;1403_27x1403_99 -->
<g id="edge14" class="edge"><title>1403_99&#45;&gt;1403_27x1403_99</title>
<path fill="none" stroke="black" d="M361.563,-326.75C345.289,-316.081 323.305,-301.667 310.565,-293.314"/>
<polygon fill="black" stroke="black" points="312.175,-290.184 301.893,-287.628 308.337,-296.038 312.175,-290.184"/>
</g>
<!-- 1403_13 -->
<g id="node24" class="node"><title>1403_13</title>
<ellipse fill="white" stroke="black" cx="45.2548" cy="-229.79" rx="45.011" ry="16.0303"/>
<text text-anchor="middle" x="45.2548" y="-226.09" font-family="Times,serif" font-size="14.00">1403_13</text>
</g>
<!-- 1403_27x1403_99&#45;&gt;1403_13 -->
<g id="edge19" class="edge"><title>1403_27x1403_99&#45;&gt;1403_13</title>
<path fill="none" stroke="black" d="M297.849,-284.174C281.098,-281.512 180.161,-265.199 99.2548,-246.054 95.833,-245.244 92.3026,-244.359 88.7623,-243.437"/>
<polygon fill="black" stroke="black" points="89.4065,-239.986 78.8406,-240.767 87.5878,-246.745 89.4065,-239.986"/>
</g>
<!-- 1403_18 -->
<g id="node29" class="node"><title>1403_18</title>
<polygon fill="#66cdaa" stroke="black" points="172.255,-241.29 108.255,-241.29 108.255,-218.29 172.255,-218.29 172.255,-241.29"/>
<text text-anchor="middle" x="140.255" y="-226.09" font-family="Times,serif" font-size="14.00">1403_18</text>
</g>
<!-- 1403_27x1403_99&#45;&gt;1403_18 -->
<g id="edge26" class="edge"><title>1403_27x1403_99&#45;&gt;1403_18</title>
<path fill="none" stroke="black" d="M298.281,-283.951C286.892,-280.462 228.427,-262.456 181.255,-246.054 180.044,-245.633 178.815,-245.201 177.575,-244.762"/>
<polygon fill="black" stroke="black" points="178.579,-241.403 167.984,-241.299 176.202,-247.987 178.579,-241.403"/>
</g>
<!-- 1403_17 -->
<g id="node47" class="node"><title>1403_17</title>
<polygon fill="#66cdaa" stroke="black" points="254.255,-241.29 190.255,-241.29 190.255,-218.29 254.255,-218.29 254.255,-241.29"/>
<text text-anchor="middle" x="222.255" y="-226.09" font-family="Times,serif" font-size="14.00">1403_17</text>
</g>
<!-- 1403_27x1403_99&#45;&gt;1403_17 -->
<g id="edge44" class="edge"><title>1403_27x1403_99&#45;&gt;1403_17</title>
<path fill="none" stroke="black" d="M298.626,-283.431C291.918,-278.807 265.853,-260.842 246.023,-247.173"/>
<polygon fill="black" stroke="black" points="247.932,-244.238 237.712,-241.444 243.959,-250.001 247.932,-244.238"/>
</g>
<!-- 1403_16 -->
<g id="node48" class="node"><title>1403_16</title>
<polygon fill="#66cdaa" stroke="black" points="336.255,-241.29 272.255,-241.29 272.255,-218.29 336.255,-218.29 336.255,-241.29"/>
<text text-anchor="middle" x="304.255" y="-226.09" font-family="Times,serif" font-size="14.00">1403_16</text>
</g>
<!-- 1403_27x1403_99&#45;&gt;1403_16 -->
<g id="edge45" class="edge"><title>1403_27x1403_99&#45;&gt;1403_16</title>
<path fill="none" stroke="black" d="M300.448,-281.961C300.859,-276.436 301.854,-263.055 302.724,-251.362"/>
<polygon fill="black" stroke="black" points="306.216,-251.604 303.468,-241.372 299.235,-251.085 306.216,-251.604"/>
</g>
<!-- 1403_15 -->
<g id="node49" class="node"><title>1403_15</title>
<polygon fill="#66cdaa" stroke="black" points="418.255,-241.29 354.255,-241.29 354.255,-218.29 418.255,-218.29 418.255,-241.29"/>
<text text-anchor="middle" x="386.255" y="-226.09" font-family="Times,serif" font-size="14.00">1403_15</text>
</g>
<!-- 1403_27x1403_99&#45;&gt;1403_15 -->
<g id="edge46" class="edge"><title>1403_27x1403_99&#45;&gt;1403_15</title>
<path fill="none" stroke="black" d="M302.051,-283.431C309.513,-278.766 338.702,-260.519 360.636,-246.806"/>
<polygon fill="black" stroke="black" points="362.589,-249.713 369.213,-241.444 358.878,-243.778 362.589,-249.713"/>
</g>
<!-- 1403_14 -->
<g id="node53" class="node"><title>1403_14</title>
<ellipse fill="#66cdaa" stroke="black" cx="481.255" cy="-229.79" rx="45.011" ry="16.0303"/>
<text text-anchor="middle" x="481.255" y="-226.09" font-family="Times,serif" font-size="14.00">1403_14</text>
</g>
<!-- 1403_27x1403_99&#45;&gt;1403_14 -->
<g id="edge51" class="edge"><title>1403_27x1403_99&#45;&gt;1403_14</title>
<path fill="none" stroke="black" d="M302.288,-283.95C315.405,-280.054 389.088,-258.167 437.728,-243.719"/>
<polygon fill="black" stroke="black" points="438.806,-247.05 447.396,-240.848 436.813,-240.34 438.806,-247.05"/>
</g>
<!-- 1403_55 -->
<g id="node19" class="node"><title>1403_55</title>
<ellipse fill="dimgrey" stroke="black" cx="192.255" cy="-341.317" rx="45.011" ry="16.0303"/>
<text text-anchor="middle" x="192.255" y="-337.617" font-family="Times,serif" font-size="14.00">1403_55</text>
</g>
<!-- 1403_53x1403_54 -->
<g id="node20" class="node"><title>1403_53x1403_54</title>
<polygon fill="none" stroke="black" points="240.255,-400.581 236.755,-397.081 240.255,-393.581 243.755,-397.081 240.255,-400.581"/>
</g>
<!-- 1403_53x1403_54&#45;&gt;1403_55 -->
<g id="edge15" class="edge"><title>1403_53x1403_54&#45;&gt;1403_55</title>
<path fill="none" stroke="black" d="M239.068,-394.752C235.302,-390.534 223.222,-377.003 212.277,-364.743"/>
<polygon fill="black" stroke="black" points="214.618,-362.11 205.347,-356.982 209.396,-366.772 214.618,-362.11"/>
</g>
<!-- 1403_27 -->
<g id="node55" class="node"><title>1403_27</title>
<polygon fill="#66cdaa" stroke="black" points="319.255,-352.817 255.255,-352.817 255.255,-329.817 319.255,-329.817 319.255,-352.817"/>
<text text-anchor="middle" x="287.255" y="-337.617" font-family="Times,serif" font-size="14.00">1403_27</text>
</g>
<!-- 1403_53x1403_54&#45;&gt;1403_27 -->
<g id="edge53" class="edge"><title>1403_53x1403_54&#45;&gt;1403_27</title>
<path fill="none" stroke="black" d="M241.819,-394.292C246.366,-389.091 259.967,-373.532 271.112,-360.783"/>
<polygon fill="black" stroke="black" points="274.016,-362.78 277.962,-352.947 268.745,-358.172 274.016,-362.78"/>
</g>
<!-- 1403_45 -->
<g id="node21" class="node"><title>1403_45</title>
<polygon fill="#66cdaa" stroke="black" points="2119.25,-241.29 2055.25,-241.29 2055.25,-218.29 2119.25,-218.29 2119.25,-241.29"/>
<text text-anchor="middle" x="2087.25" y="-226.09" font-family="Times,serif" font-size="14.00">1403_45</text>
</g>
<!-- 1403_45&#45;&gt;1403_45x1403_25 -->
<g id="edge16" class="edge"><title>1403_45&#45;&gt;1403_45x1403_25</title>
<path fill="none" stroke="black" d="M2087.25,-218.168C2087.25,-209.416 2087.25,-196.981 2087.25,-187.707"/>
<polygon fill="black" stroke="black" points="2090.75,-187.666 2087.25,-177.666 2083.75,-187.666 2090.75,-187.666"/>
</g>
<!-- 1403_54 -->
<g id="node22" class="node"><title>1403_54</title>
<ellipse fill="#66cdaa" stroke="black" cx="193.255" cy="-452.844" rx="45.011" ry="16.0303"/>
<text text-anchor="middle" x="193.255" y="-449.144" font-family="Times,serif" font-size="14.00">1403_54</text>
</g>
<!-- 1403_54&#45;&gt;1403_53x1403_54 -->
<g id="edge17" class="edge"><title>1403_54&#45;&gt;1403_53x1403_54</title>
<path fill="none" stroke="black" d="M206.098,-437.153C214.445,-427.604 225.069,-415.452 232.234,-407.256"/>
<polygon fill="black" stroke="black" points="234.927,-409.493 238.874,-399.661 229.657,-404.886 234.927,-409.493"/>
</g>
<!-- 1403_53 -->
<g id="node23" class="node"><title>1403_53</title>
<polygon fill="#66cdaa" stroke="black" points="320.255,-464.344 256.255,-464.344 256.255,-441.344 320.255,-441.344 320.255,-464.344"/>
<text text-anchor="middle" x="288.255" y="-449.144" font-family="Times,serif" font-size="14.00">1403_53</text>
</g>
<!-- 1403_53&#45;&gt;1403_53x1403_54 -->
<g id="edge18" class="edge"><title>1403_53&#45;&gt;1403_53x1403_54</title>
<path fill="none" stroke="black" d="M278.772,-441.222C269.943,-431.334 256.917,-416.744 248.508,-407.325"/>
<polygon fill="black" stroke="black" points="250.883,-404.73 241.612,-399.601 245.662,-409.392 250.883,-404.73"/>
</g>
<!-- 1403_30x1403_13 -->
<g id="node25" class="node"><title>1403_30x1403_13</title>
<polygon fill="none" stroke="black" points="352.255,-177.527 348.755,-174.027 352.255,-170.527 355.755,-174.027 352.255,-177.527"/>
</g>
<!-- 1403_13&#45;&gt;1403_30x1403_13 -->
<g id="edge20" class="edge"><title>1403_13&#45;&gt;1403_30x1403_13</title>
<path fill="none" stroke="black" d="M78.5064,-218.691C85.3303,-216.817 92.4945,-214.991 99.2548,-213.527 190.524,-193.764 302.472,-180.5 339.617,-176.386"/>
<polygon fill="black" stroke="black" points="340.175,-179.846 349.74,-175.289 339.421,-172.887 340.175,-179.846"/>
</g>
<!-- 1403_52 -->
<g id="node27" class="node"><title>1403_52</title>
<polygon fill="#66cdaa" stroke="black" points="384.255,-129.763 320.255,-129.763 320.255,-106.763 384.255,-106.763 384.255,-129.763"/>
<text text-anchor="middle" x="352.255" y="-114.563" font-family="Times,serif" font-size="14.00">1403_52</text>
</g>
<!-- 1403_30x1403_13&#45;&gt;1403_52 -->
<g id="edge23" class="edge"><title>1403_30x1403_13&#45;&gt;1403_52</title>
<path fill="none" stroke="black" d="M352.255,-170.434C352.255,-164.966 352.255,-151.801 352.255,-140.194"/>
<polygon fill="black" stroke="black" points="355.755,-139.845 352.255,-129.845 348.755,-139.845 355.755,-139.845"/>
</g>
<!-- 1403_4&#45;&gt;1403_50x1403_4 -->
<g id="edge22" class="edge"><title>1403_4&#45;&gt;1403_50x1403_4</title>
<path fill="none" stroke="black" d="M882.612,-325.341C887.608,-316.387 893.837,-305.224 898.328,-297.176"/>
<polygon fill="black" stroke="black" points="901.392,-298.868 903.208,-288.43 895.279,-295.457 901.392,-298.868"/>
</g>
<!-- 1403_38&#45;&gt;1403_38x1403_39 -->
<g id="edge25" class="edge"><title>1403_38&#45;&gt;1403_38x1403_39</title>
<path fill="none" stroke="black" d="M1989.41,-106.642C2010.71,-95.4124 2043.52,-78.1201 2060.4,-69.2228"/>
<polygon fill="black" stroke="black" points="2062.27,-72.1937 2069.48,-64.4346 2059,-66.0013 2062.27,-72.1937"/>
</g>
<!-- 1403_44 -->
<g id="node31" class="node"><title>1403_44</title>
<ellipse fill="#66cdaa" stroke="black" cx="491.255" cy="-341.317" rx="45.011" ry="16.0303"/>
<text text-anchor="middle" x="491.255" y="-337.617" font-family="Times,serif" font-size="14.00">1403_44</text>
</g>
<!-- 1403_43x1403_44 -->
<g id="node32" class="node"><title>1403_43x1403_44</title>
<polygon fill="none" stroke="black" points="583.255,-289.054 579.755,-285.554 583.255,-282.054 586.755,-285.554 583.255,-289.054"/>
</g>
<!-- 1403_44&#45;&gt;1403_43x1403_44 -->
<g id="edge28" class="edge"><title>1403_44&#45;&gt;1403_43x1403_44</title>
<path fill="none" stroke="black" d="M513.996,-327.027C532.62,-316.144 558.146,-301.227 572.435,-292.877"/>
<polygon fill="black" stroke="black" points="574.528,-295.707 581.396,-287.64 570.997,-289.664 574.528,-295.707"/>
</g>
<!-- 1403_30 -->
<g id="node34" class="node"><title>1403_30</title>
<polygon fill="#66cdaa" stroke="black" points="690.255,-241.29 626.255,-241.29 626.255,-218.29 690.255,-218.29 690.255,-241.29"/>
<text text-anchor="middle" x="658.255" y="-226.09" font-family="Times,serif" font-size="14.00">1403_30</text>
</g>
<!-- 1403_43x1403_44&#45;&gt;1403_30 -->
<g id="edge30" class="edge"><title>1403_43x1403_44&#45;&gt;1403_30</title>
<path fill="none" stroke="black" d="M584.821,-283.431C591.242,-278.828 616.109,-261.003 635.144,-247.357"/>
<polygon fill="black" stroke="black" points="637.304,-250.115 643.392,-241.444 633.226,-244.426 637.304,-250.115"/>
</g>
<!-- 1403_31 -->
<g id="node60" class="node"><title>1403_31</title>
<polygon fill="#66cdaa" stroke="black" points="608.255,-241.29 544.255,-241.29 544.255,-218.29 608.255,-218.29 608.255,-241.29"/>
<text text-anchor="middle" x="576.255" y="-226.09" font-family="Times,serif" font-size="14.00">1403_31</text>
</g>
<!-- 1403_43x1403_44&#45;&gt;1403_31 -->
<g id="edge60" class="edge"><title>1403_43x1403_44&#45;&gt;1403_31</title>
<path fill="none" stroke="black" d="M582.954,-282.244C582.265,-276.95 580.512,-263.487 578.972,-251.661"/>
<polygon fill="black" stroke="black" points="582.416,-251.005 577.655,-241.541 575.475,-251.909 582.416,-251.005"/>
</g>
<!-- 1403_43 -->
<g id="node33" class="node"><title>1403_43</title>
<polygon fill="#66cdaa" stroke="black" points="618.255,-352.817 554.255,-352.817 554.255,-329.817 618.255,-329.817 618.255,-352.817"/>
<text text-anchor="middle" x="586.255" y="-337.617" font-family="Times,serif" font-size="14.00">1403_43</text>
</g>
<!-- 1403_43&#45;&gt;1403_43x1403_44 -->
<g id="edge29" class="edge"><title>1403_43&#45;&gt;1403_43x1403_44</title>
<path fill="none" stroke="black" d="M585.662,-329.695C585.174,-320.943 584.48,-308.507 583.962,-299.234"/>
<polygon fill="black" stroke="black" points="587.454,-298.982 583.402,-289.192 580.465,-299.372 587.454,-298.982"/>
</g>
<!-- 1403_30&#45;&gt;1403_30x1403_13 -->
<g id="edge31" class="edge"><title>1403_30&#45;&gt;1403_30x1403_13</title>
<path fill="none" stroke="black" d="M632.492,-218.256C627.497,-216.483 622.259,-214.806 617.255,-213.527 522.169,-189.214 403.697,-178.819 365.071,-175.92"/>
<polygon fill="black" stroke="black" points="365.131,-172.416 354.908,-175.197 364.634,-179.398 365.131,-172.416"/>
</g>
<!-- 1403_26 -->
<g id="node35" class="node"><title>1403_26</title>
<ellipse fill="#66cdaa" stroke="black" cx="1767.25" cy="-229.79" rx="45.011" ry="16.0303"/>
<text text-anchor="middle" x="1767.25" y="-226.09" font-family="Times,serif" font-size="14.00">1403_26</text>
</g>
<!-- 1403_29x1403_12 -->
<g id="node36" class="node"><title>1403_29x1403_12</title>
<polygon fill="none" stroke="black" points="1767.25,-289.054 1763.75,-285.554 1767.25,-282.054 1770.75,-285.554 1767.25,-289.054"/>
</g>
<!-- 1403_29x1403_12&#45;&gt;1403_26 -->
<g id="edge32" class="edge"><title>1403_29x1403_12&#45;&gt;1403_26</title>
<path fill="none" stroke="black" d="M1767.25,-281.961C1767.25,-277.178 1767.25,-266.508 1767.25,-256.142"/>
<polygon fill="black" stroke="black" points="1770.75,-256.107 1767.25,-246.107 1763.75,-256.107 1770.75,-256.107"/>
</g>
<!-- 1403_25 -->
<g id="node37" class="node"><title>1403_25</title>
<ellipse fill="white" stroke="black" cx="1876.25" cy="-229.79" rx="45.011" ry="16.0303"/>
<text text-anchor="middle" x="1876.25" y="-226.09" font-family="Times,serif" font-size="14.00">1403_25</text>
</g>
<!-- 1403_29x1403_12&#45;&gt;1403_25 -->
<g id="edge33" class="edge"><title>1403_29x1403_12&#45;&gt;1403_25</title>
<path fill="none" stroke="black" d="M1769.15,-283.621C1777.73,-279.386 1813.81,-261.59 1841.75,-247.809"/>
<polygon fill="black" stroke="black" points="1843.44,-250.878 1850.86,-243.315 1840.35,-244.6 1843.44,-250.878"/>
</g>
<!-- 1403_24 -->
<g id="node38" class="node"><title>1403_24</title>
<ellipse fill="#66cdaa" stroke="black" cx="1577.25" cy="-229.79" rx="45.011" ry="16.0303"/>
<text text-anchor="middle" x="1577.25" y="-226.09" font-family="Times,serif" font-size="14.00">1403_24</text>
</g>
<!-- 1403_29x1403_12&#45;&gt;1403_24 -->
<g id="edge35" class="edge"><title>1403_29x1403_12&#45;&gt;1403_24</title>
<path fill="none" stroke="black" d="M1765.12,-283.95C1751.21,-280.013 1672.39,-257.709 1621.36,-243.27"/>
<polygon fill="black" stroke="black" points="1622.13,-239.85 1611.55,-240.495 1620.22,-246.586 1622.13,-239.85"/>
</g>
<!-- 1403_23 -->
<g id="node39" class="node"><title>1403_23</title>
<ellipse fill="dimgrey" stroke="black" cx="1985.25" cy="-229.79" rx="45.011" ry="16.0303"/>
<text text-anchor="middle" x="1985.25" y="-226.09" font-family="Times,serif" font-size="14.00">1403_23</text>
</g>
<!-- 1403_29x1403_12&#45;&gt;1403_23 -->
<g id="edge37" class="edge"><title>1403_29x1403_12&#45;&gt;1403_23</title>
<path fill="none" stroke="black" d="M1769.56,-284.044C1784.13,-280.819 1864.91,-262.83 1930.25,-246.054 1933.82,-245.137 1937.52,-244.165 1941.22,-243.173"/>
<polygon fill="black" stroke="black" points="1942.25,-246.52 1950.98,-240.522 1940.42,-239.765 1942.25,-246.52"/>
</g>
<!-- 1403_22 -->
<g id="node58" class="node"><title>1403_22</title>
<ellipse fill="white" stroke="black" cx="1380.25" cy="-229.79" rx="45.011" ry="16.0303"/>
<text text-anchor="middle" x="1380.25" y="-226.09" font-family="Times,serif" font-size="14.00">1403_22</text>
</g>
<!-- 1403_29x1403_12&#45;&gt;1403_22 -->
<g id="edge58" class="edge"><title>1403_29x1403_12&#45;&gt;1403_22</title>
<path fill="none" stroke="black" d="M1764.78,-284.211C1739.73,-280.73 1530.54,-251.669 1431.66,-237.932"/>
<polygon fill="black" stroke="black" points="1431.98,-234.442 1421.59,-236.533 1431.01,-241.376 1431.98,-234.442"/>
</g>
<!-- 1403_25&#45;&gt;1403_45x1403_25 -->
<g id="edge34" class="edge"><title>1403_25&#45;&gt;1403_45x1403_25</title>
<path fill="none" stroke="black" d="M1910.54,-219.112C1917.39,-217.224 1924.54,-215.286 1931.25,-213.527 1984.81,-199.49 2049.09,-184.078 2075.27,-177.859"/>
<polygon fill="black" stroke="black" points="2076.12,-181.255 2085.05,-175.546 2074.51,-174.443 2076.12,-181.255"/>
</g>
<!-- 1403_24&#45;&gt;1403_32x1403_24 -->
<g id="edge36" class="edge"><title>1403_24&#45;&gt;1403_32x1403_24</title>
<path fill="none" stroke="black" d="M1588.12,-213.814C1594.81,-204.586 1603.21,-193.013 1609.08,-184.92"/>
<polygon fill="black" stroke="black" points="1612.08,-186.738 1615.12,-176.589 1606.42,-182.628 1612.08,-186.738"/>
</g>
<!-- 1403_29 -->
<g id="node40" class="node"><title>1403_29</title>
<polygon fill="#66cdaa" stroke="black" points="1510.25,-352.817 1446.25,-352.817 1446.25,-329.817 1510.25,-329.817 1510.25,-352.817"/>
<text text-anchor="middle" x="1478.25" y="-337.617" font-family="Times,serif" font-size="14.00">1403_29</text>
</g>
<!-- 1403_29&#45;&gt;1403_29x1403_12 -->
<g id="edge38" class="edge"><title>1403_29&#45;&gt;1403_29x1403_12</title>
<path fill="none" stroke="black" d="M1504.47,-329.665C1509.33,-327.947 1514.4,-326.319 1519.25,-325.054 1607.87,-301.935 1718.15,-290.826 1754.78,-287.59"/>
<polygon fill="black" stroke="black" points="1755.1,-291.076 1764.77,-286.747 1754.51,-284.101 1755.1,-291.076"/>
</g>
<!-- 1403_20 -->
<g id="node41" class="node"><title>1403_20</title>
<polygon fill="#66cdaa" stroke="black" points="1048.25,-241.29 984.255,-241.29 984.255,-218.29 1048.25,-218.29 1048.25,-241.29"/>
<text text-anchor="middle" x="1016.25" y="-226.09" font-family="Times,serif" font-size="14.00">1403_20</text>
</g>
<!-- 1403_6x1403_28 -->
<g id="node42" class="node"><title>1403_6x1403_28</title>
<polygon fill="none" stroke="black" points="1098.25,-289.054 1094.75,-285.554 1098.25,-282.054 1101.75,-285.554 1098.25,-289.054"/>
</g>
<!-- 1403_6x1403_28&#45;&gt;1403_20 -->
<g id="edge39" class="edge"><title>1403_6x1403_28&#45;&gt;1403_20</title>
<path fill="none" stroke="black" d="M1096.54,-283.431C1089.46,-278.786 1061.84,-260.68 1040.96,-246.99"/>
<polygon fill="black" stroke="black" points="1042.79,-244.001 1032.5,-241.444 1038.95,-249.855 1042.79,-244.001"/>
</g>
<!-- 1403_19 -->
<g id="node43" class="node"><title>1403_19</title>
<polygon fill="#66cdaa" stroke="black" points="1130.25,-241.29 1066.25,-241.29 1066.25,-218.29 1130.25,-218.29 1130.25,-241.29"/>
<text text-anchor="middle" x="1098.25" y="-226.09" font-family="Times,serif" font-size="14.00">1403_19</text>
</g>
<!-- 1403_6x1403_28&#45;&gt;1403_19 -->
<g id="edge40" class="edge"><title>1403_6x1403_28&#45;&gt;1403_19</title>
<path fill="none" stroke="black" d="M1098.25,-281.961C1098.25,-276.493 1098.25,-263.327 1098.25,-251.721"/>
<polygon fill="black" stroke="black" points="1101.75,-251.372 1098.25,-241.372 1094.75,-251.372 1101.75,-251.372"/>
</g>
<!-- 1403_21 -->
<g id="node68" class="node"><title>1403_21</title>
<polygon fill="dimgrey" stroke="black" points="1212.25,-241.29 1148.25,-241.29 1148.25,-218.29 1212.25,-218.29 1212.25,-241.29"/>
<text text-anchor="middle" x="1180.25" y="-226.09" font-family="Times,serif" font-size="14.00">1403_21</text>
</g>
<!-- 1403_6x1403_28&#45;&gt;1403_21 -->
<g id="edge68" class="edge"><title>1403_6x1403_28&#45;&gt;1403_21</title>
<path fill="none" stroke="black" d="M1099.97,-283.431C1107.05,-278.786 1134.67,-260.68 1155.55,-246.99"/>
<polygon fill="black" stroke="black" points="1157.56,-249.855 1164.01,-241.444 1153.72,-244.001 1157.56,-249.855"/>
</g>
<!-- 1403_28 -->
<g id="node44" class="node"><title>1403_28</title>
<ellipse fill="#66cdaa" stroke="black" cx="1059.25" cy="-341.317" rx="45.011" ry="16.0303"/>
<text text-anchor="middle" x="1059.25" y="-337.617" font-family="Times,serif" font-size="14.00">1403_28</text>
</g>
<!-- 1403_28&#45;&gt;1403_6x1403_28 -->
<g id="edge41" class="edge"><title>1403_28&#45;&gt;1403_6x1403_28</title>
<path fill="none" stroke="black" d="M1070.12,-325.341C1076.81,-316.113 1085.21,-304.54 1091.08,-296.447"/>
<polygon fill="black" stroke="black" points="1094.08,-298.265 1097.12,-288.116 1088.42,-294.155 1094.08,-298.265"/>
</g>
<!-- 1403_6&#45;&gt;1403_6x1403_28 -->
<g id="edge48" class="edge"><title>1403_6&#45;&gt;1403_6x1403_28</title>
<path fill="none" stroke="black" d="M1277.18,-329.725C1272.92,-328.04 1268.49,-326.409 1264.25,-325.054 1208.07,-307.084 1138.72,-293.752 1110.78,-288.734"/>
<polygon fill="black" stroke="black" points="1111.09,-285.235 1100.63,-286.954 1109.88,-292.129 1111.09,-285.235"/>
</g>
<!-- 1403_27&#45;&gt;1403_27x1403_99 -->
<g id="edge54" class="edge"><title>1403_27&#45;&gt;1403_27x1403_99</title>
<path fill="none" stroke="black" d="M289.823,-329.695C291.98,-320.775 295.062,-308.028 297.317,-298.703"/>
<polygon fill="black" stroke="black" points="300.766,-299.332 299.714,-288.789 293.962,-297.686 300.766,-299.332"/>
</g>
<!-- 1403_12&#45;&gt;1403_29x1403_12 -->
<g id="edge56" class="edge"><title>1403_12&#45;&gt;1403_29x1403_12</title>
<path fill="none" stroke="black" d="M1784.44,-325.055C1780.54,-316.314 1775.73,-305.543 1772.19,-297.619"/>
<polygon fill="black" stroke="black" points="1775.36,-296.113 1768.08,-288.408 1768.96,-298.967 1775.36,-296.113"/>
</g>
<!-- 1403_21x1403_22 -->
<g id="node59" class="node"><title>1403_21x1403_22</title>
<polygon fill="none" stroke="black" points="1180.25,-177.527 1176.75,-174.027 1180.25,-170.527 1183.75,-174.027 1180.25,-177.527"/>
</g>
<!-- 1403_22&#45;&gt;1403_21x1403_22 -->
<g id="edge59" class="edge"><title>1403_22&#45;&gt;1403_21x1403_22</title>
<path fill="none" stroke="black" d="M1344.96,-219.302C1299.24,-207.013 1221.91,-186.224 1192.29,-178.262"/>
<polygon fill="black" stroke="black" points="1193.1,-174.855 1182.53,-175.639 1191.28,-181.615 1193.1,-174.855"/>
</g>
<!-- 1403_34 -->
<g id="node65" class="node"><title>1403_34</title>
<polygon fill="#66cdaa" stroke="black" points="1130.25,-129.763 1066.25,-129.763 1066.25,-106.763 1130.25,-106.763 1130.25,-129.763"/>
<text text-anchor="middle" x="1098.25" y="-114.563" font-family="Times,serif" font-size="14.00">1403_34</text>
</g>
<!-- 1403_21x1403_22&#45;&gt;1403_34 -->
<g id="edge65" class="edge"><title>1403_21x1403_22&#45;&gt;1403_34</title>
<path fill="none" stroke="black" d="M1178.54,-171.904C1171.46,-167.26 1143.84,-149.154 1122.96,-135.463"/>
<polygon fill="black" stroke="black" points="1124.79,-132.474 1114.5,-129.918 1120.95,-138.328 1124.79,-132.474"/>
</g>
<!-- 1403_33 -->
<g id="node66" class="node"><title>1403_33</title>
<polygon fill="#66cdaa" stroke="black" points="1212.25,-129.763 1148.25,-129.763 1148.25,-106.763 1212.25,-106.763 1212.25,-129.763"/>
<text text-anchor="middle" x="1180.25" y="-114.563" font-family="Times,serif" font-size="14.00">1403_33</text>
</g>
<!-- 1403_21x1403_22&#45;&gt;1403_33 -->
<g id="edge66" class="edge"><title>1403_21x1403_22&#45;&gt;1403_33</title>
<path fill="none" stroke="black" d="M1180.25,-170.434C1180.25,-164.966 1180.25,-151.801 1180.25,-140.194"/>
<polygon fill="black" stroke="black" points="1183.75,-139.845 1180.25,-129.845 1176.75,-139.845 1183.75,-139.845"/>
</g>
<!-- 1403_32 -->
<g id="node67" class="node"><title>1403_32</title>
<polygon fill="#66cdaa" stroke="black" points="1704.25,-241.29 1640.25,-241.29 1640.25,-218.29 1704.25,-218.29 1704.25,-241.29"/>
<text text-anchor="middle" x="1672.25" y="-226.09" font-family="Times,serif" font-size="14.00">1403_32</text>
</g>
<!-- 1403_32&#45;&gt;1403_32x1403_24 -->
<g id="edge67" class="edge"><title>1403_32&#45;&gt;1403_32x1403_24</title>
<path fill="none" stroke="black" d="M1661.19,-218.168C1650.67,-208.07 1635.05,-193.067 1625.26,-183.677"/>
<polygon fill="black" stroke="black" points="1627.48,-180.948 1617.84,-176.548 1622.63,-185.998 1627.48,-180.948"/>
</g>
<!-- 1403_21&#45;&gt;1403_21x1403_22 -->
<g id="edge69" class="edge"><title>1403_21&#45;&gt;1403_21x1403_22</title>
<path fill="none" stroke="black" d="M1180.25,-218.168C1180.25,-209.416 1180.25,-196.981 1180.25,-187.707"/>
<polygon fill="black" stroke="black" points="1183.75,-187.666 1180.25,-177.666 1176.75,-187.666 1183.75,-187.666"/>
</g>
</g>
</svg>
