<?xml version="1.0" encoding="UTF-8" standalone="no"?>
<!DOCTYPE svg PUBLIC "-//W3C//DTD SVG 1.1//EN"
 "http://www.w3.org/Graphics/SVG/1.1/DTD/svg11.dtd">
<!-- Generated by graphviz version 2.38.0 (20140413.2041)
 -->
<!-- Title: %3 Pages: 1 -->
<svg width="1829pt" height="375pt"
 viewBox="0.00 0.00 1828.81 375.11" xmlns="http://www.w3.org/2000/svg" xmlns:xlink="http://www.w3.org/1999/xlink">
<g id="graph0" class="graph" transform="scale(1 1) rotate(0) translate(4 371.108)">
<title>%3</title>
<polygon fill="white" stroke="none" points="-4,4 -4,-371.108 1824.81,-371.108 1824.81,4 -4,4"/>
<!-- 476_26 -->
<g id="node1" class="node"><title>476_26</title>
<ellipse fill="white" stroke="black" cx="910.305" cy="-127.79" rx="40.1111" ry="16.0303"/>
<text text-anchor="middle" x="910.305" y="-124.09" font-family="Times,serif" font-size="14.00">476_26</text>
</g>
<!-- 476_20x476_11 -->
<g id="node2" class="node"><title>476_20x476_11</title>
<polygon fill="none" stroke="black" points="1171.31,-187.054 1167.81,-183.554 1171.31,-180.054 1174.81,-183.554 1171.31,-187.054"/>
</g>
<!-- 476_20x476_11&#45;&gt;476_26 -->
<g id="edge1" class="edge"><title>476_20x476_11&#45;&gt;476_26</title>
<path fill="none" stroke="black" d="M1168.76,-182.212C1151.04,-179.809 1044.31,-164.93 959.305,-144.054 956.287,-143.313 953.182,-142.49 950.07,-141.622"/>
<polygon fill="black" stroke="black" points="950.782,-138.184 940.202,-138.74 948.819,-144.903 950.782,-138.184"/>
</g>
<!-- 476_41 -->
<g id="node13" class="node"><title>476_41</title>
<polygon fill="#66cdaa" stroke="black" points="1025.81,-139.29 968.805,-139.29 968.805,-116.29 1025.81,-116.29 1025.81,-139.29"/>
<text text-anchor="middle" x="997.305" y="-124.09" font-family="Times,serif" font-size="14.00">476_41</text>
</g>
<!-- 476_20x476_11&#45;&gt;476_41 -->
<g id="edge9" class="edge"><title>476_20x476_11&#45;&gt;476_41</title>
<path fill="none" stroke="black" d="M1169.03,-182.007C1155.93,-178.834 1088.72,-162.284 1035.31,-144.054 1034.26,-143.698 1033.21,-143.329 1032.14,-142.95"/>
<polygon fill="black" stroke="black" points="1033.1,-139.573 1022.51,-139.349 1030.65,-146.13 1033.1,-139.573"/>
</g>
<!-- 476_27 -->
<g id="node14" class="node"><title>476_27</title>
<ellipse fill="dimgrey" stroke="black" cx="1084.31" cy="-127.79" rx="40.1111" ry="16.0303"/>
<text text-anchor="middle" x="1084.31" y="-124.09" font-family="Times,serif" font-size="14.00">476_27</text>
</g>
<!-- 476_20x476_11&#45;&gt;476_27 -->
<g id="edge10" class="edge"><title>476_20x476_11&#45;&gt;476_27</title>
<path fill="none" stroke="black" d="M1169.49,-181.431C1162.37,-177.031 1135.7,-160.548 1114.07,-147.184"/>
<polygon fill="black" stroke="black" points="1115.83,-144.158 1105.48,-141.878 1112.15,-150.112 1115.83,-144.158"/>
</g>
<!-- 476_40 -->
<g id="node23" class="node"><title>476_40</title>
<polygon fill="#66cdaa" stroke="black" points="1199.81,-139.29 1142.81,-139.29 1142.81,-116.29 1199.81,-116.29 1199.81,-139.29"/>
<text text-anchor="middle" x="1171.31" y="-124.09" font-family="Times,serif" font-size="14.00">476_40</text>
</g>
<!-- 476_20x476_11&#45;&gt;476_40 -->
<g id="edge20" class="edge"><title>476_20x476_11&#45;&gt;476_40</title>
<path fill="none" stroke="black" d="M1171.31,-179.961C1171.31,-174.493 1171.31,-161.327 1171.31,-149.721"/>
<polygon fill="black" stroke="black" points="1174.81,-149.372 1171.31,-139.372 1167.81,-149.372 1174.81,-149.372"/>
</g>
<!-- 476_23 -->
<g id="node29" class="node"><title>476_23</title>
<ellipse fill="white" stroke="black" cx="1258.31" cy="-127.79" rx="40.1111" ry="16.0303"/>
<text text-anchor="middle" x="1258.31" y="-124.09" font-family="Times,serif" font-size="14.00">476_23</text>
</g>
<!-- 476_20x476_11&#45;&gt;476_23 -->
<g id="edge26" class="edge"><title>476_20x476_11&#45;&gt;476_23</title>
<path fill="none" stroke="black" d="M1173.12,-181.431C1180.24,-177.031 1206.91,-160.548 1228.54,-147.184"/>
<polygon fill="black" stroke="black" points="1230.46,-150.112 1237.13,-141.878 1226.78,-144.158 1230.46,-150.112"/>
</g>
<!-- 476_24 -->
<g id="node46" class="node"><title>476_24</title>
<ellipse fill="white" stroke="black" cx="1357.31" cy="-127.79" rx="40.1111" ry="16.0303"/>
<text text-anchor="middle" x="1357.31" y="-124.09" font-family="Times,serif" font-size="14.00">476_24</text>
</g>
<!-- 476_20x476_11&#45;&gt;476_24 -->
<g id="edge46" class="edge"><title>476_20x476_11&#45;&gt;476_24</title>
<path fill="none" stroke="black" d="M1173.55,-181.936C1186.53,-178.366 1253.16,-159.981 1307.31,-144.054 1310.4,-143.145 1313.59,-142.194 1316.8,-141.231"/>
<polygon fill="black" stroke="black" points="1317.83,-144.576 1326.4,-138.334 1315.81,-137.875 1317.83,-144.576"/>
</g>
<!-- 476_25 -->
<g id="node47" class="node"><title>476_25</title>
<ellipse fill="white" stroke="black" cx="1456.31" cy="-127.79" rx="40.1111" ry="16.0303"/>
<text text-anchor="middle" x="1456.31" y="-124.09" font-family="Times,serif" font-size="14.00">476_25</text>
</g>
<!-- 476_20x476_11&#45;&gt;476_25 -->
<g id="edge47" class="edge"><title>476_20x476_11&#45;&gt;476_25</title>
<path fill="none" stroke="black" d="M1173.64,-182.292C1191.74,-180.239 1311.29,-166.234 1406.31,-144.054 1409.53,-143.301 1412.85,-142.452 1416.18,-141.551"/>
<polygon fill="black" stroke="black" points="1417.42,-144.837 1426.07,-138.729 1415.5,-138.105 1417.42,-144.837"/>
</g>
<!-- 476_36 -->
<g id="node3" class="node"><title>476_36</title>
<ellipse fill="#66cdaa" stroke="black" cx="182.305" cy="-239.317" rx="40.1111" ry="16.0303"/>
<text text-anchor="middle" x="182.305" y="-235.617" font-family="Times,serif" font-size="14.00">476_36</text>
</g>
<!-- 476_10x476_36 -->
<g id="node4" class="node"><title>476_10x476_36</title>
<polygon fill="none" stroke="black" points="182.305,-187.054 178.805,-183.554 182.305,-180.054 185.805,-183.554 182.305,-187.054"/>
</g>
<!-- 476_36&#45;&gt;476_10x476_36 -->
<g id="edge2" class="edge"><title>476_36&#45;&gt;476_10x476_36</title>
<path fill="none" stroke="black" d="M182.305,-222.767C182.305,-214.661 182.305,-204.872 182.305,-197.232"/>
<polygon fill="black" stroke="black" points="185.805,-197.077 182.305,-187.077 178.805,-197.077 185.805,-197.077"/>
</g>
<!-- 476_37 -->
<g id="node36" class="node"><title>476_37</title>
<ellipse fill="#66cdaa" stroke="black" cx="139.305" cy="-127.79" rx="40.1111" ry="16.0303"/>
<text text-anchor="middle" x="139.305" y="-124.09" font-family="Times,serif" font-size="14.00">476_37</text>
</g>
<!-- 476_10x476_36&#45;&gt;476_37 -->
<g id="edge34" class="edge"><title>476_10x476_36&#45;&gt;476_37</title>
<path fill="none" stroke="black" d="M180.874,-180.765C177.157,-176.117 166.822,-163.196 157.389,-151.401"/>
<polygon fill="black" stroke="black" points="160.073,-149.154 151.094,-143.53 154.607,-153.526 160.073,-149.154"/>
</g>
<!-- 476_38 -->
<g id="node37" class="node"><title>476_38</title>
<polygon fill="#66cdaa" stroke="black" points="254.805,-139.29 197.805,-139.29 197.805,-116.29 254.805,-116.29 254.805,-139.29"/>
<text text-anchor="middle" x="226.305" y="-124.09" font-family="Times,serif" font-size="14.00">476_38</text>
</g>
<!-- 476_10x476_36&#45;&gt;476_38 -->
<g id="edge35" class="edge"><title>476_10x476_36&#45;&gt;476_38</title>
<path fill="none" stroke="black" d="M183.769,-180.765C188.026,-175.564 200.759,-160.005 211.193,-147.256"/>
<polygon fill="black" stroke="black" points="213.981,-149.376 217.606,-139.42 208.564,-144.942 213.981,-149.376"/>
</g>
<!-- 476_39 -->
<g id="node42" class="node"><title>476_39</title>
<ellipse fill="#66cdaa" stroke="black" cx="40.3051" cy="-127.79" rx="40.1111" ry="16.0303"/>
<text text-anchor="middle" x="40.3051" y="-124.09" font-family="Times,serif" font-size="14.00">476_39</text>
</g>
<!-- 476_10x476_36&#45;&gt;476_39 -->
<g id="edge41" class="edge"><title>476_10x476_36&#45;&gt;476_39</title>
<path fill="none" stroke="black" d="M180.298,-181.794C169.343,-177.646 115.901,-157.412 78.3166,-143.182"/>
<polygon fill="black" stroke="black" points="79.2538,-139.795 68.6624,-139.527 76.7752,-146.341 79.2538,-139.795"/>
</g>
<!-- 476_8 -->
<g id="node5" class="node"><title>476_8</title>
<ellipse fill="#66cdaa" stroke="black" cx="1237.31" cy="-239.317" rx="35.2113" ry="16.0303"/>
<text text-anchor="middle" x="1237.31" y="-235.617" font-family="Times,serif" font-size="14.00">476_8</text>
</g>
<!-- 476_1x476_2 -->
<g id="node6" class="node"><title>476_1x476_2</title>
<polygon fill="none" stroke="black" points="967.305,-298.581 963.805,-295.081 967.305,-291.581 970.805,-295.081 967.305,-298.581"/>
</g>
<!-- 476_1x476_2&#45;&gt;476_8 -->
<g id="edge3" class="edge"><title>476_1x476_2&#45;&gt;476_8</title>
<path fill="none" stroke="black" d="M970.027,-293.79C988.975,-291.729 1103.1,-278.742 1193.31,-255.581 1195.93,-254.907 1198.62,-254.147 1201.32,-253.336"/>
<polygon fill="black" stroke="black" points="1202.54,-256.621 1211,-250.236 1200.41,-249.955 1202.54,-256.621"/>
</g>
<!-- 476_7 -->
<g id="node11" class="node"><title>476_7</title>
<ellipse fill="dimgrey" stroke="black" cx="1364.31" cy="-239.317" rx="35.2113" ry="16.0303"/>
<text text-anchor="middle" x="1364.31" y="-235.617" font-family="Times,serif" font-size="14.00">476_7</text>
</g>
<!-- 476_1x476_2&#45;&gt;476_7 -->
<g id="edge6" class="edge"><title>476_1x476_2&#45;&gt;476_7</title>
<path fill="none" stroke="black" d="M969.828,-293.83C991.739,-291.639 1152.1,-275.364 1281.31,-255.581 1294.68,-253.534 1309.2,-250.978 1322.3,-248.547"/>
<polygon fill="black" stroke="black" points="1323.27,-251.925 1332.46,-246.636 1321.98,-245.045 1323.27,-251.925"/>
</g>
<!-- 476_9 -->
<g id="node18" class="node"><title>476_9</title>
<ellipse fill="#66cdaa" stroke="black" cx="482.305" cy="-239.317" rx="35.2113" ry="16.0303"/>
<text text-anchor="middle" x="482.305" y="-235.617" font-family="Times,serif" font-size="14.00">476_9</text>
</g>
<!-- 476_1x476_2&#45;&gt;476_9 -->
<g id="edge13" class="edge"><title>476_1x476_2&#45;&gt;476_9</title>
<path fill="none" stroke="black" d="M964.466,-294.1C936.45,-294.236 706.683,-294.12 526.305,-255.581 523.654,-255.014 520.942,-254.334 518.231,-253.58"/>
<polygon fill="black" stroke="black" points="519.116,-250.191 508.529,-250.596 517.058,-256.881 519.116,-250.191"/>
</g>
<!-- 476_10 -->
<g id="node21" class="node"><title>476_10</title>
<polygon fill="#66cdaa" stroke="black" points="592.805,-250.817 535.805,-250.817 535.805,-227.817 592.805,-227.817 592.805,-250.817"/>
<text text-anchor="middle" x="564.305" y="-235.617" font-family="Times,serif" font-size="14.00">476_10</text>
</g>
<!-- 476_1x476_2&#45;&gt;476_10 -->
<g id="edge16" class="edge"><title>476_1x476_2&#45;&gt;476_10</title>
<path fill="none" stroke="black" d="M964.645,-294.08C940.067,-294.014 750.102,-292.301 602.305,-255.581 600.645,-255.168 598.961,-254.698 597.273,-254.186"/>
<polygon fill="black" stroke="black" points="598.281,-250.831 587.686,-250.881 596,-257.449 598.281,-250.831"/>
</g>
<!-- 476_3 -->
<g id="node25" class="node"><title>476_3</title>
<ellipse fill="#66cdaa" stroke="black" cx="748.305" cy="-239.317" rx="35.2113" ry="16.0303"/>
<text text-anchor="middle" x="748.305" y="-235.617" font-family="Times,serif" font-size="14.00">476_3</text>
</g>
<!-- 476_1x476_2&#45;&gt;476_3 -->
<g id="edge22" class="edge"><title>476_1x476_2&#45;&gt;476_3</title>
<path fill="none" stroke="black" d="M964.827,-293.638C949.172,-290.821 862.437,-274.891 793.305,-255.581 790.549,-254.811 787.714,-253.969 784.871,-253.09"/>
<polygon fill="black" stroke="black" points="785.875,-249.736 775.283,-250.002 783.729,-256.399 785.875,-249.736"/>
</g>
<!-- 476_99 -->
<g id="node26" class="node"><title>476_99</title>
<ellipse fill="dimgrey" stroke="black" cx="842.305" cy="-239.317" rx="40.1111" ry="16.0303"/>
<text text-anchor="middle" x="842.305" y="-235.617" font-family="Times,serif" font-size="14.00">476_99</text>
</g>
<!-- 476_1x476_2&#45;&gt;476_99 -->
<g id="edge23" class="edge"><title>476_1x476_2&#45;&gt;476_99</title>
<path fill="none" stroke="black" d="M965.538,-293.321C956.112,-289.267 910.95,-269.842 878.021,-255.679"/>
<polygon fill="black" stroke="black" points="879.243,-252.395 868.674,-251.659 876.477,-258.825 879.243,-252.395"/>
</g>
<!-- 476_6 -->
<g id="node28" class="node"><title>476_6</title>
<polygon fill="#66cdaa" stroke="black" points="950.305,-250.817 900.305,-250.817 900.305,-227.817 950.305,-227.817 950.305,-250.817"/>
<text text-anchor="middle" x="925.305" y="-235.617" font-family="Times,serif" font-size="14.00">476_6</text>
</g>
<!-- 476_1x476_2&#45;&gt;476_6 -->
<g id="edge25" class="edge"><title>476_1x476_2&#45;&gt;476_6</title>
<path fill="none" stroke="black" d="M965.908,-292.292C961.883,-287.14 949.921,-271.827 940.015,-259.148"/>
<polygon fill="black" stroke="black" points="942.524,-256.673 933.609,-250.947 937.007,-260.982 942.524,-256.673"/>
</g>
<!-- 476_4 -->
<g id="node41" class="node"><title>476_4</title>
<polygon fill="#66cdaa" stroke="black" points="1116.31,-250.817 1066.31,-250.817 1066.31,-227.817 1116.31,-227.817 1116.31,-250.817"/>
<text text-anchor="middle" x="1091.31" y="-235.617" font-family="Times,serif" font-size="14.00">476_4</text>
</g>
<!-- 476_1x476_2&#45;&gt;476_4 -->
<g id="edge40" class="edge"><title>476_1x476_2&#45;&gt;476_4</title>
<path fill="none" stroke="black" d="M969.538,-293.143C979.682,-288.878 1022.44,-270.863 1057.31,-255.581 1057.73,-255.392 1058.17,-255.203 1058.6,-255.011"/>
<polygon fill="black" stroke="black" points="1060.19,-258.134 1067.92,-250.882 1057.36,-251.735 1060.19,-258.134"/>
</g>
<!-- 476_11 -->
<g id="node44" class="node"><title>476_11</title>
<ellipse fill="#66cdaa" stroke="black" cx="1008.31" cy="-239.317" rx="40.1111" ry="16.0303"/>
<text text-anchor="middle" x="1008.31" y="-235.617" font-family="Times,serif" font-size="14.00">476_11</text>
</g>
<!-- 476_1x476_2&#45;&gt;476_11 -->
<g id="edge43" class="edge"><title>476_1x476_2&#45;&gt;476_11</title>
<path fill="none" stroke="black" d="M968.669,-292.292C972.18,-287.688 981.879,-274.97 990.803,-263.268"/>
<polygon fill="black" stroke="black" points="993.783,-265.131 997.064,-255.057 988.217,-260.887 993.783,-265.131"/>
</g>
<!-- 476_5 -->
<g id="node49" class="node"><title>476_5</title>
<polygon fill="#66cdaa" stroke="black" points="1184.31,-250.817 1134.31,-250.817 1134.31,-227.817 1184.31,-227.817 1184.31,-250.817"/>
<text text-anchor="middle" x="1159.31" y="-235.617" font-family="Times,serif" font-size="14.00">476_5</text>
</g>
<!-- 476_1x476_2&#45;&gt;476_5 -->
<g id="edge49" class="edge"><title>476_1x476_2&#45;&gt;476_5</title>
<path fill="none" stroke="black" d="M969.577,-293.689C983.925,-291.186 1063.35,-276.836 1125.31,-255.581 1126.16,-255.287 1127.03,-254.979 1127.9,-254.661"/>
<polygon fill="black" stroke="black" points="1129.24,-257.892 1137.23,-250.928 1126.64,-251.393 1129.24,-257.892"/>
</g>
<!-- 476_28 -->
<g id="node7" class="node"><title>476_28</title>
<ellipse fill="white" stroke="black" cx="651.305" cy="-239.317" rx="40.1111" ry="16.0303"/>
<text text-anchor="middle" x="651.305" y="-235.617" font-family="Times,serif" font-size="14.00">476_28</text>
</g>
<!-- 476_10x476_28 -->
<g id="node8" class="node"><title>476_10x476_28</title>
<polygon fill="none" stroke="black" points="564.305,-187.054 560.805,-183.554 564.305,-180.054 567.805,-183.554 564.305,-187.054"/>
</g>
<!-- 476_28&#45;&gt;476_10x476_28 -->
<g id="edge4" class="edge"><title>476_28&#45;&gt;476_10x476_28</title>
<path fill="none" stroke="black" d="M630.245,-225.303C612.644,-214.426 588.293,-199.378 574.646,-190.944"/>
<polygon fill="black" stroke="black" points="576.429,-187.932 566.082,-185.652 572.749,-193.886 576.429,-187.932"/>
</g>
<!-- 476_29 -->
<g id="node12" class="node"><title>476_29</title>
<ellipse fill="white" stroke="black" cx="562.305" cy="-127.79" rx="40.1111" ry="16.0303"/>
<text text-anchor="middle" x="562.305" y="-124.09" font-family="Times,serif" font-size="14.00">476_29</text>
</g>
<!-- 476_10x476_28&#45;&gt;476_29 -->
<g id="edge8" class="edge"><title>476_10x476_28&#45;&gt;476_29</title>
<path fill="none" stroke="black" d="M564.209,-179.961C564.031,-175.178 563.634,-164.508 563.248,-154.142"/>
<polygon fill="black" stroke="black" points="566.744,-153.97 562.875,-144.107 559.749,-154.23 566.744,-153.97"/>
</g>
<!-- 476_30 -->
<g id="node17" class="node"><title>476_30</title>
<ellipse fill="#66cdaa" stroke="black" cx="661.305" cy="-127.79" rx="40.1111" ry="16.0303"/>
<text text-anchor="middle" x="661.305" y="-124.09" font-family="Times,serif" font-size="14.00">476_30</text>
</g>
<!-- 476_10x476_28&#45;&gt;476_30 -->
<g id="edge12" class="edge"><title>476_10x476_28&#45;&gt;476_30</title>
<path fill="none" stroke="black" d="M565.989,-181.621C573.562,-177.423 605.179,-159.899 629.949,-146.17"/>
<polygon fill="black" stroke="black" points="631.659,-149.224 638.708,-141.315 628.265,-143.102 631.659,-149.224"/>
</g>
<!-- 476_32 -->
<g id="node27" class="node"><title>476_32</title>
<polygon fill="dimgrey" stroke="black" points="776.805,-139.29 719.805,-139.29 719.805,-116.29 776.805,-116.29 776.805,-139.29"/>
<text text-anchor="middle" x="748.305" y="-124.09" font-family="Times,serif" font-size="14.00">476_32</text>
</g>
<!-- 476_10x476_28&#45;&gt;476_32 -->
<g id="edge24" class="edge"><title>476_10x476_28&#45;&gt;476_32</title>
<path fill="none" stroke="black" d="M566.392,-182.106C579.572,-179.259 652.574,-163.178 710.305,-144.054 711.351,-143.707 712.41,-143.347 713.476,-142.975"/>
<polygon fill="black" stroke="black" points="714.953,-146.161 723.121,-139.414 712.528,-139.594 714.953,-146.161"/>
</g>
<!-- 476_33 -->
<g id="node32" class="node"><title>476_33</title>
<polygon fill="white" stroke="black" points="851.805,-139.29 794.805,-139.29 794.805,-116.29 851.805,-116.29 851.805,-139.29"/>
<text text-anchor="middle" x="823.305" y="-124.09" font-family="Times,serif" font-size="14.00">476_33</text>
</g>
<!-- 476_10x476_28&#45;&gt;476_33 -->
<g id="edge30" class="edge"><title>476_10x476_28&#45;&gt;476_33</title>
<path fill="none" stroke="black" d="M566.979,-182.302C585.592,-180.508 697.651,-168.995 785.305,-144.054 786.715,-143.653 788.145,-143.217 789.582,-142.755"/>
<polygon fill="black" stroke="black" points="790.777,-146.045 799.038,-139.411 788.443,-139.445 790.777,-146.045"/>
</g>
<!-- 476_34 -->
<g id="node33" class="node"><title>476_34</title>
<polygon fill="white" stroke="black" points="329.805,-139.29 272.805,-139.29 272.805,-116.29 329.805,-116.29 329.805,-139.29"/>
<text text-anchor="middle" x="301.305" y="-124.09" font-family="Times,serif" font-size="14.00">476_34</text>
</g>
<!-- 476_10x476_28&#45;&gt;476_34 -->
<g id="edge31" class="edge"><title>476_10x476_28&#45;&gt;476_34</title>
<path fill="none" stroke="black" d="M561.568,-182.32C542.515,-180.645 427.813,-169.792 338.305,-144.054 337.065,-143.697 335.811,-143.312 334.551,-142.905"/>
<polygon fill="black" stroke="black" points="335.506,-139.529 324.912,-139.439 333.138,-146.116 335.506,-139.529"/>
</g>
<!-- 476_35 -->
<g id="node34" class="node"><title>476_35</title>
<polygon fill="#66cdaa" stroke="black" points="404.805,-139.29 347.805,-139.29 347.805,-116.29 404.805,-116.29 404.805,-139.29"/>
<text text-anchor="middle" x="376.305" y="-124.09" font-family="Times,serif" font-size="14.00">476_35</text>
</g>
<!-- 476_10x476_28&#45;&gt;476_35 -->
<g id="edge32" class="edge"><title>476_10x476_28&#45;&gt;476_35</title>
<path fill="none" stroke="black" d="M562.16,-182.114C548.613,-179.315 473.58,-163.473 414.305,-144.054 413.258,-143.711 412.198,-143.353 411.131,-142.984"/>
<polygon fill="black" stroke="black" points="412.075,-139.602 401.481,-139.437 409.66,-146.173 412.075,-139.602"/>
</g>
<!-- 476_31 -->
<g id="node48" class="node"><title>476_31</title>
<ellipse fill="#66cdaa" stroke="black" cx="463.305" cy="-127.79" rx="40.1111" ry="16.0303"/>
<text text-anchor="middle" x="463.305" y="-124.09" font-family="Times,serif" font-size="14.00">476_31</text>
</g>
<!-- 476_10x476_28&#45;&gt;476_31 -->
<g id="edge48" class="edge"><title>476_10x476_28&#45;&gt;476_31</title>
<path fill="none" stroke="black" d="M562.552,-181.621C554.667,-177.423 521.745,-159.899 495.954,-146.17"/>
<polygon fill="black" stroke="black" points="497.306,-142.924 486.834,-141.315 494.016,-149.103 497.306,-142.924"/>
</g>
<!-- 476_13 -->
<g id="node9" class="node"><title>476_13</title>
<polygon fill="white" stroke="black" points="1670.81,-139.29 1613.81,-139.29 1613.81,-116.29 1670.81,-116.29 1670.81,-139.29"/>
<text text-anchor="middle" x="1642.31" y="-124.09" font-family="Times,serif" font-size="14.00">476_13</text>
</g>
<!-- 476_15x476_7 -->
<g id="node10" class="node"><title>476_15x476_7</title>
<polygon fill="none" stroke="black" points="1555.31,-187.054 1551.81,-183.554 1555.31,-180.054 1558.81,-183.554 1555.31,-187.054"/>
</g>
<!-- 476_15x476_7&#45;&gt;476_13 -->
<g id="edge5" class="edge"><title>476_15x476_7&#45;&gt;476_13</title>
<path fill="none" stroke="black" d="M1557.12,-181.431C1564.67,-176.766 1594.2,-158.519 1616.39,-144.806"/>
<polygon fill="black" stroke="black" points="1618.4,-147.679 1625.06,-139.444 1614.72,-141.724 1618.4,-147.679"/>
</g>
<!-- 476_14 -->
<g id="node22" class="node"><title>476_14</title>
<polygon fill="white" stroke="black" points="1745.81,-139.29 1688.81,-139.29 1688.81,-116.29 1745.81,-116.29 1745.81,-139.29"/>
<text text-anchor="middle" x="1717.31" y="-124.09" font-family="Times,serif" font-size="14.00">476_14</text>
</g>
<!-- 476_15x476_7&#45;&gt;476_14 -->
<g id="edge19" class="edge"><title>476_15x476_7&#45;&gt;476_14</title>
<path fill="none" stroke="black" d="M1557.37,-181.98C1569.29,-178.657 1630.45,-161.417 1679.31,-144.054 1680.18,-143.741 1681.07,-143.421 1681.97,-143.094"/>
<polygon fill="black" stroke="black" points="1683.55,-146.238 1691.66,-139.419 1681.07,-139.693 1683.55,-146.238"/>
</g>
<!-- 476_12 -->
<g id="node38" class="node"><title>476_12</title>
<ellipse fill="white" stroke="black" cx="1555.31" cy="-127.79" rx="40.1111" ry="16.0303"/>
<text text-anchor="middle" x="1555.31" y="-124.09" font-family="Times,serif" font-size="14.00">476_12</text>
</g>
<!-- 476_15x476_7&#45;&gt;476_12 -->
<g id="edge36" class="edge"><title>476_15x476_7&#45;&gt;476_12</title>
<path fill="none" stroke="black" d="M1555.31,-179.961C1555.31,-175.178 1555.31,-164.508 1555.31,-154.142"/>
<polygon fill="black" stroke="black" points="1558.81,-154.107 1555.31,-144.107 1551.81,-154.107 1558.81,-154.107"/>
</g>
<!-- 476_7&#45;&gt;476_15x476_7 -->
<g id="edge7" class="edge"><title>476_7&#45;&gt;476_15x476_7</title>
<path fill="none" stroke="black" d="M1393.73,-230.035C1436.39,-218.026 1513.55,-196.307 1543.23,-187.954"/>
<polygon fill="black" stroke="black" points="1544.34,-191.277 1553.02,-185.198 1542.44,-184.539 1544.34,-191.277"/>
</g>
<!-- 476_16 -->
<g id="node15" class="node"><title>476_16</title>
<polygon fill="#66cdaa" stroke="black" points="1820.81,-139.29 1763.81,-139.29 1763.81,-116.29 1820.81,-116.29 1820.81,-139.29"/>
<text text-anchor="middle" x="1792.31" y="-124.09" font-family="Times,serif" font-size="14.00">476_16</text>
</g>
<!-- 476_16x476_12 -->
<g id="node16" class="node"><title>476_16x476_12</title>
<polygon fill="none" stroke="black" points="1673.31,-75.5269 1669.81,-72.0269 1673.31,-68.5269 1676.81,-72.0269 1673.31,-75.5269"/>
</g>
<!-- 476_16&#45;&gt;476_16x476_12 -->
<g id="edge11" class="edge"><title>476_16&#45;&gt;476_16x476_12</title>
<path fill="none" stroke="black" d="M1768.79,-116.168C1743.24,-104.621 1703.48,-86.6613 1684.34,-78.0133"/>
<polygon fill="black" stroke="black" points="1685.65,-74.7636 1675.1,-73.8359 1682.77,-81.1428 1685.65,-74.7636"/>
</g>
<!-- 476_17 -->
<g id="node24" class="node"><title>476_17</title>
<ellipse fill="#66cdaa" stroke="black" cx="1586.31" cy="-16.2635" rx="40.1111" ry="16.0303"/>
<text text-anchor="middle" x="1586.31" y="-12.5635" font-family="Times,serif" font-size="14.00">476_17</text>
</g>
<!-- 476_16x476_12&#45;&gt;476_17 -->
<g id="edge21" class="edge"><title>476_16x476_12&#45;&gt;476_17</title>
<path fill="none" stroke="black" d="M1671.49,-69.904C1664.37,-65.5039 1637.7,-49.0213 1616.07,-35.6574"/>
<polygon fill="black" stroke="black" points="1617.83,-32.6306 1607.48,-30.351 1614.15,-38.5854 1617.83,-32.6306"/>
</g>
<!-- 476_19 -->
<g id="node40" class="node"><title>476_19</title>
<polygon fill="#66cdaa" stroke="black" points="1701.81,-27.7635 1644.81,-27.7635 1644.81,-4.76346 1701.81,-4.76346 1701.81,-27.7635"/>
<text text-anchor="middle" x="1673.31" y="-12.5635" font-family="Times,serif" font-size="14.00">476_19</text>
</g>
<!-- 476_16x476_12&#45;&gt;476_19 -->
<g id="edge39" class="edge"><title>476_16x476_12&#45;&gt;476_19</title>
<path fill="none" stroke="black" d="M1673.31,-68.4338C1673.31,-62.9657 1673.31,-49.8005 1673.31,-38.1938"/>
<polygon fill="black" stroke="black" points="1676.81,-37.8452 1673.31,-27.8453 1669.81,-37.8453 1676.81,-37.8452"/>
</g>
<!-- 476_18 -->
<g id="node43" class="node"><title>476_18</title>
<ellipse fill="white" stroke="black" cx="1760.31" cy="-16.2635" rx="40.1111" ry="16.0303"/>
<text text-anchor="middle" x="1760.31" y="-12.5635" font-family="Times,serif" font-size="14.00">476_18</text>
</g>
<!-- 476_16x476_12&#45;&gt;476_18 -->
<g id="edge42" class="edge"><title>476_16x476_12&#45;&gt;476_18</title>
<path fill="none" stroke="black" d="M1675.12,-69.904C1682.24,-65.5039 1708.91,-49.0213 1730.54,-35.6574"/>
<polygon fill="black" stroke="black" points="1732.46,-38.5854 1739.13,-30.351 1728.78,-32.6306 1732.46,-38.5854"/>
</g>
<!-- 476_20 -->
<g id="node19" class="node"><title>476_20</title>
<polygon fill="#66cdaa" stroke="black" points="1493.81,-250.817 1436.81,-250.817 1436.81,-227.817 1493.81,-227.817 1493.81,-250.817"/>
<text text-anchor="middle" x="1465.31" y="-235.617" font-family="Times,serif" font-size="14.00">476_20</text>
</g>
<!-- 476_20&#45;&gt;476_20x476_11 -->
<g id="edge15" class="edge"><title>476_20&#45;&gt;476_20x476_11</title>
<path fill="none" stroke="black" d="M1436.74,-230.064C1427.69,-227.613 1417.62,-225.052 1408.31,-223.054 1323.01,-204.755 1218.8,-190.646 1183.59,-186.105"/>
<polygon fill="black" stroke="black" points="1184.02,-182.632 1173.66,-184.844 1183.14,-189.576 1184.02,-182.632"/>
</g>
<!-- 476_21x476_22 -->
<g id="node20" class="node"><title>476_21x476_22</title>
<polygon fill="none" stroke="black" points="1507.31,-298.581 1503.81,-295.081 1507.31,-291.581 1510.81,-295.081 1507.31,-298.581"/>
</g>
<!-- 476_21x476_22&#45;&gt;476_20 -->
<g id="edge14" class="edge"><title>476_21x476_22&#45;&gt;476_20</title>
<path fill="none" stroke="black" d="M1505.91,-292.292C1501.88,-287.14 1489.92,-271.827 1480.02,-259.148"/>
<polygon fill="black" stroke="black" points="1482.52,-256.673 1473.61,-250.947 1477.01,-260.982 1482.52,-256.673"/>
</g>
<!-- 476_15 -->
<g id="node30" class="node"><title>476_15</title>
<polygon fill="#66cdaa" stroke="black" points="1578.81,-250.817 1521.81,-250.817 1521.81,-227.817 1578.81,-227.817 1578.81,-250.817"/>
<text text-anchor="middle" x="1550.31" y="-235.617" font-family="Times,serif" font-size="14.00">476_15</text>
</g>
<!-- 476_21x476_22&#45;&gt;476_15 -->
<g id="edge27" class="edge"><title>476_21x476_22&#45;&gt;476_15</title>
<path fill="none" stroke="black" d="M1508.74,-292.292C1512.9,-287.091 1525.34,-271.532 1535.54,-258.783"/>
<polygon fill="black" stroke="black" points="1538.29,-260.943 1541.8,-250.947 1532.82,-256.571 1538.29,-260.943"/>
</g>
<!-- 476_10&#45;&gt;476_10x476_36 -->
<g id="edge18" class="edge"><title>476_10&#45;&gt;476_10x476_36</title>
<path fill="none" stroke="black" d="M540.918,-227.778C536.159,-225.961 531.131,-224.269 526.305,-223.054 399.812,-191.199 240.515,-185.685 194.981,-184.744"/>
<polygon fill="black" stroke="black" points="194.868,-181.242 184.812,-184.577 194.753,-188.241 194.868,-181.242"/>
</g>
<!-- 476_10&#45;&gt;476_10x476_28 -->
<g id="edge17" class="edge"><title>476_10&#45;&gt;476_10x476_28</title>
<path fill="none" stroke="black" d="M564.305,-227.695C564.305,-218.943 564.305,-206.507 564.305,-197.234"/>
<polygon fill="black" stroke="black" points="567.805,-197.192 564.305,-187.192 560.805,-197.193 567.805,-197.192"/>
</g>
<!-- 476_15&#45;&gt;476_15x476_7 -->
<g id="edge28" class="edge"><title>476_15&#45;&gt;476_15x476_7</title>
<path fill="none" stroke="black" d="M1551.29,-227.695C1552.11,-218.943 1553.26,-206.507 1554.13,-197.234"/>
<polygon fill="black" stroke="black" points="1557.62,-197.474 1555.06,-187.192 1550.65,-196.825 1557.62,-197.474"/>
</g>
<!-- 476_21 -->
<g id="node31" class="node"><title>476_21</title>
<polygon fill="#66cdaa" stroke="black" points="1492.81,-362.344 1435.81,-362.344 1435.81,-339.344 1492.81,-339.344 1492.81,-362.344"/>
<text text-anchor="middle" x="1464.31" y="-347.144" font-family="Times,serif" font-size="14.00">476_21</text>
</g>
<!-- 476_21&#45;&gt;476_21x476_22 -->
<g id="edge29" class="edge"><title>476_21&#45;&gt;476_21x476_22</title>
<path fill="none" stroke="black" d="M1472.8,-339.222C1480.63,-329.439 1492.13,-315.054 1499.67,-305.627"/>
<polygon fill="black" stroke="black" points="1502.58,-307.597 1506.09,-297.601 1497.11,-303.225 1502.58,-307.597"/>
</g>
<!-- 476_2 -->
<g id="node35" class="node"><title>476_2</title>
<ellipse fill="#66cdaa" stroke="black" cx="928.305" cy="-350.844" rx="35.2113" ry="16.0303"/>
<text text-anchor="middle" x="928.305" y="-347.144" font-family="Times,serif" font-size="14.00">476_2</text>
</g>
<!-- 476_2&#45;&gt;476_1x476_2 -->
<g id="edge33" class="edge"><title>476_2&#45;&gt;476_1x476_2</title>
<path fill="none" stroke="black" d="M938.962,-335.153C945.736,-325.814 954.317,-313.985 960.253,-305.802"/>
<polygon fill="black" stroke="black" points="963.12,-307.81 966.159,-297.661 957.454,-303.7 963.12,-307.81"/>
</g>
<!-- 476_12&#45;&gt;476_16x476_12 -->
<g id="edge37" class="edge"><title>476_12&#45;&gt;476_16x476_12</title>
<path fill="none" stroke="black" d="M1580.91,-115.124C1606.14,-103.627 1643.53,-86.5929 1662.06,-78.1522"/>
<polygon fill="black" stroke="black" points="1663.69,-81.2534 1671.34,-73.9222 1660.79,-74.8834 1663.69,-81.2534"/>
</g>
<!-- 476_22 -->
<g id="node39" class="node"><title>476_22</title>
<ellipse fill="#66cdaa" stroke="black" cx="1551.31" cy="-350.844" rx="40.1111" ry="16.0303"/>
<text text-anchor="middle" x="1551.31" y="-347.144" font-family="Times,serif" font-size="14.00">476_22</text>
</g>
<!-- 476_22&#45;&gt;476_21x476_22 -->
<g id="edge38" class="edge"><title>476_22&#45;&gt;476_21x476_22</title>
<path fill="none" stroke="black" d="M1539.28,-335.153C1531.55,-325.709 1521.74,-313.719 1515.04,-305.527"/>
<polygon fill="black" stroke="black" points="1517.64,-303.183 1508.6,-297.661 1512.22,-307.616 1517.64,-303.183"/>
</g>
<!-- 476_11&#45;&gt;476_20x476_11 -->
<g id="edge44" class="edge"><title>476_11&#45;&gt;476_20x476_11</title>
<path fill="none" stroke="black" d="M1038.58,-228.331C1074.96,-216.332 1134.24,-196.781 1159.4,-188.48"/>
<polygon fill="black" stroke="black" points="1160.75,-191.721 1169.15,-185.264 1158.56,-185.073 1160.75,-191.721"/>
</g>
<!-- 476_1 -->
<g id="node45" class="node"><title>476_1</title>
<polygon fill="#66cdaa" stroke="black" points="1031.31,-362.344 981.305,-362.344 981.305,-339.344 1031.31,-339.344 1031.31,-362.344"/>
<text text-anchor="middle" x="1006.31" y="-347.144" font-family="Times,serif" font-size="14.00">476_1</text>
</g>
<!-- 476_1&#45;&gt;476_1x476_2 -->
<g id="edge45" class="edge"><title>476_1&#45;&gt;476_1x476_2</title>
<path fill="none" stroke="black" d="M998.6,-339.222C991.58,-329.544 981.292,-315.363 974.452,-305.933"/>
<polygon fill="black" stroke="black" points="977.113,-303.641 968.408,-297.601 971.447,-307.751 977.113,-303.641"/>
</g>
</g>
</svg>
