<?xml version="1.0" encoding="UTF-8" standalone="no"?>
<!DOCTYPE svg PUBLIC "-//W3C//DTD SVG 1.1//EN"
 "http://www.w3.org/Graphics/SVG/1.1/DTD/svg11.dtd">
<!-- Generated by graphviz version 2.38.0 (20140413.2041)
 -->
<!-- Title: %3 Pages: 1 -->
<svg width="464pt" height="264pt"
 viewBox="0.00 0.00 463.51 263.58" xmlns="http://www.w3.org/2000/svg" xmlns:xlink="http://www.w3.org/1999/xlink">
<g id="graph0" class="graph" transform="scale(1 1) rotate(0) translate(4 259.581)">
<title>%3</title>
<polygon fill="white" stroke="none" points="-4,4 -4,-259.581 459.51,-259.581 459.51,4 -4,4"/>
<!-- 2_13_10 -->
<g id="node1" class="node"><title>2_13_10</title>
<ellipse fill="#66cdaa" stroke="black" cx="103.255" cy="-239.317" rx="45.011" ry="16.0303"/>
<text text-anchor="middle" x="103.255" y="-235.617" font-family="Times,serif" font-size="14.00">2_13_10</text>
</g>
<!-- 2_13_9x2_13_10 -->
<g id="node2" class="node"><title>2_13_9x2_13_10</title>
<polygon fill="none" stroke="black" points="149.255,-187.054 145.755,-183.554 149.255,-180.054 152.755,-183.554 149.255,-187.054"/>
</g>
<!-- 2_13_10&#45;&gt;2_13_9x2_13_10 -->
<g id="edge1" class="edge"><title>2_13_10&#45;&gt;2_13_9x2_13_10</title>
<path fill="none" stroke="black" d="M115.825,-223.626C123.905,-214.182 134.164,-202.192 141.172,-194"/>
<polygon fill="black" stroke="black" points="144.061,-196.008 147.903,-186.134 138.742,-191.457 144.061,-196.008"/>
</g>
<!-- 2_13_1 -->
<g id="node9" class="node"><title>2_13_1</title>
<ellipse fill="dimgrey" stroke="black" cx="149.255" cy="-127.79" rx="40.1111" ry="16.0303"/>
<text text-anchor="middle" x="149.255" y="-124.09" font-family="Times,serif" font-size="14.00">2_13_1</text>
</g>
<!-- 2_13_9x2_13_10&#45;&gt;2_13_1 -->
<g id="edge5" class="edge"><title>2_13_9x2_13_10&#45;&gt;2_13_1</title>
<path fill="none" stroke="black" d="M149.255,-179.961C149.255,-175.178 149.255,-164.508 149.255,-154.142"/>
<polygon fill="black" stroke="black" points="152.755,-154.107 149.255,-144.107 145.755,-154.107 152.755,-154.107"/>
</g>
<!-- 2_13_17 -->
<g id="node10" class="node"><title>2_13_17</title>
<polygon fill="dimgrey" stroke="black" points="347.255,-139.29 283.255,-139.29 283.255,-116.29 347.255,-116.29 347.255,-139.29"/>
<text text-anchor="middle" x="315.255" y="-124.09" font-family="Times,serif" font-size="14.00">2_13_17</text>
</g>
<!-- 2_13_9x2_13_10&#45;&gt;2_13_17 -->
<g id="edge7" class="edge"><title>2_13_9x2_13_10&#45;&gt;2_13_17</title>
<path fill="none" stroke="black" d="M151.312,-181.955C163.183,-178.491 224.12,-160.599 273.255,-144.054 274.496,-143.636 275.755,-143.207 277.026,-142.77"/>
<polygon fill="black" stroke="black" points="278.577,-145.935 286.853,-139.319 276.258,-139.33 278.577,-145.935"/>
</g>
<!-- 2_13_18 -->
<g id="node13" class="node"><title>2_13_18</title>
<ellipse fill="dimgrey" stroke="black" cx="45.2548" cy="-127.79" rx="45.011" ry="16.0303"/>
<text text-anchor="middle" x="45.2548" y="-124.09" font-family="Times,serif" font-size="14.00">2_13_18</text>
</g>
<!-- 2_13_9x2_13_10&#45;&gt;2_13_18 -->
<g id="edge11" class="edge"><title>2_13_9x2_13_10&#45;&gt;2_13_18</title>
<path fill="none" stroke="black" d="M147.45,-181.621C139.343,-177.43 105.536,-159.953 78.9974,-146.234"/>
<polygon fill="black" stroke="black" points="80.4578,-143.049 69.9673,-141.566 77.2432,-149.267 80.4578,-143.049"/>
</g>
<!-- 2_13_B1608 -->
<g id="node3" class="node"><title>2_13_B1608</title>
<polygon fill="white" stroke="black" points="328.255,-250.817 242.255,-250.817 242.255,-227.817 328.255,-227.817 328.255,-250.817"/>
<text text-anchor="middle" x="285.255" y="-235.617" font-family="Times,serif" font-size="14.00">2_13_B1608</text>
</g>
<!-- 2_13_9 -->
<g id="node4" class="node"><title>2_13_9</title>
<polygon fill="#66cdaa" stroke="black" points="223.755,-250.817 166.755,-250.817 166.755,-227.817 223.755,-227.817 223.755,-250.817"/>
<text text-anchor="middle" x="195.255" y="-235.617" font-family="Times,serif" font-size="14.00">2_13_9</text>
</g>
<!-- 2_13_9&#45;&gt;2_13_9x2_13_10 -->
<g id="edge2" class="edge"><title>2_13_9&#45;&gt;2_13_9x2_13_10</title>
<path fill="none" stroke="black" d="M186.167,-227.695C177.706,-217.807 165.223,-203.217 157.164,-193.798"/>
<polygon fill="black" stroke="black" points="159.717,-191.397 150.556,-186.074 154.398,-195.948 159.717,-191.397"/>
</g>
<!-- 2_13_5 -->
<g id="node5" class="node"><title>2_13_5</title>
<ellipse fill="white" stroke="black" cx="191.255" cy="-16.2635" rx="40.1111" ry="16.0303"/>
<text text-anchor="middle" x="191.255" y="-12.5635" font-family="Times,serif" font-size="14.00">2_13_5</text>
</g>
<!-- 2_13_2x2_13_1 -->
<g id="node6" class="node"><title>2_13_2x2_13_1</title>
<polygon fill="none" stroke="black" points="191.255,-75.5269 187.755,-72.0269 191.255,-68.5269 194.755,-72.0269 191.255,-75.5269"/>
</g>
<!-- 2_13_2x2_13_1&#45;&gt;2_13_5 -->
<g id="edge3" class="edge"><title>2_13_2x2_13_1&#45;&gt;2_13_5</title>
<path fill="none" stroke="black" d="M191.255,-68.4338C191.255,-63.6514 191.255,-52.9811 191.255,-42.6151"/>
<polygon fill="black" stroke="black" points="194.755,-42.5799 191.255,-32.58 187.755,-42.58 194.755,-42.5799"/>
</g>
<!-- 2_13_26 -->
<g id="node7" class="node"><title>2_13_26</title>
<ellipse fill="#66cdaa" stroke="black" cx="410.255" cy="-127.79" rx="45.011" ry="16.0303"/>
<text text-anchor="middle" x="410.255" y="-124.09" font-family="Times,serif" font-size="14.00">2_13_26</text>
</g>
<!-- 2_13_17x2_13_26 -->
<g id="node8" class="node"><title>2_13_17x2_13_26</title>
<polygon fill="none" stroke="black" points="319.255,-75.5269 315.755,-72.0269 319.255,-68.5269 322.755,-72.0269 319.255,-75.5269"/>
</g>
<!-- 2_13_26&#45;&gt;2_13_17x2_13_26 -->
<g id="edge4" class="edge"><title>2_13_26&#45;&gt;2_13_17x2_13_26</title>
<path fill="none" stroke="black" d="M387.76,-113.501C369.339,-102.617 344.091,-87.7 329.957,-79.3499"/>
<polygon fill="black" stroke="black" points="331.483,-76.1863 321.093,-74.113 327.922,-82.2131 331.483,-76.1863"/>
</g>
<!-- 2_13_4 -->
<g id="node11" class="node"><title>2_13_4</title>
<polygon fill="white" stroke="black" points="347.755,-27.7635 290.755,-27.7635 290.755,-4.76346 347.755,-4.76346 347.755,-27.7635"/>
<text text-anchor="middle" x="319.255" y="-12.5635" font-family="Times,serif" font-size="14.00">2_13_4</text>
</g>
<!-- 2_13_17x2_13_26&#45;&gt;2_13_4 -->
<g id="edge9" class="edge"><title>2_13_17x2_13_26&#45;&gt;2_13_4</title>
<path fill="none" stroke="black" d="M319.255,-68.4338C319.255,-62.9657 319.255,-49.8005 319.255,-38.1938"/>
<polygon fill="black" stroke="black" points="322.755,-37.8452 319.255,-27.8453 315.755,-37.8453 322.755,-37.8452"/>
</g>
<!-- 2_13_1&#45;&gt;2_13_2x2_13_1 -->
<g id="edge6" class="edge"><title>2_13_1&#45;&gt;2_13_2x2_13_1</title>
<path fill="none" stroke="black" d="M160.732,-112.099C168.027,-102.76 177.268,-90.9312 183.661,-82.748"/>
<polygon fill="black" stroke="black" points="186.623,-84.642 190.021,-74.6068 181.106,-80.3326 186.623,-84.642"/>
</g>
<!-- 2_13_17&#45;&gt;2_13_17x2_13_26 -->
<g id="edge8" class="edge"><title>2_13_17&#45;&gt;2_13_17x2_13_26</title>
<path fill="none" stroke="black" d="M316.045,-116.168C316.696,-107.416 317.621,-94.9805 318.311,-85.7075"/>
<polygon fill="black" stroke="black" points="321.807,-85.8977 319.059,-75.6656 314.826,-85.3783 321.807,-85.8977"/>
</g>
<!-- 2_13_2 -->
<g id="node12" class="node"><title>2_13_2</title>
<polygon fill="#66cdaa" stroke="black" points="264.755,-139.29 207.755,-139.29 207.755,-116.29 264.755,-116.29 264.755,-139.29"/>
<text text-anchor="middle" x="236.255" y="-124.09" font-family="Times,serif" font-size="14.00">2_13_2</text>
</g>
<!-- 2_13_2&#45;&gt;2_13_2x2_13_1 -->
<g id="edge10" class="edge"><title>2_13_2&#45;&gt;2_13_2x2_13_1</title>
<path fill="none" stroke="black" d="M227.364,-116.168C219.088,-106.28 206.876,-91.69 198.992,-82.2712"/>
<polygon fill="black" stroke="black" points="201.63,-79.9695 192.528,-74.5476 196.262,-84.4624 201.63,-79.9695"/>
</g>
</g>
</svg>
