<?xml version="1.0" encoding="UTF-8" standalone="no"?>
<!DOCTYPE svg PUBLIC "-//W3C//DTD SVG 1.1//EN"
 "http://www.w3.org/Graphics/SVG/1.1/DTD/svg11.dtd">
<!-- Generated by graphviz version 2.38.0 (20140413.2041)
 -->
<!-- Title: %3 Pages: 1 -->
<svg width="312pt" height="152pt"
 viewBox="0.00 0.00 311.50 152.05" xmlns="http://www.w3.org/2000/svg" xmlns:xlink="http://www.w3.org/1999/xlink">
<g id="graph0" class="graph" transform="scale(1 1) rotate(0) translate(4 148.054)">
<title>%3</title>
<polygon fill="white" stroke="none" points="-4,4 -4,-148.054 307.5,-148.054 307.5,4 -4,4"/>
<!-- 2_17_2 -->
<g id="node1" class="node"><title>2_17_2</title>
<polygon fill="dimgrey" stroke="black" points="57,-27.7635 0,-27.7635 0,-4.76346 57,-4.76346 57,-27.7635"/>
<text text-anchor="middle" x="28.5" y="-12.5635" font-family="Times,serif" font-size="14.00">2_17_2</text>
</g>
<!-- 2_17_8x2_17_9 -->
<g id="node2" class="node"><title>2_17_8x2_17_9</title>
<polygon fill="none" stroke="black" points="115.5,-75.5269 112,-72.0269 115.5,-68.5269 119,-72.0269 115.5,-75.5269"/>
</g>
<!-- 2_17_8x2_17_9&#45;&gt;2_17_2 -->
<g id="edge1" class="edge"><title>2_17_8x2_17_9&#45;&gt;2_17_2</title>
<path fill="none" stroke="black" d="M113.683,-69.904C106.134,-65.2388 76.6061,-46.9916 54.4172,-33.2795"/>
<polygon fill="black" stroke="black" points="56.0871,-30.1971 45.7404,-27.9175 52.4072,-36.1518 56.0871,-30.1971"/>
</g>
<!-- 2_17_1 -->
<g id="node4" class="node"><title>2_17_1</title>
<ellipse fill="white" stroke="black" cx="115.5" cy="-16.2635" rx="40.1111" ry="16.0303"/>
<text text-anchor="middle" x="115.5" y="-12.5635" font-family="Times,serif" font-size="14.00">2_17_1</text>
</g>
<!-- 2_17_8x2_17_9&#45;&gt;2_17_1 -->
<g id="edge2" class="edge"><title>2_17_8x2_17_9&#45;&gt;2_17_1</title>
<path fill="none" stroke="black" d="M115.5,-68.4338C115.5,-63.6514 115.5,-52.9811 115.5,-42.6151"/>
<polygon fill="black" stroke="black" points="119,-42.5799 115.5,-32.58 112,-42.58 119,-42.5799"/>
</g>
<!-- 2_17_3 -->
<g id="node6" class="node"><title>2_17_3</title>
<ellipse fill="dimgrey" stroke="black" cx="214.5" cy="-16.2635" rx="40.1111" ry="16.0303"/>
<text text-anchor="middle" x="214.5" y="-12.5635" font-family="Times,serif" font-size="14.00">2_17_3</text>
</g>
<!-- 2_17_8x2_17_9&#45;&gt;2_17_3 -->
<g id="edge4" class="edge"><title>2_17_8x2_17_9&#45;&gt;2_17_3</title>
<path fill="none" stroke="black" d="M117.218,-70.0937C124.948,-65.8962 157.217,-48.3718 182.498,-34.6427"/>
<polygon fill="black" stroke="black" points="184.32,-37.6361 191.437,-29.788 180.979,-31.4847 184.32,-37.6361"/>
</g>
<!-- 2_17_B1220 -->
<g id="node3" class="node"><title>2_17_B1220</title>
<polygon fill="white" stroke="black" points="303.5,-139.29 217.5,-139.29 217.5,-116.29 303.5,-116.29 303.5,-139.29"/>
<text text-anchor="middle" x="260.5" y="-124.09" font-family="Times,serif" font-size="14.00">2_17_B1220</text>
</g>
<!-- 2_17_8 -->
<g id="node5" class="node"><title>2_17_8</title>
<polygon fill="#66cdaa" stroke="black" points="101,-139.29 44,-139.29 44,-116.29 101,-116.29 101,-139.29"/>
<text text-anchor="middle" x="72.5" y="-124.09" font-family="Times,serif" font-size="14.00">2_17_8</text>
</g>
<!-- 2_17_8&#45;&gt;2_17_8x2_17_9 -->
<g id="edge3" class="edge"><title>2_17_8&#45;&gt;2_17_8x2_17_9</title>
<path fill="none" stroke="black" d="M80.9954,-116.168C88.82,-106.385 100.325,-91.9999 107.865,-82.5735"/>
<polygon fill="black" stroke="black" points="110.771,-84.5431 114.284,-74.5476 105.304,-80.1709 110.771,-84.5431"/>
</g>
<!-- 2_17_9 -->
<g id="node7" class="node"><title>2_17_9</title>
<ellipse fill="#66cdaa" stroke="black" cx="159.5" cy="-127.79" rx="40.1111" ry="16.0303"/>
<text text-anchor="middle" x="159.5" y="-124.09" font-family="Times,serif" font-size="14.00">2_17_9</text>
</g>
<!-- 2_17_9&#45;&gt;2_17_8x2_17_9 -->
<g id="edge5" class="edge"><title>2_17_9&#45;&gt;2_17_8x2_17_9</title>
<path fill="none" stroke="black" d="M147.477,-112.099C139.748,-102.656 129.935,-90.6651 123.231,-82.4735"/>
<polygon fill="black" stroke="black" points="125.835,-80.1289 116.793,-74.6068 120.418,-84.5623 125.835,-80.1289"/>
</g>
</g>
</svg>
