<?xml version="1.0" encoding="UTF-8" standalone="no"?>
<!DOCTYPE svg PUBLIC "-//W3C//DTD SVG 1.1//EN"
 "http://www.w3.org/Graphics/SVG/1.1/DTD/svg11.dtd">
<!-- Generated by graphviz version 2.38.0 (20140413.2041)
 -->
<!-- Title: %3 Pages: 1 -->
<svg width="1270pt" height="375pt"
 viewBox="0.00 0.00 1269.81 375.11" xmlns="http://www.w3.org/2000/svg" xmlns:xlink="http://www.w3.org/1999/xlink">
<g id="graph0" class="graph" transform="scale(1 1) rotate(0) translate(4 371.108)">
<title>%3</title>
<polygon fill="white" stroke="none" points="-4,4 -4,-371.108 1265.81,-371.108 1265.81,4 -4,4"/>
<!-- 785_13 -->
<g id="node1" class="node"><title>785_13</title>
<polygon fill="#66cdaa" stroke="black" points="386,-362.344 329,-362.344 329,-339.344 386,-339.344 386,-362.344"/>
<text text-anchor="middle" x="357.5" y="-347.144" font-family="Times,serif" font-size="14.00">785_13</text>
</g>
<!-- 785_13x785_14 -->
<g id="node2" class="node"><title>785_13x785_14</title>
<polygon fill="none" stroke="black" points="400.5,-298.581 397,-295.081 400.5,-291.581 404,-295.081 400.5,-298.581"/>
</g>
<!-- 785_13&#45;&gt;785_13x785_14 -->
<g id="edge1" class="edge"><title>785_13&#45;&gt;785_13x785_14</title>
<path fill="none" stroke="black" d="M365.995,-339.222C373.82,-329.439 385.325,-315.054 392.865,-305.627"/>
<polygon fill="black" stroke="black" points="395.771,-307.597 399.284,-297.601 390.304,-303.225 395.771,-307.597"/>
</g>
<!-- 785_2 -->
<g id="node11" class="node"><title>785_2</title>
<ellipse fill="#66cdaa" stroke="black" cx="767.5" cy="-239.317" rx="35.2113" ry="16.0303"/>
<text text-anchor="middle" x="767.5" y="-235.617" font-family="Times,serif" font-size="14.00">785_2</text>
</g>
<!-- 785_13x785_14&#45;&gt;785_2 -->
<g id="edge7" class="edge"><title>785_13x785_14&#45;&gt;785_2</title>
<path fill="none" stroke="black" d="M402.844,-293.737C427.091,-290.185 633.173,-259.995 724.375,-246.635"/>
<polygon fill="black" stroke="black" points="725.003,-250.08 734.39,-245.168 723.989,-243.154 725.003,-250.08"/>
</g>
<!-- 785_15 -->
<g id="node16" class="node"><title>785_15</title>
<polygon fill="#66cdaa" stroke="black" points="429,-250.817 372,-250.817 372,-227.817 429,-227.817 429,-250.817"/>
<text text-anchor="middle" x="400.5" y="-235.617" font-family="Times,serif" font-size="14.00">785_15</text>
</g>
<!-- 785_13x785_14&#45;&gt;785_15 -->
<g id="edge14" class="edge"><title>785_13x785_14&#45;&gt;785_15</title>
<path fill="none" stroke="black" d="M400.5,-291.488C400.5,-286.02 400.5,-272.854 400.5,-261.248"/>
<polygon fill="black" stroke="black" points="404,-260.899 400.5,-250.899 397,-260.899 404,-260.899"/>
</g>
<!-- 785_18 -->
<g id="node32" class="node"><title>785_18</title>
<polygon fill="#66cdaa" stroke="black" points="504,-250.817 447,-250.817 447,-227.817 504,-227.817 504,-250.817"/>
<text text-anchor="middle" x="475.5" y="-235.617" font-family="Times,serif" font-size="14.00">785_18</text>
</g>
<!-- 785_13x785_14&#45;&gt;785_18 -->
<g id="edge30" class="edge"><title>785_13x785_14&#45;&gt;785_18</title>
<path fill="none" stroke="black" d="M402.066,-292.958C408.488,-288.355 433.354,-270.53 452.389,-256.884"/>
<polygon fill="black" stroke="black" points="454.549,-259.642 460.638,-250.971 450.471,-253.953 454.549,-259.642"/>
</g>
<!-- 785_16 -->
<g id="node33" class="node"><title>785_16</title>
<ellipse fill="#66cdaa" stroke="black" cx="139.5" cy="-239.317" rx="40.1111" ry="16.0303"/>
<text text-anchor="middle" x="139.5" y="-235.617" font-family="Times,serif" font-size="14.00">785_16</text>
</g>
<!-- 785_13x785_14&#45;&gt;785_16 -->
<g id="edge31" class="edge"><title>785_13x785_14&#45;&gt;785_16</title>
<path fill="none" stroke="black" d="M397.955,-293.739C380.239,-291.336 273.508,-276.457 188.5,-255.581 185.482,-254.84 182.377,-254.017 179.265,-253.149"/>
<polygon fill="black" stroke="black" points="179.977,-249.711 169.397,-250.267 178.014,-256.43 179.977,-249.711"/>
</g>
<!-- 785_17 -->
<g id="node35" class="node"><title>785_17</title>
<polygon fill="#66cdaa" stroke="black" points="255,-250.817 198,-250.817 198,-227.817 255,-227.817 255,-250.817"/>
<text text-anchor="middle" x="226.5" y="-235.617" font-family="Times,serif" font-size="14.00">785_17</text>
</g>
<!-- 785_13x785_14&#45;&gt;785_17 -->
<g id="edge33" class="edge"><title>785_13x785_14&#45;&gt;785_17</title>
<path fill="none" stroke="black" d="M398.229,-293.534C385.128,-290.361 317.914,-273.811 264.5,-255.581 263.457,-255.225 262.401,-254.856 261.338,-254.477"/>
<polygon fill="black" stroke="black" points="262.298,-251.1 251.706,-250.876 259.847,-257.656 262.298,-251.1"/>
</g>
<!-- 785_7 -->
<g id="node3" class="node"><title>785_7</title>
<polygon fill="dimgrey" stroke="black" points="595.5,-139.29 545.5,-139.29 545.5,-116.29 595.5,-116.29 595.5,-139.29"/>
<text text-anchor="middle" x="570.5" y="-124.09" font-family="Times,serif" font-size="14.00">785_7</text>
</g>
<!-- 785_7x785_20 -->
<g id="node5" class="node"><title>785_7x785_20</title>
<polygon fill="none" stroke="black" points="528.5,-75.5269 525,-72.0269 528.5,-68.5269 532,-72.0269 528.5,-75.5269"/>
</g>
<!-- 785_7&#45;&gt;785_7x785_20 -->
<g id="edge3" class="edge"><title>785_7&#45;&gt;785_7x785_20</title>
<path fill="none" stroke="black" d="M562.202,-116.168C554.56,-106.385 543.322,-91.9999 535.958,-82.5735"/>
<polygon fill="black" stroke="black" points="538.602,-80.2733 529.688,-74.5476 533.086,-84.5827 538.602,-80.2733"/>
</g>
<!-- 785_1x785_2 -->
<g id="node4" class="node"><title>785_1x785_2</title>
<polygon fill="none" stroke="black" points="850.5,-187.054 847,-183.554 850.5,-180.054 854,-183.554 850.5,-187.054"/>
</g>
<!-- 785_1x785_2&#45;&gt;785_7 -->
<g id="edge2" class="edge"><title>785_1x785_2&#45;&gt;785_7</title>
<path fill="none" stroke="black" d="M848.021,-182.417C828.845,-181.31 702.299,-173.09 604.5,-144.054 603.446,-143.741 602.381,-143.402 601.313,-143.042"/>
<polygon fill="black" stroke="black" points="602.344,-139.689 591.754,-139.369 599.833,-146.223 602.344,-139.689"/>
</g>
<!-- 785_9 -->
<g id="node6" class="node"><title>785_9</title>
<polygon fill="white" stroke="black" points="751.5,-139.29 701.5,-139.29 701.5,-116.29 751.5,-116.29 751.5,-139.29"/>
<text text-anchor="middle" x="726.5" y="-124.09" font-family="Times,serif" font-size="14.00">785_9</text>
</g>
<!-- 785_1x785_2&#45;&gt;785_9 -->
<g id="edge4" class="edge"><title>785_1x785_2&#45;&gt;785_9</title>
<path fill="none" stroke="black" d="M848.267,-181.616C838.123,-177.351 795.366,-159.336 760.5,-144.054 760.07,-143.866 759.638,-143.676 759.203,-143.484"/>
<polygon fill="black" stroke="black" points="760.447,-140.208 749.887,-139.355 757.61,-146.607 760.447,-140.208"/>
</g>
<!-- 785_99 -->
<g id="node7" class="node"><title>785_99</title>
<ellipse fill="dimgrey" stroke="black" cx="809.5" cy="-127.79" rx="40.1111" ry="16.0303"/>
<text text-anchor="middle" x="809.5" y="-124.09" font-family="Times,serif" font-size="14.00">785_99</text>
</g>
<!-- 785_1x785_2&#45;&gt;785_99 -->
<g id="edge5" class="edge"><title>785_1x785_2&#45;&gt;785_99</title>
<path fill="none" stroke="black" d="M849.136,-180.765C845.625,-176.161 835.926,-163.443 827.002,-151.741"/>
<polygon fill="black" stroke="black" points="829.588,-149.36 820.741,-143.53 824.022,-153.604 829.588,-149.36"/>
</g>
<!-- 785_6 -->
<g id="node13" class="node"><title>785_6</title>
<polygon fill="#66cdaa" stroke="black" points="917.5,-139.29 867.5,-139.29 867.5,-116.29 917.5,-116.29 917.5,-139.29"/>
<text text-anchor="middle" x="892.5" y="-124.09" font-family="Times,serif" font-size="14.00">785_6</text>
</g>
<!-- 785_1x785_2&#45;&gt;785_6 -->
<g id="edge10" class="edge"><title>785_1x785_2&#45;&gt;785_6</title>
<path fill="none" stroke="black" d="M851.897,-180.765C855.922,-175.613 867.884,-160.301 877.79,-147.621"/>
<polygon fill="black" stroke="black" points="880.798,-149.455 884.196,-139.42 875.281,-145.146 880.798,-149.455"/>
</g>
<!-- 785_8 -->
<g id="node15" class="node"><title>785_8</title>
<polygon fill="dimgrey" stroke="black" points="985.5,-139.29 935.5,-139.29 935.5,-116.29 985.5,-116.29 985.5,-139.29"/>
<text text-anchor="middle" x="960.5" y="-124.09" font-family="Times,serif" font-size="14.00">785_8</text>
</g>
<!-- 785_1x785_2&#45;&gt;785_8 -->
<g id="edge13" class="edge"><title>785_1x785_2&#45;&gt;785_8</title>
<path fill="none" stroke="black" d="M852.409,-181.621C861.483,-177.186 900.993,-157.875 929.625,-143.881"/>
<polygon fill="black" stroke="black" points="931.41,-146.904 938.858,-139.368 928.337,-140.615 931.41,-146.904"/>
</g>
<!-- 785_4 -->
<g id="node18" class="node"><title>785_4</title>
<ellipse fill="white" stroke="black" cx="1038.5" cy="-127.79" rx="35.2113" ry="16.0303"/>
<text text-anchor="middle" x="1038.5" y="-124.09" font-family="Times,serif" font-size="14.00">785_4</text>
</g>
<!-- 785_1x785_2&#45;&gt;785_4 -->
<g id="edge16" class="edge"><title>785_1x785_2&#45;&gt;785_4</title>
<path fill="none" stroke="black" d="M852.546,-182.066C865.472,-178.974 937.101,-161.657 994.5,-144.054 996.935,-143.307 999.437,-142.513 1001.95,-141.694"/>
<polygon fill="black" stroke="black" points="1003.24,-144.956 1011.61,-138.465 1001.02,-138.317 1003.24,-144.956"/>
</g>
<!-- 785_5 -->
<g id="node30" class="node"><title>785_5</title>
<ellipse fill="#66cdaa" stroke="black" cx="1127.5" cy="-127.79" rx="35.2113" ry="16.0303"/>
<text text-anchor="middle" x="1127.5" y="-124.09" font-family="Times,serif" font-size="14.00">785_5</text>
</g>
<!-- 785_1x785_2&#45;&gt;785_5 -->
<g id="edge28" class="edge"><title>785_1x785_2&#45;&gt;785_5</title>
<path fill="none" stroke="black" d="M852.815,-182.315C870.731,-180.436 989.039,-167.494 1082.5,-144.054 1085.28,-143.358 1088.13,-142.57 1090.98,-141.728"/>
<polygon fill="black" stroke="black" points="1092.09,-145.047 1100.58,-138.713 1090,-138.368 1092.09,-145.047"/>
</g>
<!-- 785_3 -->
<g id="node34" class="node"><title>785_3</title>
<ellipse fill="white" stroke="black" cx="648.5" cy="-127.79" rx="35.2113" ry="16.0303"/>
<text text-anchor="middle" x="648.5" y="-124.09" font-family="Times,serif" font-size="14.00">785_3</text>
</g>
<!-- 785_1x785_2&#45;&gt;785_3 -->
<g id="edge32" class="edge"><title>785_1x785_2&#45;&gt;785_3</title>
<path fill="none" stroke="black" d="M848.251,-182.09C834.045,-179.144 755.332,-162.562 692.5,-144.054 690.057,-143.334 687.549,-142.561 685.029,-141.757"/>
<polygon fill="black" stroke="black" points="685.955,-138.377 675.362,-138.562 683.758,-145.023 685.955,-138.377"/>
</g>
<!-- 785_30 -->
<g id="node19" class="node"><title>785_30</title>
<polygon fill="#66cdaa" stroke="black" points="383,-27.7635 326,-27.7635 326,-4.76346 383,-4.76346 383,-27.7635"/>
<text text-anchor="middle" x="354.5" y="-12.5635" font-family="Times,serif" font-size="14.00">785_30</text>
</g>
<!-- 785_7x785_20&#45;&gt;785_30 -->
<g id="edge17" class="edge"><title>785_7x785_20&#45;&gt;785_30</title>
<path fill="none" stroke="black" d="M526.229,-70.4803C513.128,-67.3068 445.914,-50.7574 392.5,-32.5269 391.457,-32.171 390.401,-31.8022 389.338,-31.4234"/>
<polygon fill="black" stroke="black" points="390.298,-28.046 379.706,-27.8218 387.847,-34.6026 390.298,-28.046"/>
</g>
<!-- 785_29 -->
<g id="node20" class="node"><title>785_29</title>
<ellipse fill="#66cdaa" stroke="black" cx="441.5" cy="-16.2635" rx="40.1111" ry="16.0303"/>
<text text-anchor="middle" x="441.5" y="-12.5635" font-family="Times,serif" font-size="14.00">785_29</text>
</g>
<!-- 785_7x785_20&#45;&gt;785_29 -->
<g id="edge18" class="edge"><title>785_7x785_20&#45;&gt;785_29</title>
<path fill="none" stroke="black" d="M526.683,-69.904C519.563,-65.5039 492.891,-49.0213 471.265,-35.6574"/>
<polygon fill="black" stroke="black" points="473.025,-32.6306 462.678,-30.351 469.345,-38.5854 473.025,-32.6306"/>
</g>
<!-- 785_28 -->
<g id="node21" class="node"><title>785_28</title>
<polygon fill="#66cdaa" stroke="black" points="557,-27.7635 500,-27.7635 500,-4.76346 557,-4.76346 557,-27.7635"/>
<text text-anchor="middle" x="528.5" y="-12.5635" font-family="Times,serif" font-size="14.00">785_28</text>
</g>
<!-- 785_7x785_20&#45;&gt;785_28 -->
<g id="edge19" class="edge"><title>785_7x785_20&#45;&gt;785_28</title>
<path fill="none" stroke="black" d="M528.5,-68.4338C528.5,-62.9657 528.5,-49.8005 528.5,-38.1938"/>
<polygon fill="black" stroke="black" points="532,-37.8452 528.5,-27.8453 525,-37.8453 532,-37.8452"/>
</g>
<!-- 785_27 -->
<g id="node22" class="node"><title>785_27</title>
<polygon fill="#66cdaa" stroke="black" points="632,-27.7635 575,-27.7635 575,-4.76346 632,-4.76346 632,-27.7635"/>
<text text-anchor="middle" x="603.5" y="-12.5635" font-family="Times,serif" font-size="14.00">785_27</text>
</g>
<!-- 785_7x785_20&#45;&gt;785_27 -->
<g id="edge20" class="edge"><title>785_7x785_20&#45;&gt;785_27</title>
<path fill="none" stroke="black" d="M530.066,-69.904C536.488,-65.301 561.354,-47.4758 580.389,-33.8304"/>
<polygon fill="black" stroke="black" points="582.549,-36.5883 588.638,-27.9175 578.471,-30.8991 582.549,-36.5883"/>
</g>
<!-- 785_26 -->
<g id="node23" class="node"><title>785_26</title>
<ellipse fill="#66cdaa" stroke="black" cx="690.5" cy="-16.2635" rx="40.1111" ry="16.0303"/>
<text text-anchor="middle" x="690.5" y="-12.5635" font-family="Times,serif" font-size="14.00">785_26</text>
</g>
<!-- 785_7x785_20&#45;&gt;785_26 -->
<g id="edge21" class="edge"><title>785_7x785_20&#45;&gt;785_26</title>
<path fill="none" stroke="black" d="M530.548,-70.3471C542.815,-66.2761 607.474,-44.8176 650.734,-30.4607"/>
<polygon fill="black" stroke="black" points="652.031,-33.7182 660.419,-27.2465 649.826,-27.0745 652.031,-33.7182"/>
</g>
<!-- 785_12 -->
<g id="node8" class="node"><title>785_12</title>
<polygon fill="#66cdaa" stroke="black" points="560,-362.344 503,-362.344 503,-339.344 560,-339.344 560,-362.344"/>
<text text-anchor="middle" x="531.5" y="-347.144" font-family="Times,serif" font-size="14.00">785_12</text>
</g>
<!-- 785_10 -->
<g id="node9" class="node"><title>785_10</title>
<ellipse fill="#66cdaa" stroke="black" cx="1221.5" cy="-127.79" rx="40.1111" ry="16.0303"/>
<text text-anchor="middle" x="1221.5" y="-124.09" font-family="Times,serif" font-size="14.00">785_10</text>
</g>
<!-- 785_1x785_11 -->
<g id="node10" class="node"><title>785_1x785_11</title>
<polygon fill="none" stroke="black" points="1179.5,-187.054 1176,-183.554 1179.5,-180.054 1183,-183.554 1179.5,-187.054"/>
</g>
<!-- 785_1x785_11&#45;&gt;785_10 -->
<g id="edge6" class="edge"><title>785_1x785_11&#45;&gt;785_10</title>
<path fill="none" stroke="black" d="M1180.9,-180.765C1184.49,-176.161 1194.43,-163.443 1203.57,-151.741"/>
<polygon fill="black" stroke="black" points="1206.59,-153.565 1209.99,-143.53 1201.07,-149.256 1206.59,-153.565"/>
</g>
<!-- 785_2&#45;&gt;785_1x785_2 -->
<g id="edge8" class="edge"><title>785_2&#45;&gt;785_1x785_2</title>
<path fill="none" stroke="black" d="M787.17,-225.576C803.78,-214.817 826.914,-199.832 840.133,-191.269"/>
<polygon fill="black" stroke="black" points="842.295,-194.039 848.785,-185.664 838.49,-188.163 842.295,-194.039"/>
</g>
<!-- 785_11 -->
<g id="node12" class="node"><title>785_11</title>
<ellipse fill="#66cdaa" stroke="black" cx="1179.5" cy="-239.317" rx="40.1111" ry="16.0303"/>
<text text-anchor="middle" x="1179.5" y="-235.617" font-family="Times,serif" font-size="14.00">785_11</text>
</g>
<!-- 785_11&#45;&gt;785_1x785_11 -->
<g id="edge9" class="edge"><title>785_11&#45;&gt;785_1x785_11</title>
<path fill="none" stroke="black" d="M1179.5,-222.767C1179.5,-214.661 1179.5,-204.872 1179.5,-197.232"/>
<polygon fill="black" stroke="black" points="1183,-197.077 1179.5,-187.077 1176,-197.077 1183,-197.077"/>
</g>
<!-- 785_1 -->
<g id="node14" class="node"><title>785_1</title>
<polygon fill="#66cdaa" stroke="black" points="957.5,-250.817 907.5,-250.817 907.5,-227.817 957.5,-227.817 957.5,-250.817"/>
<text text-anchor="middle" x="932.5" y="-235.617" font-family="Times,serif" font-size="14.00">785_1</text>
</g>
<!-- 785_1&#45;&gt;785_1x785_2 -->
<g id="edge11" class="edge"><title>785_1&#45;&gt;785_1x785_2</title>
<path fill="none" stroke="black" d="M916.299,-227.695C899.8,-216.877 874.718,-200.432 860.77,-191.287"/>
<polygon fill="black" stroke="black" points="862.629,-188.321 852.347,-185.765 858.791,-194.175 862.629,-188.321"/>
</g>
<!-- 785_1&#45;&gt;785_1x785_11 -->
<g id="edge12" class="edge"><title>785_1&#45;&gt;785_1x785_11</title>
<path fill="none" stroke="black" d="M957.543,-232.866C1009.88,-221.474 1129.16,-195.512 1167.44,-187.18"/>
<polygon fill="black" stroke="black" points="1168.2,-190.595 1177.23,-185.048 1166.71,-183.755 1168.2,-190.595"/>
</g>
<!-- 785_15x785_19 -->
<g id="node17" class="node"><title>785_15x785_19</title>
<polygon fill="none" stroke="black" points="313.5,-187.054 310,-183.554 313.5,-180.054 317,-183.554 313.5,-187.054"/>
</g>
<!-- 785_15&#45;&gt;785_15x785_19 -->
<g id="edge15" class="edge"><title>785_15&#45;&gt;785_15x785_19</title>
<path fill="none" stroke="black" d="M383.312,-227.695C365.806,-216.877 339.195,-200.432 324.396,-191.287"/>
<polygon fill="black" stroke="black" points="325.806,-188.045 315.46,-185.765 322.127,-193.999 325.806,-188.045"/>
</g>
<!-- 785_25 -->
<g id="node24" class="node"><title>785_25</title>
<polygon fill="#66cdaa" stroke="black" points="429,-139.29 372,-139.29 372,-116.29 429,-116.29 429,-139.29"/>
<text text-anchor="middle" x="400.5" y="-124.09" font-family="Times,serif" font-size="14.00">785_25</text>
</g>
<!-- 785_15x785_19&#45;&gt;785_25 -->
<g id="edge22" class="edge"><title>785_15x785_19&#45;&gt;785_25</title>
<path fill="none" stroke="black" d="M315.317,-181.431C322.866,-176.766 352.394,-158.519 374.583,-144.806"/>
<polygon fill="black" stroke="black" points="376.593,-147.679 383.26,-139.444 372.913,-141.724 376.593,-147.679"/>
</g>
<!-- 785_24 -->
<g id="node26" class="node"><title>785_24</title>
<polygon fill="#66cdaa" stroke="black" points="57,-139.29 0,-139.29 0,-116.29 57,-116.29 57,-139.29"/>
<text text-anchor="middle" x="28.5" y="-124.09" font-family="Times,serif" font-size="14.00">785_24</text>
</g>
<!-- 785_15x785_19&#45;&gt;785_24 -->
<g id="edge24" class="edge"><title>785_15x785_19&#45;&gt;785_24</title>
<path fill="none" stroke="black" d="M311.021,-182.383C291.845,-181.015 165.259,-171.204 66.5,-144.054 65.0433,-143.653 63.5666,-143.214 62.0832,-142.746"/>
<polygon fill="black" stroke="black" points="62.9338,-139.335 52.3389,-139.322 60.6132,-145.939 62.9338,-139.335"/>
</g>
<!-- 785_23 -->
<g id="node27" class="node"><title>785_23</title>
<ellipse fill="#66cdaa" stroke="black" cx="115.5" cy="-127.79" rx="40.1111" ry="16.0303"/>
<text text-anchor="middle" x="115.5" y="-124.09" font-family="Times,serif" font-size="14.00">785_23</text>
</g>
<!-- 785_15x785_19&#45;&gt;785_23 -->
<g id="edge25" class="edge"><title>785_15x785_19&#45;&gt;785_23</title>
<path fill="none" stroke="black" d="M311.404,-182.044C298.165,-178.814 224.774,-160.803 165.5,-144.054 162.399,-143.178 159.197,-142.251 155.981,-141.305"/>
<polygon fill="black" stroke="black" points="156.963,-137.945 146.38,-138.438 154.96,-144.653 156.963,-137.945"/>
</g>
<!-- 785_22 -->
<g id="node28" class="node"><title>785_22</title>
<ellipse fill="#66cdaa" stroke="black" cx="214.5" cy="-127.79" rx="40.1111" ry="16.0303"/>
<text text-anchor="middle" x="214.5" y="-124.09" font-family="Times,serif" font-size="14.00">785_22</text>
</g>
<!-- 785_15x785_19&#45;&gt;785_22 -->
<g id="edge26" class="edge"><title>785_15x785_19&#45;&gt;785_22</title>
<path fill="none" stroke="black" d="M311.782,-181.621C304.052,-177.423 271.783,-159.899 246.502,-146.17"/>
<polygon fill="black" stroke="black" points="248.021,-143.012 237.563,-141.315 244.68,-149.163 248.021,-143.012"/>
</g>
<!-- 785_21 -->
<g id="node29" class="node"><title>785_21</title>
<ellipse fill="#66cdaa" stroke="black" cx="313.5" cy="-127.79" rx="40.1111" ry="16.0303"/>
<text text-anchor="middle" x="313.5" y="-124.09" font-family="Times,serif" font-size="14.00">785_21</text>
</g>
<!-- 785_15x785_19&#45;&gt;785_21 -->
<g id="edge27" class="edge"><title>785_15x785_19&#45;&gt;785_21</title>
<path fill="none" stroke="black" d="M313.5,-179.961C313.5,-175.178 313.5,-164.508 313.5,-154.142"/>
<polygon fill="black" stroke="black" points="317,-154.107 313.5,-144.107 310,-154.107 317,-154.107"/>
</g>
<!-- 785_20 -->
<g id="node36" class="node"><title>785_20</title>
<ellipse fill="#66cdaa" stroke="black" cx="487.5" cy="-127.79" rx="40.1111" ry="16.0303"/>
<text text-anchor="middle" x="487.5" y="-124.09" font-family="Times,serif" font-size="14.00">785_20</text>
</g>
<!-- 785_15x785_19&#45;&gt;785_20 -->
<g id="edge34" class="edge"><title>785_15x785_19&#45;&gt;785_20</title>
<path fill="none" stroke="black" d="M315.454,-181.95C328.177,-178.019 400.173,-155.773 446.909,-141.333"/>
<polygon fill="black" stroke="black" points="447.946,-144.675 456.468,-138.379 445.88,-137.987 447.946,-144.675"/>
</g>
<!-- 785_14 -->
<g id="node25" class="node"><title>785_14</title>
<ellipse fill="#66cdaa" stroke="black" cx="444.5" cy="-350.844" rx="40.1111" ry="16.0303"/>
<text text-anchor="middle" x="444.5" y="-347.144" font-family="Times,serif" font-size="14.00">785_14</text>
</g>
<!-- 785_14&#45;&gt;785_13x785_14 -->
<g id="edge23" class="edge"><title>785_14&#45;&gt;785_13x785_14</title>
<path fill="none" stroke="black" d="M432.477,-335.153C424.748,-325.709 414.935,-313.719 408.231,-305.527"/>
<polygon fill="black" stroke="black" points="410.835,-303.183 401.793,-297.661 405.418,-307.616 410.835,-303.183"/>
</g>
<!-- 785_19 -->
<g id="node31" class="node"><title>785_19</title>
<ellipse fill="#66cdaa" stroke="black" cx="313.5" cy="-239.317" rx="40.1111" ry="16.0303"/>
<text text-anchor="middle" x="313.5" y="-235.617" font-family="Times,serif" font-size="14.00">785_19</text>
</g>
<!-- 785_19&#45;&gt;785_15x785_19 -->
<g id="edge29" class="edge"><title>785_19&#45;&gt;785_15x785_19</title>
<path fill="none" stroke="black" d="M313.5,-222.767C313.5,-214.661 313.5,-204.872 313.5,-197.232"/>
<polygon fill="black" stroke="black" points="317,-197.077 313.5,-187.077 310,-197.077 317,-197.077"/>
</g>
<!-- 785_20&#45;&gt;785_7x785_20 -->
<g id="edge35" class="edge"><title>785_20&#45;&gt;785_7x785_20</title>
<path fill="none" stroke="black" d="M498.703,-112.099C505.825,-102.76 514.846,-90.9312 521.087,-82.748"/>
<polygon fill="black" stroke="black" points="524.014,-84.6809 527.295,-74.6068 518.448,-80.4361 524.014,-84.6809"/>
</g>
</g>
</svg>
