<?xml version="1.0" encoding="UTF-8" standalone="no"?>
<!DOCTYPE svg PUBLIC "-//W3C//DTD SVG 1.1//EN"
 "http://www.w3.org/Graphics/SVG/1.1/DTD/svg11.dtd">
<!-- Generated by graphviz version 2.38.0 (20140413.2041)
 -->
<!-- Title: %3 Pages: 1 -->
<svg width="1552pt" height="366pt"
 viewBox="0.00 0.00 1552.30 365.58" xmlns="http://www.w3.org/2000/svg" xmlns:xlink="http://www.w3.org/1999/xlink">
<g id="graph0" class="graph" transform="scale(1 1) rotate(0) translate(4 361.581)">
<title>%3</title>
<polygon fill="white" stroke="none" points="-4,4 -4,-361.581 1548.3,-361.581 1548.3,4 -4,4"/>
<!-- 27_231_86316 -->
<g id="node1" class="node"><title>27_231_86316</title>
<polygon fill="#66cdaa" stroke="black" points="333.296,-241.29 235.296,-241.29 235.296,-218.29 333.296,-218.29 333.296,-241.29"/>
<text text-anchor="middle" x="284.296" y="-226.09" font-family="Times,serif" font-size="14.00">27_231_86316</text>
</g>
<!-- 27_231_86316x27_231_64480 -->
<g id="node2" class="node"><title>27_231_86316x27_231_64480</title>
<polygon fill="none" stroke="black" points="341.296,-177.527 337.796,-174.027 341.296,-170.527 344.796,-174.027 341.296,-177.527"/>
</g>
<!-- 27_231_86316&#45;&gt;27_231_86316x27_231_64480 -->
<g id="edge1" class="edge"><title>27_231_86316&#45;&gt;27_231_86316x27_231_64480</title>
<path fill="none" stroke="black" d="M295.558,-218.168C306.264,-208.07 322.17,-193.067 332.126,-183.677"/>
<polygon fill="black" stroke="black" points="334.811,-185.955 339.684,-176.548 330.008,-180.863 334.811,-185.955"/>
</g>
<!-- 27_231_86312 -->
<g id="node3" class="node"><title>27_231_86312</title>
<ellipse fill="white" stroke="black" cx="69.2965" cy="-118.263" rx="69.0935" ry="16.0303"/>
<text text-anchor="middle" x="69.2965" y="-114.563" font-family="Times,serif" font-size="14.00">27_231_86312</text>
</g>
<!-- 27_231_86316x27_231_64480&#45;&gt;27_231_86312 -->
<g id="edge2" class="edge"><title>27_231_86316x27_231_64480&#45;&gt;27_231_86312</title>
<path fill="none" stroke="black" d="M338.945,-172.562C320.993,-169.014 204.329,-145.954 130.453,-131.352"/>
<polygon fill="black" stroke="black" points="130.817,-127.856 120.328,-129.35 129.459,-134.723 130.817,-127.856"/>
</g>
<!-- 27_231_86313 -->
<g id="node6" class="node"><title>27_231_86313</title>
<polygon fill="white" stroke="black" points="254.296,-129.763 156.296,-129.763 156.296,-106.763 254.296,-106.763 254.296,-129.763"/>
<text text-anchor="middle" x="205.296" y="-114.563" font-family="Times,serif" font-size="14.00">27_231_86313</text>
</g>
<!-- 27_231_86316x27_231_64480&#45;&gt;27_231_86313 -->
<g id="edge5" class="edge"><title>27_231_86316x27_231_64480&#45;&gt;27_231_86313</title>
<path fill="none" stroke="black" d="M339.374,-172.267C328.898,-168.125 277.846,-147.944 241.858,-133.717"/>
<polygon fill="black" stroke="black" points="242.739,-130.302 232.153,-129.88 240.166,-136.812 242.739,-130.302"/>
</g>
<!-- 27_231_64481 -->
<g id="node12" class="node"><title>27_231_64481</title>
<ellipse fill="white" stroke="black" cx="341.296" cy="-118.263" rx="69.0935" ry="16.0303"/>
<text text-anchor="middle" x="341.296" y="-114.563" font-family="Times,serif" font-size="14.00">27_231_64481</text>
</g>
<!-- 27_231_86316x27_231_64480&#45;&gt;27_231_64481 -->
<g id="edge10" class="edge"><title>27_231_86316x27_231_64480&#45;&gt;27_231_64481</title>
<path fill="none" stroke="black" d="M341.296,-170.434C341.296,-165.651 341.296,-154.981 341.296,-144.615"/>
<polygon fill="black" stroke="black" points="344.797,-144.58 341.296,-134.58 337.797,-144.58 344.797,-144.58"/>
</g>
<!-- 27_231_86315 -->
<g id="node16" class="node"><title>27_231_86315</title>
<ellipse fill="white" stroke="black" cx="498.296" cy="-118.263" rx="69.0935" ry="16.0303"/>
<text text-anchor="middle" x="498.296" y="-114.563" font-family="Times,serif" font-size="14.00">27_231_86315</text>
</g>
<!-- 27_231_86316x27_231_64480&#45;&gt;27_231_86315 -->
<g id="edge12" class="edge"><title>27_231_86316x27_231_64480&#45;&gt;27_231_86315</title>
<path fill="none" stroke="black" d="M343.282,-172.347C354.389,-168.544 409.82,-149.561 451.249,-135.375"/>
<polygon fill="black" stroke="black" points="452.586,-138.616 460.912,-132.065 450.318,-131.994 452.586,-138.616"/>
</g>
<!-- 27_231_86314 -->
<g id="node18" class="node"><title>27_231_86314</title>
<ellipse fill="white" stroke="black" cx="655.296" cy="-118.263" rx="69.0935" ry="16.0303"/>
<text text-anchor="middle" x="655.296" y="-114.563" font-family="Times,serif" font-size="14.00">27_231_86314</text>
</g>
<!-- 27_231_86316x27_231_64480&#45;&gt;27_231_86314 -->
<g id="edge13" class="edge"><title>27_231_86316x27_231_64480&#45;&gt;27_231_86314</title>
<path fill="none" stroke="black" d="M343.617,-172.673C361.573,-169.925 480.246,-151.67 576.296,-134.527 582.111,-133.489 588.16,-132.378 594.207,-131.246"/>
<polygon fill="black" stroke="black" points="595.165,-134.627 604.34,-129.33 593.864,-127.748 595.165,-134.627"/>
</g>
<!-- 27_231_64480 -->
<g id="node4" class="node"><title>27_231_64480</title>
<ellipse fill="dimgrey" stroke="black" cx="420.296" cy="-229.79" rx="69.0935" ry="16.0303"/>
<text text-anchor="middle" x="420.296" y="-226.09" font-family="Times,serif" font-size="14.00">27_231_64480</text>
</g>
<!-- 27_231_64480&#45;&gt;27_231_86316x27_231_64480 -->
<g id="edge4" class="edge"><title>27_231_64480&#45;&gt;27_231_86316x27_231_64480</title>
<path fill="none" stroke="black" d="M398.709,-214.099C383.199,-203.544 363.015,-189.807 351.175,-181.749"/>
<polygon fill="black" stroke="black" points="353.04,-178.786 342.804,-176.053 349.102,-184.573 353.04,-178.786"/>
</g>
<!-- 27_231_86303x27_231_86302 -->
<g id="node5" class="node"><title>27_231_86303x27_231_86302</title>
<polygon fill="none" stroke="black" points="766.296,-289.054 762.796,-285.554 766.296,-282.054 769.796,-285.554 766.296,-289.054"/>
</g>
<!-- 27_231_86303x27_231_86302&#45;&gt;27_231_64480 -->
<g id="edge3" class="edge"><title>27_231_86303x27_231_86302&#45;&gt;27_231_64480</title>
<path fill="none" stroke="black" d="M763.647,-284.225C743.147,-281.671 607.668,-264.599 498.296,-246.054 492.544,-245.079 486.565,-244.009 480.589,-242.903"/>
<polygon fill="black" stroke="black" points="481.054,-239.429 470.579,-241.017 479.758,-246.308 481.054,-239.429"/>
</g>
<!-- 27_231_86304 -->
<g id="node7" class="node"><title>27_231_86304</title>
<ellipse fill="white" stroke="black" cx="698.296" cy="-229.79" rx="69.0935" ry="16.0303"/>
<text text-anchor="middle" x="698.296" y="-226.09" font-family="Times,serif" font-size="14.00">27_231_86304</text>
</g>
<!-- 27_231_86303x27_231_86302&#45;&gt;27_231_86304 -->
<g id="edge6" class="edge"><title>27_231_86303x27_231_86302&#45;&gt;27_231_86304</title>
<path fill="none" stroke="black" d="M764.876,-283.431C759.711,-279.347 741.385,-264.858 725.265,-252.112"/>
<polygon fill="black" stroke="black" points="727.132,-249.127 717.117,-245.671 722.791,-254.618 727.132,-249.127"/>
</g>
<!-- 27_231_86305 -->
<g id="node8" class="node"><title>27_231_86305</title>
<polygon fill="dimgrey" stroke="black" points="883.296,-241.29 785.296,-241.29 785.296,-218.29 883.296,-218.29 883.296,-241.29"/>
<text text-anchor="middle" x="834.296" y="-226.09" font-family="Times,serif" font-size="14.00">27_231_86305</text>
</g>
<!-- 27_231_86303x27_231_86302&#45;&gt;27_231_86305 -->
<g id="edge7" class="edge"><title>27_231_86303x27_231_86302&#45;&gt;27_231_86305</title>
<path fill="none" stroke="black" d="M767.717,-283.431C773.486,-278.869 795.679,-261.323 812.875,-247.727"/>
<polygon fill="black" stroke="black" points="815.148,-250.392 820.821,-241.444 810.806,-244.901 815.148,-250.392"/>
</g>
<!-- 27_231_86300 -->
<g id="node9" class="node"><title>27_231_86300</title>
<ellipse fill="dimgrey" stroke="black" cx="970.296" cy="-229.79" rx="69.0935" ry="16.0303"/>
<text text-anchor="middle" x="970.296" y="-226.09" font-family="Times,serif" font-size="14.00">27_231_86300</text>
</g>
<!-- 27_231_86303x27_231_86302&#45;&gt;27_231_86300 -->
<g id="edge8" class="edge"><title>27_231_86303x27_231_86302&#45;&gt;27_231_86300</title>
<path fill="none" stroke="black" d="M768.587,-283.95C782.928,-280.171 861.501,-259.463 916.235,-245.038"/>
<polygon fill="black" stroke="black" points="917.379,-248.356 926.157,-242.423 915.595,-241.587 917.379,-248.356"/>
</g>
<!-- 27_231_86300cx27_231_86300 -->
<g id="node10" class="node"><title>27_231_86300cx27_231_86300</title>
<polygon fill="none" stroke="black" points="941.296,-177.527 937.796,-174.027 941.296,-170.527 944.796,-174.027 941.296,-177.527"/>
</g>
<!-- 27_231_86300&#45;&gt;27_231_86300cx27_231_86300 -->
<g id="edge9" class="edge"><title>27_231_86300&#45;&gt;27_231_86300cx27_231_86300</title>
<path fill="none" stroke="black" d="M962.064,-213.528C957.293,-204.684 951.402,-193.762 947.115,-185.813"/>
<polygon fill="black" stroke="black" points="950.125,-184.021 942.297,-176.881 943.964,-187.344 950.125,-184.021"/>
</g>
<!-- 27_231_86301 -->
<g id="node13" class="node"><title>27_231_86301</title>
<polygon fill="#66cdaa" stroke="black" points="990.296,-129.763 892.296,-129.763 892.296,-106.763 990.296,-106.763 990.296,-129.763"/>
<text text-anchor="middle" x="941.296" y="-114.563" font-family="Times,serif" font-size="14.00">27_231_86301</text>
</g>
<!-- 27_231_86300cx27_231_86300&#45;&gt;27_231_86301 -->
<g id="edge11" class="edge"><title>27_231_86300cx27_231_86300&#45;&gt;27_231_86301</title>
<path fill="none" stroke="black" d="M941.296,-170.434C941.296,-164.966 941.296,-151.801 941.296,-140.194"/>
<polygon fill="black" stroke="black" points="944.797,-139.845 941.296,-129.845 937.797,-139.845 944.797,-139.845"/>
</g>
<!-- 27_231_86319 -->
<g id="node11" class="node"><title>27_231_86319</title>
<polygon fill="#66cdaa" stroke="black" points="999.296,-352.817 901.296,-352.817 901.296,-329.817 999.296,-329.817 999.296,-352.817"/>
<text text-anchor="middle" x="950.296" y="-337.617" font-family="Times,serif" font-size="14.00">27_231_86319</text>
</g>
<!-- 27_231_86307 -->
<g id="node14" class="node"><title>27_231_86307</title>
<polygon fill="#66cdaa" stroke="black" points="1115.3,-352.817 1017.3,-352.817 1017.3,-329.817 1115.3,-329.817 1115.3,-352.817"/>
<text text-anchor="middle" x="1066.3" y="-337.617" font-family="Times,serif" font-size="14.00">27_231_86307</text>
</g>
<!-- 27_231_86306 -->
<g id="node15" class="node"><title>27_231_86306</title>
<ellipse fill="#66cdaa" stroke="black" cx="1202.3" cy="-341.317" rx="69.0935" ry="16.0303"/>
<text text-anchor="middle" x="1202.3" y="-337.617" font-family="Times,serif" font-size="14.00">27_231_86306</text>
</g>
<!-- 27_231_86320 -->
<g id="node17" class="node"><title>27_231_86320</title>
<ellipse fill="#66cdaa" stroke="black" cx="1359.3" cy="-341.317" rx="69.0935" ry="16.0303"/>
<text text-anchor="middle" x="1359.3" y="-337.617" font-family="Times,serif" font-size="14.00">27_231_86320</text>
</g>
<!-- 27_231_86314cx27_231_86314 -->
<g id="node19" class="node"><title>27_231_86314cx27_231_86314</title>
<polygon fill="none" stroke="black" points="724.296,-66 720.796,-62.5 724.296,-59 727.796,-62.5 724.296,-66"/>
</g>
<!-- 27_231_86314&#45;&gt;27_231_86314cx27_231_86314 -->
<g id="edge14" class="edge"><title>27_231_86314&#45;&gt;27_231_86314cx27_231_86314</title>
<path fill="none" stroke="black" d="M674.151,-102.572C687.181,-92.4193 703.989,-79.3228 714.455,-71.168"/>
<polygon fill="black" stroke="black" points="716.905,-73.6963 722.642,-64.7891 712.603,-68.1746 716.905,-73.6963"/>
</g>
<!-- 27_231_86318 -->
<g id="node22" class="node"><title>27_231_86318</title>
<polygon fill="#66cdaa" stroke="black" points="773.296,-23 675.296,-23 675.296,-0 773.296,-0 773.296,-23"/>
<text text-anchor="middle" x="724.296" y="-7.8" font-family="Times,serif" font-size="14.00">27_231_86318</text>
</g>
<!-- 27_231_86314cx27_231_86314&#45;&gt;27_231_86318 -->
<g id="edge16" class="edge"><title>27_231_86314cx27_231_86314&#45;&gt;27_231_86318</title>
<path fill="none" stroke="black" d="M724.296,-58.8655C724.296,-54.0189 724.296,-43.2742 724.296,-33.3477"/>
<polygon fill="black" stroke="black" points="727.797,-33.2154 724.296,-23.2154 720.797,-33.2154 727.797,-33.2154"/>
</g>
<!-- 27_231_86302 -->
<g id="node20" class="node"><title>27_231_86302</title>
<ellipse fill="white" stroke="black" cx="698.296" cy="-341.317" rx="69.0935" ry="16.0303"/>
<text text-anchor="middle" x="698.296" y="-337.617" font-family="Times,serif" font-size="14.00">27_231_86302</text>
</g>
<!-- 27_231_86302&#45;&gt;27_231_86303x27_231_86302 -->
<g id="edge15" class="edge"><title>27_231_86302&#45;&gt;27_231_86303x27_231_86302</title>
<path fill="none" stroke="black" d="M716.878,-325.626C729.719,-315.473 746.284,-302.377 756.598,-294.222"/>
<polygon fill="black" stroke="black" points="758.992,-296.791 764.666,-287.843 754.651,-291.3 758.992,-296.791"/>
</g>
<!-- 27_231_86317 -->
<g id="node21" class="node"><title>27_231_86317</title>
<polygon fill="#66cdaa" stroke="black" points="1544.3,-352.817 1446.3,-352.817 1446.3,-329.817 1544.3,-329.817 1544.3,-352.817"/>
<text text-anchor="middle" x="1495.3" y="-337.617" font-family="Times,serif" font-size="14.00">27_231_86317</text>
</g>
<!-- 27_231_86314c -->
<g id="node23" class="node"><title>27_231_86314c</title>
<polygon fill="#66cdaa" stroke="black" points="846.296,-129.763 742.296,-129.763 742.296,-106.763 846.296,-106.763 846.296,-129.763"/>
<text text-anchor="middle" x="794.296" y="-114.563" font-family="Times,serif" font-size="14.00">27_231_86314c</text>
</g>
<!-- 27_231_86314c&#45;&gt;27_231_86314cx27_231_86314 -->
<g id="edge17" class="edge"><title>27_231_86314c&#45;&gt;27_231_86314cx27_231_86314</title>
<path fill="none" stroke="black" d="M780.467,-106.642C766.8,-96.145 746.236,-80.3505 734.149,-71.0672"/>
<polygon fill="black" stroke="black" points="735.936,-68.0266 725.873,-64.7111 731.672,-73.5781 735.936,-68.0266"/>
</g>
<!-- 27_231_86300c -->
<g id="node24" class="node"><title>27_231_86300c</title>
<polygon fill="#66cdaa" stroke="black" points="611.296,-241.29 507.296,-241.29 507.296,-218.29 611.296,-218.29 611.296,-241.29"/>
<text text-anchor="middle" x="559.296" y="-226.09" font-family="Times,serif" font-size="14.00">27_231_86300c</text>
</g>
<!-- 27_231_86300c&#45;&gt;27_231_86300cx27_231_86300 -->
<g id="edge18" class="edge"><title>27_231_86300c&#45;&gt;27_231_86300cx27_231_86300</title>
<path fill="none" stroke="black" d="M598.187,-218.284C605.497,-216.53 613.103,-214.853 620.296,-213.527 739.097,-191.629 885.026,-179.339 928.5,-175.979"/>
<polygon fill="black" stroke="black" points="928.998,-179.452 938.707,-175.212 928.473,-172.472 928.998,-179.452"/>
</g>
<!-- 27_231_86303 -->
<g id="node25" class="node"><title>27_231_86303</title>
<polygon fill="dimgrey" stroke="black" points="883.296,-352.817 785.296,-352.817 785.296,-329.817 883.296,-329.817 883.296,-352.817"/>
<text text-anchor="middle" x="834.296" y="-337.617" font-family="Times,serif" font-size="14.00">27_231_86303</text>
</g>
<!-- 27_231_86303&#45;&gt;27_231_86303x27_231_86302 -->
<g id="edge19" class="edge"><title>27_231_86303&#45;&gt;27_231_86303x27_231_86302</title>
<path fill="none" stroke="black" d="M820.862,-329.695C807.586,-319.199 787.609,-303.404 775.867,-294.121"/>
<polygon fill="black" stroke="black" points="777.843,-291.221 767.828,-287.765 773.502,-296.713 777.843,-291.221"/>
</g>
</g>
</svg>
