<?xml version="1.0" encoding="UTF-8" standalone="no"?>
<!DOCTYPE svg PUBLIC "-//W3C//DTD SVG 1.1//EN"
 "http://www.w3.org/Graphics/SVG/1.1/DTD/svg11.dtd">
<!-- Generated by graphviz version 2.38.0 (20140413.2041)
 -->
<!-- Title: %3 Pages: 1 -->
<svg width="933pt" height="264pt"
 viewBox="0.00 0.00 933.25 263.58" xmlns="http://www.w3.org/2000/svg" xmlns:xlink="http://www.w3.org/1999/xlink">
<g id="graph0" class="graph" transform="scale(1 1) rotate(0) translate(4 259.581)">
<title>%3</title>
<polygon fill="white" stroke="none" points="-4,4 -4,-259.581 929.255,-259.581 929.255,4 -4,4"/>
<!-- 25_2_33 -->
<g id="node1" class="node"><title>25_2_33</title>
<ellipse fill="dimgrey" stroke="black" cx="329.255" cy="-127.79" rx="45.011" ry="16.0303"/>
<text text-anchor="middle" x="329.255" y="-124.09" font-family="Times,serif" font-size="14.00">25_2_33</text>
</g>
<!-- 25_2_33ax25_2_33 -->
<g id="node3" class="node"><title>25_2_33ax25_2_33</title>
<polygon fill="none" stroke="black" points="282.255,-75.5269 278.755,-72.0269 282.255,-68.5269 285.755,-72.0269 282.255,-75.5269"/>
</g>
<!-- 25_2_33&#45;&gt;25_2_33ax25_2_33 -->
<g id="edge2" class="edge"><title>25_2_33&#45;&gt;25_2_33ax25_2_33</title>
<path fill="none" stroke="black" d="M316.412,-112.099C308.064,-102.551 297.441,-90.3983 290.276,-82.2019"/>
<polygon fill="black" stroke="black" points="292.853,-79.832 283.636,-74.6068 287.583,-84.4392 292.853,-79.832"/>
</g>
<!-- 25_2_49x25_2_50 -->
<g id="node2" class="node"><title>25_2_49x25_2_50</title>
<polygon fill="none" stroke="black" points="541.255,-187.054 537.755,-183.554 541.255,-180.054 544.755,-183.554 541.255,-187.054"/>
</g>
<!-- 25_2_49x25_2_50&#45;&gt;25_2_33 -->
<g id="edge1" class="edge"><title>25_2_49x25_2_50&#45;&gt;25_2_33</title>
<path fill="none" stroke="black" d="M539.035,-182.036C525.009,-178.76 447.249,-160.515 384.255,-144.054 380.689,-143.122 376.999,-142.139 373.296,-141.139"/>
<polygon fill="black" stroke="black" points="374.107,-137.733 363.538,-138.477 372.265,-144.486 374.107,-137.733"/>
</g>
<!-- 25_2_25 -->
<g id="node6" class="node"><title>25_2_25</title>
<polygon fill="dimgrey" stroke="black" points="655.255,-139.29 591.255,-139.29 591.255,-116.29 655.255,-116.29 655.255,-139.29"/>
<text text-anchor="middle" x="623.255" y="-124.09" font-family="Times,serif" font-size="14.00">25_2_25</text>
</g>
<!-- 25_2_49x25_2_50&#45;&gt;25_2_25 -->
<g id="edge4" class="edge"><title>25_2_49x25_2_50&#45;&gt;25_2_25</title>
<path fill="none" stroke="black" d="M542.968,-181.431C550.051,-176.786 577.666,-158.68 598.548,-144.99"/>
<polygon fill="black" stroke="black" points="600.562,-147.855 607.005,-139.444 596.723,-142.001 600.562,-147.855"/>
</g>
<!-- 25_2_29 -->
<g id="node8" class="node"><title>25_2_29</title>
<ellipse fill="dimgrey" stroke="black" cx="718.255" cy="-127.79" rx="45.011" ry="16.0303"/>
<text text-anchor="middle" x="718.255" y="-124.09" font-family="Times,serif" font-size="14.00">25_2_29</text>
</g>
<!-- 25_2_49x25_2_50&#45;&gt;25_2_29 -->
<g id="edge6" class="edge"><title>25_2_49x25_2_50&#45;&gt;25_2_29</title>
<path fill="none" stroke="black" d="M543.243,-181.95C556.007,-178.073 627.427,-156.379 674.996,-141.93"/>
<polygon fill="black" stroke="black" points="676.203,-145.221 684.754,-138.966 674.169,-138.524 676.203,-145.221"/>
</g>
<!-- 25_2_37 -->
<g id="node11" class="node"><title>25_2_37</title>
<ellipse fill="white" stroke="black" cx="45.2548" cy="-127.79" rx="45.011" ry="16.0303"/>
<text text-anchor="middle" x="45.2548" y="-124.09" font-family="Times,serif" font-size="14.00">25_2_37</text>
</g>
<!-- 25_2_49x25_2_50&#45;&gt;25_2_37 -->
<g id="edge9" class="edge"><title>25_2_49x25_2_50&#45;&gt;25_2_37</title>
<path fill="none" stroke="black" d="M538.761,-182.517C512.373,-182.094 281.851,-177.503 99.2548,-144.054 95.5385,-143.373 91.7089,-142.548 87.8856,-141.639"/>
<polygon fill="black" stroke="black" points="88.4176,-138.162 77.8621,-139.074 86.6822,-144.944 88.4176,-138.162"/>
</g>
<!-- 25_2_45 -->
<g id="node16" class="node"><title>25_2_45</title>
<polygon fill="white" stroke="black" points="573.255,-139.29 509.255,-139.29 509.255,-116.29 573.255,-116.29 573.255,-139.29"/>
<text text-anchor="middle" x="541.255" y="-124.09" font-family="Times,serif" font-size="14.00">25_2_45</text>
</g>
<!-- 25_2_49x25_2_50&#45;&gt;25_2_45 -->
<g id="edge14" class="edge"><title>25_2_49x25_2_50&#45;&gt;25_2_45</title>
<path fill="none" stroke="black" d="M541.255,-179.961C541.255,-174.493 541.255,-161.327 541.255,-149.721"/>
<polygon fill="black" stroke="black" points="544.755,-149.372 541.255,-139.372 537.755,-149.372 544.755,-149.372"/>
</g>
<!-- 25_2_36 -->
<g id="node10" class="node"><title>25_2_36</title>
<ellipse fill="white" stroke="black" cx="282.255" cy="-16.2635" rx="45.011" ry="16.0303"/>
<text text-anchor="middle" x="282.255" y="-12.5635" font-family="Times,serif" font-size="14.00">25_2_36</text>
</g>
<!-- 25_2_33ax25_2_33&#45;&gt;25_2_36 -->
<g id="edge8" class="edge"><title>25_2_33ax25_2_33&#45;&gt;25_2_36</title>
<path fill="none" stroke="black" d="M282.255,-68.4338C282.255,-63.6514 282.255,-52.9811 282.255,-42.6151"/>
<polygon fill="black" stroke="black" points="285.755,-42.5799 282.255,-32.58 278.755,-42.58 285.755,-42.5799"/>
</g>
<!-- 25_2_28c1 -->
<g id="node4" class="node"><title>25_2_28c1</title>
<ellipse fill="white" stroke="black" cx="789.255" cy="-239.317" rx="54.3945" ry="16.0303"/>
<text text-anchor="middle" x="789.255" y="-235.617" font-family="Times,serif" font-size="14.00">25_2_28c1</text>
</g>
<!-- 25_2_28x25_2_28c1 -->
<g id="node5" class="node"><title>25_2_28x25_2_28c1</title>
<polygon fill="none" stroke="black" points="841.255,-187.054 837.755,-183.554 841.255,-180.054 844.755,-183.554 841.255,-187.054"/>
</g>
<!-- 25_2_28c1&#45;&gt;25_2_28x25_2_28c1 -->
<g id="edge3" class="edge"><title>25_2_28c1&#45;&gt;25_2_28x25_2_28c1</title>
<path fill="none" stroke="black" d="M803.74,-223.341C813.14,-213.622 825.057,-201.3 832.907,-193.185"/>
<polygon fill="black" stroke="black" points="835.586,-195.449 840.022,-185.828 830.554,-190.583 835.586,-195.449"/>
</g>
<!-- 25_2_90012 -->
<g id="node22" class="node"><title>25_2_90012</title>
<ellipse fill="#66cdaa" stroke="black" cx="841.255" cy="-127.79" rx="59.2941" ry="16.0303"/>
<text text-anchor="middle" x="841.255" y="-124.09" font-family="Times,serif" font-size="14.00">25_2_90012</text>
</g>
<!-- 25_2_28x25_2_28c1&#45;&gt;25_2_90012 -->
<g id="edge20" class="edge"><title>25_2_28x25_2_28c1&#45;&gt;25_2_90012</title>
<path fill="none" stroke="black" d="M841.255,-179.961C841.255,-175.178 841.255,-164.508 841.255,-154.142"/>
<polygon fill="black" stroke="black" points="844.755,-154.107 841.255,-144.107 837.755,-154.107 844.755,-154.107"/>
</g>
<!-- 25_2_28 -->
<g id="node7" class="node"><title>25_2_28</title>
<polygon fill="dimgrey" stroke="black" points="925.255,-250.817 861.255,-250.817 861.255,-227.817 925.255,-227.817 925.255,-250.817"/>
<text text-anchor="middle" x="893.255" y="-235.617" font-family="Times,serif" font-size="14.00">25_2_28</text>
</g>
<!-- 25_2_28&#45;&gt;25_2_28x25_2_28c1 -->
<g id="edge5" class="edge"><title>25_2_28&#45;&gt;25_2_28x25_2_28c1</title>
<path fill="none" stroke="black" d="M882.981,-227.695C873.316,-217.702 859.005,-202.906 849.907,-193.499"/>
<polygon fill="black" stroke="black" points="852.194,-190.829 842.726,-186.074 847.162,-195.696 852.194,-190.829"/>
</g>
<!-- 25_2_33a -->
<g id="node9" class="node"><title>25_2_33a</title>
<polygon fill="#66cdaa" stroke="black" points="266.255,-139.29 196.255,-139.29 196.255,-116.29 266.255,-116.29 266.255,-139.29"/>
<text text-anchor="middle" x="231.255" y="-124.09" font-family="Times,serif" font-size="14.00">25_2_33a</text>
</g>
<!-- 25_2_33a&#45;&gt;25_2_33ax25_2_33 -->
<g id="edge7" class="edge"><title>25_2_33a&#45;&gt;25_2_33ax25_2_33</title>
<path fill="none" stroke="black" d="M241.331,-116.168C250.811,-106.175 264.846,-91.379 273.769,-81.9723"/>
<polygon fill="black" stroke="black" points="276.469,-84.2114 280.812,-74.5476 271.391,-79.3939 276.469,-84.2114"/>
</g>
<!-- 25_2_37ax25_2_37 -->
<g id="node12" class="node"><title>25_2_37ax25_2_37</title>
<polygon fill="none" stroke="black" points="81.2548,-75.5269 77.7548,-72.0269 81.2548,-68.5269 84.7548,-72.0269 81.2548,-75.5269"/>
</g>
<!-- 25_2_37&#45;&gt;25_2_37ax25_2_37 -->
<g id="edge10" class="edge"><title>25_2_37&#45;&gt;25_2_37ax25_2_37</title>
<path fill="none" stroke="black" d="M55.2828,-111.814C61.4619,-102.586 69.2116,-91.0126 74.6306,-82.9198"/>
<polygon fill="black" stroke="black" points="77.5534,-84.8454 80.209,-74.5888 71.7369,-80.9506 77.5534,-84.8454"/>
</g>
<!-- 25_2_38 -->
<g id="node14" class="node"><title>25_2_38</title>
<polygon fill="white" stroke="black" points="183.255,-27.7635 119.255,-27.7635 119.255,-4.76346 183.255,-4.76346 183.255,-27.7635"/>
<text text-anchor="middle" x="151.255" y="-12.5635" font-family="Times,serif" font-size="14.00">25_2_38</text>
</g>
<!-- 25_2_37ax25_2_37&#45;&gt;25_2_38 -->
<g id="edge12" class="edge"><title>25_2_37ax25_2_37&#45;&gt;25_2_38</title>
<path fill="none" stroke="black" d="M82.7169,-69.904C88.6559,-65.3425 111.502,-47.7959 129.203,-34.2002"/>
<polygon fill="black" stroke="black" points="131.584,-36.7845 137.383,-27.9175 127.321,-31.233 131.584,-36.7845"/>
</g>
<!-- 25_2_39 -->
<g id="node15" class="node"><title>25_2_39</title>
<ellipse fill="white" stroke="black" cx="56.2548" cy="-16.2635" rx="45.011" ry="16.0303"/>
<text text-anchor="middle" x="56.2548" y="-12.5635" font-family="Times,serif" font-size="14.00">25_2_39</text>
</g>
<!-- 25_2_37ax25_2_37&#45;&gt;25_2_39 -->
<g id="edge13" class="edge"><title>25_2_37ax25_2_37&#45;&gt;25_2_39</title>
<path fill="none" stroke="black" d="M80.423,-69.2381C78.3711,-64.8254 72.8528,-52.958 67.6065,-41.6757"/>
<polygon fill="black" stroke="black" points="70.7359,-40.1045 63.3457,-32.5126 64.3885,-43.056 70.7359,-40.1045"/>
</g>
<!-- 25_2_37a -->
<g id="node13" class="node"><title>25_2_37a</title>
<polygon fill="#66cdaa" stroke="black" points="178.255,-139.29 108.255,-139.29 108.255,-116.29 178.255,-116.29 178.255,-139.29"/>
<text text-anchor="middle" x="143.255" y="-124.09" font-family="Times,serif" font-size="14.00">25_2_37a</text>
</g>
<!-- 25_2_37a&#45;&gt;25_2_37ax25_2_37 -->
<g id="edge11" class="edge"><title>25_2_37a&#45;&gt;25_2_37ax25_2_37</title>
<path fill="none" stroke="black" d="M131.006,-116.168C119.025,-105.779 101.058,-90.1991 90.3114,-80.8803"/>
<polygon fill="black" stroke="black" points="92.4996,-78.1452 82.6515,-74.238 87.9136,-83.4337 92.4996,-78.1452"/>
</g>
<!-- 25_2_45x25_2_45a -->
<g id="node17" class="node"><title>25_2_45x25_2_45a</title>
<polygon fill="none" stroke="black" points="491.255,-75.5269 487.755,-72.0269 491.255,-68.5269 494.755,-72.0269 491.255,-75.5269"/>
</g>
<!-- 25_2_45&#45;&gt;25_2_45x25_2_45a -->
<g id="edge15" class="edge"><title>25_2_45&#45;&gt;25_2_45x25_2_45a</title>
<path fill="none" stroke="black" d="M531.376,-116.168C522.082,-106.175 508.322,-91.379 499.574,-81.9723"/>
<polygon fill="black" stroke="black" points="502.042,-79.4868 492.669,-74.5476 496.916,-84.2539 502.042,-79.4868"/>
</g>
<!-- 25_2_48 -->
<g id="node19" class="node"><title>25_2_48</title>
<ellipse fill="white" stroke="black" cx="491.255" cy="-16.2635" rx="45.011" ry="16.0303"/>
<text text-anchor="middle" x="491.255" y="-12.5635" font-family="Times,serif" font-size="14.00">25_2_48</text>
</g>
<!-- 25_2_45x25_2_45a&#45;&gt;25_2_48 -->
<g id="edge17" class="edge"><title>25_2_45x25_2_45a&#45;&gt;25_2_48</title>
<path fill="none" stroke="black" d="M491.255,-68.4338C491.255,-63.6514 491.255,-52.9811 491.255,-42.6151"/>
<polygon fill="black" stroke="black" points="494.755,-42.5799 491.255,-32.58 487.755,-42.58 494.755,-42.5799"/>
</g>
<!-- 25_2_45a -->
<g id="node18" class="node"><title>25_2_45a</title>
<ellipse fill="#66cdaa" stroke="black" cx="442.255" cy="-127.79" rx="49.4949" ry="16.0303"/>
<text text-anchor="middle" x="442.255" y="-124.09" font-family="Times,serif" font-size="14.00">25_2_45a</text>
</g>
<!-- 25_2_45a&#45;&gt;25_2_45x25_2_45a -->
<g id="edge16" class="edge"><title>25_2_45a&#45;&gt;25_2_45x25_2_45a</title>
<path fill="none" stroke="black" d="M455.644,-112.099C464.347,-102.551 475.423,-90.3983 482.893,-82.2019"/>
<polygon fill="black" stroke="black" points="485.666,-84.3554 489.815,-74.6068 480.492,-79.6401 485.666,-84.3554"/>
</g>
<!-- 25_2_49 -->
<g id="node20" class="node"><title>25_2_49</title>
<polygon fill="#66cdaa" stroke="black" points="526.255,-250.817 462.255,-250.817 462.255,-227.817 526.255,-227.817 526.255,-250.817"/>
<text text-anchor="middle" x="494.255" y="-235.617" font-family="Times,serif" font-size="14.00">25_2_49</text>
</g>
<!-- 25_2_49&#45;&gt;25_2_49x25_2_50 -->
<g id="edge18" class="edge"><title>25_2_49&#45;&gt;25_2_49x25_2_50</title>
<path fill="none" stroke="black" d="M503.541,-227.695C512.185,-217.807 524.94,-203.217 533.174,-193.798"/>
<polygon fill="black" stroke="black" points="535.979,-195.907 539.925,-186.074 530.709,-191.3 535.979,-195.907"/>
</g>
<!-- 25_2_50 -->
<g id="node21" class="node"><title>25_2_50</title>
<ellipse fill="#66cdaa" stroke="black" cx="589.255" cy="-239.317" rx="45.011" ry="16.0303"/>
<text text-anchor="middle" x="589.255" y="-235.617" font-family="Times,serif" font-size="14.00">25_2_50</text>
</g>
<!-- 25_2_50&#45;&gt;25_2_49x25_2_50 -->
<g id="edge19" class="edge"><title>25_2_50&#45;&gt;25_2_49x25_2_50</title>
<path fill="none" stroke="black" d="M576.139,-223.626C567.614,-214.077 556.764,-201.925 549.446,-193.729"/>
<polygon fill="black" stroke="black" points="551.936,-191.262 542.665,-186.134 546.714,-195.924 551.936,-191.262"/>
</g>
</g>
</svg>
