<?xml version="1.0" encoding="UTF-8" standalone="no"?>
<!DOCTYPE svg PUBLIC "-//W3C//DTD SVG 1.1//EN"
 "http://www.w3.org/Graphics/SVG/1.1/DTD/svg11.dtd">
<!-- Generated by graphviz version 2.38.0 (20140413.2041)
 -->
<!-- Title: %3 Pages: 1 -->
<svg width="168pt" height="264pt"
 viewBox="0.00 0.00 167.92 263.58" xmlns="http://www.w3.org/2000/svg" xmlns:xlink="http://www.w3.org/1999/xlink">
<g id="graph0" class="graph" transform="scale(1 1) rotate(0) translate(4 259.581)">
<title>%3</title>
<polygon fill="white" stroke="none" points="-4,4 -4,-259.581 163.92,-259.581 163.92,4 -4,4"/>
<!-- F4 -->
<g id="node1" class="node"><title>F4</title>
<polygon fill="white" stroke="black" points="36,-27.7635 0,-27.7635 0,-4.76346 36,-4.76346 36,-27.7635"/>
<text text-anchor="middle" x="18" y="-12.5635" font-family="Times,serif" font-size="14.00">F4</text>
</g>
<!-- P3xF1 -->
<g id="node2" class="node"><title>P3xF1</title>
<polygon fill="none" stroke="black" points="76,-75.5269 72.5,-72.0269 76,-68.5269 79.5,-72.0269 76,-75.5269"/>
</g>
<!-- P3xF1&#45;&gt;F4 -->
<g id="edge1" class="edge"><title>P3xF1&#45;&gt;F4</title>
<path fill="none" stroke="black" d="M74.5663,-69.6979C69.4147,-64.9227 51.3875,-48.2122 37.0513,-34.9232"/>
<polygon fill="black" stroke="black" points="39.2849,-32.2212 29.5717,-27.9899 34.5262,-37.3549 39.2849,-32.2212"/>
</g>
<!-- F3 -->
<g id="node3" class="node"><title>F3</title>
<ellipse fill="white" stroke="black" cx="76" cy="-16.2635" rx="21.8409" ry="16.0303"/>
<text text-anchor="middle" x="76" y="-12.5635" font-family="Times,serif" font-size="14.00">F3</text>
</g>
<!-- P3xF1&#45;&gt;F3 -->
<g id="edge2" class="edge"><title>P3xF1&#45;&gt;F3</title>
<path fill="none" stroke="black" d="M76,-68.4338C76,-63.6514 76,-52.9811 76,-42.6151"/>
<polygon fill="black" stroke="black" points="79.5001,-42.5799 76,-32.58 72.5001,-42.58 79.5001,-42.5799"/>
</g>
<!-- F2 -->
<g id="node4" class="node"><title>F2</title>
<ellipse fill="white" stroke="black" cx="138" cy="-16.2635" rx="21.8409" ry="16.0303"/>
<text text-anchor="middle" x="138" y="-12.5635" font-family="Times,serif" font-size="14.00">F2</text>
</g>
<!-- P3xF1&#45;&gt;F2 -->
<g id="edge3" class="edge"><title>P3xF1&#45;&gt;F2</title>
<path fill="none" stroke="black" d="M77.5326,-69.6979C82.8821,-65.0591 101.22,-49.1573 116.312,-36.0703"/>
<polygon fill="black" stroke="black" points="118.997,-38.3743 124.259,-29.1786 114.411,-33.0858 118.997,-38.3743"/>
</g>
<!-- F1 -->
<g id="node5" class="node"><title>F1</title>
<ellipse fill="dimgrey" stroke="black" cx="47" cy="-127.79" rx="21.8409" ry="16.0303"/>
<text text-anchor="middle" x="47" y="-124.09" font-family="Times,serif" font-size="14.00">F1</text>
</g>
<!-- F1&#45;&gt;P3xF1 -->
<g id="edge5" class="edge"><title>F1&#45;&gt;P3xF1</title>
<path fill="none" stroke="black" d="M54.7715,-112.383C59.6066,-103.419 65.7242,-92.0773 70.1488,-83.8746"/>
<polygon fill="black" stroke="black" points="73.2977,-85.4092 74.9647,-74.9463 67.1368,-82.086 73.2977,-85.4092"/>
</g>
<!-- P1xP2 -->
<g id="node6" class="node"><title>P1xP2</title>
<polygon fill="none" stroke="black" points="47,-187.054 43.5,-183.554 47,-180.054 50.5,-183.554 47,-187.054"/>
</g>
<!-- P1xP2&#45;&gt;F1 -->
<g id="edge4" class="edge"><title>P1xP2&#45;&gt;F1</title>
<path fill="none" stroke="black" d="M47,-179.961C47,-175.178 47,-164.508 47,-154.142"/>
<polygon fill="black" stroke="black" points="50.5001,-154.107 47,-144.107 43.5001,-154.107 50.5001,-154.107"/>
</g>
<!-- P3 -->
<g id="node7" class="node"><title>P3</title>
<polygon fill="dimgrey" stroke="black" points="123,-139.29 87,-139.29 87,-116.29 123,-116.29 123,-139.29"/>
<text text-anchor="middle" x="105" y="-124.09" font-family="Times,serif" font-size="14.00">P3</text>
</g>
<!-- P3&#45;&gt;P3xF1 -->
<g id="edge6" class="edge"><title>P3&#45;&gt;P3xF1</title>
<path fill="none" stroke="black" d="M99.2705,-116.168C94.2009,-106.77 86.84,-93.1234 81.7609,-83.7072"/>
<polygon fill="black" stroke="black" points="84.8325,-82.0289 77.0046,-74.8893 78.6716,-85.3522 84.8325,-82.0289"/>
</g>
<!-- P1 -->
<g id="node8" class="node"><title>P1</title>
<polygon fill="#66cdaa" stroke="black" points="36,-250.817 0,-250.817 0,-227.817 36,-227.817 36,-250.817"/>
<text text-anchor="middle" x="18" y="-235.617" font-family="Times,serif" font-size="14.00">P1</text>
</g>
<!-- P1&#45;&gt;P1xP2 -->
<g id="edge7" class="edge"><title>P1&#45;&gt;P1xP2</title>
<path fill="none" stroke="black" d="M23.7295,-227.695C28.7991,-218.297 36.16,-204.65 41.2391,-195.234"/>
<polygon fill="black" stroke="black" points="44.3284,-196.879 45.9954,-186.416 38.1675,-193.556 44.3284,-196.879"/>
</g>
<!-- P2 -->
<g id="node9" class="node"><title>P2</title>
<ellipse fill="#66cdaa" stroke="black" cx="76" cy="-239.317" rx="21.8409" ry="16.0303"/>
<text text-anchor="middle" x="76" y="-235.617" font-family="Times,serif" font-size="14.00">P2</text>
</g>
<!-- P2&#45;&gt;P1xP2 -->
<g id="edge8" class="edge"><title>P2&#45;&gt;P1xP2</title>
<path fill="none" stroke="black" d="M68.2285,-223.91C63.3934,-214.946 57.2758,-203.604 52.8512,-195.401"/>
<polygon fill="black" stroke="black" points="55.8632,-193.613 48.0353,-186.473 49.7023,-196.936 55.8632,-193.613"/>
</g>
</g>
</svg>
