<?xml version="1.0" encoding="UTF-8" standalone="no"?>
<!DOCTYPE svg PUBLIC "-//W3C//DTD SVG 1.1//EN"
 "http://www.w3.org/Graphics/SVG/1.1/DTD/svg11.dtd">
<!-- Generated by graphviz version 2.38.0 (20140413.2041)
 -->
<!-- Title: %3 Pages: 1 -->
<svg width="869pt" height="264pt"
 viewBox="0.00 0.00 869.00 263.58" xmlns="http://www.w3.org/2000/svg" xmlns:xlink="http://www.w3.org/1999/xlink">
<g id="graph0" class="graph" transform="scale(1 1) rotate(0) translate(4 259.581)">
<title>%3</title>
<polygon fill="white" stroke="none" points="-4,4 -4,-259.581 865,-259.581 865,4 -4,4"/>
<!-- 10R_R99_10 -->
<g id="node1" class="node"><title>10R_R99_10</title>
<ellipse fill="white" stroke="black" stroke-width="4" cx="477.5" cy="-16.2635" rx="62.8651" ry="16.0303"/>
<text text-anchor="middle" x="477.5" y="-12.5635" font-family="Times,serif" font-size="14.00">10R_R99_10</text>
</g>
<!-- 10R_R99_2x10R_R99_1 -->
<g id="node2" class="node"><title>10R_R99_2x10R_R99_1</title>
<polygon fill="none" stroke="black" points="628.5,-75.5269 625,-72.0269 628.5,-68.5269 632,-72.0269 628.5,-75.5269"/>
</g>
<!-- 10R_R99_2x10R_R99_1&#45;&gt;10R_R99_10 -->
<g id="edge1" class="edge"><title>10R_R99_2x10R_R99_1&#45;&gt;10R_R99_10</title>
<path fill="none" stroke="black" d="M626.365,-70.2669C615.139,-66.2698 561.949,-47.3315 522.332,-33.2258"/>
<polygon fill="black" stroke="black" points="523.435,-29.9034 512.84,-29.8463 521.087,-36.4979 523.435,-29.9034"/>
</g>
<!-- 10R_R99_19 -->
<g id="node3" class="node"><title>10R_R99_19</title>
<polygon fill="white" stroke="black" stroke-width="4" points="647,-27.7635 558,-27.7635 558,-4.76346 647,-4.76346 647,-27.7635"/>
<text text-anchor="middle" x="602.5" y="-12.5635" font-family="Times,serif" font-size="14.00">10R_R99_19</text>
</g>
<!-- 10R_R99_2x10R_R99_1&#45;&gt;10R_R99_19 -->
<g id="edge2" class="edge"><title>10R_R99_2x10R_R99_1&#45;&gt;10R_R99_19</title>
<path fill="none" stroke="black" d="M627.635,-69.2381C625.215,-64.2349 618.161,-49.6486 612.14,-37.1974"/>
<polygon fill="black" stroke="black" points="615.145,-35.3722 607.641,-27.8934 608.843,-38.4198 615.145,-35.3722"/>
</g>
<!-- 10R_R99_20 -->
<g id="node4" class="node"><title>10R_R99_20</title>
<polygon fill="white" stroke="black" points="754,-27.7635 665,-27.7635 665,-4.76346 754,-4.76346 754,-27.7635"/>
<text text-anchor="middle" x="709.5" y="-12.5635" font-family="Times,serif" font-size="14.00">10R_R99_20</text>
</g>
<!-- 10R_R99_2x10R_R99_1&#45;&gt;10R_R99_20 -->
<g id="edge3" class="edge"><title>10R_R99_2x10R_R99_1&#45;&gt;10R_R99_20</title>
<path fill="none" stroke="black" d="M630.192,-69.904C637.189,-65.2596 664.468,-47.1535 685.094,-33.4626"/>
<polygon fill="black" stroke="black" points="687.052,-36.3638 693.449,-27.9175 683.181,-30.5316 687.052,-36.3638"/>
</g>
<!-- 10R_R99_21 -->
<g id="node5" class="node"><title>10R_R99_21</title>
<polygon fill="white" stroke="black" points="861,-27.7635 772,-27.7635 772,-4.76346 861,-4.76346 861,-27.7635"/>
<text text-anchor="middle" x="816.5" y="-12.5635" font-family="Times,serif" font-size="14.00">10R_R99_21</text>
</g>
<!-- 10R_R99_2x10R_R99_1&#45;&gt;10R_R99_21 -->
<g id="edge4" class="edge"><title>10R_R99_2x10R_R99_1&#45;&gt;10R_R99_21</title>
<path fill="none" stroke="black" d="M630.727,-70.3941C643.584,-66.7406 709.614,-47.97 763.5,-32.5269 765.752,-31.8814 768.058,-31.2199 770.387,-30.5513"/>
<polygon fill="black" stroke="black" points="771.366,-33.9117 780.01,-27.7857 769.432,-27.1841 771.366,-33.9117"/>
</g>
<!-- 10R_R99_17 -->
<g id="node6" class="node"><title>10R_R99_17</title>
<polygon fill="white" stroke="black" stroke-width="4" points="89,-27.7635 7.10543e-15,-27.7635 7.10543e-15,-4.76346 89,-4.76346 89,-27.7635"/>
<text text-anchor="middle" x="44.5" y="-12.5635" font-family="Times,serif" font-size="14.00">10R_R99_17</text>
</g>
<!-- 10R_R99_29x10R_R99_15 -->
<g id="node7" class="node"><title>10R_R99_29x10R_R99_15</title>
<polygon fill="none" stroke="black" points="97.5,-75.5269 94,-72.0269 97.5,-68.5269 101,-72.0269 97.5,-75.5269"/>
</g>
<!-- 10R_R99_29x10R_R99_15&#45;&gt;10R_R99_17 -->
<g id="edge5" class="edge"><title>10R_R99_29x10R_R99_15&#45;&gt;10R_R99_17</title>
<path fill="none" stroke="black" d="M96.1899,-69.6979C91.5527,-64.9939 75.4982,-48.7082 62.4975,-35.5202"/>
<polygon fill="black" stroke="black" points="64.8181,-32.8887 55.3052,-28.2243 59.833,-37.8029 64.8181,-32.8887"/>
</g>
<!-- 10R_R99_22 -->
<g id="node8" class="node"><title>10R_R99_22</title>
<polygon fill="white" stroke="black" points="196,-27.7635 107,-27.7635 107,-4.76346 196,-4.76346 196,-27.7635"/>
<text text-anchor="middle" x="151.5" y="-12.5635" font-family="Times,serif" font-size="14.00">10R_R99_22</text>
</g>
<!-- 10R_R99_29x10R_R99_15&#45;&gt;10R_R99_22 -->
<g id="edge6" class="edge"><title>10R_R99_29x10R_R99_15&#45;&gt;10R_R99_22</title>
<path fill="none" stroke="black" d="M98.8348,-69.6979C103.56,-64.9939 119.917,-48.7082 133.163,-35.5202"/>
<polygon fill="black" stroke="black" points="135.874,-37.7602 140.491,-28.2243 130.935,-32.7996 135.874,-37.7602"/>
</g>
<!-- 10R_R99_15 -->
<g id="node9" class="node"><title>10R_R99_15</title>
<ellipse fill="dimgrey" stroke="black" stroke-width="4" cx="170.5" cy="-127.79" rx="62.8651" ry="16.0303"/>
<text text-anchor="middle" x="170.5" y="-124.09" font-family="Times,serif" font-size="14.00">10R_R99_15</text>
</g>
<!-- 10R_R99_15&#45;&gt;10R_R99_29x10R_R99_15 -->
<g id="edge8" class="edge"><title>10R_R99_15&#45;&gt;10R_R99_29x10R_R99_15</title>
<path fill="none" stroke="black" d="M150.552,-112.099C136.622,-101.839 118.609,-88.5737 107.564,-80.439"/>
<polygon fill="black" stroke="black" points="109.378,-77.428 99.2504,-74.316 105.227,-83.0644 109.378,-77.428"/>
</g>
<!-- 10R_R99_8x10R_R99_7 -->
<g id="node10" class="node"><title>10R_R99_8x10R_R99_7</title>
<polygon fill="none" stroke="black" points="453.5,-187.054 450,-183.554 453.5,-180.054 457,-183.554 453.5,-187.054"/>
</g>
<!-- 10R_R99_8x10R_R99_7&#45;&gt;10R_R99_15 -->
<g id="edge7" class="edge"><title>10R_R99_8x10R_R99_7&#45;&gt;10R_R99_15</title>
<path fill="none" stroke="black" d="M450.987,-182.123C433.486,-179.118 327.988,-160.911 242.5,-144.054 237.458,-143.06 232.223,-142.001 226.981,-140.923"/>
<polygon fill="black" stroke="black" points="227.44,-137.444 216.938,-138.837 226.017,-144.298 227.44,-137.444"/>
</g>
<!-- 10R_R99_12 -->
<g id="node11" class="node"><title>10R_R99_12</title>
<ellipse fill="dimgrey" stroke="black" stroke-width="4" cx="314.5" cy="-127.79" rx="62.8651" ry="16.0303"/>
<text text-anchor="middle" x="314.5" y="-124.09" font-family="Times,serif" font-size="14.00">10R_R99_12</text>
</g>
<!-- 10R_R99_8x10R_R99_7&#45;&gt;10R_R99_12 -->
<g id="edge9" class="edge"><title>10R_R99_8x10R_R99_7&#45;&gt;10R_R99_12</title>
<path fill="none" stroke="black" d="M451.535,-181.794C441.327,-177.845 393.427,-159.318 357.11,-145.271"/>
<polygon fill="black" stroke="black" points="358.276,-141.97 347.686,-141.626 355.75,-148.498 358.276,-141.97"/>
</g>
<!-- 10R_R99_1 -->
<g id="node12" class="node"><title>10R_R99_1</title>
<ellipse fill="dimgrey" stroke="black" stroke-width="4" cx="453.5" cy="-127.79" rx="57.9655" ry="16.0303"/>
<text text-anchor="middle" x="453.5" y="-124.09" font-family="Times,serif" font-size="14.00">10R_R99_1</text>
</g>
<!-- 10R_R99_8x10R_R99_7&#45;&gt;10R_R99_1 -->
<g id="edge10" class="edge"><title>10R_R99_8x10R_R99_7&#45;&gt;10R_R99_1</title>
<path fill="none" stroke="black" d="M453.5,-179.961C453.5,-175.178 453.5,-164.508 453.5,-154.142"/>
<polygon fill="black" stroke="black" points="457,-154.107 453.5,-144.107 450,-154.107 457,-154.107"/>
</g>
<!-- 10R_R99_5 -->
<g id="node13" class="node"><title>10R_R99_5</title>
<polygon fill="white" stroke="black" stroke-width="4" points="611.5,-139.29 529.5,-139.29 529.5,-116.29 611.5,-116.29 611.5,-139.29"/>
<text text-anchor="middle" x="570.5" y="-124.09" font-family="Times,serif" font-size="14.00">10R_R99_5</text>
</g>
<!-- 10R_R99_8x10R_R99_7&#45;&gt;10R_R99_5 -->
<g id="edge12" class="edge"><title>10R_R99_8x10R_R99_7&#45;&gt;10R_R99_5</title>
<path fill="none" stroke="black" d="M455.531,-181.621C465.224,-177.167 507.572,-157.707 538.056,-143.699"/>
<polygon fill="black" stroke="black" points="539.855,-146.724 547.481,-139.368 536.933,-140.363 539.855,-146.724"/>
</g>
<!-- 10R_R99_6 -->
<g id="node14" class="node"><title>10R_R99_6</title>
<ellipse fill="white" stroke="black" stroke-width="4" cx="687.5" cy="-127.79" rx="57.9655" ry="16.0303"/>
<text text-anchor="middle" x="687.5" y="-124.09" font-family="Times,serif" font-size="14.00">10R_R99_6</text>
</g>
<!-- 10R_R99_8x10R_R99_7&#45;&gt;10R_R99_6 -->
<g id="edge13" class="edge"><title>10R_R99_8x10R_R99_7&#45;&gt;10R_R99_6</title>
<path fill="none" stroke="black" d="M455.816,-182.022C472.171,-178.264 571.443,-155.455 634.622,-140.939"/>
<polygon fill="black" stroke="black" points="635.472,-144.336 644.434,-138.685 633.904,-137.513 635.472,-144.336"/>
</g>
<!-- 10R_R99_1&#45;&gt;10R_R99_2x10R_R99_1 -->
<g id="edge11" class="edge"><title>10R_R99_1&#45;&gt;10R_R99_2x10R_R99_1</title>
<path fill="none" stroke="black" d="M491.042,-115.257C530.725,-103.065 591.024,-84.5403 616.485,-76.718"/>
<polygon fill="black" stroke="black" points="617.8,-79.9758 626.331,-73.6933 615.744,-73.2844 617.8,-79.9758"/>
</g>
<!-- 10R_R99_2 -->
<g id="node15" class="node"><title>10R_R99_2</title>
<polygon fill="#66cdaa" stroke="black" points="845.5,-139.29 763.5,-139.29 763.5,-116.29 845.5,-116.29 845.5,-139.29"/>
<text text-anchor="middle" x="804.5" y="-124.09" font-family="Times,serif" font-size="14.00">10R_R99_2</text>
</g>
<!-- 10R_R99_2&#45;&gt;10R_R99_2x10R_R99_1 -->
<g id="edge14" class="edge"><title>10R_R99_2&#45;&gt;10R_R99_2x10R_R99_1</title>
<path fill="none" stroke="black" d="M769.728,-116.168C729.963,-104.021 666.971,-84.7789 640.667,-76.7436"/>
<polygon fill="black" stroke="black" points="641.352,-73.2932 630.765,-73.7189 639.307,-79.9878 641.352,-73.2932"/>
</g>
<!-- 10R_R99_29 -->
<g id="node16" class="node"><title>10R_R99_29</title>
<polygon fill="dimgrey" stroke="black" points="90,-139.29 1,-139.29 1,-116.29 90,-116.29 90,-139.29"/>
<text text-anchor="middle" x="45.5" y="-124.09" font-family="Times,serif" font-size="14.00">10R_R99_29</text>
</g>
<!-- 10R_R99_29&#45;&gt;10R_R99_29x10R_R99_15 -->
<g id="edge15" class="edge"><title>10R_R99_29&#45;&gt;10R_R99_29x10R_R99_15</title>
<path fill="none" stroke="black" d="M55.7735,-116.168C65.4393,-106.175 79.7498,-91.379 88.848,-81.9723"/>
<polygon fill="black" stroke="black" points="91.5928,-84.1688 96.0292,-74.5476 86.5612,-79.3023 91.5928,-84.1688"/>
</g>
<!-- 10R_R99_7 -->
<g id="node17" class="node"><title>10R_R99_7</title>
<ellipse fill="dimgrey" stroke="black" cx="395.5" cy="-239.317" rx="57.9655" ry="16.0303"/>
<text text-anchor="middle" x="395.5" y="-235.617" font-family="Times,serif" font-size="14.00">10R_R99_7</text>
</g>
<!-- 10R_R99_7&#45;&gt;10R_R99_8x10R_R99_7 -->
<g id="edge16" class="edge"><title>10R_R99_7&#45;&gt;10R_R99_8x10R_R99_7</title>
<path fill="none" stroke="black" d="M411.349,-223.626C422.071,-213.687 435.837,-200.927 444.665,-192.743"/>
<polygon fill="black" stroke="black" points="447.155,-195.208 452.109,-185.843 442.396,-190.074 447.155,-195.208"/>
</g>
<!-- 10R_R99_8 -->
<g id="node18" class="node"><title>10R_R99_8</title>
<polygon fill="white" stroke="black" points="553.5,-250.817 471.5,-250.817 471.5,-227.817 553.5,-227.817 553.5,-250.817"/>
<text text-anchor="middle" x="512.5" y="-235.617" font-family="Times,serif" font-size="14.00">10R_R99_8</text>
</g>
<!-- 10R_R99_8&#45;&gt;10R_R99_8x10R_R99_7 -->
<g id="edge17" class="edge"><title>10R_R99_8&#45;&gt;10R_R99_8x10R_R99_7</title>
<path fill="none" stroke="black" d="M500.843,-227.695C489.56,-217.413 472.697,-202.047 462.437,-192.697"/>
<polygon fill="black" stroke="black" points="464.578,-189.913 454.829,-185.765 459.863,-195.087 464.578,-189.913"/>
</g>
</g>
</svg>
