<?xml version="1.0" encoding="UTF-8" standalone="no"?>
<!DOCTYPE svg PUBLIC "-//W3C//DTD SVG 1.1//EN"
 "http://www.w3.org/Graphics/SVG/1.1/DTD/svg11.dtd">
<!-- Generated by graphviz version 2.38.0 (20140413.2041)
 -->
<!-- Title: %3 Pages: 1 -->
<svg width="885pt" height="391pt"
 viewBox="0.00 0.00 885.48 391.11" xmlns="http://www.w3.org/2000/svg" xmlns:xlink="http://www.w3.org/1999/xlink">
<g id="graph0" class="graph" transform="scale(1 1) rotate(0) translate(4 387.108)">
<title>%3</title>
<polygon fill="white" stroke="none" points="-4,4 -4,-387.108 881.483,-387.108 881.483,4 -4,4"/>
<!-- 10R_R99_15 -->
<g id="node1" class="node"><title>10R_R99_15</title>
<ellipse fill="dimgrey" stroke="black" cx="169.5" cy="-255.317" rx="62.8651" ry="16.0303"/>
<text text-anchor="middle" x="169.5" y="-251.617" font-family="Times,serif" font-size="14.00">10R_R99_15</text>
</g>
<!-- 10R_R99_29x10R_R99_15 -->
<g id="node3" class="node"><title>10R_R99_29x10R_R99_15</title>
<polygon fill="none" stroke="black" points="70.5,-195.054 67,-191.554 70.5,-188.054 74,-191.554 70.5,-195.054"/>
</g>
<!-- 10R_R99_15&#45;&gt;10R_R99_29x10R_R99_15 -->
<g id="edge2" class="edge"><title>10R_R99_15&#45;&gt;10R_R99_29x10R_R99_15</title>
<path fill="none" stroke="black" d="M146.539,-239.992C125.782,-227.043 96.1878,-208.58 80.7551,-198.952"/>
<polygon fill="black" stroke="black" points="82.432,-195.873 72.0952,-193.549 78.7268,-201.812 82.432,-195.873"/>
</g>
<!-- 10R_R99_8x10R_R99_7 -->
<g id="node2" class="node"><title>10R_R99_8x10R_R99_7</title>
<polygon fill="none" stroke="black" points="638.5,-314.581 635,-311.081 638.5,-307.581 642,-311.081 638.5,-314.581"/>
</g>
<!-- 10R_R99_8x10R_R99_7&#45;&gt;10R_R99_15 -->
<g id="edge1" class="edge"><title>10R_R99_8x10R_R99_7&#45;&gt;10R_R99_15</title>
<path fill="none" stroke="black" d="M635.966,-309.945C610.958,-308.58 405.757,-296.874 241.5,-271.581 236.054,-270.742 230.399,-269.753 224.761,-268.688"/>
<polygon fill="black" stroke="black" points="225.166,-265.2 214.679,-266.704 223.815,-272.069 225.166,-265.2"/>
</g>
<!-- 10R_R99_12 -->
<g id="node4" class="node"><title>10R_R99_12</title>
<ellipse fill="dimgrey" stroke="black" cx="413.5" cy="-255.317" rx="62.8651" ry="16.0303"/>
<text text-anchor="middle" x="413.5" y="-251.617" font-family="Times,serif" font-size="14.00">10R_R99_12</text>
</g>
<!-- 10R_R99_8x10R_R99_7&#45;&gt;10R_R99_12 -->
<g id="edge3" class="edge"><title>10R_R99_8x10R_R99_7&#45;&gt;10R_R99_12</title>
<path fill="none" stroke="black" d="M636.273,-309.549C620.839,-305.861 528.607,-283.822 467.76,-269.283"/>
<polygon fill="black" stroke="black" points="468.448,-265.849 457.909,-266.929 466.821,-272.657 468.448,-265.849"/>
</g>
<!-- 10R_R99_1 -->
<g id="node5" class="node"><title>10R_R99_1</title>
<ellipse fill="dimgrey" stroke="black" cx="552.5" cy="-255.317" rx="57.9655" ry="16.0303"/>
<text text-anchor="middle" x="552.5" y="-251.617" font-family="Times,serif" font-size="14.00">10R_R99_1</text>
</g>
<!-- 10R_R99_8x10R_R99_7&#45;&gt;10R_R99_1 -->
<g id="edge4" class="edge"><title>10R_R99_8x10R_R99_7&#45;&gt;10R_R99_1</title>
<path fill="none" stroke="black" d="M636.704,-308.958C629.866,-304.683 604.784,-289.003 583.758,-275.858"/>
<polygon fill="black" stroke="black" points="585.395,-272.754 575.06,-270.421 581.684,-278.69 585.395,-272.754"/>
</g>
<!-- 10R_R99_5 -->
<g id="node7" class="node"><title>10R_R99_5</title>
<polygon fill="white" stroke="black" points="730.5,-203.054 648.5,-203.054 648.5,-180.054 730.5,-180.054 730.5,-203.054"/>
<text text-anchor="middle" x="689.5" y="-187.854" font-family="Times,serif" font-size="14.00">10R_R99_5</text>
</g>
<!-- 10R_R99_8x10R_R99_7&#45;&gt;10R_R99_5 -->
<g id="edge6" class="edge"><title>10R_R99_8x10R_R99_7&#45;&gt;10R_R99_5</title>
<path fill="none" stroke="black" d="M638.824,-307.775C640.161,-298.681 645.741,-264.555 657.5,-239.054 661.96,-229.381 668.401,-219.54 674.337,-211.417"/>
<polygon fill="black" stroke="black" points="677.193,-213.444 680.462,-203.367 671.622,-209.206 677.193,-213.444"/>
</g>
<!-- 10R_R99_6 -->
<g id="node9" class="node"><title>10R_R99_6</title>
<ellipse fill="white" stroke="black" cx="724.5" cy="-255.317" rx="57.9655" ry="16.0303"/>
<text text-anchor="middle" x="724.5" y="-251.617" font-family="Times,serif" font-size="14.00">10R_R99_6</text>
</g>
<!-- 10R_R99_8x10R_R99_7&#45;&gt;10R_R99_6 -->
<g id="edge8" class="edge"><title>10R_R99_8x10R_R99_7&#45;&gt;10R_R99_6</title>
<path fill="none" stroke="black" d="M640.296,-308.958C647.134,-304.683 672.216,-289.003 693.242,-275.858"/>
<polygon fill="black" stroke="black" points="695.316,-278.69 701.94,-270.421 691.605,-272.754 695.316,-278.69"/>
</g>
<!-- 10R_R99_17 -->
<g id="node11" class="node"><title>10R_R99_17</title>
<polygon fill="white" stroke="black" points="95,-139.29 6,-139.29 6,-116.29 95,-116.29 95,-139.29"/>
<text text-anchor="middle" x="50.5" y="-124.09" font-family="Times,serif" font-size="14.00">10R_R99_17</text>
</g>
<!-- 10R_R99_29x10R_R99_15&#45;&gt;10R_R99_17 -->
<g id="edge10" class="edge"><title>10R_R99_29x10R_R99_15&#45;&gt;10R_R99_17</title>
<path fill="none" stroke="black" d="M69.8346,-188.499C67.8711,-182.435 61.94,-164.119 57.1595,-149.356"/>
<polygon fill="black" stroke="black" points="60.3657,-147.896 53.9552,-139.461 53.7062,-150.053 60.3657,-147.896"/>
</g>
<!-- 10R_R99_22 -->
<g id="node16" class="node"><title>10R_R99_22</title>
<polygon fill="white" stroke="black" points="202,-139.29 113,-139.29 113,-116.29 202,-116.29 202,-139.29"/>
<text text-anchor="middle" x="157.5" y="-124.09" font-family="Times,serif" font-size="14.00">10R_R99_22</text>
</g>
<!-- 10R_R99_29x10R_R99_15&#45;&gt;10R_R99_22 -->
<g id="edge16" class="edge"><title>10R_R99_29x10R_R99_15&#45;&gt;10R_R99_22</title>
<path fill="none" stroke="black" d="M72.01,-189.482C79.3329,-184.283 111.721,-161.29 134.456,-145.15"/>
<polygon fill="black" stroke="black" points="136.496,-147.994 142.625,-139.351 132.444,-142.286 136.496,-147.994"/>
</g>
<!-- 10R_R99_2x10R_R99_1 -->
<g id="node6" class="node"><title>10R_R99_2x10R_R99_1</title>
<polygon fill="none" stroke="black" points="492.5,-195.054 489,-191.554 492.5,-188.054 496,-191.554 492.5,-195.054"/>
</g>
<!-- 10R_R99_1&#45;&gt;10R_R99_2x10R_R99_1 -->
<g id="edge5" class="edge"><title>10R_R99_1&#45;&gt;10R_R99_2x10R_R99_1</title>
<path fill="none" stroke="black" d="M537.976,-239.366C526.411,-227.462 510.622,-211.209 501.016,-201.32"/>
<polygon fill="black" stroke="black" points="503.518,-198.873 494.04,-194.139 498.497,-203.75 503.518,-198.873"/>
</g>
<!-- 10R_R99_10 -->
<g id="node10" class="node"><title>10R_R99_10</title>
<ellipse fill="white" stroke="black" cx="334.5" cy="-127.79" rx="62.8651" ry="16.0303"/>
<text text-anchor="middle" x="334.5" y="-124.09" font-family="Times,serif" font-size="14.00">10R_R99_10</text>
</g>
<!-- 10R_R99_2x10R_R99_1&#45;&gt;10R_R99_10 -->
<g id="edge9" class="edge"><title>10R_R99_2x10R_R99_1&#45;&gt;10R_R99_10</title>
<path fill="none" stroke="black" d="M490.502,-189.773C478.903,-185.239 419.272,-161.928 377.197,-145.481"/>
<polygon fill="black" stroke="black" points="378.303,-142.156 367.715,-141.774 375.755,-148.675 378.303,-142.156"/>
</g>
<!-- 10R_R99_19 -->
<g id="node12" class="node"><title>10R_R99_19</title>
<polygon fill="white" stroke="black" points="504,-139.29 415,-139.29 415,-116.29 504,-116.29 504,-139.29"/>
<text text-anchor="middle" x="459.5" y="-124.09" font-family="Times,serif" font-size="14.00">10R_R99_19</text>
</g>
<!-- 10R_R99_2x10R_R99_1&#45;&gt;10R_R99_19 -->
<g id="edge11" class="edge"><title>10R_R99_2x10R_R99_1&#45;&gt;10R_R99_19</title>
<path fill="none" stroke="black" d="M491.548,-188.772C488.41,-182.899 478.131,-163.661 470.051,-148.538"/>
<polygon fill="black" stroke="black" points="472.955,-146.546 465.155,-139.375 466.781,-149.844 472.955,-146.546"/>
</g>
<!-- 10R_R99_20 -->
<g id="node14" class="node"><title>10R_R99_20</title>
<polygon fill="white" stroke="black" points="611,-139.29 522,-139.29 522,-116.29 611,-116.29 611,-139.29"/>
<text text-anchor="middle" x="566.5" y="-124.09" font-family="Times,serif" font-size="14.00">10R_R99_20</text>
</g>
<!-- 10R_R99_2x10R_R99_1&#45;&gt;10R_R99_20 -->
<g id="edge14" class="edge"><title>10R_R99_2x10R_R99_1&#45;&gt;10R_R99_20</title>
<path fill="none" stroke="black" d="M494.046,-189.264C500.627,-183.771 526.844,-161.889 545.853,-146.023"/>
<polygon fill="black" stroke="black" points="548.297,-148.542 553.732,-139.447 543.812,-143.168 548.297,-148.542"/>
</g>
<!-- 10R_R99_21 -->
<g id="node15" class="node"><title>10R_R99_21</title>
<polygon fill="white" stroke="black" points="718,-139.29 629,-139.29 629,-116.29 718,-116.29 718,-139.29"/>
<text text-anchor="middle" x="673.5" y="-124.09" font-family="Times,serif" font-size="14.00">10R_R99_21</text>
</g>
<!-- 10R_R99_2x10R_R99_1&#45;&gt;10R_R99_21 -->
<g id="edge15" class="edge"><title>10R_R99_2x10R_R99_1&#45;&gt;10R_R99_21</title>
<path fill="none" stroke="black" d="M494.533,-189.86C507.904,-185.297 584.214,-159.258 632.773,-142.688"/>
<polygon fill="black" stroke="black" points="634.051,-145.95 642.385,-139.408 631.79,-139.325 634.051,-145.95"/>
</g>
<!-- 10R_R99_19x10R_R99_5 -->
<g id="node8" class="node"><title>10R_R99_19x10R_R99_5</title>
<polygon fill="none" stroke="black" points="746.5,-75.5269 743,-72.0269 746.5,-68.5269 750,-72.0269 746.5,-75.5269"/>
</g>
<!-- 10R_R99_5&#45;&gt;10R_R99_19x10R_R99_5 -->
<g id="edge7" class="edge"><title>10R_R99_5&#45;&gt;10R_R99_19x10R_R99_5</title>
<path fill="none" stroke="black" d="M699.983,-179.965C708.261,-171.062 719.54,-157.644 726.5,-144.054 736.336,-124.848 741.887,-100.167 744.533,-85.5304"/>
<polygon fill="black" stroke="black" points="748.037,-85.7895 746.187,-75.3574 741.128,-84.6663 748.037,-85.7895"/>
</g>
<!-- 10R_R99_8 -->
<g id="node19" class="node"><title>10R_R99_8</title>
<ellipse fill="white" stroke="black" cx="819.5" cy="-16.2635" rx="57.9655" ry="16.0303"/>
<text text-anchor="middle" x="819.5" y="-12.5635" font-family="Times,serif" font-size="14.00">10R_R99_8</text>
</g>
<!-- 10R_R99_19x10R_R99_5&#45;&gt;10R_R99_8 -->
<g id="edge20" class="edge"><title>10R_R99_19x10R_R99_5&#45;&gt;10R_R99_8</title>
<path fill="none" stroke="black" d="M748.025,-69.904C753.69,-65.7313 774.11,-50.6925 791.681,-37.752"/>
<polygon fill="black" stroke="black" points="794.024,-40.3731 800,-31.6247 789.873,-34.7367 794.024,-40.3731"/>
</g>
<!-- 10R_R99_19&#45;&gt;10R_R99_19x10R_R99_5 -->
<g id="edge12" class="edge"><title>10R_R99_19&#45;&gt;10R_R99_19x10R_R99_5</title>
<path fill="none" stroke="black" d="M493.845,-116.265C500.023,-114.553 506.428,-112.896 512.5,-111.527 596.178,-92.6624 698.642,-79.0033 733.891,-74.5715"/>
<polygon fill="black" stroke="black" points="734.677,-78.0012 744.174,-73.3039 733.821,-71.0538 734.677,-78.0012"/>
</g>
<!-- 10R_R99_2 -->
<g id="node13" class="node"><title>10R_R99_2</title>
<polygon fill="#66cdaa" stroke="black" points="332.5,-266.817 250.5,-266.817 250.5,-243.817 332.5,-243.817 332.5,-266.817"/>
<text text-anchor="middle" x="291.5" y="-251.617" font-family="Times,serif" font-size="14.00">10R_R99_2</text>
</g>
<!-- 10R_R99_2&#45;&gt;10R_R99_2x10R_R99_1 -->
<g id="edge13" class="edge"><title>10R_R99_2&#45;&gt;10R_R99_2x10R_R99_1</title>
<path fill="none" stroke="black" d="M326.053,-243.7C371.996,-229.582 450.858,-205.35 480.644,-196.197"/>
<polygon fill="black" stroke="black" points="482.05,-199.426 490.581,-193.143 479.994,-192.735 482.05,-199.426"/>
</g>
<!-- 10R_R99_29 -->
<g id="node17" class="node"><title>10R_R99_29</title>
<polygon fill="dimgrey" stroke="black" points="89,-266.817 7.10543e-15,-266.817 7.10543e-15,-243.817 89,-243.817 89,-266.817"/>
<text text-anchor="middle" x="44.5" y="-251.617" font-family="Times,serif" font-size="14.00">10R_R99_29</text>
</g>
<!-- 10R_R99_29&#45;&gt;10R_R99_29x10R_R99_15 -->
<g id="edge17" class="edge"><title>10R_R99_29&#45;&gt;10R_R99_29x10R_R99_15</title>
<path fill="none" stroke="black" d="M49.0289,-243.559C53.7301,-232.391 61.0491,-215.004 65.8094,-203.697"/>
<polygon fill="black" stroke="black" points="69.0713,-204.969 69.7254,-194.394 62.6197,-202.253 69.0713,-204.969"/>
</g>
<!-- 10R_R99_7 -->
<g id="node18" class="node"><title>10R_R99_7</title>
<ellipse fill="dimgrey" stroke="black" cx="638.5" cy="-366.844" rx="57.9655" ry="16.0303"/>
<text text-anchor="middle" x="638.5" y="-363.144" font-family="Times,serif" font-size="14.00">10R_R99_7</text>
</g>
<!-- 10R_R99_7&#45;&gt;10R_R99_8x10R_R99_7 -->
<g id="edge18" class="edge"><title>10R_R99_7&#45;&gt;10R_R99_8x10R_R99_7</title>
<path fill="none" stroke="black" d="M638.5,-350.294C638.5,-342.188 638.5,-332.399 638.5,-324.759"/>
<polygon fill="black" stroke="black" points="642,-324.604 638.5,-314.604 635,-324.604 642,-324.604"/>
</g>
<!-- 10R_R99_8&#45;&gt;10R_R99_8x10R_R99_7 -->
<g id="edge19" class="edge"><title>10R_R99_8&#45;&gt;10R_R99_8x10R_R99_7</title>
<path fill="none" stroke="black" d="M813.475,-32.5014C810.5,-53.6593 810.5,-93.1337 810.5,-126.79 810.5,-192.554 810.5,-192.554 810.5,-192.554 810.5,-229.816 810.057,-246.499 782.5,-271.581 744.557,-306.115 680.227,-310.724 651.964,-310.712"/>
<polygon fill="black" stroke="black" points="651.82,-307.207 641.74,-310.471 651.655,-314.205 651.82,-307.207"/>
</g>
<!-- 10R_R99_8&#45;&gt;10R_R99_8x10R_R99_7 -->
<g id="edge21" class="edge"><title>10R_R99_8&#45;&gt;10R_R99_8x10R_R99_7</title>
<path fill="none" stroke="black" d="M825.525,-32.5014C828.5,-53.6593 828.5,-93.1337 828.5,-126.79 828.5,-192.554 828.5,-192.554 828.5,-192.554 828.5,-229.816 828.057,-246.499 800.5,-271.581 757.961,-310.298 682.257,-311.402 651.456,-310.549"/>
<polygon fill="black" stroke="black" points="651.356,-307.042 641.233,-310.167 651.095,-314.038 651.356,-307.042"/>
</g>
</g>
</svg>
